<?xml version="1.0" standalone="no"?>
<!DOCTYPE svg PUBLIC "-//W3C//DTD SVG 1.1//EN" "http://www.w3.org/Graphics/SVG/1.1/DTD/svg11.dtd" >
<svg xmlns="http://www.w3.org/2000/svg">
<metadata>
Created by FontPrep 20130207 at Fri May 26 15:12:27 2017
 By Lizzy Knight
Copyright (c) 2017 by Alfonso Garci'a - Latinotype Team. All rights reserved.
</metadata>
<defs>
<font id="c64777693fee91bfb613a91345f19801" horiz-adv-x='1024' >
  <font-face 
    font-family="RawsonPro-ExtraBold"
    font-weight="700"
    font-stretch="normal"
    units-per-em="2048"
    panose-1="0 0 8 0 0 0 0 0 0 0"
    ascent="1638"
    descent="-410"
    x-height="961"
    cap-height="1234"
    bbox="-1352 -478 2515 1858"
    underline-thickness="93"
    underline-position="-93"
    unicode-range="U+0020-FB02"
  />
<missing-glyph horiz-adv-x="930" 
 />
    <glyph glyph-name="fi" unicode="fi" horiz-adv-x="1219" 
d="M793 0v961h305v-961h-305zM186 916q0 197 110 308t285 111q74 0 132 -15v-266l-4 -2q-34 13 -78 13q-140 0 -141 -149h169v-238h-169v-678h-304v678h-132v238h132zM946 1082q-74 0 -126 52q-53 52 -53 126t53 126q52 52 126 53q74 0 126 -52q52 -53 52 -127t-52 -126
t-126 -52z" />
    <glyph glyph-name="fl" unicode="fl" horiz-adv-x="1221" 
d="M795 1322h303v-1322h-303v1322zM186 916q0 197 110 308t285 111q74 0 132 -15v-266l-4 -2q-34 13 -78 13q-140 0 -141 -149h169v-236h-169v-680h-304v680h-132v236h132z" />
    <glyph glyph-name=".notdef" horiz-adv-x="930" 
 />
    <glyph glyph-name=".null" 
 />
    <glyph glyph-name="nonmarkingreturn" horiz-adv-x="681" 
 />
    <glyph glyph-name="space" unicode=" " horiz-adv-x="435" 
 />
    <glyph glyph-name="exclam" unicode="!" horiz-adv-x="554" 
d="M438 131q0 -67 -42 -111t-121 -44t-121 44t-42 111q0 66 42 108t121 42t121 -42t42 -108zM151 432l-23 864h302l-22 -864h-257z" />
    <glyph glyph-name="quotedbl" unicode="&#x22;" horiz-adv-x="742" 
d="M436 750l-17 479h221l25 -24l-67 -455h-162zM123 750l-17 479h222l24 -24l-67 -455h-162z" />
    <glyph glyph-name="numbersign" unicode="#" horiz-adv-x="1159" 
d="M681 460l32 186h-220l-31 -186h219zM1067 646h-155l-31 -186h180v-199h-212l-34 -198h-199l34 198h-220l-33 -198h-200l34 198h-140v199h172l31 186h-197v199h229l33 198h200l-34 -198h220l33 198h199l-33 -198h123v-199z" />
    <glyph glyph-name="dollar" unicode="$" horiz-adv-x="949" 
d="M400 836q0 -32 36 -50t169 -59q132 -43 200 -115t68 -186t-66 -192q-66 -77 -189 -106v-188h-283v177q-128 13 -247 64v243l3 2q160 -98 336 -98t176 78q0 41 -41 62t-182 63q-289 82 -289 296q0 117 74 195t206 108v192h282v-181q112 -9 187 -43v-247l-4 -2
q-116 60 -276 60t-160 -73z" />
    <glyph glyph-name="percent" unicode="%" horiz-adv-x="1549" 
d="M1154 173q116 -1 116 143t-116 144t-116 -144t116 -143zM1154 -7q-149 0 -240 81t-91 238t92 244q92 86 240 86t240 -86q93 -86 93 -243q0 -158 -92 -239t-242 -81zM389 765q119 -1 119 145t-119 146q-114 0 -114 -146t114 -145zM240 24l853 1186h227l-853 -1186h-227z
M391 585q-149 0 -240 82t-91 239t93 244q93 86 240 86t239 -86t92 -243q0 -158 -92 -240t-241 -82z" />
    <glyph glyph-name="ampersand" unicode="&#x26;" horiz-adv-x="1293" 
d="M544 222q91 0 173 39l-242 257l-24 24q-95 -69 -95 -153q0 -167 188 -167zM515 -34q-200 0 -323 90t-123 270q0 246 234 381q-93 121 -93 259t102 224q102 88 264 88q163 0 279 -53v-242l-6 -2q-110 49 -231 49t-121 -82q0 -41 30 -82t156 -181l201 -225q24 60 39 136
h-106v216h477v-216h-125q-30 -177 -119 -320l246 -276h-333l-84 89q-164 -123 -364 -123z" />
    <glyph glyph-name="quotesingle" unicode="'" horiz-adv-x="430" 
d="M123 750l-17 479h222l24 -24l-67 -455h-162z" />
    <glyph glyph-name="parenleft" unicode="(" horiz-adv-x="655" 
d="M69 559q0 343 134 581t290 310l116 -212q-101 -74 -175 -246t-73 -434q0 -262 74 -436t174 -249l-116 -214q-145 65 -277 283q-65 108 -106 270t-41 347z" />
    <glyph glyph-name="parenright" unicode=")" horiz-adv-x="657" 
d="M588 570q0 -343 -134 -582t-290 -310l-116 212q100 74 174 246t74 434t-74 436t-174 249l116 214q146 -66 277 -283q65 -108 106 -270t41 -346z" />
    <glyph glyph-name="asterisk" unicode="*" horiz-adv-x="949" 
d="M495 583l-28 20l-3 289l14 17l40 11l22 -8l147 -260l-9 -21zM272 639l-132 132l1 35l250 145l22 -1l30 -30l4 -23l-151 -257zM804 782l-251 141l-7 23l9 39l18 15l298 -4l15 -17l-50 -184zM387 970l-298 4l-13 18l47 181l33 15l250 -142l11 -20l-11 -43zM572 1018l-25 4
l-29 30l-2 22l152 257l23 4l132 -136l-4 -32zM441 1048l-20 11l-145 257l7 23l182 48l30 -19l2 -290l-13 -19z" />
    <glyph glyph-name="plus" unicode="+" horiz-adv-x="1010" 
d="M948 644v-201h-339v-346h-207v346h-339v201h341v346h205v-346h339z" />
    <glyph glyph-name="comma" unicode="," horiz-adv-x="472" 
d="M76 -276q38 175 38 291t-10 214l239 26l35 -43q0 -128 -35 -259t-95 -229h-172z" />
    <glyph glyph-name="hyphen" unicode="-" horiz-adv-x="791" 
d="M112 413v248h566v-248h-566z" />
    <glyph glyph-name="period" unicode="." horiz-adv-x="489" 
d="M244 -24q-76 0 -119 44t-43 110t44 113q44 46 119 46t118 -46t43 -113q0 -66 -43 -110t-119 -44z" />
    <glyph glyph-name="slash" unicode="/" horiz-adv-x="949" 
d="M48 -225l583 1621h272l-583 -1621h-272z" />
    <glyph glyph-name="zero" unicode="0" horiz-adv-x="1239" 
d="M619 225q103 0 162 97t59 288t-59 292q-59 102 -162 102t-161 -102t-58 -292q0 -191 58 -288t161 -97zM618 -30q-242 0 -389 161t-147 476t150 485t389 170t388 -168t149 -485t-149 -478t-391 -161z" />
    <glyph glyph-name="one" unicode="1" horiz-adv-x="776" 
d="M324 0v840l-261 -105h-13v311l518 209h48v-1255h-292z" />
    <glyph glyph-name="two" unicode="2" horiz-adv-x="1083" 
d="M67 0q0 121 50 230q51 109 125 192t207 198q132 102 175 152t43 103q0 121 -196 121q-115 0 -213 -38t-152 -79l-4 2l-1 266q166 115 411 115q183 0 311 -79q143 -89 143 -297q0 -114 -60 -194t-245 -230q-181 -156 -186 -213h530v-249h-938z" />
    <glyph glyph-name="three" unicode="3" horiz-adv-x="1027" 
d="M459 -30q-220 0 -373 77v260l3 2q128 -84 321 -84q112 0 182 39q70 38 69 116q0 78 -61 112t-218 35h-119v227h119q223 0 223 127q1 127 -193 127t-300 -58l-4 1v250q182 63 364 63t303 -81t121 -249t-129 -266q175 -87 184 -288q2 -186 -135 -298t-357 -112z" />
    <glyph glyph-name="four" unicode="4" horiz-adv-x="1156" 
d="M648 438v368l-264 -368h264zM1091 438v-229h-169v-209h-274v209h-620v139l657 896h237v-806h169z" />
    <glyph glyph-name="five" unicode="5" horiz-adv-x="1053" 
d="M495 -30q-212 0 -396 58v272l3 2q179 -74 362 -75q214 0 214 170q0 76 -56 118t-160 42q-179 0 -348 -45l-4 6l41 722h763v-250h-519l-15 -199q60 13 152 13q207 0 325 -96t119 -293q0 -334 -319 -423q-78 -22 -162 -22z" />
    <glyph glyph-name="six" unicode="6" horiz-adv-x="1141" 
d="M577 222q99 0 149 49t50 126t-45 126q-47 49 -131 49t-142 -47t-74 -134q46 -169 193 -169zM667 823q177 0 287 -105t111 -298q0 -193 -131 -322q-130 -130 -366 -130t-362 151t-126 430q0 333 176 523t459 190q171 0 255 -31v-244l-7 -8q-95 32 -239 32
q-289 0 -342 -300q108 112 285 112z" />
    <glyph glyph-name="seven" unicode="7" horiz-adv-x="977" 
d="M48 957v277h892v-156l-458 -1078h-314l432 957h-552z" />
    <glyph glyph-name="eight" unicode="8" horiz-adv-x="1148" 
d="M592 207q194 0 190 123q0 52 -52 88t-142 72t-95 39q-6 4 -7 3q-114 -74 -114 -188q0 -137 220 -137zM584 1015q-173 0 -173 -101q0 -43 46 -77t176 -87q125 61 125 153q-1 112 -174 112zM1065 335q0 -160 -132 -262q-132 -103 -365 -103q-234 0 -360 87t-126 248
q0 199 201 335q-158 106 -158 273t132 258q133 91 327 91t324 -82t131 -249q0 -167 -186 -281q114 -63 163 -137t49 -178z" />
    <glyph glyph-name="nine" unicode="9" horiz-adv-x="1143" 
d="M554 1007q-88 -1 -137 -49q-48 -48 -48 -126q1 -78 47 -125t131 -48q134 0 220 80q-13 128 -69 198t-144 70zM73 822q0 198 129 320t361 122t365 -160t133 -476t-150 -486t-421 -170q-212 0 -332 50v263l8 5q128 -61 286 -62t227 70q68 71 84 201q-110 -86 -283 -86
t-290 106t-117 303z" />
    <glyph glyph-name="colon" unicode=":" horiz-adv-x="543" 
d="M272 -24q-80 0 -122 42t-42 108t42 110t122 45q80 0 122 -45q42 -44 42 -110t-42 -108t-122 -42zM272 663q-80 0 -122 42t-42 108q0 67 42 111t122 44t122 -45t42 -111t-42 -107q-42 -42 -122 -42z" />
    <glyph glyph-name="semicolon" unicode=";" horiz-adv-x="539" 
d="M147 15q0 116 -9 214l238 26l35 -43q0 -128 -35 -259t-95 -229h-171q37 175 37 291zM272 665q-76 -1 -119 43t-43 111t44 113t119 46t118 -46t43 -113t-43 -111t-119 -43z" />
    <glyph glyph-name="less" unicode="&#x3c;" horiz-adv-x="919" 
d="M311 557l41 -17l490 -285l-101 -186l-681 393v188l681 393l101 -185l-492 -285z" />
    <glyph glyph-name="equal" unicode="=" horiz-adv-x="1130" 
d="M114 225v205h903v-205h-903zM114 644v205h903v-205h-903z" />
    <glyph glyph-name="greater" unicode="&#x3e;" horiz-adv-x="919" 
d="M181 1041l681 -393v-188l-681 -393l-101 184l492 285l39 17l-41 17l-490 285z" />
    <glyph glyph-name="question" unicode="?" horiz-adv-x="839" 
d="M335 -20q-80 0 -121 42t-41 108q0 67 41 111t121 44t122 -44t42 -111q0 -66 -42 -108t-122 -42zM478 916q0 123 -160 123q-132 0 -230 -60l-4 2l-2 261q116 58 286 58t290 -90t120 -260q0 -114 -49 -188t-138 -140t-110 -112q-21 -47 -21 -104l-265 -4q-3 132 35 206
t139 142q61 47 85 81t24 85z" />
    <glyph glyph-name="at" unicode="@" horiz-adv-x="1565" 
d="M795 324q88 0 117 76v201q-44 37 -108 37t-104 -42q-40 -44 -39 -118q0 -74 37 -114t97 -40zM1136 808v-434q0 -41 37 -41q82 1 82 211t-117 316t-311 106q-233 0 -369 -138t-136 -364t130 -354t346 -128t336 96h9l108 -166q-153 -143 -441 -143q-344 0 -539 189
q-195 190 -195 506t204 516t547 200q292 0 483 -166t191 -437q0 -195 -86 -321t-256 -126t-217 106q-26 -50 -80 -82t-127 -33q-133 0 -217 92t-84 255t94 261t241 98q104 0 179 -51l7 32h181z" />
    <glyph glyph-name="A" unicode="A" horiz-adv-x="1206" 
d="M445 380h300l-127 287l-30 85l-28 -85zM910 0l-74 169h-475l-69 -169h-301l540 1238h134l560 -1238h-315z" />
    <glyph glyph-name="B" unicode="B" horiz-adv-x="1137" 
d="M570 222q207 0 206 154q0 65 -51 105t-139 40h-148v-299h132zM553 1009q-78 0 -115 -4v-275h109q84 0 127 38t43 103t-43 101.5t-121 36.5zM1069 369q0 -177 -124 -273t-345 -96h-455v1234q153 13 363 13q486 0 486 -327q0 -168 -130 -252q205 -86 205 -299z" />
    <glyph glyph-name="C" unicode="C" horiz-adv-x="1133" 
d="M737 -22q-291 0 -477 168q-186 166 -186 464t182 475t476 177q168 0 320 -48v-283l-6 -4q-128 61 -292 61t-265.5 -96.5t-101.5 -272.5t102.5 -272t292.5 -96q140 0 262 52l8 -5v-274q-136 -46 -315 -46z" />
    <glyph glyph-name="D" unicode="D" horiz-adv-x="1364" 
d="M607 977q-102 0 -162 -7v-702q50 -4 169 -4q361 4 362 362q0 173 -100.5 262t-268.5 89zM613 1251q317 0 496 -166.5t179 -462t-189 -460t-516 -164.5q-378 0 -438 2v1234q280 17 468 17z" />
    <glyph glyph-name="E" unicode="E" horiz-adv-x="1055" 
d="M447 248h519v-248h-821v1234h805v-247h-503v-233h467v-242h-467v-264z" />
    <glyph glyph-name="F" unicode="F" horiz-adv-x="994" 
d="M936 961h-489v-268h417v-267h-417v-426h-302v1234h791v-273z" />
    <glyph glyph-name="G" unicode="G" horiz-adv-x="1267" 
d="M1175 672v-622q-205 -71 -434 -70q-315 0 -491 162.5t-176 466.5t193 478.5t524 174.5q188 0 334 -54l-2 -290l-8 -2q-143 73 -331 73t-292 -100q-104 -99 -103.5 -273t96.5 -269.5t273 -95.5q65 0 145 19v169h-175v233h447z" />
    <glyph glyph-name="H" unicode="H" horiz-adv-x="1396" 
d="M950 1234h303v-1234h-303v478h-503v-478h-302v1234h302v-480h503v480z" />
    <glyph glyph-name="I" unicode="I" horiz-adv-x="593" 
d="M145 0v1234h304v-1234h-304z" />
    <glyph glyph-name="J" unicode="J" horiz-adv-x="727" 
d="M140 -6q-58 0 -112 8v253l7 4q32 -6 64 -6q195 0 195 250v731h306v-702q0 -538 -460 -538z" />
    <glyph glyph-name="K" unicode="K" horiz-adv-x="1264" 
d="M447 0h-302v1234h302v-500l462 500h346l2 -7l-568 -600l603 -620l-4 -7h-374l-467 477v-477z" />
    <glyph glyph-name="L" unicode="L" horiz-adv-x="947" 
d="M447 251h480v-251h-782v1234h302v-983z" />
    <glyph glyph-name="M" unicode="M" horiz-adv-x="1606" 
d="M110 0l72 1234h259l376 -659l358 659h247l75 -1234h-281l-37 719h-6l-294 -561h-142l-305 559h-6l-31 -717h-285z" />
    <glyph glyph-name="N" unicode="N" horiz-adv-x="1377" 
d="M145 0v1234h132l659 -662h6v662h291v-1234h-133l-661 676h-5v-676h-289z" />
    <glyph glyph-name="O" unicode="O" horiz-adv-x="1448" 
d="M724.5 249q154.5 0 245.5 99t91 270t-91 271t-245.5 100t-245 -99t-90.5 -271t90.5 -271t245 -99zM74 618q0 296 182.5 470t467.5 174q173 0 318.5 -69.5t239.5 -219.5t94 -355q0 -294 -183.5 -467t-457 -173t-461.5 159q-92 77 -146 202t-54 279z" />
    <glyph glyph-name="P" unicode="P" horiz-adv-x="1120" 
d="M544 624q229 0 229 186q0 86 -57 132.5t-149 46.5t-122 -2v-358q58 -5 99 -5zM583 372q-69 0 -138 6v-378h-300v1234q246 15 399 13q530 -3 532 -420q2 -225 -134 -340t-359 -115z" />
    <glyph glyph-name="Q" unicode="Q" horiz-adv-x="1448" 
d="M724.5 249q154.5 0 245.5 99t91 270t-91 271t-245.5 100t-245 -99t-90.5 -271t90.5 -271t245 -99zM1376 602.5q0 -220.5 -123 -381.5t-328 -217q65 -130 267 -186l3 -8l-111 -214q-344 69 -449 387q-242 26 -401.5 192t-159.5 452.5t182.5 460.5t467.5 174
q173 0 318.5 -69.5t239.5 -219.5t94 -370.5z" />
    <glyph glyph-name="R" unicode="R" horiz-adv-x="1180" 
d="M445 629h110q95 0 153.5 47.5t58.5 134t-52 132.5t-144 46t-126 -4v-356zM445 402v-402h-300v1234q190 13 347.5 13t247.5 -20.5t168 -64.5q164 -94 163 -328q-1 -283 -224 -387l278 -440l-4 -7h-324l-244 402h-108z" />
    <glyph glyph-name="S" unicode="S" horiz-adv-x="992" 
d="M461 -20q-206 0 -370 80v277l8 4q153 -106 329.5 -106t176.5 115q0 54 -40 91t-161 90q-302 125 -302 361q0 181 127 274.5t318 93.5t322 -52v-260l-7 -2q-104 58 -281 60t-177 -97q0 -43 44.5 -73t172.5 -86.5t208 -147t80 -253.5t-121 -266t-327 -103z" />
    <glyph glyph-name="T" unicode="T" horiz-adv-x="1107" 
d="M1085 1234v-271h-370v-963h-305v963h-386v271h1061z" />
    <glyph glyph-name="U" unicode="U" horiz-adv-x="1342" 
d="M669 -24q-260 0 -400.5 134t-140.5 385v739h302v-702q0 -302 246 -301q244 0 244 301v702h294v-739q0 -248 -142.5 -383.5t-402.5 -135.5z" />
    <glyph glyph-name="V" unicode="V" horiz-adv-x="1195" 
d="M1203 1234l3 -7l-519 -1233h-194l-495 1233l4 7h320l257 -720l26 -108l26 108l274 720h298z" />
    <glyph glyph-name="W" unicode="W" horiz-adv-x="1796" 
d="M1785 1234l4 -7l-396 -1231h-231l-239 698l-16 73l-21 -73l-238 -698h-237l-415 1231l4 7h320l205 -720l19 -101l24 101l229 707h223l229 -675l28 -122l26 122l192 688h290z" />
    <glyph glyph-name="X" unicode="X" horiz-adv-x="1243" 
d="M815 648l431 -641l-4 -7h-356l-279 432l-259 -432h-329l-4 7l408 626l-401 594l2 7h363l244 -387l238 387h332l4 -7z" />
    <glyph glyph-name="Y" unicode="Y" horiz-adv-x="1158" 
d="M430 0v482l-437 745l3 7h326l266 -478l261 478h309l2 -7l-428 -749v-478h-302z" />
    <glyph glyph-name="Z" unicode="Z" horiz-adv-x="1131" 
d="M69 0v102l573 885h-573l-2 247h983v-104l-586 -881h605v-249h-1000z" />
    <glyph glyph-name="bracketleft" unicode="[" horiz-adv-x="662" 
d="M598 1197h-200v-1268h200v-219h-458v1707h458v-220z" />
    <glyph glyph-name="backslash" unicode="\" horiz-adv-x="949" 
d="M901 -225h-272l-582 1621h271z" />
    <glyph glyph-name="bracketright" unicode="]" horiz-adv-x="662" 
d="M65 1419h458v-1709h-458v219h198v1268h-198v222z" />
    <glyph glyph-name="asciicircum" unicode="^" horiz-adv-x="1016" 
d="M600 1287l355 -678l-195 -88l-233 475l-17 41l-251 -516l-199 88l357 678h183z" />
    <glyph glyph-name="underscore" unicode="_" horiz-adv-x="1001" 
d="M89 -238v238h823v-238h-823z" />
    <glyph glyph-name="grave" unicode="`" horiz-adv-x="508" 
d="M415 1037l-415 186l-7 34l178 210l332 -294z" />
    <glyph glyph-name="a" unicode="a" horiz-adv-x="1091" 
d="M352 289q0 -92 114 -92q54 0 101 29t70 66v82q-57 19 -129 19q-156 0 -156 -104zM356 -24q-141 0 -221.5 80t-80.5 203q0 155 112.5 229t253 74t217.5 -18q-2 99 -55 140.5t-191 41.5t-236 -56l-8 2v246q43 26 133.5 47.5t194.5 21.5q467 0 467 -441v-226q0 -56 52 -56
q30 0 54 17l6 -4v-257q-73 -34 -168 -33q-175 0 -214 138q-119 -149 -316 -149z" />
    <glyph glyph-name="b" unicode="b" horiz-adv-x="1180" 
d="M582 236q94 0 155.5 61.5t61.5 181.5t-56 178t-128.5 58t-123 -30t-68.5 -76v-343q65 -30 159 -30zM706 987q182 0 294 -130.5t112 -362t-147.5 -376t-401.5 -144.5t-446 89v1259h306v-432q101 97 283 97z" />
    <glyph glyph-name="c" unicode="c" horiz-adv-x="919" 
d="M601 -26q-235 0 -384.5 133t-149.5 371t144.5 373.5t380.5 135.5q140 0 253 -41v-255l-11 -6q-106 43 -215 43t-174 -64t-65 -178t66 -182t176 -68t214 53l9 -8v-259q-101 -48 -244 -48z" />
    <glyph glyph-name="d" unicode="d" horiz-adv-x="1182" 
d="M586 246q54 0 101.5 28t68.5 76v337q-66 37 -160 37t-155 -67t-61 -181t55.5 -172t150.5 -58zM756 1322h305v-1322h-247l-25 108q-45 -60 -122 -97t-175 -37q-184 0 -304.5 131t-120.5 363t141.5 375.5t357.5 143.5q112 0 190 -36v371z" />
    <glyph glyph-name="e" unicode="e" horiz-adv-x="1091" 
d="M564.5 743q-150.5 0 -184.5 -171h352q-17 171 -167.5 171zM559 987q215 0 339 -119.5t128 -338.5q0 -43 -4 -129h-640q41 -182 275 -182q149 0 298 67l8 -4v-234q-143 -73 -355 -73q-214 0 -370 112q-78 56 -124.5 158t-46.5 236q0 227 138.5 367t353.5 140z" />
    <glyph glyph-name="f" unicode="f" horiz-adv-x="713" 
d="M586 1335q86 0 146 -19v-266l-4 -2q-39 17 -99 17q-136 0 -139 -147h186v-238h-186v-680h-304v680h-132v238h132q2 201 110.5 309t289.5 108z" />
    <glyph glyph-name="g" unicode="g" horiz-adv-x="1105" 
d="M778 -58q0 39 -42 53q-42 13 -185 25t-173 15q-52 -39 -52 -85t58.5 -64t181.5 -18q212 0 212 74zM529 542q65 0 101.5 27t36.5 77q0 108 -138 108t-138 -108q0 -50 36.5 -77t101.5 -27zM1061 961v-205l-158 2q52 -56 52 -142q0 -127 -111.5 -203t-316.5 -76
q-73 0 -134 11q-9 -13 -9 -24q0 -37 48 -50t238 -28t284 -74.5t94 -188.5q0 -305 -519 -305q-222 0 -349.5 55t-127.5 167t121 195q-69 47 -69 145t121 170q-132 82 -132 232t117.5 234.5t320.5 84.5h530z" />
    <glyph glyph-name="h" unicode="h" horiz-adv-x="1178" 
d="M701.5 987q171.5 0 269.5 -105.5t98 -289.5v-592h-304v512q0 186 -164 186q-63 0 -110.5 -31.5t-64.5 -93.5v-573h-305v1322h305v-456q104 121 275.5 121z" />
    <glyph glyph-name="i" unicode="i" horiz-adv-x="547" 
d="M121 0v961h305v-961h-305zM273.5 1078q-74.5 0 -127.5 53t-53 127.5t53 127.5t127.5 53t127.5 -53t53 -127.5t-53 -127.5t-127.5 -53z" />
    <glyph glyph-name="j" unicode="j" horiz-adv-x="580" 
d="M67 -318q-54 0 -141 13v262l7 4q30 -7 69 -8q155 0 154 181v827h304v-898q0 -192 -103.5 -286.5t-289.5 -94.5zM307.5 1078q-74.5 0 -127.5 53t-53 127.5t53 127.5t127.5 53t127.5 -53t53 -127.5t-53 -127.5t-127.5 -53z" />
    <glyph glyph-name="k" unicode="k" horiz-adv-x="1109" 
d="M426 0h-305v1322h305v-724l313 363h341l4 -8l-391 -443l419 -503l-2 -7h-365l-319 378v-378z" />
    <glyph glyph-name="l" unicode="l" horiz-adv-x="547" 
d="M121 0v1322h305v-1322h-305z" />
    <glyph glyph-name="m" unicode="m" horiz-adv-x="1772" 
d="M1314 987q156 0 253 -102.5t97 -283.5v-601h-305v508q0 184 -154 185q-56 0 -100 -31t-61 -90v-572h-303v508q0 184 -155 185q-58 0 -101.5 -32t-58.5 -95v-566h-305v961h248l29 -129q94 155 302 155t298 -175q41 74 120 124.5t196 50.5z" />
    <glyph glyph-name="n" unicode="n" horiz-adv-x="1178" 
d="M707 987q162 0 262 -108t100 -293v-586h-304v503q0 190 -167 190q-60 0 -108.5 -34.5t-63.5 -92.5v-566h-305v961h248l29 -129q99 155 309 155z" />
    <glyph glyph-name="o" unicode="o" horiz-adv-x="1185" 
d="M591.5 235q101.5 0 158 68t56.5 178.5t-56.5 177.5t-157 67t-156.5 -67t-56 -179t55 -178.5t156.5 -66.5zM596.5 -26q-226.5 0 -378 130.5t-151.5 368.5t147 376t374 138t379 -129.5t152 -369t-148 -377t-374.5 -137.5z" />
    <glyph glyph-name="p" unicode="p" horiz-adv-x="1182" 
d="M589.5 236q94.5 0 153.5 65.5t59 183.5t-54.5 174t-129.5 56t-124 -30t-68 -76v-341q69 -32 163.5 -32zM698 987q195 0 306 -133t111 -361t-140.5 -373.5t-352.5 -145.5q-112 0 -196 39v-318h-305v1266h248l24 -108q45 58 124.5 96t180.5 38z" />
    <glyph glyph-name="q" unicode="q" horiz-adv-x="1180" 
d="M579 249q56 0 106 29t69 78v325q-61 47 -158 47t-155.5 -65t-58.5 -180.5t52 -174.5t145 -59zM1059 961v-1266h-305v376q-102 -97 -278 -97t-291.5 131t-115.5 365t137 375.5t345 141.5q158 0 251 -65l10 39h247z" />
    <glyph glyph-name="r" unicode="r" horiz-adv-x="787" 
d="M637 983q65 0 115 -15v-274l-7 -3q-41 15 -113.5 15t-136 -58t-69.5 -183v-465h-305v961h248l29 -136q37 76 105.5 117t133.5 41z" />
    <glyph glyph-name="s" unicode="s" horiz-adv-x="923" 
d="M436 -26q-200 0 -358 69v246l8 1q69 -43 163.5 -70.5t174.5 -27.5q145 0 146 72q0 37 -36.5 58t-178 63t-207.5 112.5t-66 178.5q0 141 117.5 226t310.5 85t305 -47v-244l-7 -2q-108 54 -285 54q-65 0 -106 -16.5t-41 -48t34.5 -49.5t174 -58t206.5 -109t67 -182
q0 -147 -111 -229t-311 -82z" />
    <glyph glyph-name="t" unicode="t" horiz-adv-x="806" 
d="M747 721h-261v-308q0 -155 134 -154q65 0 121 28l6 -4v-257q-86 -39 -234 -39t-240 93t-92 270v371h-159v240h159v231l299 57l6 -3v-285h261v-240z" />
    <glyph glyph-name="u" unicode="u" horiz-adv-x="1159" 
d="M734 961h305v-961h-248l-30 132q-95 -158 -318 -158q-158 0 -244.5 95t-86.5 261v631h303v-561q0 -166 153 -165q128 0 166 111v615z" />
    <glyph glyph-name="v" unicode="v" horiz-adv-x="1055" 
d="M1050 961l4 -8l-414 -955h-229l-404 955l4 8h330l195 -561l201 561h313z" />
    <glyph glyph-name="w" unicode="w" horiz-adv-x="1511" 
d="M1497 961l4 -8l-324 -953h-213l-191 568l-10 35l-212 -603h-214l-328 953l4 8h302l143 -520l6 -46l11 44l167 522h250l162 -518l13 -54l7 58l144 514h279z" />
    <glyph glyph-name="x" unicode="x" horiz-adv-x="1064" 
d="M715 495l337 -488l-4 -7h-341l-188 292l-188 -292h-314l-2 7l335 481l-322 465l4 8h342l170 -270l171 270h313l2 -8z" />
    <glyph glyph-name="y" unicode="y" horiz-adv-x="1016" 
d="M223 -318q-58 0 -128 11v255l7 4q34 -9 93.5 -9.5t115.5 31.5t82 112l-384 867l4 8h322l196 -535l175 535h303l4 -8l-315 -791l-39 -104q-84 -214 -173 -295t-263 -81z" />
    <glyph glyph-name="z" unicode="z" horiz-adv-x="1001" 
d="M938 240v-240h-871v149l452 564h-448v248h849v-159l-466 -562h484z" />
    <glyph glyph-name="braceleft" unicode="{" horiz-adv-x="713" 
d="M475 801q0 -101 -64 -165t-132 -64v-15q67 1 131 -63t65 -166v-341q0 -88 106 -88h65v-225h-104q-154 0 -240 78t-86 220v289q0 88 -54 136t-101 48v251q48 0 102 44q53 44 53 126v290q0 140 86 218t240 78h104v-225h-65q-106 0 -106 -86v-340z" />
    <glyph glyph-name="bar" unicode="|" horiz-adv-x="552" 
d="M140 -207v1557h275v-1557h-275z" />
    <glyph glyph-name="braceright" unicode="}" horiz-adv-x="713" 
d="M497 866q0 -88 54 -136t101 -49v-249q-47 0 -101 -45t-54 -126v-289q0 -142 -86 -220t-240 -78h-102v225h63q108 0 108 88v341q0 100 64 164t130 65v15q-65 0 -130 64q-64 64 -64 165v340q0 86 -108 86h-63v225h102q155 0 241 -78t85 -218v-290z" />
    <glyph glyph-name="asciitilde" unicode="~" horiz-adv-x="1033" 
d="M332 685q92 0 194 -32t155 -31q73 0 79 69l7 3l160 -31q0 -108 -65 -178t-169 -70q-61 0 -169 33q-108 32 -148 32q-84 -1 -89 -70l-6 -6l-173 24q0 114 66 186t158 71z" />
    <glyph glyph-name="exclamdown" unicode="&#xa1;" horiz-adv-x="536" 
d="M117 -330l19 866h261l18 -866h-298zM271 685q-79 0 -121 42t-42 108t42 111q42 44 121 44t121 -44t42 -111q0 -66 -42 -108t-121 -42z" />
    <glyph glyph-name="cent" unicode="&#xa2;" horiz-adv-x="1003" 
d="M722 -76h-284v195q-171 45 -270 169q-98 124 -98 316t98 325q97 132 270 179v197h284v-179q89 -7 181 -37v-255l-9 -7q-122 43 -240 43t-190 -68q-72 -67 -73 -185q0 -118 73 -189q74 -71 198 -71t235 47l12 -6v-260q-82 -32 -187 -39v-175z" />
    <glyph glyph-name="sterling" unicode="&#xa3;" horiz-adv-x="1091" 
d="M1009 251v-251h-894l-7 15q106 203 115 478h-147v248h133q-4 41 -4 61q0 224 142 340t322 116t312 -46v-257l-11 -4q-130 58 -242 58t-168 -48t-55 -138q0 -26 3 -82h317v-248h-300q-6 -125 -45 -242h529z" />
    <glyph glyph-name="currency" unicode="&#xa4;" horiz-adv-x="1340" 
d="M666 856q-98 0 -164 -68t-66 -163q0 -96 66 -164t164 -68t164 68t66 165q0 98 -66 164t-164 66zM1151 626q0 -119 -56 -228l165 -163l-202 -200l-162 162q-106 -57 -226 -57t-229 54l-160 -159l-199 200l156 156q-60 114 -60 237t58 228l-154 155l199 201l158 -158
q105 56 227 56t231 -60l161 162l202 -201l-163 -164q54 -102 54 -221z" />
    <glyph glyph-name="yen" unicode="&#xa5;" horiz-adv-x="1279" 
d="M1054 521v-279h-261v-242h-300v242h-257v279h235l-423 725h334l270 -518l264 518h315l-414 -725h237z" />
    <glyph glyph-name="brokenbar" unicode="&#xa6;" horiz-adv-x="567" 
d="M147 -207v600h276v-600h-276zM147 754v596h276v-596h-276z" />
    <glyph glyph-name="section" unicode="&#xa7;" horiz-adv-x="1033" 
d="M709 439q0 48 -45 86q-46 37 -154 79t-147 61q-32 -49 -32 -97t41 -83q40 -35 132 -69t177 -70q28 45 28 93zM916 61q0 -149 -127 -245t-317 -95q-190 0 -334 63v255l9 4q147 -77 303 -77t157 82q0 38 -42 64q-43 26 -195 84t-224 125q-72 66 -72 201t138 236
q-93 80 -93 220t125 230q126 90 314 90t304 -45v-253l-7 -4q-99 54 -265 54t-166 -87q0 -41 41 -63t190 -75q149 -52 229 -126q80 -75 80 -203t-128 -245q80 -71 80 -190z" />
    <glyph glyph-name="dieresis" unicode="&#xa8;" horiz-adv-x="794" 
d="M614.5 1087q-70.5 0 -121 49.5t-50.5 120t50.5 121t121 50.5t121 -51t50.5 -120t-50.5 -119.5t-121 -50.5zM180.5 1087q-70.5 0 -121 49.5t-50.5 120t50.5 121t120.5 50.5t121 -51t51 -120t-50.5 -119.5t-121 -50.5z" />
    <glyph glyph-name="copyright" unicode="&#xa9;" horiz-adv-x="1284" 
d="M687 240q-138 0 -227 73t-89 206t86 211q87 78 224 78q84 0 144 -24v-166l-6 -4q-52 20 -109 20q-58 0 -90 -29q-32 -30 -32 -82t36 -83q36 -30 95 -30q60 0 100 20l6 -2v-167q-50 -21 -138 -21zM257 528q0 -174 104 -288q105 -114 287 -113q182 -1 282 111t100 289
t-106 289t-282 111q-177 0 -281 -112q-104 -113 -104 -287zM645 -34q-258 0 -415 160t-157 401q0 240 157 401t415 161t413 -161q154 -161 154 -401q0 -241 -154 -401t-413 -160z" />
    <glyph glyph-name="ordfeminine" unicode="&#xaa;" horiz-adv-x="889" 
d="M382 801q43 0 81 18.5t55 44.5v52q-52 13 -101 13q-112 0 -112 -67q1 -61 77 -61zM689 635q-108 0 -138 104q-99 -114 -242 -113q-110 0 -173 60.5t-63 165.5t86.5 160t191.5 55t167 -17q-7 123 -161 123q-127 0 -216 -37l-3 3v181q89 47 259 47q339 0 338 -323v-156
q0 -48 38 -48q24 0 39 7l3 -2v-188q-50 -22 -126 -22z" />
    <glyph glyph-name="guillemotleft" unicode="&#xab;" horiz-adv-x="1098" 
d="M1022 894v-25l-223 -327l225 -352v-19h-279l-242 363l247 360h272zM572 894v-25l-224 -327l225 -352v-19h-279l-242 363l248 360h272z" />
    <glyph glyph-name="uni00AD" unicode="&#xad;" horiz-adv-x="791" 
d="M112 413v248h566v-248h-566z" />
    <glyph glyph-name="registered" unicode="&#xae;" horiz-adv-x="1219" 
d="M547 858h43q73 0 73 64t-73 63q-32 0 -43 -2v-125zM586 1123q112 -1 186 -45t75 -152q0 -108 -80 -153l93 -147h-188l-71 113h-54v-113h-176v491q103 6 215 6zM614 501q166 0 256 102t90 264q0 163 -94 265q-95 102 -256 102t-257 -102t-96 -262t96 -265
q95 -104 261 -104zM612 1387q240 0 382 -148t144 -371q0 -224 -142 -372t-384 -148q-240 0 -385 148t-145 372t145 371q145 148 385 148z" />
    <glyph glyph-name="macron" unicode="&#xaf;" horiz-adv-x="675" 
d="M45 1130v186h581v-186h-581z" />
    <glyph glyph-name="degree" unicode="&#xb0;" horiz-adv-x="707" 
d="M356 864q48 0 74 32q28 32 28 81q0 48 -28 81t-75 33t-77 -33t-29 -81q0 -48 29 -81q30 -32 78 -32zM355 700q-120 0 -201 79t-81 198t81 197t201 79q120 0 201 -79q81 -80 81 -198t-81 -197t-201 -79z" />
    <glyph glyph-name="plusminus" unicode="&#xb1;" horiz-adv-x="1063" 
d="M974 477h-341v-252h324v-205h-853v205h324v252h-340v197h342v316h203v-316h341v-197z" />
    <glyph glyph-name="uni00B2" unicode="&#xb2;" horiz-adv-x="679" 
d="M54 559q0 194 190 331q89 65 113 88q23 23 23 48q0 47 -77 46q-134 0 -230 -67l-2 2v183q106 65 239 65t215 -49q82 -48 82 -140t-38 -143t-122 -107t-88 -86h268v-171h-573z" />
    <glyph glyph-name="uni00B3" unicode="&#xb3;" horiz-adv-x="642" 
d="M596 772q0 -104 -83 -167t-219 -63t-229 37v168l2 1q78 -37 206 -37t127 69q0 56 -80 56h-154v145h137q67 0 68 49q-1 56 -117 56t-178 -28l-2 1v168q102 28 215 28q285 0 284 -188q1 -84 -70 -140q93 -51 93 -155z" />
    <glyph glyph-name="acute" unicode="&#xb4;" horiz-adv-x="508" 
d="M95 1037l-89 136l333 294l179 -210l-8 -34z" />
    <glyph glyph-name="paragraph" unicode="&#xb6;" horiz-adv-x="1169" 
d="M1074 1119v-270h-111v-1058h-75v1058h-108v-1058h-288v566q-436 0 -436 378q0 190 129 287t340 97h549z" />
    <glyph glyph-name="periodcentered" unicode="&#xb7;" horiz-adv-x="517" 
d="M259 294q-80 0 -121 42t-41 109t41 111t121 44t122 -44t42 -111t-42 -109t-122 -42z" />
    <glyph glyph-name="cedilla" unicode="&#xb8;" horiz-adv-x="411" 
d="M175 -452q-93 0 -153 14v123l8 4q37 -13 71 -13q104 0 104 67q2 32 -18.5 46t-59 14t-64.5 -6l-3 8v106l63 91h162l-62 -82q15 2 28 0q175 -15 175 -187q0 -92 -79 -138.5t-172 -46.5z" />
    <glyph glyph-name="uni00B9" unicode="&#xb9;" horiz-adv-x="487" 
d="M186 559v404l-145 -34v220l339 102h22v-692h-216z" />
    <glyph glyph-name="ordmasculine" unicode="&#xba;" horiz-adv-x="938" 
d="M328 996q0 -76 36 -122t105 -47q69 0 107 47q38 46 38 122t-38 124t-106 47q-68 0 -105 -47q-37 -48 -37 -124zM875 1003q1 -180 -113 -287t-287 -107t-292 100q-118 101 -118 281t114 288q114 109 287 109t291 -102t118 -282z" />
    <glyph glyph-name="guillemotright" unicode="&#xbb;" horiz-adv-x="1098" 
d="M527 173v24l223 328l-225 352v19h279l242 -364l-247 -359h-272zM76 173v24l224 328l-226 352v19h280l242 -364l-248 -359h-272z" />
    <glyph glyph-name="onequarter" unicode="&#xbc;" horiz-adv-x="1401" 
d="M1069 236v194l-134 -194h134zM1346 236v-137h-78v-99h-199v99h-348v96l363 492h184v-451h78zM922 1234h219l-750 -1254h-218zM199 559v404l-145 -34v220l339 102h22v-692h-216z" />
    <glyph glyph-name="onehalf" unicode="&#xbd;" horiz-adv-x="1444" 
d="M814 0q0 194 190 331q89 65 112 89t23 47q0 47 -76 47q-134 0 -231 -67l-2 2v182q106 65 240 65t215 -49q82 -49 82 -141q-1 -92 -39 -142q-38 -51 -122 -107t-87 -86h268v-171h-573zM140 -20l748 1254h220l-751 -1254h-217zM205 559v404l-145 -34v220l338 102h23v-692
h-216z" />
    <glyph glyph-name="threequarters" unicode="&#xbe;" horiz-adv-x="1455" 
d="M1123 236v194l-134 -194h134zM1400 236v-137h-78v-99h-199v99h-348v96l363 492h184v-451h78zM1018 1234h220l-750 -1254h-218zM605 772q0 -104 -83 -167q-82 -63 -218 -63t-230 37v168l2 1q78 -37 206 -37t128 69q0 56 -80 56h-155v145h138q67 0 67 49q0 56 -116 56
t-178 -28l-2 1v168q102 28 214 28q285 0 285 -188q0 -84 -71 -140q93 -51 93 -155z" />
    <glyph glyph-name="questiondown" unicode="&#xbf;" horiz-adv-x="828" 
d="M356 52q0 -123 160 -123q132 0 231 60l3 -2l2 -261q-116 -58 -286 -58t-290 90q-120 89 -120 261q0 113 49 187t138 140t110 112q21 47 21 104l265 4q3 -132 -35 -206t-139 -142q-61 -47 -85 -81t-24 -85zM499 989q80 0 121 -42t41 -109t-41 -111t-121 -44t-122 44
t-42 111t42 109t122 42z" />
    <glyph glyph-name="Agrave" unicode="&#xc0;" horiz-adv-x="1206" 
d="M445 380h300l-127 287l-30 85l-28 -85zM910 0l-74 169h-475l-69 -169h-301l540 1238h134l560 -1238h-315zM775 1301l-445 136l-15 30l134 224l385 -243z" />
    <glyph glyph-name="Aacute" unicode="&#xc1;" horiz-adv-x="1206" 
d="M445 380h300l-127 287l-30 85l-28 -85zM910 0l-74 169h-475l-69 -169h-301l540 1238h134l560 -1238h-315zM851 1437l-445 -136l-58 144l384 246l134 -224z" />
    <glyph glyph-name="Acircumflex" unicode="&#xc2;" horiz-adv-x="1206" 
d="M445 380h300l-127 287l-30 85l-28 -85zM910 0l-74 169h-475l-69 -169h-301l540 1238h134l560 -1238h-315zM586 1448l-219 -141l-88 115l242 252h136l253 -250l-91 -117z" />
    <glyph glyph-name="Atilde" unicode="&#xc3;" horiz-adv-x="1206" 
d="M445 380h300l-127 287l-30 85l-28 -85zM910 0l-74 169h-475l-69 -169h-301l540 1238h134l560 -1238h-315zM467 1612q60 0 134.5 -28.5t105 -28.5t51 18.5t20.5 46.5l6 4l173 -49q0 -108 -63.5 -177t-165.5 -69q-45 0 -124 29t-112.5 29t-54 -20.5t-20.5 -46.5l-4 -4
l-175 49q2 106 65.5 176.5t163.5 70.5z" />
    <glyph glyph-name="Adieresis" unicode="&#xc4;" horiz-adv-x="1206" 
d="M445 380h300l-127 287l-30 85l-28 -85zM910 0l-74 169h-475l-69 -169h-301l540 1238h134l560 -1238h-315zM826.5 1335q-63.5 0 -107 43.5t-43.5 106t43.5 107.5t107 45t107 -45t43.5 -107t-43.5 -106t-107 -44zM368 1335q-62 0 -106 43.5t-44 106t43.5 107.5t106 45
t107 -45t44.5 -107t-44.5 -106t-106.5 -44z" />
    <glyph glyph-name="Aring" unicode="&#xc5;" horiz-adv-x="1206" 
d="M445 380h300l-127 287l-30 85l-28 -85zM910 0l-74 169h-475l-69 -169h-301l540 1238h134l560 -1238h-315zM596.5 1570q-34.5 0 -57.5 -23.5t-23 -56.5t22 -56t57.5 -23t59 23.5t23.5 57t-23.5 56t-58 22.5zM595.5 1281q-100.5 0 -164.5 59.5t-64 151t64 151t164.5 59.5
t166 -60.5t65.5 -150t-65.5 -150t-166 -60.5z" />
    <glyph glyph-name="AE" unicode="&#xc6;" horiz-adv-x="1617" 
d="M765 469v436l-141 -270l-93 -166h234zM1071 246h459v-246h-765v255h-354l-143 -255h-307l713 1234h840v-247h-443v-229h407v-242h-407v-270z" />
    <glyph glyph-name="Ccedilla" unicode="&#xc7;" horiz-adv-x="1133" 
d="M775 989q-186 0 -287 -97t-101 -273t102.5 -272t292.5 -96q140 0 262 52l8 -5v-274q-114 -39 -264 -44l-45 -60q13 2 28 0q175 -15 175 -187q0 -92 -79 -138.5t-172 -46.5t-153 14v123l7 4q37 -13 71 -13q104 0 104 67q2 32 -18.5 46t-59.5 14t-63 -6l-4 8v106l50 72
q-249 32 -402 195t-153 425q0 305 182 482t476 177q168 0 320 -48v-283l-6 -4q-128 62 -271 62z" />
    <glyph glyph-name="Egrave" unicode="&#xc8;" horiz-adv-x="1055" 
d="M447 248h519v-248h-821v1234h805v-247h-503v-233h467v-242h-467v-264zM741 1301l-445 136l-15 30l134 224l386 -243z" />
    <glyph glyph-name="Eacute" unicode="&#xc9;" horiz-adv-x="1055" 
d="M447 248h519v-248h-821v1234h805v-247h-503v-233h467v-242h-467v-264zM817 1437l-445 -136l-57 144l383 246l134 -224z" />
    <glyph glyph-name="Ecircumflex" unicode="&#xca;" horiz-adv-x="1055" 
d="M447 248h519v-248h-821v1234h805v-247h-503v-233h467v-242h-467v-264zM553 1448l-220 -141l-87 115l242 252h136l253 -250l-91 -117z" />
    <glyph glyph-name="Edieresis" unicode="&#xcb;" horiz-adv-x="1055" 
d="M447 248h519v-248h-821v1234h805v-247h-503v-233h467v-242h-467v-264zM793 1335q-63 0 -107 43.5t-44 106t44 107.5t107 45t107 -45t44 -107t-44 -106t-107 -44zM334 1335q-62 0 -106 43.5t-44 106t44 107.5t106 45t107 -45t45 -107t-45 -106t-107 -44z" />
    <glyph glyph-name="Igrave" unicode="&#xcc;" horiz-adv-x="593" 
d="M145 0v1234h304v-1234h-304zM477 1301l-445 136l-15 30l134 224l385 -243z" />
    <glyph glyph-name="Iacute" unicode="&#xcd;" horiz-adv-x="593" 
d="M145 0v1234h304v-1234h-304zM108 1301l-58 144l384 246l134 -224l-15 -30z" />
    <glyph glyph-name="Icircumflex" unicode="&#xce;" horiz-adv-x="593" 
d="M145 0v1234h304v-1234h-304zM69 1307l-88 115l242 252h136l254 -250l-92 -117l-232 141z" />
    <glyph glyph-name="Idieresis" unicode="&#xcf;" horiz-adv-x="593" 
d="M145 0v1234h304v-1234h-304zM528.5 1335q-63.5 0 -107 43.5t-43.5 106t43.5 107.5t107 45t107.5 -45t44 -107t-44 -106t-107.5 -44zM70 1335q-62 0 -106 43.5t-44 106t43.5 107.5t106 45t107.5 -45t45 -107t-45 -106t-107 -44z" />
    <glyph glyph-name="Eth" unicode="&#xd0;" horiz-adv-x="1396" 
d="M1009 626q0 173 -100.5 262t-268.5 89q-102 0 -162 -7v-261h183v-186h-183v-255q51 -4 170 -4q361 4 361 362zM646 1251q317 0 496.5 -166.5t179.5 -462t-189 -460t-517 -164.5q-378 0 -437 2v523h-145v186h145v525q279 17 467 17z" />
    <glyph glyph-name="Ntilde" unicode="&#xd1;" horiz-adv-x="1377" 
d="M145 0v1234h132l659 -662h6v662h291v-1234h-133l-661 676h-5v-676h-289zM562 1612q60 0 134.5 -28.5t105 -28.5t51 18.5t20.5 46.5l6 4l173 -49q0 -108 -63.5 -177t-165.5 -69q-45 0 -124 29t-112.5 29t-54 -20.5t-20.5 -46.5l-4 -4l-175 49q2 106 65.5 176.5t163.5 70.5
z" />
    <glyph glyph-name="Ograve" unicode="&#xd2;" horiz-adv-x="1448" 
d="M724.5 249q154.5 0 245.5 99t91 270t-91 271t-245.5 100t-245 -99t-90.5 -271t90.5 -271t245 -99zM74 618q0 296 182.5 470t467.5 174q173 0 318.5 -69.5t239.5 -219.5t94 -355q0 -294 -183.5 -467t-457 -173t-461.5 159q-92 77 -146 202t-54 279zM903 1301l-445 136
l-15 30l134 224l386 -243z" />
    <glyph glyph-name="Oacute" unicode="&#xd3;" horiz-adv-x="1448" 
d="M724.5 249q154.5 0 245.5 99t91 270t-91 271t-245.5 100t-245 -99t-90.5 -271t90.5 -271t245 -99zM74 618q0 296 182.5 470t467.5 174q173 0 318.5 -69.5t239.5 -219.5t94 -355q0 -294 -183.5 -467t-457 -173t-461.5 159q-92 77 -146 202t-54 279zM534 1301l-57 144
l383 246l134 -224l-15 -30z" />
    <glyph glyph-name="Ocircumflex" unicode="&#xd4;" horiz-adv-x="1448" 
d="M724.5 249q154.5 0 245.5 99t91 270t-91 271t-245.5 100t-245 -99t-90.5 -271t90.5 -271t245 -99zM74 618q0 296 182.5 470t467.5 174q173 0 318.5 -69.5t239.5 -219.5t94 -355q0 -294 -183.5 -467t-457 -173t-461.5 159q-92 77 -146 202t-54 279zM495 1307l-87 115
l242 252h136l253 -250l-91 -117l-233 141z" />
    <glyph glyph-name="Otilde" unicode="&#xd5;" horiz-adv-x="1448" 
d="M724.5 249q154.5 0 245.5 99t91 270t-91 271t-245.5 100t-245 -99t-90.5 -271t90.5 -271t245 -99zM74 618q0 296 182.5 470t467.5 174q173 0 318.5 -69.5t239.5 -219.5t94 -355q0 -294 -183.5 -467t-457 -173t-461.5 159q-92 77 -146 202t-54 279zM596 1612
q60 0 134 -28.5t105 -28.5t51.5 18.5t20.5 46.5l5 4l173 -49q0 -108 -63 -177t-166 -69q-45 0 -124 29t-112.5 29t-53.5 -20.5t-20 -46.5l-4 -4l-175 49q2 106 65 176.5t164 70.5z" />
    <glyph glyph-name="Odieresis" unicode="&#xd6;" horiz-adv-x="1448" 
d="M724.5 249q154.5 0 245.5 99t91 270t-91 271t-245.5 100t-245 -99t-90.5 -271t90.5 -271t245 -99zM74 618q0 296 182.5 470t467.5 174q173 0 318.5 -69.5t239.5 -219.5t94 -355q0 -294 -183.5 -467t-457 -173t-461.5 159q-92 77 -146 202t-54 279zM955 1335
q-63 0 -107 43.5t-44 106t44 107.5t107 45t107 -45t44 -107t-44 -106t-107 -44zM496 1335q-62 0 -106 43.5t-44 106t44 107.5t106 45t107 -45t45 -107t-45 -106t-107 -44z" />
    <glyph glyph-name="multiply" unicode="&#xd7;" horiz-adv-x="986" 
d="M905 810l-266 -266l266 -267l-145 -143l-267 266l-266 -266l-145 143l266 267l-266 266l145 145l266 -266l267 266z" />
    <glyph glyph-name="Oslash" unicode="&#xd8;" horiz-adv-x="1448" 
d="M1061 618q0 119 -46 207l-460 -535q71 -41 169 -41q155 0 246 99t91 270zM389 618q0 -117 43 -199l454 534q-74 35 -162 36q-155 0 -245 -99t-90 -272zM1378 1266v-20l-160 -187q158 -173 158 -454t-183.5 -454t-468.5 -173q-199 0 -359 93l-84 -99h-208v24l156 185
q-155 169 -155 451t182.5 456t467.5 174q192 0 350 -87l78 91h226z" />
    <glyph glyph-name="Ugrave" unicode="&#xd9;" horiz-adv-x="1342" 
d="M669 -24q-260 0 -400.5 134t-140.5 385v739h302v-702q0 -302 246 -301q244 0 244 301v702h294v-739q0 -248 -142.5 -383.5t-402.5 -135.5zM851 1301l-445 136l-15 30l134 224l385 -243z" />
    <glyph glyph-name="Uacute" unicode="&#xda;" horiz-adv-x="1342" 
d="M669 -24q-260 0 -400.5 134t-140.5 385v739h302v-702q0 -302 246 -301q244 0 244 301v702h294v-739q0 -248 -142.5 -383.5t-402.5 -135.5zM482 1301l-58 144l384 246l134 -224l-15 -30z" />
    <glyph glyph-name="Ucircumflex" unicode="&#xdb;" horiz-adv-x="1342" 
d="M669 -24q-260 0 -400.5 134t-140.5 385v739h302v-702q0 -302 246 -301q244 0 244 301v702h294v-739q0 -248 -142.5 -383.5t-402.5 -135.5zM443 1307l-87 115l242 252h136l253 -250l-91 -117l-233 141z" />
    <glyph glyph-name="Udieresis" unicode="&#xdc;" horiz-adv-x="1342" 
d="M669 -24q-260 0 -400.5 134t-140.5 385v739h302v-702q0 -302 246 -301q244 0 244 301v702h294v-739q0 -248 -142.5 -383.5t-402.5 -135.5zM903 1335q-63 0 -107 43.5t-44 106t44 107.5t107 45t107 -45t44 -107t-44 -106t-107 -44zM444 1335q-62 0 -106 43.5t-44 106
t44 107.5t106 45t107 -45t45 -107t-45 -106t-107 -44z" />
    <glyph glyph-name="Yacute" unicode="&#xdd;" horiz-adv-x="1158" 
d="M430 0v482l-437 745l3 7h326l266 -478l261 478h309l2 -7l-428 -749v-478h-302zM393 1301l-58 144l384 246l134 -224l-15 -30z" />
    <glyph glyph-name="Thorn" unicode="&#xde;" horiz-adv-x="1122" 
d="M523 430q229 0 229 190q0 86 -56.5 130.5t-131 44.5t-119.5 -4v-357q59 -4 78 -4zM562 188q-39 0 -117 4v-192h-300v1234h300v-186q61 6 131 6t135 -12q143 -26 244 -120.5t101 -271.5q2 -229 -134 -345.5t-360 -116.5z" />
    <glyph glyph-name="germandbls" unicode="&#xdf;" horiz-adv-x="1225" 
d="M1186 279q0 -138 -103.5 -221.5t-247 -83.5t-250.5 52v244l7 4q88 -82 195 -82t107 69q0 37 -24.5 63t-111.5 87q-94 71 -130 117t-36 112q0 110 71 178t71 131.5t-39.5 90.5t-93.5 27q-91 0 -133 -53t-42 -163v-851h-305v877q0 216 130.5 337t344.5 121q158 0 288 -68
q69 -36 110 -108t41 -159t-32.5 -140.5t-65 -88t-32.5 -68.5t24 -61.5t95 -81.5q63 -54 89 -81t49.5 -79t23.5 -121z" />
    <glyph glyph-name="agrave" unicode="&#xe0;" horiz-adv-x="1091" 
d="M352 289q0 -92 114 -92q54 0 101 29t70 66v82q-57 19 -129 19q-156 0 -156 -104zM356 -24q-141 0 -221.5 80t-80.5 203q0 155 112.5 229t253 74t217.5 -18q-2 99 -55 140.5t-191 41.5t-236 -56l-8 2v246q43 26 133.5 47.5t194.5 21.5q467 0 467 -441v-226q0 -56 52 -56
q30 0 54 17l6 -4v-257q-73 -34 -168 -33q-175 0 -214 138q-119 -149 -316 -149zM631 1037l-415 186l-7 34l178 210l332 -294z" />
    <glyph glyph-name="aacute" unicode="&#xe1;" horiz-adv-x="1091" 
d="M352 289q0 -92 114 -92q54 0 101 29t70 66v82q-57 19 -129 19q-156 0 -156 -104zM356 -24q-141 0 -221.5 80t-80.5 203q0 155 112.5 229t253 74t217.5 -18q-2 99 -55 140.5t-191 41.5t-236 -56l-8 2v246q43 26 133.5 47.5t194.5 21.5q467 0 467 -441v-226q0 -56 52 -56
q30 0 54 17l6 -4v-257q-73 -34 -168 -33q-175 0 -214 138q-119 -149 -316 -149zM760 1223l-416 -186l-89 136l333 294l179 -210z" />
    <glyph glyph-name="acircumflex" unicode="&#xe2;" horiz-adv-x="1091" 
d="M352 289q0 -92 114 -92q54 0 101 29t70 66v82q-57 19 -129 19q-156 0 -156 -104zM356 -24q-141 0 -221.5 80t-80.5 203q0 155 112.5 229t253 74t217.5 -18q-2 99 -55 140.5t-191 41.5t-236 -56l-8 2v246q43 26 133.5 47.5t194.5 21.5q467 0 467 -441v-226q0 -56 52 -56
q30 0 54 17l6 -4v-257q-73 -34 -168 -33q-175 0 -214 138q-119 -149 -316 -149zM493 1212l-195 -153l-103 99l229 281h140l237 -281l-103 -99z" />
    <glyph glyph-name="atilde" unicode="&#xe3;" horiz-adv-x="1091" 
d="M352 289q0 -92 114 -92q54 0 101 29t70 66v82q-57 19 -129 19q-156 0 -156 -104zM356 -24q-141 0 -221.5 80t-80.5 203q0 155 112.5 229t253 74t217.5 -18q-2 99 -55 140.5t-191 41.5t-236 -56l-8 2v246q43 26 133.5 47.5t194.5 21.5q467 0 467 -441v-226q0 -56 52 -56
q30 0 54 17l6 -4v-257q-73 -34 -168 -33q-175 0 -214 138q-119 -149 -316 -149zM365 1400q60 0 136 -29.5t110.5 -29.5t54 19.5t19.5 48.5l6 4l182 -48q0 -115 -66 -183.5t-167 -68.5q-54 -2 -133 29t-111 31t-50 -18.5t-18 -48.5l-8 -6l-180 49q0 101 60.5 176t164.5 75z
" />
    <glyph glyph-name="adieresis" unicode="&#xe4;" horiz-adv-x="1091" 
d="M352 289q0 -92 114 -92q54 0 101 29t70 66v82q-57 19 -129 19q-156 0 -156 -104zM356 -24q-141 0 -221.5 80t-80.5 203q0 155 112.5 229t253 74t217.5 -18q-2 99 -55 140.5t-191 41.5t-236 -56l-8 2v246q43 26 133.5 47.5t194.5 21.5q467 0 467 -441v-226q0 -56 52 -56
q30 0 54 17l6 -4v-257q-73 -34 -168 -33q-175 0 -214 138q-119 -149 -316 -149zM715 1087q-71 0 -121 49.5t-50 120t50 121t121 50.5t121 -51t50 -120t-50 -119.5t-121 -50.5zM281 1087q-71 0 -121 49.5t-50 120t50 121t120 50.5t121 -51t51 -120t-50 -119.5t-121 -50.5z
" />
    <glyph glyph-name="aring" unicode="&#xe5;" horiz-adv-x="1091" 
d="M352 289q0 -92 114 -92q54 0 101 29t70 66v82q-57 19 -129 19q-156 0 -156 -104zM356 -24q-141 0 -221.5 80t-80.5 203q0 155 112.5 229t253 74t217.5 -18q-2 99 -55 140.5t-191 41.5t-236 -56l-8 2v246q43 26 133.5 47.5t194.5 21.5q467 0 467 -441v-226q0 -56 52 -56
q30 0 54 17l6 -4v-257q-73 -34 -168 -33q-175 0 -214 138q-119 -149 -316 -149zM498 1342q-38 0 -63 -24t-25 -60t25 -61.5t63 -25.5t63 25t25 61.5t-25 60.5t-63 24zM497 1028q-104 0 -170 66t-66 164t67 164t170 66t170 -66.5t67 -164t-67 -163.5t-171 -66z" />
    <glyph glyph-name="ae" unicode="&#xe6;" horiz-adv-x="1640" 
d="M455.5 201q54.5 0 109.5 25t87 59q-19 58 -25 110q-143 -4 -212 -28t-69 -84q0 -35 27.5 -58.5t82 -23.5zM1110 743q-147 0 -177 -179h344q-13 179 -167 179zM1123 987q199 0 322 -116.5t126 -345.5q0 -45 -3 -130h-632q39 -184 226.5 -184.5t334.5 76.5l7 -4v-229
q-147 -80 -359 -80q-268 0 -411 167q-156 -166 -362 -165q-156 0 -240 74.5t-84 197.5q0 220 247 280q132 33 325 36q-15 164 -212 164q-168 0 -268 -56l-6 4v242q39 26 129.5 47.5t201.5 21.5q216 0 330 -108q129 108 328 108z" />
    <glyph glyph-name="ccedilla" unicode="&#xe7;" horiz-adv-x="919" 
d="M619 728q-109 0 -174 -64t-65 -178t66 -182t175.5 -68.5t214.5 53.5l9 -8v-259q-89 -43 -221 -48l-41 -54q13 2 28 0q82 -7 128.5 -51t46.5 -122q0 -106 -79.5 -152.5t-172.5 -46.5t-152 14v123l7 4q37 -13 71 -13q104 0 104 67q2 32 -18.5 46t-59.5 14t-63 -6l-4 8v106
l52 74q-182 35 -293 163t-111 347.5t144.5 355.5t380.5 136q140 0 253 -41v-255l-11 -6q-106 43 -215 43z" />
    <glyph glyph-name="egrave" unicode="&#xe8;" horiz-adv-x="1091" 
d="M564.5 743q-150.5 0 -184.5 -171h352q-17 171 -167.5 171zM559 987q215 0 339 -119.5t128 -338.5q0 -43 -4 -129h-640q41 -182 275 -182q149 0 298 67l8 -4v-234q-143 -73 -355 -73q-214 0 -370 112q-78 56 -124.5 158t-46.5 236q0 227 138.5 367t353.5 140zM689 1037
l-415 186l-8 34l179 210l331 -294z" />
    <glyph glyph-name="eacute" unicode="&#xe9;" horiz-adv-x="1091" 
d="M564.5 743q-150.5 0 -184.5 -171h352q-17 171 -167.5 171zM559 987q215 0 339 -119.5t128 -338.5q0 -43 -4 -129h-640q41 -182 275 -182q149 0 298 67l8 -4v-234q-143 -73 -355 -73q-214 0 -370 112q-78 56 -124.5 158t-46.5 236q0 227 138.5 367t353.5 140zM817 1223
l-415 -186l-89 136l333 294l179 -210z" />
    <glyph glyph-name="ecircumflex" unicode="&#xea;" horiz-adv-x="1091" 
d="M564.5 743q-150.5 0 -184.5 -171h352q-17 171 -167.5 171zM559 987q215 0 339 -119.5t128 -338.5q0 -43 -4 -129h-640q41 -182 275 -182q149 0 298 67l8 -4v-234q-143 -73 -355 -73q-214 0 -370 112q-78 56 -124.5 158t-46.5 236q0 227 138.5 367t353.5 140zM551 1212
l-195 -153l-103 99l229 281h140l236 -281l-102 -99z" />
    <glyph glyph-name="edieresis" unicode="&#xeb;" horiz-adv-x="1091" 
d="M564.5 743q-150.5 0 -184.5 -171h352q-17 171 -167.5 171zM559 987q215 0 339 -119.5t128 -338.5q0 -43 -4 -129h-640q41 -182 275 -182q149 0 298 67l8 -4v-234q-143 -73 -355 -73q-214 0 -370 112q-78 56 -124.5 158t-46.5 236q0 227 138.5 367t353.5 140zM772.5 1087
q-70.5 0 -121 49.5t-50.5 120t50.5 121t120.5 50.5t121 -51t51 -120t-50.5 -119.5t-121 -50.5zM339 1087q-71 0 -121 49.5t-50 120t50 121t121 50.5t121 -51t50 -120t-50 -119.5t-121 -50.5z" />
    <glyph glyph-name="igrave" unicode="&#xec;" horiz-adv-x="547" 
d="M121 0v961h305v-961h-305zM408 1037l-415 186l-8 34l179 210l331 -294z" />
    <glyph glyph-name="iacute" unicode="&#xed;" horiz-adv-x="547" 
d="M121 0v961h305v-961h-305zM121 1037l-89 136l333 294l179 -210l-8 -34z" />
    <glyph glyph-name="icircumflex" unicode="&#xee;" horiz-adv-x="547" 
d="M121 0v961h305v-961h-305zM74 1059l-102 99l229 281h140l236 -281l-102 -99l-205 153z" />
    <glyph glyph-name="idieresis" unicode="&#xef;" horiz-adv-x="547" 
d="M121 0v961h305v-961h-305zM461.5 1087q-70.5 0 -120 49.5t-49.5 120t49.5 121t120 50.5t121 -51t50.5 -120t-50.5 -119.5t-121 -50.5zM85.5 1087q-70.5 0 -121 49.5t-50.5 120t50.5 121t121 50.5t121 -51t50.5 -120t-50.5 -119.5t-121 -50.5z" />
    <glyph glyph-name="eth" unicode="&#xf0;" horiz-adv-x="1212" 
d="M591 233q100 0 154 62t63 200q-24 56 -82 96t-143.5 40t-140.5 -58.5t-55 -141.5t52 -140.5t152 -57.5zM1130 600q0 -290 -146 -458t-391.5 -168t-384.5 121t-139 324.5t129.5 326.5t335.5 123q151 0 257 -68q-35 186 -147 247l-100 -126l-147 113l42 54
q-125 -4 -217 -35l-8 7v246q97 35 224 35t193 -13l103 129l145 -114l-62 -76q313 -164 313 -668z" />
    <glyph glyph-name="ntilde" unicode="&#xf1;" horiz-adv-x="1178" 
d="M707 987q162 0 262 -108t100 -293v-586h-304v503q0 190 -167 190q-60 0 -108.5 -34.5t-63.5 -92.5v-566h-305v961h248l29 -129q99 155 309 155zM449 1400q60 0 136 -29.5t110.5 -29.5t54 19.5t19.5 48.5l6 4l182 -48q0 -115 -66 -183.5t-167 -68.5q-54 -2 -133 29
t-111 31t-50.5 -18.5t-18.5 -48.5l-7 -6l-181 49q0 101 60.5 176t165.5 75z" />
    <glyph glyph-name="ograve" unicode="&#xf2;" horiz-adv-x="1185" 
d="M591.5 235q101.5 0 158 68t56.5 178.5t-56.5 177.5t-157 67t-156.5 -67t-56 -179t55 -178.5t156.5 -66.5zM596.5 -26q-226.5 0 -378 130.5t-151.5 368.5t147 376t374 138t379 -129.5t152 -369t-148 -377t-374.5 -137.5zM726 1037l-415 186l-8 34l179 210l332 -294z" />
    <glyph glyph-name="oacute" unicode="&#xf3;" horiz-adv-x="1185" 
d="M591.5 235q101.5 0 158 68t56.5 178.5t-56.5 177.5t-157 67t-156.5 -67t-56 -179t55 -178.5t156.5 -66.5zM596.5 -26q-226.5 0 -378 130.5t-151.5 368.5t147 376t374 138t379 -129.5t152 -369t-148 -377t-374.5 -137.5zM439 1037l-89 136l333 294l179 -210l-7 -34z" />
    <glyph glyph-name="ocircumflex" unicode="&#xf4;" horiz-adv-x="1185" 
d="M591.5 235q101.5 0 158 68t56.5 178.5t-56.5 177.5t-157 67t-156.5 -67t-56 -179t55 -178.5t156.5 -66.5zM596.5 -26q-226.5 0 -378 130.5t-151.5 368.5t147 376t374 138t379 -129.5t152 -369t-148 -377t-374.5 -137.5zM393 1059l-103 99l229 281h140l237 -281l-103 -99
l-205 153z" />
    <glyph glyph-name="otilde" unicode="&#xf5;" horiz-adv-x="1185" 
d="M591.5 235q101.5 0 158 68t56.5 178.5t-56.5 177.5t-157 67t-156.5 -67t-56 -179t55 -178.5t156.5 -66.5zM596.5 -26q-226.5 0 -378 130.5t-151.5 368.5t147 376t374 138t379 -129.5t152 -369t-148 -377t-374.5 -137.5zM460 1400q60 0 136 -29.5t110.5 -29.5t54 19.5
t19.5 48.5l6 4l182 -48q0 -115 -66 -183.5t-167 -68.5q-54 -2 -133 29t-111 31t-50 -18.5t-18 -48.5l-8 -6l-180 49q0 101 60.5 176t164.5 75z" />
    <glyph glyph-name="odieresis" unicode="&#xf6;" horiz-adv-x="1185" 
d="M591.5 235q101.5 0 158 68t56.5 178.5t-56.5 177.5t-157 67t-156.5 -67t-56 -179t55 -178.5t156.5 -66.5zM596.5 -26q-226.5 0 -378 130.5t-151.5 368.5t147 376t374 138t379 -129.5t152 -369t-148 -377t-374.5 -137.5zM810 1087q-71 0 -121 49.5t-50 120t50 121
t120 50.5t121 -51t51 -120t-50 -119.5t-121 -50.5zM376 1087q-71 0 -121 49.5t-50 120t50 121t121 50.5t121 -51t50 -120t-50 -119.5t-121 -50.5z" />
    <glyph glyph-name="divide" unicode="&#xf7;" horiz-adv-x="1038" 
d="M519 71q-81 0 -123 43q-42 44 -42 110t43 112t123 46t123 -46q44 -46 44 -113t-43 -109t-125 -43zM69 458v203h903v-203h-903zM519 732q-81 0 -123 43t-42 111t42 112q42 45 124 45t124 -45q43 -45 43 -113q0 -69 -43 -111t-125 -42z" />
    <glyph glyph-name="oslash" unicode="&#xf8;" horiz-adv-x="1185" 
d="M806 482q0 47 -11 90l-279 -324q32 -13 76 -13q101 0 157.5 67.5t56.5 179.5zM380 482q0 -60 17 -108l284 335q-39 17 -89 17q-101 0 -156.5 -67t-55.5 -177zM1147 1000v-19l-142 -164q114 -132 114 -350t-148 -355.5t-379 -137.5q-147 0 -262 58l-62 -73h-203v26
l125 147q-123 138 -123 358t147 358.5t378 138.5q149 0 272 -60l63 73h220z" />
    <glyph glyph-name="ugrave" unicode="&#xf9;" horiz-adv-x="1159" 
d="M734 961h305v-961h-248l-30 132q-95 -158 -318 -158q-158 0 -244.5 95t-86.5 261v631h303v-561q0 -166 153 -165q128 0 166 111v615zM721 1037l-416 186l-7 34l179 210l331 -294z" />
    <glyph glyph-name="uacute" unicode="&#xfa;" horiz-adv-x="1159" 
d="M734 961h305v-961h-248l-30 132q-95 -158 -318 -158q-158 0 -244.5 95t-86.5 261v631h303v-561q0 -166 153 -165q128 0 166 111v615zM849 1223l-415 -186l-90 136l334 294l178 -210z" />
    <glyph glyph-name="ucircumflex" unicode="&#xfb;" horiz-adv-x="1159" 
d="M734 961h305v-961h-248l-30 132q-95 -158 -318 -158q-158 0 -244.5 95t-86.5 261v631h303v-561q0 -166 153 -165q128 0 166 111v615zM583 1212l-196 -153l-102 99l229 281h139l237 -281l-102 -99z" />
    <glyph glyph-name="udieresis" unicode="&#xfc;" horiz-adv-x="1159" 
d="M734 961h305v-961h-248l-30 132q-95 -158 -318 -158q-158 0 -244.5 95t-86.5 261v631h303v-561q0 -166 153 -165q128 0 166 111v615zM804.5 1087q-70.5 0 -121 49.5t-50.5 120t50.5 121t121 50.5t121 -51t50.5 -120t-50.5 -119.5t-121 -50.5zM370.5 1087
q-70.5 0 -121 49.5t-50.5 120t50.5 121t120.5 50.5t121 -51t51 -120t-50.5 -119.5t-121 -50.5z" />
    <glyph glyph-name="yacute" unicode="&#xfd;" horiz-adv-x="1016" 
d="M223 -318q-58 0 -128 11v255l7 4q34 -9 93.5 -9.5t115.5 31.5t82 112l-384 867l4 8h322l196 -535l175 535h303l4 -8l-315 -791l-39 -104q-84 -214 -173 -295t-263 -81zM784 1223l-415 -186l-90 136l334 294l178 -210z" />
    <glyph glyph-name="thorn" unicode="&#xfe;" horiz-adv-x="1182" 
d="M590 236q94 0 153 64.5t59 183.5t-55.5 175t-129.5 56t-123 -30t-68 -76v-341q70 -32 164 -32zM715 987q179 0 289.5 -133t110.5 -362t-141.5 -373.5t-349.5 -144.5q-114 0 -198 39v-318h-305v1627h305v-434q110 99 289 99z" />
    <glyph glyph-name="ydieresis" unicode="&#xff;" horiz-adv-x="1016" 
d="M223 -318q-58 0 -128 11v255l7 4q34 -9 93.5 -9.5t115.5 31.5t82 112l-384 867l4 8h322l196 -535l175 535h303l4 -8l-315 -791l-39 -104q-84 -214 -173 -295t-263 -81zM739 1087q-71 0 -121 49.5t-50 120t50 121t120 50.5t121 -51t51 -120t-50 -119.5t-121 -50.5z
M305.5 1087q-70.5 0 -121 49.5t-50.5 120t50.5 121t121 50.5t121 -51t50.5 -120t-50.5 -119.5t-121 -50.5z" />
    <glyph glyph-name="Amacron" unicode="&#x100;" horiz-adv-x="1206" 
d="M445 380h300l-127 287l-30 85l-28 -85zM910 0l-74 169h-475l-69 -169h-301l540 1238h134l560 -1238h-315zM899 1562v-188h-610v188h610z" />
    <glyph glyph-name="amacron" unicode="&#x101;" horiz-adv-x="1091" 
d="M352 289q0 -92 114 -92q54 0 101 29t70 66v82q-57 19 -129 19q-156 0 -156 -104zM356 -24q-141 0 -221.5 80t-80.5 203q0 155 112.5 229t253 74t217.5 -18q-2 99 -55 140.5t-191 41.5t-236 -56l-8 2v246q43 26 133.5 47.5t194.5 21.5q467 0 467 -441v-226q0 -56 52 -56
q30 0 54 17l6 -4v-257q-73 -34 -168 -33q-175 0 -214 138q-119 -149 -316 -149zM786 1316v-186h-581v186h581z" />
    <glyph glyph-name="Abreve" unicode="&#x102;" horiz-adv-x="1206" 
d="M445 380h300l-127 287l-30 85l-28 -85zM910 0l-74 169h-475l-69 -169h-301l540 1238h134l560 -1238h-315zM593 1326q-131 0 -221.5 82.5t-90.5 218.5l184 19q13 -134 131 -134q63 0 100.5 37t40.5 97l173 -19q0 -136 -93 -218.5t-224 -82.5z" />
    <glyph glyph-name="abreve" unicode="&#x103;" horiz-adv-x="1091" 
d="M352 289q0 -92 114 -92q54 0 101 29t70 66v82q-57 19 -129 19q-156 0 -156 -104zM356 -24q-141 0 -221.5 80t-80.5 203q0 155 112.5 229t253 74t217.5 -18q-2 99 -55 140.5t-191 41.5t-236 -56l-8 2v246q43 26 133.5 47.5t194.5 21.5q467 0 467 -441v-226q0 -56 52 -56
q30 0 54 17l6 -4v-257q-73 -34 -168 -33q-175 0 -214 138q-119 -149 -316 -149zM496.5 1069q-128.5 0 -216.5 82.5t-88 222.5l180 21l8 -8q4 -54 33.5 -87.5t84.5 -33.5t89.5 34.5t39.5 86.5l6 6l169 -19q0 -140 -88.5 -222.5t-217 -82.5z" />
    <glyph glyph-name="Aogonek" unicode="&#x104;" horiz-adv-x="1206" 
d="M445 380h300l-127 287l-30 85l-28 -85zM998 -205q0 -84 82 -84q26 0 56 6l7 -6v-149q-54 -15 -144 -14.5t-160 46t-70 132.5q0 155 201 274h-60l-74 169h-475l-69 -169h-301l540 1238h134l560 -1238h-71q-156 -89 -156 -205z" />
    <glyph glyph-name="aogonek" unicode="&#x105;" horiz-adv-x="1091" 
d="M352 289q0 -92 114 -92q54 0 101 29t70 66v82q-57 19 -129 19q-156 0 -156 -104zM890 -186q0 -84 82 -84q26 0 56 6l7 -6v-149q-54 -15 -144 -15t-160 45.5t-70 133.5q0 140 160 248q-121 22 -149 132q-119 -149 -316 -149q-141 0 -221.5 80t-80.5 203q0 155 112.5 229
t253 74t217.5 -18q-2 99 -55 140.5t-191 41.5t-236 -56l-8 2v246q43 26 133.5 47.5t194.5 21.5q467 0 467 -441v-226q0 -56 52 -56q30 0 54 17l6 -4v-257q-4 -2 -9.5 -3.5t-7.5 -3.5q-147 -88 -147 -199z" />
    <glyph glyph-name="Cacute" unicode="&#x106;" horiz-adv-x="1133" 
d="M737 -22q-291 0 -477 168q-186 166 -186 464t182 475t476 177q168 0 320 -48v-283l-6 -4q-128 61 -292 61t-265.5 -96.5t-101.5 -272.5t102.5 -272t292.5 -96q140 0 262 52l8 -5v-274q-136 -46 -315 -46zM495 1301l-57 144l383 246l134 -224l-15 -30z" />
    <glyph glyph-name="cacute" unicode="&#x107;" horiz-adv-x="919" 
d="M601 -26q-235 0 -384.5 133t-149.5 371t144.5 373.5t380.5 135.5q140 0 253 -41v-255l-11 -6q-106 43 -215 43t-174 -64t-65 -178t66 -182t176 -68t214 53l9 -8v-259q-101 -48 -244 -48zM385 1058l-89 135l333 295l179 -211l-7 -33z" />
    <glyph glyph-name="Ccircumflex" unicode="&#x108;" horiz-adv-x="1133" 
d="M737 -22q-291 0 -477 168q-186 166 -186 464t182 475t476 177q168 0 320 -48v-283l-6 -4q-128 61 -292 61t-265.5 -96.5t-101.5 -272.5t102.5 -272t292.5 -96q140 0 262 52l8 -5v-274q-136 -46 -315 -46zM456 1307l-87 115l242 252h136l253 -250l-91 -117l-233 141z" />
    <glyph glyph-name="ccircumflex" unicode="&#x109;" horiz-adv-x="919" 
d="M601 -26q-235 0 -384.5 133t-149.5 371t144.5 373.5t380.5 135.5q140 0 253 -41v-255l-11 -6q-106 43 -215 43t-174 -64t-65 -178t66 -182t176 -68t214 53l9 -8v-259q-101 -48 -244 -48zM339 1080l-103 99l229 281h140l237 -281l-103 -99l-205 153z" />
    <glyph glyph-name="Cdotaccent" unicode="&#x10a;" horiz-adv-x="1133" 
d="M737 -22q-292 0 -477.5 167.5t-185.5 465t182 474.5t476 177q168 0 320 -48v-283l-6 -4q-128 61 -292.5 61.5t-265.5 -96.5t-101 -273t102.5 -272t292.5 -96q140 0 262 52l8 -5v-274q-136 -46 -315 -46zM686 1322q-72 0 -123 50t-51 123t51 124t123 51t123 -51t51 -124
t-51 -123t-123 -50z" />
    <glyph glyph-name="cdotaccent" unicode="&#x10b;" horiz-adv-x="919" 
d="M601 -26q-235 0 -384.5 133t-149.5 371t144.5 373.5t380.5 135.5q140 0 253 -41v-255l-11 -6q-106 43 -215 43t-174 -64t-65 -178t66 -182t176 -68t214 53l9 -8v-259q-101 -48 -244 -48zM538.5 1098q-74.5 0 -128 53.5t-53.5 128t53.5 127.5t128 53t127.5 -53t53 -127.5
t-53 -128t-127.5 -53.5z" />
    <glyph glyph-name="Ccaron" unicode="&#x10c;" horiz-adv-x="1133" 
d="M737 -22q-291 0 -477 168q-186 166 -186 464t182 475t476 177q168 0 320 -48v-283l-6 -4q-128 61 -292 61t-265.5 -96.5t-101.5 -272.5t102.5 -272t292.5 -96q140 0 262 52l8 -5v-274q-136 -46 -315 -46zM622 1309l-253 238l91 119l233 -143l219 143l88 -115l-242 -242
h-136z" />
    <glyph glyph-name="ccaron" unicode="&#x10d;" horiz-adv-x="919" 
d="M601 -26q-235 0 -384.5 133t-149.5 371t144.5 373.5t380.5 135.5q140 0 253 -41v-255l-11 -6q-106 43 -215 43t-174 -64t-65 -178t66 -182t176 -68t214 53l9 -8v-259q-101 -48 -244 -48zM475 1080l-239 283l105 97l205 -151l193 151l103 -97l-228 -283h-139z" />
    <glyph glyph-name="Dcaron" unicode="&#x10e;" horiz-adv-x="1364" 
d="M607 977q-102 0 -162 -7v-702q50 -4 169 -4q361 4 362 362q0 173 -100.5 262t-268.5 89zM613 1251q317 0 496 -166.5t179 -462t-189 -460t-516 -164.5q-378 0 -438 2v1234q280 17 468 17zM698 1309h-136l-253 238l91 119l233 -143l220 143l87 -115z" />
    <glyph glyph-name="dcaron" unicode="&#x10f;" horiz-adv-x="1312" 
d="M586 246q54 0 101.5 28t68.5 76v337q-65 37 -159.5 37t-155.5 -67t-61 -181.5t55.5 -172t150.5 -57.5zM756 1322h305v-1322h-247l-25 108q-45 -60 -122 -97t-175 -37q-184 0 -304.5 131t-120.5 363.5t141.5 375.5t357.5 143q112 -1 190 -36v371zM1367 1329l24 -26
l-84 -432h-162l13 458h209z" />
    <glyph glyph-name="Dcroat" unicode="&#x110;" horiz-adv-x="1396" 
d="M1009 626q0 173 -100.5 262t-268.5 89q-102 0 -162 -7v-261h183v-186h-183v-255q51 -4 170 -4q361 4 361 362zM646 1251q317 0 496.5 -166.5t179.5 -462t-189 -460t-517 -164.5q-378 0 -437 2v523h-145v186h145v525q279 17 467 17z" />
    <glyph glyph-name="dcroat" unicode="&#x111;" horiz-adv-x="1182" 
d="M586 246q54 0 101.5 28t68.5 76v337q-66 37 -160 37t-155 -67t-61 -181t55.5 -172t150.5 -58zM1162 1240v-186h-101v-1054h-247l-25 108q-45 -60 -122 -97t-175 -37q-184 0 -304.5 131t-120.5 363t141.5 375.5t357.5 143.5q112 0 190 -36v103h-162v186h162v82h305v-82
h101z" />
    <glyph glyph-name="Emacron" unicode="&#x112;" horiz-adv-x="1055" 
d="M447 248h519v-248h-821v1234h805v-247h-503v-233h467v-242h-467v-264zM866 1562v-188h-611v188h611z" />
    <glyph glyph-name="emacron" unicode="&#x113;" horiz-adv-x="1091" 
d="M564.5 743q-150.5 0 -184.5 -171h352q-17 171 -167.5 171zM559 987q215 0 339 -119.5t128 -338.5q0 -43 -4 -129h-640q41 -182 275 -182q149 0 298 67l8 -4v-234q-143 -73 -355 -73q-214 0 -370 112q-78 56 -124.5 158t-46.5 236q0 227 138.5 367t353.5 140zM843 1316
v-186h-580v186h580z" />
    <glyph glyph-name="Ebreve" unicode="&#x114;" horiz-adv-x="1055" 
d="M447 248h519v-248h-821v1234h805v-247h-503v-233h467v-242h-467v-264zM432 1646q13 -134 132 -134q61 0 98.5 37t41.5 97l173 -19q0 -136 -93 -218.5t-224 -82.5t-221.5 82.5t-90.5 218.5z" />
    <glyph glyph-name="ebreve" unicode="&#x115;" horiz-adv-x="1091" 
d="M564.5 743q-150.5 0 -184.5 -171h352q-17 171 -167.5 171zM559 987q215 0 339 -119.5t128 -338.5q0 -43 -4 -129h-640q41 -182 275 -182q149 0 298 67l8 -4v-234q-143 -73 -355 -73q-214 0 -370 112q-78 56 -124.5 158t-46.5 236q0 227 138.5 367t353.5 140zM554.5 1069
q-128.5 0 -217 82.5t-88.5 222.5l181 21l8 -8q4 -54 33.5 -87.5t84.5 -33.5t89.5 34.5t39.5 86.5l6 6l169 -19q0 -140 -88.5 -222.5t-217 -82.5z" />
    <glyph glyph-name="Edotaccent" unicode="&#x116;" horiz-adv-x="1055" 
d="M447 248h519v-248h-821v1234h805v-247h-503v-233h467v-242h-467v-264zM563 1322q-72 0 -123 50t-51 123t51.5 124t123 51t122.5 -51t51 -124t-51 -123t-123 -50z" />
    <glyph glyph-name="edotaccent" unicode="&#x117;" horiz-adv-x="1091" 
d="M564.5 743q-150.5 0 -184.5 -171h352q-17 171 -167.5 171zM559 987q215 0 339 -119.5t128 -338.5q0 -43 -4 -129h-640q41 -182 275 -182q149 0 298 67l8 -4v-234q-143 -73 -355 -73q-214 0 -370 112q-78 56 -124.5 158t-46.5 236q0 227 138.5 367t353.5 140zM554.5 1078
q-74.5 0 -127.5 53t-53 127.5t53 127.5t127.5 53t127.5 -53t53 -127.5t-53 -127.5t-127.5 -53z" />
    <glyph glyph-name="Eogonek" unicode="&#x118;" horiz-adv-x="1055" 
d="M810 -205q0 -84 82 -84q24 0 56 6l7 -6v-149q-54 -15 -144 -14.5t-160 46t-70 132.5q0 155 201 274h-637v1234h805v-247h-503v-233h467v-242h-467v-264h519v-248q-156 -89 -156 -205z" />
    <glyph glyph-name="eogonek" unicode="&#x119;" horiz-adv-x="1091" 
d="M564.5 743q-150.5 0 -184.5 -171h352q-17 171 -167.5 171zM559 987q215 0 339 -119.5t128 -338.5q0 -43 -4 -129h-640q41 -182 275 -182q149 0 298 67l8 -4v-234q-48 -24 -114 -43q-134 -86 -134 -192q0 -84 82 -84q26 0 56 6l7 -6v-149q-54 -15 -144 -15t-160 46
t-70 133q0 130 136 231h-22q-206 0 -362 112q-78 56 -124.5 158t-46.5 236q0 227 138.5 367t353.5 140z" />
    <glyph glyph-name="Ecaron" unicode="&#x11a;" horiz-adv-x="1055" 
d="M447 248h519v-248h-821v1234h805v-247h-503v-233h467v-242h-467v-264zM635 1309h-136l-253 238l91 119l233 -143l219 143l88 -115z" />
    <glyph glyph-name="ecaron" unicode="&#x11b;" horiz-adv-x="1091" 
d="M564.5 743q-150.5 0 -184.5 -171h352q-17 171 -167.5 171zM559 987q215 0 339 -119.5t128 -338.5q0 -43 -4 -129h-640q41 -182 275 -182q149 0 298 67l8 -4v-234q-143 -73 -355 -73q-214 0 -370 112q-78 56 -124.5 158t-46.5 236q0 227 138.5 367t353.5 140zM631 1059
h-139l-239 283l104 97l205 -151l194 151l102 -97z" />
    <glyph glyph-name="Gcircumflex" unicode="&#x11c;" horiz-adv-x="1267" 
d="M1175 672v-622q-205 -71 -434 -70q-315 0 -491 162.5t-176 466.5t193 478.5t524 174.5q188 0 334 -54l-2 -290l-8 -2q-143 73 -331 73t-292 -100q-104 -99 -103.5 -273t96.5 -269.5t273 -95.5q65 0 145 19v169h-175v233h447zM700 1448l-220 -141l-87 115l242 252h136
l253 -250l-91 -117z" />
    <glyph glyph-name="gcircumflex" unicode="&#x11d;" horiz-adv-x="1105" 
d="M778 -58q0 39 -42 53q-42 13 -185 25t-173 15q-52 -39 -52 -85t58.5 -64t181.5 -18q212 0 212 74zM529 542q65 0 101.5 27t36.5 77q0 108 -138 108t-138 -108q0 -50 36.5 -77t101.5 -27zM1061 961v-205l-158 2q52 -56 52 -142q0 -127 -111.5 -203t-316.5 -76
q-73 0 -134 11q-9 -13 -9 -24q0 -37 48 -50t238 -28t284 -74.5t94 -188.5q0 -305 -519 -305q-222 0 -349.5 55t-127.5 167t121 195q-69 47 -69 145t121 170q-132 82 -132 232t117.5 234.5t320.5 84.5h530zM525 1233l-195 -153l-103 99l229 281h140l236 -281l-102 -99z" />
    <glyph glyph-name="Gbreve" unicode="&#x11e;" horiz-adv-x="1267" 
d="M1175 672v-622q-205 -71 -434 -70q-315 0 -491 162.5t-176 466.5t193 478.5t524 174.5q188 0 334 -54l-2 -290l-8 -2q-143 73 -331 73t-291.5 -100t-103.5 -273.5t96 -269t273 -95.5q65 0 145 19v169h-175v233h447zM579 1646q13 -134 131 -134q60 0 98.5 37t42.5 97
l173 -19q0 -136 -93 -218.5t-224 -82.5t-221.5 82.5t-90.5 218.5z" />
    <glyph glyph-name="gbreve" unicode="&#x11f;" horiz-adv-x="1105" 
d="M778 -58q0 39 -42 53t-185 25.5t-173 14.5q-52 -39 -52 -84.5t58.5 -64t181.5 -18.5q212 0 212 74zM529 542q65 0 101.5 27t36.5 77q0 108 -138 108t-138 -108q0 -50 36.5 -77t101.5 -27zM1061 961v-205l-158 2q52 -56 52 -142q0 -127 -111.5 -203t-316.5 -76
q-73 0 -134 11q-9 -13 -9 -24q0 -37 48 -50t238 -28t284 -74.5t94 -188.5q0 -305 -519 -305q-222 0 -349.5 55t-127.5 167.5t121 194.5q-69 47 -69 144.5t121 170.5q-132 82 -132 231.5t117.5 234.5t320.5 85h530zM528.5 1089q-128.5 0 -217 83t-88.5 223l181 20l7 -7
q4 -54 34 -87.5t85 -33.5t89 34t40 87l6 5l169 -18q0 -140 -88.5 -223t-217 -83z" />
    <glyph glyph-name="Gdotaccent" unicode="&#x120;" horiz-adv-x="1267" 
d="M1175 672v-622q-205 -71 -434 -70q-315 0 -491 162.5t-176 466.5t193 478.5t524 174.5q188 0 334 -54l-2 -290l-8 -2q-143 73 -331 73t-291.5 -100t-103.5 -273.5t96 -269t273 -95.5q65 0 145 19v169h-175v233h447zM710 1322q-72 0 -123 50t-51 123t51.5 124t123 51
t122.5 -51t51 -124t-51 -123t-123 -50z" />
    <glyph glyph-name="gdotaccent" unicode="&#x121;" horiz-adv-x="1105" 
d="M778 -58q0 39 -42 53q-42 13 -185 25t-173 15q-52 -39 -52 -85t58.5 -64t181.5 -18q212 0 212 74zM529 542q65 0 101.5 27t36.5 77q0 108 -138 108t-138 -108q0 -50 36.5 -77t101.5 -27zM1061 961v-205l-158 2q52 -56 52 -142q0 -127 -111.5 -203t-316.5 -76
q-73 0 -134 11q-9 -13 -9 -24q0 -37 48 -50t238 -28t284 -74.5t94 -188.5q0 -305 -519 -305q-222 0 -349.5 55t-127.5 167t121 195q-69 47 -69 145t121 170q-132 82 -132 232t117.5 234.5t320.5 84.5h530zM528.5 1098q-74.5 0 -127.5 53.5t-53 128t53 127.5t127.5 53
t127.5 -53t53 -127.5t-53 -128t-127.5 -53.5z" />
    <glyph glyph-name="Gcommaaccent" unicode="&#x122;" horiz-adv-x="1267" 
d="M605 -95l233 19l22 -34q0 -190 -106 -355h-173q31 140 31 212t-7 158zM1175 672v-622q-205 -71 -434 -70q-315 0 -491 162.5t-176 466.5t193 478.5t524 174.5q188 0 334 -54l-2 -290l-8 -2q-143 73 -331 73t-292 -100q-104 -99 -103.5 -273t96.5 -269.5t273 -95.5
q65 0 145 19v169h-175v233h447z" />
    <glyph glyph-name="gcommaaccent" unicode="&#x123;" horiz-adv-x="1105" 
d="M778 -58q0 39 -42 53q-42 13 -185 25t-173 15q-52 -39 -52 -85t58.5 -64t181.5 -18q212 0 212 74zM529 542q65 0 101.5 27t36.5 77q0 108 -138 108t-138 -108q0 -50 36.5 -77t101.5 -27zM1061 961v-205l-158 2q52 -56 52 -142q0 -127 -111.5 -203t-316.5 -76
q-73 0 -134 11q-9 -13 -9 -24q0 -37 48 -50t238 -28t284 -74.5t94 -188.5q0 -305 -519 -305q-222 0 -349.5 55t-127.5 167t121 195q-69 47 -69 145t121 170q-132 82 -132 232t117.5 234.5t320.5 84.5h530zM661 1076l-233 -18l-22 33q0 190 106 356h173q-31 -141 -31 -213
t7 -158z" />
    <glyph glyph-name="Hcircumflex" unicode="&#x124;" horiz-adv-x="1396" 
d="M950 1234h303v-1234h-303v478h-503v-478h-302v1234h302v-480h503v480zM689 1448l-220 -141l-87 115l242 252h136l253 -250l-91 -117z" />
    <glyph glyph-name="hcircumflex" unicode="&#x125;" horiz-adv-x="1178" 
d="M701.5 987q171.5 0 269.5 -105.5t98 -289.5v-592h-304v512q0 186 -164 186q-63 0 -110.5 -31.5t-64.5 -93.5v-573h-305v1322h305v-456q104 121 275.5 121zM505 1361l-233 141l-220 -141l-87 115l242 252h136l253 -250z" />
    <glyph glyph-name="Hbar" unicode="&#x126;" horiz-adv-x="1521" 
d="M1011 754v130h-503v-130h503zM1422 1071v-187h-108v-884h-303v478h-503v-478h-301v884h-108v187h108v163h301v-163h503v163h303v-163h108z" />
    <glyph glyph-name="hbar" unicode="&#x127;" horiz-adv-x="1178" 
d="M701.5 987q171.5 0 269.5 -105.5t98 -289.5v-592h-304v512q0 186 -164 186q-63 0 -110.5 -31.5t-64.5 -93.5v-573h-305v1054h-141v186h141v82h305v-82h183v-186h-183v-188q104 121 275.5 121z" />
    <glyph glyph-name="Itilde" unicode="&#x128;" horiz-adv-x="593" 
d="M145 0v1234h304v-1234h-304zM169 1612q60 0 134.5 -28.5t105 -28.5t51 18.5t20.5 46.5l6 4l173 -49q0 -108 -63.5 -177t-165.5 -69q-45 0 -124 29t-112.5 29t-54 -20.5t-20.5 -46.5l-4 -4l-175 49q2 106 65.5 176.5t163.5 70.5z" />
    <glyph glyph-name="itilde" unicode="&#x129;" horiz-adv-x="547" 
d="M121 0v961h305v-961h-305zM141 1400q60 0 136.5 -29.5t111 -29.5t54 19.5t19.5 48.5l5 4l183 -48q0 -115 -66 -183.5t-167 -68.5q-54 -2 -133 29t-111 31t-50.5 -18.5t-18.5 -48.5l-7 -6l-181 49q0 101 60.5 176t164.5 75z" />
    <glyph glyph-name="Imacron" unicode="&#x12a;" horiz-adv-x="593" 
d="M145 0v1234h304v-1234h-304zM52 1380v195h488v-195h-488z" />
    <glyph glyph-name="imacron" unicode="&#x12b;" horiz-adv-x="547" 
d="M121 0v961h305v-961h-305zM-11 1130v186h566v-186h-566z" />
    <glyph glyph-name="Ibreve" unicode="&#x12c;" horiz-adv-x="593" 
d="M145 0v1234h304v-1234h-304zM298 1512q63 0 100.5 37t40.5 97l174 -19q0 -136 -93.5 -218.5t-224.5 -82.5t-221.5 82.5t-90.5 218.5l185 19q13 -134 130 -134z" />
    <glyph glyph-name="ibreve" unicode="&#x12d;" horiz-adv-x="547" 
d="M121 0v961h305v-961h-305zM273.5 1069q-128.5 0 -217 82.5t-88.5 222.5l181 21l7 -8q4 -54 34 -87.5t85 -33.5t89 34.5t40 86.5l6 6l169 -19q0 -140 -88.5 -222.5t-217 -82.5z" />
    <glyph glyph-name="Iogonek" unicode="&#x12e;" horiz-adv-x="593" 
d="M274 -188q0 -84 82 -84q24 0 55 6l8 -6v-149q-54 -15 -144.5 -15t-160 46t-69.5 133q0 145 173 257h-73v1234h304v-1234h-47q-128 -84 -128 -188z" />
    <glyph glyph-name="iogonek" unicode="&#x12f;" horiz-adv-x="547" 
d="M121 0v961h305v-961h-33q-156 -89 -157 -205q0 -84 82 -84q24 0 56 6l8 -6v-149q-54 -14 -144 -14t-160.5 45.5t-70.5 132.5q0 155 202 274h-88zM273.5 1078q-74.5 0 -127.5 53t-53 127.5t53 127.5t127.5 53t127.5 -53t53 -127.5t-53 -127.5t-127.5 -53z" />
    <glyph glyph-name="Idotaccent" unicode="&#x130;" horiz-adv-x="593" 
d="M145 0v1234h304v-1234h-304zM299 1322q-72 0 -123 50t-51 123t51 124t123 51t123 -51t51 -124t-51 -123t-123 -50z" />
    <glyph glyph-name="dotlessi" unicode="&#x131;" horiz-adv-x="547" 
d="M121 0v961h305v-961h-305z" />
    <glyph glyph-name="IJ" unicode="&#x132;" horiz-adv-x="1321" 
d="M734 -6q-58 0 -112 8v253l7 4q30 -6 64 -6q195 0 195 250v731h305v-702q1 -538 -459 -538zM145 0v1234h304v-1234h-304z" />
    <glyph glyph-name="ij" unicode="&#x133;" horiz-adv-x="1118" 
d="M553 -318q-127 0 -244 37v262l4 2q88 -30 191 -30q103 1 147 65t43 231v712h306v-749q0 -530 -447 -530zM121 158v803h305v-803h-305zM847 1078q-74 0 -127 53t-53 127t53 128q53 53 127 53q73 0 127 -53t54 -127t-53 -128q-54 -53 -128 -53zM274 1078q-74 0 -128 53
q-53 53 -53 127t53 128q54 53 128 53t127 -53t53 -127q0 -73 -53 -127t-127 -54z" />
    <glyph glyph-name="Jcircumflex" unicode="&#x134;" horiz-adv-x="727" 
d="M140 -6q-58 0 -112 8v253l7 4q32 -6 64 -6q195 0 195 250v731h306v-702q0 -538 -460 -538zM209 1307l-88 115l242 252h136l253 -250l-91 -117l-233 141z" />
    <glyph glyph-name="jcircumflex" unicode="&#x135;" horiz-adv-x="580" 
d="M67 -318q-54 0 -141 13v262l7 4q30 -7 69 -8q155 0 154 181v827h304v-898q0 -192 -103.5 -286.5t-289.5 -94.5zM108 1059l-102 99l229 281h139l237 -281l-103 -99l-205 153z" />
    <glyph glyph-name="Kcommaaccent" unicode="&#x136;" horiz-adv-x="1264" 
d="M510 -95l233 19l22 -34q0 -190 -106 -355h-173q32 140 31.5 212t-7.5 158zM447 0h-302v1234h302v-500l462 500h346l2 -7l-568 -600l603 -620l-4 -7h-374l-467 477v-477z" />
    <glyph glyph-name="kcommaaccent" unicode="&#x137;" horiz-adv-x="1109" 
d="M439 -95l233 19l22 -34q0 -190 -106 -355h-173q32 140 31.5 212t-7.5 158zM426 0h-305v1322h305v-724l313 363h341l4 -8l-391 -443l419 -503l-2 -7h-365l-319 378v-378z" />
    <glyph glyph-name="kgreenlandic" unicode="&#x138;" horiz-adv-x="1109" 
d="M426 0h-305v961h305v-363l315 363h344l4 -8l-396 -443l419 -503l-2 -7h-365l-319 378v-378z" />
    <glyph glyph-name="Lacute" unicode="&#x139;" horiz-adv-x="947" 
d="M447 251h480v-251h-782v1234h302v-983zM601 1467l-15 -30l-445 -136l-57 144l383 246z" />
    <glyph glyph-name="lacute" unicode="&#x13a;" horiz-adv-x="547" 
d="M121 0v1322h305v-1322h-305zM119 1398l-89 136l333 294l179 -210l-8 -34z" />
    <glyph glyph-name="Lcommaaccent" unicode="&#x13b;" horiz-adv-x="947" 
d="M417 -253q0 72 -7 158l232 19l23 -34q0 -190 -106 -355h-174q32 140 32 212zM447 251h480v-251h-782v1234h302v-983z" />
    <glyph glyph-name="lcommaaccent" unicode="&#x13c;" horiz-adv-x="547" 
d="M153 -252.5q0 72.5 -8 157.5l233 19l22 -34q0 -190 -106 -355h-173q32 140 32 212.5zM121 0v1322h305v-1322h-305z" />
    <glyph glyph-name="Lcaron" unicode="&#x13d;" horiz-adv-x="960" 
d="M447 251h480v-251h-782v1234h302v-983zM884 1231l-82 -432h-163l14 458h209z" />
    <glyph glyph-name="lcaron" unicode="&#x13e;" horiz-adv-x="677" 
d="M121 0v1322h305v-1322h-305zM508 871l15 458h209l24 -26l-84 -432h-164z" />
    <glyph glyph-name="Ldot" unicode="&#x13f;" horiz-adv-x="1020" 
d="M778 598q-80 0 -121 41.5t-41 108.5t41 111t121 44t122 -44t42 -111t-42 -108.5t-122 -41.5zM447 1234v-983h480v-251h-782v1234h302z" />
    <glyph glyph-name="ldot" unicode="&#x140;" horiz-adv-x="843" 
d="M695 516q-79 0 -121 42t-42 109t42 110.5t121 43.5t121 -43.5t42 -110.5t-42 -109t-121 -42zM121 0v1322h305v-1322h-305z" />
    <glyph glyph-name="Lslash" unicode="&#x141;" horiz-adv-x="977" 
d="M477 251h480v-251h-784v411l-121 -76l-9 4v212l130 82v601h304v-407l123 78h9v-218l-132 -84v-352z" />
    <glyph glyph-name="lslash" unicode="&#x142;" horiz-adv-x="681" 
d="M626 933v-214l-136 -90v-629h-306v432l-113 -75h-10v215l123 80v670h306v-473l128 84h8z" />
    <glyph glyph-name="Nacute" unicode="&#x143;" horiz-adv-x="1377" 
d="M145 0v1234h132l659 -662h6v662h291v-1234h-133l-661 676h-5v-676h-289zM501 1301l-58 144l384 246l134 -224l-15 -30z" />
    <glyph glyph-name="nacute" unicode="&#x144;" horiz-adv-x="1178" 
d="M707 987q162 0 262 -108t100 -293v-586h-304v503q0 190 -167 190q-60 0 -108.5 -34.5t-63.5 -92.5v-566h-305v961h248l29 -129q99 155 309 155zM843 1223l-415 -186l-89 136l333 294l179 -210z" />
    <glyph glyph-name="Ncommaaccent" unicode="&#x145;" horiz-adv-x="1377" 
d="M583 -252.5q0 72.5 -8 157.5l233 19l22 -34q0 -190 -106 -355h-173q32 140 32 212.5zM145 0v1234h132l659 -662h6v662h291v-1234h-133l-661 676h-5v-676h-289z" />
    <glyph glyph-name="ncommaaccent" unicode="&#x146;" horiz-adv-x="1178" 
d="M458 -95l233 19l22 -34q0 -190 -106 -355h-173q32 140 32 212t-8 158zM707 987q162 0 262 -108t100 -293v-586h-304v503q0 190 -167 190q-60 0 -108.5 -34.5t-63.5 -92.5v-566h-305v961h248l29 -129q99 155 309 155z" />
    <glyph glyph-name="Ncaron" unicode="&#x147;" horiz-adv-x="1377" 
d="M145 0v1234h132l659 -662h6v662h291v-1234h-133l-661 676h-5v-676h-289zM627 1309l-253 238l91 119l233 -143l220 143l87 -115l-242 -242h-136z" />
    <glyph glyph-name="ncaron" unicode="&#x148;" horiz-adv-x="1178" 
d="M707 987q162 0 262 -108t100 -293v-586h-304v503q0 190 -167 190q-60 0 -108.5 -34.5t-63.5 -92.5v-566h-305v961h248l29 -129q99 155 309 155zM657 1059h-139l-239 283l105 97l204 -151l194 151l102 -97z" />
    <glyph glyph-name="napostrophe" unicode="&#x149;" horiz-adv-x="1388" 
d="M918 987q162 0 262.5 -108t100.5 -293v-586h-305v503q0 190 -168 190q-60 0 -108 -34.5t-63 -92.5v-566h-306v961h248l30 -129q99 155 309 155zM6 780q38 228 22 492l227 39l37 -43q-2 -220 -130 -488h-156z" />
    <glyph glyph-name="Eng" unicode="&#x14a;" horiz-adv-x="1375" 
d="M942 1234h291v-1061q1 -289 -115 -417t-332 -127q-61 0 -114 8v248l2 1q37 -6 71 -5q197 0 197 262v17l-503 516h-5v-676h-289v1234h132l659 -662h6v662z" />
    <glyph glyph-name="eng" unicode="&#x14b;" horiz-adv-x="1174" 
d="M709 987q162 0 260 -102.5t98 -283.5v-629q0 -188 -101.5 -281t-278.5 -93q-50 0 -125 9l-2 248l4 4q45 -7 58 -8q74 0 106.5 44t32.5 133v478q0 99 -46.5 143t-112.5 44q-141 0 -176 -125v-568h-305v961h248l29 -134q104 160 311 160z" />
    <glyph glyph-name="Omacron" unicode="&#x14c;" horiz-adv-x="1448" 
d="M724.5 249q154.5 0 245.5 99t91 270t-91 271t-245.5 100t-245 -99t-90.5 -271t90.5 -271t245 -99zM74 618q0 296 182.5 470t467.5 174q173 0 318.5 -69.5t239.5 -219.5t94 -355q0 -294 -183.5 -467t-457 -173t-461.5 159q-92 77 -146 202t-54 279zM417 1374v188h611v-188
h-611z" />
    <glyph glyph-name="omacron" unicode="&#x14d;" horiz-adv-x="1185" 
d="M591.5 235q101.5 0 158 68t56.5 178.5t-56.5 177.5t-157 67t-156.5 -67t-56 -179t55 -178.5t156.5 -66.5zM596.5 -26q-226.5 0 -378 130.5t-151.5 368.5t147 376t374 138t379 -129.5t152 -369t-148 -377t-374.5 -137.5zM300 1130v186h581v-186h-581z" />
    <glyph glyph-name="Obreve" unicode="&#x14e;" horiz-adv-x="1448" 
d="M724.5 249q154.5 0 245.5 99t91 270t-91 271t-245.5 100t-245 -99t-90.5 -271t90.5 -271t245 -99zM74 618q0 296 182.5 470t467.5 174q173 0 318.5 -69.5t239.5 -219.5t94 -355q0 -294 -183.5 -467t-457 -173t-461.5 159q-92 77 -146 202t-54 279zM594 1646
q13 -134 131 -134q60 0 98.5 37t42.5 97l173 -19q0 -136 -93 -218.5t-224 -82.5t-221.5 82.5t-90.5 218.5z" />
    <glyph glyph-name="obreve" unicode="&#x14f;" horiz-adv-x="1185" 
d="M591.5 235q101.5 0 158 68t56.5 178.5t-56.5 177.5t-157 67t-156.5 -67t-56 -179t55 -178.5t156.5 -66.5zM596.5 -26q-226.5 0 -378 130.5t-151.5 368.5t147 376t374 138t379 -129.5t152 -369t-148 -377t-374.5 -137.5zM591.5 1069q-128.5 0 -216.5 82.5t-88 222.5
l180 21l8 -8q4 -54 33.5 -87.5t84.5 -33.5t89.5 34.5t39.5 86.5l6 6l169 -19q0 -140 -88.5 -222.5t-217 -82.5z" />
    <glyph glyph-name="Ohungarumlaut" unicode="&#x150;" horiz-adv-x="1448" 
d="M724.5 249q154.5 0 245.5 99t91 270t-91 271t-245.5 100t-245 -99t-90.5 -271t90.5 -271t245 -99zM74 618q0 296 182.5 470t467.5 174q173 0 318.5 -69.5t239.5 -219.5t94 -355q0 -294 -183.5 -467t-457 -173t-461.5 159q-92 77 -146 202t-54 279zM951 1305l-134 54
l140 350l201 -54l7 -41zM555 1305l-134 54l139 350l201 -54l6 -41z" />
    <glyph glyph-name="ohungarumlaut" unicode="&#x151;" horiz-adv-x="1185" 
d="M591.5 235q101.5 0 158 68t56.5 178.5t-56.5 177.5t-157 67t-156.5 -67t-56 -179t55 -178.5t156.5 -66.5zM596.5 -26q-226.5 0 -378 130.5t-151.5 368.5t147 376t374 138t379 -129.5t152 -369t-148 -377t-374.5 -137.5zM786 1041l-121 72l164 349l193 -69l4 -39z
M426 1041l-121 72l164 349l196 -69l2 -39z" />
    <glyph glyph-name="OE" unicode="&#x152;" horiz-adv-x="1755" 
d="M389 619.5q0 -167.5 85 -265t224 -97.5t221.5 97t82.5 265t-82 267t-222 99t-224.5 -99t-84.5 -266.5zM1666 240v-240h-811q-76 -17 -178 -17t-211 40t-197 117.5t-140.5 200.5t-52.5 277q0 294 175 467.5t445 173.5q99 0 185 -25h769v-238h-438q71 -108 91 -244h311
v-236h-305q-19 -155 -99 -276h456z" />
    <glyph glyph-name="oe" unicode="&#x153;" horiz-adv-x="1748" 
d="M567.5 233q89.5 0 140 69t50.5 179.5t-50.5 177.5t-139 67t-138.5 -68t-50 -179t49 -178.5t138.5 -67.5zM1240 743q-141 0 -171 -177h335q-13 177 -164 177zM1294 -26q-242 0 -380 149q-128 -149 -346 -149t-359.5 131t-141.5 366.5t138 375.5t357 140t350 -144
q128 143 330.5 143.5t319.5 -116t121 -345.5q0 -42 -4 -128h-608q43 -186 262 -187q143 0 279 71l8 -4v-227q-134 -76 -326 -76z" />
    <glyph glyph-name="Racute" unicode="&#x154;" horiz-adv-x="1180" 
d="M445 629h110q95 0 153.5 47.5t58.5 134t-52 132.5t-144 46t-126 -4v-356zM445 402v-402h-300v1234q190 13 347.5 13t247.5 -20.5t168 -64.5q164 -94 163 -328q-1 -283 -224 -387l278 -440l-4 -7h-324l-244 402h-108zM830 1437l-445 -136l-57 144l383 246l134 -224z" />
    <glyph glyph-name="racute" unicode="&#x155;" horiz-adv-x="787" 
d="M637 983q65 0 115 -15v-274l-7 -3q-41 15 -113.5 15t-136 -58t-69.5 -183v-465h-305v961h248l29 -136q37 76 105.5 117t133.5 41zM707 1223l-415 -186l-89 136l333 294l179 -210z" />
    <glyph glyph-name="Rcommaaccent" unicode="&#x156;" horiz-adv-x="1180" 
d="M465 -95l233 19l23 -34q0 -190 -107 -355h-173q32 140 31.5 212t-7.5 158zM445 629h110q95 0 153.5 47.5t58.5 134t-52 132.5t-144 46t-126 -4v-356zM445 402v-402h-300v1234q190 13 347.5 13t247.5 -20.5t168 -64.5q164 -94 163 -328q-1 -283 -224 -387l278 -440l-4 -7
h-324l-244 402h-108z" />
    <glyph glyph-name="rcommaaccent" unicode="&#x157;" horiz-adv-x="787" 
d="M162 -253q0 72 -7 158l232 19l23 -34q0 -190 -107 -355h-173q32 140 32 212zM637 983q65 0 115 -15v-274l-7 -3q-41 15 -113.5 15t-136 -58t-69.5 -183v-465h-305v961h248l29 -136q37 76 105.5 117t133.5 41z" />
    <glyph glyph-name="Rcaron" unicode="&#x158;" horiz-adv-x="1180" 
d="M445 629h110q95 0 153.5 47.5t58.5 134t-52 132.5t-144 46t-126 -4v-356zM445 402v-402h-300v1234q190 13 347.5 13t247.5 -20.5t168 -64.5q164 -94 163 -328q-1 -283 -224 -387l278 -440l-4 -7h-324l-244 402h-108zM648 1309h-136l-253 238l91 119l233 -143l219 143
l88 -115z" />
    <glyph glyph-name="rcaron" unicode="&#x159;" horiz-adv-x="787" 
d="M637 983q65 0 115 -15v-274l-7 -3q-41 15 -113.5 15t-136 -58t-69.5 -183v-465h-305v961h248l29 -136q37 76 105.5 117t133.5 41zM521 1059h-139l-239 283l105 97l204 -151l194 151l102 -97z" />
    <glyph glyph-name="Sacute" unicode="&#x15a;" horiz-adv-x="992" 
d="M461 -20q-206 0 -370 80v277l8 4q153 -106 329.5 -106t176.5 115q0 54 -40 91t-161 90q-302 125 -302 361q0 181 127 274.5t318 93.5t322 -52v-260l-7 -2q-104 58 -281 60t-177 -97q0 -43 44.5 -73t172.5 -86.5t208 -147t80 -253.5t-121 -266t-327 -103zM331 1301
l-57 144l383 246l134 -224l-15 -30z" />
    <glyph glyph-name="sacute" unicode="&#x15b;" horiz-adv-x="923" 
d="M436 -26q-200 0 -358 69v246l8 1q69 -43 163.5 -70.5t174.5 -27.5q145 0 146 72q0 37 -36.5 58t-178 63t-207.5 112.5t-66 178.5q0 141 117.5 226t310.5 85t305 -47v-244l-7 -2q-108 54 -285 54q-65 0 -106 -16.5t-41 -48t34.5 -49.5t174 -58t206.5 -109t67 -182
q0 -147 -111 -229t-311 -82zM311 1058l-89 135l333 295l179 -211l-8 -33z" />
    <glyph glyph-name="Scircumflex" unicode="&#x15c;" horiz-adv-x="992" 
d="M461 -20q-206 0 -370 80v277l8 4q153 -106 329.5 -106t176.5 115q0 54 -40 91t-161 90q-302 125 -302 361q0 181 127 274.5t318 93.5t322 -52v-260l-7 -2q-104 58 -281 60t-177 -97q0 -43 44.5 -73t172.5 -86.5t208 -147t80 -253.5t-121 -266t-327 -103zM292 1307
l-87 115l242 252h136l253 -250l-91 -117l-233 141z" />
    <glyph glyph-name="scircumflex" unicode="&#x15d;" horiz-adv-x="923" 
d="M436 -26q-200 0 -358 69v246l8 1q69 -43 163.5 -70.5t174.5 -27.5q145 0 146 72q0 37 -36.5 58t-178 63t-207.5 112.5t-66 178.5q0 141 117.5 226t310.5 85t305 -47v-244l-7 -2q-108 54 -285 54q-65 0 -106 -16.5t-41 -48t34.5 -49.5t174 -58t206.5 -109t67 -182
q0 -147 -111 -229t-311 -82zM264 1080l-102 99l229 281h140l236 -281l-102 -99l-205 153z" />
    <glyph glyph-name="Scedilla" unicode="&#x15e;" horiz-adv-x="992" 
d="M909 360q0 -152 -92.5 -250.5t-252.5 -122.5l-50 -67q15 2 28 0q175 -15 175 -187q0 -92 -79 -138.5t-172 -46.5t-153 14v123l7 4q37 -13 71 -13q104 0 104 67q2 32 -18.5 46t-58.5 14t-64 -6l-4 8v106l48 70q-166 9 -307 79v277l8 4q153 -106 329.5 -106t176.5 115
q0 54 -40 91t-161 90q-302 125 -302 361q0 181 127 274.5t318 93.5t322 -52v-260l-7 -2q-104 58 -281 60t-177 -97q0 -43 44.5 -73t172.5 -86.5t208 -147t80 -242.5z" />
    <glyph glyph-name="scedilla" unicode="&#x15f;" horiz-adv-x="923" 
d="M858 278q0 -121 -84.5 -200.5t-241.5 -97.5l-44 -60q15 2 28 0q82 -7 128.5 -51t46.5 -122q0 -106 -79.5 -152.5t-172.5 -46.5t-152 14v123l7 4q37 -13 71 -13q104 0 104 67q2 32 -18.5 46t-58.5 14t-64 -6l-4 8v106l45 65q-164 11 -291 67v246l8 1q69 -43 163.5 -70.5
t174.5 -27.5q145 0 146 72q0 37 -36.5 58t-178 63t-207.5 112.5t-66 178.5q0 141 117.5 226t310.5 85t305 -47v-244l-7 -2q-108 54 -285 54q-65 0 -106 -16.5t-41 -48t34.5 -49.5t174 -58t206.5 -108.5t67 -189.5z" />
    <glyph glyph-name="Scaron" unicode="&#x160;" horiz-adv-x="992" 
d="M461 -20q-206 0 -370 80v277l8 4q153 -106 329.5 -106t176.5 115q0 54 -40 91t-161 90q-302 125 -302 361q0 181 127 274.5t318 93.5t322 -52v-260l-7 -2q-104 58 -281 60t-177 -97q0 -43 44.5 -73t172.5 -86.5t208 -147t80 -253.5t-121 -266t-327 -103zM458 1309
l-253 238l91 119l233 -143l219 143l88 -115l-242 -242h-136z" />
    <glyph glyph-name="scaron" unicode="&#x161;" horiz-adv-x="923" 
d="M436 -26q-200 0 -358 69v246l8 1q69 -43 163.5 -70.5t174.5 -27.5q145 0 146 72q0 37 -36.5 58t-178 63t-207.5 112.5t-66 178.5q0 141 117.5 226t310.5 85t305 -47v-244l-7 -2q-108 54 -285 54q-65 0 -106 -16.5t-41 -48t34.5 -49.5t174 -58t206.5 -109t67 -182
q0 -147 -111 -229t-311 -82zM400 1080l-238 283l104 97l205 -151l194 151l102 -97l-227 -283h-140z" />
    <glyph glyph-name="uni0162" unicode="&#x162;" horiz-adv-x="1107" 
d="M715 0h-80l-60 -80q13 2 28 0q175 -15 175 -187q0 -92 -79 -138.5t-172 -46.5t-153 14v123l8 4q37 -13 70 -13q104 0 105 67q2 32 -18.5 46t-60 14t-63.5 -6l-4 8v106l62 89h-63v963h-386v271h1061v-271h-370v-963z" />
    <glyph glyph-name="uni0163" unicode="&#x163;" horiz-adv-x="806" 
d="M747 721h-261v-308q0 -155 134 -154q65 0 121 28l6 -4v-257q-67 -32 -162 -37l-53 -69q15 2 28 0q175 -15 175 -187q0 -92 -79 -138.5t-172 -46.5t-153 14v123l8 4q37 -13 71 -13q104 0 104 67q2 32 -18.5 46t-58.5 14t-65 -6l-3 8v106l59 85q-248 56 -247 354v371h-159
v240h159v231l299 57l6 -3v-285h261v-240z" />
    <glyph glyph-name="Tcaron" unicode="&#x164;" horiz-adv-x="1107" 
d="M1085 1234v-271h-370v-963h-305v963h-386v271h1061zM627 1309h-135l-254 238l92 119l232 -143l220 143l87 -115z" />
    <glyph glyph-name="tcaron" unicode="&#x165;" horiz-adv-x="798" 
d="M486 961h261v-240h-261v-308q0 -155 134 -154q65 0 121 28l6 -4v-257q-86 -39 -234 -39t-240 93t-92 270v371h-159v240h159v231l299 57l6 -3v-285zM829 1504l24 -26l-90 -376h-158l15 402h209z" />
    <glyph glyph-name="Tbar" unicode="&#x166;" horiz-adv-x="1120" 
d="M1091 963h-370v-319h154v-186h-154v-458h-304v458h-171v186h171v319h-387v271h1061v-271z" />
    <glyph glyph-name="tbar" unicode="&#x167;" horiz-adv-x="806" 
d="M747 721h-261v-129h167v-186h-167q4 -147 134 -147q65 0 121 28l6 -4v-257q-86 -39 -234 -39t-240 93t-92 270v56h-157v186h157v129h-159v240h159v231l299 57l6 -3v-285h261v-240z" />
    <glyph glyph-name="Utilde" unicode="&#x168;" horiz-adv-x="1342" 
d="M669 -24q-260 0 -400.5 134t-140.5 385v739h302v-702q0 -302 246 -301q244 0 244 301v702h294v-739q0 -248 -142.5 -383.5t-402.5 -135.5zM544 1612q60 0 134 -28.5t105 -28.5t51.5 18.5t20.5 46.5l5 4l173 -49q0 -108 -63 -177t-166 -69q-45 0 -124 29t-112.5 29
t-54 -20.5t-20.5 -46.5l-3 -4l-175 49q2 106 65 176.5t164 70.5z" />
    <glyph glyph-name="utilde" unicode="&#x169;" horiz-adv-x="1159" 
d="M734 961h305v-961h-248l-30 132q-95 -158 -318 -158q-158 0 -244.5 95t-86.5 261v631h303v-561q0 -166 153 -165q128 0 166 111v615zM454 1400q60 0 136.5 -29.5t111 -29.5t54 19.5t19.5 48.5l5 4l183 -48q0 -115 -66.5 -183.5t-166.5 -68.5q-54 -2 -133 29t-111 31
t-50.5 -18.5t-18.5 -48.5l-7 -6l-181 49q0 101 60.5 176t164.5 75z" />
    <glyph glyph-name="Umacron" unicode="&#x16a;" horiz-adv-x="1342" 
d="M669 -24q-260 0 -400.5 134t-140.5 385v739h302v-702q0 -302 246 -301q244 0 244 301v702h294v-739q0 -248 -142.5 -383.5t-402.5 -135.5zM365 1374v188h611v-188h-611z" />
    <glyph glyph-name="umacron" unicode="&#x16b;" horiz-adv-x="1159" 
d="M734 961h305v-961h-248l-30 132q-95 -158 -318 -158q-158 0 -244.5 95t-86.5 261v631h303v-561q0 -166 153 -165q128 0 166 111v615zM875 1316v-186h-581v186h581z" />
    <glyph glyph-name="Ubreve" unicode="&#x16c;" horiz-adv-x="1342" 
d="M669 -24q-260 0 -400.5 134t-140.5 385v739h302v-702q0 -302 246 -301q244 0 244 301v702h294v-739q0 -248 -142.5 -383.5t-402.5 -135.5zM542 1646q13 -134 131 -134q60 0 98.5 37t42.5 97l173 -19q0 -136 -93.5 -218.5t-224.5 -82.5t-221.5 82.5t-90.5 218.5z" />
    <glyph glyph-name="ubreve" unicode="&#x16d;" horiz-adv-x="1159" 
d="M734 961h305v-961h-248l-30 132q-95 -158 -318 -158q-158 0 -244.5 95t-86.5 261v631h303v-561q0 -166 153 -165q128 0 166 111v615zM586.5 1069q-128.5 0 -217 82.5t-88.5 222.5l181 21l7 -8q4 -54 33.5 -87.5t84.5 -33.5t89.5 34.5t40.5 86.5l5 6l170 -19
q0 -140 -88.5 -222.5t-217 -82.5z" />
    <glyph glyph-name="Uring" unicode="&#x16e;" horiz-adv-x="1342" 
d="M669 -24q-260 0 -400.5 134t-140.5 385v739h302v-702q0 -302 246 -301q244 0 244 301v702h294v-739q0 -248 -142.5 -383.5t-402.5 -135.5zM672 1411q35 0 58.5 23.5t23.5 57t-23.5 56t-58.5 22.5t-57.5 -23.5t-22.5 -56.5t22.5 -56t57.5 -23zM672.5 1281
q-100.5 0 -165 59.5t-64.5 151t64.5 151t165 59.5t165.5 -60.5t65 -150t-65 -150t-165.5 -60.5z" />
    <glyph glyph-name="uring" unicode="&#x16f;" horiz-adv-x="1159" 
d="M734 961h305v-961h-248l-30 132q-95 -158 -318 -158q-158 0 -244.5 95t-86.5 261v631h303v-561q0 -166 153 -165q128 0 166 111v615zM587 1342q-38 0 -63 -24t-25 -60t25 -61.5t63 -25.5t63.5 25t25.5 61.5t-25.5 60.5t-63.5 24zM586.5 1028q-104.5 0 -170.5 66t-66 164
t67 164t170 66t170.5 -66.5t67.5 -164t-67 -163.5t-171.5 -66z" />
    <glyph glyph-name="Uhungarumlaut" unicode="&#x170;" horiz-adv-x="1342" 
d="M669 -24q-260 0 -400.5 134t-140.5 385v739h302v-702q0 -302 246 -301q244 0 244 301v702h294v-739q0 -248 -142.5 -383.5t-402.5 -135.5zM899 1305l-134 54l140 350l201 -54l7 -41zM503 1305l-134 54l139 350l201 -54l6 -41z" />
    <glyph glyph-name="uhungarumlaut" unicode="&#x171;" horiz-adv-x="1159" 
d="M734 961h305v-961h-248l-30 132q-95 -158 -318 -158q-158 0 -244.5 95t-86.5 261v631h303v-561q0 -166 153 -165q128 0 166 111v615zM780 1041l-121 72l164 349l194 -69l3 -39zM661 1354l-240 -313l-121 72l164 349l195 -69z" />
    <glyph glyph-name="Uogonek" unicode="&#x172;" horiz-adv-x="1342" 
d="M920 1234h294v-739q0 -192 -87.5 -318.5t-251.5 -174.5q-132 -84 -132 -190q0 -84 82 -84q24 0 56 6l7 -6v-149q-54 -15 -144 -15t-160 46t-70 133q0 132 138 233q-253 6 -388.5 139t-135.5 380v739h302v-702q0 -302 246 -301q244 0 244 301v702z" />
    <glyph glyph-name="uogonek" unicode="&#x173;" horiz-adv-x="1159" 
d="M734 961h305v-961h-4q-153 -89 -152 -203q0 -84 81 -84q26 0 56 6l8 -6v-149q-54 -15 -144 -15t-160.5 46t-70.5 133q0 156 198 272h-60l-30 132q-95 -158 -318 -158q-158 0 -244.5 95t-86.5 261v631h303v-561q0 -166 153 -165q128 0 166 111v615z" />
    <glyph glyph-name="Wcircumflex" unicode="&#x174;" horiz-adv-x="1796" 
d="M1785 1234l4 -7l-396 -1231h-231l-239 698l-16 73l-21 -73l-238 -698h-237l-415 1231l4 7h320l205 -720l19 -101l24 101l229 707h223l229 -675l28 -122l26 122l192 688h290zM892 1454l-220 -141l-87 115l242 251h136l253 -249l-91 -117z" />
    <glyph glyph-name="wcircumflex" unicode="&#x175;" horiz-adv-x="1511" 
d="M1497 961l4 -8l-324 -953h-213l-191 568l-10 35l-212 -603h-214l-328 953l4 8h302l143 -520l6 -46l11 44l167 522h250l162 -518l13 -54l7 58l144 514h279zM756 1234l-196 -152l-102 98l229 282h140l236 -282l-102 -98z" />
    <glyph glyph-name="Ycircumflex" unicode="&#x176;" horiz-adv-x="1158" 
d="M430 0v482l-437 745l3 7h326l266 -478l261 478h309l2 -7l-428 -749v-478h-302zM354 1307l-88 115l242 252h136l253 -250l-91 -117l-233 141z" />
    <glyph glyph-name="ycircumflex" unicode="&#x177;" horiz-adv-x="1016" 
d="M223 -318q-58 0 -128 11v255l7 4q34 -9 93.5 -9.5t115.5 31.5t82 112l-384 867l4 8h322l196 -535l175 535h303l4 -8l-315 -791l-39 -104q-84 -214 -173 -295t-263 -81zM518 1212l-196 -153l-102 99l229 281h139l237 -281l-103 -99z" />
    <glyph glyph-name="Ydieresis" unicode="&#x178;" horiz-adv-x="1158" 
d="M430 0v482l-437 745l3 7h326l266 -478l261 478h309l2 -7l-428 -749v-478h-302zM813.5 1335q-63.5 0 -107 43.5t-43.5 106t43.5 107.5t107 45t107 -45t43.5 -107t-43.5 -106t-107 -44zM355 1335q-62 0 -106 43.5t-44 106t43.5 107.5t106 45t107 -45t44.5 -107t-44.5 -106
t-106.5 -44z" />
    <glyph glyph-name="Zacute" unicode="&#x179;" horiz-adv-x="1131" 
d="M69 0v102l573 885h-573l-2 247h983v-104l-586 -881h605v-249h-1000zM369 1301l-58 144l383 246l135 -224l-15 -30z" />
    <glyph glyph-name="zacute" unicode="&#x17a;" horiz-adv-x="1001" 
d="M938 240v-240h-871v149l452 564h-448v248h849v-159l-466 -562h484zM754 1223l-415 -186l-90 136l334 294l178 -210z" />
    <glyph glyph-name="Zdotaccent" unicode="&#x17b;" horiz-adv-x="1131" 
d="M69 0v102l573 885h-573l-2 247h983v-104l-586 -881h605v-249h-1000zM560 1322q-72 0 -123.5 50t-51.5 123t51.5 124t123.5 51t123 -51t51 -124t-51 -123t-123 -50z" />
    <glyph glyph-name="zdotaccent" unicode="&#x17c;" horiz-adv-x="1001" 
d="M938 240v-240h-871v149l452 564h-448v248h849v-159l-466 -562h484zM491.5 1078q-74.5 0 -127.5 53t-53 127.5t53 127.5t127.5 53t127.5 -53t53 -127.5t-53 -127.5t-127.5 -53z" />
    <glyph glyph-name="Zcaron" unicode="&#x17d;" horiz-adv-x="1131" 
d="M69 0v102l573 885h-573l-2 247h983v-104l-586 -881h605v-249h-1000zM495 1309l-253 238l91 119l233 -143l220 143l87 -115l-242 -242h-136z" />
    <glyph glyph-name="zcaron" unicode="&#x17e;" horiz-adv-x="1001" 
d="M938 240v-240h-871v149l452 564h-448v248h849v-159l-466 -562h484zM568 1059h-140l-238 283l104 97l205 -151l194 151l102 -97z" />
    <glyph glyph-name="uni018F" unicode="&#x18f;" horiz-adv-x="1401" 
d="M708.5 236q112.5 0 184 68t94.5 201h-551q15 -134 87.5 -201.5t185 -67.5zM1309 614q0 -289 -174 -462.5t-442.5 -173.5t-422 162.5t-156.5 410.5q-2 97 7 160h866q-41 276 -320 276q-130 0 -235.5 -35.5t-222.5 -113.5l-8 5v263q203 156 473 156t446 -150
q88 -76 138.5 -203t50.5 -295z" />
    <glyph glyph-name="uni019D" unicode="&#x19d;" horiz-adv-x="1377" 
d="M942 1234h291v-1234h-133l-661 676h-5v-633q0 -199 -101.5 -306.5t-278.5 -107.5q-80 0 -138 12v244l2 1q35 -6 71 -5q78 0 117 45.5t39 125.5v1182h132l659 -662h6v662z" />
    <glyph glyph-name="Gcaron" unicode="&#x1e6;" horiz-adv-x="1267" 
d="M1175 672v-622q-205 -71 -434 -70q-315 0 -491 162.5t-176 466.5t193 478.5t524 174.5q188 0 334 -54l-2 -290l-8 -2q-143 73 -331 73t-292 -100q-104 -99 -103.5 -273t96.5 -269.5t273 -95.5q65 0 145 19v169h-175v233h447zM782 1309h-136l-253 238l91 119l233 -143
l219 143l88 -115z" />
    <glyph glyph-name="gcaron" unicode="&#x1e7;" horiz-adv-x="1105" 
d="M778 -58q0 39 -42 53q-42 13 -185 25t-173 15q-52 -39 -52 -85t58.5 -64t181.5 -18q212 0 212 74zM529 542q65 0 101.5 27t36.5 77q0 108 -138 108t-138 -108q0 -50 36.5 -77t101.5 -27zM1061 961v-205l-158 2q52 -56 52 -142q0 -127 -111.5 -203t-316.5 -76
q-73 0 -134 11q-9 -13 -9 -24q0 -37 48 -50t238 -28t284 -74.5t94 -188.5q0 -305 -519 -305q-222 0 -349.5 55t-127.5 167t121 195q-69 47 -69 145t121 170q-132 82 -132 232t117.5 234.5t320.5 84.5h530zM605 1080h-140l-238 283l104 97l205 -151l194 151l102 -97z" />
    <glyph glyph-name="uni01EA" unicode="&#x1ea;" horiz-adv-x="1448" 
d="M389 619q0 -172 90.5 -271t245 -99t245.5 99t91 270t-91 271t-245.5 100t-245 -99t-90.5 -271zM801 -190q0 -84 82 -84q26 0 55 6l8 -6v-149q-54 -15 -144.5 -15t-160 46t-69.5 133q0 134 143 237q-268 4 -454.5 171.5t-186.5 466t182.5 472.5t467.5 174
q173 0 318.5 -69.5t239.5 -219.5t94 -368t-115.5 -377t-310.5 -219q-149 -86 -149 -199z" />
    <glyph glyph-name="uni01EB" unicode="&#x1eb;" horiz-adv-x="1185" 
d="M380 480q0 -112 55 -178.5t156.5 -66.5t158 68t56.5 178.5t-56.5 177.5t-157 67t-156.5 -67t-56 -179zM640 -180q0 -92 82 -92q26 0 56 6l8 -6v-149q-54 -15 -144.5 -15t-160.5 46t-70 133q0 130 138 233q-207 11 -344.5 141.5t-137.5 362t147 369.5t374 138t379 -129.5
t152 -375.5q0 -184 -96 -311.5t-258 -174.5q-125 -84 -125 -176z" />
    <glyph glyph-name="Aringacute" unicode="&#x1fa;" horiz-adv-x="1206" 
d="M445 380h300l-127 287l-30 85l-28 -85zM910 0l-74 169h-475l-69 -169h-301l540 1238h134l560 -1238h-315zM596.5 1570q-34.5 0 -57.5 -23.5t-23 -56.5t22 -56t57.5 -23t59 23.5t23.5 57t-23.5 56t-58 22.5zM595.5 1281q-100.5 0 -164.5 59.5t-64 151t64 151t154.5 59.5
t151.5 -41l307 197l135 -223l-15 -30l-337 -103v-11q0 -89 -65.5 -149.5t-166 -60.5z" />
    <glyph glyph-name="aringacute" unicode="&#x1fb;" horiz-adv-x="1091" 
d="M352 289q0 -92 114 -92q54 0 101 29t70 66v82q-57 19 -129 19q-156 0 -156 -104zM356 -24q-141 0 -221.5 80t-80.5 203q0 155 112.5 229t253 74t217.5 -18q-2 99 -55 140.5t-191 41.5t-236 -56l-8 2v246q43 26 133.5 47.5t194.5 21.5q467 0 467 -441v-226q0 -56 52 -56
q30 0 54 17l6 -4v-257q-73 -34 -168 -33q-175 0 -214 138q-119 -149 -316 -149zM498 1342q-38 0 -63 -24t-25 -60t25 -61.5t63 -25.5t63 25t25 61.5t-25 60.5t-63 24zM497 1028q-104 0 -170 66t-66 164t67 164t169 66q58 0 110 -25l249 220l179 -210l-7 -34l-298 -134
q6 -22 5 -46q0 -99 -67 -165t-171 -66z" />
    <glyph glyph-name="AEacute" unicode="&#x1fc;" horiz-adv-x="1617" 
d="M765 469v436l-141 -270l-93 -166h234zM1071 246h459v-246h-765v255h-354l-143 -255h-307l713 1234h840v-247h-443v-229h407v-242h-407v-270zM1223 1439l-445 -136l-57 144l383 245l134 -223z" />
    <glyph glyph-name="aeacute" unicode="&#x1fd;" horiz-adv-x="1640" 
d="M455.5 201q54.5 0 109.5 25t87 59q-19 58 -25 110q-143 -4 -212 -28t-69 -84q0 -35 27.5 -58.5t82 -23.5zM1110 743q-147 0 -177 -179h344q-13 179 -167 179zM1123 987q199 0 322 -116.5t126 -345.5q0 -45 -3 -130h-632q39 -184 226.5 -184.5t334.5 76.5l7 -4v-229
q-147 -80 -359 -80q-268 0 -411 167q-156 -166 -362 -165q-156 0 -240 74.5t-84 197.5q0 220 247 280q132 33 325 36q-15 164 -212 164q-168 0 -268 -56l-6 4v242q39 26 129.5 47.5t201.5 21.5q216 0 330 -108q129 108 328 108zM1076 1223l-415 -186l-89 136l333 294
l179 -210z" />
    <glyph glyph-name="Oslashacute" unicode="&#x1fe;" horiz-adv-x="1448" 
d="M1061 618q0 119 -46 207l-460 -535q71 -41 169 -41q155 0 246 99t91 270zM389 618q0 -117 43 -199l454 534q-74 35 -162 36q-155 0 -245 -99t-90 -272zM1378 1266v-20l-160 -187q158 -173 158 -454t-183.5 -454t-468.5 -173q-199 0 -359 93l-84 -99h-208v24l156 185
q-155 169 -155 451t182.5 456t467.5 174q192 0 350 -87l78 91h226zM970 1437l-445 -136l-58 144l384 246l134 -224z" />
    <glyph glyph-name="oslashacute" unicode="&#x1ff;" horiz-adv-x="1185" 
d="M806 482q0 47 -11 90l-279 -324q32 -13 76 -13q101 0 157.5 67.5t56.5 179.5zM380 482q0 -60 17 -108l284 335q-39 17 -89 17q-101 0 -156.5 -67t-55.5 -177zM1147 1000v-19l-142 -164q114 -132 114 -350t-148 -355.5t-379 -137.5q-147 0 -262 58l-62 -73h-203v26
l125 147q-123 138 -123 358t147 358.5t378 138.5q149 0 272 -60l63 73h220zM856 1223l-415 -186l-89 136l333 294l179 -210z" />
    <glyph glyph-name="Scommaaccent" unicode="&#x218;" horiz-adv-x="992" 
d="M371 -252.5q0 72.5 -8 157.5l233 19l22 -34q0 -190 -106 -355h-173q32 140 32 212.5zM461 -20q-206 0 -370 80v277l8 4q153 -106 329.5 -106t176.5 115q0 54 -40 91t-161 90q-302 125 -302 361q0 181 127 274.5t318 93.5t322 -52v-260l-7 -2q-104 58 -281 60t-177 -97
q0 -43 44.5 -73t172.5 -86.5t208 -147t80 -253.5t-121 -266t-327 -103z" />
    <glyph glyph-name="scommaaccent" unicode="&#x219;" horiz-adv-x="923" 
d="M313 -465q32 140 31.5 212.5t-7.5 157.5l233 19l22 -34q0 -190 -106 -355h-173zM436 -26q-200 0 -358 69v246l8 1q69 -43 163.5 -70.5t174.5 -27.5q145 0 146 72q0 37 -36.5 58t-178 63t-207.5 112.5t-66 178.5q0 141 117.5 226t310.5 85t305 -47v-244l-7 -2
q-108 54 -285 54q-65 0 -106 -16.5t-41 -48t34.5 -49.5t174 -58t206.5 -109t67 -182q0 -147 -111 -229t-311 -82z" />
    <glyph glyph-name="uni021A" unicode="&#x21a;" horiz-adv-x="1107" 
d="M424 -95l233 19l23 -34q0 -190 -107 -355h-173q32 140 32 212t-8 158zM1085 1234v-271h-370v-963h-305v963h-386v271h1061z" />
    <glyph glyph-name="uni021B" unicode="&#x21b;" horiz-adv-x="806" 
d="M389 -253q0 72 -7 158l232 19l23 -34q0 -190 -106 -355h-174q32 140 32 212zM747 721h-261v-308q0 -155 134 -154q65 0 121 28l6 -4v-257q-86 -39 -234 -39t-240 93t-92 270v371h-159v240h159v231l299 57l6 -3v-285h261v-240z" />
    <glyph glyph-name="uni0232" unicode="&#x232;" horiz-adv-x="1158" 
d="M430 0v482l-437 745l3 7h326l266 -478l261 478h309l2 -7l-428 -749v-478h-302zM276 1374v188h610v-188h-610z" />
    <glyph glyph-name="uni0233" unicode="&#x233;" horiz-adv-x="1016" 
d="M223 -318q-58 0 -128 11v255l7 4q34 -9 93.5 -9.5t115.5 31.5t82 112l-384 867l4 8h322l196 -535l175 535h303l4 -8l-315 -791l-39 -104q-84 -214 -173 -295t-263 -81zM810 1316v-186h-581v186h581z" />
    <glyph glyph-name="uni0237" unicode="&#x237;" horiz-adv-x="580" 
d="M67 -318q-54 0 -141 13v262l7 4q30 -7 69 -8q155 0 154 181v827h304v-898q0 -192 -103.5 -286.5t-289.5 -94.5z" />
    <glyph glyph-name="uni0259" unicode="&#x259;" horiz-adv-x="1094" 
d="M534 218q145 0 179 171h-348q16 -171 169 -171zM1028 480q0 -230 -139 -368t-355 -138t-339 115t-124 343q0 45 3 127h639q-39 184 -261 184q-158 0 -312 -97l-6 4v229q150 108 366 108t364 -111q76 -57 120 -158t44 -238z" />
    <glyph glyph-name="uni0272" unicode="&#x272;" horiz-adv-x="1178" 
d="M707 987q162 0 262 -108t100 -293v-586h-304v503q0 190 -167 190q-60 -1 -108 -35t-64 -92v-594q0 -190 -100 -282t-279 -92q-50 0 -125 9v248l4 4q41 -7 55 -8q140 0 140 177v933h248l29 -129q99 155 309 155z" />
    <glyph glyph-name="circumflex" unicode="&#x2c6;" horiz-adv-x="770" 
d="M186 1059l-102 99l229 281h139l237 -281l-103 -99l-204 153z" />
    <glyph glyph-name="caron" unicode="&#x2c7;" horiz-adv-x="770" 
d="M339 964l-251 295l98 102l205 -164l203 164l99 -102l-254 -295h-100z" />
    <glyph glyph-name="breve" unicode="&#x2d8;" horiz-adv-x="700" 
d="M349.5 1069q-128.5 0 -216.5 82.5t-88 222.5l180 21l8 -8q4 -54 33.5 -87.5t84.5 -33.5t89.5 34.5t39.5 86.5l6 6l169 -19q0 -140 -88.5 -222.5t-217 -82.5z" />
    <glyph glyph-name="dotaccent" unicode="&#x2d9;" horiz-adv-x="571" 
d="M286.5 1078q-74.5 0 -127.5 53t-53 127.5t53 127.5t127.5 53t127.5 -53t53 -127.5t-53 -127.5t-127.5 -53z" />
    <glyph glyph-name="ring" unicode="&#x2da;" horiz-adv-x="610" 
d="M286 1171q38 0 63 25t25 61.5t-25 60.5t-63 24t-63.5 -24t-25.5 -60t25.5 -61.5t63.5 -25.5zM285 1028q-104 0 -170.5 66t-66.5 164t67 164t170.5 66t170.5 -66.5t67 -164t-67 -163.5t-171 -66z" />
    <glyph glyph-name="ogonek" unicode="&#x2db;" horiz-adv-x="418" 
d="M270 -436q-90 0 -161 46q-70 46 -70 133q0 158 207 277l178 -3q-156 -89 -156 -205q0 -84 82 -84q26 0 56 6l7 -6v-149q-53 -15 -143 -15z" />
    <glyph glyph-name="tilde" unicode="&#x2dc;" horiz-adv-x="770" 
d="M253 1400q60 0 136 -29.5t111 -29.5t54 19.5t19 48.5l6 4l182 -48q0 -115 -66 -183.5t-166 -68.5q-54 -2 -133 29t-111 31t-50.5 -18.5t-18.5 -48.5l-7 -6l-181 49q0 101 60.5 176t164.5 75z" />
    <glyph glyph-name="hungarumlaut" unicode="&#x2dd;" horiz-adv-x="817" 
d="M531 1041l-121 72l163 349l194 -69l4 -39zM171 1041l-121 72l164 349l196 -69l1 -39z" />
    <glyph glyph-name="gravecomb" unicode="&#x300;" 
d="M-93 1037l-415 186l-8 34l179 210l331 -294z" />
    <glyph glyph-name="acutecomb" unicode="&#x301;" 
d="M-413 1037l-90 136l334 294l178 -210l-7 -34z" />
    <glyph glyph-name="uni0302" unicode="&#x302;" 
d="M-585 1059l-102 99l229 281h140l236 -281l-102 -99l-205 153z" />
    <glyph glyph-name="tildecomb" unicode="&#x303;" 
d="M-518 1400q60 0 136.5 -29.5t111 -29.5t54 19.5t19.5 48.5l5 4l183 -48q0 -115 -66 -183.5t-167 -68.5q-54 -2 -133 29t-111 31t-50.5 -18.5t-18.5 -48.5l-7 -6l-181 49q0 101 60.5 176t164.5 75z" />
    <glyph glyph-name="uni0304" unicode="&#x304;" 
d="M-626 1130v186h581v-186h-581z" />
    <glyph glyph-name="uni0306" unicode="&#x306;" 
d="M-350.5 1069q-128.5 0 -216.5 82.5t-88 222.5l180 21l8 -8q4 -54 33.5 -87.5t84.5 -33.5t89.5 34.5t39.5 86.5l6 6l169 -19q0 -140 -88.5 -222.5t-217 -82.5z" />
    <glyph glyph-name="uni0307" unicode="&#x307;" 
d="M-284.5 1078q-74.5 0 -127.5 53t-53 127.5t53 127.5t127.5 53t127.5 -53t53 -127.5t-53 -127.5t-127.5 -53z" />
    <glyph glyph-name="uni0308" unicode="&#x308;" 
d="M-180.5 1087q-70.5 0 -121 49.5t-50.5 119.5q0 72 50 122t120 50t121.5 -51t51.5 -120t-50.5 -119.5t-121 -50.5zM-614.5 1087q-70.5 0 -121 49.5t-50.5 120t50.5 121t121 50.5t121 -51t50.5 -120t-50.5 -119.5t-121 -50.5z" />
    <glyph glyph-name="uni030A" unicode="&#x30a;" 
d="M-285 1171q39 0 63.5 25t24.5 61.5t-25.5 60.5t-63.5 24t-63 -24t-25 -60t25 -61.5t64 -25.5zM-286.5 1028q-104.5 0 -170.5 66t-66 164t67 164t170 66t170.5 -66.5t67.5 -164t-67 -163.5t-171.5 -66z" />
    <glyph glyph-name="uni030B" unicode="&#x30b;" 
d="M-287 1041l-121 72l164 349l194 -69l3 -39zM-646 1041l-121 72l164 349l195 -69l2 -39z" />
    <glyph glyph-name="uni030C" unicode="&#x30c;" 
d="M-449 1059l-238 283l104 97l205 -151l194 151l102 -97l-227 -283h-140z" />
    <glyph glyph-name="uni0312" unicode="&#x312;" 
d="M-45 1448q-31 -140 -31 -212t7 -158l-233 -19l-22 34q0 190 106 355h173z" />
    <glyph glyph-name="dotbelowcomb" unicode="&#x323;" 
d="M-284.5 -478q-74.5 0 -127.5 53t-53 127.5t53 127.5t127.5 53t127.5 -53t53 -127.5t-53 -127.5t-127.5 -53z" />
    <glyph glyph-name="uni0326" unicode="&#x326;" 
d="M-309 -252.5q0 72.5 -8 157.5l233 19l23 -34q0 -190 -107 -355h-173q32 140 32 212.5z" />
    <glyph glyph-name="uni0327" unicode="&#x327;" 
d="M-236 -452q-93 0 -153 14v123l7 4q37 -13 71 -13q104 0 104 67q2 32 -18.5 46t-58.5 14t-64 -6l-4 8v106l63 91h162l-61 -82q13 2 28 0q175 -15 175 -187q0 -92 -79 -138.5t-172 -46.5z" />
    <glyph glyph-name="uni0328" unicode="&#x328;" 
d="M-190.5 -436q-90.5 0 -160.5 46t-70 133q0 158 207 277l179 -3q-156 -89 -157 -205q0 -84 82 -84q24 0 56 6l7 -6v-149q-53 -15 -143.5 -15z" />
    <glyph glyph-name="uni0335" unicode="&#x335;" 
d="M-691 249v187h630v-187h-630z" />
    <glyph glyph-name="uni0336" unicode="&#x336;" 
d="M-1197 627v188h1158v-188h-1158z" />
    <glyph glyph-name="uni0337" unicode="&#x337;" 
d="M-586 357v215l554 361h10v-214l-555 -362h-9z" />
    <glyph glyph-name="uni0338" unicode="&#x338;" 
d="M-1117 -24v26l860 1015h222v-21l-881 -1020h-201z" />
    <glyph glyph-name="Wgrave" unicode="&#x1e80;" horiz-adv-x="1796" 
d="M1785 1234l4 -7l-396 -1231h-231l-239 698l-16 73l-21 -73l-238 -698h-237l-415 1231l4 7h320l205 -720l19 -101l24 101l229 707h223l229 -675l28 -122l26 122l192 688h290zM1080 1307l-445 136l-15 30l134 223l385 -242z" />
    <glyph glyph-name="wgrave" unicode="&#x1e81;" horiz-adv-x="1511" 
d="M1497 961l4 -8l-324 -953h-213l-191 568l-10 35l-212 -603h-214l-328 953l4 8h302l143 -520l6 -46l11 44l167 522h250l162 -518l13 -54l7 58l144 514h279zM894 1059l-416 187l-7 33l179 210l331 -294z" />
    <glyph glyph-name="Wacute" unicode="&#x1e82;" horiz-adv-x="1796" 
d="M1785 1234l4 -7l-396 -1231h-231l-239 698l-16 73l-21 -73l-238 -698h-237l-415 1231l4 7h320l205 -720l19 -101l24 101l229 707h223l229 -675l28 -122l26 122l192 688h290zM1156 1443l-445 -136l-58 143l384 246l134 -223z" />
    <glyph glyph-name="wacute" unicode="&#x1e83;" horiz-adv-x="1511" 
d="M1497 961l4 -8l-324 -953h-213l-191 568l-10 35l-212 -603h-214l-328 953l4 8h302l143 -520l6 -46l11 44l167 522h250l162 -518l13 -54l7 58l144 514h279zM1022 1246l-415 -187l-89 136l333 294l179 -210z" />
    <glyph glyph-name="Wdieresis" unicode="&#x1e84;" horiz-adv-x="1796" 
d="M1785 1234l4 -7l-396 -1231h-231l-239 698l-16 73l-21 -73l-238 -698h-237l-415 1231l4 7h320l205 -720l19 -101l24 101l229 707h223l229 -675l28 -122l26 122l192 688h290zM1132 1341q-63 0 -107 43.5t-44 105.5t44 107t107 45t107 -44.5t44 -107t-44 -106t-107 -43.5z
M673 1341q-62 0 -106 43.5t-44 105.5t44 107t106 45t107 -44.5t45 -107t-45 -106t-107 -43.5z" />
    <glyph glyph-name="wdieresis" unicode="&#x1e85;" horiz-adv-x="1511" 
d="M1497 961l4 -8l-324 -953h-213l-191 568l-10 35l-212 -603h-214l-328 953l4 8h302l143 -520l6 -46l11 44l167 522h250l162 -518l13 -54l7 58l144 514h279zM977.5 1110q-70.5 0 -121 49t-50.5 120t50.5 121t120 50t121 -51t51.5 -120t-50.5 -119t-121 -50zM543.5 1110
q-70.5 0 -121 49t-50.5 120t50.5 121t121 50t121 -51t50.5 -120t-50.5 -119t-121 -50z" />
    <glyph glyph-name="uni1E9E" unicode="&#x1e9e;" horiz-adv-x="1420" 
d="M1046 365q0 182 -366 132v101l212 394q-41 13 -123 13q-341 0 -341 -344v-661h-303v657q0 138 42.5 247t109.5 176t159 110q162 76 361 76q283 0 460 -78v-101l-211 -350q305 -45 306 -359q0 -192 -117.5 -300t-333.5 -108q-171 0 -305 54v266l7 4q121 -71 255 -71
q188 0 188 142z" />
    <glyph glyph-name="uni1EA0" unicode="&#x1ea0;" horiz-adv-x="1206" 
d="M597.5 -117q74.5 0 127.5 -53t53 -127.5t-53 -127.5t-127.5 -53t-127.5 53t-53 127.5t53 127.5t127.5 53zM445 380h300l-127 287l-30 85l-28 -85zM1225 0h-315l-74 169h-475l-69 -169h-301l540 1238h134z" />
    <glyph glyph-name="uni1EA1" unicode="&#x1ea1;" horiz-adv-x="1091" 
d="M534.5 -117q74.5 0 127.5 -53t53 -127.5t-53 -127.5t-127.5 -53t-127.5 53t-53 127.5t53 127.5t127.5 53zM352 289q0 -92 114 -92q54 0 101 29t70 66v82q-57 19 -129 19q-156 0 -156 -104zM356 -24q-141 0 -221.5 80t-80.5 203q0 155 112.5 229t253 74t217.5 -18
q-2 99 -55 140.5t-191 41.5t-236 -56l-8 2v246q43 26 133.5 47.5t194.5 21.5q467 0 467 -441v-226q0 -56 52 -56q30 0 54 17l6 -4v-257q-73 -34 -168 -33q-175 0 -214 138q-119 -149 -316 -149z" />
    <glyph glyph-name="uni1EB8" unicode="&#x1eb8;" horiz-adv-x="1055" 
d="M579 -117q74 0 127.5 -53t53.5 -127.5t-53.5 -127.5t-127.5 -53t-127.5 53t-53.5 127.5t53.5 127.5t127.5 53zM447 248h519v-248h-821v1234h805v-247h-503v-233h467v-242h-467v-264z" />
    <glyph glyph-name="uni1EB9" unicode="&#x1eb9;" horiz-adv-x="1091" 
d="M588.5 -117q74.5 0 127.5 -53t53 -127.5t-53 -127.5t-127.5 -53t-127.5 53t-53 127.5t53 127.5t127.5 53zM564.5 743q-150.5 0 -184.5 -171h352q-17 171 -167.5 171zM559 987q215 0 339 -119.5t128 -338.5q0 -43 -4 -129h-640q41 -182 275 -182q149 0 298 67l8 -4v-234
q-143 -73 -355 -73q-214 0 -370 112q-78 56 -124.5 158t-46.5 236q0 227 138.5 367t353.5 140z" />
    <glyph glyph-name="uni1EBC" unicode="&#x1ebc;" horiz-adv-x="1055" 
d="M447 248h519v-248h-821v1234h805v-247h-503v-233h467v-242h-467v-264zM434 1612q60 0 134 -28.5t105 -28.5t51.5 18.5t20.5 46.5l5 4l173 -49q0 -108 -63 -177t-166 -69q-45 0 -123.5 29t-112.5 29t-54 -20.5t-20 -46.5l-4 -4l-175 49q2 106 65 176.5t164 70.5z" />
    <glyph glyph-name="uni1EBD" unicode="&#x1ebd;" horiz-adv-x="1091" 
d="M564.5 743q-150.5 0 -184.5 -171h352q-17 171 -167.5 171zM559 987q215 0 339 -119.5t128 -338.5q0 -43 -4 -129h-640q41 -182 275 -182q149 0 298 67l8 -4v-234q-143 -73 -355 -73q-214 0 -370 112q-78 56 -124.5 158t-46.5 236q0 227 138.5 367t353.5 140zM423 1400
q60 0 136 -29.5t110.5 -29.5t54 19.5t19.5 48.5l5 4l183 -48q0 -115 -66 -183.5t-167 -68.5q-54 -2 -133 29t-111 31t-50.5 -18.5t-18.5 -48.5l-7 -6l-181 49q0 101 60.5 176t165.5 75z" />
    <glyph glyph-name="uni1ECA" unicode="&#x1eca;" horiz-adv-x="593" 
d="M297.5 -478q-74.5 0 -127.5 53t-53 127.5t53 127.5t127.5 53t127.5 -53t53 -127.5t-53 -127.5t-127.5 -53zM145 0v1234h304v-1234h-304z" />
    <glyph glyph-name="uni1ECB" unicode="&#x1ecb;" horiz-adv-x="547" 
d="M268.5 -478q-74.5 0 -127.5 53t-53 127.5t53 127.5t127.5 53t127.5 -53t53 -127.5t-53 -127.5t-127.5 -53zM121 0v961h305v-961h-305zM273.5 1078q-74.5 0 -127.5 53t-53 127.5t53 127.5t127.5 53t127.5 -53t53 -127.5t-53 -127.5t-127.5 -53z" />
    <glyph glyph-name="uni1ECC" unicode="&#x1ecc;" horiz-adv-x="1448" 
d="M724.5 -478q-74.5 0 -127.5 53t-53 127.5t53 127.5t127.5 53t127.5 -53t53 -127.5t-53 -127.5t-127.5 -53zM724.5 249q154.5 0 245.5 99t91 270t-91 271t-245.5 100t-245 -99t-90.5 -271t90.5 -271t245 -99zM74 618q0 296 182.5 470t467.5 174q173 0 318.5 -69.5
t239.5 -219.5t94 -355q0 -294 -183.5 -467t-457 -173t-461.5 159q-92 77 -146 202t-54 279z" />
    <glyph glyph-name="uni1ECD" unicode="&#x1ecd;" horiz-adv-x="1185" 
d="M592.5 -478q-74.5 0 -128 53t-53.5 127.5t53.5 127.5t128 53t127.5 -53t53 -127.5t-53 -127.5t-127.5 -53zM591.5 235q101.5 0 158 68t56.5 178.5t-56.5 177.5t-157 67t-156.5 -67t-56 -179t55 -178.5t156.5 -66.5zM596.5 -26q-226.5 0 -378 130.5t-151.5 368.5t147 376
t374 138t379 -129.5t152 -369t-148 -377t-374.5 -137.5z" />
    <glyph glyph-name="uni1EE4" unicode="&#x1ee4;" horiz-adv-x="1342" 
d="M672.5 -478q-74.5 0 -127.5 53t-53 127.5t53 127.5t127.5 53t127.5 -53t53 -127.5t-53 -127.5t-127.5 -53zM669 -24q-260 0 -400.5 134t-140.5 385v739h302v-702q0 -302 246 -301q244 0 244 301v702h294v-739q0 -248 -142.5 -383.5t-402.5 -135.5z" />
    <glyph glyph-name="uni1EE5" unicode="&#x1ee5;" horiz-adv-x="1159" 
d="M586.5 -117q74.5 0 127.5 -53t53 -127.5t-53 -127.5t-127.5 -53t-127.5 53t-53 127.5t53 127.5t127.5 53zM734 961h305v-961h-248l-30 132q-95 -158 -318 -158q-158 0 -244.5 95t-86.5 261v631h303v-561q0 -166 153 -165q128 0 166 111v615z" />
    <glyph glyph-name="Ygrave" unicode="&#x1ef2;" horiz-adv-x="1158" 
d="M430 0v482l-437 745l3 7h326l266 -478l261 478h309l2 -7l-428 -749v-478h-302zM761 1301l-444 136l-15 30l134 224l385 -243z" />
    <glyph glyph-name="ygrave" unicode="&#x1ef3;" horiz-adv-x="1016" 
d="M223 -318q-58 0 -128 11v255l7 4q34 -9 93.5 -9.5t115.5 31.5t82 112l-384 867l4 8h322l196 -535l175 535h303l4 -8l-315 -791l-39 -104q-84 -214 -173 -295t-263 -81zM655 1037l-415 186l-7 34l178 210l332 -294z" />
    <glyph glyph-name="uni1EF8" unicode="&#x1ef8;" horiz-adv-x="1158" 
d="M430 0v482l-437 745l3 7h326l266 -478l261 478h309l2 -7l-428 -749v-478h-302zM454 1612q60 0 134.5 -28.5t105 -28.5t51 18.5t20.5 46.5l6 4l173 -49q0 -108 -63.5 -177t-165.5 -69q-45 0 -124 29t-112.5 29t-54 -20.5t-20.5 -46.5l-4 -4l-175 49q2 106 65.5 176.5
t163.5 70.5z" />
    <glyph glyph-name="uni1EF9" unicode="&#x1ef9;" horiz-adv-x="1016" 
d="M223 -318q-58 0 -128 11v255l7 4q34 -9 93.5 -9.5t115.5 31.5t82 112l-384 867l4 8h322l196 -535l175 535h303l4 -8l-315 -791l-39 -104q-84 -214 -173 -295t-263 -81zM389 1400q60 0 136 -29.5t111 -29.5t54 19.5t19 48.5l6 4l182 -48q0 -115 -66 -183.5t-166 -68.5
q-54 -2 -133.5 29t-111 31t-50 -18.5t-18.5 -48.5l-8 -6l-180 49q0 101 60.5 176t164.5 75z" />
    <glyph glyph-name="endash" unicode="&#x2013;" horiz-adv-x="1029" 
d="M112 395v247h806v-247h-806z" />
    <glyph glyph-name="emdash" unicode="&#x2014;" horiz-adv-x="1647" 
d="M112 395v247h1424v-247h-1424z" />
    <glyph glyph-name="quoteleft" unicode="&#x2018;" horiz-adv-x="454" 
d="M372 1311q-36 -222 -24 -492l-227 -39l-35 43q2 216 128 488h158z" />
    <glyph glyph-name="quoteright" unicode="&#x2019;" horiz-adv-x="444" 
d="M89 780q36 217 25 492l227 39l35 -43q-2 -216 -128 -488h-159z" />
    <glyph glyph-name="quotesinglbase" unicode="&#x201a;" horiz-adv-x="459" 
d="M71 -333q36 222 24 491l227 39l35 -42q-2 -216 -128 -488h-158z" />
    <glyph glyph-name="quotedblleft" unicode="&#x201c;" horiz-adv-x="796" 
d="M713 1311q-36 -222 -24 -492l-227 -39l-36 43q2 216 129 488h158zM372 1311q-36 -222 -24 -492l-227 -39l-35 43q2 216 128 488h158z" />
    <glyph glyph-name="quotedblright" unicode="&#x201d;" horiz-adv-x="787" 
d="M428 780q36 222 24 492l228 39l35 -43q-2 -216 -129 -488h-158zM89 780q36 217 25 492l227 39l35 -43q-2 -216 -128 -488h-159z" />
    <glyph glyph-name="quotedblbase" unicode="&#x201e;" horiz-adv-x="793" 
d="M408 -331q36 222 24 491l227 39l35 -43q-2 -216 -128 -487h-158zM69 -331q36 222 24 491l227 39l36 -43q-2 -216 -129 -487h-158z" />
    <glyph glyph-name="dagger" unicode="&#x2020;" horiz-adv-x="1126" 
d="M659 955l367 43v-283l-328 39l-33 -942h-207l-37 938l-319 -35v283l360 -47l-41 378h283z" />
    <glyph glyph-name="daggerdbl" unicode="&#x2021;" horiz-adv-x="1126" 
d="M423 -182l42 357l-366 -39v281l327 -39l34 197l-37 192l-319 -35v281l360 -43l-41 359h281l-43 -357l367 41v-281l-328 39l-33 -196l35 -193l318 35v-281l-357 43l41 -361h-281z" />
    <glyph glyph-name="bullet" unicode="&#x2022;" horiz-adv-x="768" 
d="M385 201q-110 0 -186 77t-76 186q0 110 77 186t185 76q107 0 185 -76t78 -186t-76 -186q-76 -77 -187 -77z" />
    <glyph glyph-name="ellipsis" unicode="&#x2026;" horiz-adv-x="1325" 
d="M1089 -24q-76 0 -119 44t-43 110t44 113q44 46 119 46t118 -46t43 -113q0 -66 -43 -110t-119 -44zM668 -24q-76 0 -119 44t-43 110t44 113q44 46 119 46t119 -46t42 -113q0 -66 -43 -110t-119 -44zM244 -24q-76 0 -119 44t-43 110t44 113q44 46 119 46t118 -46t43 -113
q0 -66 -43 -110t-119 -44z" />
    <glyph glyph-name="perthousand" unicode="&#x2030;" horiz-adv-x="2219" 
d="M1832 173q116 -1 115 143q1 144 -115 144t-116 -144t116 -143zM1124 173q116 -1 116 143t-116 144t-116 -144t116 -143zM1832 -7q-149 0 -241 81t-92 238t93 244q93 86 241 86t240 -86t92 -243q0 -158 -92 -239t-241 -81zM1124 -7q-148 0 -241 81q-92 81 -92 238t93 244
q92 86 240 86t240 -86t92 -243q0 -158 -92 -239t-240 -81zM391 765q119 -1 119 145t-119 146q-114 0 -114 -146t114 -145zM225 24l853 1186h227l-853 -1186h-227zM394 585q-150 0 -241 82t-92 240t93 244q94 85 241 85t239 -84t92 -244q0 -159 -91 -241t-241 -82z" />
    <glyph glyph-name="guilsinglleft" unicode="&#x2039;" horiz-adv-x="647" 
d="M572 894v-25l-224 -327l225 -352v-19h-279l-242 363l248 360h272z" />
    <glyph glyph-name="guilsinglright" unicode="&#x203a;" horiz-adv-x="647" 
d="M78 171v24l224 328l-226 352v19h280l242 -363l-248 -360h-272z" />
    <glyph glyph-name="fraction" unicode="&#x2044;" horiz-adv-x="277" 
d="M-289 -20l749 1254h220l-751 -1254h-218z" />
    <glyph glyph-name="uni20A8" unicode="&#x20a8;" horiz-adv-x="914" 
d="M817 0h-370l-345 404v199h84q194 0 240 132h-363l38 188h323q-45 121 -238 121h-123l38 190h809l-41 -190h-202q52 -54 67 -121h182l-43 -188h-138q-41 -233 -268 -305l350 -419v-11z" />
    <glyph glyph-name="Euro" unicode="&#x20ac;" horiz-adv-x="1241" 
d="M897 259q125 0 237 50l7 -6l-48 -269q-99 -47 -242 -47q-246 0 -416 136t-206 376h-164l45 281h128q47 229 213 359q167 129 402 129q158 0 288 -37l-50 -267l-6 -1q-88 34 -195 33q-255 0 -324 -216h344l-46 -281h-305q61 -240 338 -240z" />
    <glyph glyph-name="uni20BD" unicode="&#x20bd;" horiz-adv-x="1120" 
d="M482 685h97q209 0 209 166q0 76 -50.5 119t-125 43t-130.5 -4v-324zM618 462h-136v-116h225v-208h-225v-138h-301v138h-147v208h147v116h-147v223h147v549q227 17 398 15q508 -6 510 -387q2 -201 -127.5 -300.5t-343.5 -99.5z" />
    <glyph glyph-name="trademark" unicode="&#x2122;" horiz-adv-x="1617" 
d="M1456 1231l56 -605h-218l-21 242h-1l-103 -242h-139l-101 243h-2l-22 -243h-218l56 605h238l127 -304l121 304h227zM69 1013v218h607v-218h-184v-387h-233v387h-190z" />
    <glyph glyph-name="oneeighth" unicode="&#x215b;" horiz-adv-x="1413" 
d="M957 203q1 -71 103 -71t102 54q0 49 -147 97q-2 0 -4 2q-54 -32 -54 -82zM1070 547q-79 0 -80 -46q0 -22 19 -36q19 -15 53 -27t36 -14q50 30 51 69q0 54 -79 54zM1361 192q0 -93 -79 -151q-80 -58 -222 -58t-220 51t-78 153t107 163q-89 60 -89 154t81 146q81 54 201 54
t201 -46t81 -142t-100 -153q63 -35 90 -75t27 -96zM875 1234h220l-751 -1254h-217zM186 559v404l-145 -34v220l339 102h22v-692h-216z" />
    <glyph glyph-name="threeeighths" unicode="&#x215c;" horiz-adv-x="1539" 
d="M1084 203q0 -71 102 -71t102 54q0 24 -30 47q-31 22 -75 36t-45 16q-54 -32 -54 -82zM1275 493q0 54 -79 54t-79 -46q0 -22 19 -36q19 -15 53 -27t36 -14q50 30 50 69zM1488 192q0 -93 -80 -151t-221 -58q-142 0 -221 51q-78 51 -78 153t108 163q-89 60 -89 154t81 146
q81 54 201 54t201 -46t81 -142t-101 -153q62 -35 90 -75t28 -96zM1004 1234h219l-750 -1254h-218zM596 772q0 -104 -83 -167t-219 -63t-229 37v168l2 1q78 -37 206 -37t127 69q0 56 -80 56h-154v145h137q67 0 68 49q-1 56 -117 56t-178 -28l-2 1v168q102 28 215 28
q285 0 284 -188q0 -84 -70 -140q93 -51 93 -155z" />
    <glyph glyph-name="fiveeighths" unicode="&#x215d;" horiz-adv-x="1537" 
d="M1082 203q0 -71 102 -71t103 54q0 49 -148 97q-2 0 -3 2q-54 -32 -54 -82zM1195 547q-79 0 -80 -46q0 -22 19 -36q19 -15 53 -27t36 -14q50 30 50 69q1 54 -78 54zM1486 192q0 -93 -79 -151t-221 -58t-222 51q-78 51 -78 153t108 163q-89 60 -89 154t81 146q81 54 201 54
t201 -46t81 -142t-101 -153q62 -35 90 -75t28 -96zM1017 1234h219l-750 -1254h-218zM605 789q0 -164 -142 -219q-150 -61 -398 -2v173l2 2q102 -34 212 -34t110 73q0 60 -105 60t-211 -19l-4 4l26 415h471v-171h-305l-6 -82q34 6 84 5q266 0 266 -205z" />
    <glyph glyph-name="seveneighths" unicode="&#x215e;" horiz-adv-x="1441" 
d="M985 203q1 -71 103 -71t102 54q0 49 -147 97q-2 0 -4 2q-54 -32 -54 -82zM1098 547q-79 0 -80 -46q0 -22 19 -36q19 -15 53 -27t36 -14q50 30 51 69q0 54 -79 54zM1389 192q0 -93 -79 -151q-80 -58 -222 -58t-220 51t-78 153t107 163q-89 60 -89 154t81 146q81 54 201 54
t201 -46t81 -142t-100 -153q63 -35 90 -75t27 -96zM896 1234h219l-750 -1254h-218zM45 1050v192h549v-110l-272 -573h-212l-2 3l249 488h-312z" />
    <glyph glyph-name="arrowleft" unicode="&#x2190;" horiz-adv-x="1187" 
d="M1115 732v-265h-592l194 -191l-175 -177l-507 504l505 505l175 -177l-203 -199h603z" />
    <glyph glyph-name="arrowup" unicode="&#x2191;" horiz-adv-x="1187" 
d="M734 30h-267v705l-229 -234l-175 177l535 532l532 -534l-177 -177l-219 223v-692z" />
    <glyph glyph-name="arrowright" unicode="&#x2192;" horiz-adv-x="1187" 
d="M82 467v265h603l-203 199l175 177l505 -505l-507 -504l-175 177l194 191h-592z" />
    <glyph glyph-name="arrowdown" unicode="&#x2193;" horiz-adv-x="1187" 
d="M467 1182h267v-692l219 223l177 -177l-532 -534l-535 532l175 177l229 -234v705z" />
    <glyph glyph-name="uni2196" unicode="&#x2196;" horiz-adv-x="1187" 
d="M1108 285l-186 -188l-542 542l2 -315h-248l-2 754l754 2v-250l-324 2z" />
    <glyph glyph-name="uni2197" unicode="&#x2197;" horiz-adv-x="1187" 
d="M311 1080l754 -2l-2 -754h-248l2 315l-541 -542l-187 188l546 547l-324 -2v250z" />
    <glyph glyph-name="uni2198" unicode="&#x2198;" horiz-adv-x="1187" 
d="M296 114v249l324 -2l-546 548l187 188l541 -542l-1 314h247l2 -754z" />
    <glyph glyph-name="uni2199" unicode="&#x2199;" horiz-adv-x="1187" 
d="M1106 892l-546 -548l324 2v-249l-754 2l2 754h248l-2 -315l542 542z" />
    <glyph glyph-name="minus" unicode="&#x2212;" horiz-adv-x="1079" 
d="M114 443v203h852v-203h-852z" />
    <glyph glyph-name="approxequal" unicode="&#x2248;" horiz-adv-x="1005" 
d="M652 415q71 0 76 67l7 6l161 -32q0 -110 -64 -179t-169 -68q-56 1 -152 33t-139 32q-78 0 -82 -71l-5 -6l-173 25q0 114 65 186t171 70q71 0 163 -32t141 -31zM348 868q71 0 163 -32t141 -32q71 0 76 69l7 6l161 -32q0 -110 -64 -179t-169 -68q-56 0 -152 32t-139 31
q-78 0 -82 -69l-5 -6l-173 25q0 115 65 185t171 70z" />
    <glyph glyph-name="notequal" unicode="&#x2260;" horiz-adv-x="1130" 
d="M1017 650h-256l-104 -224h360v-199h-455l-89 -190h-238l89 190h-210v199h305l104 224h-409v199h504l82 175h238l-82 -175h161v-199z" />
    <glyph glyph-name="uniF8FF" unicode="&#xf8ff;" horiz-adv-x="2701" 
d="M2035 28h13q7 0 7 6t-7 5h-13v-11zM2026 4v43h20q19 0 19 -13t-13 -14l11 -16h-11l-8 16h-9v-16h-9zM2044 -9q34 -1 34 33t-34 34t-33 -34q-1 -33 33 -33zM2044 -19q-45 0 -44 43q0 43 44 43t45 -43q0 -43 -45 -43zM1316 203q0 43 -39 43t-39 -58q0 -26 9 -54q29 0 49 22
t20 47zM1746 203h75q6 50 -32 50q-43 0 -43 -50zM1806 -9q-263 0 -263 227q0 110 61 172q62 62 168 62t163 -56t57 -160q0 -39 -5 -65h-231q20 -33 88 -33t107 22v-140q-43 -29 -145 -29zM1039 -82q0 264 19 525h145q13 -78 13 -141q32 151 149 150q69 0 109 -54t40 -156
q0 -251 -255 -251q2 -28 1 -73h-221zM1009 190q-1 -156 -63 -219q-62 -64 -198 -64t-186 32v154q44 -30 124 -30t101 33q7 10 6 19q-30 -20 -91 -20q-168 0 -168 154v25h-102l6 -121q11 -7 31 -7t30 9v-136q-35 -28 -123 -28q-88 -1 -122 31t-32 103q0 71 5 149h-33v149
l217 54l-1 -34h329v-221q0 -30 6 -40t22 -11q30 0 30 51v221h193q19 -97 19 -253zM2247 694q0 -52 41 -52t41 52t-43 53q-39 -1 -39 -53zM640 694q0 -52 43 -52t43 52t-45 53q-41 -1 -41 -53zM2290 957q225 0 225 -232t-228 -232t-228 232t231 232zM1553 503q0 326 18 445
h149q11 -82 11 -142q5 28 13 56t44 62t103 33q67 0 98 -47t35 -150l5 -257h-212l4 173q0 54 -28 54q-34 0 -34 -54l6 -173h-212zM689 957q231 0 231 -218v-236h-155l-15 113q-22 -123 -139 -123q-171 0 -172 213q0 251 250 251zM938 776v147l222 56l2 -31h331
q19 -119 19 -445h-220q0 171 6 273h-114l6 -121q8 -7 30 -7t31 9v-138q-25 -27 -126 -27q-153 0 -153 122l7 162h-41zM186 503q0 249 17 584h186q19 -372 19 -584h-222zM1400 972q-48 0 -81 34t-33 80q0 47 33 81t81 34t82 -34t34 -82q0 -49 -34 -81t-82 -32z" />
    <glyph glyph-name="Jacute" horiz-adv-x="727" 
d="M140 -6q-58 0 -112 8v253l7 4q32 -6 64 -6q195 0 195 250v731h306v-702q0 -538 -460 -538zM248 1301l-58 144l383 246l134 -224l-14 -30z" />
    <glyph glyph-name="G.002" horiz-adv-x="1267" 
d="M741 -20q-315 0 -491 162.5t-176 466.5t193 478.5t524 174.5q188 0 334 -54l-2 -290l-8 -2q-135 73 -327 73t-296 -100q-104 -99 -103.5 -273t96.5 -269.5t273 -95.5q65 0 145 19v333h270l2 -553q-205 -70 -434 -70z" />
    <glyph glyph-name="M.002" horiz-adv-x="1571" 
d="M1365 1233l113 -1233h-286l-47 596h-6l-299 -590h-103l-303 582h-4l-52 -588h-283l112 1233h177l413 -786l400 786h168z" />
    <glyph glyph-name="i.loclTRK" horiz-adv-x="547" 
d="M121 0v961h305v-961h-305zM273.5 1078q-74.5 0 -127.5 53t-53 127.5t53 127.5t127.5 53t127.5 -53t53 -127.5t-53 -127.5t-127.5 -53z" />
    <glyph glyph-name="jacute" horiz-adv-x="580" 
d="M67 -318q-54 0 -141 13v262l7 4q30 -7 69 -8q155 0 154 181v827h304v-898q0 -192 -103.5 -286.5t-289.5 -94.5zM155 1037l-90 136l333 294l179 -210l-7 -34z" />
    <glyph glyph-name="germandbls.calt" horiz-adv-x="1420" 
d="M1046 365q0 182 -366 132v101l212 396q-41 13 -123 13q-145 0 -243 -81t-98 -265v-661h-303v657q0 138 42.5 247t111.5 176q69 66 161 110q163 78 364 78q287 0 453 -78v-101l-211 -352q136 -20 221 -110.5t85 -267.5t-113 -283t-305.5 -106t-337.5 54v266l7 4
q121 -71 255 -71q188 0 188 142z" />
    <glyph glyph-name="a.ss01" horiz-adv-x="1223" 
d="M562 249q149 0 192 105v324q-63 50 -157 50t-154.5 -70t-60.5 -181t54 -169.5t126 -58.5zM488 -26q-188 0 -304.5 129.5t-116.5 361t138.5 377t351.5 145.5q151 0 245 -69l10 43h246v-641q0 -56 54 -56q30 0 52 15l5 -3v-256q-73 -34 -165 -33q-169 0 -215 127
q-43 -60 -121 -100t-180 -40z" />
    <glyph glyph-name="aacute.ss01" horiz-adv-x="1223" 
d="M562 249q149 0 192 105v324q-63 50 -157 50t-154.5 -70t-60.5 -181t54 -169.5t126 -58.5zM488 -26q-188 0 -304.5 129.5t-116.5 361t138.5 377t351.5 145.5q151 0 245 -69l10 43h246v-641q0 -56 54 -56q30 0 52 15l5 -3v-256q-73 -34 -165 -33q-169 0 -215 127
q-43 -60 -121 -100t-180 -40zM858 1223l-415 -186l-89 136l333 294l179 -210z" />
    <glyph glyph-name="abreve.ss01" horiz-adv-x="1223" 
d="M562 249q149 0 192 105v324q-63 50 -157 50t-154.5 -70t-60.5 -181t54 -169.5t126 -58.5zM488 -26q-188 0 -304.5 129.5t-116.5 361t138.5 377t351.5 145.5q151 0 245 -69l10 43h246v-641q0 -56 54 -56q30 0 52 15l5 -3v-256q-73 -34 -165 -33q-169 0 -215 127
q-43 -60 -121 -100t-180 -40zM595.5 1069q-128.5 0 -217 82.5t-88.5 222.5l181 21l7 -8q4 -54 34 -87.5t85 -33.5t89.5 34.5t39.5 86.5l6 6l169 -19q0 -140 -88.5 -222.5t-217 -82.5z" />
    <glyph glyph-name="acircumflex.ss01" horiz-adv-x="1223" 
d="M562 249q149 0 192 105v324q-63 50 -157 50t-154.5 -70t-60.5 -181t54 -169.5t126 -58.5zM488 -26q-188 0 -304.5 129.5t-116.5 361t138.5 377t351.5 145.5q151 0 245 -69l10 43h246v-641q0 -56 54 -56q30 0 52 15l5 -3v-256q-73 -34 -165 -33q-169 0 -215 127
q-43 -60 -121 -100t-180 -40zM592 1212l-195 -153l-103 99l229 281h140l236 -281l-102 -99z" />
    <glyph glyph-name="adieresis.ss01" horiz-adv-x="1223" 
d="M562 249q149 0 192 105v324q-63 50 -157 50t-154.5 -70t-60.5 -181t54 -169.5t126 -58.5zM488 -26q-188 0 -304.5 129.5t-116.5 361t138.5 377t351.5 145.5q151 0 245 -69l10 43h246v-641q0 -56 54 -56q30 0 52 15l5 -3v-256q-73 -34 -165 -33q-169 0 -215 127
q-43 -60 -121 -100t-180 -40zM813.5 1087q-70.5 0 -121 49.5t-50.5 120t50.5 121t120.5 50.5t121 -51t51 -120t-50.5 -119.5t-121 -50.5zM380 1087q-71 0 -121 49.5t-50 120t50 121t121 50.5t121 -51t50 -120t-50 -119.5t-121 -50.5z" />
    <glyph glyph-name="uni1EA1.ss01" horiz-adv-x="1223" 
d="M620 -117q74 0 127.5 -53t53.5 -127.5t-53.5 -127.5t-127.5 -53t-127.5 53t-53.5 127.5t53.5 127.5t127.5 53zM562 249q149 0 192 105v324q-63 50 -157 50t-154.5 -70t-60.5 -181t54 -169.5t126 -58.5zM488 -26q-188 0 -304.5 129.5t-116.5 361t138.5 377t351.5 145.5
q151 0 245 -69l10 43h246v-641q0 -56 54 -56q30 0 52 15l5 -3v-256q-73 -34 -165 -33q-169 0 -215 127q-43 -60 -121 -100t-180 -40z" />
    <glyph glyph-name="agrave.ss01" horiz-adv-x="1223" 
d="M562 249q149 0 192 105v324q-63 50 -157 50t-154.5 -70t-60.5 -181t54 -169.5t126 -58.5zM488 -26q-188 0 -304.5 129.5t-116.5 361t138.5 377t351.5 145.5q151 0 245 -69l10 43h246v-641q0 -56 54 -56q30 0 52 15l5 -3v-256q-73 -34 -165 -33q-169 0 -215 127
q-43 -60 -121 -100t-180 -40zM730 1037l-415 186l-8 34l179 210l331 -294z" />
    <glyph glyph-name="amacron.ss01" horiz-adv-x="1223" 
d="M562 249q149 0 192 105v324q-63 50 -157 50t-154.5 -70t-60.5 -181t54 -169.5t126 -58.5zM488 -26q-188 0 -304.5 129.5t-116.5 361t138.5 377t351.5 145.5q151 0 245 -69l10 43h246v-641q0 -56 54 -56q30 0 52 15l5 -3v-256q-73 -34 -165 -33q-169 0 -215 127
q-43 -60 -121 -100t-180 -40zM884 1316v-186h-581v186h581z" />
    <glyph glyph-name="aogonek.ss01" horiz-adv-x="1223" 
d="M562 249q149 0 192 105v324q-63 50 -157 50t-154.5 -70t-60.5 -181t54 -169.5t126 -58.5zM1009 -186q0 -84 82 -84q26 0 56 6l7 -6v-149q-54 -15 -144 -15t-160 45.5t-70 133.5q0 141 158 248q-114 20 -149 121q-43 -60 -121 -100t-180 -40q-188 0 -304.5 129.5
t-116.5 361t138.5 377t351.5 145.5q151 0 245 -69l10 43h246v-641q0 -56 54 -56q30 0 52 15l5 -3v-256l-2 -1h-2q-156 -89 -156 -205z" />
    <glyph glyph-name="aring.ss01" horiz-adv-x="1223" 
d="M562 249q149 0 192 105v324q-63 50 -157 50t-154.5 -70t-60.5 -181t54 -169.5t126 -58.5zM488 -26q-188 0 -304.5 129.5t-116.5 361t138.5 377t351.5 145.5q151 0 245 -69l10 43h246v-641q0 -56 54 -56q30 0 52 15l5 -3v-256q-73 -34 -165 -33q-169 0 -215 127
q-43 -60 -121 -100t-180 -40zM597 1342q-38 0 -63.5 -24t-25.5 -60t25.5 -61.5t64.5 -25.5t63 25t24 61.5t-25 60.5t-63 24zM596 1028q-104 0 -170.5 66t-66.5 164t67 164t170.5 66t170.5 -66.5t67 -164t-67 -163.5t-171 -66z" />
    <glyph glyph-name="aringacute.ss01" horiz-adv-x="1223" 
d="M562 249q149 0 192 105v324q-63 50 -157 50t-154.5 -70t-60.5 -181t54 -169.5t126 -58.5zM488 -26q-188 0 -304.5 129.5t-116.5 361t138.5 377t351.5 145.5q151 0 245 -69l10 43h246v-641q0 -56 54 -56q30 0 52 15l5 -3v-256q-73 -34 -165 -33q-169 0 -215 127
q-43 -60 -121 -100t-180 -40zM597 1342q-38 0 -63.5 -24t-25.5 -60t25.5 -61.5t64.5 -25.5t63 25t24 61.5t-25 60.5t-63 24zM596 1028q-104 0 -170.5 66t-66.5 164t67 164t170 66q58 0 110 -25l249 220l179 -210l-8 -34l-297 -134q6 -22 5 -46q0 -99 -67 -165t-171 -66z" />
    <glyph glyph-name="atilde.ss01" horiz-adv-x="1223" 
d="M562 249q149 0 192 105v324q-63 50 -157 50t-154.5 -70t-60.5 -181t54 -169.5t126 -58.5zM488 -26q-188 0 -304.5 129.5t-116.5 361t138.5 377t351.5 145.5q151 0 245 -69l10 43h246v-641q0 -56 54 -56q30 0 52 15l5 -3v-256q-73 -34 -165 -33q-169 0 -215 127
q-43 -60 -121 -100t-180 -40zM464 1400q60 0 136 -29.5t110.5 -29.5t54 19.5t19.5 48.5l5 4l183 -48q0 -115 -66 -183.5t-167 -68.5q-54 -2 -133 29t-111 31t-50.5 -18.5t-18.5 -48.5l-7 -6l-181 49q0 101 60.5 176t165.5 75z" />
    <glyph glyph-name="d.ss01" horiz-adv-x="1225" 
d="M562 249q149 0 192 105v335q-65 39 -158.5 39t-153.5 -66t-60 -182.5t54 -173.5t126 -57zM490 -26q-186 0 -303.5 125.5t-117.5 360t138.5 381t354.5 146.5q114 0 192 -32v367h305v-1002q0 -56 56 -56q29 0 49 17l7 -4l-2 -257q-73 -34 -165 -33q-169 0 -215 125
q-43 -60 -121 -99t-178 -39z" />
    <glyph glyph-name="dcaron.ss01" horiz-adv-x="1310" 
d="M562 249q149 0 192 105v335q-65 39 -158.5 39t-153.5 -66t-60 -182.5t54 -173.5t126 -57zM1112 264q28 0 53 17l6 -4l-2 -257q-73 -34 -165 -33q-169 0 -215 125q-43 -60 -121 -99t-178 -39q-186 0 -303.5 125.5t-117.5 360t138.5 381t354.5 146.5q114 0 192 -32v367h305
v-1002q1 -56 53 -56zM1368 1329l25 -26l-84 -432h-162l13 458h208z" />
    <glyph glyph-name="dcroat.ss01" horiz-adv-x="1225" 
d="M595.5 728q-93.5 0 -153.5 -66t-60 -182.5t54 -173.5t126.5 -57t122 28.5t69.5 76.5v335q-65 39 -158.5 39zM1059 1054v-734q0 -56 56 -56q28 0 49 17l7 -4l-2 -257q-73 -34 -165 -33q-169 0 -215 125q-43 -60 -121 -99t-178 -39q-186 0 -303.5 125.5t-117.5 360
t138.5 381t354.5 146.5q114 0 192 -32v99h-190v186h190v82h305v-82h134v-186h-134z" />
    <glyph glyph-name="g.ss01" horiz-adv-x="1178" 
d="M592 728q-95 0 -152.5 -57t-57.5 -155.5t52 -151.5t138 -53q139 0 184 110v260q-69 47 -164 47zM1061 983v-830q0 -231 -151.5 -353t-382.5 -122t-400 69v259l7 3q151 -88 321 -87.5t235.5 52.5t65.5 169q-93 -84 -253 -83q-203 0 -318.5 115t-115.5 333t139.5 348.5
t326 130.5t290.5 -80l28 76h208z" />
    <glyph glyph-name="gbreve.ss01" horiz-adv-x="1178" 
d="M592 728q-95 0 -152.5 -57t-57.5 -155.5t52 -151.5t138 -53q139 0 184 110v260q-69 47 -164 47zM1061 983v-830q0 -231 -151.5 -353t-382.5 -122t-400 69v259l7 3q151 -88 321 -87.5t235.5 52.5t65.5 169q-93 -84 -253 -83q-203 0 -318.5 115t-115.5 333t139.5 348.5
t326 130.5t290.5 -80l28 76h208zM561.5 1069q-128.5 0 -216.5 82.5t-88 222.5l181 21l7 -8q4 -54 33.5 -87.5t84.5 -33.5t89.5 34.5t40.5 86.5l5 6l170 -19q0 -140 -89 -222.5t-217.5 -82.5z" />
    <glyph glyph-name="gcaron.ss01" horiz-adv-x="1178" 
d="M592 728q-95 0 -152.5 -57t-57.5 -155.5t52 -151.5t138 -53q139 0 184 110v260q-69 47 -164 47zM1061 983v-830q0 -231 -151.5 -353t-382.5 -122t-400 69v259l7 3q151 -88 321 -87.5t235.5 52.5t65.5 169q-93 -84 -253 -83q-203 0 -318.5 115t-115.5 333t139.5 348.5
t326 130.5t290.5 -80l28 76h208zM639 1059h-140l-238 283l104 97l205 -151l193 151l103 -97z" />
    <glyph glyph-name="gcircumflex.ss01" horiz-adv-x="1178" 
d="M592 728q-95 0 -152.5 -57t-57.5 -155.5t52 -151.5t138 -53q139 0 184 110v260q-69 47 -164 47zM1061 983v-830q0 -231 -151.5 -353t-382.5 -122t-400 69v259l7 3q151 -88 321 -87.5t235.5 52.5t65.5 169q-93 -84 -253 -83q-203 0 -318.5 115t-115.5 333t139.5 348.5
t326 130.5t290.5 -80l28 76h208zM559 1212l-196 -153l-102 99l229 281h139l237 -281l-103 -99z" />
    <glyph glyph-name="gcommaaccent.ss01" horiz-adv-x="1178" 
d="M592 728q-95 0 -152.5 -57t-57.5 -155.5t52 -151.5t138 -53q139 0 184 110v260q-69 47 -164 47zM1061 983v-830q0 -231 -151.5 -353t-382.5 -122t-400 69v259l7 3q151 -88 321 -87.5t235.5 52.5t65.5 169q-93 -84 -253 -83q-203 0 -318.5 115t-115.5 333t139.5 348.5
t326 130.5t290.5 -80l28 76h208zM687 1214q0 -72 7 -158l-232 -19l-23 34q0 190 107 355h173q-32 -140 -32 -212z" />
    <glyph glyph-name="gdotaccent.ss01" horiz-adv-x="1178" 
d="M592 728q-95 0 -152.5 -57t-57.5 -155.5t52 -151.5t138 -53q139 0 184 110v260q-69 47 -164 47zM1061 983v-830q0 -231 -151.5 -353t-382.5 -122t-400 69v259l7 3q151 -88 321 -87.5t235.5 52.5t65.5 169q-93 -84 -253 -83q-203 0 -318.5 115t-115.5 333t139.5 348.5
t326 130.5t290.5 -80l28 76h208zM562.5 1078q-74.5 0 -127.5 53t-53 127.5t53 127.5t127.5 53t127.5 -53t53 -127.5t-53 -127.5t-127.5 -53z" />
    <glyph glyph-name="l.ss01" horiz-adv-x="616" 
d="M443 -20q-164 0 -247.5 77t-83.5 250v1015h305v-944q0 -127 95 -127q34 0 67 15l7 -2v-262q-76 -22 -143 -22z" />
    <glyph glyph-name="lacute.ss01" horiz-adv-x="616" 
d="M443 -20q-164 0 -247.5 77t-83.5 250v1015h305v-944q0 -127 95 -127q34 0 67 15l7 -2v-262q-76 -22 -143 -22zM74 1387l-57 143l383 246l134 -223l-15 -30z" />
    <glyph glyph-name="lcaron.ss01" horiz-adv-x="668" 
d="M443 -20q-164 0 -247.5 77t-83.5 250v1015h305v-944q0 -127 95 -127q39 0 71 15l3 -2v-262q-76 -22 -143 -22zM518 871l13 458h208l24 -26l-83 -432h-162z" />
    <glyph glyph-name="lcommaaccent.ss01" horiz-adv-x="616" 
d="M235 -252.5q0 72.5 -8 157.5l233 19l22 -34q0 -190 -106 -355h-173q32 140 32 212.5zM443 -20q-164 0 -247.5 77t-83.5 250v1015h305v-944q0 -127 95 -127q34 0 67 15l7 -2v-262q-76 -22 -143 -22z" />
    <glyph glyph-name="ldot.ss01" horiz-adv-x="832" 
d="M686 512q-79 0 -121 42t-42 108t42 110.5t121 44.5t121 -44.5t42 -110.5t-42 -108t-121 -42zM443 -20q-164 0 -247.5 77t-83.5 250v1015h305v-944q0 -127 95 -127q39 0 71 15l3 -2v-262q-76 -22 -143 -22z" />
    <glyph glyph-name="lslash.ss01" horiz-adv-x="716" 
d="M506 -20q-162 0 -246.5 77t-84.5 250v142l-114 -75h-9v214l123 80v654h305v-454l127 82h9v-215l-136 -89v-268q0 -127 95 -127q39 0 71 15l4 -2v-262q-76 -22 -144 -22z" />
    <glyph glyph-name="y.ss01" horiz-adv-x="1022" 
d="M1015 961l2 -8l-524 -1258h-314l-4 5l197 393l-357 860l2 8h322l180 -550l190 550h306z" />
    <glyph glyph-name="yacute.ss01" horiz-adv-x="1022" 
d="M1015 961l2 -8l-524 -1258h-314l-4 5l197 393l-357 860l2 8h322l180 -550l190 550h306zM786 1223l-415 -186l-90 136l333 294l179 -210z" />
    <glyph glyph-name="ycircumflex.ss01" horiz-adv-x="1022" 
d="M1015 961l2 -8l-524 -1258h-314l-4 5l197 393l-357 860l2 8h322l180 -550l190 550h306zM519 1212l-195 -153l-102 99l229 281h139l237 -281l-103 -99z" />
    <glyph glyph-name="ydieresis.ss01" horiz-adv-x="1022" 
d="M1015 961l2 -8l-524 -1258h-314l-4 5l197 393l-357 860l2 8h322l180 -550l190 550h306zM741 1087q-71 0 -121 49.5t-50 120t50 121t121 50.5t121 -51t50 -120t-50 -119.5t-121 -50.5zM307 1087q-71 0 -121 49.5t-50 120t50 121t120 50.5t121 -51t51 -120t-50 -119.5
t-121 -50.5z" />
    <glyph glyph-name="ygrave.ss01" horiz-adv-x="1022" 
d="M1015 961l2 -8l-524 -1258h-314l-4 5l197 393l-357 860l2 8h322l180 -550l190 550h306zM657 1037l-415 186l-7 34l178 210l332 -294z" />
    <glyph glyph-name="uni1EF9.ss01" horiz-adv-x="1022" 
d="M1015 961l2 -8l-524 -1258h-314l-4 5l197 393l-357 860l2 8h322l180 -550l190 550h306zM391 1400q60 0 136 -29.5t110.5 -29.5t54 19.5t19.5 48.5l6 4l182 -48q0 -115 -66 -183.5t-166 -68.5q-54 -2 -133.5 29t-111.5 31t-50 -18.5t-18 -48.5l-8 -6l-180 49
q0 101 60.5 176t164.5 75z" />
    <glyph glyph-name="g.ss02" horiz-adv-x="1024" 
d="M497 549q145 0 145 107t-144 107t-144 -108q0 -50 37 -78t106 -28zM974 -22q0 -300 -479 -300q-279 0 -439 73v225l7 2q201 -88 427 -88q106 0 148 13t42 46t-33 44t-190 24t-247.5 59.5t-90.5 149.5t104 171q-153 86 -152 262q0 149 116 237.5t310 88.5q95 0 171 -22
l164 197l188 -188l-160 -127q63 -78 63 -186q0 -153 -116 -238.5t-310 -85.5q-32 0 -84 4q-17 -11 -16 -30q0 -28 47 -38t213 -25q317 -30 317 -268z" />
    <glyph glyph-name="gbreve.ss02" horiz-adv-x="1024" 
d="M497 549q145 0 145 107t-144 107t-144 -108q0 -50 37 -78t106 -28zM974 -22q0 -300 -479 -300q-279 0 -439 73v225l7 2q201 -88 427 -88q106 0 148 13t42 46t-33 44t-190 24t-247.5 59.5t-90.5 149.5t104 171q-153 86 -152 262q0 149 116 237.5t310 88.5q95 0 171 -22
l164 197l188 -188l-160 -127q63 -78 63 -186q0 -153 -116 -238.5t-310 -85.5q-32 0 -84 4q-17 -11 -16 -30q0 -28 47 -38t213 -25q317 -30 317 -268zM479.5 1089q-128.5 0 -216.5 83t-88 223l181 20l7 -7q4 -54 33.5 -87.5t84.5 -33.5t89.5 34t40.5 87l5 5l170 -18
q0 -140 -89 -223t-217.5 -83z" />
    <glyph glyph-name="gcaron.ss02" horiz-adv-x="1024" 
d="M497 549q145 0 145 107t-144 107t-144 -108q0 -50 37 -78t106 -28zM974 -22q0 -300 -479 -300q-279 0 -439 73v225l7 2q201 -88 427 -88q106 0 148 13t42 46t-33 44t-190 24t-247.5 59.5t-90.5 149.5t104 171q-153 86 -152 262q0 149 116 237.5t310 88.5q95 0 171 -22
l164 197l188 -188l-160 -127q63 -78 63 -186q0 -153 -116 -238.5t-310 -85.5q-32 0 -84 4q-17 -11 -16 -30q0 -28 47 -38t213 -25q317 -30 317 -268zM557 1080h-140l-238 283l104 97l205 -151l193 151l103 -97z" />
    <glyph glyph-name="gcircumflex.ss02" horiz-adv-x="1024" 
d="M497 549q145 0 145 107t-144 107t-144 -108q0 -50 37 -78t106 -28zM974 -22q0 -300 -479 -300q-279 0 -439 73v225l7 2q201 -88 427 -88q106 0 148 13t42 46t-33 44t-190 24t-247.5 59.5t-90.5 149.5t104 171q-153 86 -152 262q0 149 116 237.5t310 88.5q95 0 171 -22
l164 197l188 -188l-160 -127q63 -78 63 -186q0 -153 -116 -238.5t-310 -85.5q-32 0 -84 4q-17 -11 -16 -30q0 -28 47 -38t213 -25q317 -30 317 -268zM477 1233l-196 -153l-102 99l229 281h139l237 -281l-103 -99z" />
    <glyph glyph-name="gcommaaccent.ss02" horiz-adv-x="1024" 
d="M497 549q145 0 145 107t-144 107t-144 -108q0 -50 37 -78t106 -28zM974 -22q0 -300 -479 -300q-279 0 -439 73v225l7 2q201 -88 427 -88q106 0 148 13t42 46t-33 44t-190 24t-247.5 59.5t-90.5 149.5t104 171q-153 86 -152 262q0 149 116 237.5t310 88.5q95 0 171 -22
l164 197l188 -188l-160 -127q63 -78 63 -186q0 -153 -116 -238.5t-310 -85.5q-32 0 -84 4q-17 -11 -16 -30q0 -28 47 -38t213 -25q317 -30 317 -268zM613 1076l-233 -18l-23 33q0 190 107 356h173q-32 -140 -31.5 -212.5t7.5 -158.5z" />
    <glyph glyph-name="gdotaccent.ss02" horiz-adv-x="1024" 
d="M497 549q145 0 145 107t-144 107t-144 -108q0 -50 37 -78t106 -28zM974 -22q0 -300 -479 -300q-279 0 -439 73v225l7 2q201 -88 427 -88q106 0 148 13t42 46t-33 44t-190 24t-247.5 59.5t-90.5 149.5t104 171q-153 86 -152 262q0 149 116 237.5t310 88.5q95 0 171 -22
l164 197l188 -188l-160 -127q63 -78 63 -186q0 -153 -116 -238.5t-310 -85.5q-32 0 -84 4q-17 -11 -16 -30q0 -28 47 -38t213 -25q317 -30 317 -268zM480.5 1098q-74.5 0 -127.5 53.5t-53 128t53 127.5t127.5 53t127.5 -53t53 -127.5t-53 -128t-127.5 -53.5z" />
    <glyph glyph-name="f_t" horiz-adv-x="1428" 
d="M1370 678h-262v-265q0 -155 134 -154q60 0 125 26l3 -2v-257q-88 -39 -236 -39t-239 93q-92 93 -93 270v328h-312v-678h-304v678h-132v240h132q2 195 109 306t273 111q95 0 143 -13v-264l-4 -2q-28 9 -89 9q-127 0 -128 -147h312v233l300 57l6 -3v-287h262v-240z" />
    <glyph glyph-name="f_y" horiz-adv-x="1621" 
d="M830 -318q-58 0 -128 11v255l4 2q22 -8 88 -8q158 -1 204 144l-261 584h-247v-670h-304v670h-132v237h132v5q0 199 110 311t285 112q97 0 151 -17v-264l-8 -4q-30 15 -93 15q-141 0 -141 -153v-5h471l175 -481l175 535h305l2 -8l-354 -895q-84 -214 -172 -295t-262 -81z
" />
    <glyph glyph-name="t_t" horiz-adv-x="1511" 
d="M1454 721h-262v-308q0 -155 134 -154q60 0 124 26l4 -2v-257q-88 -39 -236 -39t-240 93t-92 270v371h-400v-308q0 -155 134 -154q65 0 121 28l6 -4v-257q-86 -39 -234 -39t-240 93t-92 270v371h-159v240h159v231l299 57l6 -3v-285h400v231l300 57l6 -3v-285h262v-240z
" />
    <glyph glyph-name="L_periodcentered_L.loclCAT" horiz-adv-x="1908" 
d="M616 702q0 66 42 110t121 44t121 -44t42 -110q0 -67 -42 -109t-121 -42t-121 42t-42 109zM1413 251h477v-251h-778v1234h301v-983zM445 1234v-983h478v-251h-778v1234h300z" />
    <glyph glyph-name="l_periodcentered_l.loclCAT" horiz-adv-x="1379" 
d="M691 529q-80 0 -122 42t-42 109t42 110.5t121 43.5t122 -43.5t43 -109.5t-42 -109t-122 -43zM953 0v1322h306v-1322h-306zM121 0v1322h305v-1322h-305z" />
    <glyph glyph-name="l_periodcentered_l.loclCAT.ss01" horiz-adv-x="1446" 
d="M686 525q-79 0 -121 41t-42 108t42 111.5t121 44.5t121 -44.5t42 -111.5t-42 -108t-121 -41zM1273 -20q-164 0 -247.5 77t-83.5 250v1015h305v-944q0 -127 95 -127q34 0 67 15l8 -2v-262q-77 -22 -144 -22zM443 -20q-164 0 -247.5 77t-83.5 250v1015h305v-944
q0 -127 95 -127q34 0 67 15l7 -2v-262q-76 -22 -143 -22z" />
    <glyph glyph-name="germandbls.smcp.calt" horiz-adv-x="1262" 
d="M843.5 -20q-165.5 0 -303.5 48v235l6 1q117 -74 243 -74q58 0 92.5 28t34.5 78q0 108 -160 108q-41 0 -121 -9l-4 78l136 257q-34 11 -87 11q-119 0 -193 -59.5t-74 -193.5v-488h-303v497q0 121 38 214t98 149q163 151 497 151q217 0 372 -73v-76l-145 -268
q99 -20 165 -89t66 -210.5t-96 -228t-261.5 -86.5z" />
    <glyph glyph-name="a.smcp" horiz-adv-x="1120" 
d="M438 363h229l-116 365l-108 -350zM801 0l-69 184h-360l-67 -184h-299l398 987h302l420 -987h-325z" />
    <glyph glyph-name="aacute.smcp" horiz-adv-x="1120" 
d="M438 363h229l-116 365l-108 -350zM801 0l-69 184h-360l-67 -184h-299l398 987h302l420 -987h-325zM815 1249l-415 -186l-89 136l333 294l179 -210z" />
    <glyph glyph-name="abreve.smcp" horiz-adv-x="1120" 
d="M438 363h229l-116 365l-108 -350zM801 0l-69 184h-360l-67 -184h-299l398 987h302l420 -987h-325zM552.5 1095q-128.5 0 -216.5 82.5t-88 222.5l180 21l8 -8q4 -54 33.5 -87.5t84.5 -33.5t89.5 34.5t39.5 86.5l6 6l169 -19q0 -140 -88.5 -222.5t-217 -82.5z" />
    <glyph glyph-name="acircumflex.smcp" horiz-adv-x="1120" 
d="M438 363h229l-116 365l-108 -350zM801 0l-69 184h-360l-67 -184h-299l398 987h302l420 -987h-325zM549 1238l-195 -153l-103 99l229 281h140l236 -281l-102 -99z" />
    <glyph glyph-name="adieresis.smcp" horiz-adv-x="1120" 
d="M438 363h229l-116 365l-108 -350zM801 0l-69 184h-360l-67 -184h-299l398 987h302l420 -987h-325zM771 1113q-71 0 -121 49.5t-50 120.5t50 121t121 50t121 -51t50 -120t-50 -119.5t-121 -50.5zM337 1113q-71 0 -121 49.5t-50 120.5t50 121t120 50t121 -51t51 -120
t-50 -119.5t-121 -50.5z" />
    <glyph glyph-name="uni1EA1.smcp" horiz-adv-x="1120" 
d="M560.5 -117q74.5 0 127.5 -53t53 -127.5t-53 -127.5t-127.5 -53t-127.5 53t-53 127.5t53 127.5t127.5 53zM438 363h229l-116 365l-108 -350zM706 987l420 -987h-325l-69 184h-360l-67 -184h-299l398 987h302z" />
    <glyph glyph-name="agrave.smcp" horiz-adv-x="1120" 
d="M438 363h229l-116 365l-108 -350zM801 0l-69 184h-360l-67 -184h-299l398 987h302l420 -987h-325zM687 1063l-415 186l-8 34l179 210l332 -294z" />
    <glyph glyph-name="amacron.smcp" horiz-adv-x="1120" 
d="M438 363h229l-116 365l-108 -350zM801 0l-69 184h-360l-67 -184h-299l398 987h302l420 -987h-325zM842 1342v-186h-581v186h581z" />
    <glyph glyph-name="aogonek.smcp" horiz-adv-x="1120" 
d="M438 363h229l-116 365l-108 -350zM979 -283q26 0 56 6l8 -6v-149q-54 -15 -144.5 -15t-160.5 45.5t-70 133.5q0 153 192 268h-59l-69 184h-360l-67 -184h-299l398 987h302l420 -987h-82q-147 -88 -147 -199q0 -84 82 -84z" />
    <glyph glyph-name="aring.smcp" horiz-adv-x="1120" 
d="M438 363h229l-116 365l-108 -350zM801 0l-69 184h-360l-67 -184h-299l398 987h302l420 -987h-325zM554 1368q-38 0 -63.5 -24t-25.5 -60t25.5 -61.5t63.5 -25.5t63 25t25 61.5t-25 60.5t-63 24zM553 1054q-104 0 -170 66t-66 164t67 164t170 66t170 -66.5t67 -164
t-67 -163.5t-171 -66z" />
    <glyph glyph-name="aringacute.smcp" horiz-adv-x="1120" 
d="M438 363h229l-116 365l-108 -350zM801 0l-69 184h-360l-67 -184h-299l398 987h302l420 -987h-325zM554 1368q-38 0 -63.5 -24t-25.5 -60t25.5 -61.5t63.5 -25.5t63 25t25 61.5t-25 60.5t-63 24zM553 1054q-104 0 -170 66t-66 164t67 164t153.5 66t140.5 -32l245 216
l179 -210l-7 -34l-306 -138q2 -9 2 -31q0 -99 -67 -165t-171 -66z" />
    <glyph glyph-name="atilde.smcp" horiz-adv-x="1120" 
d="M438 363h229l-116 365l-108 -350zM801 0l-69 184h-360l-67 -184h-299l398 987h302l420 -987h-325zM421 1426q60 0 136 -29.5t110.5 -29.5t54 19.5t19.5 48.5l6 4l182 -48q0 -115 -66 -183.5t-167 -68.5q-54 -2 -133 29t-111 31t-50 -18.5t-18 -48.5l-8 -6l-181 49
q0 101 61 176t165 75z" />
    <glyph glyph-name="ae.smcp" horiz-adv-x="1470" 
d="M696 380v389h-3l-203 -389h206zM1396 987v-220h-415v-166h384v-201h-384v-182h427v-218h-712v201h-301l-110 -201h-300l531 987h880z" />
    <glyph glyph-name="aeacute.smcp" horiz-adv-x="1470" 
d="M696 380v389h-3l-203 -389h206zM1396 987v-220h-415v-166h384v-201h-384v-182h427v-218h-712v201h-301l-110 -201h-300l531 987h880zM721 1063l-90 136l333 294l179 -210l-7 -34z" />
    <glyph glyph-name="b.smcp" horiz-adv-x="1027" 
d="M531 179q153 0 152 121q0 61 -40 93.5t-109 32.5h-123v-244q64 -3 120 -3zM411 592h112q60 0 95 29t35 83q0 110 -145 110q-73 0 -97 -4v-218zM502.5 -9q-232.5 0 -381.5 9v983q177 24 375 24t311 -65t114 -211t-124 -217q166 -65 166 -223.5t-114 -229t-346.5 -70.5z
" />
    <glyph glyph-name="c.smcp" horiz-adv-x="955" 
d="M627 -26q-255 0 -408.5 133t-153.5 377t148 385.5t405 141.5q147 0 261 -41v-255l-6 -4q-104 39 -225 39t-192 -67t-71 -186t72 -191q73 -72 195 -71.5t221 41.5l8 -4v-259q-105 -39 -254 -39z" />
    <glyph glyph-name="cacute.smcp" horiz-adv-x="955" 
d="M627 -26q-255 0 -408.5 133t-153.5 377t148 385.5t405 141.5q147 0 261 -41v-255l-6 -4q-104 39 -225 39t-192 -67t-71 -186t72 -191q73 -72 195 -71.5t221 41.5l8 -4v-259q-105 -39 -254 -39zM410 1061l-90 136l333 294l179 -210l-7 -34z" />
    <glyph glyph-name="ccaron.smcp" horiz-adv-x="955" 
d="M627 -26q-255 0 -408.5 133t-153.5 377t148 385.5t405 141.5q147 0 261 -41v-255l-6 -4q-104 39 -225 39t-192 -67t-71 -186t72 -191q73 -72 195 -71.5t221 41.5l8 -4v-259q-105 -39 -254 -39zM499 1084l-238 283l104 96l205 -150l193 150l103 -96l-227 -283h-140z" />
    <glyph glyph-name="ccedilla.smcp" horiz-adv-x="955" 
d="M827 -253q0 -106 -79.5 -152.5t-172.5 -46.5t-152 14v123l7 4q37 -13 71 -13q104 0 104 67q2 32 -18.5 46t-59.5 14t-63 -6l-4 8v106l50 70q-205 30 -325 159.5t-120 337.5q0 251 148 392t405 141q147 0 261 -41v-255l-6 -4q-104 39 -225 39t-192 -67t-71 -186t72 -190.5
t194.5 -71.5t221.5 41l8 -4v-259q-88 -34 -216 -39l-41 -54q13 2 28 0q82 -7 128.5 -51t46.5 -122z" />
    <glyph glyph-name="ccircumflex.smcp" horiz-adv-x="955" 
d="M627 -26q-255 0 -408.5 133t-153.5 377t148 385.5t405 141.5q147 0 261 -41v-255l-6 -4q-104 39 -225 39t-192 -67t-71 -186t72 -191q73 -72 195 -71.5t221 41.5l8 -4v-259q-105 -39 -254 -39zM363 1084l-102 98l229 281h139l237 -281l-103 -98l-204 152z" />
    <glyph glyph-name="cdotaccent.smcp" horiz-adv-x="955" 
d="M627 -26q-255 0 -408.5 133t-153.5 377t148 385.5t405 141.5q147 0 261 -41v-255l-6 -4q-104 39 -225 39t-192 -67t-71 -186t72 -191q73 -72 195 -71.5t221 41.5l8 -4v-259q-105 -39 -254 -39zM562.5 1102q-74.5 0 -127.5 53t-53 127.5t53 127.5t127.5 53t127.5 -53
t53 -127.5t-53 -127.5t-127.5 -53z" />
    <glyph glyph-name="d.smcp" horiz-adv-x="1185" 
d="M527 244q279 0 279 251q0 121 -72.5 187t-202.5 66q-58 0 -107 -7v-495q40 -2 103 -2zM510 1000q292 0 451.5 -130.5t158.5 -371.5t-158.5 -372.5t-443.5 -131.5t-397 6v983q173 17 389 17z" />
    <glyph glyph-name="eth.smcp" horiz-adv-x="1243" 
d="M583 244q279 0 279 251q0 121 -72.5 187t-203.5 66q-58 0 -106 -7v-162h155v-186h-155v-147q40 -2 103 -2zM566 1000q292 0 451.5 -130.5t158.5 -371.5t-158.5 -372.5t-443.5 -131.5t-397 6v393h-142v186h142v404q173 17 389 17z" />
    <glyph glyph-name="dcaron.smcp" horiz-adv-x="1185" 
d="M527 244q279 0 279 251q0 121 -72.5 187t-202.5 66q-58 0 -107 -7v-495q40 -2 103 -2zM510 1000q292 0 451.5 -130.5t158.5 -371.5t-158.5 -372.5t-443.5 -131.5t-397 6v983q173 17 389 17zM644 1084h-139l-239 283l105 96l204 -150l194 150l102 -96z" />
    <glyph glyph-name="dcroat.smcp" horiz-adv-x="1243" 
d="M583 244q279 0 279 251q0 121 -72.5 187t-203.5 66q-58 0 -106 -7v-162h155v-186h-155v-147q40 -2 103 -2zM566 1000q292 0 451.5 -130.5t158.5 -371.5t-158.5 -372.5t-443.5 -131.5t-397 6v393h-142v186h142v404q173 17 389 17z" />
    <glyph glyph-name="e.smcp" horiz-adv-x="919" 
d="M121 0v987h708v-222h-418v-162h388v-205h-388v-178h431v-220h-721z" />
    <glyph glyph-name="eacute.smcp" horiz-adv-x="919" 
d="M121 0v987h708v-222h-418v-162h388v-205h-388v-178h431v-220h-721zM331 1061l-89 136l333 294l179 -210l-7 -34z" />
    <glyph glyph-name="ebreve.smcp" horiz-adv-x="919" 
d="M121 0v987h708v-222h-418v-162h388v-205h-388v-178h431v-220h-721zM483.5 1093q-128.5 0 -216.5 83t-88 222l180 21l8 -8q4 -54 33.5 -87.5t84.5 -33.5t89.5 34.5t39.5 86.5l6 6l169 -19q0 -140 -88.5 -222.5t-217 -82.5z" />
    <glyph glyph-name="ecaron.smcp" horiz-adv-x="919" 
d="M121 0v987h708v-222h-418v-162h388v-205h-388v-178h431v-220h-721zM421 1084l-239 283l105 96l205 -150l193 150l103 -96l-228 -283h-139z" />
    <glyph glyph-name="ecircumflex.smcp" horiz-adv-x="919" 
d="M121 0v987h708v-222h-418v-162h388v-205h-388v-178h431v-220h-721zM285 1084l-103 98l229 281h140l237 -281l-103 -98l-205 152z" />
    <glyph glyph-name="edieresis.smcp" horiz-adv-x="919" 
d="M121 0v987h708v-222h-418v-162h388v-205h-388v-178h431v-220h-721zM702 1112q-71 0 -121 49t-50 120t50 121t120 50t121 -50t51 -120t-50 -120t-121 -50zM268 1112q-71 0 -121 49t-50 120t50 121t121 50t121 -50t50 -120t-50 -120t-121 -50z" />
    <glyph glyph-name="edotaccent.smcp" horiz-adv-x="919" 
d="M121 0v987h708v-222h-418v-162h388v-205h-388v-178h431v-220h-721zM484.5 1102q-74.5 0 -128 53t-53.5 127.5t53.5 127.5t128 53t127.5 -53t53 -127.5t-53 -127.5t-127.5 -53z" />
    <glyph glyph-name="uni1EB9.smcp" horiz-adv-x="919" 
d="M487.5 -478q-74.5 0 -127.5 53t-53 127.5t53 127.5t127.5 53t127.5 -53t53 -127.5t-53 -127.5t-127.5 -53zM121 0v987h708v-222h-418v-162h388v-205h-388v-178h431v-220h-721z" />
    <glyph glyph-name="egrave.smcp" horiz-adv-x="919" 
d="M121 0v987h708v-222h-418v-162h388v-205h-388v-178h431v-220h-721zM618 1061l-415 186l-8 34l179 210l332 -294z" />
    <glyph glyph-name="emacron.smcp" horiz-adv-x="919" 
d="M121 0v987h708v-222h-418v-162h388v-205h-388v-178h431v-220h-721zM192 1154v187h581v-187h-581z" />
    <glyph glyph-name="eogonek.smcp" horiz-adv-x="919" 
d="M767 -289q26 0 56 6l7 -6v-149q-54 -15 -144 -14.5t-160 46t-70 132.5q0 155 201 274h-536v987h708v-222h-418v-162h388v-205h-388v-178h431v-220q-156 -89 -157 -205q0 -84 82 -84z" />
    <glyph glyph-name="uni1EBD.smcp" horiz-adv-x="919" 
d="M121 0v987h708v-222h-418v-162h388v-205h-388v-178h431v-220h-721zM352 1424q60 0 136 -29.5t110.5 -29.5t54 19.5t19.5 49.5l6 3l182 -48q0 -115 -66 -183t-167 -68q-54 -2 -133 28.5t-111 30.5t-50 -18.5t-18 -48.5l-8 -5l-180 48q0 101 60.5 176t164.5 75z" />
    <glyph glyph-name="uni0259.smcp" horiz-adv-x="1117" 
d="M546 216q149 0 180 173h-365q17 -173 185 -173zM1050 480q0 -230 -142 -368t-364 -138t-348 115t-127 343q0 73 5 127h654q-35 192 -242 191q-179 0 -348 -95l-8 4v242q154 108 375 108t377 -120q76 -61 122 -166t46 -243z" />
    <glyph glyph-name="f.smcp" horiz-adv-x="897" 
d="M121 0v987h719v-266h-414v-207h354v-233h-354v-281h-305z" />
    <glyph glyph-name="g.smcp" horiz-adv-x="1094" 
d="M747 501h258v-471q-169 -54 -348 -54q-259 0 -425.5 127.5t-166.5 378t171.5 391t446.5 140.5q203 0 302 -41v-257l-8 -2q-105 41 -271 41q-328 0 -328 -268q0 -263 298 -263q37 0 71 6v272z" />
    <glyph glyph-name="gbreve.smcp" horiz-adv-x="1094" 
d="M747 501h258v-471q-169 -54 -348 -54q-259 0 -425.5 127.5t-166.5 378t171.5 391t446.5 140.5q203 0 302 -41v-257l-8 -2q-105 41 -271 41q-328 0 -328 -268q0 -263 298 -263q37 0 71 6v272zM604.5 1093q-128.5 0 -216.5 83t-88 222l180 21l8 -8q4 -54 33.5 -87.5
t84.5 -33.5t89.5 34.5t39.5 86.5l6 6l169 -19q0 -140 -88.5 -222.5t-217 -82.5z" />
    <glyph glyph-name="gcaron.smcp" horiz-adv-x="1094" 
d="M747 501h258v-471q-169 -54 -348 -54q-259 0 -425.5 127.5t-166.5 378t171.5 391t446.5 140.5q203 0 302 -41v-257l-8 -2q-105 41 -271 41q-328 0 -328 -268q0 -263 298 -263q37 0 71 6v272zM681 1084h-139l-239 283l105 96l205 -150l193 150l103 -96z" />
    <glyph glyph-name="gcircumflex.smcp" horiz-adv-x="1094" 
d="M747 501h258v-471q-169 -54 -348 -54q-259 0 -425.5 127.5t-166.5 378t171.5 391t446.5 140.5q203 0 302 -41v-257l-8 -2q-105 41 -271 41q-328 0 -328 -268q0 -263 298 -263q37 0 71 6v272zM601 1236l-195 -152l-103 98l229 281h140l237 -281l-103 -98z" />
    <glyph glyph-name="gcommaaccent.smcp" horiz-adv-x="1094" 
d="M495 -95l233 19l22 -34q0 -190 -106 -355h-173q32 140 31.5 212t-7.5 158zM747 501h258v-471q-169 -54 -348 -54q-259 0 -425.5 127.5t-166.5 378t171.5 391t446.5 140.5q203 0 302 -41v-257l-8 -2q-105 41 -271 41q-328 0 -328 -268q0 -263 298 -263q37 0 71 6v272z" />
    <glyph glyph-name="gdotaccent.smcp" horiz-adv-x="1094" 
d="M747 501h258v-471q-169 -54 -348 -54q-259 0 -425.5 127.5t-166.5 378t171.5 391t446.5 140.5q203 0 302 -41v-257l-8 -2q-105 41 -271 41q-328 0 -328 -268q0 -263 298 -263q37 0 71 6v272zM605.5 1102q-74.5 0 -128 53t-53.5 127.5t53.5 127.5t128 53t127.5 -53
t53 -127.5t-53 -127.5t-127.5 -53z" />
    <glyph glyph-name="h.smcp" horiz-adv-x="1223" 
d="M797 987h305v-987h-305v350h-371v-350h-305v987h305v-360h371v360z" />
    <glyph glyph-name="hbar.smcp" horiz-adv-x="1228" 
d="M801 627v79h-371v-79h371zM1197 892v-186h-91v-706h-305v350h-371v-350h-305v706h-93v186h93v95h305v-95h371v95h305v-95h91z" />
    <glyph glyph-name="hcircumflex.smcp" horiz-adv-x="1223" 
d="M797 987h305v-987h-305v350h-371v-350h-305v987h305v-360h371v360zM607 1236l-196 -152l-102 98l229 281h140l236 -281l-102 -98z" />
    <glyph glyph-name="i.smcp" horiz-adv-x="549" 
d="M121 0v987h305v-987h-305z" />
    <glyph glyph-name="dotlessi.smcp" horiz-adv-x="549" 
d="M121 0v987h305v-987h-305z" />
    <glyph glyph-name="iacute.smcp" horiz-adv-x="549" 
d="M121 0v987h305v-987h-305zM121 1063l-89 136l333 294l179 -210l-8 -34z" />
    <glyph glyph-name="ibreve.smcp" horiz-adv-x="549" 
d="M121 0v987h305v-987h-305zM273.5 1093q-128.5 0 -217 83t-88.5 222l181 21l7 -8q4 -54 34 -87.5t85 -33.5t89 34.5t40 86.5l6 6l169 -19q0 -140 -88.5 -222.5t-217 -82.5z" />
    <glyph glyph-name="icircumflex.smcp" horiz-adv-x="549" 
d="M121 0v987h305v-987h-305zM74 1085l-102 99l229 281h140l236 -281l-102 -99l-205 153z" />
    <glyph glyph-name="idieresis.smcp" horiz-adv-x="549" 
d="M121 0v987h305v-987h-305zM491.5 1113q-70.5 0 -121 49.5t-50.5 120.5t50.5 121t121 50t121 -51t50.5 -120t-50.5 -119.5t-121 -50.5zM57.5 1113q-70.5 0 -121 49.5t-50.5 120.5t50.5 121t120.5 50t121 -51t51 -120t-50.5 -119.5t-121 -50.5z" />
    <glyph glyph-name="i.loclTRK.smcp" horiz-adv-x="549" 
d="M121 0v987h305v-987h-305zM273.5 1104q-74.5 0 -127.5 53t-53 127.5t53 127.5t127.5 53t127.5 -53t53 -127.5t-53 -127.5t-127.5 -53z" />
    <glyph glyph-name="uni1ECB.smcp" horiz-adv-x="549" 
d="M273.5 -478q-74.5 0 -127.5 53t-53 127.5t53 127.5t127.5 53t127.5 -53t53 -127.5t-53 -127.5t-127.5 -53zM121 0v987h305v-987h-305z" />
    <glyph glyph-name="igrave.smcp" horiz-adv-x="549" 
d="M121 0v987h305v-987h-305zM408 1063l-415 186l-8 34l179 210l331 -294z" />
    <glyph glyph-name="ij.smcp" horiz-adv-x="1232" 
d="M724 -7q-41 0 -138 11v262l6 4q45 -7 69 -7q155 0 154 182v542h304v-615q0 -190 -104.5 -284.5t-290.5 -94.5zM121 0v987h305v-987h-305z" />
    <glyph glyph-name="imacron.smcp" horiz-adv-x="549" 
d="M121 0v987h305v-987h-305zM-11 1156v186h566v-186h-566z" />
    <glyph glyph-name="iogonek.smcp" horiz-adv-x="549" 
d="M244 -188q0 -84 82 -84q24 0 56 6l7 -6v-149q-54 -15 -144 -15t-160 46t-70 133q0 145 173 257h-67v987h305v-987h-54q-128 -84 -128 -188z" />
    <glyph glyph-name="itilde.smcp" horiz-adv-x="549" 
d="M121 0v987h305v-987h-305zM171 1426q48 0 108 -29.5t87 -29.5t42.5 19.5t15.5 48.5l8 4l158 -48q0 -114 -57.5 -182t-143.5 -68q-43 -2 -106 29t-88 31q-54 0 -57 -69l-6 -6l-160 49q0 101 53 176t146 75z" />
    <glyph glyph-name="j.smcp" horiz-adv-x="683" 
d="M177 -7q-43 0 -140 11v262l8 4q30 -7 67 -7q155 0 154 182v542h306v-615q0 -190 -104.5 -284.5t-290.5 -94.5z" />
    <glyph glyph-name="jacute.smcp" horiz-adv-x="683" 
d="M177 -7q-43 0 -140 11v262l8 4q30 -7 67 -7q155 0 154 182v542h306v-615q0 -190 -104.5 -284.5t-290.5 -94.5zM261 1037l-90 136l334 294l178 -210l-7 -34z" />
    <glyph glyph-name="jcircumflex.smcp" horiz-adv-x="683" 
d="M177 -7q-43 0 -140 11v262l8 4q30 -7 67 -7q155 0 154 182v542h306v-615q0 -190 -104.5 -284.5t-290.5 -94.5zM214 1059l-102 99l229 281h139l237 -281l-103 -99l-204 153z" />
    <glyph glyph-name="k.smcp" horiz-adv-x="1105" 
d="M426 0h-305v985h305v-462l332 462h320l4 -8l-352 -469l374 -501l-4 -7h-348l-326 441v-441z" />
    <glyph glyph-name="kcommaaccent.smcp" horiz-adv-x="1105" 
d="M441 -95l233 19l22 -34q0 -190 -106 -355h-173q32 140 31.5 212t-7.5 158zM426 0h-305v985h305v-462l332 462h320l4 -8l-352 -469l374 -501l-4 -7h-348l-326 441v-441z" />
    <glyph glyph-name="kgreenlandic.smcp" horiz-adv-x="1105" 
d="M426 0h-305v985h305v-462l332 462h320l4 -8l-352 -469l374 -501l-4 -7h-348l-326 441v-441z" />
    <glyph glyph-name="l.smcp" horiz-adv-x="863" 
d="M426 266h406v-266h-711v994h305v-728z" />
    <glyph glyph-name="lacute.smcp" horiz-adv-x="863" 
d="M426 266h406v-266h-711v994h305v-728zM542 1257l-8 -34l-415 -186l-89 136l333 294z" />
    <glyph glyph-name="lcaron.smcp" horiz-adv-x="878" 
d="M426 994v-728h406v-266h-711v994h305zM840 976l-82 -432h-164l15 458h208z" />
    <glyph glyph-name="lcommaaccent.smcp" horiz-adv-x="863" 
d="M344 -95l233 19l23 -34q0 -190 -107 -355h-173q32 140 32 212t-8 158zM426 266h406v-266h-711v994h305v-728z" />
    <glyph glyph-name="ldot.smcp" horiz-adv-x="951" 
d="M755 778q79 0 121 -44.5t42 -110.5t-42 -108t-121 -42t-121 42t-42 108t42 110.5t121 44.5zM426 994v-728h406v-266h-711v994h305z" />
    <glyph glyph-name="l_periodcentered_l.loclCAT.smcp" horiz-adv-x="1815" 
d="M755 778q79 0 121 -44.5t42 -110.5t-42 -108t-121 -42t-121 42t-42 108t42 110.5t121 44.5zM1378 266h406v-266h-712v994h306v-728zM426 994v-728h406v-266h-711v994h305z" />
    <glyph glyph-name="lslash.smcp" horiz-adv-x="919" 
d="M480 266h406v-266h-709v315l-114 -75h-9v214l123 80v460h303v-262l129 83h9v-214l-138 -89v-246z" />
    <glyph glyph-name="m.smcp" horiz-adv-x="1396" 
d="M71 0l123 987h169l343 -559l305 559h184l136 -987h-275l-62 456h-2l-244 -434h-95l-256 427h-2l-54 -449h-270z" />
    <glyph glyph-name="n.smcp" horiz-adv-x="1200" 
d="M121 0v985h158l509 -497v497h290v-985h-155l-512 501v-501h-290z" />
    <glyph glyph-name="nacute.smcp" horiz-adv-x="1200" 
d="M121 0v985h158l509 -497v497h290v-985h-155l-512 501v-501h-290zM434 1061l-90 136l334 294l178 -210l-7 -34z" />
    <glyph glyph-name="napostrophe.smcp" horiz-adv-x="1429" 
d="M352 0v985h156l509 -497v497h292v-985h-157l-512 501l2 -501h-290zM45 780q39 241 24 492l223 39l38 -43q-2 -216 -129 -488h-156z" />
    <glyph glyph-name="ncaron.smcp" horiz-adv-x="1200" 
d="M121 0v985h158l509 -497v497h290v-985h-155l-512 501v-501h-290zM523 1084l-238 283l104 96l205 -150l194 150l102 -96l-227 -283h-140z" />
    <glyph glyph-name="ncommaaccent.smcp" horiz-adv-x="1200" 
d="M512 -252.5q0 72.5 -7 157.5l232 19l23 -34q0 -190 -107 -355h-173q32 140 32 212.5zM121 0v985h158l509 -497v497h290v-985h-155l-512 501v-501h-290z" />
    <glyph glyph-name="eng.smcp" horiz-adv-x="1200" 
d="M788 985h290v-1013q0 -222 -135 -309t-366 -56l-4 246l8 4q114 -17 161 26.5t47 144.5v102l-378 371v-501h-290v985h158l509 -497v497z" />
    <glyph glyph-name="uni0272.smcp" horiz-adv-x="1200" 
d="M788 985h290v-985h-155l-512 501v-514q2 -222 -120.5 -316t-340.5 -64l-2 246l5 6q84 -9 126 32.5t42 136.5v957h158l509 -497v497z" />
    <glyph glyph-name="ntilde.smcp" horiz-adv-x="1200" 
d="M121 0v985h158l509 -497v497h290v-985h-155l-512 501v-501h-290zM454 1424q60 0 136.5 -29.5t111 -29.5t54 19.5t19.5 49.5l5 3l183 -48q0 -115 -66.5 -183t-166.5 -68q-54 -2 -133 28.5t-111 30.5t-50.5 -18.5t-18.5 -48.5l-7 -5l-181 48q0 101 60.5 176t164.5 75z" />
    <glyph glyph-name="o.smcp" horiz-adv-x="1226" 
d="M612 235q109 0 169.5 70.5t60.5 186t-60.5 186t-167.5 70.5t-168 -70.5t-61 -186.5t59 -186t168 -70zM618.5 -26q-234.5 0 -393 135t-158.5 376t152.5 383.5t388.5 142.5t394 -136t158 -376t-153.5 -382.5t-388 -142.5z" />
    <glyph glyph-name="oacute.smcp" horiz-adv-x="1226" 
d="M612 235q109 0 169.5 70.5t60.5 186t-60.5 186t-167.5 70.5t-168 -70.5t-61 -186.5t59 -186t168 -70zM618.5 -26q-234.5 0 -393 135t-158.5 376t152.5 383.5t388.5 142.5t394 -136t158 -376t-153.5 -382.5t-388 -142.5zM460 1043l-89 136l333 294l179 -211l-8 -33z" />
    <glyph glyph-name="obreve.smcp" horiz-adv-x="1226" 
d="M612 235q109 0 169.5 70.5t60.5 186t-60.5 186t-167.5 70.5t-168 -70.5t-61 -186.5t59 -186t168 -70zM618.5 -26q-234.5 0 -393 135t-158.5 376t152.5 383.5t388.5 142.5t394 -136t158 -376t-153.5 -382.5t-388 -142.5zM612.5 1074q-128.5 0 -217 83t-88.5 223l181 20
l7 -7q4 -54 34 -87.5t85 -33.5t89 34.5t40 86.5l5 5l170 -18q0 -140 -88.5 -223t-217 -83z" />
    <glyph glyph-name="ocircumflex.smcp" horiz-adv-x="1226" 
d="M612 235q109 0 169.5 70.5t60.5 186t-60.5 186t-167.5 70.5t-168 -70.5t-61 -186.5t59 -186t168 -70zM618.5 -26q-234.5 0 -393 135t-158.5 376t152.5 383.5t388.5 142.5t394 -136t158 -376t-153.5 -382.5t-388 -142.5zM413 1065l-102 99l229 281h140l236 -281l-102 -99
l-205 153z" />
    <glyph glyph-name="odieresis.smcp" horiz-adv-x="1226" 
d="M612 235q109 0 169.5 70.5t60.5 186t-60.5 186t-167.5 70.5t-168 -70.5t-61 -186.5t59 -186t168 -70zM618.5 -26q-234.5 0 -393 135t-158.5 376t152.5 383.5t388.5 142.5t394 -136t158 -376t-153.5 -382.5t-388 -142.5zM830.5 1093q-70.5 0 -121 49.5t-50.5 120t50.5 121
t121 50.5t121 -50.5t50.5 -120.5t-50.5 -120t-121 -50zM396.5 1093q-70.5 0 -121 49.5t-50.5 120t50.5 121t120.5 50.5t121 -50.5t51 -120.5t-50.5 -120t-121 -50z" />
    <glyph glyph-name="uni1ECD.smcp" horiz-adv-x="1226" 
d="M612.5 -478q-74.5 0 -127.5 53t-53 127.5t53 127.5t127.5 53t127.5 -53t53 -127.5t-53 -127.5t-127.5 -53zM612 235q109 0 169.5 70.5t60.5 186t-60.5 186t-167.5 70.5t-168 -70.5t-61 -186.5t59 -186t168 -70zM618.5 -26q-234.5 0 -393 135t-158.5 376t152.5 383.5
t388.5 142.5t394 -136t158 -376t-153.5 -382.5t-388 -142.5z" />
    <glyph glyph-name="ograve.smcp" horiz-adv-x="1226" 
d="M612 235q109 0 169.5 70.5t60.5 186t-60.5 186t-167.5 70.5t-168 -70.5t-61 -186.5t59 -186t168 -70zM618.5 -26q-234.5 0 -393 135t-158.5 376t152.5 383.5t388.5 142.5t394 -136t158 -376t-153.5 -382.5t-388 -142.5zM747 1043l-416 186l-7 33l179 211l331 -294z" />
    <glyph glyph-name="ohungarumlaut.smcp" horiz-adv-x="1226" 
d="M612 235q109 0 169.5 70.5t60.5 186t-60.5 186t-167.5 70.5t-168 -70.5t-61 -186.5t59 -186t168 -70zM618.5 -26q-234.5 0 -393 135t-158.5 376t152.5 383.5t388.5 142.5t394 -136t158 -376t-153.5 -382.5t-388 -142.5zM806 1046l-121 73l164 348l194 -69l3 -39z
M447 1046l-121 73l164 348l195 -69l2 -39z" />
    <glyph glyph-name="omacron.smcp" horiz-adv-x="1226" 
d="M612 235q109 0 169.5 70.5t60.5 186t-60.5 186t-167.5 70.5t-168 -70.5t-61 -186.5t59 -186t168 -70zM618.5 -26q-234.5 0 -393 135t-158.5 376t152.5 383.5t388.5 142.5t394 -136t158 -376t-153.5 -382.5t-388 -142.5zM320 1136v186h581v-186h-581z" />
    <glyph glyph-name="uni01EB.smcp" horiz-adv-x="1226" 
d="M385 491q0 -116 59 -186t168 -70t169.5 70.5t60.5 186t-60.5 186t-167.5 70.5t-168 -70.5t-61 -186.5zM672 -188q0 -84 82 -84q24 0 56 6l7 -6v-149q-54 -15 -144 -15t-160 46t-70 133q0 130 136 231q-218 11 -365 145t-147 370.5t152.5 379t388.5 142.5t394 -136
t158 -383q0 -181 -97 -311.5t-261 -180.5q-130 -84 -130 -188z" />
    <glyph glyph-name="oslash.smcp" horiz-adv-x="1226" 
d="M613 235q108 0 168.5 70.5t60.5 186.5q0 61 -17 111l-306 -352q44 -16 94 -16zM385 492q0 -61 17 -112l300 354q-41 15 -89 14q-106 0 -167 -70.5t-61 -185.5zM1160 483q0 -224 -153.5 -366.5t-393.5 -142.5q-155 0 -278 61l-67 -76h-201v26l128 153q-128 138 -128 363
t152.5 367.5t393.5 142.5q149 0 273 -60l41 49h222v-21l-116 -134q127 -138 127 -362z" />
    <glyph glyph-name="oslashacute.smcp" horiz-adv-x="1226" 
d="M613 235q108 0 168.5 70.5t60.5 186.5q0 61 -17 111l-306 -352q44 -16 94 -16zM385 492q0 -61 17 -112l300 354q-41 15 -89 14q-106 0 -167 -70.5t-61 -185.5zM1160 483q0 -224 -153.5 -366.5t-393.5 -142.5q-155 0 -278 61l-67 -76h-201v26l128 153q-128 138 -128 363
t152.5 367.5t393.5 142.5q149 0 273 -60l41 49h222v-21l-116 -134q127 -138 127 -362zM843 1249l-415 -186l-89 136l333 294l179 -210z" />
    <glyph glyph-name="otilde.smcp" horiz-adv-x="1226" 
d="M612 235q109 0 169.5 70.5t60.5 186t-60.5 186t-167.5 70.5t-168 -70.5t-61 -186.5t59 -186t168 -70zM618.5 -26q-234.5 0 -393 135t-158.5 376t152.5 383.5t388.5 142.5t394 -136t158 -376t-153.5 -382.5t-388 -142.5zM480 1406q60 0 136.5 -30t111 -30t54 19.5
t19.5 49.5l5 4l183 -49q0 -115 -66.5 -183t-166.5 -68q-54 -2 -133 29t-111 31t-50.5 -19t-18.5 -48l-7 -6l-181 48q0 101 60.5 176.5t164.5 75.5z" />
    <glyph glyph-name="oe.smcp" horiz-adv-x="1588" 
d="M374 491q0 -116 58 -187t164 -71t161 69.5t55 189t-55 190t-159.5 70.5t-164 -72.5t-59.5 -188.5zM1510 216v-216h-732q-88 -26 -182 -26q-222 0 -375.5 133t-153.5 377t147 385.5t382 141.5q95 0 175 -24h726v-220h-441q43 -80 56 -167h353v-207h-352q-13 -97 -59 -177
h456z" />
    <glyph glyph-name="p.smcp" horiz-adv-x="1010" 
d="M501 462q179 0 179 149t-164 149q-52 0 -90 -4v-291q30 -3 75 -3zM538 242q-34 0 -112 4v-246h-305v987q225 13 389 11q454 -3 456 -372q2 -194 -116 -289t-312 -95z" />
    <glyph glyph-name="thorn.smcp" horiz-adv-x="1024" 
d="M497 335q181 0 181 151q0 74 -47 110t-113 37q-66 0 -92 -6v-288q28 -4 71 -4zM426 0h-305v987h305v-116h82q214 -4 334 -88q119 -85 121 -281q1 -196 -117 -293q-118 -96 -310 -95q-35 0 -110 3v-117z" />
    <glyph glyph-name="q.smcp" horiz-adv-x="1226" 
d="M385 491q0 -116 59 -186t168 -70t169.5 70.5t60.5 186t-60.5 186t-167.5 70.5t-168 -70.5t-61 -186.5zM613 -26q-229 0 -387.5 135t-158.5 376t152.5 383.5t388.5 142.5t394 -136t158 -381t-166 -390q125 -117 313 -171l-88 -212q-279 71 -458 270q-69 -17 -148 -17z" />
    <glyph glyph-name="r.smcp" horiz-adv-x="1061" 
d="M417 486h102q71 0 114 36.5t43 101.5t-42 100.5t-116 35.5t-101 -4v-270zM121 0v987q157 11 311 11t233.5 -16t152 -52t114.5 -107t42 -170q0 -227 -179 -314l212 -339h-324l-158 264h-108v-264h-296z" />
    <glyph glyph-name="racute.smcp" horiz-adv-x="1061" 
d="M417 486h102q71 0 114 36.5t43 101.5t-42 100.5t-116 35.5t-101 -4v-270zM121 0v987q157 11 311 11t233.5 -16t152 -52t114.5 -107t42 -170q0 -227 -179 -314l212 -339h-324l-158 264h-108v-264h-296zM356 1061l-90 136l334 294l178 -210l-7 -34z" />
    <glyph glyph-name="rcaron.smcp" horiz-adv-x="1061" 
d="M417 486h102q71 0 114 36.5t43 101.5t-42 100.5t-116 35.5t-101 -4v-270zM121 0v987q157 11 311 11t233.5 -16t152 -52t114.5 -107t42 -170q0 -227 -179 -314l212 -339h-324l-158 264h-108v-264h-296zM445 1084l-238 283l104 96l205 -150l193 150l103 -96l-227 -283h-140
z" />
    <glyph glyph-name="rcommaaccent.smcp" horiz-adv-x="1061" 
d="M397 -252.5q0 72.5 -8 157.5l233 19l22 -34q0 -190 -106 -355h-173q32 140 32 212.5zM417 486h102q71 0 114 36.5t43 101.5t-42 100.5t-116.5 35.5t-100.5 -4v-270zM121 0v987q156 11 310.5 11t234 -16t152 -52t114.5 -107t42 -170q0 -227 -179 -314l212 -339h-324
l-158 264h-108v-264h-296z" />
    <glyph glyph-name="s.smcp" horiz-adv-x="875" 
d="M403 -26q-187 0 -321 67v255l7 4q61 -45 146 -72t160 -27q123 0 123 76q0 39 -33.5 62.5t-156.5 69t-182.5 115.5t-59.5 176q2 143 113.5 227t282.5 84t283 -47v-234l-5 -4q-93 54 -255 58q-123 0 -127 -71q0 -32 34.5 -52.5t153.5 -66.5t177.5 -115t58.5 -199.5
t-106 -218t-293 -87.5z" />
    <glyph glyph-name="sacute.smcp" horiz-adv-x="875" 
d="M403 -26q-187 0 -321 67v255l7 4q61 -45 146 -72t160 -27q123 0 123 76q0 39 -33.5 62.5t-156.5 69t-182.5 115.5t-59.5 176q2 143 113.5 227t282.5 84t283 -47v-234l-5 -4q-93 54 -255 58q-123 0 -127 -71q0 -32 34.5 -52.5t153.5 -66.5t177.5 -115t58.5 -199.5
t-106 -218t-293 -87.5zM292 1061l-89 136l333 294l179 -210l-8 -34z" />
    <glyph glyph-name="scaron.smcp" horiz-adv-x="875" 
d="M403 -26q-187 0 -321 67v255l7 4q61 -45 146 -72t160 -27q123 0 123 76q0 39 -33.5 62.5t-156.5 69t-182.5 115.5t-59.5 176q2 143 113.5 227t282.5 84t283 -47v-234l-5 -4q-93 54 -255 58q-123 0 -127 -71q0 -32 34.5 -52.5t153.5 -66.5t177.5 -115t58.5 -199.5
t-106 -218t-293 -87.5zM382 1084l-239 283l105 96l204 -150l194 150l102 -96l-227 -283h-139z" />
    <glyph glyph-name="scedilla.smcp" horiz-adv-x="875" 
d="M802 290q0 -119 -76 -201t-214 -106l-47 -63q15 2 28 0q175 -15 175 -187q0 -92 -79 -138.5t-172 -46.5t-153 14v123l8 4q37 -13 71 -13q104 0 104 67q2 32 -18.5 46t-58.5 14t-65 -6l-3 8v106l44 65q-149 7 -264 65v255l7 4q61 -45 146 -72t160 -27q123 0 123 76
q0 39 -33.5 62.5t-156.5 69t-182.5 115.5t-59.5 176q2 143 113.5 227t282.5 84t283 -47v-234l-5 -4q-93 54 -255 58q-123 0 -127 -71q0 -32 34.5 -52.5t153.5 -66.5t177.5 -115.5t58.5 -188.5z" />
    <glyph glyph-name="scircumflex.smcp" horiz-adv-x="875" 
d="M403 -26q-187 0 -321 67v255l7 4q61 -45 146 -72t160 -27q123 0 123 76q0 39 -33.5 62.5t-156.5 69t-182.5 115.5t-59.5 176q2 143 113.5 227t282.5 84t283 -47v-234l-5 -4q-93 54 -255 58q-123 0 -127 -71q0 -32 34.5 -52.5t153.5 -66.5t177.5 -115t58.5 -199.5
t-106 -218t-293 -87.5zM246 1084l-103 98l229 281h140l236 -281l-102 -98l-205 152z" />
    <glyph glyph-name="scommaaccent.smcp" horiz-adv-x="875" 
d="M322 -252.5q0 72.5 -7 157.5l232 19l23 -34q0 -190 -106 -355h-174q32 140 32 212.5zM403 -26q-187 0 -321 67v255l7 4q61 -45 146 -72t160 -27q123 0 123 76q0 39 -33.5 62.5t-156.5 69t-182.5 115.5t-59.5 176q2 143 113.5 227t282.5 84t283 -47v-234l-5 -4
q-93 54 -255 58q-123 0 -127 -71q0 -32 34.5 -52.5t153.5 -66.5t177.5 -115t58.5 -199.5t-106 -218t-293 -87.5z" />
    <glyph glyph-name="germandbls.smcp" horiz-adv-x="1262" 
d="M843.5 -20q-165.5 0 -303.5 48v233l7 3q114 -74 242 -74q58 0 92.5 28t34.5 78q0 108 -160 108q-41 0 -121 -9l-4 78l136 257q-34 11 -87 11q-119 0 -193 -60.5t-74 -194.5v-486h-303v495q0 121 38 215t98 150q163 151 497 151q217 0 372 -73v-76l-145 -268
q99 -20 165 -89t66 -210.5t-96 -228t-261.5 -86.5z" />
    <glyph glyph-name="t.smcp" horiz-adv-x="1012" 
d="M977 987v-278h-310v-709h-304v709h-328v278h942z" />
    <glyph glyph-name="tbar.smcp" horiz-adv-x="1027" 
d="M985 709h-311v-236h160v-186h-160v-287h-303v287h-164v186h164v236h-328v278h942v-278z" />
    <glyph glyph-name="tcaron.smcp" horiz-adv-x="1012" 
d="M977 987v-278h-310v-709h-304v709h-328v278h942zM588 1084h-139l-239 283l105 96l204 -150l194 150l102 -96z" />
    <glyph glyph-name="uni0163.smcp" horiz-adv-x="1012" 
d="M667 0h-60l-60 -80q15 2 28 0q175 -15 175 -187q0 -92 -79 -138.5t-172 -46.5t-153 14v123l8 4q37 -13 70 -13q104 0 105 67q2 32 -18.5 46t-59 14t-64.5 -6l-3 8v106l61 89h-82v709h-328v278h942v-278h-310v-709z" />
    <glyph glyph-name="uni021B.smcp" horiz-adv-x="1012" 
d="M404 -253q0 72 -7 158l232 19l23 -34q0 -190 -106 -355h-174q32 140 32 212zM977 987v-278h-310v-709h-304v709h-328v278h942z" />
    <glyph glyph-name="u.smcp" horiz-adv-x="1165" 
d="M584 -19q-226 0 -351 116.5t-125 326.5v563h305v-533q0 -210 177 -210q171 0 171 210v533h297v-563q0 -210 -124 -326.5t-350 -116.5z" />
    <glyph glyph-name="uacute.smcp" horiz-adv-x="1165" 
d="M584 -19q-226 0 -351 116.5t-125 326.5v563h305v-533q0 -210 177 -210q171 0 171 210v533h297v-563q0 -210 -124 -326.5t-350 -116.5zM432 1061l-89 136l333 294l179 -210l-8 -34z" />
    <glyph glyph-name="ubreve.smcp" horiz-adv-x="1165" 
d="M584 -19q-226 0 -351 116.5t-125 326.5v563h305v-533q0 -210 177 -210q171 0 171 210v533h297v-563q0 -210 -124 -326.5t-350 -116.5zM584.5 1093q-128.5 0 -217 83t-88.5 222l181 21l7 -8q4 -54 34 -87.5t85 -33.5t89 34.5t40 86.5l6 6l169 -19q0 -140 -88.5 -222.5
t-217 -82.5z" />
    <glyph glyph-name="ucircumflex.smcp" horiz-adv-x="1165" 
d="M584 -19q-226 0 -351 116.5t-125 326.5v563h305v-533q0 -210 177 -210q171 0 171 210v533h297v-563q0 -210 -124 -326.5t-350 -116.5zM385 1084l-102 98l229 281h140l236 -281l-102 -98l-205 152z" />
    <glyph glyph-name="udieresis.smcp" horiz-adv-x="1165" 
d="M584 -19q-226 0 -351 116.5t-125 326.5v563h305v-533q0 -210 177 -210q171 0 171 210v533h297v-563q0 -210 -124 -326.5t-350 -116.5zM802.5 1112q-70.5 0 -121 49t-50.5 120t50.5 121t120 50t121 -50t51.5 -120t-50.5 -120t-121 -50zM368.5 1112q-70.5 0 -121 49
t-50.5 120t50.5 121t121 50t121 -50t50.5 -120t-50.5 -120t-121 -50z" />
    <glyph glyph-name="uni1EE5.smcp" horiz-adv-x="1165" 
d="M584.5 -478q-74.5 0 -127.5 53t-53 127.5t53 127.5t127.5 53t127.5 -53t53 -127.5t-53 -127.5t-127.5 -53zM584 -19q-226 0 -351 116.5t-125 326.5v563h305v-533q0 -210 177 -210q171 0 171 210v533h297v-563q0 -210 -124 -326.5t-350 -116.5z" />
    <glyph glyph-name="ugrave.smcp" horiz-adv-x="1165" 
d="M584 -19q-226 0 -351 116.5t-125 326.5v563h305v-533q0 -210 177 -210q171 0 171 210v533h297v-563q0 -210 -124 -326.5t-350 -116.5zM719 1061l-416 186l-7 34l179 210l331 -294z" />
    <glyph glyph-name="uhungarumlaut.smcp" horiz-adv-x="1165" 
d="M584 -19q-226 0 -351 116.5t-125 326.5v563h305v-533q0 -210 177 -210q171 0 171 210v533h297v-563q0 -210 -124 -326.5t-350 -116.5zM778 1065l-121 73l164 348l194 -69l3 -39zM419 1065l-121 73l164 348l195 -69l2 -39z" />
    <glyph glyph-name="umacron.smcp" horiz-adv-x="1165" 
d="M584 -19q-226 0 -351 116.5t-125 326.5v563h305v-533q0 -210 177 -210q171 0 171 210v533h297v-563q0 -210 -124 -326.5t-350 -116.5zM292 1154v187h581v-187h-581z" />
    <glyph glyph-name="uogonek.smcp" horiz-adv-x="1165" 
d="M761 987h297v-563q0 -318 -267 -411q-147 -89 -147 -199q0 -84 82 -84q26 0 56 6l7 -6v-149q-54 -15 -144 -15t-160 45.5t-70 133.5q0 134 144 236q-216 7 -333.5 123t-117.5 320v563h305v-533q0 -210 177 -210q171 0 171 210v533z" />
    <glyph glyph-name="uring.smcp" horiz-adv-x="1165" 
d="M584 -19q-226 0 -351 116.5t-125 326.5v563h305v-533q0 -210 177 -210q171 0 171 210v533h297v-563q0 -210 -124 -326.5t-350 -116.5zM587 1195q39 0 63 24.5t24 61.5t-25 61.5t-63 24.5t-63.5 -24.5t-25.5 -60.5t25.5 -61.5t64.5 -25.5zM584.5 1052q-104.5 0 -170.5 66
t-66 164t67 164t170.5 66t170.5 -66t67 -164t-67 -164t-171.5 -66z" />
    <glyph glyph-name="utilde.smcp" horiz-adv-x="1165" 
d="M584 -19q-226 0 -351 116.5t-125 326.5v563h305v-533q0 -210 177 -210q171 0 171 210v533h297v-563q0 -210 -124 -326.5t-350 -116.5zM452 1424q60 0 136.5 -29.5t111 -29.5t54 19.5t19.5 49.5l5 3l183 -48q0 -115 -66 -183t-167 -68q-54 -2 -133 28.5t-111 30.5
t-50.5 -18.5t-18.5 -48.5l-7 -5l-181 48q0 101 60.5 176t164.5 75z" />
    <glyph glyph-name="v.smcp" horiz-adv-x="1057" 
d="M1054 987l4 -8l-432 -979h-200l-424 979l4 8h305l227 -615l229 615h287z" />
    <glyph glyph-name="w.smcp" horiz-adv-x="1517" 
d="M1508 987l4 -8l-350 -979h-211l-188 601l-191 -601h-216l-350 979l3 8h298l158 -559l8 -44l9 42l170 561h234l166 -557l11 -52l9 56l157 553h279z" />
    <glyph glyph-name="wacute.smcp" horiz-adv-x="1517" 
d="M1508 987l4 -8l-350 -979h-211l-188 601l-191 -601h-216l-350 979l3 8h298l158 -559l8 -44l9 42l170 561h234l166 -557l11 -52l9 56l157 553h279zM1024 1249l-415 -186l-90 136l334 294l178 -210z" />
    <glyph glyph-name="wcircumflex.smcp" horiz-adv-x="1517" 
d="M1508 987l4 -8l-350 -979h-211l-188 601l-191 -601h-216l-350 979l3 8h298l158 -559l8 -44l9 42l170 561h234l166 -557l11 -52l9 56l157 553h279zM758 1238l-196 -153l-102 99l229 281h140l236 -281l-102 -99z" />
    <glyph glyph-name="wdieresis.smcp" horiz-adv-x="1517" 
d="M1508 987l4 -8l-350 -979h-211l-188 601l-191 -601h-216l-350 979l3 8h298l158 -559l8 -44l9 42l170 561h234l166 -557l11 -52l9 56l157 553h279zM979.5 1113q-70.5 0 -121 49.5t-50.5 120.5t50.5 121t121 50t121 -51t50.5 -120t-50.5 -119.5t-121 -50.5zM545.5 1113
q-70.5 0 -121 49.5t-50.5 120.5t50.5 121t120.5 50t121 -51t51 -120t-50.5 -119.5t-121 -50.5z" />
    <glyph glyph-name="wgrave.smcp" horiz-adv-x="1517" 
d="M1508 987l4 -8l-350 -979h-211l-188 601l-191 -601h-216l-350 979l3 8h298l158 -559l8 -44l9 42l170 561h234l166 -557l11 -52l9 56l157 553h279zM896 1063l-416 186l-7 34l179 210l331 -294z" />
    <glyph glyph-name="x.smcp" horiz-adv-x="1083" 
d="M715 503l356 -496l-2 -7h-315l-218 317l-221 -317h-302l-4 7l363 498l-338 474l1 8h315l201 -296l207 296h300l3 -8z" />
    <glyph glyph-name="y.smcp" horiz-adv-x="1033" 
d="M378 0v331l-376 648l4 8h307l212 -389l210 389h296l2 -8l-372 -642v-337h-283z" />
    <glyph glyph-name="yacute.smcp" horiz-adv-x="1033" 
d="M378 0v331l-376 648l4 8h307l212 -389l210 389h296l2 -8l-372 -642v-337h-283zM356 1063l-90 136l334 294l178 -210l-7 -34z" />
    <glyph glyph-name="ycircumflex.smcp" horiz-adv-x="1033" 
d="M378 0v331l-376 648l4 8h307l212 -389l210 389h296l2 -8l-372 -642v-337h-283zM309 1085l-102 99l229 281h139l237 -281l-103 -99l-204 153z" />
    <glyph glyph-name="ydieresis.smcp" horiz-adv-x="1033" 
d="M378 0v331l-376 648l4 8h307l212 -389l210 389h296l2 -8l-372 -642v-337h-283zM726 1113q-71 0 -121 49.5t-50 120.5t50 121t121 50t121 -51t50 -120t-50 -119.5t-121 -50.5zM292.5 1113q-70.5 0 -121 49.5t-50.5 120.5t50.5 121t120.5 50t121 -51t51 -120t-50.5 -119.5
t-121 -50.5z" />
    <glyph glyph-name="ygrave.smcp" horiz-adv-x="1033" 
d="M378 0v331l-376 648l4 8h307l212 -389l210 389h296l2 -8l-372 -642v-337h-283zM642 1063l-415 186l-7 34l178 210l332 -294z" />
    <glyph glyph-name="uni0233.smcp" horiz-adv-x="1033" 
d="M378 0v331l-376 648l4 8h307l212 -389l210 389h296l2 -8l-372 -642v-337h-283zM216 1156v186h581v-186h-581z" />
    <glyph glyph-name="uni1EF9.smcp" horiz-adv-x="1033" 
d="M378 0v331l-376 648l4 8h307l212 -389l210 389h296l2 -8l-372 -642v-337h-283zM376 1426q60 0 136 -29.5t111 -29.5t54 19.5t19 48.5l6 4l182 -48q0 -115 -66 -183.5t-166 -68.5q-54 -2 -133.5 29t-111 31t-50 -18.5t-18.5 -48.5l-8 -6l-180 49q0 101 60.5 176t164.5 75z
" />
    <glyph glyph-name="z.smcp" horiz-adv-x="1027" 
d="M961 240v-240h-890v149l475 592h-470v246h870v-157l-477 -590h492z" />
    <glyph glyph-name="zacute.smcp" horiz-adv-x="1027" 
d="M961 240v-240h-890v149l475 592h-470v246h870v-157l-477 -590h492zM767 1249l-415 -186l-89 136l333 294l179 -210z" />
    <glyph glyph-name="zcaron.smcp" horiz-adv-x="1027" 
d="M961 240v-240h-890v149l475 592h-470v246h870v-157l-477 -590h492zM581 1085h-140l-238 283l104 97l205 -151l194 151l102 -97z" />
    <glyph glyph-name="zdotaccent.smcp" horiz-adv-x="1027" 
d="M961 240v-240h-890v149l475 592h-470v246h870v-157l-477 -590h492zM504.5 1104q-74.5 0 -127.5 53t-53 127.5t53 127.5t127.5 53t127.5 -53t53 -127.5t-53 -127.5t-127.5 -53z" />
    <glyph glyph-name="zero.osf" horiz-adv-x="1187" 
d="M592 754q-102 0 -156 -69q-56 -69 -56 -195t56 -190q56 -65 158 -65t158 64q56 65 56 191t-57 195t-159 69zM1113 490q1 -252 -143 -384t-378 -132t-375 129q-143 129 -143 381t144 392q144 141 377 141q232 0 375 -137q143 -138 143 -390z" />
    <glyph glyph-name="one.osf" horiz-adv-x="700" 
d="M283 0v627l-225 -68v290l461 156h53v-1005h-289z" />
    <glyph glyph-name="two.osf" horiz-adv-x="1035" 
d="M74 0v173q331 222 416 296q102 95 102 170q0 113 -173 113t-317 -93l-5 4l-2 266q157 86 365 86q208 -1 323 -79t114 -243q0 -242 -312 -429q-17 -11 -45 -16l2 -6q30 7 52 7h382v-249h-902z" />
    <glyph glyph-name="three.osf" horiz-adv-x="966" 
d="M896 140q0 -204 -126 -310t-332 -107q-121 1 -195 19t-161 59v260l4 2q136 -97 320 -97q89 0 147 42t58 127t-55 121t-182 40h-106v227l82 2q199 6 199 123q1 108 -167 108t-278 -62l-5 4v246q141 73 329 73q188 1 300 -79q114 -80 114 -244t-121 -260q175 -90 175 -294z
" />
    <glyph glyph-name="four.osf" horiz-adv-x="1143" 
d="M652 222v322l-252 -322h252zM1082 222v-222h-166v-264h-264v264h-618v130l657 862h225v-770h166z" />
    <glyph glyph-name="five.osf" horiz-adv-x="997" 
d="M769 -189q-136 -88 -320 -88q-185 0 -361 70v255l5 2q99 -48 168 -65t163 -17q220 0 220 172q0 153 -236 152q-164 0 -298 -26l18 721h740v-255h-494l-7 -203q74 7 115 7q225 0 335 -96t110 -299q0 -113 -44 -199t-114 -131z" />
    <glyph glyph-name="six.osf" horiz-adv-x="1085" 
d="M568 225q76 1 120 49t44 121t-39 115t-107 43q-68 0 -122 -38t-73 -118q43 -172 177 -172zM648 801q166 1 266 -103t101 -272q0 -210 -121 -334q-122 -124 -346 -124t-346 155t-122 439q0 344 175 534t451 191q130 0 208 -28v-252l-9 -7q-86 32 -201 31q-285 0 -328 -337
q106 107 272 107z" />
    <glyph glyph-name="seven.osf" horiz-adv-x="945" 
d="M45 713v274h865v-157l-472 -1098h-297l-5 7l434 974h-525z" />
    <glyph glyph-name="eight.osf" horiz-adv-x="1068" 
d="M534 203q78 0 123 31q45 30 44 82t-44 94t-179 109q-2 2 -4 2t-3 2q-115 -84 -115 -186q-1 -134 178 -134zM536 1050q-67 0 -103 -28t-36 -76t36 -80q36 -34 150 -90q106 60 106 147q0 127 -153 127zM71 302q0 199 201 331q-170 121 -170 294t127 266t313 93t304 -86
q118 -88 118 -254t-173 -279q103 -67 153 -143t50 -180q2 -169 -125 -270q-127 -100 -347 -100t-336 88q-115 88 -115 240z" />
    <glyph glyph-name="nine.osf" horiz-adv-x="1089" 
d="M525 760q-76 0 -119 -48t-43 -126q0 -76 41 -124t109 -47q68 0 124 32t78 95q-41 218 -190 218zM69 576q0 192 123 316q122 124 346 125q224 0 350 -162q126 -163 125 -471q0 -308 -159 -485t-424 -176q-173 0 -285 31l2 263l8 3q112 -47 264 -46q259 0 300 294
q-102 -99 -268 -99t-274 107q-108 108 -108 300z" />
    <glyph glyph-name="zero.sinf" horiz-adv-x="754" 
d="M377 -136q100 0 100 194t-100 195q-100 -1 -100 -195t100 -194zM702 54q0 -176 -90 -264t-237 -88q-146 0 -234 88q-89 88 -89 264t90 268q90 93 236 93t234 -92q90 -92 90 -269z" />
    <glyph glyph-name="one.sinf" horiz-adv-x="487" 
d="M186 -279v404l-145 -34v220l339 102h22v-692h-216z" />
    <glyph glyph-name="two.sinf" horiz-adv-x="679" 
d="M54 -279q0 194 190 331q88 64 112 88t24 48q0 47 -82 47q-128 0 -225 -67l-2 1v183q106 65 239 65t215 -49q82 -48 82 -140t-38 -143t-121 -105t-91 -88h270v-171h-573z" />
    <glyph glyph-name="three.sinf" horiz-adv-x="642" 
d="M596 -66q0 -104 -83 -167t-219 -63t-229 37v168l2 2q78 -37 206 -37t127 68q0 56 -80 56h-154v145h137q67 0 68 49q-1 56 -117 56t-178 -28l-2 2v167q102 28 215 28q285 0 284 -188q1 -84 -70 -140q93 -51 93 -155z" />
    <glyph glyph-name="four.sinf" horiz-adv-x="698" 
d="M374 -43v194l-134 -194h134zM652 -43v-138h-79v-98h-199v98h-348v97l363 492h184v-451h79z" />
    <glyph glyph-name="five.sinf" horiz-adv-x="655" 
d="M262 -296q-86 0 -197 26v173l2 2q102 -33 212 -33t110 72q0 60 -105 60t-211 -19l-4 4l26 415h471v-171h-305l-6 -82q34 6 84 5q266 0 266 -204q0 -116 -71 -176q-60 -52 -150 -66q-36 -6 -122 -6z" />
    <glyph glyph-name="six.sinf" horiz-adv-x="709" 
d="M374 -134q84 0 84 73q0 65 -77 65t-118 -65q27 -73 111 -73zM432 156q100 0 163 -56q64 -56 64 -162t-80 -171t-226 -65t-225 84q-80 84 -80 252t110 275q110 106 280 106q93 0 160 -19v-167l-6 -4q-61 20 -147 20q-151 0 -186 -152q73 59 173 59z" />
    <glyph glyph-name="seven.sinf" horiz-adv-x="619" 
d="M45 212v192h549v-110l-272 -573h-212l-2 3l249 488h-312z" />
    <glyph glyph-name="eight.sinf" horiz-adv-x="705" 
d="M248 -76q0 -71 102 -71t102 52q0 24 -29 45q-30 20 -73 35t-47 15t-5 2q-50 -30 -50 -78zM439 214q0 54 -80 54t-80 -46q0 -37 74 -63q34 -12 36 -14q50 32 50 69zM350 -296q-298 0 -298 205q0 103 106 160q-88 61 -88 155t82 147q81 53 202 53t201 -46t80 -142
t-101 -152q62 -36 90 -76t28 -96q0 -92 -80 -150t-222 -58z" />
    <glyph glyph-name="nine.sinf" horiz-adv-x="713" 
d="M255 171q1 -67 77 -67t124 30q-19 106 -115 106q-41 0 -64 -19q-22 -20 -22 -50zM294 -50q-102 0 -174 55t-72 163t78 180q78 71 224 71q145 0 228 -91t83 -254q0 -371 -363 -370q-130 0 -199 26v177l3 2q80 -37 187 -39q145 -2 165 121q-58 -41 -160 -41z" />
    <glyph glyph-name="zero.tf" horiz-adv-x="1066" 
d="M532 987q-92 0 -144 -98q-52 -99 -51 -281t51 -273t144 -91t146 92t52 274t-53 279q-53 98 -145 98zM534 1262q224 0 362 -168t138 -485t-140 -478q-138 -161 -364 -161t-362 161q-137 161 -136 476q0 315 139 485q140 170 363 170z" />
    <glyph glyph-name="one.tf" horiz-adv-x="1066" 
d="M493 0v840l-260 -105h-13v311l515 209h51v-1255h-293z" />
    <glyph glyph-name="two.tf" horiz-adv-x="1066" 
d="M91 0q0 177 91 320q90 142 250 278t199 180t39 97q0 121 -192 121q-108 0 -202 -33t-144 -67l-4 1l-1 267q160 99 394 98q178 0 308 -79q141 -87 141 -297q0 -116 -60 -198t-240 -226q-181 -155 -186 -213h521v-249h-914z" />
    <glyph glyph-name="three.tf" horiz-adv-x="1066" 
d="M482 -30q-218 0 -372 77v260l4 2q128 -84 318 -84q112 0 182 39q70 38 69 116q0 78 -61 111t-220 34l-117 2v227h117q223 0 224 129q0 125 -192 125t-298 -58l-4 1v250q182 63 364 63t302 -81t120 -247t-127 -266q181 -88 182 -282t-136 -306t-355 -112z" />
    <glyph glyph-name="four.tf" horiz-adv-x="1066" 
d="M627 438v363l-243 -363h243zM1031 438v-229h-130v-209h-274v209h-597v139l633 896h238v-806h130z" />
    <glyph glyph-name="five.tf" horiz-adv-x="1066" 
d="M508 -30q-209 0 -391 58v272l4 2q173 -74 356 -75q218 0 217 170q0 76 -56 118q-57 42 -161 42q-179 0 -345 -45l-5 6l39 722h763v-250h-519l-12 -199q65 15 149 15q207 0 326 -97t119 -294q0 -333 -322 -423q-78 -22 -162 -22z" />
    <glyph glyph-name="six.tf" horiz-adv-x="1066" 
d="M566 222q89 0 135 49t46 126t-41 125t-122 50q-81 0 -138 -47t-72 -134q47 -169 192 -169zM652 823q172 0 278 -104t105 -298t-127 -323q-126 -130 -356 -130t-357 152t-126 429q0 337 175 525t460 188q160 0 240 -31v-244l-8 -8q-91 32 -223 32q-285 0 -342 -298
q109 110 281 110z" />
    <glyph glyph-name="seven.tf" horiz-adv-x="1066" 
d="M108 957v277h912v-156l-469 -1078h-315l440 957h-568z" />
    <glyph glyph-name="eight.tf" horiz-adv-x="1066" 
d="M551 207q87 0 133 36q46 37 45 91t-47 90t-120 66q-74 29 -98 41q-97 -74 -97 -177q0 -147 184 -147zM706 903q0 112 -146 112t-147 -105q0 -43 39 -77t146 -79q108 61 108 149zM544 -30q-220 0 -342 93t-122 259q0 192 181 320q-145 110 -145 273t123 255q124 92 310 92
t311 -82t125 -246t-175 -279q110 -65 157 -137t48 -177q0 -163 -126 -267q-125 -104 -345 -104z" />
    <glyph glyph-name="nine.tf" horiz-adv-x="1066" 
d="M359 832q0 -78 42 -125t122 -48q130 0 211 78q-13 127 -67 199t-137 72t-127 -50q-44 -48 -44 -126zM456 413q-168 0 -280 106t-113 303q-1 198 125 320t352 122t357 -160q130 -160 131 -452q0 -340 -148 -510t-418 -170q-203 0 -319 50v263l10 5q121 -61 273 -62t220 69
q67 70 84 198q-106 -82 -274 -82z" />
    <glyph glyph-name="zero.dnom" horiz-adv-x="754" 
d="M377 143q100 1 100 195t-100 194t-100 -194t100 -195zM702 333q0 -177 -90 -265t-237 -87q-146 0 -234 88q-89 87 -89 263t90 269t236 93t234 -92q90 -92 90 -269z" />
    <glyph glyph-name="one.dnom" horiz-adv-x="487" 
d="M186 0v404l-145 -33v219l339 103h22v-693h-216z" />
    <glyph glyph-name="two.dnom" horiz-adv-x="679" 
d="M54 0q0 194 190 331q88 65 112 89t24 47q0 47 -77 47q-134 0 -230 -67l-2 2v182q106 65 239 65t215 -49t82 -141t-38 -142q-38 -51 -122 -107t-88 -86h268v-171h-573z" />
    <glyph glyph-name="three.dnom" horiz-adv-x="642" 
d="M596 214q0 -104 -83 -167t-219 -63t-229 36v168l2 2q78 -37 206 -37t127 69q0 56 -80 55h-154v146h137q67 0 68 48q-1 56 -117 56t-178 -28l-2 2v167q102 28 215 28q285 0 284 -188q1 -83 -70 -139q93 -51 93 -155z" />
    <glyph glyph-name="four.dnom" horiz-adv-x="698" 
d="M374 236v194l-134 -194h134zM652 236v-137h-79v-99h-199v99h-348v96l363 492h184v-451h79z" />
    <glyph glyph-name="five.dnom" horiz-adv-x="655" 
d="M262 -17q-86 0 -197 26v173l2 2q102 -34 212 -34t110 73q0 60 -105 60t-211 -19l-4 4l26 415h471v-171h-305l-6 -82q34 6 84 6q266 0 266 -205q0 -60 -20 -104q-53 -117 -201 -139q-36 -6 -122 -5z" />
    <glyph glyph-name="six.dnom" horiz-adv-x="709" 
d="M374 145q84 0 84 73q0 65 -77 65t-118 -65q27 -73 111 -73zM432 432q100 0 163 -55q64 -55 64 -161t-80 -170t-226 -64t-225 83q-80 85 -80 253t110 274t280 106q93 0 160 -18v-168l-6 -4q-61 20 -147 21q-153 0 -188 -157q75 60 175 60z" />
    <glyph glyph-name="seven.dnom" horiz-adv-x="619" 
d="M45 492v191h549v-110l-272 -573h-212l-2 4l249 488h-312z" />
    <glyph glyph-name="eight.dnom" horiz-adv-x="705" 
d="M248 203q0 -71 102 -71t102 54q0 24 -30 47q-31 22 -75 36t-45 16q-54 -32 -54 -82zM439 493q0 54 -79 54t-79 -46q0 -22 19 -36q19 -15 53 -27t36 -14q50 30 50 69zM652 192q0 -93 -79 -151t-221 -58t-222 51q-78 51 -78 153t108 163q-89 60 -89 154t81 146
q81 54 201 54t201 -46t81 -142t-101 -153q62 -35 90 -75t28 -96z" />
    <glyph glyph-name="nine.dnom" horiz-adv-x="713" 
d="M255 451q1 -67 77 -67t124 29q-19 106 -115 106q-41 0 -63 -19t-23 -49zM294 229q-102 0 -174 55q-72 56 -72 164t78 179t224 71q145 0 228 -91t83 -253q0 -371 -363 -371q-130 0 -199 26v177l3 2q80 -37 187 -39q145 -2 165 121q-58 -41 -160 -41z" />
    <glyph glyph-name="zero.numr" horiz-adv-x="754" 
d="M377 702q100 0 100 194t-100 195q-100 -1 -100 -195t100 -194zM375 540q-146 0 -234 88q-89 88 -89 263q0 176 90 269t236 93t234 -92q90 -92 90 -269t-90 -265q-91 -87 -237 -87z" />
    <glyph glyph-name="one.numr" horiz-adv-x="487" 
d="M186 559v404l-145 -34v220l339 102h22v-692h-216z" />
    <glyph glyph-name="two.numr" horiz-adv-x="679" 
d="M54 559q0 194 190 331q89 65 113 88q23 23 23 48q0 47 -77 46q-134 0 -230 -67l-2 2v183q106 65 239 65t215 -49q82 -48 82 -140t-38 -143t-122 -107t-88 -86h268v-171h-573z" />
    <glyph glyph-name="three.numr" horiz-adv-x="642" 
d="M596 772q0 -104 -83 -167t-219 -63t-229 37v168l2 1q78 -37 206 -37t127 69q0 56 -80 56h-154v145h137q67 0 68 49q-1 56 -117 56t-178 -28l-2 1v168q102 28 215 28q285 0 284 -188q1 -84 -70 -140q93 -51 93 -155z" />
    <glyph glyph-name="four.numr" horiz-adv-x="698" 
d="M374 795v194l-134 -194h134zM652 795v-138h-79v-98h-199v98h-348v97l363 492h184v-451h79z" />
    <glyph glyph-name="five.numr" horiz-adv-x="655" 
d="M262 542q-86 0 -197 26v173l2 2q102 -34 212 -34t110 73q0 60 -105 60t-211 -19l-4 4l26 415h471v-171h-305l-6 -82q34 6 84 5q266 0 266 -205q0 -60 -20 -104q-51 -115 -201 -137q-36 -6 -122 -6z" />
    <glyph glyph-name="six.numr" horiz-adv-x="709" 
d="M374 704q84 0 84 72q0 66 -77 66t-118 -66q27 -72 111 -72zM432 990q100 0 163 -54q64 -54 64 -160t-80 -171t-226 -65t-225 84q-80 84 -80 252t110 274t280 107q93 0 160 -19v-167l-6 -4q-61 20 -147 20q-153 0 -188 -156q75 59 175 59z" />
    <glyph glyph-name="seven.numr" horiz-adv-x="619" 
d="M45 1050v192h549v-110l-272 -573h-212l-2 3l249 488h-312z" />
    <glyph glyph-name="eight.numr" horiz-adv-x="705" 
d="M248 761q0 -70 102 -70t102 54q0 49 -105 83q-44 14 -45 15q-54 -32 -54 -82zM439 1052q0 54 -79 54t-79 -47q0 -37 72 -62q34 -12 36 -14q50 30 50 69zM652 750q0 -92 -79 -150t-221 -58t-222 51q-78 51 -78 153t108 163q-89 59 -89 153t81 147t201 53t201 -46t81 -142
t-101 -152q62 -36 90 -76t28 -96z" />
    <glyph glyph-name="nine.numr" horiz-adv-x="713" 
d="M255 1009q1 -67 77 -67t124 30q-19 106 -115 106q-41 0 -63 -20t-23 -49zM294 788q-102 0 -174 54t-72 164q0 109 78 180t224 71q145 1 228 -91t83 -254q0 -371 -363 -370q-130 0 -199 26v177l3 2q80 -37 187 -40q145 -2 165 122q-58 -41 -160 -41z" />
    <glyph glyph-name="zero.sups" horiz-adv-x="754" 
d="M377 981q100 1 100 195t-100 194t-100 -194t100 -195zM702 1171q0 -177 -90 -265t-237 -87q-146 0 -234 88q-89 87 -89 263t90 269t236 93t234 -92q90 -92 90 -269z" />
    <glyph glyph-name="one.sups" horiz-adv-x="487" 
d="M186 838v404l-145 -34v220l339 102h22v-692h-216z" />
    <glyph glyph-name="two.sups" horiz-adv-x="679" 
d="M54 838q0 194 190 331q88 65 112 89t24 47q0 47 -77 47q-134 0 -230 -67l-2 2v182q106 65 239 65t215 -49t82 -141t-38 -142q-38 -51 -122 -107t-88 -86h268v-171h-573z" />
    <glyph glyph-name="three.sups" horiz-adv-x="642" 
d="M596 1052q0 -104 -83 -168t-219 -63q-136 0 -229 37v168l2 2q78 -38 206 -38t127 69q0 56 -80 56h-154v145h137q67 0 68 49q-1 56 -117 56t-178 -28l-2 2v167q102 28 215 28q285 0 284 -188q1 -84 -70 -140q93 -50 93 -154z" />
    <glyph glyph-name="four.sups" horiz-adv-x="698" 
d="M374 1074v194l-134 -194h134zM652 1074v-138h-79v-98h-199v98h-348v97l363 492h184v-451h79z" />
    <glyph glyph-name="five.sups" horiz-adv-x="655" 
d="M262 821q-86 0 -197 26v173l2 2q102 -34 212 -34t110 73q0 60 -105 60t-211 -19l-4 4l26 415h471v-171h-305l-6 -82q34 6 84 5q266 0 266 -204q0 -116 -71 -176q-60 -53 -150 -67q-36 -6 -122 -5z" />
    <glyph glyph-name="six.sups" horiz-adv-x="709" 
d="M374 983q84 0 84 73q0 65 -77 65t-118 -65q27 -73 111 -73zM432 1270q100 0 163 -55q64 -55 64 -161t-80 -170q-80 -65 -226 -65t-225 84q-80 85 -80 253t110 274t280 106q93 0 160 -19v-167l-6 -4q-61 20 -147 21q-153 0 -188 -157q75 60 175 60z" />
    <glyph glyph-name="seven.sups" horiz-adv-x="619" 
d="M45 1329v192h549v-110l-272 -573h-212l-2 4l249 487h-312z" />
    <glyph glyph-name="eight.sups" horiz-adv-x="705" 
d="M248 1041q0 -71 102 -71t102 54q0 24 -30 47q-31 22 -75 36t-45 16q-54 -32 -54 -82zM439 1331q0 54 -79 54t-79 -46q0 -38 72 -63q34 -12 36 -14q50 30 50 69zM352 821q-142 0 -222 51q-78 51 -78 153t108 163q-89 60 -89 154t81 146q81 54 201 54t201 -46t81 -142
t-101 -153q118 -66 118 -165t-79 -157t-221 -58z" />
    <glyph glyph-name="nine.sups" horiz-adv-x="713" 
d="M255 1288q1 -67 77 -67t124 30q-19 106 -115 106q-41 0 -64 -19q-22 -20 -22 -50zM294 1067q-102 0 -174 55q-72 56 -72 164t78 179t224 71q145 0 228 -91t83 -253q0 -371 -363 -371q-130 0 -199 26v177l3 2q80 -37 187 -39q145 -2 165 121q-58 -41 -160 -41z" />
    <glyph glyph-name="zero.smcp" horiz-adv-x="1225" 
d="M613 760q-109 0 -171 -70t-62 -196t60 -193q60 -66 173 -66t173 65q60 64 60 192t-62 198q-61 70 -171 70zM612 -26q-243 0 -390 131q-148 131 -148 383t150 392t390 140t389 -137q148 -137 148 -390t-148 -386t-391 -133z" />
    <glyph glyph-name="one.smcp" horiz-adv-x="700" 
d="M283 0v627l-225 -61v289l461 149h53v-1004h-289z" />
    <glyph glyph-name="two.smcp" horiz-adv-x="1035" 
d="M74 0q0 183 81 276t197 173q168 99 202 133t34 77q0 99 -170 100t-316 -94l-5 3l-2 267q155 85 355 85t324 -82t123 -253q0 -108 -65 -190q-66 -82 -180 -150t-126 -78t-44 -23v-6q34 11 54 11h408v-249h-870z" />
    <glyph glyph-name="three.smcp" horiz-adv-x="966" 
d="M896 285q0 -149 -126 -229t-334 -80t-354 61v248l4 2q149 -75 337 -75t188 99q1 52 -49 75t-173 24h-100v197l80 2q99 1 139 19t41 59q-1 84 -169 84t-276 -64l-5 6v237q153 72 333 72t296 -72q114 -72 114 -222q0 -116 -101 -192q155 -74 155 -251z" />
    <glyph glyph-name="four.smcp" horiz-adv-x="1091" 
d="M600 363v270l-215 -270h215zM1031 363v-208h-167v-155h-264v155h-559v130l598 711h225v-633h167z" />
    <glyph glyph-name="five.smcp" horiz-adv-x="997" 
d="M455 207q191 0 191 121q0 110 -198 110t-338 -21l18 575h740v-229h-497l-4 -124q65 9 134 9q426 0 426 -315q0 -97 -43 -171q-73 -125 -259 -169q-76 -19 -152 -19q-210 0 -385 71v242l5 2q171 -82 362 -82z" />
    <glyph glyph-name="six.smcp" horiz-adv-x="1085" 
d="M581 197q69 0 110 34t41 99q0 128 -140 128q-61 0 -114 -36t-72 -102q60 -123 175 -123zM681 678q151 0 242 -87t91 -249t-124 -268q-125 -106 -337 -106q-213 0 -343 132t-130 360q0 268 172 415t441 147q134 0 221 -26v-225l-11 -6q-84 32 -217 32q-133 1 -219 -75
t-95 -199q91 155 309 155z" />
    <glyph glyph-name="seven.smcp" horiz-adv-x="940" 
d="M45 743v268h862v-156l-375 -855h-299l-4 7l339 736h-523z" />
    <glyph glyph-name="eight.smcp" horiz-adv-x="1068" 
d="M541 188q161 0 161 95q0 47 -38 73t-146 50l-66 17q-76 -56 -72 -127q0 -108 161 -108zM681 713q1 88 -139 88t-140 -77q0 -37 40 -65t161 -58q78 52 78 112zM522 -26q-220 0 -336 73q-115 73 -115 212t178 247q-145 93 -145 230q0 138 126 212t311 74t303 -69t118 -195
t-128 -226q88 -40 124 -98t36 -142q2 -146 -125 -232t-347 -86z" />
    <glyph glyph-name="nine.smcp" horiz-adv-x="1089" 
d="M363 664q-1 -62 35 -94t101 -32t119 34t71 98q-60 123 -179 123q-65 0 -106 -34t-41 -95zM536 1022q212 0 346 -130t133 -361q0 -270 -159 -416t-424 -147q-155 0 -250 26v226l10 5q82 -30 216 -30q134 -1 220 75t96 199q-93 -151 -311 -151q-145 0 -239 87t-94 246
t122 265t334 106z" />
    <glyph glyph-name="exclam.case" horiz-adv-x="597" 
d="M458 118q0 -66 -42 -110t-121 -45q-79 1 -121 45t-42 110t42 108t121 42t121 -42t42 -108zM169 397l-20 891h300l-21 -891h-259z" />
    <glyph glyph-name="exclamdown.case" horiz-adv-x="599" 
d="M151 -61l18 882h261l19 -882h-298zM304 951q-79 0 -121 41t-42 108t42 112t121 45t121 -46t42 -111t-42 -107t-121 -42z" />
    <glyph glyph-name="question.case" horiz-adv-x="876" 
d="M335 -20q-80 0 -121 42t-41 108q0 67 41 111t121 44t122 -44t42 -111q0 -66 -42 -108t-122 -42zM478 916q0 123 -160 123q-132 0 -230 -60l-4 2l-2 261q116 58 286 58t290 -90t120 -260q0 -114 -49 -188t-138 -140t-110 -112q-21 -47 -21 -104l-265 -4q-3 132 35 206
t139 142q61 47 85 81t24 85z" />
    <glyph glyph-name="questiondown.case" horiz-adv-x="876" 
d="M559 216q132 0 230 60l4 -2l2 -261q-115 -58 -285 -58q-170 -1 -291 89q-120 90 -120 261q0 113 49 187t154 154q73 52 94 99t21 104l264 4q2 -133 -35 -207t-138 -141q-61 -47 -85 -81t-25 -85q0 -123 161 -123zM542 1275q80 0 121 -42q41 -43 41 -109t-41 -110
t-121 -44t-122 44t-42 111t42 109t122 41z" />
    <glyph glyph-name="question.ss01" horiz-adv-x="863" 
d="M316 -15q-79 0 -121 42t-42 109t42 111q42 43 121 43t121 -44q41 -44 41 -110q0 -67 -42 -109t-120 -42zM324 402q-82 0 -158 17v221l9 6q84 -13 119 -13q91 0 157 57q65 56 65 156t-59 153t-171 53t-195 -34l-9 8v221q97 41 244 41q209 0 338 -110t129 -316
q1 -208 -129 -334t-340 -126z" />
    <glyph glyph-name="questiondown.ss01" horiz-adv-x="845" 
d="M532 577q82 0 159 -17v-221l-10 -6q-84 13 -119 13q-91 0 -156 -56t-65 -157q1 -100 59 -153t171 -53t194 34l10 -8v-221q-97 -41 -244 -41q-209 0 -338 110q-129 109 -129 317t128 334q130 126 340 125zM541 994q79 0 121 -42t42 -109t-42 -111t-121 -43q-79 0 -121 44
q-42 45 -42 111t42 108t121 42z" />
    <glyph glyph-name="bullet.ss02" horiz-adv-x="757" 
d="M374 127l-272 357l272 363l279 -363z" />
    <glyph glyph-name="braceleft.case" horiz-adv-x="720" 
d="M546 -231q-155 0 -241 78t-85 218v248q0 88 -54 136t-103 48v250q48 0 103 44q54 45 54 127v247q0 140 85 218q86 78 241 79h102v-224h-67q-104 0 -104 -87v-298q-1 -101 -65 -165t-129 -64v-15q65 0 129 -64t65 -165v-300q0 -88 106 -87h65v-224h-102z" />
    <glyph glyph-name="braceright.case" horiz-adv-x="720" 
d="M503 918q0 -82 53 -127t101 -44v-250q-47 0 -101 -48t-53 -136v-248q0 -140 -86 -218t-240 -78h-104v224h65q108 0 108 87v300q0 101 64 165t129 64v15q-67 0 -130 64t-63 165v298q0 88 -106 87h-67v224h104q155 0 241 -78t85 -219v-247z" />
    <glyph glyph-name="bracketleft.case" horiz-adv-x="687" 
d="M618 1240h-199v-1249h199v-220h-458v1689h458v-220z" />
    <glyph glyph-name="bracketright.case" horiz-adv-x="687" 
d="M69 1460h458v-1691h-458v222h199v1249h-199v220z" />
    <glyph glyph-name="parenleft.case" horiz-adv-x="662" 
d="M78 622q0 489 293 763q66 61 137 99l99 -229q-251 -177 -251 -638t251 -647l-99 -225q-164 71 -286 272q-144 231 -144 605z" />
    <glyph glyph-name="parenright.case" horiz-adv-x="662" 
d="M309 616q0 460 -253 639l99 229q211 -117 325 -353q105 -209 105 -527q0 -170 -39 -326q-66 -267 -242 -433q-71 -66 -149 -100l-99 225q253 186 253 646z" />
    <glyph glyph-name="emdash.case" horiz-adv-x="1647" 
d="M112 490v247h1424v-247h-1424z" />
    <glyph glyph-name="endash.case" horiz-adv-x="1027" 
d="M112 490v247h804v-247h-804z" />
    <glyph glyph-name="hyphen.case" horiz-adv-x="789" 
d="M112 490v247h566v-247h-566z" />
    <glyph glyph-name="uni00AD.case" horiz-adv-x="789" 
d="M112 490v247h566v-247h-566z" />
    <glyph glyph-name="guillemotleft.case" horiz-adv-x="1085" 
d="M1015 976v-25l-224 -327l226 -352v-19h-280l-242 363l248 360h272zM568 976v-25l-224 -327l226 -352v-19h-280l-242 363l248 360h272z" />
    <glyph glyph-name="guillemotright.case" horiz-adv-x="1089" 
d="M519 255v24l224 328l-225 352v18h279l242 -363l-248 -359h-272zM69 255v24l223 328l-225 352v18h279l242 -363l-247 -359h-272z" />
    <glyph glyph-name="guilsinglleft.case" horiz-adv-x="636" 
d="M560 977v-24l-216 -327l218 -352v-19h-272l-240 363l248 359h262z" />
    <glyph glyph-name="guilsinglright.case" horiz-adv-x="638" 
d="M69 255v24l223 328l-225 352v18h279l242 -363l-247 -359h-272z" />
    <glyph glyph-name="cent.osf" horiz-adv-x="1003" 
d="M726 -182h-285v193q-175 47 -273 171t-98 319t98 327q98 131 275 176v197h285v-179q102 -11 175 -37v-255l-9 -8q-122 45 -240 45t-190 -68t-73 -187q0 -119 74 -191t199 -72t233 49l12 -8v-258q-86 -30 -183 -39v-175z" />
    <glyph glyph-name="currency.osf" horiz-adv-x="1340" 
d="M432 494q0 -98 68 -166t167 -69q99 0 167 69q68 68 67 166q0 98 -67 167q-68 69 -168 69t-167 -69t-67 -167zM1160 493q0 -121 -56 -229l168 -165l-207 -207l-164 168q-107 -60 -231 -60t-232 56l-162 -164l-205 207l160 160q-60 110 -60 237t60 232l-160 160l205 207
l162 -162q106 56 228 56t235 -60l164 166l207 -207l-168 -167q56 -107 56 -228z" />
    <glyph glyph-name="dollar.osf" horiz-adv-x="949" 
d="M873 303q0 -237 -242 -303v-177h-283v162q-128 11 -260 63v246l3 2q156 -99 334 -99t178 79q0 41 -41 62t-182 62q-289 91 -289 315q0 115 70 193t195 112v183h284v-168q117 -9 200 -43v-247l-4 -2q-112 58 -274 58t-162 -79q0 -41 38 -61q38 -21 168 -63
q267 -86 267 -295z" />
    <glyph glyph-name="Euro.osf" horiz-adv-x="1027" 
d="M732 233q106 0 193 37l11 -7l-44 -257q-82 -32 -185 -32q-216 0 -364 112.5t-175 315.5h-125l48 205h78q32 199 174.5 310t356.5 111q140 0 251 -43l-57 -244l-8 -6q-69 34 -154 34q-194 0 -244 -162h361l-48 -205h-315q49 -169 246 -169z" />
    <glyph glyph-name="uni20BD.osf" horiz-adv-x="1010" 
d="M469 557h73q158 0 158 115t-143 116q-54 0 -88 -4v-227zM581 378h-112v-99h222v-164h-222v-115h-305v115h-144l2 164h142v99h-144l2 179h142v430q222 13 389 11q430 -4 432 -313q2 -155 -110.5 -231t-293.5 -76z" />
    <glyph glyph-name="uni20A8.osf" horiz-adv-x="830" 
d="M700 0h-357l-237 272v199h54q153 0 201 89h-288l33 172h257q-47 93 -207 93h-87l37 186h743l-41 -186h-190q37 -43 50 -93h181l-37 -172h-144q-41 -192 -240 -257l272 -294v-9z" />
    <glyph glyph-name="sterling.osf" horiz-adv-x="1068" 
d="M935 236v-236h-805l-7 15q115 145 115 324q0 22 -3 59h-159v203h129q2 210 133 323t330 113q145 0 242 -37v-246l-9 -6q-88 37 -186 38q-209 0 -209 -177v-8h302v-203h-274q-2 -78 -37 -162h438z" />
    <glyph glyph-name="yen.osf" horiz-adv-x="1038" 
d="M935 493v-279h-270v-214h-283v214h-265v279h181l-296 518h309l218 -428l216 428h294l-294 -518h190z" />
    <glyph glyph-name="arrowup.ss01" horiz-adv-x="1187" 
d="M78 145v380l516 518l516 -516v-382l-516 525z" />
    <glyph glyph-name="uni2197.ss01" horiz-adv-x="1187" 
d="M1033 1035v-732l-270 -268l6 734l-735 -4l269 270h730z" />
    <glyph glyph-name="arrowright.ss01" horiz-adv-x="1187" 
d="M540 56h-382l523 516l-523 517h382l516 -517z" />
    <glyph glyph-name="uni2198.ss01" horiz-adv-x="1187" 
d="M1013 158h-730l-270 270l735 -4l-5 734l270 -268v-732z" />
    <glyph glyph-name="arrowdown.ss01" horiz-adv-x="1187" 
d="M78 1069l516 -525l516 525v-382l-516 -516l-516 518v380z" />
    <glyph glyph-name="uni2199.ss01" horiz-adv-x="1187" 
d="M194 138v731l270 269l-6 -734l735 4l-270 -270h-729z" />
    <glyph glyph-name="arrowleft.ss01" horiz-adv-x="1187" 
d="M652 56l-516 516l516 517h381l-523 -517l523 -516h-381z" />
    <glyph glyph-name="uni2196.ss01" horiz-adv-x="1187" 
d="M201 1035h730l270 -270l-736 4l6 -734l-270 268v732z" />
    <glyph glyph-name="ampersand.alt" horiz-adv-x="1314" 
d="M1275 795v-209h-123q-20 -300 -153 -458t-433 -160q-223 0 -358 98t-135 271q0 227 221 343q-125 80 -125 244t109 258t284 95q112 0 194 -30v-243l-4 -2q-78 34 -152 34q-150 -1 -151 -122q0 -110 164 -119v-209q-128 -4 -188 -59q-59 -56 -59 -134t60 -125
q58 -47 170 -46q153 0 218 90t70 274h-141v209h532z" />
    <glyph glyph-name="at.case" horiz-adv-x="1536" 
d="M743 577h104l-43 183l-7 52h-2l-7 -52zM328 626q0 -175 82 -300l251 685h272l175 -425q19 -39 47 -39t49 42t21 130q-2 195 -119 301t-313 106q-197 0 -331 -141t-134 -359zM810 130q188 0 315 110h9l121 -169q-166 -155 -445 -155q-333 0 -532 194q-198 194 -198 510
t202 519q202 202 504 202t495 -168q192 -168 192 -439q0 -184 -92 -311q-93 -127 -261 -127t-224 128h-194l-30 -102h-259q128 -192 397 -192z" />
    <glyph glyph-name="ampersand.smcp.alt" horiz-adv-x="1105" 
d="M1061 637v-183h-121q-32 -477 -486 -476q-169 0 -276 81t-107 217q0 175 160 268q-88 76 -88 202q-1 126 91 200q92 76 243 76q102 0 173 -26v-214l-2 -2q-72 32 -134 32q-128 0 -127 -86q0 -86 131 -89v-185q-102 -2 -146 -44q-43 -43 -42 -99q0 -123 167 -123
q108 0 159 64t59 204h-104v183h450z" />
    <glyph glyph-name="at.smcp" horiz-adv-x="1536" 
d="M743 424h104l-43 183l-7 54h-2l-7 -54zM328 473q0 -175 82 -300l251 685h272l175 -422q17 -41 46 -41t50 43t21 130q-2 194 -119 301t-313 107q-197 0 -331 -142t-134 -361zM810 -235q-335 0 -533 193q-197 194 -197 510t202 518t504 202t495 -168q192 -168 192 -437
q0 -186 -92 -312t-247 -126q-184 0 -237 127h-195l-30 -103h-259q128 -192 397 -191q190 0 315 111h9l121 -169q-164 -155 -445 -155z" />
    <glyph glyph-name="ampersand.smcp" horiz-adv-x="1137" 
d="M331 314q1 -66 41 -98q40 -34 112 -34t129 38l-205 208l-6 8q-71 -56 -71 -122zM1132 0h-303l-71 71q-125 -93 -303 -93t-283 74t-105 207q0 216 207 326q-73 95 -73 191t84 172q83 74 221 74t239 -35v-214l-4 -2q-88 41 -179 41t-91 -75q0 -41 65 -102l205 -216
q26 93 26 199h222q0 -216 -84 -372l227 -240v-6z" />
    <glyph glyph-name="cent.smcp" horiz-adv-x="1003" 
d="M726 -182h-285v193q-175 47 -273 171t-98 319t98 327q98 131 275 176v197h285v-179q102 -11 175 -37v-255l-9 -8q-122 45 -240 45t-190 -68t-73 -187q0 -119 74 -191t199 -72t233 49l12 -8v-258q-86 -30 -183 -39v-175z" />
    <glyph glyph-name="currency.smcp" horiz-adv-x="1340" 
d="M432 494q0 -98 68 -166t167 -69q99 0 167 69q68 68 67 166q0 98 -67 167q-68 69 -168 69t-167 -69t-67 -167zM1160 493q0 -121 -56 -229l168 -165l-207 -207l-164 168q-107 -60 -231 -60t-232 56l-162 -164l-205 207l160 160q-60 110 -60 237t60 232l-160 160l205 207
l162 -162q106 56 228 56t235 -60l164 166l207 -207l-168 -167q56 -107 56 -228z" />
    <glyph glyph-name="dollar.smcp" horiz-adv-x="949" 
d="M873 303q0 -237 -242 -303v-177h-283v162q-128 11 -260 63v246l3 2q156 -99 334 -99t178 79q0 41 -41 62t-182 62q-289 91 -289 315q0 115 70 193t195 112v183h284v-168q117 -9 200 -43v-247l-4 -2q-112 58 -274 58t-162 -79q0 -41 38 -61q38 -21 168 -63
q267 -86 267 -295z" />
    <glyph glyph-name="Euro.smcp" horiz-adv-x="1027" 
d="M732 233q106 0 193 37l11 -7l-44 -257q-82 -32 -185 -32q-216 0 -364 112.5t-175 315.5h-125l48 205h78q32 199 174.5 310t356.5 111q140 0 251 -43l-57 -244l-8 -6q-69 34 -154 34q-194 0 -244 -162h361l-48 -205h-315q49 -169 246 -169z" />
    </font>
</defs>
</svg>
