<?xml version="1.0" standalone="no"?>
<!DOCTYPE svg PUBLIC "-//W3C//DTD SVG 1.1//EN" "http://www.w3.org/Graphics/SVG/1.1/DTD/svg11.dtd" >
<svg xmlns="http://www.w3.org/2000/svg">
<metadata>
Created by FontPrep 20130207 at Fri May 26 15:12:25 2017
 By Lizzy Knight
Copyright (c) 2017 by Alfonso Garci'a - Latinotype Team. All rights reserved.
</metadata>
<defs>
<font id="9a877582d8440c80679a665bcabe717f" horiz-adv-x='1024' >
  <font-face 
    font-family="RawsonPro-ExtraBlackIt"
    font-weight="900"
    font-style="italic"
    font-stretch="normal"
    units-per-em="2048"
    panose-1="0 0 10 0 0 0 0 0 0 0"
    ascent="1638"
    descent="-410"
    x-height="972"
    cap-height="1234"
    bbox="-1307 -562 2502 1931"
    underline-thickness="93"
    underline-position="-93"
    slope="-7.5"
    unicode-range="U+0020-FB02"
  />
<missing-glyph horiz-adv-x="904" 
 />
    <glyph glyph-name="fi" unicode="fi" horiz-adv-x="1293" 
d="M741 0l140 972h383l-139 -972h-384zM728 1354q78 0 128 -15l-44 -335l-4 -2q-34 11 -61 11q-110 0 -129 -127l-2 -13h142l-39 -300h-146l-128 -880h-385l126 880h-126l39 300h130q30 228 168 354q137 127 331 127zM1124 1501q93 0 151 -59q58 -60 58 -154t-70 -160
t-162 -67q-92 0 -151 59q-58 60 -58 154t70 160t162 67z" />
    <glyph glyph-name="fl" unicode="fl" horiz-adv-x="1236" 
d="M931 1335h385l-190 -1335h-383zM732 1354q63 0 128 -13l-48 -337l-4 -2q-24 11 -58 11q-115 0 -132 -127l-2 -13h125l-39 -296h-129l-128 -884h-385l128 884h-128l39 296h134q27 228 165 355q138 126 334 126z" />
    <glyph glyph-name=".notdef" horiz-adv-x="904" 
 />
    <glyph glyph-name=".null" 
 />
    <glyph glyph-name="nonmarkingreturn" horiz-adv-x="681" 
 />
    <glyph glyph-name="space" unicode=" " horiz-adv-x="394" 
 />
    <glyph glyph-name="exclam" unicode="!" horiz-adv-x="580" 
d="M248 344q90 0 139 -46t49 -126q0 -78 -57 -140t-148 -62t-139 47q-47 47 -47 125t56 140q57 62 147 62zM125 469l95 853h378l-149 -853h-324z" />
    <glyph glyph-name="quotedbl" unicode="&#x22;" horiz-adv-x="794" 
d="M488 726l54 514h266l24 -28l-152 -486h-192zM140 726l54 514h266l26 -28l-155 -486h-191z" />
    <glyph glyph-name="numbersign" unicode="#" horiz-adv-x="1180" 
d="M672 492l43 145h-171l-43 -145h171zM1119 637h-155l-42 -145h182l-35 -250h-222l-59 -201h-250l60 201h-172l-59 -201h-250l60 201h-134l33 250h175l43 145h-201l35 247h241l59 201h248l-60 -201h173l60 201h249l-59 -201h115z" />
    <glyph glyph-name="dollar" unicode="$" horiz-adv-x="945" 
d="M400 376q131 0 131 44q0 20 -17 34q-17 15 -158 60q-238 76 -239 266q0 130 78 222t220 132l30 207h333l-26 -185q119 -11 184 -43l-39 -307l-1 -2q-41 28 -126 46q-84 18 -170 18t-86 -39q0 -15 27 -29t114 -44q225 -78 226 -264q-1 -138 -75 -229t-214 -129l-28 -195
h-328l27 180q-106 15 -229 62l42 299l4 2q147 -106 320 -106z" />
    <glyph glyph-name="percent" unicode="%" horiz-adv-x="1576" 
d="M1156 207q88 0 88 143q0 101 -77 101q-93 0 -93 -148q0 -96 82 -96zM1506 354q0 -160 -104 -262t-255 -103q-151 0 -243 75t-92 235q0 161 104 265t254 104t243 -77t93 -237zM445 788q88 0 87 141q0 102 -76 102q-47 0 -70 -41t-23 -106q0 -96 82 -96zM173 24l1011 1195
h272l-1009 -1195h-274zM436 568q-151 0 -243 75t-92 236t104 265t254 103q150 0 242 -76q92 -77 92 -237t-103 -263t-254 -103z" />
    <glyph glyph-name="ampersand" unicode="&#x26;" horiz-adv-x="1293" 
d="M397 380q1 -43 29 -69t81 -26t102 15l-145 208q-67 -58 -67 -128zM426 -34q-180 0 -290 81t-110 255q0 276 285 424q-65 112 -65 225q0 161 118 253t330 92q134 0 259 -50l-41 -302l-5 -2q-117 41 -227 41h-6q-41 0 -49 -8q-9 -8 -9 -28t131 -217l93 -140q30 89 50 222
h326q-37 -289 -186 -505l206 -307h-417l-44 63q-169 -97 -349 -97z" />
    <glyph glyph-name="quotesingle" unicode="'" horiz-adv-x="448" 
d="M140 726l54 514h266l26 -28l-155 -486h-191z" />
    <glyph glyph-name="parenleft" unicode="(" horiz-adv-x="688" 
d="M47 408q0 586 379 931q99 89 216 152l106 -266q-333 -272 -333 -819q0 -330 145 -495l-178 -261q-335 264 -335 758z" />
    <glyph glyph-name="parenright" unicode=")" horiz-adv-x="690" 
d="M296 752q0 333 -141 495l178 265q129 -74 231 -272t103 -488q0 -214 -61 -408q-101 -321 -345 -545q-97 -88 -188 -129l-108 265q117 92 224 288t107 529z" />
    <glyph glyph-name="asterisk" unicode="*" horiz-adv-x="962" 
d="M488 536l-32 24l60 298l18 21l52 13l27 -9l124 -261l-13 -26zM292 583l-141 169l9 43l276 136l26 -4l31 -35v-28l-173 -278zM849 737l-220 159l-5 27l18 49l25 18l299 15l17 -24l-93 -227zM436 953l-324 -13l5 23l95 223l41 20l239 -156l-34 -80zM668 1013l-28 4l-29 37
l-2 28l175 273l31 6l140 -169l-11 -41zM516 1050l-26 11l-121 261l11 28l234 61l36 -24l-62 -300l-20 -24z" />
    <glyph glyph-name="plus" unicode="+" horiz-adv-x="1024" 
d="M1000 668l-34 -240h-340l-51 -352h-245l52 352h-343l35 240h341l52 354h242l-50 -354h341z" />
    <glyph glyph-name="comma" unicode="," horiz-adv-x="515" 
d="M-39 -281q63 192 86 370q11 71 16 192l291 32l35 -54q-19 -143 -79 -291t-139 -249h-210z" />
    <glyph glyph-name="hyphen" unicode="-" horiz-adv-x="772" 
d="M82 387l45 311h579l-41 -311h-583z" />
    <glyph glyph-name="period" unicode="." horiz-adv-x="512" 
d="M393 168q0 -76 -55 -138q-54 -62 -142 -62t-133 46t-45 123t55 138q53 61 141 61t134 -46q46 -45 45 -122z" />
    <glyph glyph-name="slash" unicode="/" horiz-adv-x="984" 
d="M-65 -231l802 1646h341l-802 -1646h-341z" />
    <glyph glyph-name="zero" unicode="0" horiz-adv-x="1239" 
d="M603 289q93 0 146 120t53 333t-121 213q-101 0 -155 -126t-53 -283q-1 -157 29 -207t101 -50zM1203 735q0 -373 -179 -569t-433 -196t-387 130t-133 395q0 188 52 340q95 279 335 393q108 51 225 51q249 0 385 -137t135 -407z" />
    <glyph glyph-name="one" unicode="1" horiz-adv-x="796" 
d="M220 0l111 761l-245 -94l-10 5l56 395l579 203h56l-181 -1270h-366z" />
    <glyph glyph-name="two" unicode="2" horiz-adv-x="1098" 
d="M665 870q0 42 -31 58t-126 16t-198 -35t-157 -73l-8 4l41 327q188 110 445 110q161 0 291 -70t132 -250q0 -54 -2 -89q-2 -36 -17 -72t-23 -54t-51 -61t-132 -112q-88 -70 -135 -109q-138 -115 -141 -151h452l-44 -309h-978q30 201 143 344t339 313q132 99 166 135t34 78
z" />
    <glyph glyph-name="three" unicode="3" horiz-adv-x="1018" 
d="M361 -30q-209 0 -350 71l47 315l7 3q102 -69 310 -69t208 125q0 82 -116 86l-167 4l33 277h88q169 0 169 93q0 47 -32 63t-104 17q-182 0 -296 -48l-7 3l43 311q134 58 376 58q178 0 288 -75q110 -74 110 -246t-154 -284q127 -78 126 -238q0 -216 -141 -341t-438 -125z
" />
    <glyph glyph-name="four" unicode="4" horiz-adv-x="1156" 
d="M441 456h164l37 251zM1084 456l-38 -275h-139l-26 -181h-345l26 181h-592l34 176l757 896h300l-115 -797h138z" />
    <glyph glyph-name="five" unicode="5" horiz-adv-x="1053" 
d="M417 289q186 0 186 130q0 104 -152 104q-184 0 -354 -48l-6 7l147 773h792l-47 -309h-488l-26 -129q47 13 131 13q175 0 278 -80t103 -249q0 -125 -40 -223q-41 -98 -101 -154q-168 -155 -461 -154q-189 0 -357 49l47 329l7 4q155 -63 341 -63z" />
    <glyph glyph-name="six" unicode="6" horiz-adv-x="1139" 
d="M557 281q155 0 154 157q0 48 -28 78t-87 30q-123 0 -170 -142q11 -54 46 -88t85 -35zM717 856q359 0 359 -385q0 -203 -141 -353t-386 -150q-486 0 -486 494q0 395 217 606t556 211q173 0 261 -26l-43 -309l-8 -4q-110 26 -238 26q-235 0 -330 -188q107 78 239 78z" />
    <glyph glyph-name="seven" unicode="7" horiz-adv-x="990" 
d="M54 0l512 897h-462l49 350h854l32 -199l-588 -1048h-397z" />
    <glyph glyph-name="eight" unicode="8" horiz-adv-x="1126" 
d="M541 257q147 0 148 87q0 35 -36 67t-147 74q-15 7 -22 10q-89 -63 -89 -147q-1 -91 146 -91zM635 974q-114 0 -114 -73q0 -60 114 -113q114 50 113 122q1 64 -113 64zM1043 406q-1 -194 -147 -315t-389 -121t-357 83t-113 230q0 220 220 357q-108 104 -108 236t75 226
q141 175 416 175t394 -130q68 -74 68 -188q0 -179 -212 -298q153 -104 153 -255z" />
    <glyph glyph-name="nine" unicode="9" horiz-adv-x="1148" 
d="M584 706q105 0 166 33v11q0 209 -126 209q-73 0 -109 -47t-37 -108q1 -98 106 -98zM691 1279q203 0 313 -132t111 -371q0 -400 -182 -604t-507 -204q-233 0 -350 51l49 329l11 6q121 -64 269 -64t217 44t99 141q-110 -73 -263 -73t-254 91t-102 254q0 231 152 381
t437 151z" />
    <glyph glyph-name="colon" unicode=":" horiz-adv-x="584" 
d="M236 -32q-98 0 -148 48t-49 128q0 80 54 140t153 59t147 -49t48 -130t-54 -138q-53 -58 -151 -58zM324 637q-98 0 -147 46q-49 47 -49 128t54 139t152 59q98 0 147 -48q49 -47 49 -129t-53 -138q-55 -56 -153 -57z" />
    <glyph glyph-name="semicolon" unicode=";" horiz-adv-x="556" 
d="M-19 -281q91 261 105 562l288 32l37 -54q-20 -143 -80 -291t-137 -249h-213zM308 631q-88 0 -132 46t-44 123q0 78 54 138t142 60t134 -45t44 -122q0 -77 -55 -139t-143 -61z" />
    <glyph glyph-name="less" unicode="&#x3c;" horiz-adv-x="923" 
d="M357 566l49 -22l424 -281l-152 -224l-635 410l33 229l751 413l93 -222l-510 -283z" />
    <glyph glyph-name="equal" unicode="=" horiz-adv-x="1145" 
d="M58 205l31 244h950l-35 -244h-946zM119 637l36 246h945l-33 -246h-948z" />
    <glyph glyph-name="greater" unicode="&#x3e;" horiz-adv-x="923" 
d="M261 1091l640 -413l-33 -227l-754 -414l-92 224l514 281l49 18l-49 23l-422 283z" />
    <glyph glyph-name="question" unicode="?" horiz-adv-x="837" 
d="M482 170q0 -78 -58 -140t-151 -62q-92 0 -141 47q-48 47 -48 126t57 140q58 61 150 61q91 0 141 -46q50 -47 50 -126zM473 918q-1 78 -115 77t-211 -45l-4 1l45 328q120 43 284 43t277 -80t113 -227t-59 -228t-176 -160t-138 -136q-8 -21 -14 -57l-330 -6q17 222 199 344
q84 56 106 82t23 64z" />
    <glyph glyph-name="at" unicode="@" horiz-adv-x="1554" 
d="M702 460q0 -89 78 -89q14 0 34 11t28 28l26 180q-22 17 -62 17t-72 -40t-32 -107zM1212 650q0 80 -35 145l-43 -287l-11 -102q-6 -24 11 -24q10 0 26 16q15 16 25 42q11 26 19 78t8 132zM1063 128q-151 0 -201 103l2 -8q-24 -48 -76 -77t-116 -29q-121 0 -190 84t-69 225
q0 190 112 303t274 113q88 0 147 -40l7 21h207q-88 119 -289 119q-247 0 -383 -147t-136 -376q0 -188 104 -294t274 -106t285 78h9l112 -216q-164 -127 -456 -127t-465 172q-174 172 -174 461q0 354 235 589t627 234q274 0 448 -146t174 -412q0 -152 -63 -280
q-71 -149 -217 -210q-81 -34 -182 -34z" />
    <glyph glyph-name="A" unicode="A" horiz-adv-x="1189" 
d="M464 357h201l-47 177l-20 106l-47 -106zM758 0l-28 104h-393l-52 -104h-382l704 1246h175l372 -1246h-396z" />
    <glyph glyph-name="B" unicode="B" horiz-adv-x="1133" 
d="M557 277q67 0 104 33.5t37 97.5q0 93 -98 93h-114l-32 -224h103zM603 951h-52l-28 -193h60q128 0 128 111q0 47 -25 64.5t-83 17.5zM546 0h-501l177 1234q143 17 404 17q447 0 446 -290q0 -187 -143 -278q141 -80 142 -257q0 -207 -148 -316.5t-377 -109.5z" />
    <glyph glyph-name="C" unicode="C" horiz-adv-x="1074" 
d="M648 -22q-272 0 -428.5 146t-156.5 412q0 337 213.5 532.5t540.5 195.5q164 0 274 -31l-47 -358l-9 -4q-91 48 -210 49q-173 0 -264.5 -92.5t-91.5 -248.5q0 -255 289 -255q102 0 205 37l7 -4l-45 -344q-122 -35 -277 -35z" />
    <glyph glyph-name="D" unicode="D" horiz-adv-x="1323" 
d="M590 333q141 0 223.5 91.5t82.5 230t-66.5 196.5t-147 58t-131.5 -8l-78 -566q22 -2 117 -2zM671.5 1253q303.5 0 462 -137t158.5 -384q0 -344 -218 -541t-573 -197q-411 4 -456 6l171 1234q152 19 455.5 19z" />
    <glyph glyph-name="E" unicode="E" horiz-adv-x="1040" 
d="M1007 936h-447l-22 -161h410l-41 -293h-412l-26 -180h458l-41 -302h-841l177 1234h828z" />
    <glyph glyph-name="F" unicode="F" horiz-adv-x="984" 
d="M985 892h-430l-24 -173h366l-46 -337h-369l-54 -382h-383l177 1234h813z" />
    <glyph glyph-name="G" unicode="G" horiz-adv-x="1213" 
d="M652 -20q-263 0 -425 138.5t-162 397.5q0 346 218 547t583 201q182 0 324 -37l-49 -358l-7 -1q-104 52 -289 52t-283 -94t-98 -260q0 -244 249 -244q61 0 71 -2l17 118h-108l35 262h434l-91 -668q-214 -52 -419 -52z" />
    <glyph glyph-name="H" unicode="H" horiz-adv-x="1364" 
d="M968 1234h384l-179 -1234h-380l63 452h-364l-64 -452h-383l177 1234h381l-61 -433h365z" />
    <glyph glyph-name="I" unicode="I" horiz-adv-x="619" 
d="M45 0l165 1234h386l-166 -1234h-385z" />
    <glyph glyph-name="J" unicode="J" horiz-adv-x="741" 
d="M73 -6q-61 0 -120 8l49 320l7 4q28 -6 52 -6q93 0 139 60.5t63 170.5l100 683h384l-95 -644q-43 -302 -186.5 -449t-392.5 -147z" />
    <glyph glyph-name="K" unicode="K" horiz-adv-x="1288" 
d="M1385 1227l-540 -598l395 -622l-4 -7h-452l-289 477l-67 -477h-383l177 1234h381l-65 -459l410 459h433z" />
    <glyph glyph-name="L" unicode="L" horiz-adv-x="929" 
d="M471 315h413l-42 -315h-797l175 1234h383z" />
    <glyph glyph-name="M" unicode="M" horiz-adv-x="1567" 
d="M11 0l237 1234h320l246 -566l379 566h311l-95 -1234h-359l58 601h-6l-283 -458h-177l-167 451h-6l-87 -594h-371z" />
    <glyph glyph-name="N" unicode="N" horiz-adv-x="1338" 
d="M45 0l178 1247h172l486 -538h5l77 540h366l-180 -1247h-168l-478 560h-6l-86 -562h-366z" />
    <glyph glyph-name="O" unicode="O" horiz-adv-x="1398" 
d="M700.5 324q117.5 0 191.5 90q74 88 74 230q0 276 -225 276q-125 0 -200.5 -91.5t-75.5 -232.5t59 -206.5t176.5 -65.5zM674 -22q-242 0 -420 141q-88 69 -140.5 181.5t-52.5 256.5q0 309 194 508t503 199q244 0 420 -140q88 -70 140 -184.5t52 -259.5
q0 -307 -194.5 -504.5t-501.5 -197.5z" />
    <glyph glyph-name="P" unicode="P" horiz-adv-x="1139" 
d="M585 650q182 0 182 173q0 58 -36.5 86.5t-87 28.5t-83.5 -5l-41 -280q27 -3 66 -3zM1158 886q0 -272 -163 -411.5t-405 -139.5q-37 0 -115 4l-49 -339h-381l177 1234q219 32 445.5 30t358.5 -87.5t132 -290.5z" />
    <glyph glyph-name="Q" unicode="Q" horiz-adv-x="1398" 
d="M700.5 324q117.5 0 191.5 90q74 88 74 230q0 276 -225 276q-125 0 -200.5 -91.5t-75.5 -232.5t59 -206.5t176.5 -65.5zM1370 680q0 -259 -142.5 -444.5t-378.5 -239.5q50 -106 214 -149l4 -7l-179 -270q-201 41 -299.5 160t-119.5 276q-181 54 -294.5 193.5t-113.5 357.5
q0 309 194 508t503 199q244 0 420 -140q88 -70 140 -184.5t52 -259.5z" />
    <glyph glyph-name="R" unicode="R" horiz-adv-x="1197" 
d="M650.5 938q-45.5 0 -93.5 -5l-39 -281h78q76 0 123.5 46.5t47.5 114.5t-35.5 96.5t-81 28.5zM1158 894q0 -184 -76.5 -302.5t-202.5 -172.5l199 -412l-4 -7h-404l-160 371h-32l-52 -371h-381l178 1234q184 30 430 30q505 1 505 -370z" />
    <glyph glyph-name="S" unicode="S" horiz-adv-x="956" 
d="M391 -20q-214 0 -378 81l54 339l9 2q132 -106 306 -106q117 0 117 73q0 34 -29 61.5t-124 81.5t-156.5 131.5t-61.5 194.5q0 212 151 320t355 108t330 -52l-42 -318l-8 -4q-108 50 -254 55t-146 -57q0 -20 25 -38q33 -24 127.5 -76.5t158 -131t63.5 -201.5
q0 -209 -141.5 -336t-355.5 -127z" />
    <glyph glyph-name="T" unicode="T" horiz-adv-x="1120" 
d="M1208 1234l-50 -342h-339l-126 -892h-388l133 892h-360l50 342h1080z" />
    <glyph glyph-name="U" unicode="U" horiz-adv-x="1312" 
d="M592 -24q-494 0 -493 419q0 65 7 117l103 722h381l-97 -674q-9 -56 -9 -122q0 -138 151 -138q106 0 149 61.5t61 198.5l97 674h371l-103 -722q-37 -251 -202.5 -393.5t-415.5 -142.5z" />
    <glyph glyph-name="V" unicode="V" horiz-adv-x="1180" 
d="M1307 1234l4 -7l-678 -1221h-249l-291 1221l6 7h402l82 -592l15 -123l50 123l283 592h376z" />
    <glyph glyph-name="W" unicode="W" horiz-adv-x="1750" 
d="M1860 1234l4 -7l-550 -1223h-290l-106 569l-8 86l-37 -86l-262 -569h-302l-225 1223l4 7h405l51 -590l5 -113l43 113l255 577h285l91 -536l13 -138l47 138l212 549h365z" />
    <glyph glyph-name="X" unicode="X" horiz-adv-x="1264" 
d="M1335 1227l-460 -596l313 -624l-4 -7h-430l-154 357l-252 -357h-411l-4 7l473 630l-294 590l3 7h436l134 -325l233 325h413z" />
    <glyph glyph-name="Y" unicode="Y" horiz-adv-x="1158" 
d="M320 0l69 473l-305 754l4 7h413l128 -417l259 417h385l4 -7l-512 -784l-65 -443h-380z" />
    <glyph glyph-name="Z" unicode="Z" horiz-adv-x="1128" 
d="M34 0l-14 130l572 793h-465l39 311h957l7 -128l-586 -793h497l-43 -313h-964z" />
    <glyph glyph-name="bracketleft" unicode="[" horiz-adv-x="698" 
d="M730 1171h-192l-169 -1184h190l-41 -279h-516l249 1739h518z" />
    <glyph glyph-name="backslash" unicode="\" horiz-adv-x="984" 
d="M842 -231h-341l-332 1646h341z" />
    <glyph glyph-name="bracketright" unicode="]" horiz-adv-x="698" 
d="M199 1450h520l-254 -1739h-513l39 276h190l167 1184h-188z" />
    <glyph glyph-name="asciicircum" unicode="^" horiz-adv-x="1037" 
d="M748 1313l263 -719l-259 -108l-145 465l-13 49l-307 -514l-233 108l465 719h229z" />
    <glyph glyph-name="underscore" unicode="_" horiz-adv-x="1038" 
d="M-15 -298l43 298h840l-41 -298h-842z" />
    <glyph glyph-name="grave" unicode="`" horiz-adv-x="528" 
d="M562 1044l-512 187l-18 41l190 277l437 -300z" />
    <glyph glyph-name="a" unicode="a" horiz-adv-x="1215" 
d="M558 320q98 0 112 77l37 245q-41 34 -110.5 34t-111.5 -64.5t-42 -144t34.5 -113.5t80.5 -34zM1092.5 335q20.5 0 35.5 15l8 -4l-45 -326q-88 -34 -194 -33q-182 0 -216 127q-91 -140 -269 -140t-276 116t-97 282q0 320 156.5 474t361.5 154q156 0 255 -64l13 36h314
l-85 -601q-4 -17 7 -26.5t31.5 -9.5z" />
    <glyph glyph-name="b" unicode="b" horiz-adv-x="1169" 
d="M561 298q67 0 112.5 59.5t45.5 146t-33 118t-81 31.5q-95 0 -117 -78l-37 -258q43 -19 110 -19zM776 1000q154 0 250.5 -112t96.5 -298q0 -279 -154 -447.5t-446 -168.5t-491 91l178 1272h390l-60 -404q82 67 236 67z" />
    <glyph glyph-name="c" unicode="c" horiz-adv-x="880" 
d="M519 -26q-212 0 -345 113.5t-133 318.5q0 274 170.5 434t434.5 160q127 0 227 -30l-43 -322l-7 -4q-81 32 -183 32t-153 -66t-51 -152t37 -123t116 -37t193 52l7 -4l-42 -335q-109 -37 -228 -37z" />
    <glyph glyph-name="d" unicode="d" horiz-adv-x="1213" 
d="M559 320q89 0 113 80l34 244q-45 32 -112 32t-109 -59.5t-42 -158.5q1 -138 116 -138zM1084 335q26 0 46 13l6 -4l-45 -324q-86 -34 -194 -33q-184 0 -216 125q-37 -61 -111.5 -99.5t-174.5 -38.5q-145 0 -251.5 107t-106.5 310q0 289 153 449t391 160q97 0 171 -30
l52 367h386l-136 -953q-5 -49 30 -49z" />
    <glyph glyph-name="e" unicode="e" horiz-adv-x="1076" 
d="M670 588q0 108 -98 108t-129 -124l227 -2v18zM614.5 272q146.5 0 312.5 58l8 -4l-39 -281q-143 -71 -351 -71q-207 0 -345 95q-72 50 -115.5 142t-43.5 217q0 253 162 412.5t413 159.5q188 0 304.5 -98t116.5 -288q0 -89 -28 -214l-2 -18l-569 -4q30 -106 176.5 -106z
" />
    <glyph glyph-name="f" unicode="f" horiz-adv-x="742" 
d="M737 1354q97 0 155 -17l-47 -335l-3 -2q-34 13 -88 13q-108 0 -128 -123h149l-40 -300h-154l-132 -897h-384l130 897h-134l40 300h139v2q32 214 168.5 338t328.5 124z" />
    <glyph glyph-name="g" unicode="g" horiz-adv-x="1169" 
d="M447 522q0 -131 110 -131t132 95l24 156q-41 32 -109 32t-112.5 -42.5t-44.5 -109.5zM413.5 -328q-247.5 0 -413.5 64l45 307l7 4q147 -82 346.5 -82t236.5 169q-82 -54 -211 -54q-173 0 -275 98t-102 265q0 263 150.5 410t385.5 147q162 0 260 -80l41 80h261l-117 -821
q-34 -251 -200.5 -379t-414 -128z" />
    <glyph glyph-name="h" unicode="h" horiz-adv-x="1169" 
d="M791 1000q151 0 230 -85t79 -230q0 -45 -9 -95l-84 -590h-383l70 521v10q0 47 -27 72.5t-69 25.5q-86 0 -110 -80l-78 -549h-384l190 1337h385l-61 -434q100 97 251 97z" />
    <glyph glyph-name="i" unicode="i" horiz-adv-x="579" 
d="M26 0l138 972h383l-137 -972h-384zM387 1061q-92 0 -151 59t-59 153.5t70 161t162.5 66.5t150.5 -59t58 -153.5t-69.5 -161t-161.5 -66.5z" />
    <glyph glyph-name="j" unicode="j" horiz-adv-x="614" 
d="M-28 -320q-71 0 -162 13l47 329l7 6q30 -9 69 -9q130 0 153 154l115 799h382l-125 -890q-30 -205 -159.5 -303.5t-326.5 -98.5zM422 1061q-92 0 -151 59t-59 153.5t70 161t163 66.5t150.5 -59t57.5 -153.5t-69.5 -161t-161.5 -66.5z" />
    <glyph glyph-name="k" unicode="k" horiz-adv-x="1145" 
d="M1180 963l-396 -462l272 -494l-4 -7h-417l-177 335l-48 -335h-384l190 1337h385l-95 -657l231 292h438z" />
    <glyph glyph-name="l" unicode="l" horiz-adv-x="657" 
d="M397 -20q-168 0 -262 90t-66 287l140 980h381l-128 -890q-22 -128 84 -129q22 0 50 6l7 -4l-44 -324q-76 -16 -162 -16z" />
    <glyph glyph-name="m" unicode="m" horiz-adv-x="1738" 
d="M1389 1000q136 0 212 -86.5t76 -228.5q0 -34 -5 -78l-88 -607h-383l67 499q4 22 4 52t-22.5 54t-61.5 24q-91 0 -114 -85l-76 -544h-385l68 499q4 22 4 52t-22.5 54t-61.5 24q-88 0 -115 -82l-76 -547h-384l138 972h313l15 -129q104 157 308 157t267 -177q95 177 322 177
z" />
    <glyph glyph-name="n" unicode="n" horiz-adv-x="1167" 
d="M600 629q-89 0 -112 -89l-75 -540h-387l138 972h314l15 -129q104 157 313 157q138 0 217 -86.5t79 -226.5q0 -65 -7 -117l-86 -570h-383l68 499l2 32q4 45 -22 71.5t-74 26.5z" />
    <glyph glyph-name="o" unicode="o" horiz-adv-x="1156" 
d="M564 298q74 0 112.5 69t38.5 160q0 145 -119 145q-80 0 -116.5 -66t-36.5 -161q0 -147 121 -147zM538 -24q-212 0 -351 114q-139 112 -139 352t157.5 398t416.5 158q210 0 348 -114t138 -354t-156.5 -397t-413.5 -157z" />
    <glyph glyph-name="p" unicode="p" horiz-adv-x="1171" 
d="M561 298q68 0 114 57.5t46 145.5t-33 119.5t-77 31.5q-88 0 -118 -66l-39 -269q39 -19 107 -19zM774.5 1000q165.5 0 258 -115.5t92.5 -305.5q0 -272 -158.5 -438.5t-420.5 -166.5q-80 0 -138 15l-43 -296h-384l183 1279h313l11 -99q121 127 286.5 127z" />
    <glyph glyph-name="q" unicode="q" horiz-adv-x="1165" 
d="M572 320q30 0 57.5 18.5t40.5 50.5l36 253q-48 32 -112.5 32t-107.5 -60.5t-43 -161.5q1 -132 129 -132zM411 -26q-171 0 -271.5 115.5t-100.5 318.5q0 266 146 429t370 163q160 0 257 -62l13 34h311l-183 -1279h-383l50 344q-74 -63 -209 -63z" />
    <glyph glyph-name="r" unicode="r" horiz-adv-x="806" 
d="M732.5 996q61.5 0 110.5 -15l-54 -355l-7 -4q-45 15 -93 15q-173 0 -216 -179l-63 -458h-384l138 972h313l16 -134q39 78 108.5 118t131 40z" />
    <glyph glyph-name="s" unicode="s" horiz-adv-x="919" 
d="M379.5 -26q-207.5 0 -373.5 71l42 286l8 6q138 -106 335 -106q82 0 82 50q0 20 -30 37t-126 49q-225 73 -225.5 252t129 280t340.5 101t327 -50l-41 -297l-7 -3q-95 56 -276 56q-102 0 -102 -36q0 -17 16.5 -25t63 -25t52.5 -18.5t14 -4.5t16 -5q115 -37 165.5 -97.5
t50.5 -153.5q0 -168 -126.5 -267.5t-334 -99.5z" />
    <glyph glyph-name="t" unicode="t" horiz-adv-x="835" 
d="M529 400q0 -73 102 -72q47 0 108 20l4 -2l-43 -322q-74 -37 -201 -37q-177 0 -272 80t-95 236q0 35 6 82l41 287h-136l45 300h134l31 223l393 73l2 -6l-41 -290h227l-37 -300h-233l-20 -141q-15 -105 -15 -131z" />
    <glyph glyph-name="u" unicode="u" horiz-adv-x="1150" 
d="M318 -24q-117 0 -188.5 66t-71.5 174q0 50 3 95l97 661h384l-78 -538q-6 -39 -6 -58q-4 -74 72 -74t118 61l89 609h384l-140 -972h-313l-16 140q-117 -164 -334 -164z" />
    <glyph glyph-name="v" unicode="v" horiz-adv-x="1048" 
d="M1125 972l3 -9l-532 -961h-296l-242 961l3 9h417l60 -426l194 426h393z" />
    <glyph glyph-name="w" unicode="w" horiz-adv-x="1480" 
d="M1547 972l4 -9l-441 -963h-270l-75 510l-4 62l-18 -62l-227 -510h-274l-182 963l1 9h386l31 -417v-73l19 71l168 419h307l50 -415l6 -64l16 64l146 415h357z" />
    <glyph glyph-name="x" unicode="x" horiz-adv-x="1055" 
d="M1098 963l-353 -464l247 -492l-3 -7h-430l-88 216l-149 -216h-391l-5 7l370 466l-240 490l4 9h432l78 -209l136 209h389z" />
    <glyph glyph-name="y" unicode="y" horiz-adv-x="1007" 
d="M112 -320q-84 0 -136 20l43 307l7 4q28 -9 72.5 -9t77.5 5.5t69 30.5t57 70l-242 855l3 9h408l65 -393l157 393h387l4 -9l-468 -907q-110 -216 -214 -296t-290 -80z" />
    <glyph glyph-name="z" unicode="z" horiz-adv-x="975" 
d="M935 767l-417 -473h392l-44 -294h-823l-15 192l402 473h-339l37 307h794z" />
    <glyph glyph-name="braceleft" unicode="{" horiz-adv-x="757" 
d="M706 1493h126l-39 -281h-80q-84 0 -97 -69l-44 -309q-17 -106 -90 -176t-139 -70l-4 -18q67 0 122 -71t38 -177l-47 -309q-7 -65 77 -65h80l-39 -283h-125q-169 0 -253 90t-64 239l36 246q13 90 -33 140t-86 50l44 313q43 0 102 45t70 130l33 246q20 149 131 239
q112 90 281 90z" />
    <glyph glyph-name="bar" unicode="|" horiz-adv-x="579" 
d="M13 -222l223 1589h349l-226 -1589h-346z" />
    <glyph glyph-name="braceright" unicode="}" horiz-adv-x="757" 
d="M73 -335h-127l39 283h80q91 0 99 63l45 313q15 106 86 176q72 70 141 70l3 18q-69 0 -123 70t-37 178l47 309q7 67 -77 67h-80l41 281h125q169 0 253 -91t64 -240l-36 -246q-13 -90 31 -140t85 -50l-43 -313q-43 -1 -99 -45t-69 -126l-39 -248q-22 -149 -132 -239
t-277 -90z" />
    <glyph glyph-name="asciitilde" unicode="~" horiz-adv-x="1027" 
d="M360 715q98 0 192 -31t149 -31t68 66l11 5l184 -39q-15 -123 -95 -202t-193 -79q-61 0 -161 31q-101 31 -139 31q-76 -1 -84 -68l-7 -5l-203 28q19 130 100 212q80 82 178 82z" />
    <glyph glyph-name="exclamdown" unicode="&#xa1;" horiz-adv-x="565" 
d="M-26 -348l143 851h326l-95 -851h-374zM525 829q0 -79 -56 -141t-147 -61q-91 0 -139 46q-47 46 -47 125t57 141q57 63 147 63t138 -47t47 -126z" />
    <glyph glyph-name="cent" unicode="&#xa2;" horiz-adv-x="940" 
d="M686 817q-96 0 -154 -61q-59 -60 -59 -152t45 -139t125 -47t134 18q53 18 61 20l9 -7l-45 -326q-54 -19 -132 -26l-28 -179h-357l32 214q-255 102 -256 397q1 219 105 369t288 210l30 212h358l-25 -182q76 -11 129 -32l-49 -318l-11 -10q-104 39 -200 39z" />
    <glyph glyph-name="sterling" unicode="&#xa3;" horiz-adv-x="1072" 
d="M780 1273q160 0 302 -35l-45 -315l-15 -5q-114 48 -210 48t-140 -34q-45 -34 -56 -124l-5 -41h249l-41 -311h-257q-22 -74 -46 -141h452l-46 -315h-892l-10 15q112 195 166 441h-115l43 311h117q9 40 7 52q38 242 184 348t358 106z" />
    <glyph glyph-name="currency" unicode="&#xa4;" horiz-adv-x="1310" 
d="M694 799q-76 0 -122 -56t-47 -127q0 -149 128 -149q73 0 119 55t45 137q0 140 -123 140zM1141 691q0 -136 -61 -253l147 -175l-289 -252l-139 168q-80 -32 -176 -32t-187 43l-200 -179l-216 252l198 178q-19 58 -19 132q0 143 67 263l-143 166l288 255l140 -168
q84 30 177 30t182 -45l202 183l217 -255l-204 -185q16 -57 16 -126z" />
    <glyph glyph-name="yen" unicode="&#xa5;" horiz-adv-x="1331" 
d="M1089 585v-416h-229v-169h-380v169h-227v416h162l-374 664h423l217 -482l211 482h398l-363 -664h162z" />
    <glyph glyph-name="brokenbar" unicode="&#xa6;" horiz-adv-x="592" 
d="M20 -222l88 620h348l-89 -620h-347zM158 747l86 620h348l-87 -620h-347z" />
    <glyph glyph-name="section" unicode="&#xa7;" horiz-adv-x="1033" 
d="M387 548q0 -36 33 -59q34 -23 108 -51t101 -40q26 38 26 74q0 64 -134 118q-78 32 -102 43q-32 -49 -32 -85zM989 590q0 -173 -170 -311q56 -61 56 -147q0 -181 -152 -299q-153 -118 -355 -118t-340 62l46 320l12 4q132 -78 286 -79q101 0 101 47q0 19 -30 35t-149 64
t-179 106t-59 165q0 190 180 308q-69 69 -68 171q0 180 149 292t368 112q140 0 287 -35l-43 -319l-11 -4q-92 47 -226 47t-133 -54q1 -19 29 -34t146 -55t187 -106q68 -66 68 -172z" />
    <glyph glyph-name="dieresis" unicode="&#xa8;" horiz-adv-x="888" 
d="M761.5 1072q-87.5 0 -142.5 56t-55 146.5t65 152t154 61.5t143.5 -54t54.5 -145.5t-66 -154t-153.5 -62.5zM305.5 1072q-86.5 0 -142 56t-55.5 146.5t66 152t154 61.5t142.5 -54t54.5 -145.5t-66.5 -154t-153 -62.5z" />
    <glyph glyph-name="copyright" unicode="&#xa9;" horiz-adv-x="1245" 
d="M620 244q-104 0 -182 62t-79 178q-1 153 101 244t253 91q80 0 129 -24l-30 -201l-8 -4q-34 15 -80 15q-89 0 -89 -91q0 -65 72 -65q58 0 79 13l5 -4l-28 -203q-39 -11 -143 -11zM575 158q103 0 183 37q142 66 193 240q22 75 23 161q0 138 -74 224t-215 85
q-182 0 -291 -124t-109 -308q1 -139 75 -227t215 -88zM547 -41q-235 0 -364 139t-129 354q0 270 183 461t478 191q231 0 359 -139t127 -354q0 -270 -182 -461t-472 -191z" />
    <glyph glyph-name="ordfeminine" unicode="&#xaa;" horiz-adv-x="871" 
d="M395 869q0 -39 43 -39t80 38l7 39q-34 9 -63 9q-67 0 -67 -47zM323 631q-114 0 -167.5 55t-53.5 146q0 128 87 190.5t222 62.5q67 0 136 -14q-2 74 -120.5 74t-210.5 -35l-4 3l32 226q106 48 283 48q344 0 290 -344l-16 -112q-7 -39 22 -39q19 -1 32 5l3 -1l-33 -235
q-50 -20 -156 -20.5t-135 96.5q-97 -106 -211 -106z" />
    <glyph glyph-name="guillemotleft" unicode="&#xab;" horiz-adv-x="1109" 
d="M793 171l-128 391l231 367h350l-6 -28l-231 -361l127 -348l-4 -21h-339zM326 171l-129 391l231 367h350l-5 -28l-231 -361l126 -348l-3 -21h-339z" />
    <glyph glyph-name="uni00AD" unicode="&#xad;" horiz-adv-x="772" 
d="M82 387l45 311h579l-41 -311h-583z" />
    <glyph glyph-name="registered" unicode="&#xae;" horiz-adv-x="1202" 
d="M614 529q152 0 250 95h-209l-41 100h-24l-15 -100h-184q71 -95 223 -95zM629 860q28 0 45 19t17 50q0 45 -47 45q-7 0 -18 -2l-17 -112h20zM426 1104q-97 -112 -96 -279q0 -91 33 -155zM696 1229q-140 0 -242 -93q156 4 236 4t155 -44q74 -42 75 -137q0 -134 -93 -192
l54 -127q97 110 96 296q0 130 -70 212q-71 81 -211 81zM737 1419q218 1 339 -131t121 -335q0 -255 -171 -437t-445 -181q-223 0 -347 132t-124 335q0 255 174 436t453 181z" />
    <glyph glyph-name="macron" unicode="&#xaf;" horiz-adv-x="670" 
d="M136 1134l32 216h584l-33 -216h-583z" />
    <glyph glyph-name="degree" unicode="&#xb0;" horiz-adv-x="711" 
d="M422 860q39 0 63 28q23 28 23 69t-23 68t-63 27t-62 -27q-23 -27 -23 -69t23 -69t62 -27zM422 657q-130 0 -218 86t-89 214q1 128 89 214t218 86t218 -86t90 -214q0 -128 -89 -214t-219 -86z" />
    <glyph glyph-name="plusminus" unicode="&#xb1;" horiz-adv-x="1063" 
d="M992 469h-344l-34 -240h321l-36 -246h-884l33 246h323l33 240h-339l36 238h338l45 315h244l-45 -315h343z" />
    <glyph glyph-name="uni00B2" unicode="&#xb2;" horiz-adv-x="679" 
d="M417 1028q0 20 -35 18q-130 0 -246 -63l-2 2l32 220q116 61 248 61q286 0 286 -184q0 -88 -40 -140t-121 -105t-83 -70h212l-28 -203h-588q41 210 237 346q89 62 109 80t19 38z" />
    <glyph glyph-name="uni00B3" unicode="&#xb3;" horiz-adv-x="633" 
d="M642 815q0 -121 -98 -195t-246 -73q-147 0 -229 30l28 199l2 2q78 -30 147 -30t92 2q66 6 66 51q0 28 -47 28h-171l28 171h149q45 0 45 32t-104 31q-104 0 -161 -22l-3 3l28 202q123 20 227 20q268 0 268 -166q0 -100 -84 -165q63 -39 63 -120z" />
    <glyph glyph-name="acute" unicode="&#xb4;" horiz-adv-x="526" 
d="M164 1037l-103 203l429 313l197 -272l-15 -41z" />
    <glyph glyph-name="paragraph" unicode="&#xb6;" horiz-adv-x="1185" 
d="M600 1132h586l-48 -341h-108l-144 -1001h-84l144 1001h-97l-143 -1001h-363l76 549q-151 0 -244 75t-101 228q-6 294 228 419q132 71 298 71z" />
    <glyph glyph-name="periodcentered" unicode="&#xb7;" horiz-adv-x="549" 
d="M258 264q-98 0 -145 47t-47 127t58 138t156 59t143 -47t45 -129t-56 -138t-154 -57z" />
    <glyph glyph-name="cedilla" unicode="&#xb8;" horiz-adv-x="417" 
d="M4 -464q-82 0 -123 12l18 137l6 2q37 -13 67 -13q99 0 99 73q0 47 -62 46l-52 -2l-5 2l18 129l71 80h192l-80 -75q9 0 28 -3q153 -19 152 -153q1 -235 -329 -235z" />
    <glyph glyph-name="uni00B9" unicode="&#xb9;" horiz-adv-x="502" 
d="M175 564l54 356l-134 -24l37 264l382 102h24l-100 -698h-263z" />
    <glyph glyph-name="ordmasculine" unicode="&#xba;" horiz-adv-x="914" 
d="M512 888q52 0 78 44t26 105q0 93 -61 93q-50 0 -77 -47t-27 -107q0 -88 61 -88zM555 1408q177 0 282 -90t105 -278q0 -186 -128 -306t-308 -120t-284 86t-105 251q1 207 131 332t307 125z" />
    <glyph glyph-name="guillemotright" unicode="&#xbb;" horiz-adv-x="1113" 
d="M948 929l128 -391l-231 -367h-350l6 28l231 361l-127 349l4 20h339zM465 929l129 -391l-231 -367h-350l6 28l230 361l-126 349l4 20h338z" />
    <glyph glyph-name="onequarter" unicode="&#xbc;" horiz-adv-x="1375" 
d="M910 246h80l21 139zM1288 691l-61 -445h56l-24 -162h-56l-11 -84h-239l13 84h-326l19 119l406 488h223zM987 1247h272l-883 -1267h-268zM195 564l54 356l-134 -24l38 264l381 102h25l-101 -698h-263z" />
    <glyph glyph-name="onehalf" unicode="&#xbd;" horiz-adv-x="1444" 
d="M1370 522q0 -92 -40 -144t-121 -105t-83 -70h213l-28 -203h-589q41 210 237 346q89 61 109 79t19 39q0 19 -35 18q-130 0 -246 -63l-2 2l32 219q116 62 248 62t209 -44t77 -136zM89 -20l879 1267h272l-883 -1267h-268zM188 564l54 356l-134 -24l37 264l382 102h24
l-100 -698h-263z" />
    <glyph glyph-name="threequarters" unicode="&#xbe;" horiz-adv-x="1420" 
d="M957 246h80l21 139zM1112 691h223l-62 -445h56l-24 -162h-56l-11 -84h-238l13 84h-326l19 119zM1072 1247h272l-882 -1267h-268zM663 815q0 -121 -99 -195t-246 -73q-147 0 -229 30l28 199l2 2q78 -30 147 -30t92 2q66 6 66 51q0 28 -46 28h-171l28 171h149q45 0 44 31
q0 32 -103 32t-161 -22l-4 3l28 202q123 20 227 20q268 0 268 -166q0 -101 -83 -165q63 -40 63 -120z" />
    <glyph glyph-name="questiondown" unicode="&#xbf;" horiz-adv-x="828" 
d="M497 60q0 -40 26 -58q27 -18 115 -19q88 0 185 45l4 -2l-45 -328q-120 -42 -284 -42t-277 80t-113 227t59 228t175 159t139 137q8 21 14 57l330 5q-17 -221 -199 -343q-84 -56 -106 -82q-22 -24 -23 -64zM697 1009q92 0 141 -46q48 -47 48 -126t-57 -141
q-58 -61 -150 -61t-142 46q-49 47 -49 126t58 141q59 61 151 61z" />
    <glyph glyph-name="Agrave" unicode="&#xc0;" horiz-adv-x="1189" 
d="M464 357h201l-47 177l-20 106l-47 -106zM758 0l-28 104h-393l-52 -104h-382l704 1246h175l372 -1246h-396zM899 1301l-493 153l-28 35l134 265l456 -278z" />
    <glyph glyph-name="Aacute" unicode="&#xc1;" horiz-adv-x="1189" 
d="M464 357h201l-47 177l-20 106l-47 -106zM758 0l-28 104h-393l-52 -104h-382l704 1246h175l372 -1246h-396zM1002 1447l-499 -136l-62 178l475 265l114 -272z" />
    <glyph glyph-name="Acircumflex" unicode="&#xc2;" horiz-adv-x="1189" 
d="M464 357h201l-47 177l-20 106l-47 -106zM758 0l-28 104h-393l-52 -104h-382l704 1246h175l372 -1246h-396zM726 1467l-249 -143l-101 134l296 277h170l227 -273l-131 -138z" />
    <glyph glyph-name="Atilde" unicode="&#xc3;" horiz-adv-x="1189" 
d="M464 357h201l-47 177l-20 106l-47 -106zM758 0l-28 104h-393l-52 -104h-382l704 1246h175l372 -1246h-396zM580 1668q85 0 162 -27t105 -27t50.5 17t25.5 43l6 3l201 -55q-15 -121 -84.5 -201t-161.5 -80q-63 0 -149.5 26t-116.5 26t-50 -19t-26 -41l-6 -4l-199 58
q15 117 86.5 199t156.5 82z" />
    <glyph glyph-name="Adieresis" unicode="&#xc4;" horiz-adv-x="1189" 
d="M464 357h201l-47 177l-20 106l-47 -106zM607 1246h175l372 -1246h-396l-28 104h-393l-52 -104h-382zM966 1339q-76 0 -123.5 48t-47.5 127.5t57.5 134.5t134 55t125 -48.5t48.5 -129t-59 -134t-135 -53.5zM478 1339q-77 0 -125 48t-48 127.5t58 134.5t134 55t124.5 -48.5
t48.5 -129t-57.5 -134t-134.5 -53.5z" />
    <glyph glyph-name="Aring" unicode="&#xc5;" horiz-adv-x="1189" 
d="M464 357h201l-47 177l-20 106l-47 -106zM758 0l-28 104h-393l-52 -104h-382l704 1246h175l372 -1246h-396zM817 1542q1 74 -73 74q-34 0 -58.5 -24t-24.5 -60q-1 -76 73 -76q34 0 58.5 24t24.5 62zM723.5 1300q-112.5 0 -177 59.5t-64.5 163.5t76.5 176t190 72t177.5 -59
t64 -164t-77 -176.5t-189.5 -71.5z" />
    <glyph glyph-name="AE" unicode="&#xc6;" horiz-adv-x="1630" 
d="M575 469h173l51 343zM1599 925h-398l-19 -128h360l-41 -304h-363l-28 -184h409l-43 -309h-796l29 201h-301l-125 -201h-385l847 1234h899z" />
    <glyph glyph-name="Ccedilla" unicode="&#xc7;" horiz-adv-x="1074" 
d="M63 536q0 337 213 532.5t541 195.5q164 0 274 -31l-47 -358l-9 -4q-91 48 -210 49q-173 0 -264.5 -92.5t-91.5 -248.5q0 -255 289 -255q102 0 205 37l7 -4l-45 -344q-110 -32 -231 -33l-55 -53q9 0 28 -3q153 -19 152 -153q0 -235 -329 -235q-82 0 -123 12l18 137l6 2
q37 -13 67 -13q99 0 99 73q0 47 -62 46l-52 -2l-5 2l18 129l58 65q-212 34 -331.5 176t-119.5 373z" />
    <glyph glyph-name="Egrave" unicode="&#xc8;" horiz-adv-x="1040" 
d="M1007 936h-447l-22 -161h410l-41 -293h-412l-26 -180h458l-41 -302h-841l177 1234h828zM845 1287l-493 152l-28 36l134 264l456 -277z" />
    <glyph glyph-name="Eacute" unicode="&#xc9;" horiz-adv-x="1040" 
d="M1007 936h-447l-22 -161h410l-41 -293h-412l-26 -180h458l-41 -302h-841l177 1234h828zM948 1432l-499 -136l-62 179l475 264l114 -272z" />
    <glyph glyph-name="Ecircumflex" unicode="&#xca;" horiz-adv-x="1040" 
d="M1007 936h-447l-22 -161h410l-41 -293h-412l-26 -180h458l-41 -302h-841l177 1234h828zM672 1452l-249 -143l-101 134l296 277h170l227 -273l-131 -138z" />
    <glyph glyph-name="Edieresis" unicode="&#xcb;" horiz-adv-x="1040" 
d="M45 0l177 1234h828l-43 -298h-447l-22 -161h410l-41 -293h-412l-26 -180h458l-41 -302h-841zM933 1689q76 0 124.5 -48.5t48.5 -129t-58.5 -134t-135 -53.5t-124 48.5t-47.5 127.5t58 134t134 55zM424 1324q-77 0 -125 48.5t-48 127.5t58 134t134 55t124.5 -48.5
t48.5 -129t-57.5 -134t-134.5 -53.5z" />
    <glyph glyph-name="Igrave" unicode="&#xcc;" horiz-adv-x="619" 
d="M45 0l165 1234h386l-166 -1234h-385zM624 1287l-494 152l-28 36l134 264l457 -277z" />
    <glyph glyph-name="Iacute" unicode="&#xcd;" horiz-adv-x="619" 
d="M45 0l165 1234h386l-166 -1234h-385zM227 1296l-61 179l474 264l114 -272l-28 -35z" />
    <glyph glyph-name="Icircumflex" unicode="&#xce;" horiz-adv-x="619" 
d="M45 0l165 1234h386l-166 -1234h-385zM201 1309l-100 134l296 277h169l227 -273l-130 -138l-212 143z" />
    <glyph glyph-name="Idieresis" unicode="&#xcf;" horiz-adv-x="619" 
d="M45 0l165 1234h386l-166 -1234h-385zM691 1324q-76 0 -124 48.5t-48 127.5t58 134t134 55t124.5 -48.5t48.5 -129t-58.5 -134t-134.5 -53.5zM202 1324q-77 0 -124.5 48.5t-47.5 127.5t57.5 134t133.5 55t125 -48.5t49 -129t-58 -134t-135 -53.5z" />
    <glyph glyph-name="Eth" unicode="&#xd0;" horiz-adv-x="1323" 
d="M590 333q141 0 223.5 91.5t82.5 230t-66.5 196.5t-147 58t-131.5 -8l-22 -162h151l-30 -220h-151l-26 -184q22 -2 117 -2zM671.5 1253q303.5 0 462 -137t158.5 -384q0 -344 -218 -541t-573 -197q-411 4 -456 6l72 519h-143l30 220h143l69 495q152 19 455.5 19z" />
    <glyph glyph-name="Ntilde" unicode="&#xd1;" horiz-adv-x="1338" 
d="M45 0l178 1247h172l486 -538h5l77 540h366l-180 -1247h-168l-478 560h-6l-86 -562h-366zM662 1668q85 0 162 -27t105 -27t50.5 17t25.5 43l6 3l201 -55q-15 -121 -84.5 -201t-148 -80t-164 26t-115.5 26t-50.5 -19t-25.5 -41l-6 -4l-199 58q15 117 86.5 199t156.5 82z
" />
    <glyph glyph-name="Ograve" unicode="&#xd2;" horiz-adv-x="1398" 
d="M700.5 324q117.5 0 191.5 90q74 88 74 230q0 276 -225 276q-125 0 -200.5 -91.5t-75.5 -232.5t59 -206.5t176.5 -65.5zM674 -22q-242 0 -420 141q-88 69 -140.5 181.5t-52.5 256.5q0 309 194 508t503 199q244 0 420 -140q88 -70 140 -184.5t52 -259.5
q0 -307 -194.5 -504.5t-501.5 -197.5zM1015 1305l-494 153l-28 35l134 265l457 -278z" />
    <glyph glyph-name="Oacute" unicode="&#xd3;" horiz-adv-x="1398" 
d="M700.5 324q117.5 0 191.5 90q74 88 74 230q0 276 -225 276q-125 0 -200.5 -91.5t-75.5 -232.5t59 -206.5t176.5 -65.5zM674 -22q-242 0 -420 141q-88 69 -140.5 181.5t-52.5 256.5q0 309 194 508t503 199q244 0 420 -140q88 -70 140 -184.5t52 -259.5
q0 -307 -194.5 -504.5t-501.5 -197.5zM618 1314l-61 179l474 265l114 -272l-28 -36z" />
    <glyph glyph-name="Ocircumflex" unicode="&#xd4;" horiz-adv-x="1398" 
d="M700.5 324q117.5 0 191.5 90q74 88 74 230q0 276 -225 276q-125 0 -200.5 -91.5t-75.5 -232.5t59 -206.5t176.5 -65.5zM674 -22q-242 0 -420 141q-88 69 -140.5 181.5t-52.5 256.5q0 309 194 508t503 199q244 0 420 -140q88 -70 140 -184.5t52 -259.5
q0 -307 -194.5 -504.5t-501.5 -197.5zM592 1327l-100 135l296 277h169l227 -274l-130 -138l-212 144z" />
    <glyph glyph-name="Otilde" unicode="&#xd5;" horiz-adv-x="1398" 
d="M700.5 324q117.5 0 191.5 90q74 88 74 230q0 276 -225 276q-125 0 -200.5 -91.5t-75.5 -232.5t59 -206.5t176.5 -65.5zM674 -22q-242 0 -420 141q-88 69 -140.5 181.5t-52.5 256.5q0 309 194 508t503 199q244 0 420 -140q88 -70 140 -184.5t52 -259.5
q0 -307 -194.5 -504.5t-501.5 -197.5zM695.5 1672q84.5 0 162 -27t105 -27t50 16.5t26.5 42.5l5 4l202 -56q-15 -121 -85 -201t-148 -80t-164 26t-115.5 26t-50 -18.5t-26.5 -40.5l-5 -4l-200 58q15 117 87 199t156.5 82z" />
    <glyph glyph-name="Odieresis" unicode="&#xd6;" horiz-adv-x="1398" 
d="M700.5 324q117.5 0 191.5 90q74 88 74 230q0 276 -225 276q-125 0 -200.5 -91.5t-75.5 -232.5t59 -206.5t176.5 -65.5zM674 -22q-242 0 -420 141q-88 69 -140.5 181.5t-52.5 256.5q0 309 194 508t503 199q244 0 420 -140q88 -70 140 -184.5t52 -259.5
q0 -307 -194.5 -504.5t-501.5 -197.5zM1082 1342q-76 0 -124 48.5t-48 128t58 134t134 54.5t124.5 -48.5t48.5 -128.5t-58.5 -134t-134.5 -54zM593 1342q-77 0 -124.5 48.5t-47.5 128t57.5 134t133.5 54.5t125 -48.5t49 -128.5t-58 -134t-135 -54z" />
    <glyph glyph-name="multiply" unicode="&#xd7;" horiz-adv-x="973" 
d="M961 812l-304 -274l214 -262l-190 -153l-204 253l-287 -259l-162 177l298 268l-211 259l190 153l201 -248l291 263z" />
    <glyph glyph-name="Oslash" unicode="&#xd8;" horiz-adv-x="1398" 
d="M691 324q127 0 201 89.5t74 251.5q0 73 -22 126l-339 -454q38 -13 86 -13zM465 572q0 -58 13 -97l323 439q-28 6 -60 6q-125 0 -200.5 -91t-75.5 -257zM1370 665q0 -292 -194.5 -489.5t-501.5 -197.5q-155 0 -290 59l-99 -132h-203v30l149 203q-169 156 -170 419
q0 309 194 508t503 199q136 0 264 -48l86 117h221v-24l-143 -192q184 -160 184 -452z" />
    <glyph glyph-name="Ugrave" unicode="&#xd9;" horiz-adv-x="1312" 
d="M592 -24q-494 0 -493 419q0 65 7 117l103 722h381l-97 -674q-9 -56 -9 -122q0 -138 151 -138q106 0 149 61.5t61 198.5l97 674h371l-103 -722q-37 -251 -202.5 -393.5t-415.5 -142.5zM974 1287l-494 152l-28 36l134 264l457 -277z" />
    <glyph glyph-name="Uacute" unicode="&#xda;" horiz-adv-x="1312" 
d="M592 -24q-494 0 -493 419q0 65 7 117l103 722h381l-97 -674q-9 -56 -9 -122q0 -138 151 -138q106 0 149 61.5t61 198.5l97 674h371l-103 -722q-37 -251 -202.5 -393.5t-415.5 -142.5zM577 1296l-61 179l474 264l114 -272l-28 -35z" />
    <glyph glyph-name="Ucircumflex" unicode="&#xdb;" horiz-adv-x="1312" 
d="M592 -24q-494 0 -493 419q0 65 7 117l103 722h381l-97 -674q-9 -56 -9 -122q0 -138 151 -138q106 0 149 61.5t61 198.5l97 674h371l-103 -722q-37 -251 -202.5 -393.5t-415.5 -142.5zM551 1309l-100 134l296 277h169l227 -273l-130 -138l-212 143z" />
    <glyph glyph-name="Udieresis" unicode="&#xdc;" horiz-adv-x="1312" 
d="M592 -24q-494 0 -493 419q0 65 7 117l103 722h381l-97 -674q-9 -56 -9 -122q0 -138 151 -138q106 0 149 61.5t61 198.5l97 674h371l-103 -722q-37 -251 -202.5 -393.5t-415.5 -142.5zM1041 1324q-76 0 -124 48.5t-48 127.5t58 134t134 55t124.5 -48.5t48.5 -129
t-58.5 -134t-134.5 -53.5zM552 1324q-77 0 -124.5 48.5t-47.5 127.5t57.5 134t133.5 55t125 -48.5t49 -129t-58 -134t-135 -53.5z" />
    <glyph glyph-name="Yacute" unicode="&#xdd;" horiz-adv-x="1158" 
d="M320 0l69 473l-305 754l4 7h413l128 -417l259 417h385l4 -7l-512 -784l-65 -443h-380zM503 1296l-62 179l475 264l114 -272l-28 -35z" />
    <glyph glyph-name="Thorn" unicode="&#xde;" horiz-adv-x="1131" 
d="M570.5 471q56.5 0 103.5 41t47 115.5t-36.5 105t-78.5 30.5t-72 -3l-41 -287q21 -2 77.5 -2zM686 1085q70 0 138 -17.5t135 -58.5t108 -121t41 -190q0 -259 -163 -394.5t-403 -135.5q-60 0 -91 1l-25 -169h-381l177 1234h381l-22 -152q35 3 105 3z" />
    <glyph glyph-name="germandbls" unicode="&#xdf;" horiz-adv-x="1228" 
d="M771 -26q-145 0 -242 48l35 268l9 4q91 -63 174 -63q61 0 61 54q0 26 -17.5 50t-81 80t-89.5 98t-26 81.5t3 59.5t7 34t12 30q8 18 12 26q10 26 68 83q54 58 54 117q0 71 -85 71q-60 0 -89.5 -45t-46.5 -141l-121 -829h-382l114 810q39 276 186 410t376 134
q156 0 291 -68q68 -34 109 -98.5t41 -140t-17.5 -127.5t-34.5 -73.5t-57 -61.5t-40 -73.5t15 -51.5t20.5 -25.5t20.5 -24t40 -45.5t42 -52t34.5 -72.5t17.5 -109.5q0 -166 -110.5 -261.5t-302.5 -95.5z" />
    <glyph glyph-name="agrave" unicode="&#xe0;" horiz-adv-x="1215" 
d="M558 320q98 0 112 77l37 245q-41 34 -110.5 34t-111.5 -64.5t-42 -144t34.5 -113.5t80.5 -34zM1092.5 335q20.5 0 35.5 15l8 -4l-45 -326q-88 -34 -194 -33q-182 0 -216 127q-91 -140 -269 -140t-276 116t-97 282q0 320 156.5 474t361.5 154q156 0 255 -64l13 36h314
l-85 -601q-4 -17 7 -26.5t31.5 -9.5zM862 1044l-512 187l-19 41l190 277l438 -300z" />
    <glyph glyph-name="aacute" unicode="&#xe1;" horiz-adv-x="1215" 
d="M558 320q98 0 112 77l37 245q-41 34 -110.5 34t-111.5 -64.5t-42 -144t34.5 -113.5t80.5 -34zM1092.5 335q20.5 0 35.5 15l8 -4l-45 -326q-88 -34 -194 -33q-182 0 -216 127q-91 -140 -269 -140t-276 116t-97 282q0 320 156.5 474t361.5 154q156 0 255 -64l13 36h314
l-85 -601q-4 -17 7 -26.5t31.5 -9.5zM1005 1240l-508 -203l-102 203l428 313l197 -272z" />
    <glyph glyph-name="acircumflex" unicode="&#xe2;" horiz-adv-x="1215" 
d="M558 320q98 0 112 77l37 245q-41 34 -110.5 34t-111.5 -64.5t-42 -144t34.5 -113.5t80.5 -34zM1092.5 335q20.5 0 35.5 15l8 -4l-45 -326q-88 -34 -194 -33q-182 0 -216 127q-91 -140 -269 -140t-276 116t-97 282q0 320 156.5 474t361.5 154q156 0 255 -64l13 36h314
l-85 -601q-4 -17 7 -26.5t31.5 -9.5zM689 1218l-220 -146l-106 116l266 301h175l200 -296l-138 -121z" />
    <glyph glyph-name="atilde" unicode="&#xe3;" horiz-adv-x="1215" 
d="M558 320q98 0 112 77l37 245q-41 34 -110.5 34t-111.5 -64.5t-42 -144t34.5 -113.5t80.5 -34zM1092.5 335q20.5 0 35.5 15l8 -4l-45 -326q-88 -34 -194 -33q-182 0 -216 127q-91 -140 -269 -140t-276 116t-97 282q0 320 156.5 474t361.5 154q156 0 255 -64l13 36h314
l-85 -601q-4 -17 7 -26.5t31.5 -9.5zM583 1450q67 0 127.5 -27.5t94 -27.5t55 17.5t24.5 41.5l8 4l225 -60q-17 -128 -102.5 -207t-189.5 -79q-60 0 -125 29.5t-95 29.5q-65 0 -78 -63l-8 -6l-229 67q13 110 96 195.5t197 85.5z" />
    <glyph glyph-name="adieresis" unicode="&#xe4;" horiz-adv-x="1215" 
d="M558 320q98 0 112 77l37 245q-41 34 -110.5 34t-111.5 -64.5t-42 -144t34.5 -113.5t80.5 -34zM1092.5 335q20.5 0 35.5 15l8 -4l-45 -326q-88 -34 -194 -33q-182 0 -216 127q-91 -140 -269 -140t-276 116t-97 282q0 320 156.5 474t361.5 154q156 0 255 -64l13 36h314
l-85 -601q-4 -17 7 -26.5t31.5 -9.5zM910.5 1072q-87.5 0 -142.5 56t-55 146.5t65 152t154 61.5t143.5 -54t54.5 -145.5t-66 -154t-153.5 -62.5zM454.5 1072q-86.5 0 -142 56t-55.5 146.5t66 152t153.5 61.5t142.5 -54t55 -145.5t-66.5 -154t-153 -62.5z" />
    <glyph glyph-name="aring" unicode="&#xe5;" horiz-adv-x="1215" 
d="M558 320q98 0 112 77l37 245q-41 34 -110.5 34t-111.5 -64.5t-42 -144t34.5 -113.5t80.5 -34zM1092.5 335q20.5 0 35.5 15l8 -4l-45 -326q-88 -34 -194 -33q-182 0 -216 127q-91 -140 -269 -140t-276 116t-97 282q0 320 156.5 474t361.5 154q156 0 255 -64l13 36h314
l-85 -601q-4 -17 7 -26.5t31.5 -9.5zM717.5 1372q-35.5 0 -63 -25t-27.5 -62.5t20.5 -58t56 -20.5t62.5 25.5t27 62.5t-20 57.5t-55.5 20.5zM690.5 1031q-115.5 0 -177.5 64.5t-62 179t80 192.5t194.5 78t177.5 -64t63 -179.5t-80 -193t-195.5 -77.5z" />
    <glyph glyph-name="ae" unicode="&#xe6;" horiz-adv-x="1716" 
d="M441 424q-1 -104 101 -104q117 0 147 212q7 47 26 105q-50 39 -119 39t-112 -74t-43 -178zM1311 588q0 108 -98 108t-129 -124l227 -2v18zM1677 614q0 -95 -31 -232l-568 -4q30 -106 177 -106t313 58l7 -4l-39 -281q-143 -71 -369 -71q-276 0 -404 169
q-108 -169 -344 -169q-179 0 -280.5 113.5t-101.5 284.5q0 307 161 467.5t398 160.5q190 0 316 -103q147 102 340 102.5t309 -96.5t116 -289z" />
    <glyph glyph-name="ccedilla" unicode="&#xe7;" horiz-adv-x="880" 
d="M41 406q0 274 170.5 434t434.5 160q127 0 227 -30l-43 -322l-7 -4q-82 32 -183.5 32t-152.5 -66t-51 -151.5t37 -123t116 -37.5t193 52l7 -4l-42 -335q-99 -35 -218 -37l-51 -47q9 0 28 -3q153 -19 153 -153q0 -235 -329 -235q-82 0 -123 12l18 137l6 2q37 -13 67 -13
q99 0 99 73q0 47 -62 46l-52 -2l-6 2l19 129l63 71q-147 39 -232.5 145t-85.5 268z" />
    <glyph glyph-name="egrave" unicode="&#xe8;" horiz-adv-x="1076" 
d="M670 588q0 108 -98 108t-129 -124l227 -2v18zM614.5 272q146.5 0 312.5 58l8 -4l-39 -281q-143 -71 -351 -71q-207 0 -345 95q-72 50 -115.5 142t-43.5 217q0 253 162 412.5t413 159.5q188 0 304.5 -98t116.5 -288q0 -89 -28 -214l-2 -18l-569 -4q30 -106 176.5 -106z
M819 1044l-512 187l-18 41l189 277l438 -300z" />
    <glyph glyph-name="eacute" unicode="&#xe9;" horiz-adv-x="1076" 
d="M670 588q0 108 -98 108t-129 -124l227 -2v18zM614.5 272q146.5 0 312.5 58l8 -4l-39 -281q-143 -71 -351 -71q-207 0 -345 95q-72 50 -115.5 142t-43.5 217q0 253 162 412.5t413 159.5q188 0 304.5 -98t116.5 -288q0 -89 -28 -214l-2 -18l-569 -4q30 -106 176.5 -106z
M963 1240l-509 -203l-102 203l428 313l197 -272z" />
    <glyph glyph-name="ecircumflex" unicode="&#xea;" horiz-adv-x="1076" 
d="M670 588q0 108 -98 108t-129 -124l227 -2v18zM614.5 272q146.5 0 312.5 58l8 -4l-39 -281q-143 -71 -351 -71q-207 0 -345 95q-72 50 -115.5 142t-43.5 217q0 253 162 412.5t413 159.5q188 0 304.5 -98t116.5 -288q0 -89 -28 -214l-2 -18l-569 -4q30 -106 176.5 -106z
M646 1218l-220 -146l-106 116l266 301h175l200 -296l-138 -121z" />
    <glyph glyph-name="edieresis" unicode="&#xeb;" horiz-adv-x="1076" 
d="M670 588q0 108 -98 108t-129 -124l227 -2v18zM616 1000q188 0 304.5 -98t116.5 -288q0 -89 -28 -214l-2 -18l-569 -4q30 -106 176.5 -106t312.5 58l8 -4l-39 -281q-143 -71 -351 -71q-207 0 -345 95q-72 50 -115.5 142t-43.5 217q0 253 162 412.5t413 159.5zM868.5 1072
q-86.5 0 -142.5 56t-56 146.5t65.5 152t154 61.5t143 -54t54.5 -145.5t-66 -154t-152.5 -62.5zM411.5 1072q-87.5 0 -142.5 56t-55 146.5t66 152t154 61.5t142.5 -54t54.5 -145.5t-66 -154t-153.5 -62.5z" />
    <glyph glyph-name="igrave" unicode="&#xec;" horiz-adv-x="582" 
d="M26 0l138 972h385l-139 -972h-384zM568 1050l-518 179l-18 41l186 279l445 -292z" />
    <glyph glyph-name="iacute" unicode="&#xed;" horiz-adv-x="579" 
d="M26 0l138 972h383l-137 -972h-384zM173 1037l-102 203l428 313l197 -272l-15 -41z" />
    <glyph glyph-name="icircumflex" unicode="&#xee;" horiz-adv-x="579" 
d="M26 0l138 972h383l-137 -972h-384zM166 1074l-103 116l270 299h177l192 -299l-134 -116l-184 145z" />
    <glyph glyph-name="idieresis" unicode="&#xef;" horiz-adv-x="625" 
d="M48 0l138 972h386l-138 -972h-386zM860 1288q0 -92 -66 -154t-154 -62t-144 56q-55 56 -55 146t66 152t155 62q90 0 144 -54t54 -146zM387 1288q0 -92 -66 -154q-65 -62 -153 -62t-143 55t-55 147t65 152q65 62 154 62t143 -54t55 -146z" />
    <glyph glyph-name="eth" unicode="&#xf0;" horiz-adv-x="1185" 
d="M549 296q140 0 194 162q-32 115 -143 115q-73 0 -115 -50t-42 -107q0 -56 24 -88t82 -32zM497 -26q-220 0 -341 104t-121 281q0 220 138 360t346 139q171 0 261 -95q-6 125 -52 194l-48 -80l-177 115l31 52h-16q-132 0 -233 -29l-9 7l41 305q86 30 210 30t190 -11l65 108
l175 -117l-35 -60q234 -141 234 -507t-180 -581t-479 -215z" />
    <glyph glyph-name="ntilde" unicode="&#xf1;" horiz-adv-x="1167" 
d="M600 629q-89 0 -112 -89l-75 -540h-387l138 972h314l15 -129q104 157 313 157q138 0 217 -86.5t79 -226.5q0 -65 -7 -117l-86 -570h-383l68 499l2 32q4 45 -22 71.5t-74 26.5zM570 1450q67 0 127.5 -27.5t93 -27.5t55 17.5t25.5 41.5l8 4l225 -60q-17 -128 -102.5 -207
t-189.5 -79q-60 0 -125 29.5t-95 29.5q-65 0 -78 -63l-8 -6l-229 67q13 110 96 195.5t197 85.5z" />
    <glyph glyph-name="ograve" unicode="&#xf2;" horiz-adv-x="1156" 
d="M564 298q74 0 112.5 69t38.5 160q0 145 -119 145q-80 0 -116.5 -66t-36.5 -161q0 -147 121 -147zM538 -24q-212 0 -351 114q-139 112 -139 352t157.5 398t416.5 158q210 0 348 -114t138 -354t-156.5 -397t-413.5 -157zM808 1024l-512 186l-19 41l190 278l438 -300z" />
    <glyph glyph-name="oacute" unicode="&#xf3;" horiz-adv-x="1156" 
d="M564 298q74 0 112.5 69t38.5 160q0 145 -119 145q-80 0 -116.5 -66t-36.5 -161q0 -147 121 -147zM538 -24q-212 0 -351 114q-139 112 -139 352t157.5 398t416.5 158q210 0 348 -114t138 -354t-156.5 -397t-413.5 -157zM443 1017l-102 202l428 313l197 -272l-15 -41z" />
    <glyph glyph-name="ocircumflex" unicode="&#xf4;" horiz-adv-x="1156" 
d="M564 298q74 0 112.5 69t38.5 160q0 145 -119 145q-80 0 -116.5 -66t-36.5 -161q0 -147 121 -147zM538 -24q-212 0 -351 114q-139 112 -139 352t157.5 398t416.5 158q210 0 348 -114t138 -354t-156.5 -397t-413.5 -157zM415 1052l-106 115l266 302h175l200 -296l-138 -121
l-177 145z" />
    <glyph glyph-name="otilde" unicode="&#xf5;" horiz-adv-x="1156" 
d="M564 298q74 0 112.5 69t38.5 160q0 145 -119 145q-80 0 -116.5 -66t-36.5 -161q0 -147 121 -147zM538 -24q-212 0 -351 113.5t-139 353t157.5 397.5t416.5 158q209 0 347.5 -113.5t138.5 -354t-156.5 -397.5t-413.5 -157zM529 1430q67 0 127.5 -28t93 -28t55 18.5
t25.5 41.5l8 3l225 -59q-17 -128 -102.5 -207.5t-189.5 -79.5q-60 0 -125 30t-95 30q-65 0 -78 -64l-8 -5l-229 67q13 110 96 195.5t197 85.5z" />
    <glyph glyph-name="odieresis" unicode="&#xf6;" horiz-adv-x="1156" 
d="M564 298q74 0 112.5 69t38.5 160q0 145 -119 145q-80 0 -116.5 -66t-36.5 -161q0 -147 121 -147zM538 -24q-212 0 -351 113.5t-139 353t157.5 397.5t416.5 158q209 0 347.5 -113.5t138.5 -354t-156.5 -397.5t-413.5 -157zM857.5 1052q-86.5 0 -142.5 55t-56 146.5
t65 152.5t154 61t143.5 -54t54.5 -145.5t-66 -153.5t-152.5 -62zM399.5 1052q-87.5 0 -142 55t-54.5 146.5t66 152.5t153.5 61t142.5 -54t55 -145.5t-66.5 -153.5t-154 -62z" />
    <glyph glyph-name="divide" unicode="&#xf7;" horiz-adv-x="1035" 
d="M463 34q-182 0 -182 166q0 79 58 140q58 60 155 60q98 0 140 -44t42 -124t-58 -139t-155 -59zM39 447l32 244h947l-33 -244h-946zM562 730q-182 0 -182 166q0 78 58 139q59 61 155 61t140 -44q43 -45 43 -124t-58 -139q-59 -59 -156 -59z" />
    <glyph glyph-name="oslash" unicode="&#xf8;" horiz-adv-x="1156" 
d="M564 298q74 0 112.5 69t38.5 160q0 145 -119 145q-80 0 -116.5 -66t-36.5 -161q0 -147 121 -147zM1108 525q0 -235 -156.5 -392t-413.5 -157q-88 0 -169 20l-73 -102h-205v30l106 158q-149 119 -149 359.5t157.5 398.5t416.5 158q93 0 175 -22l67 100h223v-24l-115 -169
q136 -123 136 -358z" />
    <glyph glyph-name="ugrave" unicode="&#xf9;" horiz-adv-x="1150" 
d="M318 -24q-117 0 -188.5 66t-71.5 174q0 50 3 95l97 661h384l-78 -538q-6 -39 -6 -58q-4 -74 72 -74t118 61l89 609h384l-140 -972h-313l-16 140q-117 -164 -334 -164zM856 1044l-512 187l-18 41l190 277l437 -300z" />
    <glyph glyph-name="uacute" unicode="&#xfa;" horiz-adv-x="1150" 
d="M318 -24q-117 0 -188.5 66t-71.5 174q0 50 3 95l97 661h384l-78 -538q-6 -39 -6 -58q-4 -74 72 -74t118 61l89 609h384l-140 -972h-313l-16 140q-117 -164 -334 -164zM1000 1240l-508 -203l-103 203l428 313l198 -272z" />
    <glyph glyph-name="ucircumflex" unicode="&#xfb;" horiz-adv-x="1150" 
d="M318 -24q-117 0 -188.5 66t-71.5 174q0 50 3 95l97 661h384l-78 -538q-6 -39 -6 -58q-4 -74 72 -74t118 61l89 609h384l-140 -972h-313l-16 140q-117 -164 -334 -164zM683 1218l-219 -146l-107 116l267 301h175l199 -296l-138 -121z" />
    <glyph glyph-name="udieresis" unicode="&#xfc;" horiz-adv-x="1150" 
d="M318 -24q-117 0 -188.5 66t-71.5 174q0 50 3 95l97 661h384l-78 -538q-6 -39 -6 -58q-4 -74 72.5 -74t117.5 61l89 609h384l-140 -972h-313l-16 140q-117 -164 -334 -164zM905.5 1072q-86.5 0 -142.5 56t-56 146.5t65.5 152t154 61.5t143.5 -54t55 -145.5t-66.5 -154
t-153 -62.5zM448.5 1072q-87.5 0 -142.5 56t-55 146.5t66.5 152t154 61.5t142 -54t54.5 -145.5t-66 -154t-153.5 -62.5z" />
    <glyph glyph-name="yacute" unicode="&#xfd;" horiz-adv-x="1007" 
d="M112 -320q-84 0 -136 20l43 307l7 4q28 -9 72.5 -9t77.5 5.5t69 30.5t57 70l-242 855l3 9h408l65 -393l157 393h387l4 -9l-468 -907q-110 -216 -214 -296t-290 -80zM931 1240l-508 -203l-103 203l428 313l198 -272z" />
    <glyph glyph-name="thorn" unicode="&#xfe;" horiz-adv-x="1171" 
d="M561 300q66 0 116.5 60.5t50.5 164.5q0 132 -115 132q-73 0 -118 -63l-39 -277q39 -17 105 -17zM809.5 1000q151.5 0 235 -111t83.5 -291q0 -276 -168.5 -450t-400.5 -174q-88 0 -148 26l-44 -307h-386l237 1644h383l-61 -427q118 90 269.5 90z" />
    <glyph glyph-name="ydieresis" unicode="&#xff;" horiz-adv-x="1007" 
d="M112 -320q-84 0 -136 20l43 307l7 4q28 -9 72.5 -9t77.5 5.5t69 30.5t57 70l-242 855l3 9h408l65 -393l157 393h387l4 -9l-468 -907q-110 -216 -214 -296t-290 -80zM835.5 1072q-87.5 0 -142 56t-54.5 146.5t65 152t153.5 61.5t143.5 -54t55 -145.5t-66.5 -154
t-154 -62.5zM380.5 1072q-86.5 0 -142.5 56t-56 146.5t66.5 152t154 61.5t142.5 -54t55 -145.5t-66.5 -154t-153 -62.5z" />
    <glyph glyph-name="Amacron" unicode="&#x100;" horiz-adv-x="1189" 
d="M464 357h201l-47 177l-20 106l-47 -106zM758 0l-28 104h-393l-52 -104h-382l704 1246h175l372 -1246h-396zM1059 1597l-26 -217h-644l30 217h640z" />
    <glyph glyph-name="amacron" unicode="&#x101;" horiz-adv-x="1215" 
d="M558 320q98 0 112 77l37 245q-41 34 -110.5 34t-111.5 -64.5t-42 -144t34.5 -113.5t80.5 -34zM1092.5 335q20.5 0 35.5 15l8 -4l-45 -326q-88 -34 -194 -33q-182 0 -216 127q-91 -140 -269 -140t-276 116t-97 282q0 320 156.5 474t361.5 154q156 0 255 -64l13 36h314
l-85 -601q-4 -17 7 -26.5t31.5 -9.5zM1004 1350l-34 -216h-583l32 216h585z" />
    <glyph glyph-name="Abreve" unicode="&#x102;" horiz-adv-x="1189" 
d="M464 357h201l-47 177l-20 106l-47 -106zM758 0l-28 104h-393l-52 -104h-382l704 1246h175l372 -1246h-396zM726 1346q-147 0 -239 92t-70 239l231 25q-7 -132 108 -132q50 0 85.5 37t46.5 95l207 -25q-19 -151 -120.5 -241t-248.5 -90z" />
    <glyph glyph-name="abreve" unicode="&#x103;" horiz-adv-x="1215" 
d="M558 320q98 0 112 77l37 245q-41 34 -110.5 34t-111.5 -64.5t-42 -144t34.5 -113.5t80.5 -34zM1092.5 335q20.5 0 35.5 15l8 -4l-45 -326q-88 -34 -194 -33q-182 0 -216 127q-91 -140 -269 -140t-276 116t-97 282q0 320 156.5 474t361.5 154q156 0 255 -64l13 36h314
l-85 -601q-4 -17 7 -26.5t31.5 -9.5zM686.5 1078q-145.5 0 -228 89.5t-58.5 241.5l216 25l11 -8q-4 -47 19.5 -78.5t72.5 -31.5q84 0 121 110l7 6l199 -23q-24 -158 -119 -244.5t-240.5 -86.5z" />
    <glyph glyph-name="Aogonek" unicode="&#x104;" horiz-adv-x="1189" 
d="M464 357h201l-47 177l-20 106l-47 -106zM948 -281q32 0 54 7l9 -9l-22 -169q-65 -15 -154.5 -15t-157.5 42.5t-68 126.5q0 162 234 298h-85l-28 104h-393l-52 -104h-382l704 1246h175l372 -1246h-91q-181 -93 -180 -207q0 -74 65 -74z" />
    <glyph glyph-name="aogonek" unicode="&#x105;" horiz-adv-x="1215" 
d="M558 320q98 0 112 77l37 245q-41 34 -110.5 34t-111.5 -64.5t-42 -144t34.5 -113.5t80.5 -34zM914 -184q0 -74 65 -75q32 0 54 8l10 -10l-23 -169q-65 -15 -154 -15t-157.5 43t-68.5 126q0 145 187 269q-121 20 -146 121q-91 -140 -269 -140t-276 116t-97 282
q0 320 156.5 474t361.5 154q156 0 255 -64l13 36h314l-85 -601q-4 -17 7 -26.5t31.5 -9.5t35.5 15l8 -4l-45 -324h4q-181 -93 -181 -206z" />
    <glyph glyph-name="Cacute" unicode="&#x106;" horiz-adv-x="1074" 
d="M648 -22q-272 0 -428.5 146t-156.5 412q0 337 213.5 532.5t540.5 195.5q164 0 274 -31l-47 -358l-9 -4q-91 48 -210 49q-173 0 -264.5 -92.5t-91.5 -248.5q0 -255 289 -255q102 0 205 37l7 -4l-45 -344q-122 -35 -277 -35zM532 1296l-61 179l475 264l113 -272l-28 -35z
" />
    <glyph glyph-name="cacute" unicode="&#x107;" horiz-adv-x="880" 
d="M519 -26q-212 0 -345 113.5t-133 318.5q0 274 170.5 434t434.5 160q127 0 227 -30l-43 -322l-7 -4q-81 32 -183 32t-153 -66t-51 -152t37 -123t116 -37t193 52l7 -4l-42 -335q-109 -37 -228 -37zM426 1063l-102 203l428 313l198 -272l-15 -41z" />
    <glyph glyph-name="Ccircumflex" unicode="&#x108;" horiz-adv-x="1074" 
d="M648 -22q-272 0 -428.5 146t-156.5 412q0 337 213.5 532.5t540.5 195.5q164 0 274 -31l-47 -358l-9 -4q-91 48 -210 49q-173 0 -264.5 -92.5t-91.5 -248.5q0 -255 289 -255q102 0 205 37l7 -4l-45 -344q-122 -35 -277 -35zM506 1309l-100 134l296 277h169l227 -273
l-130 -138l-212 143z" />
    <glyph glyph-name="ccircumflex" unicode="&#x109;" horiz-adv-x="880" 
d="M519 -26q-212 0 -345 113.5t-133 318.5q0 274 170.5 434t434.5 160q127 0 227 -30l-43 -322l-7 -4q-81 32 -183 32t-153 -66t-51 -152t37 -123t116 -37t193 52l7 -4l-42 -335q-109 -37 -228 -37zM398 1098l-106 116l267 302h175l199 -297l-138 -121l-177 146z" />
    <glyph glyph-name="Cdotaccent" unicode="&#x10a;" horiz-adv-x="1074" 
d="M648 -22q-272 0 -428.5 146t-156.5 412q0 337 213.5 532.5t540.5 195.5q164 0 274 -31l-47 -358l-9 -4q-91 48 -210 49q-173 0 -264.5 -92.5t-91.5 -248.5q0 -255 289 -255q102 0 205 37l7 -4l-45 -344q-122 -35 -277 -35zM738 1292q-92 0 -150.5 58.5t-58.5 153.5
t69.5 161t162.5 66t151 -58.5t58 -153t-70 -161t-162 -66.5z" />
    <glyph glyph-name="cdotaccent" unicode="&#x10b;" horiz-adv-x="880" 
d="M519 -26q-212 0 -345 113.5t-133 318.5q0 274 170.5 434t434.5 160q127 0 227 -30l-43 -322l-7 -4q-82 32 -183.5 32t-152.5 -66t-51 -151.5t37 -123t116 -37.5t193 52l7 -4l-42 -335q-109 -37 -228 -37zM617 1087q-92 0 -150.5 59t-58.5 153.5t69.5 161t162.5 66.5
t151 -59t58 -153.5t-70 -161t-162 -66.5z" />
    <glyph glyph-name="Ccaron" unicode="&#x10c;" horiz-adv-x="1074" 
d="M648 -22q-272 0 -428.5 146t-156.5 412q0 337 213.5 532.5t540.5 195.5q164 0 274 -31l-47 -358l-9 -4q-91 48 -210 49q-173 0 -264.5 -92.5t-91.5 -248.5q0 -255 289 -255q102 0 205 37l7 -4l-45 -344q-122 -35 -277 -35zM642 1309l-223 274l128 137l213 -141l251 141
l101 -134l-298 -277h-172z" />
    <glyph glyph-name="ccaron" unicode="&#x10d;" horiz-adv-x="880" 
d="M519 -26q-212 0 -345 113.5t-133 318.5q0 274 170.5 434t434.5 160q127 0 227 -30l-43 -322l-7 -4q-81 32 -183 32t-153 -66t-51 -152t37 -123t116 -37t193 52l7 -4l-42 -335q-109 -37 -228 -37zM516 1098l-192 304l134 114l188 -146l216 146l101 -114l-270 -304h-177z
" />
    <glyph glyph-name="Dcaron" unicode="&#x10e;" horiz-adv-x="1323" 
d="M590 333q141 0 223.5 91.5t82.5 230t-66.5 196.5t-147 58t-131.5 -8l-78 -566q22 -2 117 -2zM671.5 1253q303.5 0 462 -137t158.5 -384q0 -344 -218 -541t-573 -197q-411 4 -456 6l171 1234q152 19 455.5 19zM810 1322h-171l-224 274l129 137l212 -141l251 141l101 -134z
" />
    <glyph glyph-name="dcaron" unicode="&#x10f;" horiz-adv-x="1334" 
d="M559 320q89 0 113 80l34 244q-45 32 -112 32t-109 -59.5t-42 -158.5q1 -138 116 -138zM1084 335q26 0 46 13l6 -4l-45 -324q-86 -34 -194 -33q-184 0 -216 125q-37 -61 -111.5 -99.5t-174.5 -38.5q-145 0 -251.5 107t-106.5 310q0 289 153 449t391 160q97 0 171 -30
l52 367h386l-136 -953q-5 -49 30 -49zM1510 1346l28 -30l-162 -463h-194l82 493h246z" />
    <glyph glyph-name="Dcroat" unicode="&#x110;" horiz-adv-x="1323" 
d="M590 333q141 0 223.5 91.5t82.5 230t-66.5 196.5t-147 58t-131.5 -8l-22 -162h151l-30 -220h-151l-26 -184q22 -2 117 -2zM671.5 1253q303.5 0 462 -137t158.5 -384q0 -344 -218 -541t-573 -197q-411 4 -456 6l72 519h-143l30 220h143l69 495q152 19 455.5 19z" />
    <glyph glyph-name="dcroat" unicode="&#x111;" horiz-adv-x="1213" 
d="M559 320q89 0 113 80l34 244q-45 32 -112 32t-109 -59.5t-42 -158.5q1 -138 116 -138zM395 -26q-145 0 -251.5 107t-106.5 310q0 289 153 449t391 160q97 0 171 -30l13 88h-119l30 221h121l7 58h386l-8 -58h54l-28 -221h-57l-97 -674q-6 -48 30 -49q26 0 46 13l6 -4
l-45 -324q-86 -34 -194 -33q-184 0 -216 125q-37 -61 -111.5 -99.5t-174.5 -38.5z" />
    <glyph glyph-name="Emacron" unicode="&#x112;" horiz-adv-x="1040" 
d="M1007 936h-447l-22 -161h410l-41 -293h-412l-26 -180h458l-41 -302h-841l177 1234h828zM1005 1583l-26 -218h-644l30 218h640z" />
    <glyph glyph-name="emacron" unicode="&#x113;" horiz-adv-x="1076" 
d="M670 588q0 108 -98 108t-129 -124l227 -2v18zM614.5 272q146.5 0 312.5 58l8 -4l-39 -281q-143 -71 -351 -71q-207 0 -345 95q-72 50 -115.5 142t-43.5 217q0 253 162 412.5t413 159.5q188 0 304.5 -98t116.5 -288q0 -89 -28 -214l-2 -18l-569 -4q30 -106 176.5 -106z
M961 1350l-34 -216h-583l32 216h585z" />
    <glyph glyph-name="Ebreve" unicode="&#x114;" horiz-adv-x="1040" 
d="M1007 936h-447l-22 -161h410l-41 -293h-412l-26 -180h458l-41 -302h-841l177 1234h828zM672 1331q-147 0 -239 92.5t-70 239.5l231 24q-7 -132 108 -132q50 0 85.5 37t46.5 95l207 -24q-19 -151 -120.5 -241.5t-248.5 -90.5z" />
    <glyph glyph-name="ebreve" unicode="&#x115;" horiz-adv-x="1076" 
d="M670 588q0 108 -98 108t-129 -124l227 -2v18zM614.5 272q146.5 0 312.5 58l8 -4l-39 -281q-143 -71 -351 -71q-207 0 -345 95q-72 50 -115.5 142t-43.5 217q0 253 162 412.5t413 159.5q188 0 304.5 -98t116.5 -288q0 -89 -28 -214l-2 -18l-569 -4q30 -106 176.5 -106z
M644.5 1078q-145.5 0 -228.5 89.5t-59 241.5l216 25l12 -8q-4 -47 19 -78.5t72 -31.5q84 0 121 110l7 6l200 -23q-24 -158 -119 -244.5t-240.5 -86.5z" />
    <glyph glyph-name="Edotaccent" unicode="&#x116;" horiz-adv-x="1040" 
d="M1007 936h-447l-22 -161h410l-41 -293h-412l-26 -180h458l-41 -302h-841l177 1234h828zM655 1292q-92 0 -151 58.5t-59 153.5t70 161t162.5 66t150.5 -58.5t58 -153t-69.5 -161t-161.5 -66.5z" />
    <glyph glyph-name="edotaccent" unicode="&#x117;" horiz-adv-x="1076" 
d="M670 588q0 108 -98 108t-129 -124l227 -2v18zM614.5 272q146.5 0 312.5 58l8 -4l-39 -281q-143 -71 -351 -71q-207 0 -345 95q-72 50 -115.5 142t-43.5 217q0 253 162 412.5t413 159.5q188 0 304.5 -98t116.5 -288q0 -89 -28 -214l-2 -18l-569 -4q30 -106 176.5 -106z
M645 1061q-92 0 -150.5 59t-58.5 153.5t69.5 161t162.5 66.5t151 -59t58 -153.5t-70 -161t-162 -66.5z" />
    <glyph glyph-name="Eogonek" unicode="&#x118;" horiz-adv-x="1040" 
d="M771 -281q32 0 54 7l9 -9l-22 -169q-65 -15 -154.5 -15t-157.5 42.5t-68 126.5q0 162 235 298h-622l177 1234h828l-43 -298h-447l-22 -161h410l-41 -293h-412l-26 -180h458l-41 -302q-181 -93 -180 -207q0 -74 65 -74z" />
    <glyph glyph-name="eogonek" unicode="&#x119;" horiz-adv-x="1076" 
d="M670 588q0 108 -98 108t-129 -124l227 -2v18zM614.5 272q146.5 0 312.5 58l8 -4l-39 -281q-63 -30 -121 -43q-145 -86 -146 -188q0 -74 65 -75q32 0 54 8l10 -10l-23 -169q-65 -15 -154 -15t-157 43t-68 127q0 136 162 251q-190 4 -324 98q-72 50 -112.5 141.5
t-40.5 214.5q0 253 162 412.5t413 159.5q188 0 304.5 -98t116.5 -288q0 -89 -28 -214l-2 -18l-569 -4q30 -106 176.5 -106z" />
    <glyph glyph-name="Ecaron" unicode="&#x11a;" horiz-adv-x="1040" 
d="M1007 936h-447l-22 -161h410l-41 -293h-412l-26 -180h458l-41 -302h-841l177 1234h828zM730 1309h-171l-224 274l129 137l212 -141l251 141l101 -134z" />
    <glyph glyph-name="ecaron" unicode="&#x11b;" horiz-adv-x="1076" 
d="M670 588q0 108 -98 108t-129 -124l227 -2v18zM614.5 272q146.5 0 312.5 58l8 -4l-39 -281q-143 -71 -351 -71q-207 0 -345 95q-72 50 -115.5 142t-43.5 217q0 253 162 412.5t413 159.5q188 0 304.5 -98t116.5 -288q0 -89 -28 -214l-2 -18l-569 -4q30 -106 176.5 -106z
M721 1072h-177l-192 304l134 113l188 -145l216 145l100 -113z" />
    <glyph glyph-name="Gcircumflex" unicode="&#x11c;" horiz-adv-x="1213" 
d="M652 -20q-263 0 -425 138.5t-162 397.5q0 346 218 547t583 201q182 0 324 -37l-49 -358l-7 -1q-104 52 -289 52t-283 -94t-98 -260q0 -244 249 -244q61 0 71 -2l17 118h-108l35 262h434l-91 -668q-214 -52 -419 -52zM812 1465l-250 -143l-100 134l296 277h169l227 -273
l-130 -138z" />
    <glyph glyph-name="gcircumflex" unicode="&#x11d;" horiz-adv-x="1169" 
d="M447 522q0 -131 110 -131t132 95l24 156q-41 32 -109 32t-112.5 -42.5t-44.5 -109.5zM413.5 -328q-247.5 0 -413.5 64l45 307l7 4q147 -82 346.5 -82t236.5 169q-82 -54 -211 -54q-173 0 -275 98t-102 265q0 263 150.5 410t385.5 147q162 0 260 -80l41 80h261l-117 -821
q-34 -251 -200.5 -379t-414 -128zM667 1218l-220 -146l-106 116l266 301h175l199 -296l-138 -121z" />
    <glyph glyph-name="Gbreve" unicode="&#x11e;" horiz-adv-x="1213" 
d="M652 -20q-263 0 -425 138.5t-162 397.5q0 346 218 547t583 201q182 0 324 -37l-49 -358l-7 -1q-104 52 -289 52t-283 -94t-98 -260q0 -244 249 -244q61 0 71 -2l17 118h-108l35 262h434l-91 -668q-214 -52 -419 -52zM812 1344q-147 0 -239.5 92.5t-69.5 239.5l231 24
q-7 -132 108 -132q50 0 85.5 37t46.5 95l206 -24q-19 -151 -120 -241.5t-248 -90.5z" />
    <glyph glyph-name="gbreve" unicode="&#x11f;" horiz-adv-x="1169" 
d="M447 522q0 -131 110 -131t132 95l24 156q-41 32 -109 32t-112.5 -42.5t-44.5 -109.5zM413.5 -328q-247.5 0 -413.5 64l45 307l7 4q147 -82 346.5 -82t236.5 169q-82 -54 -211 -54q-173 0 -275 98t-102 265q0 263 150.5 410t385.5 147q162 0 260 -80l41 80h261l-117 -821
q-34 -251 -200.5 -379t-414 -128zM664.5 1078q-145.5 0 -228 89.5t-58.5 241.5l216 25l11 -8q-4 -47 19.5 -78.5t71.5 -31.5q84 0 121 110l8 6l199 -23q-24 -158 -119 -244.5t-240.5 -86.5z" />
    <glyph glyph-name="Gdotaccent" unicode="&#x120;" horiz-adv-x="1213" 
d="M652 -20q-263 0 -425 138.5t-162 397.5q0 346 218 547t583 201q182 0 324 -37l-49 -358l-7 -1q-104 52 -289 52t-283 -94t-98 -260q0 -244 249 -244q61 0 71 -2l17 118h-108l35 262h434l-91 -668q-214 -52 -419 -52zM794 1305q-92 0 -150.5 58.5t-58.5 153.5t69.5 161.5
t162.5 66.5t151 -59t58 -153.5t-70 -161t-162 -66.5z" />
    <glyph glyph-name="gdotaccent" unicode="&#x121;" horiz-adv-x="1169" 
d="M447 522q0 -131 110 -131t132 95l24 156q-41 32 -109 32t-112.5 -42.5t-44.5 -109.5zM413.5 -328q-247.5 0 -413.5 64l45 307l7 4q147 -82 346.5 -82t236.5 169q-82 -54 -211 -54q-173 0 -275 98t-102 265q0 263 150.5 410t385.5 147q162 0 260 -80l41 80h261l-117 -821
q-34 -251 -200.5 -379t-414 -128zM666 1061q-92 0 -151 59t-59 153.5t70 161t163 66.5t150.5 -59t57.5 -153.5t-69.5 -161t-161.5 -66.5z" />
    <glyph glyph-name="Gcommaaccent" unicode="&#x122;" horiz-adv-x="1213" 
d="M478 -95l280 22l18 -41q-28 -203 -169 -378h-203q56 188 63 236.5t11 160.5zM652 -20q-263 0 -425 138.5t-162 397.5q0 346 218 547t583 201q182 0 324 -37l-49 -358l-7 -1q-104 52 -289 52t-283 -94t-98 -260q0 -244 249 -244q61 0 71 -2l17 118h-108l35 262h434
l-91 -668q-214 -52 -419 -52z" />
    <glyph glyph-name="gcommaaccent" unicode="&#x123;" horiz-adv-x="1169" 
d="M447 522q0 -131 110 -131t132 95l24 156q-41 32 -109 32t-112.5 -42.5t-44.5 -109.5zM413.5 -328q-247.5 0 -413.5 64l45 307l7 4q147 -82 346.5 -82t236.5 169q-82 -54 -211 -54q-173 0 -275 98t-102 265q0 263 150.5 410t385.5 147q162 0 260 -80l41 80h261l-117 -821
q-34 -251 -200.5 -379t-414 -128zM799 1067l-280 -23l-18 41q28 203 169 378h203q-56 -188 -63 -236t-11 -160z" />
    <glyph glyph-name="Hcircumflex" unicode="&#x124;" horiz-adv-x="1364" 
d="M968 1234h384l-179 -1234h-380l63 452h-364l-64 -452h-383l177 1234h381l-61 -433h365zM823 1452l-250 -143l-100 134l296 277h169l227 -273l-130 -138z" />
    <glyph glyph-name="hcircumflex" unicode="&#x125;" horiz-adv-x="1169" 
d="M791 1000q151 0 230 -85t79 -230q0 -45 -9 -95l-84 -590h-383l70 521v10q0 47 -27 72.5t-69 25.5q-86 0 -110 -80l-78 -549h-384l190 1337h385l-61 -434q100 97 251 97zM419 1489l-250 -143l-100 134l296 278h169l227 -274l-130 -138z" />
    <glyph glyph-name="Hbar" unicode="&#x126;" horiz-adv-x="1364" 
d="M907 801l13 91h-365l-13 -91h365zM1441 1115l-30 -223h-110l-128 -892h-380l63 452h-364l-64 -452h-383l128 892h-108l30 223h110l17 119h381l-17 -119h365l17 119h384l-17 -119h106z" />
    <glyph glyph-name="hbar" unicode="&#x127;" horiz-adv-x="1167" 
d="M791 1000q151 0 230 -85t79 -230q0 -45 -9 -95l-84 -590h-383l67 495q4 26 3 36q0 47 -27 72.5t-69 25.5q-86 0 -110 -80l-78 -549h-384l151 1058h-129l28 221h133l7 58h385l-7 -58h156l-26 -221h-164l-20 -155q100 97 251 97z" />
    <glyph glyph-name="Itilde" unicode="&#x128;" horiz-adv-x="619" 
d="M45 0l165 1234h386l-166 -1234h-385zM304.5 1653q84.5 0 162 -27t105 -27t50 17t26.5 43l5 4l202 -56q-15 -121 -85 -201t-148 -80t-164 26t-115.5 26t-50 -18.5t-26.5 -41.5l-5 -4l-200 58q15 117 87 199t156.5 82z" />
    <glyph glyph-name="itilde" unicode="&#x129;" horiz-adv-x="579" 
d="M26 0l138 972h383l-137 -972h-384zM300 1452q60 0 123 -26t95.5 -26t54 19.5t25.5 43.5l7 4l212 -59q-19 -130 -104.5 -208.5t-196.5 -78.5q-52 0 -121 27t-95 27q-63 0 -77 -65l-7 -6l-214 63q17 114 97 199.5t201 85.5z" />
    <glyph glyph-name="Imacron" unicode="&#x12a;" horiz-adv-x="619" 
d="M45 0l165 1234h386l-166 -1234h-385zM114 1365l29 218h641l-26 -218h-644z" />
    <glyph glyph-name="imacron" unicode="&#x12b;" horiz-adv-x="579" 
d="M26 0l136 972h384l-136 -972h-384zM74 1134l32 221h601l-31 -221h-602z" />
    <glyph glyph-name="Ibreve" unicode="&#x12c;" horiz-adv-x="619" 
d="M45 0l165 1234h386l-166 -1234h-385zM450.5 1331q-147.5 0 -239.5 92.5t-70 239.5l231 24q-7 -132 108 -132q50 0 85.5 37t47.5 95l206 -24q-19 -151 -120 -241.5t-248.5 -90.5z" />
    <glyph glyph-name="ibreve" unicode="&#x12d;" horiz-adv-x="579" 
d="M26 0l138 972h383l-137 -972h-384zM385.5 1078q-145.5 0 -228.5 89.5t-58 241.5l216 25l11 -8q-4 -47 19.5 -78.5t71.5 -31.5q84 0 121 110l8 6l199 -23q-24 -158 -119 -244.5t-240.5 -86.5z" />
    <glyph glyph-name="Iogonek" unicode="&#x12e;" horiz-adv-x="619" 
d="M177 -447q-89 0 -157 43t-68 127q0 149 201 277h-108l165 1234h386l-166 -1234h-61q-143 -86 -144 -186q0 -74 65 -75q32 0 54 8l10 -10l-23 -169q-65 -15 -154 -15z" />
    <glyph glyph-name="iogonek" unicode="&#x12f;" horiz-adv-x="579" 
d="M135.5 -469q-88.5 0 -157.5 43.5t-69 127.5q0 162 236 296l222 2h-341l136 972h384l-136 -972h-43q-182 -93 -183 -207q0 -76 64 -76q22 0 55 7l8 -7l-22 -171q-65 -15 -153.5 -15zM370 1061q-92 0 -151 59t-59 153.5t70 161t163 66.5t150.5 -59t57.5 -153.5t-69.5 -161
t-161.5 -66.5z" />
    <glyph glyph-name="Idotaccent" unicode="&#x130;" horiz-adv-x="619" 
d="M45 0l165 1234h386l-166 -1234h-385zM433 1292q-92 0 -151 58.5t-59 153.5t70 161t163 66t151 -58.5t58 -153t-70 -161t-162 -66.5z" />
    <glyph glyph-name="dotlessi" unicode="&#x131;" horiz-adv-x="579" 
d="M26 0l138 972h383l-137 -972h-384z" />
    <glyph glyph-name="IJ" unicode="&#x132;" horiz-adv-x="1360" 
d="M693 -6q-61 0 -120 8l49 320l7 4q28 -6 52 -6q93 0 139 60.5t63 170.5l100 683h384l-95 -644q-43 -302 -186.5 -449t-392.5 -147zM45 0l165 1234h386l-166 -1234h-385z" />
    <glyph glyph-name="ij" unicode="&#x133;" horiz-adv-x="1193" 
d="M551 -320q-71 0 -162 13l47 329l7 6q30 -9 69 -9q130 0 153 154l115 799h382l-125 -890q-30 -205 -159.5 -303.5t-326.5 -98.5zM26 0l138 972h383l-137 -972h-384zM1001 1061q-92 0 -151 59t-59 153.5t70 161t163 66.5t151 -59t58 -153.5t-70 -161t-162 -66.5zM387 1061
q-92 0 -151 59t-59 153.5t70 161t162.5 66.5t150.5 -59t58 -153.5t-69.5 -161t-161.5 -66.5z" />
    <glyph glyph-name="Jcircumflex" unicode="&#x134;" horiz-adv-x="741" 
d="M73 -6q-61 0 -120 8l49 320l7 4q28 -6 52 -6q93 0 139 60.5t63 170.5l100 683h384l-95 -644q-43 -302 -186.5 -449t-392.5 -147zM328 1309l-101 134l296 277h170l227 -273l-131 -138l-212 143z" />
    <glyph glyph-name="jcircumflex" unicode="&#x135;" horiz-adv-x="614" 
d="M-28 -320q-71 0 -162 13l47 329l7 6q30 -9 69 -9q130 0 153 154l115 799h382l-125 -890q-30 -205 -159.5 -303.5t-326.5 -98.5zM203 1072l-106 116l266 301h175l199 -296l-137 -121l-177 146z" />
    <glyph glyph-name="Kcommaaccent" unicode="&#x136;" horiz-adv-x="1288" 
d="M410 -95l279 22l18 -41q-28 -203 -169 -378h-203q55 188 63 236t12 161zM1385 1227l-540 -598l395 -622l-4 -7h-452l-289 477l-67 -477h-383l177 1234h381l-65 -459l410 459h433z" />
    <glyph glyph-name="kcommaaccent" unicode="&#x137;" horiz-adv-x="1145" 
d="M348 -95l279 22l19 -41q-28 -203 -169 -378h-203q56 188 63 236t11 161zM1180 963l-396 -462l272 -494l-4 -7h-417l-177 335l-48 -335h-384l190 1337h385l-95 -657l231 292h438z" />
    <glyph glyph-name="kgreenlandic" unicode="&#x138;" horiz-adv-x="1146" 
d="M1203 972l-397 -456l292 -516h-467l-175 324l-46 -324h-384l138 972h385l-46 -320l268 320h432z" />
    <glyph glyph-name="Lacute" unicode="&#x139;" horiz-adv-x="929" 
d="M471 315h413l-42 -315h-797l175 1234h383zM730 1432l-499 -136l-62 179l475 264l114 -272z" />
    <glyph glyph-name="lacute" unicode="&#x13a;" horiz-adv-x="657" 
d="M397 -20q-168 0 -262 90t-66 287l140 980h381l-128 -890q-22 -128 84 -129q22 0 50 6l7 -4l-44 -324q-76 -16 -162 -16zM209 1400l-62 179l475 264l113 -272l-28 -35z" />
    <glyph glyph-name="Lcommaaccent" unicode="&#x13b;" horiz-adv-x="929" 
d="M277 -95l280 22l18 -41q-28 -203 -169 -378h-203q56 188 63 236t11 161zM471 315h413l-42 -315h-797l175 1234h383z" />
    <glyph glyph-name="lcommaaccent" unicode="&#x13c;" horiz-adv-x="657" 
d="M58 -492q56 188 64 236t10 161l279 22l19 -41q-28 -203 -169 -378h-203zM397 -20q-168 0 -262 90t-66 287l140 980h381l-128 -890q-22 -128 84 -129q22 0 50 6l7 -4l-44 -324q-76 -16 -162 -16z" />
    <glyph glyph-name="Lcaron" unicode="&#x13d;" horiz-adv-x="945" 
d="M605 1234l-134 -919h413l-42 -315h-797l178 1234h382zM1017 1236l-164 -461h-192l82 491h251z" />
    <glyph glyph-name="lcaron" unicode="&#x13e;" horiz-adv-x="729" 
d="M397 -20q-168 0 -262 90t-66 287l140 980h381l-128 -890q-22 -128 84 -129q22 0 50 6l7 -4l-44 -324q-76 -16 -162 -16zM601 853l82 491h250l26 -30l-166 -461h-192z" />
    <glyph glyph-name="Ldot" unicode="&#x13f;" horiz-adv-x="956" 
d="M809 564q-191 0 -191 166q0 80 60 142t159 63q97 0 143 -46q46 -45 46 -125t-59 -140t-158 -60zM603 1234l-132 -919h413l-42 -315h-797l175 1234h383z" />
    <glyph glyph-name="ldot" unicode="&#x140;" horiz-adv-x="936" 
d="M767.5 482q-98.5 0 -146.5 46.5t-48 127t59 139t157 58.5t142.5 -47.5t44.5 -128.5t-55 -138t-153.5 -57zM397 -20q-168 0 -262 90t-66 287l140 980h381l-128 -890q-22 -128 84 -129q22 0 50 6l7 -4l-44 -324q-76 -16 -162 -16z" />
    <glyph glyph-name="Lslash" unicode="&#x141;" horiz-adv-x="929" 
d="M471 315h413l-42 -315h-797l52 369l-116 -69l-9 3l34 250l128 76l86 605h383l-52 -357l129 76h7l-35 -251l-138 -82z" />
    <glyph glyph-name="lslash" unicode="&#x142;" horiz-adv-x="763" 
d="M544 665l-32 -218q-22 -128 84 -129q22 0 50 6l7 -4l-44 -324q-76 -17 -162 -16q-168 0 -262 90t-66 287l13 90l-123 -65l-13 9l36 242l137 73l90 631h381l-59 -410l130 69l13 -7l-35 -248z" />
    <glyph glyph-name="Nacute" unicode="&#x143;" horiz-adv-x="1338" 
d="M45 0l178 1247h172l486 -538h5l77 540h366l-180 -1247h-168l-478 560h-6l-86 -562h-366zM585 1311l-62 178l475 265l114 -272l-28 -35z" />
    <glyph glyph-name="nacute" unicode="&#x144;" horiz-adv-x="1167" 
d="M600 629q-89 0 -112 -89l-75 -540h-387l138 972h314l15 -129q104 157 313 157q138 0 217 -86.5t79 -226.5q0 -65 -7 -117l-86 -570h-383l68 499l2 32q4 45 -22 71.5t-74 26.5zM992 1240l-508 -203l-102 203l428 313l197 -272z" />
    <glyph glyph-name="Ncommaaccent" unicode="&#x145;" horiz-adv-x="1338" 
d="M378 -492q56 188 64 236t10 161l280 22l18 -41q-28 -203 -169 -378h-203zM45 0l178 1247h172l486 -538h5l77 540h366l-180 -1247h-168l-478 560h-6l-86 -562h-366z" />
    <glyph glyph-name="ncommaaccent" unicode="&#x146;" horiz-adv-x="1167" 
d="M346 -95l280 22l18 -41q-28 -203 -169 -378h-203q56 188 63 236.5t11 160.5zM600 629q-89 0 -112 -89l-75 -540h-387l138 972h314l15 -129q104 157 313 157q138 0 217 -86.5t79 -226.5q0 -65 -7 -117l-86 -570h-383l68 499l2 32q4 45 -22 71.5t-74 26.5z" />
    <glyph glyph-name="Ncaron" unicode="&#x147;" horiz-adv-x="1338" 
d="M45 0l178 1247h172l486 -538h5l77 540h366l-180 -1247h-168l-478 560h-6l-86 -562h-366zM694 1324l-223 273l129 138l212 -141l251 141l101 -134l-298 -277h-172z" />
    <glyph glyph-name="ncaron" unicode="&#x148;" horiz-adv-x="1167" 
d="M600 629q-89 0 -112 -89l-75 -540h-387l138 972h314l15 -129q104 157 313 157q138 0 217 -86.5t79 -226.5q0 -65 -7 -117l-86 -570h-383l68 499l2 32q4 45 -22 71.5t-74 26.5zM750 1072h-177l-191 304l134 113l188 -145l216 145l100 -113z" />
    <glyph glyph-name="napostrophe" unicode="&#x149;" horiz-adv-x="1416" 
d="M849 629q-89 0 -112 -89l-74 -540h-387l137 972h315l15 -129q104 157 313 157q138 0 217 -86.5t79 -226.5q0 -65 -8 -117l-85 -570h-384l69 499l2 32q4 45 -22.5 71.5t-74.5 26.5zM415 1335l39 -54q-35 -253 -229 -540h-184q63 220 71 272q24 184 31 274z" />
    <glyph glyph-name="Eng" unicode="&#x14a;" horiz-adv-x="1336" 
d="M616 -380q-63 0 -115 8l43 312l2 2q28 -7 65 -7q168 0 201 247l2 15l-311 365h-6l-86 -562h-366l178 1247h172l486 -538h5l77 540h366l-149 -1031q-45 -320 -189 -459t-375 -139z" />
    <glyph glyph-name="eng" unicode="&#x14b;" horiz-adv-x="1165" 
d="M600 629q-84 0 -110 -83l-77 -546h-387l138 972h314l17 -127q106 155 311 155q138 0 217 -86.5t79 -226.5q0 -65 -7 -117l-86 -576q-28 -207 -153.5 -309t-323.5 -102q-50 0 -161 15l39 313l5 3q43 -11 80 -11q114 0 138 160l61 436l2 32q4 45 -22 71.5t-74 26.5z" />
    <glyph glyph-name="Omacron" unicode="&#x14c;" horiz-adv-x="1398" 
d="M700.5 324q117.5 0 191.5 90q74 88 74 230q0 276 -225 276q-125 0 -200.5 -91.5t-75.5 -232.5t59 -206.5t176.5 -65.5zM674 -22q-242 0 -420 141q-88 69 -140.5 181.5t-52.5 256.5q0 309 194 508t503 199q244 0 420 -140q88 -70 140 -184.5t52 -259.5
q0 -307 -194.5 -504.5t-501.5 -197.5zM505 1383l29 218h641l-26 -218h-644z" />
    <glyph glyph-name="omacron" unicode="&#x14d;" horiz-adv-x="1156" 
d="M564 298q74 0 112.5 69t38.5 160q0 145 -119 145q-80 0 -116.5 -66t-36.5 -161q0 -147 121 -147zM538 -24q-212 0 -351 114q-139 112 -139 352t157.5 398t416.5 158q210 0 348 -114t138 -354t-156.5 -397t-413.5 -157zM333 1113l32 216h585l-34 -216h-583z" />
    <glyph glyph-name="Obreve" unicode="&#x14e;" horiz-adv-x="1398" 
d="M700.5 324q117.5 0 191.5 90q74 88 74 230q0 276 -225 276q-125 0 -200.5 -91.5t-75.5 -232.5t59 -206.5t176.5 -65.5zM674 -22q-242 0 -420 141q-88 69 -140.5 181.5t-52.5 256.5q0 309 194 508t503 199q244 0 420 -140q88 -70 140 -184.5t52 -259.5
q0 -307 -194.5 -504.5t-501.5 -197.5zM841.5 1350q-147.5 0 -239.5 92t-70 239l231 24q-7 -132 108 -132q50 0 85.5 37.5t47.5 94.5l206 -24q-19 -151 -120 -241t-248.5 -90z" />
    <glyph glyph-name="obreve" unicode="&#x14f;" horiz-adv-x="1156" 
d="M564 298q74 0 112.5 69t38.5 160q0 145 -119 145q-80 0 -116.5 -66t-36.5 -161q0 -147 121 -147zM538 -24q-212 0 -351 113.5t-139 353t157.5 397.5t416.5 158q209 0 347.5 -113.5t138.5 -354t-156.5 -397.5t-413.5 -157zM632.5 1058q-145.5 0 -228 89t-58.5 242l216 24
l11 -7q-4 -47 19.5 -78.5t72.5 -31.5q84 0 121 110l7 5l199 -22q-24 -158 -119 -244.5t-240.5 -86.5z" />
    <glyph glyph-name="Ohungarumlaut" unicode="&#x150;" horiz-adv-x="1398" 
d="M700.5 324q117.5 0 191.5 90q74 88 74 230q0 276 -225 276q-125 0 -200.5 -91.5t-75.5 -232.5t59 -206.5t176.5 -65.5zM674 -22q-242 0 -420 141q-88 69 -140.5 181.5t-52.5 256.5q0 309 194 508t503 199q244 0 420 -140q88 -70 140 -184.5t52 -259.5
q0 -307 -194.5 -504.5t-501.5 -197.5zM1052 1318l-147 63l154 388l239 -67l2 -51zM633 1318l-147 63l154 388l237 -67v-51z" />
    <glyph glyph-name="ohungarumlaut" unicode="&#x151;" horiz-adv-x="1156" 
d="M564 298q74 0 112.5 69t38.5 160q0 145 -119 145q-80 0 -116.5 -66t-36.5 -161q0 -147 121 -147zM538 -24q-212 0 -351 114q-139 112 -139 352t157.5 398t416.5 158q210 0 348 -114t138 -354t-156.5 -397t-413.5 -157zM801 1022l-157 91l194 384l257 -86l-2 -50z
M413 1022l-158 91l194 384l257 -86l-2 -50z" />
    <glyph glyph-name="OE" unicode="&#x152;" horiz-adv-x="1874" 
d="M465 572q0 -117 59 -182.5t176.5 -65.5t191.5 90q74 88 74 230q0 276 -225 276q-125 0 -200.5 -91t-75.5 -257zM665 -22q-108 0 -216 36t-195.5 105t-140 181.5t-52.5 256.5q0 309 194 508t503 199q112 0 208 -30h905l-41 -301h-508q32 -78 41 -153h413l-39 -296h-391
q-26 -102 -74 -182h489l-41 -302h-858q-89 -22 -197 -22z" />
    <glyph glyph-name="oe" unicode="&#x153;" horiz-adv-x="1651" 
d="M585 674q-69 0 -103.5 -68t-36.5 -167q-4 -140 86 -139q67 0 100.5 68.5t35.5 169.5q4 136 -82 136zM1264 564v32q0 102 -82 102q-98 0 -128 -134h210zM1612 605q0 -106 -28 -218l-1 -15h-535q28 -114 175.5 -113.5t278.5 69.5l8 -4l-37 -276q-147 -74 -326 -74t-311 117
q-132 -117 -324.5 -117t-328 111.5t-135.5 325.5q0 276 151 432.5t395 156.5q207 0 322 -121q136 121 287 121q190 0 299.5 -102.5t109.5 -292.5z" />
    <glyph glyph-name="Racute" unicode="&#x154;" horiz-adv-x="1197" 
d="M650.5 938q-45.5 0 -93.5 -5l-39 -281h78q76 0 123.5 46.5t47.5 114.5t-35.5 96.5t-81 28.5zM1158 894q0 -184 -76.5 -302.5t-202.5 -172.5l199 -412l-4 -7h-404l-160 371h-32l-52 -371h-381l178 1234q184 30 430 30q505 1 505 -370zM989 1432l-499 -136l-62 179l475 264
l114 -272z" />
    <glyph glyph-name="racute" unicode="&#x155;" horiz-adv-x="806" 
d="M732 996q62 0 111 -15l-54 -355l-7 -4q-45 15 -93 15q-173 0 -216 -179l-63 -458h-384l138 972h313l16 -134q39 78 108 118t131 40zM683 1553l198 -272l-15 -41l-509 -203l-102 203z" />
    <glyph glyph-name="Rcommaaccent" unicode="&#x156;" horiz-adv-x="1197" 
d="M341 -95l279 22l19 -41q-28 -203 -170 -378h-203q56 188 63.5 236.5t11.5 160.5zM650.5 938q-45.5 0 -93.5 -5l-39 -281h78q76 0 123.5 46.5t47.5 114.5t-35.5 96.5t-81 28.5zM1158 894q0 -184 -76.5 -302.5t-202.5 -172.5l199 -412l-4 -7h-404l-160 371h-32l-52 -371
h-381l178 1234q184 30 430 30q505 1 505 -370z" />
    <glyph glyph-name="rcommaaccent" unicode="&#x157;" horiz-adv-x="806" 
d="M67 -95l279 22l19 -41q-28 -203 -170 -378h-202q56 188 63 236.5t11 160.5zM732.5 996q61.5 0 110.5 -15l-54 -355l-7 -4q-45 15 -93 15q-173 0 -216 -179l-63 -458h-384l138 972h313l16 -134q39 78 108.5 118t131 40z" />
    <glyph glyph-name="Rcaron" unicode="&#x158;" horiz-adv-x="1197" 
d="M650.5 938q-45.5 0 -93.5 -5l-39 -281h78q76 0 123.5 46.5t47.5 114.5t-35.5 96.5t-81 28.5zM1158 894q0 -184 -76.5 -302.5t-202.5 -172.5l199 -412l-4 -7h-404l-160 371h-32l-52 -371h-381l178 1234q184 30 430 30q505 1 505 -370zM771 1309h-171l-224 274l129 137
l212 -141l251 141l101 -134z" />
    <glyph glyph-name="rcaron" unicode="&#x159;" horiz-adv-x="806" 
d="M732 996q62 0 111 -15l-54 -355l-7 -4q-45 15 -93 15q-173 0 -216 -179l-63 -458h-384l138 972h313l16 -134q39 78 108 118t131 40zM624 1072h-177l-192 304l134 113l188 -145l216 145l101 -113z" />
    <glyph glyph-name="Sacute" unicode="&#x15a;" horiz-adv-x="956" 
d="M391 -20q-214 0 -378 81l54 339l9 2q132 -106 306 -106q117 0 117 73q0 34 -29 61.5t-124 81.5t-156.5 131.5t-61.5 194.5q0 212 151 320t355 108t330 -52l-42 -318l-8 -4q-108 50 -254 55t-146 -57q0 -20 25 -38q33 -24 127.5 -76.5t158 -131t63.5 -201.5
q0 -209 -141.5 -336t-355.5 -127zM423 1311l-62 178l475 265l114 -272l-28 -35z" />
    <glyph glyph-name="sacute" unicode="&#x15b;" horiz-adv-x="919" 
d="M379.5 -26q-207.5 0 -373.5 71l42 286l8 6q138 -106 335 -106q82 0 82 50q0 20 -30 37t-126 49q-225 73 -225.5 252t129 280t340.5 101t327 -50l-41 -297l-7 -3q-95 56 -276 56q-102 0 -102 -36q0 -17 16.5 -25t63 -25t52.5 -18.5t14 -4.5t16 -5q115 -37 165.5 -97.5
t50.5 -153.5q0 -168 -126.5 -267.5t-334 -99.5zM371 1063l-103 203l428 313l198 -272l-15 -41z" />
    <glyph glyph-name="Scircumflex" unicode="&#x15c;" horiz-adv-x="956" 
d="M391 -20q-214 0 -378 81l54 339l9 2q132 -106 306 -106q117 0 117 73q0 34 -29 61.5t-124 81.5t-156.5 131.5t-61.5 194.5q0 212 151 320t355 108t330 -52l-42 -318l-8 -4q-108 50 -254 55t-146 -57q0 -20 25 -38q33 -24 127.5 -76.5t158 -131t63.5 -201.5
q0 -209 -141.5 -336t-355.5 -127zM397 1324l-101 134l296 277h169l228 -273l-131 -138l-212 143z" />
    <glyph glyph-name="scircumflex" unicode="&#x15d;" horiz-adv-x="919" 
d="M379.5 -26q-207.5 0 -373.5 71l42 286l8 6q138 -106 335 -106q82 0 82 50q0 20 -30 37t-126 49q-225 73 -225.5 252t129 280t340.5 101t327 -50l-41 -297l-7 -3q-95 56 -276 56q-102 0 -102 -36q0 -17 16.5 -25t63 -25t52.5 -18.5t14 -4.5t16 -5q115 -37 165.5 -97.5
t50.5 -153.5q0 -168 -126.5 -267.5t-334 -99.5zM343 1098l-107 116l267 302h175l199 -297l-138 -121l-177 146z" />
    <glyph glyph-name="Scedilla" unicode="&#x15e;" horiz-adv-x="956" 
d="M382 296q117 0 117 73q0 34 -29 61.5t-124 81.5t-156.5 131.5t-61.5 194.5q0 212 151 320t355 108t330 -52l-42 -318l-8 -4q-108 50 -254 55t-146 -57q0 -20 25 -38q33 -24 127.5 -76.5t158 -131t63.5 -201.5q0 -184 -111.5 -307t-298.5 -149l-63 -60q9 0 28 -3
q153 -19 153 -153q0 -235 -330 -235q-82 0 -123 12l19 137l6 2q37 -13 67 -13q99 0 98 73q0 47 -61 46l-52 -2l-6 2l19 129l54 61q-147 13 -274 78l54 339l9 2q132 -106 306 -106z" />
    <glyph glyph-name="scedilla" unicode="&#x15f;" horiz-adv-x="919" 
d="M391 231q82 0 82 50q0 20 -30 37t-126 49q-225 73 -225.5 252t129 280t340.5 101t327 -50l-41 -297l-7 -3q-95 56 -276 56q-102 0 -102 -36q0 -17 16.5 -25t63 -25t52.5 -18.5t14 -4.5t16 -5q115 -37 165.5 -97.5t50.5 -153.5q0 -149 -100 -245t-275 -116l-55 -53
q9 0 28 -3q153 -19 152 -153q0 -235 -329 -235q-82 0 -123 12l18 137l6 2q37 -13 67 -13q99 0 99 73q0 47 -62 46l-52 -2l-5 2l18 129l49 56q-143 11 -270 67l42 286l8 6q138 -106 335 -106z" />
    <glyph glyph-name="Scaron" unicode="&#x160;" horiz-adv-x="956" 
d="M391 -20q-214 0 -378 81l54 339l9 2q132 -106 306 -106q117 0 117 73q0 34 -29 61.5t-124 81.5t-156.5 131.5t-61.5 194.5q0 212 151 320t355 108t330 -52l-42 -318l-8 -4q-108 50 -254 55t-146 -57q0 -20 25 -38q33 -24 127.5 -76.5t158 -131t63.5 -201.5
q0 -209 -141.5 -336t-355.5 -127zM532 1324l-223 273l129 138l212 -141l251 141l101 -134l-298 -277h-172z" />
    <glyph glyph-name="scaron" unicode="&#x161;" horiz-adv-x="919" 
d="M379.5 -26q-207.5 0 -373.5 71l42 286l8 6q138 -106 335 -106q82 0 82 50q0 20 -30 37t-126 49q-225 73 -225.5 252t129 280t340.5 101t327 -50l-41 -297l-7 -3q-95 56 -276 56q-102 0 -102 -36q0 -17 16.5 -25t63 -25t52.5 -18.5t14 -4.5t16 -5q115 -37 165.5 -97.5
t50.5 -153.5q0 -168 -126.5 -267.5t-334 -99.5zM460 1098l-192 304l134 114l188 -146l216 146l101 -114l-270 -304h-177z" />
    <glyph glyph-name="uni0162" unicode="&#x162;" horiz-adv-x="1120" 
d="M354 -464q-82 0 -123 12l18 137l6 2q37 -13 67 -13q99 0 99 73q0 47 -62 46l-52 -2l-5 2l18 129l69 78h-84l133 892h-360l50 342h1080l-50 -342h-339l-126 -892h-112l-78 -73q9 0 28 -3q153 -19 152 -153q0 -235 -329 -235z" />
    <glyph glyph-name="uni0163" unicode="&#x163;" horiz-adv-x="835" 
d="M132 303q0 35 6 82l41 287h-136l45 300h134l31 223l393 73l2 -6l-41 -290h227l-37 -300h-233l-20 -141q-15 -105 -15 -131q0 -73 102 -72q47 0 108 20l4 -2l-43 -322q-67 -34 -173 -37l-65 -60q9 0 28 -3q153 -19 152 -153q0 -235 -329 -235q-82 0 -123 12l19 137l5 2
q37 -13 67 -13q99 0 99 73q0 47 -62 46l-52 -2l-5 2l18 129l71 80h11q-229 56 -229 301z" />
    <glyph glyph-name="Tcaron" unicode="&#x164;" horiz-adv-x="1120" 
d="M1208 1234l-50 -342h-339l-126 -892h-388l133 892h-360l50 342h1080zM758 1309h-172l-223 274l129 137l212 -141l251 141l101 -134z" />
    <glyph glyph-name="tcaron" unicode="&#x165;" horiz-adv-x="835" 
d="M529 400q0 -73 102 -72q47 0 108 20l4 -2l-43 -322q-74 -37 -201 -37q-177 0 -272 80t-95 236q0 35 6 82l41 287h-136l45 300h134l31 223l393 73l2 -6l-41 -290h227l-37 -300h-233l-20 -141q-15 -105 -15 -131zM1013 1556l26 -29l-166 -462h-192l82 491h250z" />
    <glyph glyph-name="Tbar" unicode="&#x166;" horiz-adv-x="1133" 
d="M1164 892h-339l-34 -235h131l-30 -223h-132l-62 -434h-387l63 434h-160l34 223h160l35 235h-359l50 342h1080z" />
    <glyph glyph-name="tbar" unicode="&#x167;" horiz-adv-x="837" 
d="M635 328q47 0 108 20l4 -2l-43 -322q-74 -37 -201 -37q-177 0 -272 80t-95 236q0 32 5 81h-137l30 219h139l9 69h-135l44 300h134l32 223l393 73l2 -6l-41 -290h227l-37 -300h-233l-9 -69h150l-29 -219h-146q9 -56 101 -56z" />
    <glyph glyph-name="Utilde" unicode="&#x168;" horiz-adv-x="1312" 
d="M592 -24q-494 0 -493 419q0 65 7 117l103 722h381l-97 -674q-9 -56 -9 -122q0 -138 151 -138q106 0 149 61.5t61 198.5l97 674h371l-103 -722q-37 -251 -202.5 -393.5t-415.5 -142.5zM654.5 1653q84.5 0 162 -27t105 -27t50 17t26.5 43l6 4l201 -56q-15 -121 -85 -201
t-148 -80t-164 26t-115.5 26t-50 -18.5t-26.5 -41.5l-5 -4l-200 58q15 117 87 199t156.5 82z" />
    <glyph glyph-name="utilde" unicode="&#x169;" horiz-adv-x="1150" 
d="M318 -24q-117 0 -188.5 66t-71.5 174q0 50 3 95l97 661h384l-78 -538q-6 -39 -6 -58q-4 -74 72 -74t118 61l89 609h384l-140 -972h-313l-16 140q-117 -164 -334 -164zM577 1450q67 0 127.5 -27.5t93 -27.5t55 17.5t26.5 41.5l7 4l226 -60q-17 -128 -103 -207t-190 -79
q-60 0 -125 29.5t-94 29.5q-66 0 -79 -63l-7 -6l-229 67q13 110 96 195.5t196 85.5z" />
    <glyph glyph-name="Umacron" unicode="&#x16a;" horiz-adv-x="1312" 
d="M592 -24q-494 0 -493 419q0 65 7 117l103 722h381l-97 -674q-9 -56 -9 -122q0 -138 151 -138q106 0 149 61.5t61 198.5l97 674h371l-103 -722q-37 -251 -202.5 -393.5t-415.5 -142.5zM464 1365l29 218h641l-26 -218h-644z" />
    <glyph glyph-name="umacron" unicode="&#x16b;" horiz-adv-x="1150" 
d="M318 -24q-117 0 -188.5 66t-71.5 174q0 50 3 95l97 661h384l-78 -538q-6 -39 -6 -58q-4 -74 72 -74t118 61l89 609h384l-140 -972h-313l-16 140q-117 -164 -334 -164zM998 1350l-34 -216h-582l31 216h585z" />
    <glyph glyph-name="Ubreve" unicode="&#x16c;" horiz-adv-x="1312" 
d="M592 -24q-494 0 -493 419q0 65 7 117l103 722h381l-97 -674q-9 -56 -9 -122q0 -138 151 -138q106 0 149 61.5t61 198.5l97 674h371l-103 -722q-37 -251 -202.5 -393.5t-415.5 -142.5zM800.5 1331q-147.5 0 -239.5 92.5t-69 239.5l230 24q-7 -132 108 -132q50 0 85.5 37
t47.5 95l206 -24q-19 -151 -120 -241.5t-248.5 -90.5z" />
    <glyph glyph-name="ubreve" unicode="&#x16d;" horiz-adv-x="1150" 
d="M318 -24q-117 0 -188.5 66t-71.5 174q0 50 3 95l97 661h384l-78 -538q-6 -39 -6 -58q-4 -74 72 -74t118 61l89 609h384l-140 -972h-313l-16 140q-117 -164 -334 -164zM681.5 1078q-145.5 0 -228 89.5t-58.5 241.5l216 25l11 -8q-4 -47 19.5 -78.5t71.5 -31.5
q84 0 121 110l8 6l199 -23q-24 -158 -119 -244.5t-240.5 -86.5z" />
    <glyph glyph-name="Uring" unicode="&#x16e;" horiz-adv-x="1312" 
d="M592 -24q-494 0 -493 419q0 65 7 117l103 722h381l-97 -674q-9 -56 -9 -122q0 -138 151 -138q106 0 149 61.5t61 198.5l97 674h371l-103 -722q-37 -251 -202.5 -393.5t-415.5 -142.5zM735 1516q-1 -76 73 -75q34 0 59 24t25 61.5t-20.5 56t-54 18.5t-58 -24.5
t-24.5 -60.5zM797.5 1285q-112.5 0 -176.5 59.5t-64 163.5t76 176t190 72t178 -59t64 -164t-77.5 -176.5t-190 -71.5z" />
    <glyph glyph-name="uring" unicode="&#x16f;" horiz-adv-x="1150" 
d="M318 -24q-117 0 -188.5 66t-71.5 174q0 50 3 95l97 661h384l-78 -538q-6 -39 -6 -58q-4 -74 72 -74t118 61l89 609h384l-140 -972h-313l-16 140q-117 -164 -334 -164zM711.5 1372q-35.5 0 -62.5 -25t-27 -62.5t20.5 -58t55.5 -20.5t62.5 25.5t27.5 62.5t-20.5 57.5
t-56 20.5zM685.5 1031q-115.5 0 -178 64.5t-62.5 179t80 192.5t194.5 78t178 -64t63.5 -179.5t-80 -193t-195.5 -77.5z" />
    <glyph glyph-name="Uhungarumlaut" unicode="&#x170;" horiz-adv-x="1312" 
d="M592 -24q-494 0 -493 419q0 65 7 117l103 722h381l-97 -674q-9 -56 -9 -122q0 -138 151 -138q106 0 149 61.5t61 198.5l97 674h371l-103 -722q-37 -251 -202.5 -393.5t-415.5 -142.5zM1011 1300l-147 63l154 387l239 -67l2 -50zM592 1300l-147 63l155 387l236 -67v-50z
" />
    <glyph glyph-name="uhungarumlaut" unicode="&#x171;" horiz-adv-x="1150" 
d="M318 -24q-117 0 -188.5 66t-71.5 174q0 50 3 95l97 661h384l-78 -538q-6 -39 -6 -58q-4 -74 72.5 -74t117.5 61l89 609h384l-140 -972h-313l-16 140q-117 -164 -334 -164zM886 1517l257 -85l-2 -51l-292 -338l-156 91zM752 1381l-290 -338l-159 91l194 383l257 -85z" />
    <glyph glyph-name="Uogonek" unicode="&#x172;" horiz-adv-x="1312" 
d="M644 -186q0 -74 65 -75q32 0 54 8l10 -10l-23 -169q-65 -15 -154 -15t-157 43t-68 127q0 138 165 255q-438 20 -437 417q0 65 7 117l103 722h381l-97 -674q-9 -56 -9 -122q0 -138 151 -138q106 0 149 61.5t61 198.5l97 674h371l-103 -722q-28 -194 -135 -324t-278 -182
q-153 -88 -153 -192z" />
    <glyph glyph-name="uogonek" unicode="&#x173;" horiz-adv-x="1150" 
d="M866 -279q32 0 54 7l9 -9l-22 -170q-65 -15 -154.5 -14.5t-157.5 43t-68 126.5q0 160 231 296h-90l-16 140q-117 -164 -334 -164q-117 0 -188.5 66t-71.5 174q0 50 3 95l97 661h384l-78 -538q-6 -39 -6 -58q-4 -74 72 -74t118 61l89 609h384l-140 -972h-4
q-177 -93 -176 -205q0 -74 65 -74z" />
    <glyph glyph-name="Wcircumflex" unicode="&#x174;" horiz-adv-x="1750" 
d="M1860 1234l4 -7l-550 -1223h-290l-106 569l-8 86l-37 -86l-262 -569h-302l-225 1223l4 7h405l51 -590l5 -113l43 113l255 577h285l91 -536l13 -138l47 138l212 549h365zM1022 1476l-249 -143l-101 134l296 278h170l227 -274l-131 -138z" />
    <glyph glyph-name="wcircumflex" unicode="&#x175;" horiz-adv-x="1480" 
d="M1547 972l4 -9l-441 -963h-270l-75 510l-4 62l-18 -62l-227 -510h-274l-182 963l1 9h386l31 -417v-73l19 71l168 419h307l50 -415l6 -64l16 64l146 415h357zM845 1246l-219 -146l-107 116l267 301h175l199 -296l-138 -121z" />
    <glyph glyph-name="Ycircumflex" unicode="&#x176;" horiz-adv-x="1158" 
d="M320 0l69 473l-305 754l4 7h413l128 -417l259 417h385l4 -7l-512 -784l-65 -443h-380zM477 1309l-101 134l296 277h170l227 -273l-131 -138l-212 143z" />
    <glyph glyph-name="ycircumflex" unicode="&#x177;" horiz-adv-x="1007" 
d="M112 -320q-84 0 -136 20l43 307l7 4q28 -9 72.5 -9t77.5 5.5t69 30.5t57 70l-242 855l3 9h408l65 -393l157 393h387l4 -9l-468 -907q-110 -216 -214 -296t-290 -80zM614 1218l-219 -146l-106 116l266 301h175l199 -296l-138 -121z" />
    <glyph glyph-name="Ydieresis" unicode="&#x178;" horiz-adv-x="1158" 
d="M320 0l69 473l-305 754l4 7h413l128 -417l259 417h385l4 -7l-512 -784l-65 -443h-380zM966 1324q-76 0 -123.5 48.5t-47.5 127.5t57.5 134t134 55t125 -48.5t48.5 -129t-59 -134t-135 -53.5zM478 1324q-77 0 -125 48.5t-48 127.5t58 134t134 55t124.5 -48.5t48.5 -129
t-57.5 -134t-134.5 -53.5z" />
    <glyph glyph-name="Zacute" unicode="&#x179;" horiz-adv-x="1128" 
d="M34 0l-14 130l572 793h-465l39 311h957l7 -128l-586 -793h497l-43 -313h-964zM473 1294l-62 179l475 264l114 -272l-28 -35z" />
    <glyph glyph-name="zacute" unicode="&#x17a;" horiz-adv-x="975" 
d="M935 767l-417 -473h392l-44 -294h-823l-15 192l402 473h-339l37 307h794zM899 1240l-508 -203l-102 203l428 313l197 -272z" />
    <glyph glyph-name="Zdotaccent" unicode="&#x17b;" horiz-adv-x="1128" 
d="M34 0l-14 130l572 793h-465l39 311h957l7 -128l-586 -793h497l-43 -313h-964zM679 1290q-92 0 -151 59t-59 153.5t70 161t163 66.5t150.5 -59t57.5 -153.5t-69.5 -161t-161.5 -66.5z" />
    <glyph glyph-name="zdotaccent" unicode="&#x17c;" horiz-adv-x="975" 
d="M935 767l-417 -473h392l-44 -294h-823l-15 192l402 473h-339l37 307h794zM582 1061q-92 0 -151 59t-59 153.5t70 161t163 66.5t151 -59t58 -153.5t-70 -161t-162 -66.5z" />
    <glyph glyph-name="Zcaron" unicode="&#x17d;" horiz-adv-x="1128" 
d="M34 0l-14 130l572 793h-465l39 311h957l7 -128l-586 -793h497l-43 -313h-964zM583 1307l-224 274l129 137l212 -141l251 141l101 -134l-298 -277h-171z" />
    <glyph glyph-name="zcaron" unicode="&#x17e;" horiz-adv-x="975" 
d="M935 767l-417 -473h392l-44 -294h-823l-15 192l402 473h-339l37 307h794zM657 1072h-177l-191 304l134 113l188 -145l216 145l100 -113z" />
    <glyph glyph-name="uni018F" unicode="&#x18f;" horiz-adv-x="1364" 
d="M657 330q177 0 235 152h-404q26 -152 169 -152zM712.5 1262q290.5 0 451 -149.5t160.5 -421.5q0 -313 -180 -511.5t-502 -198.5q-249 0 -407.5 145.5t-158.5 405.5q0 104 23 216v8l813 2q-32 149 -227 149q-236 0 -484 -112l-11 6l50 329q182 132 472.5 132z" />
    <glyph glyph-name="uni019D" unicode="&#x19d;" horiz-adv-x="1338" 
d="M-60 -380q-78 0 -139 8l44 312l2 2q24 -7 64 -7q74 0 108.5 65t53.5 188l150 1059h172l486 -538h5l77 538h364l-178 -1247h-168l-478 562h-6l-52 -340q-47 -330 -167 -466t-338 -136z" />
    <glyph glyph-name="Gcaron" unicode="&#x1e6;" horiz-adv-x="1213" 
d="M652 -20q-263 0 -425 138.5t-162 397.5q0 346 218 547t583 201q182 0 324 -37l-49 -358l-7 -1q-104 52 -289 52t-283 -94t-98 -260q0 -244 249 -244q61 0 71 -2l17 118h-108l35 262h434l-91 -668q-214 -52 -419 -52zM869 1322h-171l-223 274l128 137l212 -141l252 141
l100 -134z" />
    <glyph glyph-name="gcaron" unicode="&#x1e7;" horiz-adv-x="1169" 
d="M447 522q0 -131 110 -131t132 95l24 156q-41 32 -109 32t-112.5 -42.5t-44.5 -109.5zM413.5 -328q-247.5 0 -413.5 64l45 307l7 4q147 -82 346.5 -82t236.5 169q-82 -54 -211 -54q-173 0 -275 98t-102 265q0 263 150.5 410t385.5 147q162 0 260 -80l41 80h261l-117 -821
q-34 -251 -200.5 -379t-414 -128zM741 1072h-177l-192 304l134 113l188 -145l216 145l101 -113z" />
    <glyph glyph-name="uni01EA" unicode="&#x1ea;" horiz-adv-x="1398" 
d="M465 572q0 -117 59 -182.5t176.5 -65.5t191.5 90q74 88 74 230q0 276 -225 276q-125 0 -200.5 -91t-75.5 -257zM693 -186q0 -74 65 -75q32 0 54 8l9 -10l-22 -169q-65 -15 -154.5 -15t-157.5 43t-68 127q0 141 173 258q-225 26 -378 173.5t-153 402.5q0 309 194 508
t503 199q244 0 420 -140q88 -70 140 -184.5t52 -259.5q0 -266 -150.5 -454t-398.5 -235q-128 -80 -128 -177z" />
    <glyph glyph-name="uni01EB" unicode="&#x1eb;" horiz-adv-x="1156" 
d="M443 445q0 -147 121 -147q74 0 112.5 69t38.5 160q0 145 -119 145q-80 0 -116.5 -66t-36.5 -161zM1108 536q0 -181 -86.5 -316.5t-241.5 -199.5h6q-181 -93 -181 -206q0 -74 65 -75q32 0 54 8l10 -10l-23 -169q-65 -15 -155 -15t-157.5 43t-67.5 127q0 136 166 255
q-197 11 -323 123.5t-126 346.5t157.5 392t416.5 158q209 0 347.5 -113.5t138.5 -348.5z" />
    <glyph glyph-name="Aringacute" unicode="&#x1fa;" horiz-adv-x="1189" 
d="M464 357h201l-47 177l-20 106l-47 -106zM607 1246h175l372 -1246h-396l-28 104h-393l-52 -104h-382zM661 1532q-1 -76 73 -76q34 0 58.5 24t24.5 69q0 7 -2 11l-5 21q-17 35 -58.5 35t-66 -24t-24.5 -60zM719 1300q-108 0 -172.5 59.5t-64.5 163.5t76.5 176t179 72
t161.5 -38l356 198l113 -272l-27 -35l-352 -95q-11 -104 -86.5 -166.5t-183.5 -62.5z" />
    <glyph glyph-name="aringacute" unicode="&#x1fb;" horiz-adv-x="1215" 
d="M558 320q98 0 112 77l37 245q-41 34 -110.5 34t-111.5 -64.5t-42 -144t34.5 -113.5t80.5 -34zM1092.5 335q20.5 0 35.5 15l8 -4l-45 -326q-88 -34 -194 -33q-182 0 -216 127q-91 -140 -269 -140t-276 116t-97 282q0 320 156.5 474t361.5 154q156 0 255 -64l13 36h314
l-85 -601q-4 -17 7 -26.5t31.5 -9.5zM703.5 1206q35.5 0 62.5 25.5t27 62.5t-20.5 57.5t-55.5 20.5t-62.5 -25t-27.5 -62.5t20.5 -58t56 -20.5zM966 1311q0 -125 -80 -202.5t-195.5 -77.5t-177.5 64.5t-62 179t80 192.5t197 78q39 0 76 -9l345 251l197 -271l-15 -41
l-365 -146v-18z" />
    <glyph glyph-name="AEacute" unicode="&#x1fc;" horiz-adv-x="1630" 
d="M575 469h173l51 343zM1599 925h-398l-19 -128h360l-41 -304h-363l-28 -184h409l-43 -309h-796l29 201h-301l-125 -201h-385l847 1234h899zM1301 1432l-499 -136l-61 179l475 264l113 -272z" />
    <glyph glyph-name="aeacute" unicode="&#x1fd;" horiz-adv-x="1716" 
d="M441 424q-1 -104 101 -104q117 0 147 212q7 47 26 105q-50 39 -119 39t-112 -74t-43 -178zM1311 588q0 108 -98 108t-129 -124l227 -2v18zM1677 614q0 -95 -31 -232l-568 -4q30 -106 177 -106t313 58l7 -4l-39 -281q-143 -71 -369 -71q-276 0 -404 169
q-108 -169 -344 -169q-179 0 -280.5 113.5t-101.5 284.5q0 307 161 467.5t398 160.5q190 0 316 -103q147 102 340 102.5t309 -96.5t116 -289zM1255 1240l-508 -203l-103 203l428 313l198 -272z" />
    <glyph glyph-name="Oslashacute" unicode="&#x1fe;" horiz-adv-x="1398" 
d="M691 324q127 0 201 89.5t74 251.5q0 73 -22 126l-339 -454q38 -13 86 -13zM465 572q0 -58 13 -97l323 439q-28 6 -60 6q-125 0 -200.5 -91t-75.5 -257zM1370 665q0 -292 -194.5 -489.5t-501.5 -197.5q-155 0 -290 59l-99 -132h-203v30l149 203q-169 156 -170 419
q0 309 194 508t503 199q136 0 264 -48l86 117h221v-24l-143 -192q184 -160 184 -452zM1108 1432l-499 -136l-62 179l475 264l114 -272z" />
    <glyph glyph-name="oslashacute" unicode="&#x1ff;" horiz-adv-x="1156" 
d="M564 298q74 0 112.5 69t38.5 160q0 145 -119 145q-80 0 -116.5 -66t-36.5 -161q0 -147 121 -147zM1108 525q0 -235 -156.5 -392t-413.5 -157q-88 0 -169 20l-73 -102h-205v30l106 158q-149 119 -149 359.5t157.5 398.5t416.5 158q93 0 175 -22l67 100h223v-24l-115 -169
q136 -123 136 -358zM918 1240l-508 -203l-103 203l428 313l198 -272z" />
    <glyph glyph-name="Scommaaccent" unicode="&#x218;" horiz-adv-x="956" 
d="M160 -492q56 188 63.5 236.5t11.5 160.5l279 22l18 -41q-28 -203 -169 -378h-203zM391 -20q-214 0 -378 81l54 339l9 2q132 -106 306 -106q117 0 117 73q0 34 -29 61.5t-124 81.5t-156.5 131.5t-61.5 194.5q0 212 151 320t355 108t330 -52l-42 -318l-8 -4
q-108 50 -254 55t-146 -57q0 -20 25 -38q33 -24 127.5 -76.5t158 -131t63.5 -201.5q0 -209 -141.5 -336t-355.5 -127z" />
    <glyph glyph-name="scommaaccent" unicode="&#x219;" horiz-adv-x="919" 
d="M155 -492q56 188 63.5 236.5t10.5 160.5l279 22l19 -41q-28 -203 -170 -378h-202zM379.5 -26q-207.5 0 -373.5 71l42 286l8 6q138 -106 335 -106q82 0 82 50q0 20 -30 37t-126 49q-225 73 -225.5 252t129 280t340.5 101t327 -50l-41 -297l-7 -3q-95 56 -276 56
q-102 0 -102 -36q0 -17 16.5 -25t63 -25t52.5 -18.5t14 -4.5t16 -5q115 -37 165.5 -97.5t50.5 -153.5q0 -168 -126.5 -267.5t-334 -99.5z" />
    <glyph glyph-name="uni021A" unicode="&#x21a;" horiz-adv-x="1120" 
d="M322 -95l279 22l19 -41q-28 -203 -169 -378h-203q56 188 63 236t11 161zM1208 1234l-50 -342h-339l-126 -892h-388l133 892h-360l50 342h1080z" />
    <glyph glyph-name="uni021B" unicode="&#x21b;" horiz-adv-x="835" 
d="M281 -95l279 22l19 -41q-28 -203 -169 -378h-203q56 188 63 236.5t11 160.5zM529 400q0 -73 102 -72q47 0 108 20l4 -2l-43 -322q-74 -37 -201 -37q-177 0 -272 80t-95 236q0 35 6 82l41 287h-136l45 300h134l31 223l393 73l2 -6l-41 -290h227l-37 -300h-233l-20 -141
q-15 -105 -15 -131z" />
    <glyph glyph-name="uni0232" unicode="&#x232;" horiz-adv-x="1158" 
d="M320 0l69 473l-305 754l4 7h413l128 -417l259 417h385l4 -7l-512 -784l-65 -443h-380zM389 1365l30 218h640l-26 -218h-644z" />
    <glyph glyph-name="uni0233" unicode="&#x233;" horiz-adv-x="1007" 
d="M112 -320q-84 0 -136 20l43 307l7 4q28 -9 72.5 -9t77.5 5.5t69 30.5t57 70l-242 855l3 9h408l65 -393l157 393h387l4 -9l-468 -907q-110 -216 -214 -296t-290 -80zM929 1350l-33 -216h-583l31 216h585z" />
    <glyph glyph-name="uni0237" unicode="&#x237;" horiz-adv-x="614" 
d="M-28 -320q-71 0 -162 13l47 329l7 6q30 -9 69 -9q130 0 153 154l115 799h382l-125 -890q-30 -205 -159.5 -303.5t-326.5 -98.5z" />
    <glyph glyph-name="uni0259" unicode="&#x259;" horiz-adv-x="1076" 
d="M497 276q102 0 132 126h-229v-18q0 -108 97 -108zM1028 543q0 -253 -154 -413t-418 -160q-188 0 -305 99t-117 288q0 97 27 215l2 18l572 2q-11 60 -52 81t-150 21t-292 -59l-7 4l41 288q164 71 363 71t334 -95q156 -106 156 -360z" />
    <glyph glyph-name="uni0272" unicode="&#x272;" horiz-adv-x="1167" 
d="M600 629q-89 0 -112 -89l-75 -540h-2v-6q-28 -207 -153.5 -309t-320.5 -102q-54 0 -162 15l37 313l7 3q39 -11 80 -11q112 0 136 166l129 903h314l15 -129q104 157 313 157q138 0 217 -86.5t79 -226.5q0 -65 -7 -117l-86 -570h-383l68 499l2 32q4 45 -22 71.5t-74 26.5z
" />
    <glyph glyph-name="circumflex" unicode="&#x2c6;" horiz-adv-x="828" 
d="M300 1072l-106 116l266 301h175l199 -296l-138 -121l-177 146z" />
    <glyph glyph-name="caron" unicode="&#x2c7;" horiz-adv-x="828" 
d="M410 1072l-192 304l134 113l188 -145l216 145l100 -113l-270 -304h-176z" />
    <glyph glyph-name="breve" unicode="&#x2d8;" horiz-adv-x="739" 
d="M461.5 1078q-145.5 0 -228 89.5t-58.5 241.5l216 25l11 -8q-4 -47 19.5 -78.5t71.5 -31.5q84 0 121 110l8 6l199 -23q-24 -158 -119 -244.5t-240.5 -86.5z" />
    <glyph glyph-name="dotaccent" unicode="&#x2d9;" horiz-adv-x="588" 
d="M392 1061q-92 0 -151 59t-59 153.5t70 161t163 66.5t151 -59t58 -153.5t-70 -161t-162 -66.5z" />
    <glyph glyph-name="ring" unicode="&#x2da;" horiz-adv-x="590" 
d="M398.5 1206q35.5 0 62.5 25.5t27 62.5t-20.5 57.5t-56 20.5t-62.5 -25t-27 -62.5t20.5 -58t56 -20.5zM385.5 1031q-115.5 0 -178 64.5t-62.5 179t80 192.5t195 78t178 -64t63 -179.5t-80 -193t-195.5 -77.5z" />
    <glyph glyph-name="ogonek" unicode="&#x2db;" horiz-adv-x="443" 
d="M166 -447q-90 0 -158 43t-68 127q0 162 241 301l214 -4q-181 -93 -181 -206q0 -74 65 -75q32 0 54 8l10 -10l-23 -169q-64 -15 -154 -15z" />
    <glyph glyph-name="tilde" unicode="&#x2dc;" horiz-adv-x="817" 
d="M397 1450q67 0 127.5 -27.5t94 -27.5t54.5 17.5t25 41.5l8 4l225 -60q-17 -128 -102.5 -207t-189.5 -79q-60 0 -125 29.5t-95 29.5q-65 0 -78 -63l-8 -6l-229 67q13 110 96 195.5t197 85.5z" />
    <glyph glyph-name="hungarumlaut" unicode="&#x2dd;" horiz-adv-x="876" 
d="M657 1043l-156 91l193 383l257 -85l-1 -51zM270 1043l-158 91l193 383l257 -85l-2 -51z" />
    <glyph glyph-name="gravecomb" unicode="&#x300;" 
d="M32 1044l-512 187l-19 41l190 277l437 -300z" />
    <glyph glyph-name="acutecomb" unicode="&#x301;" 
d="M-363 1037l-102 203l428 313l197 -272l-15 -41z" />
    <glyph glyph-name="uni0302" unicode="&#x302;" 
d="M-527 1072l-106 116l266 301h175l199 -296l-137 -121l-177 146z" />
    <glyph glyph-name="tildecomb" unicode="&#x303;" 
d="M-415 1450q67 0 127.5 -27.5t94 -27.5t55 17.5t24.5 41.5l8 4l225 -60q-17 -128 -102.5 -207t-189.5 -79q-60 0 -125 29.5t-95 29.5q-65 0 -78 -63l-7 -6l-229 67q13 110 95.5 195.5t196.5 85.5z" />
    <glyph glyph-name="uni0304" unicode="&#x304;" 
d="M-538 1134l32 216h584l-33 -216h-583z" />
    <glyph glyph-name="uni0306" unicode="&#x306;" 
d="M-275.5 1078q-145.5 0 -228 89.5t-58.5 241.5l216 25l11 -8q-4 -47 19.5 -78.5t71.5 -31.5q84 0 121 110l8 6l199 -23q-24 -158 -119 -244.5t-240.5 -86.5z" />
    <glyph glyph-name="uni0307" unicode="&#x307;" 
d="M-196 1061q-92 0 -151 59t-59 153.5t70 161t163 66.5t150.5 -59t57.5 -153.5t-69.5 -161t-161.5 -66.5z" />
    <glyph glyph-name="uni0308" unicode="&#x308;" 
d="M-125.5 1072q-86.5 0 -142.5 56t-56 146.5t65 152t154 61.5t143.5 -54t54.5 -145.5t-66 -154t-152.5 -62.5zM-583.5 1072q-87.5 0 -142 56t-54.5 146.5t66 152t153.5 61.5t142.5 -54t55 -145.5t-66.5 -154t-154 -62.5z" />
    <glyph glyph-name="uni030A" unicode="&#x30a;" 
d="M-175.5 1206q35.5 0 62.5 25.5t27 62.5t-20.5 57.5t-55.5 20.5t-62 -25t-27 -62.5t20 -58t55.5 -20.5zM-188.5 1031q-115.5 0 -177.5 64.5t-62 179t80 192.5t194.5 78t178 -64t63.5 -179.5t-80.5 -193t-196 -77.5z" />
    <glyph glyph-name="uni030B" unicode="&#x30b;" 
d="M-222 1043l-156 91l194 383l257 -85l-2 -51zM-609 1043l-158 91l194 383l256 -85l-1 -51z" />
    <glyph glyph-name="uni030C" unicode="&#x30c;" 
d="M-415 1072l-192 304l134 113l188 -145l216 145l101 -113l-270 -304h-177z" />
    <glyph glyph-name="uni0312" unicode="&#x312;" 
d="M99 1478q-55 -188 -63 -236t-12 -160l-279 -23l-19 41q28 203 170 378h203z" />
    <glyph glyph-name="dotbelowcomb" unicode="&#x323;" 
d="M-489 -546q-92 0 -150.5 59t-58.5 153.5t70.5 161t162.5 66.5t151 -58.5t59 -153.5t-71 -161.5t-163 -66.5z" />
    <glyph glyph-name="uni0326" unicode="&#x326;" 
d="M-512 -492q56 188 64 236t10 161l280 22l18 -41q-28 -203 -169 -378h-203z" />
    <glyph glyph-name="uni0327" unicode="&#x327;" 
d="M-411 -464q-82 0 -123 12l18 137l6 2q37 -13 67 -13q99 0 99 73q0 47 -62 46l-52 -2l-6 2l19 129l71 80h192l-81 -75q9 0 28 -3q153 -19 153 -153q1 -235 -329 -235z" />
    <glyph glyph-name="uni0328" unicode="&#x328;" 
d="M-329.5 -447q-89.5 0 -157.5 43t-68 127q0 162 240 301l214 -4q-181 -93 -180 -206q0 -74 65 -75q32 0 54 8l9 -10l-22 -169q-65 -15 -154.5 -15z" />
    <glyph glyph-name="uni0335" unicode="&#x335;" 
d="M-778 209l30 219h675l-29 -219h-676z" />
    <glyph glyph-name="uni0336" unicode="&#x336;" 
d="M-1292 648l30 223h1346l-30 -223h-1346z" />
    <glyph glyph-name="uni0337" unicode="&#x337;" 
d="M-674 369l35 242l680 363l13 -8l-35 -247l-680 -360z" />
    <glyph glyph-name="uni0338" unicode="&#x338;" 
d="M-1054 -74v29l773 1153h223v-26l-791 -1156h-205z" />
    <glyph glyph-name="Wgrave" unicode="&#x1e80;" horiz-adv-x="1750" 
d="M1860 1234l4 -7l-550 -1223h-290l-106 569l-8 86l-37 -86l-262 -569h-302l-225 1223l4 7h405l51 -590l5 -113l43 113l255 577h285l91 -536l13 -138l47 138l212 549h365zM1195 1311l-493 152l-28 36l134 264l456 -277z" />
    <glyph glyph-name="wgrave" unicode="&#x1e81;" horiz-adv-x="1480" 
d="M1547 972l4 -9l-441 -963h-270l-75 510l-4 62l-18 -62l-227 -510h-274l-182 963l1 9h386l31 -417v-73l19 71l168 419h307l50 -415l6 -64l16 64l146 415h357zM1018 1072l-512 187l-18 41l190 277l437 -300z" />
    <glyph glyph-name="Wacute" unicode="&#x1e82;" horiz-adv-x="1750" 
d="M1860 1234l4 -7l-550 -1223h-290l-106 569l-8 86l-37 -86l-262 -569h-302l-225 1223l4 7h405l51 -590l5 -113l43 113l255 577h285l91 -536l13 -138l47 138l212 549h365zM1298 1456l-499 -136l-62 179l475 264l114 -272z" />
    <glyph glyph-name="wacute" unicode="&#x1e83;" horiz-adv-x="1480" 
d="M1547 972l4 -9l-441 -963h-270l-75 510l-4 62l-18 -62l-227 -510h-274l-182 963l1 9h386l31 -417v-73l19 71l168 419h307l50 -415l6 -64l16 64l146 415h357zM1162 1268l-509 -203l-102 203l428 313l198 -272z" />
    <glyph glyph-name="Wdieresis" unicode="&#x1e84;" horiz-adv-x="1750" 
d="M1860 1234l4 -7l-550 -1223h-290l-106 569l-8 86l-37 -86l-262 -569h-302l-225 1223l4 7h405l51 -590l5 -113l43 113l255 577h285l91 -536l13 -138l47 138l212 549h365zM1262 1348q-76 0 -123.5 48.5t-47.5 127.5t57.5 134t134 55t125 -48.5t48.5 -128.5t-59 -134
t-135 -54zM774 1348q-77 0 -125 48.5t-48 127.5t58 134t134 55t124.5 -48.5t48.5 -128.5t-57.5 -134t-134.5 -54z" />
    <glyph glyph-name="wdieresis" unicode="&#x1e85;" horiz-adv-x="1480" 
d="M1547 972l4 -9l-441 -963h-270l-75 510l-4 62l-18 -62l-227 -510h-274l-182 963l1 9h386l31 -417v-73l19 71l168 419h307l50 -415l6 -64l16 64l146 415h357zM1066.5 1100q-87.5 0 -142.5 55t-55 146.5t65.5 153t154 61.5t143.5 -54t55 -145.5t-66.5 -154t-154 -62.5z
M611.5 1100q-86.5 0 -142.5 55t-56 146.5t66.5 153t154 61.5t142 -54t54.5 -145.5t-66 -154t-152.5 -62.5z" />
    <glyph glyph-name="uni1E9E" unicode="&#x1e9e;" horiz-adv-x="1414" 
d="M842 -30q-106 0 -168.5 9.5t-150.5 39.5l45 335l9 3q86 -71 220 -70q156 0 156 106q0 88 -152 82q-82 -7 -161 -21l19 129l224 352q-15 6 -58 5q-164 0 -231 -62.5t-89 -218.5l-94 -659h-381l91 648q22 150 78 262q57 112 129 179q194 179 597 179q255 0 449 -78
l-17 -131l-219 -305q99 -20 154.5 -96.5t55.5 -199.5q0 -227 -133 -357.5t-373 -130.5z" />
    <glyph glyph-name="uni1EA0" unicode="&#x1ea0;" horiz-adv-x="1189" 
d="M485 -106q92 0 150.5 -58.5t58.5 -153.5t-70.5 -161.5t-162.5 -66.5t-151 59t-59 153.5t71 161t163 66.5zM464 357h201l-47 177l-20 106l-47 -106zM1154 0h-396l-28 104h-393l-52 -104h-382l704 1246h175z" />
    <glyph glyph-name="uni1EA1" unicode="&#x1ea1;" horiz-adv-x="1215" 
d="M524 -106q92 0 151 -58.5t59 -153.5t-71 -161.5t-164 -66.5t-151 59t-58 153.5t71 161t163 66.5zM558 320q98 0 112 77l37 245q-41 34 -110.5 34t-111.5 -64.5t-42 -144t34.5 -113.5t80.5 -34zM1092.5 335q20.5 0 35.5 15l8 -4l-45 -326q-88 -34 -194 -33
q-182 0 -216 127q-91 -140 -269 -140t-276 116t-97 282q0 320 156.5 474t361.5 154q156 0 255 -64l13 36h314l-85 -601q-4 -17 7 -26.5t31.5 -9.5z" />
    <glyph glyph-name="uni1EB8" unicode="&#x1eb8;" horiz-adv-x="1040" 
d="M466 -106q92 0 151 -58.5t59 -153.5t-71 -161.5t-163 -66.5t-150.5 59t-58.5 153.5t70.5 161t162.5 66.5zM1007 936h-447l-22 -161h410l-41 -293h-412l-26 -180h458l-41 -302h-841l177 1234h828z" />
    <glyph glyph-name="uni1EB9" unicode="&#x1eb9;" horiz-adv-x="1076" 
d="M462 -106q92 0 151 -58.5t59 -153.5t-70.5 -161.5t-162.5 -66.5t-151 59t-59 153.5t70.5 161t162.5 66.5zM670 588q0 108 -98 108t-129 -124l227 -2v18zM614.5 272q146.5 0 312.5 58l8 -4l-39 -281q-143 -71 -351 -71q-207 0 -345 95q-72 50 -115.5 142t-43.5 217
q0 253 162 412.5t413 159.5q188 0 304.5 -98t116.5 -288q0 -89 -28 -214l-2 -18l-569 -4q30 -106 176.5 -106z" />
    <glyph glyph-name="uni1EBC" unicode="&#x1ebc;" horiz-adv-x="1040" 
d="M45 0l177 1234h828l-43 -298h-447l-22 -161h410l-41 -293h-412l-26 -180h458l-41 -302h-841zM526 1653q85 0 162 -27t105 -27t50.5 17t25.5 43l6 4l201 -56q-15 -121 -84.5 -201t-161.5 -80q-63 0 -148.5 26t-116.5 26t-51 -19t-26 -41l-6 -4l-199 58q15 117 86.5 199
t156.5 82z" />
    <glyph glyph-name="uni1EBD" unicode="&#x1ebd;" horiz-adv-x="1076" 
d="M670 588q0 108 -98 108t-129 -124l227 -2v18zM616 1000q188 0 304.5 -98t116.5 -288q0 -89 -28 -214l-2 -18l-569 -4q30 -106 176.5 -106t312.5 58l8 -4l-39 -281q-143 -71 -351 -71q-207 0 -345 95q-72 50 -115.5 142t-43.5 217q0 253 162 412.5t413 159.5zM540 1450
q67 0 127.5 -27.5t93 -27.5t55 17.5t26.5 41.5l7 4l225 -60q-17 -128 -102.5 -207t-189.5 -79q-60 0 -125 29.5t-95 29.5q-65 0 -78 -63l-7 -6l-229 67q13 110 95.5 195.5t196.5 85.5z" />
    <glyph glyph-name="uni1ECA" unicode="&#x1eca;" horiz-adv-x="619" 
d="M185 -546q-92 0 -150.5 59t-58.5 153.5t70.5 161t162.5 66.5t151 -58.5t59 -153.5t-71 -161.5t-163 -66.5zM45 0l165 1234h386l-166 -1234h-385z" />
    <glyph glyph-name="uni1ECB" unicode="&#x1ecb;" horiz-adv-x="579" 
d="M163 -546q-92 0 -151 59t-59 153.5t71 161t163 66.5t151 -58.5t59 -153.5t-71 -161.5t-163 -66.5zM26 0l138 972h383l-137 -972h-384zM387 1061q-92 0 -151 59t-59 153.5t70 161t162.5 66.5t150.5 -59t58 -153.5t-69.5 -161t-161.5 -66.5z" />
    <glyph glyph-name="uni1ECC" unicode="&#x1ecc;" horiz-adv-x="1398" 
d="M585 -562q-93 0 -151 57.5t-58 153.5t71 162t163 66t150.5 -58.5t58.5 -153.5t-70.5 -161t-163.5 -66zM700.5 324q117.5 0 191.5 90q74 88 74 230q0 276 -225 276q-125 0 -200.5 -91.5t-75.5 -232.5t59 -206.5t176.5 -65.5zM674 -22q-242 0 -420 141q-88 69 -140.5 181.5
t-52.5 256.5q0 309 194 508t503 199q244 0 420 -140q88 -70 140 -184.5t52 -259.5q0 -307 -194.5 -504.5t-501.5 -197.5z" />
    <glyph glyph-name="uni1ECD" unicode="&#x1ecd;" horiz-adv-x="1156" 
d="M432 -546q-93 0 -151 59t-58 153.5t71 161t163 66.5t151 -58.5t59 -153.5t-71 -161.5t-164 -66.5zM564 298q74 0 112.5 69t38.5 160q0 145 -119 145q-80 0 -116.5 -66t-36.5 -161q0 -147 121 -147zM538 -24q-212 0 -351 113.5t-139 353t157.5 397.5t416.5 158
q209 0 347.5 -113.5t138.5 -354t-156.5 -397.5t-413.5 -157z" />
    <glyph glyph-name="uni1EE4" unicode="&#x1ee4;" horiz-adv-x="1312" 
d="M532 -546q-92 0 -151 59t-59 153.5t71 161t163 66.5t150.5 -58.5t58.5 -153.5t-70.5 -161.5t-162.5 -66.5zM592 -24q-494 0 -493 419q0 65 7 117l103 722h381l-97 -674q-9 -56 -9 -122q0 -138 151 -138q106 0 149 61.5t61 198.5l97 674h371l-103 -722
q-37 -251 -202.5 -393.5t-415.5 -142.5z" />
    <glyph glyph-name="uni1EE5" unicode="&#x1ee5;" horiz-adv-x="1150" 
d="M481 -106q92 0 151 -58.5t59 -153.5t-71 -161.5t-163 -66.5t-150.5 59t-58.5 153.5t70.5 161t162.5 66.5zM318 -24q-117 0 -188.5 66t-71.5 174q0 50 3 95l97 661h384l-78 -538q-6 -39 -6 -58q-4 -74 72 -74t118 61l89 609h384l-140 -972h-313l-16 140
q-117 -164 -334 -164z" />
    <glyph glyph-name="Ygrave" unicode="&#x1ef2;" horiz-adv-x="1158" 
d="M320 0l69 473l-305 754l4 7h413l128 -417l259 417h385l4 -7l-512 -784l-65 -443h-380zM899 1287l-493 152l-28 36l134 264l456 -277z" />
    <glyph glyph-name="ygrave" unicode="&#x1ef3;" horiz-adv-x="1007" 
d="M112 -320q-84 0 -136 20l43 307l7 4q28 -9 72.5 -9t77.5 5.5t69 30.5t57 70l-242 855l3 9h408l65 -393l157 393h387l4 -9l-468 -907q-110 -216 -214 -296t-290 -80zM788 1044l-512 187l-19 41l190 277l437 -300z" />
    <glyph glyph-name="uni1EF8" unicode="&#x1ef8;" horiz-adv-x="1158" 
d="M320 0l69 473l-305 754l4 7h413l128 -417l259 417h385l4 -7l-512 -784l-65 -443h-380zM580 1653q85 0 162 -27t105 -27t50.5 17t25.5 43l6 4l201 -56q-15 -121 -84.5 -201t-161.5 -80q-63 0 -149.5 26t-116.5 26t-50.5 -18.5t-25.5 -41.5l-6 -4l-199 58q15 117 86.5 199
t156.5 82z" />
    <glyph glyph-name="uni1EF9" unicode="&#x1ef9;" horiz-adv-x="1007" 
d="M112 -320q-84 0 -136 20l43 307l7 4q28 -9 72.5 -9t77.5 5.5t69 30.5t57 70l-242 855l3 9h408l65 -393l157 393h387l4 -9l-468 -907q-110 -216 -214 -296t-290 -80zM508 1450q67 0 127.5 -27.5t94 -27.5t55 17.5t25.5 41.5l7 4l226 -60q-17 -128 -102.5 -207t-190.5 -79
q-60 0 -125 29.5t-94 29.5q-66 0 -79 -63l-7 -6l-229 67q13 110 96 195.5t196 85.5z" />
    <glyph glyph-name="endash" unicode="&#x2013;" horiz-adv-x="1038" 
d="M80 369l43 311h845l-45 -311h-843z" />
    <glyph glyph-name="emdash" unicode="&#x2014;" horiz-adv-x="1629" 
d="M80 369l43 311h1433l-39 -311h-1437z" />
    <glyph glyph-name="quoteleft" unicode="&#x2018;" horiz-adv-x="482" 
d="M523 1333q-65 -190 -74 -272q-13 -78 -30 -272l-274 -48l-39 54q37 244 229 538h188z" />
    <glyph glyph-name="quoteright" unicode="&#x2019;" horiz-adv-x="482" 
d="M121 741q45 155 63 249t39 297l272 48l39 -54q-39 -257 -229 -540h-184z" />
    <glyph glyph-name="quotesinglbase" unicode="&#x201a;" horiz-adv-x="495" 
d="M-56 -365q62 223 76 300t28 247l272 49l41 -54q-35 -240 -231 -542h-186z" />
    <glyph glyph-name="quotedblleft" unicode="&#x201c;" horiz-adv-x="856" 
d="M896 1333q-54 -168 -74 -284t-25 -260l-278 -48l-39 54q37 244 229 538h187zM523 1333q-65 -190 -74 -272q-13 -78 -30 -272l-274 -48l-39 54q37 244 229 538h188z" />
    <glyph glyph-name="quotedblright" unicode="&#x201d;" horiz-adv-x="847" 
d="M493 741q50 177 68 281t33 265l274 48l39 -54q-23 -134 -89 -280t-142 -260h-183zM121 741q45 155 63 249t39 297l272 48l39 -54q-39 -257 -229 -540h-184z" />
    <glyph glyph-name="quotedblbase" unicode="&#x201e;" horiz-adv-x="860" 
d="M313 -365q54 184 71 276q22 149 31 271l276 49l39 -54q-37 -246 -233 -542h-184zM-58 -365q60 215 76 317t27 230l273 49l41 -54q-35 -240 -231 -542h-186z" />
    <glyph glyph-name="dagger" unicode="&#x2020;" horiz-adv-x="1185" 
d="M789 964l380 60l-48 -356l-326 39l-175 -940h-261l90 946l-326 -45l48 356l356 -54l11 397h356z" />
    <glyph glyph-name="daggerdbl" unicode="&#x2021;" horiz-adv-x="1182" 
d="M313 -225l108 376l-387 -52l48 355l324 -50l67 169l-22 162l-324 -46l46 355l359 -54l8 375h356l-99 -380l374 59l-48 -355l-324 50l-65 -166l22 -165l324 46l-49 -355l-363 46l-1 -370h-354z" />
    <glyph glyph-name="bullet" unicode="&#x2022;" horiz-adv-x="783" 
d="M378 151q-134 0 -213 75q-79 74 -79 206t87 225q88 93 223 93t210 -77t75 -205t-85 -223q-84 -94 -218 -94z" />
    <glyph glyph-name="ellipsis" unicode="&#x2026;" horiz-adv-x="1431" 
d="M1108 -32q-88 0 -132 46t-45 123q0 77 54 138q53 61 141 61t134 -46q46 -45 46 -122q0 -76 -56 -138q-54 -62 -142 -62zM851 168q0 -76 -55 -138q-54 -62 -142 -62t-133 46t-45 123t55 138q53 61 141 61t134 -46q46 -45 45 -122zM393 168q0 -76 -55 -138
q-54 -62 -142 -62t-133 46t-45 123t55 138q53 61 141 61t134 -46q46 -45 45 -122z" />
    <glyph glyph-name="perthousand" unicode="&#x2030;" horiz-adv-x="2254" 
d="M1839 207q43 0 66 40q22 39 22 95q0 106 -78 109q-45 0 -69 -41t-24 -107q-1 -96 83 -96zM1138 207q88 0 87 143q0 101 -76 101q-47 0 -70 -41t-23 -107q0 -96 82 -96zM2188 354q0 -160 -104 -262t-256 -103q-151 0 -242 75t-91 235q0 161 103 265q104 104 254 104
t243 -77t93 -237zM1486 354q0 -160 -104 -262t-254 -103q-151 0 -243 75t-92 235q0 161 104 265q105 104 255 104t242 -77t92 -237zM445 788q43 0 65 39t22 95q0 110 -76 109q-47 0 -71 -41t-24 -106q0 -96 84 -96zM155 24l1010 1195h272l-1009 -1195h-273zM436 568
q-151 0 -243 75t-92 236t104 265t254 103q150 0 242 -76q92 -77 92 -237t-103 -263t-254 -103z" />
    <glyph glyph-name="guilsinglleft" unicode="&#x2039;" horiz-adv-x="638" 
d="M335 171l-128 391l231 367h350l-6 -28l-231 -361l127 -348l-4 -21h-339z" />
    <glyph glyph-name="guilsinglright" unicode="&#x203a;" horiz-adv-x="638" 
d="M456 929l129 -391l-231 -367h-350l5 28l231 361l-126 349l3 20h339z" />
    <glyph glyph-name="fraction" unicode="&#x2044;" horiz-adv-x="485" 
d="M-320 -20l879 1267h271l-882 -1267h-268z" />
    <glyph glyph-name="uni20A8" unicode="&#x20a8;" horiz-adv-x="970" 
d="M181 596q175 0 230 111h-337l64 213h292q-35 102 -207 102h-108l64 212h895l-70 -212h-228q32 -47 43 -102h211l-73 -213h-151q-60 -225 -281 -307l259 -389l-2 -11h-467l-248 361l30 235h84z" />
    <glyph glyph-name="Euro" unicode="&#x20ac;" horiz-adv-x="1150" 
d="M1013 1279q134 0 238 -22l-46 -350l-6 -4q-86 30 -175 30q-182 0 -274 -108h229l-113 -380h-166q60 -123 231 -123q82 0 186 45l8 -8l-49 -340q-89 -41 -227 -41q-238 0 -394 123q-155 123 -181 344h-220l114 380h152q80 212 266 333q187 121 427 121z" />
    <glyph glyph-name="uni20BD" unicode="&#x20bd;" horiz-adv-x="1148" 
d="M789 855q0 106 -115 106q-52 0 -80 -2l-34 -244h71q158 0 158 140zM644 445h-119l-13 -95h216l-34 -248h-216l-13 -102h-379l13 102h-138l33 248h138l13 95h-139l39 270h137l69 519q264 17 440 15q488 -7 488 -346q0 -233 -152 -345.5t-383 -112.5z" />
    <glyph glyph-name="trademark" unicode="&#x2122;" horiz-adv-x="1630" 
d="M1309 1251h287l-38 -627h-271l18 180h-2l-84 -182h-178l-28 184h-4l-35 -182h-274l143 627h300l47 -257zM767 977h-171l-49 -353h-292l50 353h-173l39 274h633z" />
    <glyph glyph-name="oneeighth" unicode="&#x215b;" horiz-adv-x="1513" 
d="M1116 158q72 0 72 39q0 28 -95 66q-2 1 -6 1t-5 2q-37 -26 -38 -63q0 -45 72 -45zM1225 497q0 28 -52 28t-52 -37q0 -22 67 -47q37 22 37 56zM1430 215q0 -96 -90 -164t-249 -68q-283 0 -283 175q0 65 26 111t95 81q-65 56 -65 121q0 119 98 180t224 61q276 -1 277 -172
q0 -63 -27 -103t-88 -72q82 -54 82 -150zM970 1247h272l-883 -1267h-268zM175 564l54 356l-134 -24l37 264l382 102h24l-100 -698h-263z" />
    <glyph glyph-name="threeeighths" unicode="&#x215c;" horiz-adv-x="1593" 
d="M1123 203q-1 -45 71 -45t72 39q0 28 -95 66q-2 1 -6 1t-5 2q-37 -26 -37 -63zM1303 497q0 28 -52 28t-52 -37q0 -22 67 -47q37 22 37 56zM1508 215q0 -96 -90 -164t-249 -68q-283 0 -283 175q0 65 26 111t95 81q-65 56 -65 121q0 119 98 180t224 61q276 -1 278 -172
q0 -63 -28 -103t-88 -72q82 -54 82 -150zM1078 1247h272l-883 -1267h-268zM640 815q0 -121 -98 -195t-246 -73q-147 0 -229 30l28 199l2 2q78 -30 147 -30t92 2q66 6 66 51q0 28 -46 28h-172l28 171h149q45 0 45 32t-102 31q-102 0 -163 -22l-3 3l28 202q123 20 227 20
q268 0 268 -166q0 -101 -84 -165q63 -40 63 -120z" />
    <glyph glyph-name="fiveeighths" unicode="&#x215d;" horiz-adv-x="1573" 
d="M1104 203q0 -45 72 -45t71 39q0 28 -95 66q-2 1 -6 1t-5 2q-37 -26 -37 -63zM1232 525q-52 0 -52 -37q0 -22 67 -47q37 22 38 56q-1 28 -53 28zM1151 -17q-283 0 -283 175q0 65 26 111t95 81q-65 56 -66 121q0 119 98 180t225 61q277 -1 277 -172q0 -63 -27 -103t-88 -72
q82 -54 82 -150t-91 -164q-90 -68 -248 -68zM1069 1247h272l-883 -1267h-268zM655 840q0 -88 -35 -150q-79 -139 -326 -142q-134 -1 -223 16l31 211l2 1q91 -30 190 -30t99 43q0 25 -25 31q-25 7 -94 7t-159 -15l-1 3l78 438h488l-28 -207h-287l-9 -41q30 4 63 4
q236 0 236 -169z" />
    <glyph glyph-name="seveneighths" unicode="&#x215e;" horiz-adv-x="1493" 
d="M1022 203q0 -45 72 -45t71 39q0 28 -94 66q-2 1 -6 1t-6 2q-37 -26 -37 -63zM1150 525q-52 0 -52 -37q0 -22 67 -47q37 22 38 56q-1 28 -53 28zM1408 215q0 -96 -90 -164t-249 -68q-283 0 -283 175q0 65 26 111t95 81q-65 56 -65 121q0 119 97 180q98 61 225 61
q277 -1 277 -172q0 -63 -27 -103t-88 -72q82 -54 82 -150zM976 1247h271l-882 -1267h-268zM691 1123l-343 -559h-257l4 4l300 458h-274l32 229h556z" />
    <glyph glyph-name="arrowleft" unicode="&#x2190;" horiz-adv-x="1228" 
d="M1205 771v-328h-492l153 -153l-214 -216l-542 540l540 540l218 -216l-175 -167h512z" />
    <glyph glyph-name="arrowup" unicode="&#x2191;" horiz-adv-x="1228" 
d="M719 26h-328v618l-214 -221l-214 216l586 586l587 -588l-216 -216l-201 203v-598z" />
    <glyph glyph-name="arrowright" unicode="&#x2192;" horiz-adv-x="1228" 
d="M41 443v328h512l-175 167l218 216l540 -540l-542 -540l-214 216l152 153h-491z" />
    <glyph glyph-name="arrowdown" unicode="&#x2193;" horiz-adv-x="1228" 
d="M391 1179h328v-598l201 203l216 -216l-587 -588l-586 586l214 216l214 -222v619z" />
    <glyph glyph-name="uni2196" unicode="&#x2196;" horiz-adv-x="1228" 
d="M1035 1091v-303l-309 3l484 -484l-233 -233l-469 472l2 -285h-305l-2 830h832z" />
    <glyph glyph-name="uni2197" unicode="&#x2197;" horiz-adv-x="1228" 
d="M199 1091h832l-1 -830h-306l2 285l-469 -472l-233 233l484 484l-309 -3v303z" />
    <glyph glyph-name="uni2198" unicode="&#x2198;" horiz-adv-x="1228" 
d="M175 102v304l309 -4l-484 484l233 233l469 -471l-2 285h305l2 -831h-832z" />
    <glyph glyph-name="uni2199" unicode="&#x2199;" horiz-adv-x="1228" 
d="M1033 74h-832l2 831h305l-2 -285l470 471l232 -233l-484 -484l309 4v-304z" />
    <glyph glyph-name="minus" unicode="&#x2212;" horiz-adv-x="1079" 
d="M88 428l33 246h886l-35 -246h-884z" />
    <glyph glyph-name="approxequal" unicode="&#x2248;" horiz-adv-x="997" 
d="M354 495q69 -1 149 -31t124 -30q63 0 79 65l11 6l184 -40q-19 -123 -99 -202t-193 -79q-54 0 -140 31t-121 31q-71 0 -84 -65l-7 -8l-203 30q20 128 102 210t198 82zM410 903q72 0 152 -31q80 -30 134 -30t69 65l10 5l186 -39q-19 -123 -99 -199t-195 -76q-52 0 -138 29
q-85 29 -121 29t-58 -20q-22 -18 -26 -44l-9 -6l-201 28q17 127 99 208q83 81 197 81z" />
    <glyph glyph-name="notequal" unicode="&#x2260;" horiz-adv-x="1145" 
d="M1067 644h-259l-121 -199h348l-31 -240h-460l-101 -168h-283l101 168h-203l31 240h315l117 199h-402l36 240h510l89 149h287l-90 -149h149z" />
    <glyph glyph-name="uniF8FF" unicode="&#xf8ff;" horiz-adv-x="2766" 
d="M2013 28h13q7 0 7 6t-7 5h-13v-11zM2001 4v43h23q19 0 18 -13q0 -13 -13 -14l12 -16h-12l-7 16h-9v-16h-12zM2021 58q-34 0 -34 -34q1 -34 35 -33q34 0 33 33q0 34 -34 34zM2067 24q0 -43 -46 -43t-46 43t46 43t46 -43zM1235 244q-40 0 -40 -58q1 -26 10 -54q29 0 50 22
t20 47q0 43 -40 43zM1715 201h76q6 50 -32 50q-44 0 -44 -50zM1776 -9q-268 0 -268 225q0 108 62 170t172 62t168 -55q58 -56 58 -158q0 -41 -6 -66h-238q20 -33 91 -33t110 22l2 -138q-47 -29 -151 -29zM992 -82q0 313 15 521h151q13 -78 13 -141q32 151 153 151
q70 0 112 -55t42 -158q0 -246 -262 -245q2 -28 2 -73h-226zM959 188q1 -154 -63 -218q-64 -63 -204 -63t-189 32v154q45 -30 127 -30t103 33q7 10 6 18q-32 -20 -93 -21q-173 0 -173 155v24h-104l5 -121q10 -7 32 -7t32 9v-134q-35 -28 -125 -28q-90 -1 -124 31t-34 102
t5 148h-37v147l223 52l-2 -32h341v-219q0 -30 6 -40t22 -11q30 0 30 51v219h197q19 -97 19 -251zM2266 637q45 0 45 51t-45 51q-39 0 -39 -51t39 -51zM622 637q48 0 48 51t-48 51q-41 0 -41 -51t41 -51zM2269 488q-234 0 -234 230t234 230t233 -231q1 -229 -233 -229z
M1761 722q-34 0 -33 -52l5 -173h-216q-7 294 15 441h155q11 -86 11 -139q4 38 25 76q40 73 125 73q86 0 116 -47t34 -149l7 -255h-218l2 168q1 33 -5 45t-23 12zM551 488q-177 0 -177 212q0 116 64 182t191 66q236 0 237 -216v-235h-157l-15 114q-12 -61 -44 -92t-99 -31z
M1249 497q0 169 6 272h-117l7 -121q11 -6 31 -6t30 8v-136q-26 -28 -128 -28q-158 0 -158 123l7 160h-41l-2 143l229 58l2 -32h337q20 -117 21 -441h-224zM115 497q0 294 15 577h192q20 -389 21 -577h-228zM1358 963q-48 1 -82 33t-34 78t33 80q34 34 83 34t83 -34t34 -82
t-34 -78q-35 -31 -83 -31z" />
    <glyph glyph-name="Jacute" horiz-adv-x="741" 
d="M73 -6q-61 0 -120 8l49 320l7 4q28 -6 52 -6q93 0 139 60.5t63 170.5l100 683h384l-95 -644q-43 -302 -186.5 -449t-392.5 -147zM354 1296l-62 179l475 264l114 -272l-28 -35z" />
    <glyph glyph-name="G.alt" horiz-adv-x="1213" 
d="M652 -20q-263 0 -425 139.5t-162 399.5q0 352 212.5 556t565.5 204q222 0 349 -54l-53 -346l-7 -4q-114 60 -294 60t-277 -97t-97 -270q0 -119 64 -182.5t185 -63.5h71l33 248h328l-74 -538q-207 -52 -419 -52z" />
    <glyph glyph-name="M.ss01" horiz-adv-x="1521" 
d="M1244 1246h206l-76 -1246h-361l41 439h-4l-294 -433h-129l-160 443h-7l-101 -449h-357l281 1246h222l271 -684z" />
    <glyph glyph-name="Q.ss01" horiz-adv-x="1349" 
d="M923 644q0 276 -234 276q-97 0 -153 -59.5t-56 -141.5q0 -141 134 -142q71 0 125 24l9 -1l2 -304q-101 -39 -221 -39q-184 0 -311 107t-127 314q0 248 169.5 417t441 169t447 -151.5t175.5 -434.5q0 -181 -101.5 -358t-276.5 -270q151 -7 319.5 -66t302.5 -83l3 -7
l-55 -317q-152 -3 -454 125q-112 48 -289 83.5t-362 28.5l-5 342q220 7 368.5 150t148.5 338z" />
    <glyph glyph-name="i.loclTRK" horiz-adv-x="579" 
d="M26 0l138 972h383l-137 -972h-384zM387 1061q-92 0 -151 59t-59 153.5t70 161t162.5 66.5t150.5 -59t58 -153.5t-69.5 -161t-161.5 -66.5z" />
    <glyph glyph-name="jacute" horiz-adv-x="614" 
d="M-28 -320q-71 0 -162 13l47 329l7 6q30 -9 69 -9q130 0 153 154l115 799h382l-125 -890q-30 -205 -159.5 -303.5t-326.5 -98.5zM231 1037l-103 203l429 313l197 -272l-15 -41z" />
    <glyph glyph-name="germandbls.calt" horiz-adv-x="1414" 
d="M842 -30q-106 0 -168.5 9.5t-150.5 39.5l45 335l7 3q95 -71 222 -70q74 0 109.5 21.5t35.5 73.5q0 104 -153 95q-89 -9 -130 -17v123l201 367q-11 6 -58 5q-123 0 -196.5 -57.5t-99.5 -230.5l-95 -667h-381l100 721q49 322 248 447q157 99 397 112q54 3 149 3t222 -23.5
t196 -54.5l2 -84l-227 -378q227 -74 227 -299.5t-133 -349.5t-369 -124z" />
    <glyph glyph-name="a.ss01" horiz-adv-x="1085" 
d="M380 300q0 -56 71.5 -56t90.5 50l9 69q-20 4 -67 4q-104 0 -104 -67zM968 335q30 0 47 13l9 -4l-48 -324q-88 -34 -192 -33q-190 0 -218 132q-117 -143 -270 -143t-222.5 71.5t-69.5 183.5q0 173 122 251t306 78q82 0 147 -16l2 28q0 60 -36.5 86.5t-159.5 26.5t-214 -46
l-9 3l37 291q45 26 142 46.5t203 20.5q426 0 426 -361q0 -56 -7 -103l-19 -136l-6 -35q0 -30 30 -30z" />
    <glyph glyph-name="aacute.ss01" horiz-adv-x="1085" 
d="M380 300q0 -56 71.5 -56t90.5 50l9 69q-20 4 -67 4q-104 0 -104 -67zM968 335q30 0 47 13l9 -4l-48 -324q-88 -34 -192 -33q-190 0 -218 132q-117 -143 -270 -143t-222.5 71.5t-69.5 183.5q0 173 122 251t306 78q82 0 147 -16l2 28q0 60 -36.5 86.5t-159.5 26.5t-214 -46
l-9 3l37 291q45 26 142 46.5t203 20.5q426 0 426 -361q0 -56 -7 -103l-19 -136l-6 -35q0 -30 30 -30zM905 1240l-508 -203l-103 203l428 313l198 -272z" />
    <glyph glyph-name="abreve.ss01" horiz-adv-x="1085" 
d="M380 300q0 -56 71.5 -56t90.5 50l9 69q-20 4 -67 4q-104 0 -104 -67zM968 335q30 0 47 13l9 -4l-48 -324q-88 -34 -192 -33q-190 0 -218 132q-117 -143 -270 -143t-222.5 71.5t-69.5 183.5q0 173 122 251t306 78q82 0 147 -16l2 28q0 60 -36.5 86.5t-159.5 26.5t-214 -46
l-9 3l37 291q45 26 142 46.5t203 20.5q426 0 426 -361q0 -56 -7 -103l-19 -136l-6 -35q0 -30 30 -30zM586.5 1078q-145.5 0 -228 89.5t-58.5 241.5l216 25l11 -8q-4 -47 19.5 -78.5t71.5 -31.5q84 0 121 110l8 6l199 -23q-24 -158 -119 -244.5t-240.5 -86.5z" />
    <glyph glyph-name="acircumflex.ss01" horiz-adv-x="1085" 
d="M380 300q0 -56 71.5 -56t90.5 50l9 69q-20 4 -67 4q-104 0 -104 -67zM968 335q30 0 47 13l9 -4l-48 -324q-88 -34 -192 -33q-190 0 -218 132q-117 -143 -270 -143t-222.5 71.5t-69.5 183.5q0 173 122 251t306 78q82 0 147 -16l2 28q0 60 -36.5 86.5t-159.5 26.5t-214 -46
l-9 3l37 291q45 26 142 46.5t203 20.5q426 0 426 -361q0 -56 -7 -103l-19 -136l-6 -35q0 -30 30 -30zM588 1218l-219 -146l-106 116l266 301h175l199 -296l-138 -121z" />
    <glyph glyph-name="adieresis.ss01" horiz-adv-x="1085" 
d="M380 300q0 -56 71.5 -56t90.5 50l9 69q-20 4 -67 4q-104 0 -104 -67zM968 335q30 0 47 13l9 -4l-48 -324q-88 -34 -192 -33q-190 0 -218 132q-117 -143 -270 -143t-222.5 71.5t-69.5 183.5q0 173 122 251t306 78q82 0 147 -16l2 28q0 60 -36.5 86.5t-159.5 26.5t-214 -46
l-9 3l37 291q45 26 142 46.5t203 20.5q426 0 426 -361q0 -56 -7 -103l-19 -136l-6 -35q0 -30 30 -30zM809.5 1072q-87.5 0 -142 56t-54.5 146.5t65 152t153.5 61.5t143.5 -54t55 -145.5t-66.5 -154t-154 -62.5zM354.5 1072q-86.5 0 -142.5 56t-56 146.5t66.5 152t154 61.5
t142 -54t54.5 -145.5t-66 -154t-152.5 -62.5z" />
    <glyph glyph-name="uni1EA1.ss01" horiz-adv-x="1085" 
d="M423 -106q92 0 151 -58.5t59 -153.5t-70.5 -161.5t-163.5 -66.5t-151 59t-58 153.5t70.5 161t162.5 66.5zM380 300q0 -56 71.5 -56t90.5 50l9 69q-20 4 -67 4q-104 0 -104 -67zM968 335q30 0 47 13l9 -4l-48 -324q-88 -34 -192 -33q-190 0 -218 132q-117 -143 -270 -143
t-222.5 71.5t-69.5 183.5q0 173 122 251t306 78q82 0 147 -16l2 28q0 60 -36.5 86.5t-159.5 26.5t-214 -46l-9 3l37 291q45 26 142 46.5t203 20.5q426 0 426 -361q0 -56 -7 -103l-19 -136l-6 -35q0 -30 30 -30z" />
    <glyph glyph-name="agrave.ss01" horiz-adv-x="1085" 
d="M380 300q0 -56 71.5 -56t90.5 50l9 69q-20 4 -67 4q-104 0 -104 -67zM968 335q30 0 47 13l9 -4l-48 -324q-88 -34 -192 -33q-190 0 -218 132q-117 -143 -270 -143t-222.5 71.5t-69.5 183.5q0 173 122 251t306 78q82 0 147 -16l2 28q0 60 -36.5 86.5t-159.5 26.5t-214 -46
l-9 3l37 291q45 26 142 46.5t203 20.5q426 0 426 -361q0 -56 -7 -103l-19 -136l-6 -35q0 -30 30 -30zM761 1044l-512 187l-18 41l190 277l437 -300z" />
    <glyph glyph-name="amacron.ss01" horiz-adv-x="1085" 
d="M380 300q0 -56 71.5 -56t90.5 50l9 69q-20 4 -67 4q-104 0 -104 -67zM968 335q30 0 47 13l9 -4l-48 -324q-88 -34 -192 -33q-190 0 -218 132q-117 -143 -270 -143t-222.5 71.5t-69.5 183.5q0 173 122 251t306 78q82 0 147 -16l2 28q0 60 -36.5 86.5t-159.5 26.5t-214 -46
l-9 3l37 291q45 26 142 46.5t203 20.5q426 0 426 -361q0 -56 -7 -103l-19 -136l-6 -35q0 -30 30 -30zM903 1350l-34 -216h-582l31 216h585z" />
    <glyph glyph-name="aogonek.ss01" horiz-adv-x="1085" 
d="M380 300q0 -56 71.5 -56t90.5 50l9 69q-20 4 -67 4q-104 0 -104 -67zM968 335q30 0 47 13l9 -4l-48 -322h5q-181 -93 -180 -206q0 -74 65 -75q32 0 54 8l9 -10l-22 -169q-65 -15 -154.5 -15t-157.5 43t-68 126q0 145 186 269q-125 20 -147 126q-117 -143 -270 -143
t-222.5 71.5t-69.5 183.5q0 173 122 251t306 78q82 0 147 -16l2 28q0 60 -36.5 86.5t-159.5 26.5t-214 -46l-9 3l37 291q45 26 142 46.5t203 20.5q426 0 426 -361q0 -56 -7 -103l-19 -136l-6 -35q0 -30 30 -30z" />
    <glyph glyph-name="aring.ss01" horiz-adv-x="1085" 
d="M380 300q0 -56 71.5 -56t90.5 50l9 69q-20 4 -67 4q-104 0 -104 -67zM968 335q30 0 47 13l9 -4l-48 -324q-88 -34 -192 -33q-190 0 -218 132q-117 -143 -270 -143t-222.5 71.5t-69.5 183.5q0 173 122 251t306 78q82 0 147 -16l2 28q0 60 -36.5 86.5t-159.5 26.5t-214 -46
l-9 3l37 291q45 26 142 46.5t203 20.5q426 0 426 -361q0 -56 -7 -103l-19 -136l-6 -35q0 -30 30 -30zM616.5 1372q-35.5 0 -62.5 -25t-27 -62.5t20.5 -58t56 -20.5t62.5 25.5t27 62.5t-20.5 57.5t-56 20.5zM590.5 1031q-115.5 0 -178 64.5t-62.5 179t80 192.5t194.5 78
t178 -64t63.5 -179.5t-80 -193t-195.5 -77.5z" />
    <glyph glyph-name="aringacute.ss01" horiz-adv-x="1085" 
d="M380 300q0 -56 71.5 -56t90.5 50l9 69q-20 4 -67 4q-104 0 -104 -67zM968 335q30 0 47 13l9 -4l-48 -324q-88 -34 -192 -33q-190 0 -218 132q-117 -143 -270 -143t-222.5 71.5t-69.5 183.5q0 173 122 251t306 78q82 0 147 -16l2 28q0 60 -36.5 86.5t-159.5 26.5t-214 -46
l-9 3l37 291q45 26 142 46.5t203 20.5q426 0 426 -361q0 -56 -7 -103l-19 -136l-6 -35q0 -30 30 -30zM603.5 1206q35.5 0 62.5 25.5t27 62.5t-20.5 57.5t-56 20.5t-62.5 -25t-27 -62.5t20.5 -58t56 -20.5zM866 1311q0 -125 -80 -202.5t-195.5 -77.5t-178 64.5t-62.5 179
t80 192.5t197 78q41 0 71 -7l345 251l197 -272l-15 -41l-359 -143v-22z" />
    <glyph glyph-name="atilde.ss01" horiz-adv-x="1085" 
d="M380 300q0 -56 71.5 -56t90.5 50l9 69q-20 4 -67 4q-104 0 -104 -67zM968 335q30 0 47 13l9 -4l-48 -324q-88 -34 -192 -33q-190 0 -218 132q-117 -143 -270 -143t-222.5 71.5t-69.5 183.5q0 173 122 251t306 78q82 0 147 -16l2 28q0 60 -36.5 86.5t-159.5 26.5t-214 -46
l-9 3l37 291q45 26 142 46.5t203 20.5q426 0 426 -361q0 -56 -7 -103l-19 -136l-6 -35q0 -30 30 -30zM482 1450q67 0 127.5 -27.5t94 -27.5t55 17.5t25.5 41.5l7 4l226 -60q-17 -128 -102.5 -207t-190.5 -79q-60 0 -125 29.5t-94 29.5q-66 0 -79 -63l-7 -6l-229 67
q13 110 96 195.5t196 85.5z" />
    <glyph glyph-name="d.ss01" horiz-adv-x="1172" 
d="M560 320q95 0 114 90l33 234q-45 32 -110 32t-109.5 -61.5t-44.5 -147t32.5 -116.5t84.5 -31zM397 -26q-143 0 -251.5 108t-108.5 305q0 287 153.5 450t390.5 163q97 0 175 -30l54 367h383l-189 -1337h-311l-15 106q-39 -58 -112 -95t-169 -37z" />
    <glyph glyph-name="dcaron.ss01" horiz-adv-x="1334" 
d="M560 320q95 0 114 90l33 234q-45 32 -110 32t-109.5 -61.5t-44.5 -147t32.5 -116.5t84.5 -31zM397 -26q-143 0 -251.5 108t-108.5 305q0 287 153.5 450t390.5 163q97 0 175 -30l54 367h383l-189 -1337h-311l-15 106q-39 -58 -112 -95t-169 -37zM1523 1346l26 -30
l-166 -461h-191l81 491h250z" />
    <glyph glyph-name="dcroat.ss01" horiz-adv-x="1172" 
d="M560 320q95 0 114 90l33 234q-45 32 -110 32t-109.5 -61.5t-44.5 -147t32.5 -116.5t84.5 -31zM397 -26q-143 0 -251.5 108t-108.5 305q0 287 153.5 450t390.5 163q97 0 175 -30l13 82h-184l29 220h187l9 65h383l-9 -65h106l-30 -220h-108l-148 -1052h-311l-15 106
q-39 -58 -112 -95t-169 -37z" />
    <glyph glyph-name="g.ss01" horiz-adv-x="1113" 
d="M467 -102q173 0 173 39q0 26 -31 35t-125 12t-158 10q-20 -24 -20.5 -50t34 -36t127.5 -10zM633 665q0 48 -54 56h-26v1q-99 0 -99 -69q0 -58 78 -57q101 0 101 69zM989 642q0 -128 -127 -211t-365 -83q-35 0 -91 4q-17 -9 -17 -30.5t46.5 -32t217 -20.5t264.5 -68
t94 -182q0 -173 -157.5 -260t-449.5 -87q-451 0 -451 205q0 104 133 197q-63 48 -64 121q0 134 183 216q-127 71 -127 220t146.5 245t395.5 96h516l-32 -251h-132q17 -32 17 -79z" />
    <glyph glyph-name="gbreve.ss01" horiz-adv-x="1113" 
d="M467 -102q173 0 173 39q0 26 -31 35t-125 12t-158 10q-20 -24 -20.5 -50t34 -36t127.5 -10zM633 665q0 48 -54 56h-26v1q-99 0 -99 -69q0 -58 78 -57q101 0 101 69zM989 642q0 -128 -127 -211t-365 -83q-35 0 -91 4q-17 -9 -17 -30.5t46.5 -32t217 -20.5t264.5 -68
t94 -182q0 -173 -157.5 -260t-449.5 -87q-451 0 -451 205q0 104 133 197q-63 48 -64 121q0 134 183 216q-127 71 -127 220t146.5 245t395.5 96h516l-32 -251h-132q17 -32 17 -79zM601.5 1104q-145.5 0 -228.5 89.5t-58 241.5l216 25l11 -8q-4 -47 19.5 -78.5t71.5 -31.5
q84 0 121 110l7 6l200 -23q-24 -158 -119 -244.5t-240.5 -86.5z" />
    <glyph glyph-name="gcaron.ss01" horiz-adv-x="1113" 
d="M467 -102q173 0 173 39q0 26 -31 35t-125 12t-158 10q-20 -24 -20.5 -50t34 -36t127.5 -10zM633 665q0 48 -54 56h-26v1q-99 0 -99 -69q0 -58 78 -57q101 0 101 69zM989 642q0 -128 -127 -211t-365 -83q-35 0 -91 4q-17 -9 -17 -30.5t46.5 -32t217 -20.5t264.5 -68
t94 -182q0 -173 -157.5 -260t-449.5 -87q-451 0 -451 205q0 104 133 197q-63 48 -64 121q0 134 183 216q-127 71 -127 220t146.5 245t395.5 96h516l-32 -251h-132q17 -32 17 -79zM678 1098h-177l-192 304l134 114l188 -146l216 146l101 -114z" />
    <glyph glyph-name="gcircumflex.ss01" horiz-adv-x="1113" 
d="M467 -102q173 0 173 39q0 26 -31 35t-125 12t-158 10q-20 -24 -20.5 -50t34 -36t127.5 -10zM633 665q0 48 -54 56h-26v1q-99 0 -99 -69q0 -58 78 -57q101 0 101 69zM989 642q0 -128 -127 -211t-365 -83q-35 0 -91 4q-17 -9 -17 -30.5t46.5 -32t217 -20.5t264.5 -68
t94 -182q0 -173 -157.5 -260t-449.5 -87q-451 0 -451 205q0 104 133 197q-63 48 -64 121q0 134 183 216q-127 71 -127 220t146.5 245t395.5 96h516l-32 -251h-132q17 -32 17 -79zM603 1244l-219 -146l-107 116l267 302h175l199 -297l-138 -121z" />
    <glyph glyph-name="gcommaaccent.ss01" horiz-adv-x="1113" 
d="M467 -102q173 0 173 39q0 26 -31 35t-125 12t-158 10q-20 -24 -20.5 -50t34 -36t127.5 -10zM633 665q0 48 -54 56h-26v1q-99 0 -99 -69q0 -58 78 -57q101 0 101 69zM989 642q0 -128 -127 -211t-365 -83q-35 0 -91 4q-17 -9 -17 -30.5t46.5 -32t217 -20.5t264.5 -68
t94 -182q0 -173 -157.5 -260t-449.5 -87q-451 0 -451 205q0 104 133 197q-63 48 -64 121q0 134 183 216q-127 71 -127 220t146.5 245t395.5 96h516l-32 -251h-132q17 -32 17 -79zM735 1093l-279 -22l-18 41q28 203 169 377h203q-56 -188 -63.5 -236t-11.5 -160z" />
    <glyph glyph-name="gdotaccent.ss01" horiz-adv-x="1113" 
d="M467 -102q173 0 173 39q0 26 -31 35t-125 12t-158 10q-20 -24 -20.5 -50t34 -36t127.5 -10zM633 665q0 48 -54 56h-26v1q-99 0 -99 -69q0 -58 78 -57q101 0 101 69zM989 642q0 -128 -127 -211t-365 -83q-35 0 -91 4q-17 -9 -17 -30.5t46.5 -32t217 -20.5t264.5 -68
t94 -182q0 -173 -157.5 -260t-449.5 -87q-451 0 -451 205q0 104 133 197q-63 48 -64 121q0 134 183 216q-127 71 -127 220t146.5 245t395.5 96h516l-32 -251h-132q17 -32 17 -79zM603 1087q-92 0 -151 59t-59 153.5t69.5 161t162.5 66.5t151 -59t58 -153.5t-69.5 -161
t-161.5 -66.5z" />
    <glyph glyph-name="l.ss01" horiz-adv-x="579" 
d="M26 0l190 1337h384l-190 -1337h-384z" />
    <glyph glyph-name="lacute.ss01" horiz-adv-x="579" 
d="M26 0l190 1337h384l-190 -1337h-384zM212 1398l-61 179l475 264l113 -271l-28 -36z" />
    <glyph glyph-name="lcaron.ss01" horiz-adv-x="579" 
d="M26 0l190 1337h384l-190 -1337h-384zM592 853l82 491h249l27 -30l-166 -461h-192z" />
    <glyph glyph-name="lcommaaccent.ss01" horiz-adv-x="579" 
d="M-20 -492q56 188 64 236t10 161l279 22l19 -41q-28 -203 -170 -378h-202zM26 0l190 1337h384l-190 -1337h-384z" />
    <glyph glyph-name="ldot.ss01" horiz-adv-x="951" 
d="M783.5 478q-98.5 0 -146 47t-47.5 127t58.5 138.5t156.5 58.5t142.5 -47.5t44.5 -128.5t-55 -138t-153.5 -57zM26 0l190 1337h384l-190 -1337h-384z" />
    <glyph glyph-name="lslash.ss01" horiz-adv-x="735" 
d="M763 966l-35 -247l-134 -71l-91 -648h-384l62 428l-133 -69l-13 10l36 242l147 78l91 648h384l-62 -427l119 64z" />
    <glyph glyph-name="y.ss01" horiz-adv-x="1018" 
d="M1097 972l3 -9l-534 -974l-158 -296h-393l-4 7l279 432l-232 831l3 9h406l67 -423l179 423h384z" />
    <glyph glyph-name="yacute.ss01" horiz-adv-x="1018" 
d="M1097 972l3 -9l-534 -974l-158 -296h-393l-4 7l279 432l-232 831l3 9h406l67 -423l179 423h384zM935 1240l-509 -203l-102 203l428 313l198 -272z" />
    <glyph glyph-name="ycircumflex.ss01" horiz-adv-x="1018" 
d="M1097 972l3 -9l-534 -974l-158 -296h-393l-4 7l279 432l-232 831l3 9h406l67 -423l179 423h384zM618 1218l-220 -146l-106 116l267 301h175l199 -296l-138 -121z" />
    <glyph glyph-name="ydieresis.ss01" horiz-adv-x="1018" 
d="M1097 972l3 -9l-534 -974l-158 -296h-393l-4 7l279 432l-232 831l3 9h406l67 -423l179 423h384zM839.5 1072q-87.5 0 -142.5 56t-55 146.5t65.5 152t154 61.5t143 -54t54.5 -145.5t-66 -154t-153.5 -62.5zM384.5 1072q-86.5 0 -142.5 56t-56 146.5t66 152t154 61.5
t142.5 -54t54.5 -145.5t-66 -154t-152.5 -62.5z" />
    <glyph glyph-name="ygrave.ss01" horiz-adv-x="1018" 
d="M1097 972l3 -9l-534 -974l-158 -296h-393l-4 7l279 432l-232 831l3 9h406l67 -423l179 423h384zM791 1044l-512 187l-18 41l190 277l437 -300z" />
    <glyph glyph-name="uni1EF9.ss01" horiz-adv-x="1018" 
d="M1097 972l3 -9l-534 -974l-158 -296h-393l-4 7l279 432l-232 831l3 9h406l67 -423l179 423h384zM512 1450q67 0 127.5 -27.5t94 -27.5t55 17.5t25.5 41.5l7 4l225 -60q-17 -128 -102.5 -207t-189.5 -79q-60 0 -125 29.5t-95 29.5q-65 0 -78 -63l-7 -6l-229 67
q13 110 95.5 195.5t196.5 85.5z" />
    <glyph glyph-name="g.ss02" horiz-adv-x="1025" 
d="M521 732q-96 0 -97 -75q0 -60 96 -59.5t96 74.5q1 60 -95 60zM473 330q-35 0 -50 1q-9 -9 -10 -18q0 -28 88 -45q218 -26 315.5 -88.5t97.5 -181.5q0 -153 -133 -239.5t-403 -86.5t-441 75l37 264l7 4q207 -88 477 -88q68 0 73 6t5 13q0 13 -20.5 16.5t-153.5 16
t-223.5 59t-90.5 146.5q0 128 157 211q-128 82 -128.5 241.5t132 260.5t333.5 101q84 0 152 -22l216 234l203 -231l-204 -149q50 -67 50 -132q0 -175 -132 -271.5t-354 -96.5z" />
    <glyph glyph-name="gbreve.ss02" horiz-adv-x="1025" 
d="M521 732q-96 0 -97 -75q0 -60 96 -59.5t96 74.5q1 60 -95 60zM473 330q-35 0 -50 1q-9 -9 -10 -18q0 -28 88 -45q218 -26 315.5 -88.5t97.5 -181.5q0 -153 -133 -239.5t-403 -86.5t-441 75l37 264l7 4q207 -88 477 -88q68 0 73 6t5 13q0 13 -20.5 16.5t-153.5 16
t-223.5 59t-90.5 146.5q0 128 157 211q-128 82 -128.5 241.5t132 260.5t333.5 101q84 0 152 -22l216 234l203 -231l-204 -149q50 -67 50 -132q0 -175 -132 -271.5t-354 -96.5zM556.5 1104q-145.5 0 -228 89.5t-58.5 241.5l216 25l11 -8q-4 -47 19.5 -78.5t71.5 -31.5
q84 0 121 110l8 6l199 -23q-24 -158 -119 -244.5t-240.5 -86.5z" />
    <glyph glyph-name="gcaron.ss02" horiz-adv-x="1025" 
d="M521 732q-96 0 -97 -75q0 -60 96 -59.5t96 74.5q1 60 -95 60zM473 330q-35 0 -50 1q-9 -9 -10 -18q0 -28 88 -45q218 -26 315.5 -88.5t97.5 -181.5q0 -153 -133 -239.5t-403 -86.5t-441 75l37 264l7 4q207 -88 477 -88q68 0 73 6t5 13q0 13 -20.5 16.5t-153.5 16
t-223.5 59t-90.5 146.5q0 128 157 211q-128 82 -128.5 241.5t132 260.5t333.5 101q84 0 152 -22l216 234l203 -231l-204 -149q50 -67 50 -132q0 -175 -132 -271.5t-354 -96.5zM633 1098h-177l-192 304l134 114l188 -146l216 146l101 -114z" />
    <glyph glyph-name="gcircumflex.ss02" horiz-adv-x="1025" 
d="M521 732q-96 0 -97 -75q0 -60 96 -59.5t96 74.5q1 60 -95 60zM473 330q-35 0 -50 1q-9 -9 -10 -18q0 -28 88 -45q218 -26 315.5 -88.5t97.5 -181.5q0 -153 -133 -239.5t-403 -86.5t-441 75l37 264l7 4q207 -88 477 -88q68 0 73 6t5 13q0 13 -20.5 16.5t-153.5 16
t-223.5 59t-90.5 146.5q0 128 157 211q-128 82 -128.5 241.5t132 260.5t333.5 101q84 0 152 -22l216 234l203 -231l-204 -149q50 -67 50 -132q0 -175 -132 -271.5t-354 -96.5zM559 1244l-220 -146l-106 116l266 302h175l199 -297l-138 -121z" />
    <glyph glyph-name="gcommaaccent.ss02" horiz-adv-x="1025" 
d="M531 732q-104 0 -105 -88q0 -56 82 -56q102 0 103 84q0 60 -80 60zM477 330q-37 0 -56 1q-7 -7 -8 -16q0 -20 43 -29.5t192 -24.5q266 -28 266 -241q0 -348 -529 -348q-296 0 -448 75l37 266l7 2q207 -88 432 -88q88 0 105.5 3t17.5 16t-152 25t-244 56t-92 135
q0 141 157 231q-129 76 -129 238t136 264.5t358 102.5q78 0 132 -13l208 225l203 -231l-190 -137q35 -58 36 -138q0 -175 -131 -274.5t-351 -99.5zM693 1093l-282 -22l-18 41q28 203 169 377h205q-56 -188 -65 -249t-9 -147z" />
    <glyph glyph-name="gdotaccent.ss02" horiz-adv-x="1025" 
d="M521 732q-96 0 -97 -75q0 -60 96 -59.5t96 74.5q1 60 -95 60zM473 330q-35 0 -50 1q-9 -9 -10 -18q0 -28 88 -45q218 -26 315.5 -88.5t97.5 -181.5q0 -153 -133 -239.5t-403 -86.5t-441 75l37 264l7 4q207 -88 477 -88q68 0 73 6t5 13q0 13 -20.5 16.5t-153.5 16
t-223.5 59t-90.5 146.5q0 128 157 211q-128 82 -128.5 241.5t132 260.5t333.5 101q84 0 152 -22l216 234l203 -231l-204 -149q50 -67 50 -132q0 -175 -132 -271.5t-354 -96.5zM558 1087q-92 0 -151 59t-59 153.5t70 161t163 66.5t150.5 -59t57.5 -153.5t-69.5 -161
t-161.5 -66.5z" />
    <glyph glyph-name="f_t" horiz-adv-x="1530" 
d="M1223 400q0 -73 103 -72q41 0 102 20l7 -4l-42 -320q-74 -37 -200 -37q-177 0 -271.5 80t-94.5 236q0 35 5 82l30 205h-290l-133 -897h-383l130 897h-125l40 300h130v2q32 214 168.5 338t330.5 124q91 0 151 -17l-45 -333l-7 -4q-35 13 -82 13q-110 0 -131 -123h289
l35 248l387 70l8 -3l-45 -315h227l-37 -300h-233l-9 -59q-15 -91 -15 -131z" />
    <glyph glyph-name="f_y" horiz-adv-x="1722" 
d="M827 -320q-84 0 -134 20l41 306l9 3q20 -7 67.5 -7t80 5.5t69 30.5t57.5 70l-144 482h-292l-132 -897h-384l130 897h-134l40 300h139v2q32 214 168 338t327 124q99 0 155 -17l-45 -333l-7 -4q-35 13 -84 13q-108 0 -128 -123h571l54 -311l157 393h389l3 -9l-454 -881
q-117 -233 -223 -317.5t-296 -84.5z" />
    <glyph glyph-name="t_t" horiz-adv-x="1575" 
d="M1270 400q0 -73 102 -72q45 0 106 20l4 -2l-43 -322q-74 -37 -199 -37q-177 0 -273 80t-96 236q0 39 8 82l41 287h-356l-20 -141q-15 -105 -15 -131q0 -73 102 -72q47 0 108 20l4 -2l-43 -322q-74 -37 -201 -37q-177 0 -272 80t-95 236q0 35 6 82l41 287h-136l45 300h134
l31 223l393 73l2 -6l-41 -290h354l31 223l395 73l2 -6l-41 -290h225l-35 -300h-233l-20 -141q-15 -91 -15 -131z" />
    <glyph glyph-name="L_periodcentered_L.loclCAT" horiz-adv-x="1904" 
d="M837 903q97 0 143 -46q46 -47 46 -127t-58 -141t-157 -61q-189 2 -187 168q0 80 57 144q58 63 156 63zM1439 315h421l-47 -315h-798l177 1247h379zM605 1247l-136 -932h421l-45 -315h-800l178 1247h382z" />
    <glyph glyph-name="l_periodcentered_l.loclCAT" horiz-adv-x="1601" 
d="M763 486q-186 0 -186 166q0 80 58 142t156.5 62t144 -46.5t45.5 -126t-59.5 -138.5t-158.5 -59zM1342 -20q-168 0 -263.5 90t-67.5 287l140 980h385l-128 -890q-19 -128 61 -129q32 0 76 6l4 -2l-47 -326q-76 -16 -160 -16zM397 -20q-168 0 -262 90t-66 287l140 980h381
l-128 -890q-19 -128 65 -129q28 0 73 6l3 -2l-44 -326q-76 -16 -162 -16z" />
    <glyph glyph-name="l_periodcentered_l.loclCAT.ss01" horiz-adv-x="1522" 
d="M784 486q-192 0 -192 168q0 80 58.5 141t156.5 61t144.5 -47.5t46.5 -128t-57 -137.5t-157 -57zM970 0l190 1337h383l-189 -1337h-384zM26 0l190 1337h384l-190 -1337h-384z" />
    <glyph glyph-name="germandbls.smcp.calt" horiz-adv-x="1262" 
d="M754 -20q-147 0 -287 48l41 283l10 2q91 -76 216 -77q101 0 100 94q0 63 -60.5 63t-136.5 -15v106l115 199q-4 9 -52 10q-209 0 -238 -200l-71 -493h-385l82 557q18 114 70 200q94 155 285 221q155 54 312 53.5t271.5 -22.5t163.5 -56v-108l-136 -227
q140 -43 139.5 -233.5t-112 -297.5t-327.5 -107z" />
    <glyph glyph-name="a.smcp" horiz-adv-x="1115" 
d="M600 369l-32 270l-104 -270h136zM652 0l-23 162h-257l-72 -162h-378l512 998h380l251 -998h-413z" />
    <glyph glyph-name="aacute.smcp" horiz-adv-x="1115" 
d="M600 369l-32 270l-104 -270h136zM652 0l-23 162h-257l-72 -162h-378l512 998h380l251 -998h-413zM981 1266l-508 -203l-102 203l428 313l197 -272z" />
    <glyph glyph-name="abreve.smcp" horiz-adv-x="1115" 
d="M600 369l-32 270l-104 -270h136zM652 0l-23 162h-257l-72 -162h-378l512 998h380l251 -998h-413zM662.5 1104q-145.5 0 -228 89.5t-58.5 241.5l216 25l11 -8q-4 -47 19.5 -78.5t71.5 -31.5q84 0 121 110l8 6l199 -23q-24 -158 -119 -244.5t-240.5 -86.5z" />
    <glyph glyph-name="acircumflex.smcp" horiz-adv-x="1115" 
d="M600 369l-32 270l-104 -270h136zM652 0l-23 162h-257l-72 -162h-378l512 998h380l251 -998h-413zM665 1244l-220 -146l-106 116l266 302h175l199 -297l-137 -121z" />
    <glyph glyph-name="adieresis.smcp" horiz-adv-x="1115" 
d="M600 369l-32 270l-104 -270h136zM434 998h380l251 -998h-413l-23 162h-257l-72 -162h-378zM886.5 1098q-86.5 0 -142 56t-55.5 146.5t65 152t153.5 61.5t143.5 -54t55 -145.5t-66.5 -154t-153 -62.5zM429.5 1098q-87.5 0 -142 56t-54.5 146.5t66 152t153.5 61.5
t142.5 -54t55 -145.5t-66.5 -154t-154 -62.5z" />
    <glyph glyph-name="uni1EA1.smcp" horiz-adv-x="1115" 
d="M464 -106q92 0 151 -58.5t59 -153.5t-71 -161.5t-163.5 -66.5t-150.5 59t-58 153.5t70.5 161t162.5 66.5zM464 369h136l-32 270zM372 162l-72 -162h-378l512 998h380l251 -998h-413l-23 162h-257z" />
    <glyph glyph-name="agrave.smcp" horiz-adv-x="1115" 
d="M600 369l-32 270l-104 -270h136zM652 0l-23 162h-257l-72 -162h-378l512 998h380l251 -998h-413zM838 1071l-512 186l-19 41l190 277l438 -300z" />
    <glyph glyph-name="amacron.smcp" horiz-adv-x="1115" 
d="M600 369l-32 270l-104 -270h136zM652 0l-23 162h-257l-72 -162h-378l512 998h380l251 -998h-413zM979 1376l-33 -216h-583l32 216h584z" />
    <glyph glyph-name="aogonek.smcp" horiz-adv-x="1115" 
d="M600 369l-32 270l-104 -270h136zM860 -276q32 0 54 8l9 -9l-22 -170q-65 -15 -155 -15t-157.5 43t-67.5 127q0 160 226 292h-95l-23 162h-257l-72 -162h-378l512 998h380l251 -998h-101q-169 -89 -169 -201q0 -75 65 -75z" />
    <glyph glyph-name="aring.smcp" horiz-adv-x="1115" 
d="M600 369l-32 270l-104 -270h136zM652 0l-23 162h-257l-72 -162h-378l512 998h380l251 -998h-413zM692.5 1398q-35.5 0 -62.5 -25t-27 -62.5t20.5 -57.5t56 -20t62.5 25t27 62t-20.5 57.5t-56 20.5zM666.5 1058q-115.5 0 -178 64t-62.5 178.5t80 192.5t195 78t178 -64
t63 -179.5t-80 -192.5t-195.5 -77z" />
    <glyph glyph-name="aringacute.smcp" horiz-adv-x="1115" 
d="M600 369l-32 270l-104 -270h136zM434 998h380l251 -998h-413l-23 162h-257l-72 -162h-378zM679.5 1233q35.5 0 62.5 25t27 62t-20.5 57.5t-56 20.5t-62.5 -25t-27 -62.5t20.5 -57.5t56 -20zM942 1337q0 -125 -80 -202t-195.5 -77t-178 64t-62.5 178.5t80 192.5t198 78
q39 0 76 -9l345 251l197 -271l-15 -41l-365 -146v-18z" />
    <glyph glyph-name="atilde.smcp" horiz-adv-x="1115" 
d="M600 369l-32 270l-104 -270h136zM434 998h380l251 -998h-413l-23 162h-257l-72 -162h-378zM559 1476q67 0 127.5 -27.5t93 -27.5t54.5 17.5t26 41.5l8 4l225 -60q-17 -128 -102.5 -207t-189.5 -79q-60 0 -125 29.5t-95 29.5q-65 0 -78 -63l-8 -6l-229 67q13 110 96 195.5
t197 85.5z" />
    <glyph glyph-name="ae.smcp" horiz-adv-x="1515" 
d="M523 391h149l45 335h-6zM-101 0l619 1000h975l-35 -268h-386l-14 -106h353l-37 -242h-346l-17 -116h382l-34 -268h-737l22 184h-255l-112 -184h-378z" />
    <glyph glyph-name="aeacute.smcp" horiz-adv-x="1515" 
d="M523 391h149l45 335h-6zM-101 0l619 1000h975l-35 -268h-386l-14 -106h353l-37 -242h-346l-17 -116h382l-34 -268h-737l22 184h-255l-112 -184h-378zM836 1065l-102 203l428 313l197 -272l-15 -41z" />
    <glyph glyph-name="b.smcp" horiz-adv-x="1035" 
d="M492 214q124 0 124 116q0 88 -93 87h-72l-28 -199q30 -4 69 -4zM540 611q108 0 108 110q0 69 -78 68q-41 0 -73 -5l-22 -173h65zM423 -13q-177 0 -395 13l130 996q212 30 409.5 30t308.5 -57t111 -194q0 -173 -140 -261q117 -60 117 -186q0 -184 -130 -262.5t-411 -78.5z
" />
    <glyph glyph-name="c.smcp" horiz-adv-x="912" 
d="M536 -26q-229 0 -362 120t-133 338q0 272 171.5 432t461.5 160q147 0 236 -32l-42 -320l-8 -4q-76 30 -184 30t-166.5 -64t-58.5 -150q0 -181 201 -181q78 0 156 40l7 -2l-46 -334q-86 -33 -233 -33z" />
    <glyph glyph-name="cacute.smcp" horiz-adv-x="912" 
d="M536 -26q-229 0 -362 120t-133 338q0 272 171.5 432t461.5 160q147 0 236 -32l-42 -320l-8 -4q-76 30 -184 30t-166.5 -64t-58.5 -150q0 -181 201 -181q78 0 156 40l7 -2l-46 -334q-86 -33 -233 -33zM434 1063l-103 203l429 313l197 -272l-15 -41z" />
    <glyph glyph-name="ccaron.smcp" horiz-adv-x="912" 
d="M536 -26q-229 0 -362 120t-133 338q0 272 171.5 432t461.5 160q147 0 236 -32l-42 -320l-8 -4q-76 30 -184 30t-166.5 -64t-58.5 -150q0 -181 201 -181q78 0 156 40l7 -2l-46 -334q-86 -33 -233 -33zM523 1098l-192 304l134 114l188 -146l216 146l101 -114l-270 -304
h-177z" />
    <glyph glyph-name="ccedilla.smcp" horiz-adv-x="912" 
d="M41 432q0 272 171.5 432t461.5 160q147 0 236 -32l-42 -320l-8 -4q-76 30 -184 30t-166.5 -64t-58.5 -150q0 -181 201 -181q78 0 156 40l7 -2l-46 -334q-69 -28 -201 -33l-50 -47q9 0 28 -3q153 -19 152 -153q0 -235 -329 -235q-82 0 -123 12l18 137l6 2q37 -13 67 -13
q99 0 99 73q0 47 -62 46l-52 -2l-5 2l18 129l58 65q-166 35 -259 149.5t-93 295.5z" />
    <glyph glyph-name="ccircumflex.smcp" horiz-adv-x="912" 
d="M536 -26q-229 0 -362 120t-133 338q0 272 171.5 432t461.5 160q147 0 236 -32l-42 -320l-8 -4q-76 30 -184 30t-166.5 -64t-58.5 -150q0 -181 201 -181q78 0 156 40l7 -2l-46 -334q-86 -33 -233 -33zM406 1098l-106 116l266 302h175l199 -297l-138 -121l-176 146z" />
    <glyph glyph-name="cdotaccent.smcp" horiz-adv-x="912" 
d="M536 -26q-229 0 -362 120t-133 338q0 272 171.5 432t461.5 160q147 0 236 -32l-42 -320l-8 -4q-76 30 -184 30t-166.5 -64t-58.5 -150q0 -181 201 -181q78 0 156 40l7 -2l-46 -334q-86 -33 -233 -33zM625 1087q-92 0 -151 59t-59 153.5t70 161t163 66.5t150.5 -59
t57.5 -153.5t-69.5 -161t-161.5 -66.5z" />
    <glyph glyph-name="d.smcp" horiz-adv-x="1152" 
d="M497 307q104 0 159 60.5t55 156.5q0 174 -151 174q-30 0 -57 -5l-51 -384q21 -2 45 -2zM575 1013q257 0 396 -112t139 -329q0 -266 -170.5 -422t-461.5 -156q-346 0 -441 6l131 996q5 5 158.5 11t248.5 6z" />
    <glyph glyph-name="eth.smcp" horiz-adv-x="1152" 
d="M497 307q104 0 159 60.5t55 156.5q0 174 -151 174q-30 0 -57 -5l-10 -79h157l-30 -219h-156l-12 -86q21 -2 45 -2zM575 1013q257 0 396 -112t139 -329q0 -266 -170.5 -422t-461.5 -156q-346 0 -441 6l52 395h-145l30 219h143l51 382q5 5 158.5 11t248.5 6z" />
    <glyph glyph-name="dcaron.smcp" horiz-adv-x="1152" 
d="M497 307q104 0 159 60.5t55 156.5q0 174 -151 174q-30 0 -57 -5l-51 -384q21 -2 45 -2zM575 1013q257 0 396 -112t139 -329q0 -266 -170.5 -422t-461.5 -156q-346 0 -441 6l131 996q5 5 158.5 11t248.5 6zM713 1098h-177l-192 304l134 114l189 -146l216 146l100 -114z
" />
    <glyph glyph-name="dcroat.smcp" horiz-adv-x="1152" 
d="M497 307q104 0 159 60.5t55 156.5q0 174 -151 174q-30 0 -57 -5l-10 -79h157l-30 -219h-156l-12 -86q21 -2 45 -2zM575 1013q257 0 396 -112t139 -329q0 -266 -170.5 -422t-461.5 -156q-346 0 -441 6l52 395h-145l30 219h143l51 382q5 5 158.5 11t248.5 6z" />
    <glyph glyph-name="e.smcp" horiz-adv-x="902" 
d="M35 0l133 998h726l-36 -266h-378l-13 -106h348l-37 -239h-342l-17 -121h378l-37 -266h-725z" />
    <glyph glyph-name="eacute.smcp" horiz-adv-x="902" 
d="M35 0l133 998h726l-36 -266h-378l-13 -106h348l-37 -239h-342l-17 -121h378l-37 -266h-725zM374 1063l-102 203l428 313l197 -272l-14 -41z" />
    <glyph glyph-name="ebreve.smcp" horiz-adv-x="902" 
d="M35 0l133 998h726l-36 -266h-378l-13 -106h348l-37 -239h-342l-17 -121h378l-37 -266h-725zM564.5 1104q-145.5 0 -228.5 89.5t-59 241.5l216 25l12 -8q-4 -47 19 -78.5t72 -31.5q84 0 121 110l7 6l199 -23q-24 -158 -118.5 -244.5t-240 -86.5z" />
    <glyph glyph-name="ecaron.smcp" horiz-adv-x="902" 
d="M35 0l133 998h726l-36 -266h-378l-13 -106h348l-37 -239h-342l-17 -121h378l-37 -266h-725zM464 1098l-192 304l134 114l188 -146l216 146l100 -114l-270 -304h-176z" />
    <glyph glyph-name="ecircumflex.smcp" horiz-adv-x="902" 
d="M35 0l133 998h726l-36 -266h-378l-13 -106h348l-37 -239h-342l-17 -121h378l-37 -266h-725zM346 1098l-106 116l266 302h175l200 -297l-138 -121l-177 146z" />
    <glyph glyph-name="edieresis.smcp" horiz-adv-x="902" 
d="M35 0l133 998h726l-36 -266h-378l-13 -106h348l-37 -239h-342l-17 -121h378l-37 -266h-725zM787.5 1098q-87.5 0 -142.5 56t-55 146.5t65.5 152t154 61.5t143 -54t54.5 -145.5t-66 -154t-153.5 -62.5zM332.5 1098q-86.5 0 -142.5 56t-56 146.5t66 152t154 61.5t142.5 -54
t54.5 -145.5t-66 -154t-152.5 -62.5z" />
    <glyph glyph-name="edotaccent.smcp" horiz-adv-x="902" 
d="M35 0l133 998h726l-36 -266h-378l-13 -106h348l-37 -239h-342l-17 -121h378l-37 -266h-725zM565 1087q-92 0 -150.5 59t-58.5 153.5t69.5 161t162.5 66.5t151 -59t58 -153.5t-70 -161t-162 -66.5z" />
    <glyph glyph-name="uni1EB9.smcp" horiz-adv-x="902" 
d="M375 -546q-92 0 -150.5 59t-58.5 153.5t70.5 161t162.5 66.5t151 -58.5t59 -153.5t-71 -161.5t-163 -66.5zM35 0l133 998h726l-36 -266h-378l-13 -106h348l-37 -239h-342l-17 -121h378l-37 -266h-725z" />
    <glyph glyph-name="egrave.smcp" horiz-adv-x="902" 
d="M35 0l133 998h726l-36 -266h-378l-13 -106h348l-37 -239h-342l-17 -121h378l-37 -266h-725zM739 1071l-512 186l-18 41l189 277l438 -300z" />
    <glyph glyph-name="emacron.smcp" horiz-adv-x="902" 
d="M35 0l133 998h726l-36 -266h-378l-13 -106h348l-37 -239h-342l-17 -121h378l-37 -266h-725zM264 1160l32 216h585l-34 -216h-583z" />
    <glyph glyph-name="eogonek.smcp" horiz-adv-x="902" 
d="M575 -207q0 -74 65 -74q32 0 54 7l10 -9l-23 -169q-65 -15 -154 -15t-157 42.5t-68 126.5q0 162 234 298h-501l133 998h726l-36 -266h-378l-13 -106h348l-37 -239h-342l-17 -121h378l-37 -266h-4q-181 -93 -181 -207z" />
    <glyph glyph-name="uni1EBD.smcp" horiz-adv-x="902" 
d="M35 0l133 998h726l-36 -266h-378l-13 -106h348l-37 -239h-342l-17 -121h378l-37 -266h-725zM460 1476q67 0 127.5 -27.5t94 -27.5t55 17.5t24.5 41.5l8 4l225 -60q-17 -128 -102.5 -207t-189.5 -79q-60 0 -125 29.5t-95 29.5q-65 0 -78 -63l-7 -6l-229 67
q13 110 95.5 195.5t196.5 85.5z" />
    <glyph glyph-name="uni0259.smcp" horiz-adv-x="1098" 
d="M514 287q102 0 128 123l-223 1v-5q0 -69 24 -94t71 -25zM1056 551q0 -259 -156.5 -420t-426.5 -161q-190 0 -309 103.5t-119 300.5q0 93 22 216v11l581 2q-11 58 -44.5 75.5t-108.5 17.5q-181 0 -340 -48l-8 4l43 296q158 70 361 70t345 -98q160 -110 160 -369z" />
    <glyph glyph-name="f.smcp" horiz-adv-x="886" 
d="M35 0l133 998h737l-43 -333h-359l-21 -151h294l-41 -287l-288 2l-34 -229h-378z" />
    <glyph glyph-name="g.smcp" horiz-adv-x="1048" 
d="M726.5 707q-143.5 0 -217 -71.5t-73.5 -190.5q0 -158 182 -168l35 241h323l-71 -498q-166 -45 -337 -44q-231 0 -380 106t-149 331q0 298 200 455.5t508 157.5q82 0 169.5 -11t111.5 -25l-49 -322l-7 -1q-102 40 -245.5 40z" />
    <glyph glyph-name="gbreve.smcp" horiz-adv-x="1048" 
d="M39 413q0 298 200 455.5t508 157.5q82 0 169.5 -11t111.5 -25l-49 -322l-7 -1q-102 41 -245.5 40.5t-217 -72t-73.5 -190.5q0 -158 182 -168l35 241h323l-71 -498q-166 -45 -337 -44q-231 0 -380 106t-149 331zM681.5 1104q-145.5 0 -228 89.5t-58.5 241.5l216 25l11 -8
q-4 -47 19.5 -78.5t71.5 -31.5q84 0 121 110l8 6l199 -23q-24 -158 -119 -244.5t-240.5 -86.5z" />
    <glyph glyph-name="gcaron.smcp" horiz-adv-x="1048" 
d="M39 413q0 298 200 455.5t508 157.5q82 0 169.5 -11t111.5 -25l-49 -322l-7 -1q-102 41 -246 41t-217 -72t-73 -191q0 -158 182 -168l35 241h323l-71 -498q-166 -45 -337 -44q-231 0 -380 106t-149 331zM758 1098h-177l-192 304l134 114l188 -146l216 146l101 -114z" />
    <glyph glyph-name="gcircumflex.smcp" horiz-adv-x="1048" 
d="M726.5 707q-143.5 0 -217 -71.5t-73.5 -190.5q0 -158 182 -168l35 241h323l-71 -498q-166 -45 -337 -44q-231 0 -380 106t-149 331q0 298 200 455.5t508 157.5q82 0 169.5 -11t111.5 -25l-49 -322l-7 -1q-102 40 -245.5 40zM683 1244l-219 -146l-107 116l267 302h175
l199 -297l-138 -121z" />
    <glyph glyph-name="gcommaaccent.smcp" horiz-adv-x="1048" 
d="M363 -95l279 22l19 -41q-28 -203 -169 -378h-203q56 188 63 236.5t11 160.5zM726.5 707q-143.5 0 -217 -71.5t-73.5 -190.5q0 -158 182 -168l35 241h323l-71 -498q-166 -45 -337 -44q-231 0 -380 106t-149 331q0 298 200 455.5t508 157.5q82 0 169.5 -11t111.5 -25
l-49 -322l-7 -1q-102 40 -245.5 40z" />
    <glyph glyph-name="gdotaccent.smcp" horiz-adv-x="1048" 
d="M726.5 707q-143.5 0 -217 -71.5t-73.5 -190.5q0 -158 182 -168l35 241h323l-71 -498q-166 -45 -337 -44q-231 0 -380 106t-149 331q0 298 200 455.5t508 157.5q82 0 169.5 -11t111.5 -25l-49 -322l-7 -1q-102 40 -245.5 40zM683 1087q-92 0 -151 59t-59 153.5t70 161
t162.5 66.5t150.5 -59t58 -153.5t-69.5 -161t-161.5 -66.5z" />
    <glyph glyph-name="h.smcp" horiz-adv-x="1195" 
d="M775 998h383l-130 -998h-384l45 335h-235l-44 -335h-384l130 998h384l-45 -335h235z" />
    <glyph glyph-name="hbar.smcp" horiz-adv-x="1195" 
d="M730 663l7 52h-234l-8 -52h235zM1262 938l-28 -223h-113l-93 -715h-384l45 335h-235l-44 -335h-384l93 715h-95l26 223h99l7 60h384l-8 -60h235l8 60h383l-7 -60h111z" />
    <glyph glyph-name="hcircumflex.smcp" horiz-adv-x="1195" 
d="M775 998h383l-130 -998h-384l45 335h-235l-44 -335h-384l130 998h384l-45 -335h235zM676 1244l-220 -146l-106 116l266 302h175l199 -297l-137 -121z" />
    <glyph glyph-name="i.smcp" horiz-adv-x="577" 
d="M26 0l130 998h384l-130 -998h-384z" />
    <glyph glyph-name="dotlessi.smcp" horiz-adv-x="577" 
d="M26 0l130 998h384l-130 -998h-384z" />
    <glyph glyph-name="iacute.smcp" horiz-adv-x="577" 
d="M26 0l130 998h384l-130 -998h-384zM199 1065l-102 203l428 313l197 -272l-15 -41z" />
    <glyph glyph-name="ibreve.smcp" horiz-adv-x="577" 
d="M26 0l130 998h384l-130 -998h-384zM394.5 1106q-145.5 0 -228 89.5t-58.5 241.5l216 25l11 -8q-4 -47 19.5 -78.5t71.5 -31.5q84 0 121 110l8 6l199 -23q-24 -158 -119 -244.5t-240.5 -86.5z" />
    <glyph glyph-name="icircumflex.smcp" horiz-adv-x="577" 
d="M26 0l130 998h384l-130 -998h-384zM171 1100l-106 116l266 301h175l200 -296l-138 -121l-177 146z" />
    <glyph glyph-name="idieresis.smcp" horiz-adv-x="577" 
d="M26 0l130 998h384l-130 -998h-384zM612.5 1100q-87.5 0 -142.5 55t-55 146.5t65.5 153t154 61.5t143 -54t54.5 -145.5t-66 -154t-153.5 -62.5zM157.5 1100q-86.5 0 -142.5 55t-56 146.5t66 153t154 61.5t142.5 -54t54.5 -145.5t-66 -154t-152.5 -62.5z" />
    <glyph glyph-name="i.loclTRK.smcp" horiz-adv-x="577" 
d="M26 0l130 998h384l-130 -998h-384zM390 1089q-92 0 -150.5 58.5t-58.5 153.5t69.5 161.5t162.5 66.5t151 -59t58 -153.5t-70 -161t-162 -66.5z" />
    <glyph glyph-name="uni1ECB.smcp" horiz-adv-x="577" 
d="M164 -546q-93 0 -151 59t-58 153.5t71 161t163 66.5t150.5 -58.5t58.5 -153.5t-70.5 -161.5t-163.5 -66.5zM26 0l130 998h384l-130 -998h-384z" />
    <glyph glyph-name="igrave.smcp" horiz-adv-x="577" 
d="M26 0l130 998h384l-130 -998h-384zM570 1072l-512 187l-19 41l190 277l438 -300z" />
    <glyph glyph-name="ij.smcp" horiz-adv-x="1290" 
d="M704 0q-63 0 -160 13l46 331l8 4q22 -7 80 -7q118 0 139 156l62 501h389l-76 -592q-28 -212 -147 -309t-341 -97zM26 0l130 998h384l-130 -998h-384z" />
    <glyph glyph-name="imacron.smcp" horiz-adv-x="577" 
d="M26 0l140 1000h385l-141 -1000h-384zM76 1162l30 216h601l-27 -216h-604z" />
    <glyph glyph-name="iogonek.smcp" horiz-adv-x="577" 
d="M214 -186q0 -74 65 -75q32 0 54 8l10 -10l-23 -169q-65 -15 -154.5 -15t-157.5 43t-68 127q0 149 201 277h-115l130 998h384l-130 -998h-53q-143 -86 -143 -186z" />
    <glyph glyph-name="itilde.smcp" horiz-adv-x="577" 
d="M26 0l142 1000h383l-141 -1000h-384zM333 1480q45 0 98 -26t76 -26t41 18.5t24 42.5l5 4l192 -59q-19 -132 -98 -210.5t-178 -78.5q-39 0 -94 26t-75 26t-38 -18.5t-22 -42.5l-9 -6l-188 62q15 112 88.5 200t177.5 88z" />
    <glyph glyph-name="j.smcp" horiz-adv-x="713" 
d="M127 0q-63 0 -161 13l47 331l7 4q22 -7 81 -7q118 0 139 156l62 501h389l-77 -592q-28 -212 -146.5 -309t-340.5 -97z" />
    <glyph glyph-name="jacute.smcp" horiz-adv-x="713" 
d="M127 0q-63 0 -161 13l47 331l7 4q22 -7 81 -7q118 0 139 156l62 501h389l-77 -592q-28 -212 -146.5 -309t-340.5 -97zM330 1063l-103 203l428 313l198 -272l-15 -41z" />
    <glyph glyph-name="jcircumflex.smcp" horiz-adv-x="713" 
d="M127 0q-63 0 -161 13l47 331l7 4q22 -7 81 -7q118 0 139 156l62 501h389l-77 -592q-28 -212 -146.5 -309t-340.5 -97zM302 1098l-107 116l267 302h175l199 -297l-138 -121l-177 146z" />
    <glyph glyph-name="k.smcp" horiz-adv-x="1158" 
d="M1206 990l-351 -498l225 -485l-6 -7h-422l-181 438l-61 -438h-384l142 998h383l-65 -456l316 456h401z" />
    <glyph glyph-name="kcommaaccent.smcp" horiz-adv-x="1158" 
d="M344 -95l280 22l18 -41q-28 -203 -169 -378h-203q56 188 63 236t11 161zM1206 990l-351 -498l225 -485l-6 -7h-422l-181 438l-61 -438h-384l142 998h383l-65 -456l316 456h401z" />
    <glyph glyph-name="kgreenlandic.smcp" horiz-adv-x="1158" 
d="M1206 990l-351 -498l225 -485l-6 -7h-422l-181 438l-61 -438h-384l142 998h383l-65 -456l316 456h401z" />
    <glyph glyph-name="l.smcp" horiz-adv-x="865" 
d="M460 335h350l-45 -335h-735l128 998h386z" />
    <glyph glyph-name="lacute.smcp" horiz-adv-x="865" 
d="M460 335h350l-45 -335h-735l128 998h386zM696 1266l-508 -203l-102 203l428 313l197 -272z" />
    <glyph glyph-name="lcaron.smcp" horiz-adv-x="865" 
d="M460 335h350l-45 -335h-735l128 998h386zM454 1098h-177l-191 304l134 114l188 -146l216 146l100 -114z" />
    <glyph glyph-name="lcommaaccent.smcp" horiz-adv-x="865" 
d="M220 -95l279 22l19 -41q-28 -203 -170 -378h-203q55 188 63 236t12 161zM460 335h350l-45 -335h-735l128 998h386z" />
    <glyph glyph-name="ldot.smcp" horiz-adv-x="949" 
d="M796 847q84 0 139 -54q54 -53 54 -141q-1 -88 -65 -149t-150 -61t-138 53q-53 53 -53 143t64 150q65 59 149 59zM544 998l-84 -663h350l-45 -335h-735l128 998h386z" />
    <glyph glyph-name="l_periodcentered_l.loclCAT.smcp" horiz-adv-x="1800" 
d="M796.5 847q84.5 0 138.5 -54t54 -141.5t-64.5 -149t-150 -61.5t-138.5 54t-53 143.5t64.5 149t149 59.5zM1395 335h350l-45 -335h-736l129 998h385zM544 998l-84 -663h350l-45 -335h-735l128 998h386z" />
    <glyph glyph-name="lslash.smcp" horiz-adv-x="865" 
d="M460 335h350l-45 -335h-735l35 276l-115 -71h-11l37 255l123 74l59 464h386l-26 -207l130 80h11l-37 -255l-138 -84z" />
    <glyph glyph-name="m.smcp" horiz-adv-x="1347" 
d="M-19 0l239 998h206l244 -479l343 479h225l-2 -998h-344l7 356h-2l-230 -330h-120l-162 315l-67 -341h-337z" />
    <glyph glyph-name="n.smcp" horiz-adv-x="1156" 
d="M30 0l132 998h199l348 -406l52 406h362l-133 -998h-191l-352 410l-54 -410h-363z" />
    <glyph glyph-name="nacute.smcp" horiz-adv-x="1156" 
d="M30 0l132 998h199l348 -406l52 406h362l-133 -998h-191l-352 410l-54 -410h-363zM467 1063l-102 203l428 313l197 -272l-14 -41z" />
    <glyph glyph-name="napostrophe.smcp" horiz-adv-x="1437" 
d="M313 0l132 998h199l348 -406l52 406h362l-133 -998h-191l-352 410l-54 -410h-363zM28 741q48 171 65 257t35 287l280 50l33 -54q-20 -134 -85.5 -280t-141.5 -260h-186z" />
    <glyph glyph-name="ncaron.smcp" horiz-adv-x="1156" 
d="M30 0l132 998h199l348 -406l52 406h362l-133 -998h-191l-352 410l-54 -410h-363zM557 1098l-192 304l134 114l188 -146l216 146l101 -114l-270 -304h-177z" />
    <glyph glyph-name="ncommaaccent.smcp" horiz-adv-x="1156" 
d="M309 -492q55 188 63 236t12 161l279 22l18 -41q-28 -203 -169 -378h-203zM30 0l132 998h199l348 -406l52 406h362l-133 -998h-191l-352 410l-54 -410h-363z" />
    <glyph glyph-name="eng.smcp" horiz-adv-x="1154" 
d="M1132 998l-145 -1005q-37 -248 -207.5 -345t-431.5 -48l41 316q121 -30 174 9.5t68 137.5l17 112l-196 229l-63 -404h-365l144 998h193l345 -402l57 402h369z" />
    <glyph glyph-name="uni0272.smcp" horiz-adv-x="1156" 
d="M761 998h362l-133 -998h-191l-352 410l-54 -417q-32 -246 -194 -343t-400 -50l43 316q171 -52 195 147l125 935h199l348 -406z" />
    <glyph glyph-name="ntilde.smcp" horiz-adv-x="1156" 
d="M30 0l132 998h199l348 -406l52 406h362l-133 -998h-191l-352 410l-54 -410h-363zM553 1476q67 0 127.5 -27.5t94 -27.5t55 17.5t25.5 41.5l7 4l225 -60q-17 -128 -102.5 -207t-189.5 -79q-60 0 -125 29.5t-95 29.5q-65 0 -78 -63l-7 -6l-229 67q13 110 95.5 195.5
t196.5 85.5z" />
    <glyph glyph-name="o.smcp" horiz-adv-x="1161" 
d="M564 300q76 0 115.5 68t39.5 179q0 151 -118 151q-74 0 -113 -70.5t-39 -182.5q0 -145 115 -145zM562 -24q-239 0 -377 117t-138 358.5t156 405t395 163.5t381 -118t142 -357t-160 -404t-399 -165z" />
    <glyph glyph-name="oacute.smcp" horiz-adv-x="1161" 
d="M564 300q76 0 115.5 68t39.5 179q0 151 -118 151q-74 0 -113 -70.5t-39 -182.5q0 -145 115 -145zM562 -24q-239 0 -377 117t-138 358.5t156 405t395 163.5t381 -118t142 -357t-160 -404t-399 -165zM464 1063l-103 203l428 313l198 -272l-15 -41z" />
    <glyph glyph-name="obreve.smcp" horiz-adv-x="1161" 
d="M564 300q76 0 115.5 68t39.5 179q0 151 -118 151q-74 0 -113 -70.5t-39 -182.5q0 -145 115 -145zM562 -24q-239 0 -377 117t-138 358.5t156 405t395 163.5t381 -118t142 -357t-160 -404t-399 -165zM653.5 1104q-145.5 0 -228 89.5t-58.5 241.5l216 25l11 -8
q-4 -47 19.5 -78.5t71.5 -31.5q84 0 121 110l8 6l199 -23q-24 -158 -119 -244.5t-240.5 -86.5z" />
    <glyph glyph-name="ocircumflex.smcp" horiz-adv-x="1161" 
d="M564 300q76 0 115.5 68t39.5 179q0 151 -118 151q-74 0 -113 -70.5t-39 -182.5q0 -145 115 -145zM562 -24q-239 0 -377 117t-138 358.5t156 405t395 163.5t381 -118t142 -357t-160 -404t-399 -165zM436 1098l-106 116l266 302h175l199 -297l-138 -121l-177 146z" />
    <glyph glyph-name="odieresis.smcp" horiz-adv-x="1161" 
d="M564 300q76 0 115.5 68t39.5 179q0 151 -118 151q-74 0 -113 -70.5t-39 -182.5q0 -145 115 -145zM562 -24q-239 0 -377 117t-138 358.5t156 405t395 163.5t381 -118t142 -357t-160 -404t-399 -165zM876.5 1098q-87.5 0 -142 56t-54.5 146.5t65 152t153.5 61.5t143.5 -54
t55 -145.5t-66.5 -154t-154 -62.5zM421.5 1098q-86.5 0 -142.5 56t-56 146.5t66.5 152t154 61.5t142 -54t54.5 -145.5t-66 -154t-152.5 -62.5z" />
    <glyph glyph-name="uni1ECD.smcp" horiz-adv-x="1161" 
d="M402 -546q-93 0 -150.5 59t-57.5 153.5t70.5 161t162.5 66.5t151 -58.5t59 -153.5t-71 -161.5t-164 -66.5zM564 300q76 0 115.5 68t39.5 179q0 151 -118 151q-74 0 -113 -70.5t-39 -182.5q0 -145 115 -145zM562 -24q-239 0 -377 117t-138 358.5t156 405t395 163.5
t381 -118t142 -357t-160 -404t-399 -165z" />
    <glyph glyph-name="ograve.smcp" horiz-adv-x="1161" 
d="M564 300q76 0 115.5 68t39.5 179q0 151 -118 151q-74 0 -113 -70.5t-39 -182.5q0 -145 115 -145zM562 -24q-239 0 -377 117t-138 358.5t156 405t395 163.5t381 -118t142 -357t-160 -404t-399 -165zM829 1071l-512 186l-19 41l190 277l437 -300z" />
    <glyph glyph-name="ohungarumlaut.smcp" horiz-adv-x="1161" 
d="M564 300q76 0 115.5 68t39.5 179q0 151 -118 151q-74 0 -113 -70.5t-39 -182.5q0 -145 115 -145zM562 -24q-239 0 -377 117t-138 358.5t156 405t395 163.5t381 -118t142 -357t-160 -404t-399 -165zM821 1069l-156 91l193 383l257 -85l-2 -50zM434 1069l-158 91l193 383
l257 -85l-2 -50z" />
    <glyph glyph-name="omacron.smcp" horiz-adv-x="1161" 
d="M564 300q76 0 115.5 68t39.5 179q0 151 -118 151q-74 0 -113 -70.5t-39 -182.5q0 -145 115 -145zM562 -24q-239 0 -377 117t-138 358.5t156 405t395 163.5t381 -118t142 -357t-160 -404t-399 -165zM354 1160l31 216h585l-34 -216h-582z" />
    <glyph glyph-name="uni01EB.smcp" horiz-adv-x="1161" 
d="M601 698q-74 0 -113 -70.5t-39 -182.5q0 -145 115 -145q76 0 115.5 68t39.5 179q-1 151 -118 151zM525 -175.5q0 -82.5 65 -83.5q32 0 54 8l9 -10l-22 -169q-65 -15 -154.5 -15t-157.5 43t-68 126q0 140 175 261q-175 30 -277 143.5t-102 307.5q0 257 156 420.5
t395 163.5t381 -118t142 -346t-133 -386.5t-351 -188.5q-112 -74 -112 -156.5z" />
    <glyph glyph-name="oslash.smcp" horiz-adv-x="1161" 
d="M564 300q76 0 115.5 68t39.5 179q0 151 -118 151q-74 0 -113 -70.5t-39 -182.5q0 -145 115 -145zM546 -24q-104 0 -189 24l-59 -88h-205v30l97 146q-143 123 -143 364t156 404.5t411 163.5q102 0 187 -24l65 99h223v-26l-112 -164q143 -123 143.5 -361t-159.5 -403
t-415 -165z" />
    <glyph glyph-name="oslashacute.smcp" horiz-adv-x="1161" 
d="M564 300q76 0 115.5 68t39.5 179q0 151 -118 151q-74 0 -113 -70.5t-39 -182.5q0 -145 115 -145zM546 -24q-104 0 -189 24l-59 -88h-205v30l97 146q-143 123 -143 364t156 404.5t411 163.5q102 0 187 -24l65 99h223v-26l-112 -164q143 -123 143.5 -361t-159.5 -403
t-415 -165zM922 1240l-509 -203l-102 203l428 313l197 -272z" />
    <glyph glyph-name="otilde.smcp" horiz-adv-x="1161" 
d="M564 300q76 0 115.5 68t39.5 179q0 151 -118 151q-74 0 -113 -70.5t-39 -182.5q0 -145 115 -145zM562 -24q-239 0 -377 117t-138 358.5t156 405t395 163.5t381 -118t142 -357t-160 -404t-399 -165zM549 1476q67 0 127.5 -27.5t94 -27.5t55 17.5t25.5 41.5l7 4l226 -60
q-17 -128 -102.5 -207t-190.5 -79q-60 0 -125 29.5t-94 29.5q-65 0 -79 -63l-7 -6l-229 67q13 110 96 195.5t196 85.5z" />
    <glyph glyph-name="oe.smcp" horiz-adv-x="1617" 
d="M564 300q76 0 115.5 68t39.5 179q0 151 -118 151q-74 0 -113 -70.5t-39 -182.5q0 -145 115 -145zM546 -24q-223 0 -361 117t-138 358.5t156 405t411 163.5q117 0 215 -33h767l-34 -270h-464q13 -41 19 -97h391l-33 -253h-382q-9 -35 -39 -99h458l-37 -268h-753
q-88 -24 -176 -24z" />
    <glyph glyph-name="p.smcp" horiz-adv-x="1027" 
d="M510 471q141 0 142 142q0 56 -29 79t-57.5 23t-55.5 -4l-33 -238q13 -2 33 -2zM1017 626q0 -128 -72 -234q-135 -197 -422 -197q-26 0 -85 4l-28 -199h-384l142 1000q411 32 583 -6q171 -38 231 -166q34 -74 35 -202z" />
    <glyph glyph-name="thorn.smcp" horiz-adv-x="1044" 
d="M499 365q141 0 141 141q0 52 -29 77q-30 24 -55 24t-63 -4l-31 -236q13 -2 37 -2zM1007 531q0 -214 -138 -329t-337 -114q-39 0 -109 3l-13 -91h-384l140 998h383l-13 -93h24q325 -7 412 -187q35 -75 35 -187z" />
    <glyph glyph-name="q.smcp" horiz-adv-x="1189" 
d="M449 445q0 -145 115 -145q76 0 115.5 68t39.5 179q0 151 -118 151q-74 0 -113 -70.5t-39 -182.5zM546 -24q-223 0 -361 117t-138 358.5t156 405t395 163.5t381 -118t142 -345q-1 -285 -198 -451q99 -99 257 -153l-143 -260q-151 41 -252.5 109t-184.5 176q-19 -2 -54 -2z
" />
    <glyph glyph-name="r.smcp" horiz-adv-x="1074" 
d="M525 492q125 0 125 135q0 41 -24.5 65.5t-62.5 24.5t-66 -4l-30 -221h58zM501 1015q158 0 229.5 -13t144.5 -45t114.5 -99t41.5 -162q0 -249 -191 -374l136 -315l-4 -7h-413l-86 222h-45l-33 -222h-371l144 1002q175 13 333 13z" />
    <glyph glyph-name="racute.smcp" horiz-adv-x="1074" 
d="M525 492q125 0 125 135q0 41 -24.5 65.5t-62.5 24.5t-66 -4l-30 -221h58zM501 1015q158 0 229.5 -13t144.5 -45t114.5 -99t41.5 -162q0 -249 -191 -374l136 -315l-4 -7h-413l-86 222h-45l-33 -222h-371l144 1002q175 13 333 13zM424 1063l-102 203l428 313l198 -272
l-15 -41z" />
    <glyph glyph-name="rcaron.smcp" horiz-adv-x="1074" 
d="M525 492q125 0 125 135q0 41 -24.5 65.5t-62.5 24.5t-66 -4l-30 -221h58zM501 1015q158 0 229.5 -13t144.5 -45t114.5 -99t41.5 -162q0 -249 -191 -374l136 -315l-4 -7h-413l-86 222h-45l-33 -222h-371l144 1002q175 13 333 13zM514 1098l-192 304l134 114l188 -146
l216 146l101 -114l-270 -304h-177z" />
    <glyph glyph-name="rcommaaccent.smcp" horiz-adv-x="1074" 
d="M210 -492q56 188 63.5 236.5t11.5 160.5l279 22l19 -41q-28 -203 -170 -378h-203zM525 492q125 0 125 135q0 41 -24.5 65.5t-62.5 24.5t-66 -4l-30 -221h58zM501 1015q158 0 229.5 -13t144.5 -45t114.5 -99t41.5 -162q0 -249 -191 -374l136 -315l-4 -7h-413l-86 222h-45
l-33 -222h-371l144 1002q175 13 333 13z" />
    <glyph glyph-name="s.smcp" horiz-adv-x="869" 
d="M355.5 -26q-193.5 0 -348.5 67l41 290l10 6q128 -104 279 -104q80 0 80 54q0 22 -21.5 40.5t-115.5 61.5q-187 86 -187 261t127.5 275.5t330 100.5t292.5 -52l-39 -302l-7 -2q-82 60 -242 60q-88 0 -88 -37q0 -17 21.5 -31t117.5 -61.5t138 -108t42 -159.5
q0 -164 -118.5 -261.5t-312 -97.5z" />
    <glyph glyph-name="sacute.smcp" horiz-adv-x="869" 
d="M355.5 -26q-193.5 0 -348.5 67l41 290l10 6q128 -104 279 -104q80 0 80 54q0 22 -21.5 40.5t-115.5 61.5q-187 86 -187 261t127.5 275.5t330 100.5t292.5 -52l-39 -302l-7 -2q-82 60 -242 60q-88 0 -88 -37q0 -17 21.5 -31t117.5 -61.5t138 -108t42 -159.5
q0 -164 -118.5 -261.5t-312 -97.5zM343 1063l-103 203l428 313l198 -272l-15 -41z" />
    <glyph glyph-name="scaron.smcp" horiz-adv-x="869" 
d="M355.5 -26q-193.5 0 -348.5 67l41 290l10 6q128 -104 279 -104q80 0 80 54q0 22 -21.5 40.5t-115.5 61.5q-187 86 -187 261t127.5 275.5t330 100.5t292.5 -52l-39 -302l-7 -2q-82 60 -242 60q-88 0 -88 -37q0 -17 21.5 -31t117.5 -61.5t138 -108t42 -159.5
q0 -164 -118.5 -261.5t-312 -97.5zM432 1098l-192 304l134 114l188 -146l216 146l101 -114l-270 -304h-177z" />
    <glyph glyph-name="scedilla.smcp" horiz-adv-x="869" 
d="M337 233q80 0 80 54q0 22 -21.5 40.5t-115.5 61.5q-187 86 -187 261t128 275.5t330 100.5t292 -52l-39 -302l-7 -2q-82 60 -242 60q-88 0 -88 -37q0 -17 21.5 -31t117.5 -61.5t138 -108t42 -159.5q0 -145 -94 -239t-266 -114l-55 -53q9 0 27 -3q153 -19 153 -153
q0 -235 -329 -235q-82 0 -123 12l18 137l6 2q37 -13 67 -13q99 0 99 73q0 47 -62 46l-52 -2l-6 2l19 129l50 56q-117 13 -231 63l41 290l10 6q128 -104 279 -104z" />
    <glyph glyph-name="scircumflex.smcp" horiz-adv-x="869" 
d="M355.5 -26q-193.5 0 -348.5 67l41 290l10 6q128 -104 279 -104q80 0 80 54q0 22 -21.5 40.5t-115.5 61.5q-187 86 -187 261t127.5 275.5t330 100.5t292.5 -52l-39 -302l-7 -2q-82 60 -242 60q-88 0 -88 -37q0 -17 21.5 -31t117.5 -61.5t138 -108t42 -159.5
q0 -164 -118.5 -261.5t-312 -97.5zM315 1098l-106 116l266 302h175l199 -297l-138 -121l-177 146z" />
    <glyph glyph-name="scommaaccent.smcp" horiz-adv-x="869" 
d="M115 -492q56 188 63.5 236.5t11.5 160.5l279 22l19 -41q-28 -203 -170 -378h-203zM355.5 -26q-193.5 0 -348.5 67l41 290l10 6q128 -104 279 -104q80 0 80 54q0 22 -21.5 40.5t-115.5 61.5q-187 86 -187 261t127.5 275.5t330 100.5t292.5 -52l-39 -302l-7 -2
q-82 60 -242 60q-88 0 -88 -37q0 -17 21.5 -31t117.5 -61.5t138 -108t42 -159.5q0 -164 -118.5 -261.5t-312 -97.5z" />
    <glyph glyph-name="germandbls.smcp" horiz-adv-x="1262" 
d="M834 317q0 76 -94 76q-51 0 -103 -13v104l115 199q-4 9 -74.5 9.5t-135.5 -54.5t-80 -145l-71 -493h-385l74 508q19 125 74 222t126.5 152.5t194 102t273.5 46.5t267.5 -22t176.5 -54v-108l-138 -229q141 -69 141 -250.5t-110 -284.5t-306 -103t-308 65l37 266l8 2
q97 -76 208 -77q48 0 79 21.5t31 59.5z" />
    <glyph glyph-name="t.smcp" horiz-adv-x="1029" 
d="M1067 998l-47 -352h-288l-84 -646h-382l84 646h-294l50 352h961z" />
    <glyph glyph-name="tbar.smcp" horiz-adv-x="1029" 
d="M1018 646h-286l-25 -179h135l-34 -219h-128l-32 -248h-382l32 248h-164l32 219h160l24 179h-294l48 352h963z" />
    <glyph glyph-name="tcaron.smcp" horiz-adv-x="1029" 
d="M1067 998l-49 -352h-286l-84 -646h-382l84 646h-294l48 352h963zM698 1097h-177l-195 303l136 114l188 -146l214 146l100 -114z" />
    <glyph glyph-name="uni0163.smcp" horiz-adv-x="1029" 
d="M518 -71q74 0 116 -47t42 -113q0 -233 -330 -233q-82 0 -124 12l16 137l6 2q39 -13 78 -13t58 13t26 45q15 61 -58 61l-52 -2l-4 2l21 129l65 78h-112l84 646h-294l48 352h963l-49 -352h-286l-84 -646h-82l-71 -73q13 2 23 2z" />
    <glyph glyph-name="uni021B.smcp" horiz-adv-x="1029" 
d="M305 -95l280 22l20 -41q-30 -209 -171 -378h-201q45 151 55 230t17 167zM1067 998l-49 -352h-286l-84 -646h-382l84 646h-294l48 352h963z" />
    <glyph glyph-name="u.smcp" horiz-adv-x="1137" 
d="M509.5 -19q-221.5 0 -331 96t-109.5 273q0 30 7 93l79 555h385l-75 -516q-6 -34 -5 -74q0 -97 99 -97q54 0 80 38t39 133l76 516h369l-77 -555q-32 -223 -173.5 -342.5t-363 -119.5z" />
    <glyph glyph-name="uacute.smcp" horiz-adv-x="1137" 
d="M509.5 -19q-221.5 0 -331 96t-109.5 273q0 30 7 93l79 555h385l-75 -516q-6 -34 -5 -74q0 -97 99 -97q54 0 80 38t39 133l76 516h369l-77 -555q-32 -223 -173.5 -342.5t-363 -119.5zM480 1063l-102 203l428 313l198 -272l-15 -41z" />
    <glyph glyph-name="ubreve.smcp" horiz-adv-x="1137" 
d="M509.5 -19q-221.5 0 -331 96t-109.5 273q0 30 7 93l79 555h385l-75 -516q-6 -34 -5 -74q0 -97 99 -97q54 0 80 38t39 133l76 516h369l-77 -555q-32 -223 -173.5 -342.5t-363 -119.5zM670.5 1104q-145.5 0 -228.5 89.5t-58 241.5l216 25l11 -8q-4 -47 19 -78.5t72 -31.5
q84 0 121 110l7 6l200 -23q-24 -158 -119 -244.5t-240.5 -86.5z" />
    <glyph glyph-name="ucircumflex.smcp" horiz-adv-x="1137" 
d="M509.5 -19q-221.5 0 -331 96t-109.5 273q0 30 7 93l79 555h385l-75 -516q-6 -34 -5 -74q0 -97 99 -97q54 0 80 38t39 133l76 516h369l-77 -555q-32 -223 -173.5 -342.5t-363 -119.5zM452 1098l-106 116l267 302h175l199 -297l-138 -121l-177 146z" />
    <glyph glyph-name="udieresis.smcp" horiz-adv-x="1137" 
d="M509.5 -19q-221.5 0 -331 96t-109.5 273q0 30 7 93l79 555h385l-75 -516q-6 -34 -5 -74q0 -97 99 -97q54 0 80 38t39 133l76 516h369l-77 -555q-32 -223 -173.5 -342.5t-363 -119.5zM894.5 1098q-86.5 0 -142.5 56t-56 146.5t65.5 152t154 61.5t143 -54t54.5 -145.5
t-66 -154t-152.5 -62.5zM437.5 1098q-87.5 0 -142.5 56t-55 146.5t66 152t154 61.5t142.5 -54t54.5 -145.5t-66 -154t-153.5 -62.5z" />
    <glyph glyph-name="uni1EE5.smcp" horiz-adv-x="1137" 
d="M443 -546q-93 0 -150.5 59t-57.5 153.5t70.5 161t162.5 66.5t151 -58.5t59 -153.5t-71 -161.5t-164 -66.5zM509.5 -19q-221.5 0 -331 96t-109.5 273q0 30 7 93l79 555h385l-75 -516q-6 -34 -5 -74q0 -97 99 -97q54 0 80 38t39 133l76 516h369l-77 -555
q-32 -223 -173.5 -342.5t-363 -119.5z" />
    <glyph glyph-name="ugrave.smcp" horiz-adv-x="1137" 
d="M509.5 -19q-221.5 0 -331 96t-109.5 273q0 30 7 93l79 555h385l-75 -516q-6 -34 -5 -74q0 -97 99 -97q54 0 80 38t39 133l76 516h369l-77 -555q-32 -223 -173.5 -342.5t-363 -119.5zM845 1071l-512 186l-18 41l190 277l437 -300z" />
    <glyph glyph-name="uhungarumlaut.smcp" horiz-adv-x="1137" 
d="M509.5 -19q-221.5 0 -331 96t-109.5 273q0 30 7 93l79 555h385l-75 -516q-6 -34 -5 -74q0 -97 99 -97q54 0 80 38t39 133l76 516h369l-77 -555q-32 -223 -173.5 -342.5t-363 -119.5zM838 1069l-157 91l194 383l257 -85l-2 -50zM451 1069l-159 91l194 383l257 -85l-2 -50z
" />
    <glyph glyph-name="umacron.smcp" horiz-adv-x="1137" 
d="M509.5 -19q-221.5 0 -331 96t-109.5 273q0 30 7 93l79 555h385l-75 -516q-6 -34 -5 -74q0 -97 99 -97q54 0 80 38t39 133l76 516h369l-77 -555q-32 -223 -173.5 -342.5t-363 -119.5zM371 1160l31 216h585l-34 -216h-582z" />
    <glyph glyph-name="uogonek.smcp" horiz-adv-x="1137" 
d="M549 -184q0 -74 65 -75q32 0 54 8l10 -10l-23 -169q-65 -15 -154 -15t-157 43t-68 126q0 141 171 259q-182 9 -280 104t-98 263q0 30 7 93l79 555h385l-75 -516q-6 -34 -5 -74q0 -97 99 -97q54 0 80 38t39 133l76 516h369l-77 -555q-48 -337 -335 -430
q-162 -91 -162 -197z" />
    <glyph glyph-name="uring.smcp" horiz-adv-x="1137" 
d="M509.5 -19q-221.5 0 -331 96t-109.5 273q0 30 7 93l79 555h385l-75 -516q-6 -34 -5 -74q0 -97 99 -97q54 0 80 38t39 133l76 516h369l-77 -555q-32 -223 -173.5 -342.5t-363 -119.5zM611 1310q-1 -78 75 -77q36 0 63 25t27 62t-20.5 57.5t-55.5 20.5t-62 -25t-27 -63z
M673.5 1058q-115.5 0 -177.5 64t-62 178.5t80 192.5t194.5 78t178 -64t63.5 -179.5t-80.5 -192.5t-196 -77z" />
    <glyph glyph-name="utilde.smcp" horiz-adv-x="1137" 
d="M509.5 -19q-221.5 0 -331 96t-109.5 273q0 30 7 93l79 555h385l-75 -516q-6 -34 -5 -74q0 -97 99 -97q54 0 80 38t39 133l76 516h369l-77 -555q-32 -223 -173.5 -342.5t-363 -119.5zM566 1476q67 0 127.5 -27.5t93 -27.5t55 17.5t26.5 41.5l7 4l225 -60
q-17 -128 -102.5 -207t-189.5 -79q-60 0 -125 29.5t-95 29.5q-65 0 -78 -63l-7 -6l-229 67q13 110 95.5 195.5t196.5 85.5z" />
    <glyph glyph-name="v.smcp" horiz-adv-x="1050" 
d="M769 998h369l-557 -998h-255l-270 998h393l80 -533z" />
    <glyph glyph-name="w.smcp" horiz-adv-x="1485" 
d="M1562 998l6 -8l-490 -990h-263l-63 518v5l-4 -5l-217 -518h-270l-203 990l3 8h378l34 -471l2 -47l203 518h298l41 -469l1 -49l17 52l175 466h352z" />
    <glyph glyph-name="wacute.smcp" horiz-adv-x="1485" 
d="M1562 998l6 -8l-490 -990h-263l-63 518v5l-4 -5l-217 -518h-270l-203 990l3 8h378l34 -471l2 -47l203 518h298l41 -469l1 -49l17 52l175 466h352zM1164 1266l-509 -203l-102 203l428 313l198 -272z" />
    <glyph glyph-name="wcircumflex.smcp" horiz-adv-x="1485" 
d="M1562 998l6 -8l-490 -990h-263l-63 518v5l-4 -5l-217 -518h-270l-203 990l3 8h378l34 -471l2 -47l203 518h298l41 -469l1 -49l17 52l175 466h352zM847 1244l-220 -146l-106 116l267 302h175l199 -297l-138 -121z" />
    <glyph glyph-name="wdieresis.smcp" horiz-adv-x="1485" 
d="M1562 998l6 -8l-490 -990h-263l-63 518v5l-4 -5l-217 -518h-270l-203 990l3 8h378l34 -471l2 -47l203 518h298l41 -469l1 -49l17 52l175 466h352zM1069.5 1098q-86.5 0 -142.5 56t-56 146.5t65.5 152t154 61.5t143 -54t54.5 -145.5t-66 -154t-152.5 -62.5zM612.5 1098
q-87.5 0 -142.5 56t-55 146.5t66 152t154 61.5t142.5 -54t54.5 -145.5t-66 -154t-153.5 -62.5z" />
    <glyph glyph-name="wgrave.smcp" horiz-adv-x="1485" 
d="M1562 998l6 -8l-490 -990h-263l-63 518v5l-4 -5l-217 -518h-270l-203 990l3 8h378l34 -471l2 -47l203 518h298l41 -469l1 -49l17 52l175 466h352zM1020 1071l-512 186l-18 41l190 277l437 -300z" />
    <glyph glyph-name="x.smcp" horiz-adv-x="1091" 
d="M1158 998l-400 -499l262 -499h-404l-111 257l-185 -257h-400l417 506l-261 492h404l112 -248l177 248h389z" />
    <glyph glyph-name="y.smcp" horiz-adv-x="1033" 
d="M268 0l43 309l-255 681l4 8h376l111 -371l214 371h356l6 -8l-456 -701l-41 -289h-358z" />
    <glyph glyph-name="yacute.smcp" horiz-adv-x="1033" 
d="M268 0l43 309l-255 681l4 8h376l111 -371l214 371h356l6 -8l-456 -701l-41 -289h-358zM417 1065l-102 203l428 313l197 -272l-15 -41z" />
    <glyph glyph-name="ycircumflex.smcp" horiz-adv-x="1033" 
d="M268 0l43 309l-255 681l4 8h376l111 -371l214 371h356l6 -8l-456 -701l-41 -289h-358zM389 1100l-106 116l266 301h175l199 -296l-137 -121l-177 146z" />
    <glyph glyph-name="ydieresis.smcp" horiz-adv-x="1033" 
d="M268 0l43 309l-255 681l4 8h376l111 -371l214 371h356l6 -8l-456 -701l-41 -289h-358zM831.5 1100q-86.5 0 -142.5 55t-56 146.5t65 153t154 61.5t143.5 -54t54.5 -145.5t-66 -154t-152.5 -62.5zM373.5 1100q-87.5 0 -142 55t-54.5 146.5t66 153t153.5 61.5t142.5 -54
t55 -145.5t-66.5 -154t-154 -62.5z" />
    <glyph glyph-name="ygrave.smcp" horiz-adv-x="1033" 
d="M268 0l43 309l-255 681l4 8h376l111 -371l214 371h356l6 -8l-456 -701l-41 -289h-358zM782 1072l-512 187l-19 41l190 277l438 -300z" />
    <glyph glyph-name="uni0233.smcp" horiz-adv-x="1033" 
d="M268 0l43 309l-255 681l4 8h376l111 -371l214 371h356l6 -8l-456 -701l-41 -289h-358zM307 1162l32 216h584l-33 -216h-583z" />
    <glyph glyph-name="uni1EF9.smcp" horiz-adv-x="1033" 
d="M268 0l43 309l-255 681l4 8h376l111 -371l214 371h356l6 -8l-456 -701l-41 -289h-358zM503 1478q67 0 127.5 -28t93 -28t55 19t25.5 41l8 4l225 -60q-17 -128 -102.5 -207.5t-189.5 -79.5q-60 0 -125 30t-95 30q-65 0 -78 -63l-8 -6l-229 67q13 110 96 195.5t197 85.5z
" />
    <glyph glyph-name="z.smcp" horiz-adv-x="1037" 
d="M992 797l-463 -505h411l-43 -292h-875l-2 192l464 501h-383l44 305h845z" />
    <glyph glyph-name="zacute.smcp" horiz-adv-x="1037" 
d="M992 797l-463 -505h411l-43 -292h-875l-2 192l464 501h-383l44 305h845zM925 1268l-508 -203l-102 203l428 313l197 -272z" />
    <glyph glyph-name="zcaron.smcp" horiz-adv-x="1037" 
d="M992 797l-463 -505h411l-43 -292h-875l-2 192l464 501h-383l44 305h845zM683 1100h-177l-191 304l134 113l188 -145l216 145l100 -113z" />
    <glyph glyph-name="zdotaccent.smcp" horiz-adv-x="1037" 
d="M992 797l-463 -505h411l-43 -292h-875l-2 192l464 501h-383l44 305h845zM608 1089q-92 0 -151 58.5t-59 153.5t70 161.5t163 66.5t151 -59t58 -153.5t-70 -161t-162 -66.5z" />
    <glyph glyph-name="zero.osf" horiz-adv-x="1161" 
d="M544 290q181 0 180 285q0 162 -104 162q-84 0 -132 -78q-48 -77 -48 -223t104 -146zM497 -26q-203 0 -324 106t-121 324q0 309 176 481t437 173q207 0 327 -116t121 -337q0 -315 -171 -473t-445 -158z" />
    <glyph glyph-name="one.osf" horiz-adv-x="733" 
d="M192 0l89 585l-216 -77l-9 4l52 354l534 182h64l-153 -1048h-361z" />
    <glyph glyph-name="two.osf" horiz-adv-x="1042" 
d="M547 668q0 61 -109 62q-168 0 -319 -88l-7 6l41 333q168 77 359 77q192 0 314 -76t122 -221t-73 -239t-231 -191l-15 -5l-9 -4q-4 0 -30 -11t-30 -11l2 -4q39 13 73 13h320l-45 -309h-917q19 130 74 228q56 98 109 144t178 124q125 77 159 110t34 62z" />
    <glyph glyph-name="three.osf" horiz-adv-x="956" 
d="M860 236q0 -195 -146 -314t-366 -119q-138 1 -212 17t-149 50l47 318l9 4q47 -39 123 -66t152 -27q182 0 183 111q0 45 -29 65t-105 21l-158 2l39 277l126 4q128 4 129 88q-1 35 -23 51t-89 16q-160 0 -283 -49v6l39 307q147 60 354 60q380 0 380 -289q0 -187 -140 -302
q119 -80 119 -231z" />
    <glyph glyph-name="four.osf" horiz-adv-x="1139" 
d="M434 268h136l31 207zM1046 268l-35 -272h-149l-28 -193h-333l28 193h-531l-15 166l738 877h288l-110 -771h147z" />
    <glyph glyph-name="five.osf" horiz-adv-x="983" 
d="M328 -195q-98 1 -172 15t-167 53l43 313l7 4q93 -45 156 -61q63 -15 157 -15t134 22q41 22 41 72t-40 67q-41 17 -165 17t-261 -18l123 750h752l-42 -318h-447l-21 -108q22 -2 75 -2q199 0 293 -74t94 -246q0 -108 -36 -194t-92 -136t-130 -84t-139 -46t-163 -11z" />
    <glyph glyph-name="six.osf" horiz-adv-x="1072" 
d="M547 281q149 0 149 157q0 48 -27 78t-84 30q-119 0 -164 -142q11 -54 43 -88t83 -35zM702 856q348 0 348 -385q0 -203 -137 -353t-374 -150q-470 0 -470 494q0 395 210 606t538 211q166 0 254 -26l-43 -309l-8 -4q-104 26 -231 26q-227 0 -318 -188q103 78 231 78z" />
    <glyph glyph-name="seven.osf" horiz-adv-x="947" 
d="M34 -197l-6 7l499 871h-456l48 343h816l24 -199l-553 -1022h-372z" />
    <glyph glyph-name="eight.osf" horiz-adv-x="1068" 
d="M512 261q60 0 87 25q27 26 27 60t-24 60t-101 72l-30 17q-73 -71 -73 -153t114 -81zM609 1007q-43 0 -69 -23t-26 -62q0 -61 123 -134q58 69 57 145q0 74 -85 74zM979 406q0 -196 -137 -314t-363 -118t-334 79t-108 219q0 216 220 367q-114 102 -114 220q0 316 311 407
q86 24 183 24q179 0 296 -76t117 -250t-177 -320q106 -95 106 -238z" />
    <glyph glyph-name="nine.osf" horiz-adv-x="1085" 
d="M445 618q0 -48 27 -76t72 -28q82 0 123 71q-7 151 -110 150q-56 0 -84 -35q-28 -34 -28 -82zM564 1058q226 0 346 -124t121 -353q0 -378 -198 -577t-515 -199q-164 0 -283 31l51 330l7 3q104 -50 257 -50q192 0 268 160q-104 -71 -236 -71t-225 97q-92 97 -92 289
t137 328q136 136 362 136z" />
    <glyph glyph-name="zero.sinf" horiz-adv-x="742" 
d="M285 -106q37 0 66 74t29 166t-45 91q-39 0 -67 -74q-28 -73 -28 -165t45 -92zM642 125q0 -213 -102 -319t-254 -106q-314 0 -314 285q0 212 105 325t253 113q148 1 230 -75t82 -223z" />
    <glyph glyph-name="one.sinf" horiz-adv-x="502" 
d="M56 -281l52 352l-125 -23l-7 4l33 261l386 104l24 -4l-101 -694h-262z" />
    <glyph glyph-name="two.sinf" horiz-adv-x="679" 
d="M259 201q-130 0 -246 -63l-2 2l32 219q117 61 249 61q286 1 285 -184q0 -89 -40 -140q-40 -50 -121 -104t-83 -70h213l-28 -203h-589q41 210 237 346q89 61 109 79t19 38q0 19 -35 19z" />
    <glyph glyph-name="three.sinf" horiz-adv-x="633" 
d="M521 -30q-1 -120 -99 -194t-245 -74t-229 30l28 199l2 2q78 -30 147 -30t92 2q66 6 66 50q0 28 -47 28h-171l28 172h149q45 -1 45 31q-1 32 -103 32t-162 -23l-3 4l28 201q123 20 227 21q268 0 268 -166q0 -101 -84 -166q63 -39 63 -119z" />
    <glyph glyph-name="four.sinf" horiz-adv-x="683" 
d="M192 -35h80l20 139zM570 410l-62 -445h56l-24 -162h-56l-11 -84h-238l13 84h-326l18 119l406 488h224z" />
    <glyph glyph-name="five.sinf" horiz-adv-x="646" 
d="M270 -56q0 36 -60 36q-16 1 -72 1t-145 -15l-2 4l78 438h488l-28 -207h-287l-9 -41q30 4 63 4q236 0 236 -170q0 -89 -35 -150q-35 -60 -93 -90q-101 -52 -234 -52t-222 17l32 210l1 2q91 -30 190 -30t99 43z" />
    <glyph glyph-name="six.sinf" horiz-adv-x="705" 
d="M276 -106q71 0 70 56q0 32 -46 32t-86 -45q21 -43 62 -43zM394 158q88 0 141 -44t53 -133q0 -128 -88 -204q-88 -77 -241 -77t-223 70t-70 196q0 212 135 336t329 124q104 0 160 -18l-30 -203l-5 -4q-58 20 -147 21q-128 0 -177 -112q75 48 163 48z" />
    <glyph glyph-name="seven.sinf" horiz-adv-x="621" 
d="M-30 -281v2l302 458h-274l32 229h555l-17 -132l-341 -557h-257z" />
    <glyph glyph-name="eight.sinf" horiz-adv-x="701" 
d="M335 -84q0 30 -106 69q-37 -26 -37 -63q0 -45 72 -45t71 39zM372 216q0 28 -52 28t-52 -37q0 -20 67 -47q37 22 37 56zM577 -66q0 -96 -90 -164t-249 -68q-283 0 -283 175q0 65 26 111t95 81q-65 56 -65 121q0 119 98 180q99 60 225 60q276 -1 277 -171q0 -63 -27 -104
q-28 -39 -89 -71q82 -54 82 -150z" />
    <glyph glyph-name="nine.sinf" horiz-adv-x="711" 
d="M240 164q0 -37 48 -37t83 11q-7 71 -69 71t-62 -45zM-9 138q0 130 87 208t237 77q151 1 225 -77t74 -216q0 -432 -430 -432q-127 0 -204 26l27 213l8 5q71 -42 186 -44t153 78q-63 -34 -150 -34t-150 51t-63 145z" />
    <glyph glyph-name="zero.tf" horiz-adv-x="1091" 
d="M454 289q74 1 118 123t42 332q0 210 -81 211q-81 0 -125 -128t-43 -333q0 -205 89 -205zM1015 735q-1 -373 -169 -569t-402 -196t-356 136t-123 389q0 367 170 576t399 209t355 -139q126 -138 126 -406z" />
    <glyph glyph-name="one.tf" horiz-adv-x="1091" 
d="M320 0l112 761l-240 -91h-13l56 397l584 203h56l-182 -1270h-373z" />
    <glyph glyph-name="two.tf" horiz-adv-x="1091" 
d="M474 944q-126 0 -232 -36t-158 -74l-4 4l47 335q181 104 439 104q182 0 303 -76q121 -77 121 -223t-78 -258t-281 -260q-140 -97 -147 -151h458l-46 -309h-956q24 258 222 458q88 88 230 193t176 140t33 86q-1 67 -127 67z" />
    <glyph glyph-name="three.tf" horiz-adv-x="1091" 
d="M925 432q0 -205 -162 -333t-420 -129q-127 0 -201 17t-146 54l47 316l4 2q45 -29 127 -49t176 -20q95 0 157 27t63 107q0 82 -114 81h-231l36 277h167q149 0 149 93q1 45 -33 63t-110 17q-166 0 -289 -45l-5 2l44 315q168 52 347 52q424 0 424 -292q0 -190 -151 -311
q121 -80 121 -244z" />
    <glyph glyph-name="four.tf" horiz-adv-x="1091" 
d="M384 458h121l33 223zM985 458l-35 -277h-142l-26 -181h-344l26 181h-544l24 176l719 896h300l-116 -795h138z" />
    <glyph glyph-name="five.tf" horiz-adv-x="1091" 
d="M391 289q190 0 190 143q0 91 -153 91q-192 0 -361 -48l-6 7l138 773h801l-47 -309h-499l-20 -132q58 17 136 16q179 0 284 -86t105 -266q0 -119 -40 -213q-39 -94 -101 -148q-167 -147 -434 -147q-223 0 -391 49l46 331l4 2q158 -63 348 -63z" />
    <glyph glyph-name="six.tf" horiz-adv-x="1091" 
d="M478 281q156 0 157 157q0 48 -28 78t-88 30q-117 0 -165 -127q12 -60 44 -99t80 -39zM642 856q357 0 358 -383q0 -197 -134 -345q-64 -72 -170 -116t-236 -44q-227 0 -347 135t-120 362q0 395 213 605t552 209q175 0 262 -26l-41 -305l-13 -8q-104 26 -236 26
q-240 0 -328 -193q108 83 240 83z" />
    <glyph glyph-name="seven.tf" horiz-adv-x="1091" 
d="M80 0l533 897h-518l48 350h944l-29 -223l-583 -1024h-395z" />
    <glyph glyph-name="eight.tf" horiz-adv-x="1091" 
d="M466 257q148 0 147 87q-1 70 -127 118q-58 22 -78 33q-89 -67 -90 -147q0 -91 148 -91zM672 910q0 64 -112 64t-113 -77q0 -56 113 -109q112 50 112 122zM968 406q0 -192 -148 -314t-390 -122t-356 83t-113 230q0 220 218 356q-105 104 -105 236t76 225q144 177 416 177
q273 0 392 -130q68 -74 68 -188q0 -179 -214 -298q156 -102 156 -255z" />
    <glyph glyph-name="nine.tf" horiz-adv-x="1091" 
d="M378 814q0 -108 140 -108q72 0 132 33v11q0 110 -30 159t-100 49t-106 -42q-36 -43 -36 -102zM555 1279q220 0 340 -132t120 -371q-1 -400 -183 -604t-506 -204q-233 0 -350 51l48 329l11 6q121 -64 267 -64t216 43q69 43 100 140q-110 -71 -262 -71t-254 90
q-101 90 -100 255q0 233 142 383t411 149z" />
    <glyph glyph-name="zero.dnom" horiz-adv-x="744" 
d="M326 177q37 -1 66 73t29 166t-45 92q-39 0 -67 -74t-28 -166t45 -91zM683 408q0 -214 -102 -320t-254 -105q-314 0 -314 285q0 212 105 325q106 113 254 113t230 -76t81 -222z" />
    <glyph glyph-name="one.dnom" horiz-adv-x="504" 
d="M97 0l52 356l-134 -26l39 266l382 102h24l-101 -698h-262z" />
    <glyph glyph-name="two.dnom" horiz-adv-x="679" 
d="M614 522q0 -92 -40 -144t-120 -105t-83 -70h212l-28 -203h-589q41 210 237 346q89 61 109 79t19 39q0 19 -35 18q-130 0 -246 -63l-2 2l32 219q116 62 248 62t209 -44t77 -136z" />
    <glyph glyph-name="three.dnom" horiz-adv-x="634" 
d="M562 251q0 -121 -98 -195t-246 -73q-147 0 -229 30l28 199l2 2q78 -30 147 -30t92 2q66 6 66 50q0 28 -47 28h-171l28 172h149q45 0 45 32t-102 31q-102 0 -163 -22l-3 3l28 201q123 20 227 21q268 0 268 -166q0 -100 -84 -165q63 -39 63 -120z" />
    <glyph glyph-name="four.dnom" horiz-adv-x="683" 
d="M233 246h80l20 139zM611 691l-62 -445h56l-24 -162h-56l-11 -84h-238l13 84h-326l18 119l406 488h224z" />
    <glyph glyph-name="five.dnom" horiz-adv-x="646" 
d="M180 -17q-102 0 -191 17l31 210l2 2q91 -30 190 -30t99 43q0 25 -25 31q-25 7 -94 7t-158 -15l-2 3l78 438h488l-28 -207h-287l-9 -41q30 4 63 4q236 0 236 -169q0 -88 -35 -150t-93 -92t-110 -40q-53 -11 -155 -11z" />
    <glyph glyph-name="six.dnom" horiz-adv-x="707" 
d="M317 175q71 0 70 56q1 32 -45 32t-87 -45q21 -43 62 -43zM436 439q88 -1 140 -45q53 -44 53 -131q0 -129 -88 -205t-241 -76q-293 -1 -293 266q0 212 135 336t329 123q104 0 160 -18l-30 -203l-5 -4q-58 20 -147 21q-128 0 -177 -112q76 48 164 48z" />
    <glyph glyph-name="seven.dnom" horiz-adv-x="619" 
d="M9 0v4l302 458h-274l32 227h555l-17 -132l-341 -557h-257z" />
    <glyph glyph-name="eight.dnom" horiz-adv-x="703" 
d="M233 203q-1 -45 71 -45t72 39q0 28 -95 66q-1 1 -5 1t-6 2q-37 -26 -37 -63zM413 497q0 28 -52 28t-52 -37q0 -22 67 -47q37 22 37 56zM618 215q0 -96 -90 -164t-249 -68q-283 0 -283 175q0 65 26 111t95 81q-65 56 -65 121q0 119 98 180t224 61q276 -1 278 -172
q0 -63 -28 -103t-88 -72q82 -54 82 -150z" />
    <glyph glyph-name="nine.dnom" horiz-adv-x="713" 
d="M281 445q-1 -37 47 -37t83 11q-7 71 -69 71t-61 -45zM32 419q0 129 87 207t237 78t224 -77t75 -216q0 -432 -430 -431q-127 0 -205 26l28 212l8 5q71 -43 186 -45t153 79q-63 -34 -150 -34q-87 -1 -150 51t-63 145z" />
    <glyph glyph-name="zero.numr" horiz-adv-x="742" 
d="M404 739q37 0 66 74t29 166t-45 92q-39 -1 -67 -75t-28 -166t45 -91zM405 546q-314 0 -314 284q0 212 105 325q106 113 254 113t230 -76t81 -222q0 -214 -102 -319t-254 -105z" />
    <glyph glyph-name="one.numr" horiz-adv-x="502" 
d="M175 564l54 356l-134 -24l37 264l382 102h24l-100 -698h-263z" />
    <glyph glyph-name="two.numr" horiz-adv-x="679" 
d="M410 1266q286 0 286 -184q0 -88 -40 -140t-121 -105t-83 -70h213l-28 -203h-589q41 210 237 346q89 62 109 80t19 38q0 19 -35 18q-130 0 -246 -63l-2 2l32 220q116 61 248 61z" />
    <glyph glyph-name="three.numr" horiz-adv-x="633" 
d="M640 815q0 -121 -98 -195t-246 -73q-147 0 -229 30l28 199l2 2q78 -30 147 -30t92 2q66 6 66 51q0 28 -46 28h-172l28 171h149q45 0 45 32t-102 31q-102 0 -163 -22l-3 3l28 202q123 20 227 20q268 0 268 -166q0 -100 -84 -165q63 -39 63 -120z" />
    <glyph glyph-name="four.numr" horiz-adv-x="685" 
d="M315 810h80l20 140zM693 1255l-62 -445h56l-24 -162h-56l-11 -84h-239l14 84h-326l18 119l406 488h224z" />
    <glyph glyph-name="five.numr" horiz-adv-x="646" 
d="M655 840q0 -230 -238 -282q-53 -12 -155 -11q-102 0 -191 17l31 211l2 1q91 -30 190 -30t99 43q0 25 -25 31q-25 7 -94 7t-159 -15l-1 3l78 438h488l-28 -207h-287l-9 -41q30 4 63 4q236 0 236 -169z" />
    <glyph glyph-name="six.numr" horiz-adv-x="705" 
d="M395 748q71 0 70 56q0 32 -45 32t-87 -45q21 -43 62 -43zM514 1013q88 0 140 -45t53 -132q0 -128 -88 -204q-89 -76 -241 -77q-152 0 -223 70q-70 70 -69 196q0 212 135 336t328 124q104 0 160 -19l-29 -203l-6 -3q-58 20 -147 20q-128 0 -177 -112q76 49 164 49z" />
    <glyph glyph-name="seven.numr" horiz-adv-x="621" 
d="M91 564l4 4l300 458h-274l32 229h556l-18 -132l-343 -559h-257z" />
    <glyph glyph-name="eight.numr" horiz-adv-x="700" 
d="M311 767q-1 -45 71 -45t72 39q0 28 -95 66q-1 0 -5 2t-6 1q-37 -26 -37 -63zM439 1089q-52 0 -52 -37q0 -20 67 -47q37 22 38 56q-1 28 -53 28zM696 779q0 -96 -90 -164t-249 -68q-283 0 -283 175q0 65 26 111t95 81q-65 56 -65 121q0 119 98 180t224 61q276 -1 278 -172
q0 -63 -28 -103t-88 -72q82 -54 82 -150z" />
    <glyph glyph-name="nine.numr" horiz-adv-x="711" 
d="M363 1009q-1 -37 47 -37t83 11q-7 71 -69 71t-61 -45zM114 983q0 129 87 207t237 78t224 -77t75 -215q0 -432 -430 -432q-127 0 -205 26l28 212l8 6q71 -43 186 -45t153 78q-63 -33 -150 -33t-150 51t-63 144z" />
    <glyph glyph-name="zero.sups" horiz-adv-x="744" 
d="M447 1024q37 0 66 74t29 166t-45 91q-39 0 -67 -74q-28 -73 -28 -165t45 -92zM804 1255q0 -213 -102 -319t-254 -106q-314 0 -314 285q0 212 105 325t253 113q148 1 230 -75t82 -223z" />
    <glyph glyph-name="one.sups" horiz-adv-x="504" 
d="M216 845l54 356l-132 -22l35 262l384 106h22l-101 -702h-262z" />
    <glyph glyph-name="two.sups" horiz-adv-x="679" 
d="M454 1547q286 0 285 -184q0 -89 -40 -141t-121 -104q-81 -53 -83 -70h212l-27 -203h-589q41 210 237 347q89 61 109 79t19 38q0 19 -35 18q-130 0 -246 -63l-2 2l32 220q117 61 249 61z" />
    <glyph glyph-name="three.sups" horiz-adv-x="634" 
d="M683 1100q-1 -120 -99 -194t-245 -74t-229 30l28 199l2 2q78 -30 147 -30t92 2q66 6 66 50q0 28 -47 28h-171l28 172h149q45 -1 45 31q1 32 -103 32t-162 -22l-3 3l28 201q123 20 227 21q268 0 268 -166q0 -101 -84 -166q63 -39 63 -119z" />
    <glyph glyph-name="four.sups" horiz-adv-x="685" 
d="M354 1091h80l20 140zM732 1536l-62 -445h56l-24 -162h-56l-11 -84h-238l13 84h-326l18 119l406 488h224z" />
    <glyph glyph-name="five.sups" horiz-adv-x="646" 
d="M306 832q-102 0 -192 17l31 210l2 2q91 -30 190 -30t99 43q0 25 -25 31q-25 7 -94 7t-159 -15l-2 3l79 438h487l-28 -207h-286l-10 -41q30 4 64 4q236 0 236 -169q0 -89 -35 -151t-93 -90q-58 -30 -110 -41t-154 -11z" />
    <glyph glyph-name="six.sups" horiz-adv-x="707" 
d="M436 1024q71 0 70 56q0 32 -45 32t-87 -45q21 -43 62 -43zM556 1288q88 0 140 -44t52 -132q0 -128 -88 -204t-240 -78q-152 0 -224 70q-70 70 -69 197q0 212 135 336t328 123q104 0 160 -18l-29 -203l-6 -4q-58 20 -147 21q-128 0 -177 -112q77 48 165 48z" />
    <glyph glyph-name="seven.sups" horiz-adv-x="619" 
d="M128 845l304 462h-274l32 231h555l-19 -132l-342 -561h-256z" />
    <glyph glyph-name="eight.sups" horiz-adv-x="703" 
d="M352 1052q0 -45 72 -45t71 39q0 28 -95 66q-2 2 -6 2t-5 1q-37 -26 -37 -63zM532 1346q0 28 -52 28t-52 -37q0 -22 67 -47q37 22 37 56zM737 1064q0 -96 -90 -164t-249 -68q-283 0 -283 175q0 65 26 111t95 81q-65 56 -65 121q0 119 98 180q99 60 225 60q276 -1 277 -171
q1 -63 -27 -103t-89 -72q82 -54 82 -150z" />
    <glyph glyph-name="nine.sups" horiz-adv-x="713" 
d="M400 1294q0 -37 48 -37t83 11q-7 71 -69 71t-62 -45zM151 1268q-1 130 87 208t238 77q150 1 224 -77t75 -216q0 -432 -431 -431q-127 0 -204 26l28 212l7 5q71 -42 186 -44t153 78q-63 -34 -150 -34t-150 52t-63 144z" />
    <glyph glyph-name="zero.smcp" horiz-adv-x="1212" 
d="M568 290q199 0 199 242q0 160 -140 161q-93 1 -144 -63t-51 -189q0 -151 136 -151zM503 -26q-200 0 -328 105t-128 321q0 296 177 455q178 158 448 158q220 0 349 -112t129 -323t-85 -349q-86 -139 -224 -197t-338 -58z" />
    <glyph glyph-name="one.smcp" horiz-adv-x="741" 
d="M199 0l69 532l-220 -37l51 363l530 134h64l-136 -992h-358z" />
    <glyph glyph-name="two.smcp" horiz-adv-x="1053" 
d="M430 685q-164 0 -324 -82l-5 4l40 335q166 71 367 71q202 0 320 -74t118 -233q0 -114 -68 -191t-234 -184q-9 -4 -33 -11q-24 -13 -56 -18v-8q43 15 71 15h318l-41 -309h-909q26 188 109 291t225 180t180 103q37 26 38 61q0 50 -116 50z" />
    <glyph glyph-name="three.smcp" horiz-adv-x="964" 
d="M877 315q1 -164 -141 -252t-405 -87q-181 0 -322 43l39 296q175 -49 324 -49t149 58q0 15 -11 24q-28 23 -156 23h-112l28 229l87 1q84 1 114 11t30 41q0 50 -116 51q-164 0 -279 -43l-2 4l39 292q183 58 353 58t276 -65t107 -204q0 -139 -114 -230q112 -69 112 -201z
" />
    <glyph glyph-name="four.smcp" horiz-adv-x="1092" 
d="M411 371h118l22 163zM1011 371l-32 -248h-150l-17 -123h-332l17 123h-527l21 166l662 690h289l-82 -608h151z" />
    <glyph glyph-name="five.smcp" horiz-adv-x="996" 
d="M362 -26q-96 0 -172 15t-175 52l39 296q166 -76 372 -76q130 0 131 74q0 32 -29 42q-28 10 -158 10t-296 -16l101 612h758l-37 -279h-460l-8 -73q30 2 104 2q190 0 287 -60t97 -193q0 -93 -36 -167q-36 -73 -92 -117t-128 -73t-137 -39t-161 -10z" />
    <glyph glyph-name="six.smcp" horiz-adv-x="1079" 
d="M549 244q37 0 64 27t27 75q0 73 -65 73q-32 0 -70 -24t-60 -71q33 -80 104 -80zM713 678q129 0 209 -70t80 -195q0 -199 -127 -322t-356 -123t-350 110t-121 306q0 302 195 466t522 165q143 0 212 -19l-33 -274l-8 -5q-88 28 -198 28t-194 -55t-110 -148q102 136 279 136
z" />
    <glyph glyph-name="seven.smcp" horiz-adv-x="960" 
d="M151 0l-4 7l371 673h-455l43 331h829l29 -199l-435 -812h-378z" />
    <glyph glyph-name="eight.smcp" horiz-adv-x="1077" 
d="M413 305q1 -69 105 -69t104 69q0 56 -78 72q-78 17 -84 20q-47 -45 -47 -92zM661 696q0 51 -93 51t-93 -49q0 -20 24 -37t102 -37q60 35 60 72zM1002 318q0 -158 -150 -251t-384 -93q-452 0 -453 248q0 160 207 273q-125 82 -125 196q0 160 143 242t344 82q202 1 320 -61
t118 -188t-143 -226q69 -34 96 -88t27 -134z" />
    <glyph glyph-name="nine.smcp" horiz-adv-x="1098" 
d="M434 650q0 -40 20 -58t50 -19q31 1 68 25t59 67q-28 74 -102 74q-39 0 -67 -25q-28 -24 -28 -64zM76 579q0 192 131 314t353 122t345 -111t123 -304q0 -298 -184 -465t-488 -167q-177 0 -261 19l39 272l7 4q108 -25 211 -25q104 0 186 57t106 154q-104 -134 -279 -134
q-128 0 -209 63q-80 63 -80 201z" />
    <glyph glyph-name="exclam.case" horiz-adv-x="621" 
d="M248 -48q-98 0 -145 47t-49 128t57 140t156 59t143 -48t46 -130q0 -80 -55 -138t-153 -58zM141 432l95 871h378l-149 -871h-324z" />
    <glyph glyph-name="exclamdown.case" horiz-adv-x="627" 
d="M45 -67l147 862h326l-97 -862h-376zM605 1100q0 -80 -55 -138q-54 -58 -152 -59q-98 0 -146 47q-47 46 -49 128t57 140q58 58 154 58t144 -49q48 -47 47 -127z" />
    <glyph glyph-name="question.case" horiz-adv-x="873" 
d="M482 170q0 -78 -58 -140t-151 -62q-92 0 -141 47q-48 47 -48 126t57 140q58 61 150 61q91 0 141 -46q50 -47 50 -126zM473 918q-1 78 -115 77t-211 -45l-4 1l45 328q120 43 284 43t277 -80t113 -227t-59 -228t-176 -160t-138 -136q-8 -21 -14 -57l-330 -6q17 222 199 344
q84 56 106 82t23 64z" />
    <glyph glyph-name="questiondown.case" horiz-adv-x="875" 
d="M581 356q0 -40 26 -58q27 -18 115 -19q88 0 185 45l3 -2l-44 -328q-121 -42 -285 -42t-277 80t-112 242q0 132 58 213q59 81 176 159t139 137q8 21 14 57l330 5q-17 -221 -199 -343q-84 -56 -106 -82q-22 -24 -23 -64zM781 1305q92 0 141 -46q48 -47 48 -126t-58 -141
t-150 -61q-92 0 -141 46q-49 47 -49 126t58 141q59 61 151 61z" />
    <glyph glyph-name="question.ss01" horiz-adv-x="819" 
d="M258 357q92 1 140 -45t48 -124t-58 -140q-59 -62 -151 -63q-92 0 -140 47q-49 47 -49 125t59 139t151 61zM281 397q-71 0 -154 9l37 277l11 6q69 -9 132 -9t117 52q53 52 53 139q0 145 -179 146q-93 0 -155 -23l-11 10l41 279q76 28 211 28q202 0 324 -98t122 -280
q0 -229 -138 -383q-139 -153 -411 -153z" />
    </font>
</defs>
</svg>
