<?xml version="1.0" standalone="no"?>
<!DOCTYPE svg PUBLIC "-//W3C//DTD SVG 1.1//EN" "http://www.w3.org/Graphics/SVG/1.1/DTD/svg11.dtd" >
<svg xmlns="http://www.w3.org/2000/svg">
<metadata>
Created by FontPrep 20130207 at Fri May 26 15:12:38 2017
 By Lizzy Knight
Copyright (c) 2017 by Alfonso Garci'a - Latinotype Team. All rights reserved.
</metadata>
<defs>
<font id="b78c80a30d0ede2a05dd244126c79542" horiz-adv-x='1024' >
  <font-face 
    font-family="RawsonPro-SemiBold"
    font-weight="600"
    font-stretch="normal"
    units-per-em="2048"
    panose-1="0 0 7 0 0 0 0 0 0 0"
    ascent="1638"
    descent="-410"
    x-height="961"
    cap-height="1233"
    bbox="-1331 -443 2515 1789"
    underline-thickness="93"
    underline-position="-93"
    unicode-range="U+0020-FB02"
  />
<missing-glyph horiz-adv-x="930" 
 />
    <glyph glyph-name="fi" unicode="fi" horiz-adv-x="1115" 
d="M758 0v961h218v-961h-218zM544 1333q71 0 124 -19v-189l-5 -2q-35 15 -97 15t-108 -44q-45 -44 -47 -131h203v-174h-203v-789h-219v789h-132v174h132q2 177 100 273t252 97zM868 1119q-56 0 -96 39t-40 95t40 95t96 39t95 -39t39 -95t-39 -95t-95 -39z" />
    <glyph glyph-name="fl" unicode="fl" horiz-adv-x="1117" 
d="M756 1322h220v-1322h-220v1322zM192 961q0 177 98 275t254 97q76 0 124 -17v-193l-5 -2q-34 17 -97 17t-108 -44t-47 -133h203v-173h-203v-788h-219v788h-132v173h132z" />
    <glyph glyph-name=".notdef" horiz-adv-x="930" 
 />
    <glyph glyph-name=".null" 
 />
    <glyph glyph-name="nonmarkingreturn" horiz-adv-x="681" 
 />
    <glyph glyph-name="space" unicode=" " horiz-adv-x="463" 
 />
    <glyph glyph-name="exclam" unicode="!" horiz-adv-x="513" 
d="M255 -22q-59 0 -91 34t-32 83q0 50 32 83q32 32 92 32t90 -32q32 -32 32 -83q0 -49 -32 -83t-91 -34zM166 393l-17 888h218l-15 -888h-186z" />
    <glyph glyph-name="quotedbl" unicode="&#x22;" horiz-adv-x="672" 
d="M404 784l-9 447h169l21 -21l-53 -426h-128zM132 784l-9 447h169l21 -21l-52 -426h-129z" />
    <glyph glyph-name="numbersign" unicode="#" horiz-adv-x="1105" 
d="M668 432l39 235h-258l-39 -235h258zM1005 667h-152l-39 -235h176v-147h-201l-33 -197h-145l33 197h-259l-33 -197h-145l33 197h-139v147h163l39 235h-189v145h214l33 195h145l-33 -195h259l33 195h145l-33 -195h128v-145z" />
    <glyph glyph-name="dollar" unicode="$" horiz-adv-x="925" 
d="M838 414q0 -118 -71 -194t-199 -99v-181h-205v174q-143 11 -270 68v187l4 2q145 -95 329 -95q216 0 216 124q0 58 -52 88t-199 70t-218 109t-71 183t80 188t215 98v184h204v-179q119 -9 205 -44v-187l-4 -1q-117 56 -279 55q-197 0 -197 -108q0 -54 46 -80t177 -61
q143 -45 216 -115q73 -68 73 -186z" />
    <glyph glyph-name="percent" unicode="%" horiz-adv-x="1478" 
d="M1093 134q149 0 149 166q0 86 -39 132t-108 45q-69 0 -107 -46t-38 -131q0 -166 143 -166zM1094 -9q-142 0 -228 80t-86 230q0 149 87 233t228 84t229 -83t88 -235t-88 -230q-88 -79 -230 -79zM380 750q149 0 149 170q0 84 -39 130t-108 45q-69 0 -107 -46t-39 -129
q1 -170 144 -170zM231 22l843 1190h177l-843 -1190h-177zM382 609q-142 0 -228 80t-87 230q0 151 88 235t228 84q141 0 229 -84t88 -234t-88 -231q-88 -80 -230 -80z" />
    <glyph glyph-name="ampersand" unicode="&#x26;" horiz-adv-x="1258" 
d="M289 351q0 -87 63 -141q62 -54 188 -55q126 0 229 93l-326 338q-80 -44 -117 -96t-37 -139zM1255 618h-142q-26 -205 -109 -352l245 -266h-242l-117 121q-158 -153 -397 -153q-179 0 -295 90t-116 268q0 246 253 381q-108 133 -108 265t99 217q100 85 252 85t260 -55
v-178h-6q-106 52 -202 52q-96 -1 -146 -35t-50 -92t39 -114q39 -55 158 -184l244 -262q37 86 54 212h-141v158h467v-158z" />
    <glyph glyph-name="quotesingle" unicode="'" horiz-adv-x="402" 
d="M132 784l-9 447h169l21 -21l-52 -426h-129z" />
    <glyph glyph-name="parenleft" unicode="(" horiz-adv-x="601" 
d="M82 546q0 350 122 583q122 234 267 297l82 -160q-102 -67 -182 -252q-81 -186 -81 -464t80 -468t183 -253l-82 -160q-145 61 -267 294t-122 583z" />
    <glyph glyph-name="parenright" unicode=")" horiz-adv-x="601" 
d="M519 562q0 -350 -122 -583q-122 -234 -267 -297l-82 160q102 67 183 252q80 186 80 464t-80 468t-183 253l82 160q145 -61 267 -294t122 -583z" />
    <glyph glyph-name="asterisk" unicode="*" horiz-adv-x="910" 
d="M493 646l-20 13l-21 283l12 13l29 9l15 -7l129 -261l-8 -16zM259 706l-99 96l2 27l235 158l18 -2l23 -21v-18l-162 -239zM775 845l-256 121l-5 17l5 30l15 11l289 -22l11 -13l-35 -134zM393 1002l-287 20l-11 15l33 134l27 11l253 -123l7 -16l-7 -32zM532 1039l-18 2
l-21 22l-1 17l163 240l17 2l97 -99l-2 -24zM436 1061l-17 8l-125 258l6 17l134 37l22 -14l21 -283l-10 -15z" />
    <glyph glyph-name="plus" unicode="+" horiz-adv-x="970" 
d="M896 624v-159h-330v-344h-162v344h-331v159h333v344h160v-344h330z" />
    <glyph glyph-name="comma" unicode="," horiz-adv-x="417" 
d="M115 -8q0 104 -7 181l188 19l26 -30q0 -240 -117 -436h-129q39 162 39 266z" />
    <glyph glyph-name="hyphen" unicode="-" horiz-adv-x="785" 
d="M125 449v178h536v-178h-536z" />
    <glyph glyph-name="period" unicode="." horiz-adv-x="452" 
d="M225 -17q-61 -1 -95 35t-35 90q0 54 35 91q36 37 96 37t96 -37t35 -91q1 -54 -35 -90t-97 -35z" />
    <glyph glyph-name="slash" unicode="/" horiz-adv-x="891" 
d="M58 -223l582 1618h196l-583 -1618h-195z" />
    <glyph glyph-name="zero" unicode="0" horiz-adv-x="1204" 
d="M326 609q0 -219 74 -335t202 -116t204 116t76 335q0 218 -76 340t-204 122t-202 -122t-74 -340zM1110 609q0 -309 -140 -473t-367 -164q-228 0 -368 164t-140 472t141 478q142 170 368 170t366 -168q140 -170 140 -479z" />
    <glyph glyph-name="one" unicode="1" horiz-adv-x="733" 
d="M346 0v940l-288 -123h-10v220l471 216h41v-1253h-214z" />
    <glyph glyph-name="two" unicode="2" horiz-adv-x="1038" 
d="M698 896q0 171 -233 171q-115 0 -209 -40t-144 -85l-4 2l-2 190q147 125 387 125q179 -1 300 -89t121 -254q0 -126 -64 -214t-241 -237q-238 -194 -252 -279h594v-186h-875q-2 153 92 290q93 137 277 291q147 117 200 181t53 134z" />
    <glyph glyph-name="three" unicode="3" horiz-adv-x="1007" 
d="M451 -28q-213 0 -360 80v199l4 2q134 -99 331 -98q123 -1 202 55t79 155t-76 143t-247 47l-105 2v175h105q130 0 200 44t70 126q0 81 -59 127t-167 45q-195 0 -305 -76l-2 2v182q156 78 337 78q182 0 294 -81t112 -245t-149 -266q194 -80 201 -305q4 -177 -124 -284
t-341 -107z" />
    <glyph glyph-name="four" unicode="4" horiz-adv-x="1126" 
d="M670 423v500l-365 -500h365zM1063 423v-181h-194v-242h-199v242h-636v97l664 907h171v-823h194z" />
    <glyph glyph-name="five" unicode="5" horiz-adv-x="1025" 
d="M486 -28q-205 0 -382 69v205h4q179 -84 329 -84q285 0 285 225q0 97 -68 156t-216 59t-311 -45l-4 5l43 674h717v-184h-537l-18 -281q71 17 169 17q209 0 327 -100t118 -286q0 -315 -295 -407q-77 -23 -161 -23z" />
    <glyph glyph-name="six" unicode="6" horiz-adv-x="1109" 
d="M566 158q114 0 180 64t66 163t-60 161t-167 61q-107 0 -179 -62t-86 -163q52 -224 246 -224zM631 795q177 0 285 -104q108 -105 108 -287t-126 -308t-344 -126t-340 147q-121 147 -121 427q0 330 166 522t428 191q155 0 238 -34v-180l-5 -4q-91 34 -227 33
q-179 0 -272 -119t-112 -309q112 151 322 151z" />
    <glyph glyph-name="seven" unicode="7" horiz-adv-x="938" 
d="M47 1031v202h854v-110l-471 -1123h-227l449 1031h-605z" />
    <glyph glyph-name="eight" unicode="8" horiz-adv-x="1117" 
d="M313 335q0 -89 68 -135t187 -45q119 0 180 47q62 47 60 123q-2 75 -63 119t-162 80t-129 51q-141 -97 -141 -240zM562 1071q-100 1 -151 -37q-52 -38 -52 -102t59 -109t202 -97q7 -4 11 -4q143 80 144 201q-1 71 -57 109t-156 39zM556 -28q-218 0 -340 88
q-121 88 -121 249q-4 207 210 344q-164 107 -164 267q-1 160 119 249t303 89t303 -78q120 -80 119 -232q0 -177 -196 -296q123 -62 177 -136t56 -186q2 -158 -123 -258t-343 -100z" />
    <glyph glyph-name="nine" unicode="9" horiz-adv-x="1105" 
d="M527 614q173 0 268 142q-17 154 -87 234t-176 80t-172 -60q-66 -62 -66 -167t62 -167t171 -62zM78 832q0 190 128 309t340 119t338 -154t127 -468q0 -316 -142 -488t-404 -172q-186 0 -301 46v194l7 4q121 -60 282 -61t242 100t98 283q-115 -116 -303 -116t-300 107
t-112 297z" />
    <glyph glyph-name="colon" unicode=":" horiz-adv-x="489" 
d="M244 -17q-60 0 -92 33t-31 82q0 50 33 84q34 34 92 34t90 -34t33 -84q0 -50 -32 -82q-33 -33 -93 -33zM244 702q-60 0 -92 32t-31 82q0 50 33 84q34 34 92 34t90 -33q32 -34 33 -84q-1 -51 -33 -83t-92 -32z" />
    <glyph glyph-name="semicolon" unicode=";" horiz-adv-x="508" 
d="M162 -8q0 104 -7 181l188 19l26 -30q0 -240 -118 -436h-128q39 162 39 266zM266 704q-61 0 -96 35q-34 35 -34 89t35 92t95 37q60 0 96 -37q36 -38 36 -92t-36 -89t-96 -35z" />
    <glyph glyph-name="less" unicode="&#x3c;" horiz-adv-x="891" 
d="M261 551l35 -15l499 -288l-80 -146l-648 375v147l648 374l80 -143l-501 -289z" />
    <glyph glyph-name="equal" unicode="=" horiz-adv-x="1089" 
d="M127 253v160h836v-160h-836zM127 661v160h836v-160h-836z" />
    <glyph glyph-name="greater" unicode="&#x3e;" horiz-adv-x="891" 
d="M179 998l648 -374v-147l-648 -375l-80 144l501 288l33 15l-35 15l-499 289z" />
    <glyph glyph-name="question" unicode="?" horiz-adv-x="819" 
d="M328 -13q-60 0 -92 33q-32 34 -32 84t32 83t92 33t92 -33t31 -84q1 -51 -31 -83t-92 -33zM527 937q0 73 -50 119t-146 46q-147 0 -243 -78l-4 2v190q108 74 274 74t276 -86q109 -86 109 -245q0 -119 -49 -193t-154 -155q-119 -86 -119 -233l-192 -4q0 128 35 202t133 146
q69 52 99 97t31 118z" />
    <glyph glyph-name="at" unicode="@" horiz-adv-x="1530" 
d="M792 683q-90 -1 -142 -57t-52 -152t48 -149t125 -53q123 0 171 123v227q-60 61 -150 61zM1106 804v-458q0 -65 56 -65q115 0 115 272q0 201 -127 327q-128 126 -357 126t-377 -152q-148 -150 -148 -391t145 -383t379 -141q234 0 370 119h5l80 -119q-166 -156 -443 -157
q-331 0 -523 186t-192 494q-1 308 197 504q198 194 504 194t486 -170t180 -426q0 -196 -77 -314t-238 -118q-79 0 -125 34t-57 91q-69 -134 -229 -134q-132 0 -215 90t-83 252t93 260t225 98t214 -67l10 48h132z" />
    <glyph glyph-name="A" unicode="A" horiz-adv-x="1191" 
d="M393 408h396l-180 413l-24 69l-23 -69zM966 0l-106 246h-534l-101 -246h-218l537 1244h93l556 -1244h-227z" />
    <glyph glyph-name="B" unicode="B" horiz-adv-x="1109" 
d="M534 162q281 0 281 194q0 90 -63 143.5t-175 53.5h-199v-391h156zM539 1072q-100 0 -161 -5v-358h156q101 0 157.5 49.5t56.5 134.5t-54.5 132t-154.5 47zM1028 363q0 -173 -119.5 -268t-353.5 -95h-389v1233q151 13 333 13q451 0 451 -321q-1 -180 -142 -260
q102 -37 161 -114.5t59 -187.5z" />
    <glyph glyph-name="C" unicode="C" horiz-adv-x="1159" 
d="M88 610.5q0 292.5 180.5 469.5t472.5 177q175 0 339 -60v-205l-6 -2q-138 69 -303 69q-214 0 -336 -119t-122 -325t121 -322t341 -116q158 0 297 63l8 -2v-197q-147 -63 -337 -63q-292 2 -473.5 171t-181.5 461.5z" />
    <glyph glyph-name="D" unicode="D" horiz-adv-x="1362" 
d="M1048 621q0 208 -121 318.5t-341 110.5q-108 0 -204 -7v-848q82 -5 216 -5q223 2 336.5 112.5t113.5 318.5zM592 1249q328 0 505.5 -166.5t177.5 -461t-185 -459t-495.5 -164.5t-428.5 4v1231q238 16 426 16z" />
    <glyph glyph-name="E" unicode="E" horiz-adv-x="1038" 
d="M384 192h566v-192h-784v1233h763v-190h-545v-317h510v-188h-510v-346z" />
    <glyph glyph-name="F" unicode="F" horiz-adv-x="973" 
d="M918 1035h-534v-361h456v-192h-456v-482h-218v1233h752v-198z" />
    <glyph glyph-name="G" unicode="G" horiz-adv-x="1284" 
d="M1180 627v-556q-195 -89 -445 -90q-307 0 -477 165t-170 462t187 473t503 176q197 0 350 -62l-2 -210l-5 -2q-153 76 -357 76t-326 -121q-122 -120 -122.5 -324t112 -320.5t320.5 -116.5q132 0 235 41v231h-257v178h454z" />
    <glyph glyph-name="H" unicode="H" horiz-adv-x="1390" 
d="M1005 1233h220v-1233h-220v521h-621v-521h-218v1233h218v-514h621v514z" />
    <glyph glyph-name="I" unicode="I" horiz-adv-x="551" 
d="M166 0v1233h219v-1233h-219z" />
    <glyph glyph-name="J" unicode="J" horiz-adv-x="694" 
d="M130 -6q-45 0 -104 6v184l8 4q30 -6 68 -6q222 0 222 272v779h220v-760q-1 -479 -414 -479z" />
    <glyph glyph-name="K" unicode="K" horiz-adv-x="1204" 
d="M384 0h-218v1233h218v-537l541 537h255l2 -8l-612 -598l648 -621l-2 -6h-276l-556 525v-525z" />
    <glyph glyph-name="L" unicode="L" horiz-adv-x="938" 
d="M384 182h534v-182h-752v1233h218v-1051z" />
    <glyph glyph-name="M" unicode="M" horiz-adv-x="1601" 
d="M130 0l73 1233h190l421 -755l400 755h184l73 -1233h-203l-50 853h-4l-356 -676h-104l-367 676h-5l-45 -853h-207z" />
    <glyph glyph-name="N" unicode="N" horiz-adv-x="1375" 
d="M166 0v1233h95l735 -805h6v805h208v-1233h-93l-737 810h-6v-810h-208z" />
    <glyph glyph-name="O" unicode="O" horiz-adv-x="1457" 
d="M730 171q186 0 299.5 120t113.5 326t-113.5 325t-299.5 119t-300.5 -119t-114.5 -325t114.5 -326t300.5 -120zM734.5 -24q-274.5 0 -460.5 169.5t-186 467t181.5 472t456 174.5t459.5 -170.5t185 -468.5t-180.5 -471t-455 -173z" />
    <glyph glyph-name="P" unicode="P" horiz-adv-x="1072" 
d="M508 603q290 0 291 231q0 102 -68 162t-193 60t-156 -2v-441q79 -10 126 -10zM536 421q-71 0 -154 9v-430h-216v1233q205 11 353 11q238 0 367 -100t131 -304t-127.5 -311.5t-353.5 -107.5z" />
    <glyph glyph-name="Q" unicode="Q" horiz-adv-x="1457" 
d="M730 171q186 0 299.5 120t113.5 326t-113.5 325t-299.5 119t-300.5 -119t-114.5 -325t114.5 -326t300.5 -120zM1370 616q0 -251 -135 -416t-356 -209q35 -84 102 -133.5t186 -79.5l2 -5l-78 -158q-173 37 -271.5 129t-147.5 234q-252 19 -418 186q-166 166 -166 456
t182 464t456 174.5t459 -170t185 -472.5z" />
    <glyph glyph-name="R" unicode="R" horiz-adv-x="1130" 
d="M382 614h139q119 0 193 57t74 164t-63.5 164t-185.5 57t-157 -4v-438zM382 445v-445h-216v1233q171 11 373 11t335 -94t133 -299q0 -145 -66 -238.5t-176 -134.5l300 -472l-2 -6h-234l-276 445h-171z" />
    <glyph glyph-name="S" unicode="S" horiz-adv-x="988" 
d="M451 -22q-200 0 -350 80v212l7 4q149 -106 326 -106q108 0 171 42.5t63 118t-49 124t-189.5 108.5t-224.5 139.5t-84 208.5q0 169 118 259.5t300.5 90.5t307.5 -58v-197l-5 -2q-114 65 -280 65q-102 2 -161.5 -33.5t-59.5 -104.5q0 -41 32.5 -76.5t61.5 -51t82.5 -40.5
t63.5 -31q149 -69 227 -155.5t78 -244t-117.5 -255t-317.5 -97.5z" />
    <glyph glyph-name="T" unicode="T" horiz-adv-x="1068" 
d="M1043 1233v-196h-393v-1037h-220v1037h-404v196h1017z" />
    <glyph glyph-name="U" unicode="U" horiz-adv-x="1334" 
d="M665.5 -26q-246.5 0 -381.5 132t-135 376v751h218v-723q0 -173 78 -261.5t225 -88.5t225.5 89.5t78.5 260.5v723h212v-751q0 -242 -137 -375t-383.5 -133z" />
    <glyph glyph-name="V" unicode="V" horiz-adv-x="1178" 
d="M1167 1233l4 -8l-519 -1242h-134l-507 1242l4 8h229l331 -862l21 -81l20 81l337 862h214z" />
    <glyph glyph-name="W" unicode="W" horiz-adv-x="1794" 
d="M1771 1233l1 -8l-402 -1238h-164l-288 843l-15 56l-15 -56l-288 -843h-168l-417 1238l2 8h231l260 -859l15 -84l21 84l281 849h160l281 -828l22 -95l21 95l251 838h211z" />
    <glyph glyph-name="X" unicode="X" horiz-adv-x="1191" 
d="M737 644l443 -638l-1 -6h-257l-339 493l-320 -493h-237l-2 6l427 629l-412 590l2 8h261l303 -447l292 447h241l1 -8z" />
    <glyph glyph-name="Y" unicode="Y" horiz-adv-x="1126" 
d="M456 0v499l-445 726l2 8h235l322 -537l318 537h222l2 -8l-440 -730v-495h-216z" />
    <glyph glyph-name="Z" unicode="Z" horiz-adv-x="1107" 
d="M67 0v74l665 980h-661l-2 179h961v-75l-674 -977h687v-181h-976z" />
    <glyph glyph-name="bracketleft" unicode="[" horiz-adv-x="610" 
d="M547 1244h-203v-1378h203v-158h-389v1696h389v-160z" />
    <glyph glyph-name="backslash" unicode="\" horiz-adv-x="891" 
d="M836 -223h-196l-582 1618h195z" />
    <glyph glyph-name="bracketright" unicode="]" horiz-adv-x="610" 
d="M63 1404h389v-1696h-389v158h201v1378h-201v160z" />
    <glyph glyph-name="asciicircum" unicode="^" horiz-adv-x="964" 
d="M549 1270l339 -641l-141 -63l-250 490l-13 31l-262 -521l-146 63l339 641h134z" />
    <glyph glyph-name="underscore" unicode="_" horiz-adv-x="940" 
d="M78 -175v173h784v-173h-784z" />
    <glyph glyph-name="grave" unicode="`" horiz-adv-x="474" 
d="M387 1043l-367 204l-5 26l140 155l303 -279z" />
    <glyph glyph-name="a" unicode="a" horiz-adv-x="1070" 
d="M439.5 149q72.5 0 139.5 37t104 101v100q-80 30 -181.5 30t-160 -36.5t-58.5 -101t42 -97.5t114.5 -33zM892 -11q-162 0 -188 139q-123 -151 -330 -150q-138 0 -223.5 77t-85.5 202q0 156 113.5 231.5t263 75.5t241.5 -30v25q0 238 -257 238q-169 0 -264 -60l-6 2v177
q110 69 320.5 69t318.5 -109t108 -310v-298q0 -78 63 -78q42 0 62 19l5 -2v-188q-60 -30 -141 -30z" />
    <glyph glyph-name="b" unicode="b" horiz-adv-x="1159" 
d="M569 166q122 0 202 82t80 234.5t-72 229.5t-185 77q-73 0 -141.5 -40t-96.5 -103v-437q91 -43 213 -43zM651 985q191 0 308 -127.5t117 -362t-144 -377t-382.5 -142.5t-413.5 89v1257h220v-454q104 117 295 117z" />
    <glyph glyph-name="c" unicode="c" horiz-adv-x="925" 
d="M600 -24q-229 0 -374.5 135t-145.5 367.5t143.5 369.5t372.5 137q138 0 251 -41v-184l-7 -4q-112 43 -238 43t-211.5 -85t-85.5 -229q0 -143 85 -231q86 -88 214 -89t238 57l9 -4v-188q-104 -54 -251 -54z" />
    <glyph glyph-name="d" unicode="d" horiz-adv-x="1159" 
d="M566 171q76 0 138.5 36.5t96.5 103.5v423q-85 61 -209 61t-205.5 -86.5t-81.5 -236.5t72 -225.5t189 -75.5zM801 1322h219v-1322h-178l-21 115q-105 -139 -303 -139t-318 128q-120 130 -120 362t139.5 375.5t352.5 143.5q136 0 229 -52v389z" />
    <glyph glyph-name="e" unicode="e" horiz-adv-x="1074" 
d="M557.5 802q-95.5 0 -162 -57.5t-86.5 -167.5h473q-11 108 -70 166.5t-154.5 58.5zM556.5 985q204.5 0 322 -121t119.5 -343q0 -32 -4 -95h-689q17 -130 105.5 -198t230 -68t292.5 69l5 -2v-175q-136 -76 -345 -76t-361 126.5t-152 364.5t136 378t340.5 140z" />
    <glyph glyph-name="f" unicode="f" horiz-adv-x="664" 
d="M544 1333q88 0 139 -20v-190l-7 -2q-35 17 -97 17q-166 0 -168 -177h215v-173h-215v-788h-219v788h-132v173h132q6 181 102.5 276.5t249.5 95.5z" />
    <glyph glyph-name="g" unicode="g" horiz-adv-x="1070" 
d="M808 -56q0 32 -15 52.5t-68 34.5t-174 24t-180 19q-102 -56 -103 -128q0 -114 270 -114t270 112zM512.5 499q88.5 0 141 39t52.5 111.5t-52.5 112.5t-141 40t-140.5 -40t-52 -112.5t52 -111.5t140.5 -39zM1017 961v-157l-183 2q80 -71 80 -173q0 -132 -111.5 -212
t-292.5 -80q-88 0 -154 18q-17 -20 -17 -41q0 -39 50 -54.5t240 -30.5t284 -72t94 -199q0 -282 -489 -282q-205 0 -328 56.5t-123 178t143 206.5q-74 45 -74 136t93 158q-123 84 -123 231t112 231t296 84h503z" />
    <glyph glyph-name="h" unicode="h" horiz-adv-x="1158" 
d="M645.5 985q181.5 0 283.5 -107t102 -299v-579h-217v525q0 132 -60.5 191t-151 59t-154 -43t-89.5 -119v-613h-219v1322h219v-471q105 134 286.5 134z" />
    <glyph glyph-name="i" unicode="i" horiz-adv-x="498" 
d="M140 0v961h219v-961h-219zM248 1108q-57 0 -97.5 41t-40.5 98.5t41 97.5t97.5 40t97.5 -40t41 -97.5t-41 -98.5t-98 -41z" />
    <glyph glyph-name="j" unicode="j" horiz-adv-x="532" 
d="M43 -317q-34 0 -116 12v190l6 1q30 -6 63 -5q95 0 136 54t41 158v868h220v-918q0 -179 -90.5 -269.5t-259.5 -90.5zM282 1108q-57 0 -98 41t-41 98.5t41 97.5t98 40t98 -40t41 -97.5t-41 -98.5t-98 -41z" />
    <glyph glyph-name="k" unicode="k" horiz-adv-x="1042" 
d="M359 0h-219v1322h219v-760l393 399h253l2 -6l-447 -450l473 -499l-2 -6h-268l-404 421v-421z" />
    <glyph glyph-name="l" unicode="l" horiz-adv-x="502" 
d="M141 0v1322h222v-1322h-222z" />
    <glyph glyph-name="m" unicode="m" horiz-adv-x="1759" 
d="M1275 985q151 0 254.5 -103.5t103.5 -289.5v-592h-220v529q0 127 -56 185.5t-137 58.5q-167 0 -224 -155v-618h-220v529q0 127 -55.5 185.5t-138.5 58.5t-141.5 -43t-81.5 -121v-609h-219v961h178l21 -129q39 63 117 108t188 45q209 0 302 -173q102 173 329 173z" />
    <glyph glyph-name="n" unicode="n" horiz-adv-x="1159" 
d="M659 985q168 0 271 -107t103 -305v-573h-219v514q0 136 -62 198t-152 61.5t-153 -44.5t-88 -120v-609h-219v961h178l23 -131q47 69 128.5 112t189.5 43z" />
    <glyph glyph-name="o" unicode="o" horiz-adv-x="1180" 
d="M589 164q129 0 206.5 87.5t77.5 231t-77 228t-206.5 84.5t-207 -85.5t-77.5 -229t77.5 -230t206.5 -86.5zM588.5 -24q-217.5 0 -363 132t-145.5 367.5t146 372.5t364 137t363 -131.5t145 -368t-146 -373t-363.5 -136.5z" />
    <glyph glyph-name="p" unicode="p" horiz-adv-x="1161" 
d="M574.5 166q129.5 0 205 85.5t75.5 235t-69 226t-190 76.5q-74 0 -141.5 -41t-95.5 -102v-428q86 -52 215.5 -52zM649 985q202 0 316.5 -131.5t114.5 -359t-137 -373t-353 -145.5q-136 0 -231 50v-331h-219v1266h178l21 -118q108 142 310 142z" />
    <glyph glyph-name="q" unicode="q" horiz-adv-x="1159" 
d="M566 171q76 0 140.5 39t94.5 107v415q-82 63 -208 63t-205 -85.5t-79 -235t70 -226.5t187 -77zM1020 961v-1266h-219v394q-108 -114 -296 -113.5t-305.5 130.5t-117.5 362t138.5 374.5t325.5 142.5t286 -75l10 51h178z" />
    <glyph glyph-name="r" unicode="r" horiz-adv-x="746" 
d="M592.5 981q71.5 0 114.5 -15v-197l-5 -4q-43 17 -99 17q-216 0 -244 -250v-532h-219v961h178l21 -132q41 76 111.5 114t142 38z" />
    <glyph glyph-name="s" unicode="s" horiz-adv-x="904" 
d="M417.5 -24q-196.5 0 -333.5 69v195l5 2q141 -93 336 -93t195 106q0 54 -46.5 84t-193 70t-218 105t-71.5 188t112 203t288.5 80t292.5 -47v-186l-8 -2q-114 54 -273 54q-89 0 -143.5 -26t-54.5 -72.5t44 -71.5t172 -61q162 -41 235.5 -109.5t73.5 -200.5t-108 -209.5
t-304.5 -77.5z" />
    <glyph glyph-name="t" unicode="t" horiz-adv-x="757" 
d="M726 784h-305v-428q0 -171 152 -172q76 0 148 36l5 -2v-186q-84 -43 -224 -43t-220.5 83t-80.5 239v473h-169v177h169v232l214 43l6 -3v-272h305v-177z" />
    <glyph glyph-name="u" unicode="u" horiz-adv-x="1137" 
d="M778 961h220v-961h-179l-20 125q-99 -149 -321 -149q-168 0 -259 96.5t-91 277.5v611h220v-566q0 -231 205 -231q76 0 138.5 40t86.5 122v635z" />
    <glyph glyph-name="v" unicode="v" horiz-adv-x="1035" 
d="M1015 961l3 -6l-418 -962h-164l-416 962l2 6h239l264 -685l264 685h226z" />
    <glyph glyph-name="w" unicode="w" horiz-adv-x="1502" 
d="M1473 961l2 -6l-323 -955h-156l-229 661l-9 37l-11 -37l-237 -661h-160l-324 955l2 6h220l188 -635l7 -45l9 45l218 635h181l212 -633l9 -43l8 46l190 630h203z" />
    <glyph glyph-name="x" unicode="x" horiz-adv-x="1020" 
d="M646 492l350 -486l-2 -6h-247l-242 346l-244 -346h-231l-2 6l350 482l-337 467l2 6h249l227 -328l229 328h228l1 -6z" />
    <glyph glyph-name="y" unicode="y" horiz-adv-x="994" 
d="M210 -317q-47 0 -117 12v186l6 2q34 -11 70 -11q95 0 155 42.5t93 143.5l-395 897l4 6h233l260 -659l235 659h220l2 -6l-369 -921q-76 -195 -158 -273t-239 -78z" />
    <glyph glyph-name="z" unicode="z" horiz-adv-x="975" 
d="M910 182v-182h-841v104l531 672h-527v185h823v-110l-537 -669h551z" />
    <glyph glyph-name="braceleft" unicode="{" horiz-adv-x="649" 
d="M411 775q0 -95 -62 -155t-126 -60v-9q63 0 126 -59q62 -60 62 -155v-378q0 -65 31 -88t94 -24h49v-164h-79q-285 0 -284 265v341q0 84 -54 131t-101 47v185q50 0 102 44t53 125v341q0 264 284 264h79v-164h-49q-63 0 -94 -22t-31 -88v-377z" />
    <glyph glyph-name="bar" unicode="|" horiz-adv-x="513" 
d="M158 -194v1546h199v-1546h-199z" />
    <glyph glyph-name="braceright" unicode="}" horiz-adv-x="649" 
d="M426 821q0 -87 54 -133t105 -46v-184q-51 0 -105 -44t-54 -125v-341q0 -264 -283 -265h-76v164h48q63 -1 93 23t30 89v378q0 95 64 155t126 59v9q-63 0 -126 60t-64 155v377q0 65 -29 88q-30 22 -94 22h-48v164h76q283 0 283 -264v-341z" />
    <glyph glyph-name="asciitilde" unicode="~" horiz-adv-x="1009" 
d="M662 594q92 0 96 76l7 4l127 -26q0 -95 -61 -156q-61 -60 -137 -60t-184 36t-152 36t-71 -20q-26 -22 -28 -58l-2 -5l-136 20q0 99 60 161t145 62q84 0 188 -34q104 -36 148 -36z" />
    <glyph glyph-name="exclamdown" unicode="&#xa1;" horiz-adv-x="489" 
d="M136 -313l13 890h188l15 -890h-216zM248 760q-60 0 -92 32t-31 81q0 50 31 85q32 34 91 34t91 -34t33 -84t-31 -82t-92 -32z" />
    <glyph glyph-name="cent" unicode="&#xa2;" horiz-adv-x="1037" 
d="M694 -74h-204v184q-190 39 -298 167q-108 127 -108 329t108 338t300 173v188h206v-177q119 -7 225 -48v-186l-7 -8q-128 52 -274 52t-237 -88q-92 -88 -92 -234q0 -147 91 -236q90 -90 246 -90t275 62l8 -6v-190q-104 -50 -239 -57v-173z" />
    <glyph glyph-name="sterling" unicode="&#xa3;" horiz-adv-x="1081" 
d="M996 182v-182h-868l-7 13q123 197 123 469q0 32 -2 49h-168v178h146q-9 61 -10 114q0 210 132 321t314 111t305 -60v-191l-8 -4q-131 69 -261 69t-198 -59t-68 -174q0 -58 10 -127h368v-178h-344q2 -17 2 -51q0 -162 -56 -298h590z" />
    <glyph glyph-name="currency" unicode="&#xa4;" horiz-adv-x="1331" 
d="M357 624q1 -128 89 -218t216 -91q128 0 217 90q87 91 87 219t-87 218q-88 89 -216 89q-128 1 -217 -89t-89 -218zM1154 622q0 -140 -78 -266l153 -153l-147 -143l-151 150q-121 -80 -265 -80t-266 77l-147 -147l-145 143l145 145q-84 125 -84 274t80 270l-141 141
l145 146l142 -142q127 78 272 78t269 -84l146 148l147 -146l-149 -149q74 -122 74 -262z" />
    <glyph glyph-name="yen" unicode="&#xa5;" horiz-adv-x="1223" 
d="M1013 639v-170h-291v-108h291v-169h-291v-192h-216v192h-284v169h284v108h-284v170h201l-369 605h242l324 -555l320 555h227l-363 -605h209z" />
    <glyph glyph-name="brokenbar" unicode="&#xa6;" horiz-adv-x="528" 
d="M166 -194v585h199v-585h-199zM166 775v577h199v-577h-199z" />
    <glyph glyph-name="section" unicode="&#xa7;" horiz-adv-x="1003" 
d="M737 417q0 65 -54 110t-176 96t-187 86q-48 -57 -48 -121t52 -109q54 -43 178 -95t192 -86q43 54 43 119zM879 45q0 -145 -118 -233t-306 -89q-188 0 -315 67v186l7 4q134 -78 305 -79q203 0 203 134q0 56 -49 90q-48 34 -126 66t-87 36q-160 67 -234 133q-73 66 -73 193
t130 225q-88 80 -88 211t116 215t302 84q184 0 292 -55v-185l-4 -2q-104 61 -272 62q-89 0 -152 -34t-64 -102q0 -41 32 -72q32 -30 70 -48q127 -59 157 -64q160 -63 239 -136q80 -73 80 -197t-123 -230q78 -71 78 -180z" />
    <glyph glyph-name="dieresis" unicode="&#xa8;" horiz-adv-x="683" 
d="M545 1115q-55 0 -93.5 38.5t-38.5 92t38.5 93t92.5 39.5t94 -39t40 -93.5t-39 -92.5t-94 -38zM149 1115q-54 0 -92 38.5t-38 92t38 93t92 39.5t93 -39t39 -93.5t-39 -92.5t-93 -38z" />
    <glyph glyph-name="copyright" unicode="&#xa9;" horiz-adv-x="1290" 
d="M680 242q-134 0 -221 74t-87 205t85 208t221 77q88 0 149 -24v-129l-6 -3q-53 24 -127 24t-118 -40t-44 -109t46 -110t122 -41t125 28l5 -2v-130q-61 -28 -150 -28zM648 91q192 0 307 122q114 122 114 315q1 193 -117 314t-307 121t-305 -121t-116 -313t116 -315
t308 -123zM1203 529q1 -241 -153 -399t-404 -158t-405 158t-155 398t155 398t405 158t404 -158t153 -397z" />
    <glyph glyph-name="ordfeminine" unicode="&#xaa;" horiz-adv-x="884" 
d="M365 765q56 0 109 25t79 65v68q-71 20 -147 21q-145 0 -145 -89.5t104 -89.5zM694 639q-101 0 -122 100q-101 -110 -257 -110q-101 0 -163.5 59t-62.5 163t82 159t198 55t184 -24v9q0 169 -194 169q-119 0 -208 -42l-4 3v136q76 48 241 48.5t246 -79.5t81 -227v-207
q0 -63 45 -63q22 0 42 11l4 -2v-138q-41 -20 -112 -20z" />
    <glyph glyph-name="guillemotleft" unicode="&#xab;" horiz-adv-x="1055" 
d="M966 868v-19l-260 -320l262 -337v-15h-214l-277 348l281 343h208zM547 868v-19l-260 -320l262 -337v-15h-214l-277 348l281 343h208z" />
    <glyph glyph-name="uni00AD" unicode="&#xad;" horiz-adv-x="785" 
d="M125 449v178h536v-178h-536z" />
    <glyph glyph-name="registered" unicode="&#xae;" horiz-adv-x="1202" 
d="M519 868h69q88 0 88 70t-88 69q-56 0 -69 -2v-137zM814 944q0 -110 -88 -155l106 -154h-145l-91 132h-77v-132h-132v478q108 4 201 4q226 0 226 -173zM604 480q172 0 270 108q100 108 100 280t-102 279q-102 108 -272 108q-168 0 -271 -108t-103 -278q0 -169 102 -279
q104 -110 276 -110zM1106 868q0 -216 -139 -358t-365 -143q-226 0 -366 141q-140 142 -141 360q1 218 141 359t366 141t365 -142t139 -358z" />
    <glyph glyph-name="macron" unicode="&#xaf;" horiz-adv-x="660" 
d="M43 1143v149h560v-149h-560z" />
    <glyph glyph-name="degree" unicode="&#xb0;" horiz-adv-x="683" 
d="M218 1000q0 -56 34 -94t90 -37q55 -1 89 37t34 94t-34 94t-89 38q-56 0 -90 -38t-34 -94zM343 748q-110 0 -184 72t-73 180q0 108 74 180t183 71q111 0 183 -72q72 -71 72 -179t-72 -180t-183 -72z" />
    <glyph glyph-name="plusminus" unicode="&#xb1;" horiz-adv-x="1035" 
d="M929 490h-331v-267h318v-160h-799v160h321v267h-334v156h335v322h159v-322h331v-156z" />
    <glyph glyph-name="uni00B2" unicode="&#xb2;" horiz-adv-x="659" 
d="M60 559q0 179 193 318q95 71 124 101t29 61q0 32 -28 52t-76 21q-134 0 -224 -71l-2 2v141q104 71 229 71t200 -49t75 -135t-39 -139q-40 -53 -128 -117q-112 -74 -121 -122h315v-134h-547z" />
    <glyph glyph-name="uni00B3" unicode="&#xb3;" horiz-adv-x="633" 
d="M579 771q0 -106 -78 -167q-79 -60 -213 -60t-219 44v131l2 2q71 -45 169 -45t143 23q44 23 43 72q0 86 -109 85h-133v114h118q95 0 95 73q0 78 -126 78t-185 -36l-2 2v132q86 35 203 36q266 0 266 -183q0 -91 -82 -145q108 -50 108 -156z" />
    <glyph glyph-name="acute" unicode="&#xb4;" horiz-adv-x="474" 
d="M91 1043l-72 106l303 279l142 -155l-6 -26z" />
    <glyph glyph-name="paragraph" unicode="&#xb6;" horiz-adv-x="1120" 
d="M1026 1117v-194h-116v-1130h-59v1130h-119v-1130h-207v591q-465 0 -465 368q2 177 123 271q122 94 348 94h495z" />
    <glyph glyph-name="periodcentered" unicode="&#xb7;" horiz-adv-x="472" 
d="M236 333q-60 0 -92 32t-30 83q0 51 31 84q31 32 91 32t92 -32t32 -84q0 -51 -32 -83t-92 -32z" />
    <glyph glyph-name="cedilla" unicode="&#xb8;" horiz-adv-x="394" 
d="M166 -443q-85 0 -144 19v109l6 2q39 -13 82 -13q110 0 110 75q0 63 -80 63q-43 0 -75 -11l-4 5v92l67 102h131l-58 -86q7 2 28 2q169 -7 169 -164q0 -101 -73.5 -148t-158.5 -47z" />
    <glyph glyph-name="uni00B9" unicode="&#xb9;" horiz-adv-x="458" 
d="M195 559v467l-152 -49v174l301 100h19v-692h-168z" />
    <glyph glyph-name="ordmasculine" unicode="&#xba;" horiz-adv-x="936" 
d="M469 771q91 0 146 62q55 63 55 165t-55 164t-146 63q-91 0 -146 -62q-55 -63 -55 -165t55 -164t146 -63zM472 613q-166 0 -280 101t-114 279t110 285t276 107t281 -102q113 -102 113 -280t-110 -284t-276 -106z" />
    <glyph glyph-name="guillemotright" unicode="&#xbb;" horiz-adv-x="1055" 
d="M508 179v18l261 321l-263 337v14h215l277 -348l-281 -342h-209zM89 179v18l261 321l-262 337v14h214l277 -348l-281 -342h-209z" />
    <glyph glyph-name="onequarter" unicode="&#xbc;" horiz-adv-x="1388" 
d="M1082 227v259l-190 -259h190zM1333 227v-110h-97v-117h-154v117h-363v73l378 503h139v-466h97zM927 1233h170l-775 -1255h-167zM199 559v467l-152 -49v174l301 100h19v-692h-168z" />
    <glyph glyph-name="onehalf" unicode="&#xbd;" horiz-adv-x="1409" 
d="M804 0q0 179 194 318q95 71 124 101q29 29 29 61t-28 52t-77 21q-134 0 -223 -71l-2 2v142q104 70 229 70t200 -49q76 -49 76 -135t-40 -138q-40 -54 -128 -117q-112 -74 -121 -123h315v-134h-548zM112 -22l772 1255h170l-775 -1255h-167zM218 559v467l-153 -49v174
l302 100h18v-692h-167z" />
    <glyph glyph-name="threequarters" unicode="&#xbe;" horiz-adv-x="1450" 
d="M1141 227v259l-190 -259h190zM1393 227v-110h-97v-117h-155v117h-363v73l378 503h140v-466h97zM1033 1233h170l-775 -1255h-167zM583 771q0 -106 -78 -167q-79 -60 -213 -60t-219 44v131l1 2q71 -45 170 -45q98 0 142 23t44 72q0 86 -110 85h-132v114h117q95 0 95 73
q0 78 -126 78t-185 -36l-1 2v132q86 35 202 36q266 0 267 -183q0 -91 -82 -145q108 -50 108 -156z" />
    <glyph glyph-name="questiondown" unicode="&#xbf;" horiz-adv-x="806" 
d="M283 33q0 -73 50 -119t145 -46q147 0 244 78l4 -2v-190q-108 -74 -274 -74t-276 86q-109 86 -109 245q0 119 49 193t154 155q119 86 119 233l192 4q0 -128 -35 -202t-133 -146q-69 -52 -99 -97t-31 -118zM482 983q60 0 92 -33q32 -34 31 -84q0 -50 -32 -83
q-31 -33 -91 -33t-92 33t-31 84q-1 51 31 83t92 33z" />
    <glyph glyph-name="Agrave" unicode="&#xc0;" horiz-adv-x="1191" 
d="M393 408h396l-180 413l-24 69l-23 -69zM966 0l-106 246h-534l-101 -246h-218l537 1244h93l556 -1244h-227zM758 1303l-408 147l-11 26l108 168l354 -225z" />
    <glyph glyph-name="Aacute" unicode="&#xc1;" horiz-adv-x="1191" 
d="M393 408h396l-180 413l-24 69l-23 -69zM966 0l-106 246h-534l-101 -246h-218l537 1244h93l556 -1244h-227zM815 1450l-407 -147l-45 114l356 227l108 -168z" />
    <glyph glyph-name="Acircumflex" unicode="&#xc2;" horiz-adv-x="1191" 
d="M393 408h396l-180 413l-24 69l-23 -69zM966 0l-106 246h-534l-101 -246h-218l537 1244h93l556 -1244h-227zM583 1450l-207 -145l-71 97l231 223h99l240 -223l-74 -97z" />
    <glyph glyph-name="Atilde" unicode="&#xc3;" horiz-adv-x="1191" 
d="M393 408h396l-180 413l-24 69l-23 -69zM966 0l-106 246h-534l-101 -246h-218l537 1244h93l556 -1244h-227zM448 1573q72 0 149 -31.5t109.5 -31.5t55 20.5t22.5 52.5l4 3l135 -41q-4 -93 -58.5 -150.5t-142.5 -57.5q-45 0 -125.5 31.5t-116.5 31.5t-57 -21t-21 -53l-4 -4
l-135 39q4 91 58.5 151.5t126.5 60.5z" />
    <glyph glyph-name="Adieresis" unicode="&#xc4;" horiz-adv-x="1191" 
d="M393 408h396l-180 413l-24 69l-23 -69zM966 0l-106 246h-534l-101 -246h-218l537 1244h93l556 -1244h-227zM798.5 1346q-48.5 0 -83 34.5t-34.5 83t34.5 83t83 34.5t83 -34.5t34.5 -83t-34.5 -83t-83 -34.5zM383.5 1346q-48.5 0 -83 34.5t-34.5 83t34.5 83t83 34.5
t84 -34.5t35.5 -83t-35.5 -83t-84 -34.5z" />
    <glyph glyph-name="Aring" unicode="&#xc5;" horiz-adv-x="1191" 
d="M393 408h396l-180 413l-24 69l-23 -69zM966 0l-106 246h-534l-101 -246h-218l537 1244h93l556 -1244h-227zM590.5 1538q-34.5 0 -56.5 -22.5t-22 -56t22.5 -56t56.5 -22.5t56.5 22.5t22.5 56t-22.5 56t-57 22.5zM590.5 1275q-87.5 0 -143.5 52.5t-56 132.5t56 133
t143.5 53t143 -53t55.5 -132t-55.5 -132.5t-143 -53.5z" />
    <glyph glyph-name="AE" unicode="&#xc6;" horiz-adv-x="1562" 
d="M756 473v517l-112 -208l-186 -309h298zM977 179h496v-179h-717v318h-389l-192 -318h-223l742 1233h758v-179h-475v-328h440v-177h-440v-370z" />
    <glyph glyph-name="Ccedilla" unicode="&#xc7;" horiz-adv-x="1159" 
d="M771 1059q-214 0 -336 -119t-122 -325t121 -322t341 -116q158 0 297 63l8 -2v-197q-125 -54 -285 -61l-43 -66q7 2 28 2q169 -7 170 -164q0 -101 -74 -148t-158 -47t-145 19v109l6 2q39 -13 82 -13q110 0 110 75q0 63 -80 63q-43 0 -75 -11l-3 5v92l54 83
q-261 24 -420 191t-159 449t180.5 459t472.5 177q175 0 339 -60v-205l-6 -2q-137 69 -303 69z" />
    <glyph glyph-name="Egrave" unicode="&#xc8;" horiz-adv-x="1038" 
d="M384 192h566v-192h-784v1233h763v-190h-545v-317h510v-188h-510v-346zM739 1303l-408 147l-11 26l108 168l354 -225z" />
    <glyph glyph-name="Eacute" unicode="&#xc9;" horiz-adv-x="1038" 
d="M384 192h566v-192h-784v1233h763v-190h-545v-317h510v-188h-510v-346zM797 1450l-408 -147l-45 114l356 227l108 -168z" />
    <glyph glyph-name="Ecircumflex" unicode="&#xca;" horiz-adv-x="1038" 
d="M384 192h566v-192h-784v1233h763v-190h-545v-317h510v-188h-510v-346zM564 1450l-207 -145l-70 97l231 223h98l240 -223l-74 -97z" />
    <glyph glyph-name="Edieresis" unicode="&#xcb;" horiz-adv-x="1038" 
d="M384 192h566v-192h-784v1233h763v-190h-545v-317h510v-188h-510v-346zM780.5 1346q-48.5 0 -83 34.5t-34.5 83t34.5 83t83 34.5t82.5 -34.5t34 -83t-34 -83t-82.5 -34.5zM365 1346q-48 0 -82.5 34.5t-34.5 83t34.5 83t82.5 34.5t83.5 -34.5t35.5 -83t-35.5 -83
t-83.5 -34.5z" />
    <glyph glyph-name="Igrave" unicode="&#xcc;" horiz-adv-x="551" 
d="M166 0v1233h219v-1233h-219zM445 1303l-408 147l-11 26l108 168l354 -225z" />
    <glyph glyph-name="Iacute" unicode="&#xcd;" horiz-adv-x="551" 
d="M166 0v1233h219v-1233h-219zM95 1303l-45 114l356 227l108 -168l-11 -26z" />
    <glyph glyph-name="Icircumflex" unicode="&#xce;" horiz-adv-x="551" 
d="M166 0v1233h219v-1233h-219zM63 1305l-70 97l230 223h99l240 -223l-74 -97l-218 145z" />
    <glyph glyph-name="Idieresis" unicode="&#xcf;" horiz-adv-x="551" 
d="M166 0v1233h219v-1233h-219zM486 1346q-48 0 -82.5 34.5t-34.5 83t34.5 83t82.5 34.5t82.5 -34.5t34.5 -83t-34.5 -83t-82.5 -34.5zM70.5 1346q-48.5 0 -83 34.5t-34.5 83t34.5 83t83 34.5t84 -34.5t35.5 -83t-35.5 -83t-84 -34.5z" />
    <glyph glyph-name="Eth" unicode="&#xd0;" horiz-adv-x="1387" 
d="M1072 621q0 208 -121 318.5t-340 110.5q-108 0 -205 -7v-358h192v-149h-192v-341q80 -5 216 -5q223 2 336.5 112.5t113.5 318.5zM616 1249q328 0 506 -166.5t178 -461t-185.5 -459t-495.5 -164.5t-429 4v534h-158v149h158v548q238 16 426 16z" />
    <glyph glyph-name="Ntilde" unicode="&#xd1;" horiz-adv-x="1375" 
d="M166 0v1233h95l735 -805h6v805h208v-1233h-93l-737 810h-6v-810h-208zM550 1573q72 0 149 -31.5t110 -31.5t55 20.5t22 52.5l4 3l136 -41q-4 -93 -59 -150.5t-142 -57.5q-45 0 -126 31.5t-116.5 31.5t-56.5 -21.5t-21 -52.5l-4 -4l-136 39q4 91 58.5 151.5t126.5 60.5z
" />
    <glyph glyph-name="Ograve" unicode="&#xd2;" horiz-adv-x="1457" 
d="M730 171q186 0 299.5 120t113.5 326t-113.5 325t-299.5 119t-300.5 -119t-114.5 -325t114.5 -326t300.5 -120zM734.5 -24q-274.5 0 -460.5 169.5t-186 467t181.5 472t456 174.5t459.5 -170.5t185 -468.5t-180.5 -471t-455 -173zM897 1303l-407 147l-12 26l108 168
l354 -225z" />
    <glyph glyph-name="Oacute" unicode="&#xd3;" horiz-adv-x="1457" 
d="M730 171q186 0 299.5 120t113.5 326t-113.5 325t-299.5 119t-300.5 -119t-114.5 -325t114.5 -326t300.5 -120zM734.5 -24q-274.5 0 -460.5 169.5t-186 467t181.5 472t456 174.5t459.5 -170.5t185 -468.5t-180.5 -471t-455 -173zM547 1303l-44 114l355 227l108 -168
l-11 -26z" />
    <glyph glyph-name="Ocircumflex" unicode="&#xd4;" horiz-adv-x="1457" 
d="M730 171q186 0 299.5 120t113.5 326t-113.5 325t-299.5 119t-300.5 -119t-114.5 -325t114.5 -326t300.5 -120zM734.5 -24q-274.5 0 -460.5 169.5t-186 467t181.5 472t456 174.5t459.5 -170.5t185 -468.5t-180.5 -471t-455 -173zM516 1305l-71 97l231 223h99l240 -223
l-75 -97l-218 145z" />
    <glyph glyph-name="Otilde" unicode="&#xd5;" horiz-adv-x="1457" 
d="M730 171q186 0 299.5 120t113.5 326t-113.5 325t-299.5 119t-300.5 -119t-114.5 -325t114.5 -326t300.5 -120zM734.5 -24q-274.5 0 -460.5 169.5t-186 467t181.5 472t456 174.5t459.5 -170.5t185 -468.5t-180.5 -471t-455 -173zM587.5 1573q71.5 0 149 -31.5t110 -31.5
t54.5 20.5t22 52.5l4 3l136 -41q-4 -93 -58.5 -150.5t-142.5 -57.5q-45 0 -126 31.5t-116.5 31.5t-56.5 -21.5t-21 -52.5l-4 -4l-136 39q4 91 59 151.5t126.5 60.5z" />
    <glyph glyph-name="Odieresis" unicode="&#xd6;" horiz-adv-x="1457" 
d="M730 171q186 0 299.5 120t113.5 326t-113.5 325t-299.5 119t-300.5 -119t-114.5 -325t114.5 -326t300.5 -120zM734.5 -24q-274.5 0 -460.5 169.5t-186 467t181.5 472t456 174.5t459.5 -170.5t185 -468.5t-180.5 -471t-455 -173zM938.5 1346q-48.5 0 -83 34.5t-34.5 83
t34.5 83t83 34.5t83 -34.5t34.5 -83t-34.5 -83t-83 -34.5zM523.5 1346q-48.5 0 -83 34.5t-34.5 83t34.5 83t83 34.5t83.5 -34.5t35 -83t-35 -83t-83.5 -34.5z" />
    <glyph glyph-name="multiply" unicode="&#xd7;" horiz-adv-x="970" 
d="M869 815l-271 -271l271 -272l-111 -114l-272 272l-272 -272l-115 114l272 272l-272 271l115 114l272 -272l272 272z" />
    <glyph glyph-name="Oslash" unicode="&#xd8;" horiz-adv-x="1457" 
d="M1143 616q0 162 -74 278l-568 -661q95 -61 229 -62q186 0 299.5 120t113.5 325zM315 616q0 -164 74 -275l566 661q-97 60 -225 59q-186 0 -300.5 -119t-114.5 -326zM1372 1262v-15l-160 -186q158 -177 158 -458t-180.5 -454t-459.5 -173q-205 0 -365 98l-91 -106h-186v21
l158 184q-158 173 -158 455t181.5 456.5t460.5 174.5q199 0 359 -97l88 100h195z" />
    <glyph glyph-name="Ugrave" unicode="&#xd9;" horiz-adv-x="1334" 
d="M665.5 -26q-246.5 0 -381.5 132t-135 376v751h218v-723q0 -173 78 -261.5t225 -88.5t225.5 89.5t78.5 260.5v723h212v-751q0 -242 -137 -375t-383.5 -133zM836 1303l-408 147l-11 26l108 168l354 -225z" />
    <glyph glyph-name="Uacute" unicode="&#xda;" horiz-adv-x="1334" 
d="M665.5 -26q-246.5 0 -381.5 132t-135 376v751h218v-723q0 -173 78 -261.5t225 -88.5t225.5 89.5t78.5 260.5v723h212v-751q0 -242 -137 -375t-383.5 -133zM486 1303l-45 114l356 227l108 -168l-11 -26z" />
    <glyph glyph-name="Ucircumflex" unicode="&#xdb;" horiz-adv-x="1334" 
d="M665.5 -26q-246.5 0 -381.5 132t-135 376v751h218v-723q0 -173 78 -261.5t225 -88.5t225.5 89.5t78.5 260.5v723h212v-751q0 -242 -137 -375t-383.5 -133zM454 1305l-70 97l230 223h99l240 -223l-74 -97l-218 145z" />
    <glyph glyph-name="Udieresis" unicode="&#xdc;" horiz-adv-x="1334" 
d="M665.5 -26q-246.5 0 -381.5 132t-135 376v751h218v-723q0 -173 78 -261.5t225 -88.5t225.5 89.5t78.5 260.5v723h212v-751q0 -242 -137 -375t-383.5 -133zM877 1346q-48 0 -82.5 34.5t-34.5 83t34.5 83t82.5 34.5t82.5 -34.5t34.5 -83t-34.5 -83t-82.5 -34.5zM461.5 1346
q-48.5 0 -83 34.5t-34.5 83t34.5 83t83 34.5t84 -34.5t35.5 -83t-35.5 -83t-84 -34.5z" />
    <glyph glyph-name="Yacute" unicode="&#xdd;" horiz-adv-x="1126" 
d="M456 0v499l-445 726l2 8h235l322 -537l318 537h222l2 -8l-440 -730v-495h-216zM384 1303l-45 114l355 227l108 -168l-11 -26z" />
    <glyph glyph-name="Thorn" unicode="&#xde;" horiz-adv-x="1081" 
d="M495 389q289 0 289 233q0 104 -70 162t-202 58q-41 0 -130 -6v-441q65 -6 113 -6zM521 212q-71 0 -139 6v-218h-216v1233h216v-211q89 7 154 8q203 0 333.5 -96t132.5 -298t-127.5 -313t-353.5 -111z" />
    <glyph glyph-name="germandbls" unicode="&#xdf;" horiz-adv-x="1184" 
d="M1134 244q0 -115 -95 -191.5t-237.5 -76.5t-241.5 56v191l6 2q95 -76 225.5 -76t130.5 93q0 52 -30 85.5t-121 89.5q-69 47 -99 71t-55 68.5t-25 103t26 109t57 78.5q83 75 83 148.5t-48.5 108t-128.5 34.5q-222 0 -222 -252v-886h-219v907q0 203 119 314.5t297.5 111.5
t299 -71.5t120.5 -244.5q0 -63 -24 -115t-54 -81q-78 -75 -78.5 -120.5t30.5 -76t117.5 -92t126.5 -117.5t40 -171z" />
    <glyph glyph-name="agrave" unicode="&#xe0;" horiz-adv-x="1070" 
d="M439.5 149q72.5 0 139.5 37t104 101v100q-80 30 -181.5 30t-160 -36.5t-58.5 -101t42 -97.5t114.5 -33zM892 -11q-162 0 -188 139q-123 -151 -330 -150q-138 0 -223.5 77t-85.5 202q0 156 113.5 231.5t263 75.5t241.5 -30v25q0 238 -257 238q-169 0 -264 -60l-6 2v177
q110 69 320.5 69t318.5 -109t108 -310v-298q0 -78 63 -78q42 0 62 19l5 -2v-188q-60 -30 -141 -30zM611 1043l-367 204l-6 26l140 155l303 -279z" />
    <glyph glyph-name="aacute" unicode="&#xe1;" horiz-adv-x="1070" 
d="M439.5 149q72.5 0 139.5 37t104 101v100q-80 30 -181.5 30t-160 -36.5t-58.5 -101t42 -97.5t114.5 -33zM892 -11q-162 0 -188 139q-123 -151 -330 -150q-138 0 -223.5 77t-85.5 202q0 156 113.5 231.5t263 75.5t241.5 -30v25q0 238 -257 238q-169 0 -264 -60l-6 2v177
q110 69 320.5 69t318.5 -109t108 -310v-298q0 -78 63 -78q42 0 62 19l5 -2v-188q-60 -30 -141 -30zM719 1247l-367 -204l-73 106l304 279l141 -155z" />
    <glyph glyph-name="acircumflex" unicode="&#xe2;" horiz-adv-x="1070" 
d="M439.5 149q72.5 0 139.5 37t104 101v100q-80 30 -181.5 30t-160 -36.5t-58.5 -101t42 -97.5t114.5 -33zM892 -11q-162 0 -188 139q-123 -151 -330 -150q-138 0 -223.5 77t-85.5 202q0 156 113.5 231.5t263 75.5t241.5 -30v25q0 238 -257 238q-169 0 -264 -60l-6 2v177
q110 69 320.5 69t318.5 -109t108 -310v-298q0 -78 63 -78q42 0 62 19l5 -2v-188q-60 -30 -141 -30zM484 1218l-188 -160l-86 81l224 265h102l231 -265l-86 -81z" />
    <glyph glyph-name="atilde" unicode="&#xe3;" horiz-adv-x="1070" 
d="M439.5 149q72.5 0 139.5 37t104 101v100q-80 30 -181.5 30t-160 -36.5t-58.5 -101t42 -97.5t114.5 -33zM892 -11q-162 0 -188 139q-123 -151 -330 -150q-138 0 -223.5 77t-85.5 202q0 156 113.5 231.5t263 75.5t241.5 -30v25q0 238 -257 238q-169 0 -264 -60l-6 2v177
q110 69 320.5 69t318.5 -109t108 -310v-298q0 -78 63 -78q42 0 62 19l5 -2v-188q-60 -30 -141 -30zM335.5 1359q72.5 0 155 -33.5t118.5 -33.5t57 20.5t21 52.5l6 3l136 -33q0 -99 -56 -156.5t-142 -57.5q-52 -2 -136.5 32.5t-118.5 34.5t-54 -19.5t-20 -53.5l-6 -3l-136 33
q0 88 51.5 151t124 63z" />
    <glyph glyph-name="adieresis" unicode="&#xe4;" horiz-adv-x="1070" 
d="M439.5 149q72.5 0 139.5 37t104 101v100q-80 30 -181.5 30t-160 -36.5t-58.5 -101t42 -97.5t114.5 -33zM892 -11q-162 0 -188 139q-123 -151 -330 -150q-138 0 -223.5 77t-85.5 202q0 156 113.5 231.5t263 75.5t241.5 -30v25q0 238 -257 238q-169 0 -264 -60l-6 2v177
q110 69 320.5 69t318.5 -109t108 -310v-298q0 -78 63 -78q42 0 62 19l5 -2v-188q-60 -30 -141 -30zM692 1115q-55 0 -93.5 38.5t-38.5 92t38.5 93t92.5 39.5t94 -39t40 -93.5t-39 -92.5t-94 -38zM296 1115q-54 0 -92 38.5t-38 92t38 93t92 39.5t93 -39t39 -93.5t-39 -92.5
t-93 -38z" />
    <glyph glyph-name="aring" unicode="&#xe5;" horiz-adv-x="1070" 
d="M439.5 149q72.5 0 139.5 37t104 101v100q-80 30 -181.5 30t-160 -36.5t-58.5 -101t42 -97.5t114.5 -33zM892 -11q-162 0 -188 139q-123 -151 -330 -150q-138 0 -223.5 77t-85.5 202q0 156 113.5 231.5t263 75.5t241.5 -30v25q0 238 -257 238q-169 0 -264 -60l-6 2v177
q110 69 320.5 69t318.5 -109t108 -310v-298q0 -78 63 -78q42 0 62 19l5 -2v-188q-60 -30 -141 -30zM491 1326q-38 0 -64.5 -25.5t-26.5 -62.5t26 -63t64.5 -26t63.5 26t25 63t-25 62.5t-63 25.5zM490 1037q-91 0 -149 57.5t-58 142.5t57.5 141.5t148 56.5t148 -56.5
t57.5 -142.5t-56.5 -142.5t-147.5 -56.5z" />
    <glyph glyph-name="ae" unicode="&#xe6;" horiz-adv-x="1657" 
d="M430 153q76 0 151.5 38t118.5 99q-20 61 -26 133q-195 -4 -296.5 -35.5t-101.5 -121.5q0 -52 39 -82.5t115 -30.5zM1126 808q-89 0 -151 -61.5t-81 -176.5h458q-20 238 -226 238zM1184 158q173 0 315 80l7 -3v-179q-143 -80 -341 -80q-123 0 -229 46.5t-173 139.5
q-156 -184 -389 -184q-147 0 -230 72.5t-83 183t46 174.5q110 155 561 162q-9 229 -251 229q-169 0 -268 -62l-6 4v175q39 26 125 47.5t188 21.5q238 0 343 -147q130 147 330 147t317.5 -120t119.5 -346l-2 -96h-672q17 -127 97 -196t195 -69z" />
    <glyph glyph-name="ccedilla" unicode="&#xe7;" horiz-adv-x="925" 
d="M555.5 -443q-84.5 0 -144.5 19v109l6 2q39 -13 82 -13q110 0 110 75q0 63 -80 63q-45 0 -75 -11l-3 5v92l55 83q-194 28 -310 158.5t-116 351t143.5 357.5t372.5 137q138 0 251 -41v-184l-7 -4q-112 43 -237.5 43t-211.5 -85t-86 -229t85 -231.5t213.5 -88.5t238.5 57
l9 -4v-188q-99 -48 -220 -54l-41 -62q7 2 28 2q169 -7 170 -164q0 -101 -74 -148t-158.5 -47z" />
    <glyph glyph-name="egrave" unicode="&#xe8;" horiz-adv-x="1074" 
d="M557.5 802q-95.5 0 -162 -57.5t-86.5 -167.5h473q-11 108 -70 166.5t-154.5 58.5zM556.5 985q204.5 0 322 -121t119.5 -343q0 -32 -4 -95h-689q17 -130 105.5 -198t230 -68t292.5 69l5 -2v-175q-136 -76 -345 -76t-361 126.5t-152 364.5t136 378t340.5 140zM674 1043
l-367 204l-5 26l139 155l304 -279z" />
    <glyph glyph-name="eacute" unicode="&#xe9;" horiz-adv-x="1074" 
d="M557.5 802q-95.5 0 -162 -57.5t-86.5 -167.5h473q-11 108 -70 166.5t-154.5 58.5zM556.5 985q204.5 0 322 -121t119.5 -343q0 -32 -4 -95h-689q17 -130 105.5 -198t230 -68t292.5 69l5 -2v-175q-136 -76 -345 -76t-361 126.5t-152 364.5t136 378t340.5 140zM782 1247
l-367 -204l-72 106l303 279l142 -155z" />
    <glyph glyph-name="ecircumflex" unicode="&#xea;" horiz-adv-x="1074" 
d="M557.5 802q-95.5 0 -162 -57.5t-86.5 -167.5h473q-11 108 -70 166.5t-154.5 58.5zM556.5 985q204.5 0 322 -121t119.5 -343q0 -32 -4 -95h-689q17 -130 105.5 -198t230 -68t292.5 69l5 -2v-175q-136 -76 -345 -76t-361 126.5t-152 364.5t136 378t340.5 140zM547 1218
l-188 -160l-85 81l223 265h103l230 -265l-85 -81z" />
    <glyph glyph-name="edieresis" unicode="&#xeb;" horiz-adv-x="1074" 
d="M557.5 802q-95.5 0 -162 -57.5t-86.5 -167.5h473q-11 108 -70 166.5t-154.5 58.5zM556.5 985q204.5 0 322 -121t119.5 -343q0 -32 -4 -95h-689q17 -130 105.5 -198t230 -68t292.5 69l5 -2v-175q-136 -76 -345 -76t-361 126.5t-152 364.5t136 378t340.5 140zM755 1115
q-55 0 -93 38.5t-38 92t38 93t92 39.5t94 -39t40 -93.5t-39 -92.5t-94 -38zM359 1115q-54 0 -92 38.5t-38 92t38 93t92 39.5t93.5 -39t39.5 -93.5t-39.5 -92.5t-93.5 -38z" />
    <glyph glyph-name="igrave" unicode="&#xec;" horiz-adv-x="498" 
d="M140 0v961h219v-961h-219zM372 1043l-366 204l-6 26l140 155l303 -279z" />
    <glyph glyph-name="iacute" unicode="&#xed;" horiz-adv-x="498" 
d="M140 0v961h219v-961h-219zM114 1043l-73 106l303 279l142 -155l-6 -26z" />
    <glyph glyph-name="icircumflex" unicode="&#xee;" horiz-adv-x="498" 
d="M140 0v961h219v-961h-219zM58 1058l-86 81l223 265h103l231 -265l-86 -81l-197 160z" />
    <glyph glyph-name="idieresis" unicode="&#xef;" horiz-adv-x="498" 
d="M140 0v961h219v-961h-219zM420 1115q-55 0 -92.5 38.5t-37.5 92t38.5 93t91.5 39.5t93 -39t40 -93.5t-39 -92.5t-94 -38zM85 1115q-55 0 -93.5 38.5t-38.5 92t38.5 93t92.5 39.5t94 -39t40 -93.5t-39 -92.5t-94 -38z" />
    <glyph glyph-name="eth" unicode="&#xf0;" horiz-adv-x="1202" 
d="M581 164q281 0 292 365q-28 71 -103.5 125.5t-192 54.5t-191.5 -76t-75 -195.5t73.5 -196.5t196.5 -77zM1102 590q0 -289 -139.5 -451.5t-375 -162.5t-369.5 121t-134 330.5t134 336t327.5 126.5t309.5 -97q-41 242 -194 320l-132 -141l-112 99l76 81h-13
q-153 0 -253 -40l-7 5v184q99 39 228 39.5t204 -16.5l137 147l110 -99l-97 -106q300 -166 300 -676z" />
    <glyph glyph-name="ntilde" unicode="&#xf1;" horiz-adv-x="1159" 
d="M659 985q168 0 271 -107t103 -305v-573h-219v514q0 136 -61.5 197.5t-152 61.5t-153.5 -44t-88 -120v-609h-219v961h178l23 -131q47 69 128.5 112t189.5 43zM419 1359q73 0 155.5 -33.5t118 -33.5t57 20.5t21.5 52.5l5 3l136 -33q0 -99 -55.5 -156.5t-141.5 -57.5
q-52 -2 -137 32.5t-118.5 34.5t-54 -19.5t-20.5 -53.5l-5 -3l-136 33q0 88 51 151t124 63z" />
    <glyph glyph-name="ograve" unicode="&#xf2;" horiz-adv-x="1180" 
d="M589 164q129 0 206.5 87.5t77.5 231t-77 228t-206.5 84.5t-207 -85.5t-77.5 -229t77.5 -230t206.5 -86.5zM588.5 -24q-217.5 0 -363 132t-145.5 367.5t146 372.5t364 137t363 -131.5t145 -368t-146 -373t-363.5 -136.5zM713 1043l-367 204l-5 26l139 155l304 -279z" />
    <glyph glyph-name="oacute" unicode="&#xf3;" horiz-adv-x="1180" 
d="M589 164q129 0 206.5 87.5t77.5 231t-77 228t-206.5 84.5t-207 -85.5t-77.5 -229t77.5 -230t206.5 -86.5zM588.5 -24q-217.5 0 -363 132t-145.5 367.5t146 372.5t364 137t363 -131.5t145 -368t-146 -373t-363.5 -136.5zM454 1043l-72 106l303 279l142 -155l-6 -26z" />
    <glyph glyph-name="ocircumflex" unicode="&#xf4;" horiz-adv-x="1180" 
d="M589 164q129 0 206.5 87.5t77.5 231t-77 228t-206.5 84.5t-207 -85.5t-77.5 -229t77.5 -230t206.5 -86.5zM588.5 -24q-217.5 0 -363 132t-145.5 367.5t146 372.5t364 137t363 -131.5t145 -368t-146 -373t-363.5 -136.5zM398 1058l-85 81l223 265h103l230 -265l-85 -81
l-198 160z" />
    <glyph glyph-name="otilde" unicode="&#xf5;" horiz-adv-x="1180" 
d="M589 164q129 0 206.5 87.5t77.5 231t-77 228t-206.5 84.5t-207 -85.5t-77.5 -229t77.5 -230t206.5 -86.5zM588.5 -24q-217.5 0 -363 132t-145.5 367.5t146 372.5t364 137t363 -131.5t145 -368t-146 -373t-363.5 -136.5zM437.5 1359q72.5 0 155.5 -33.5t118.5 -33.5
t56.5 20.5t21 52.5l6 3l136 -33q0 -99 -56 -156.5t-141 -57.5q-52 -2 -137 32.5t-118.5 34.5t-54 -19.5t-20.5 -53.5l-6 -3l-135 33q0 88 51 151t123.5 63z" />
    <glyph glyph-name="odieresis" unicode="&#xf6;" horiz-adv-x="1180" 
d="M589 164q129 0 206.5 87.5t77.5 231t-77 228t-206.5 84.5t-207 -85.5t-77.5 -229t77.5 -230t206.5 -86.5zM588.5 -24q-217.5 0 -363 132t-145.5 367.5t146 372.5t364 137t363 -131.5t145 -368t-146 -373t-363.5 -136.5zM794 1115q-55 0 -93 38.5t-38 92t38 93t92 39.5
t94 -39t40 -93.5t-39 -92.5t-94 -38zM398 1115q-54 0 -92 38.5t-38 92t38 93t92 39.5t93.5 -39t39.5 -93.5t-39.5 -92.5t-93.5 -38z" />
    <glyph glyph-name="divide" unicode="&#xf7;" horiz-adv-x="1016" 
d="M508 114q-64 0 -98 34t-34 88t34 90t98 37q62 0 98 -36q36 -37 36 -91t-34 -88t-100 -34zM91 477v160h836v-160h-836zM509 741q-64 0 -98 34q-35 33 -35 89t34 92t99 36t99 -36t34 -90t-34 -90q-35 -35 -99 -35z" />
    <glyph glyph-name="oslash" unicode="&#xf8;" horiz-adv-x="1182" 
d="M875 482q0 99 -41 175l-385 -458q61 -35 141 -35q130 0 207.5 87.5t77.5 230.5zM307 502q0 -121 41 -199l382 458q-60 34 -140 34q-128 0 -205.5 -86t-77.5 -207zM1106 994v-15l-127 -150q121 -134 121 -356t-146 -359.5t-364 -137.5q-155 0 -273 67l-66 -78h-169v20
l123 147q-123 134 -123 356.5t146 359.5t362 137q151 0 272 -65l61 74h183z" />
    <glyph glyph-name="ugrave" unicode="&#xf9;" horiz-adv-x="1137" 
d="M778 961h220v-961h-179l-20 125q-99 -149 -321 -149q-168 0 -259 96.5t-91 277.5v611h220v-566q0 -231 205 -231q76 0 138.5 40t86.5 122v635zM696 1043l-366 204l-6 26l140 155l303 -279z" />
    <glyph glyph-name="uacute" unicode="&#xfa;" horiz-adv-x="1137" 
d="M778 961h220v-961h-179l-20 125q-99 -149 -321 -149q-168 0 -259 96.5t-91 277.5v611h220v-566q0 -231 205 -231q76 0 138.5 40t86.5 122v635zM804 1247l-366 -204l-73 106l303 279l142 -155z" />
    <glyph glyph-name="ucircumflex" unicode="&#xfb;" horiz-adv-x="1137" 
d="M778 961h220v-961h-179l-20 125q-99 -149 -321 -149q-168 0 -259 96.5t-91 277.5v611h220v-566q0 -231 205 -231q76 0 138.5 40t86.5 122v635zM570 1218l-188 -160l-86 81l223 265h103l231 -265l-86 -81z" />
    <glyph glyph-name="udieresis" unicode="&#xfc;" horiz-adv-x="1137" 
d="M778 961h220v-961h-179l-20 125q-99 -149 -321 -149q-168 0 -259 96.5t-91 277.5v611h220v-566q0 -231 205 -231q76 0 138.5 40t86.5 122v635zM777 1115q-55 0 -93 38.5t-38 92t38 93t92 39.5t94 -39t40 -93.5t-39 -92.5t-94 -38zM382 1115q-54 0 -92.5 38.5t-38.5 92
t38.5 93t92.5 39.5t93 -39t39 -93.5t-39 -92.5t-93 -38z" />
    <glyph glyph-name="yacute" unicode="&#xfd;" horiz-adv-x="994" 
d="M210 -317q-47 0 -117 12v186l6 2q34 -11 70 -11q95 0 155 42.5t93 143.5l-395 897l4 6h233l260 -659l235 659h220l2 -6l-369 -921q-76 -195 -158 -273t-239 -78zM739 1247l-367 -204l-72 106l303 279l142 -155z" />
    <glyph glyph-name="thorn" unicode="&#xfe;" horiz-adv-x="1161" 
d="M574.5 166q127.5 0 204 84.5t76.5 236.5t-72 227t-167.5 75t-161 -40t-95.5 -103v-428q88 -52 215.5 -52zM659.5 985q191.5 0 306 -130.5t114.5 -362t-139 -374t-345 -142.5q-141 0 -237 50v-331h-219v1627h219v-453q109 116 300.5 116z" />
    <glyph glyph-name="ydieresis" unicode="&#xff;" horiz-adv-x="994" 
d="M210 -317q-47 0 -117 12v186l6 2q34 -11 70 -11q95 0 155 42.5t93 143.5l-395 897l4 6h233l260 -659l235 659h220l2 -6l-369 -921q-76 -195 -158 -273t-239 -78zM712 1115q-55 0 -93 38.5t-38 92t38 93t92 39.5t94 -39t40 -93.5t-39 -92.5t-94 -38zM317 1115
q-54 0 -92.5 38.5t-38.5 92t38.5 93t92.5 39.5t93 -39t39 -93.5t-39 -92.5t-93 -38z" />
    <glyph glyph-name="Amacron" unicode="&#x100;" horiz-adv-x="1191" 
d="M393 408h396l-180 413l-24 69l-23 -69zM966 0l-106 246h-534l-101 -246h-218l537 1244h93l556 -1244h-227zM871 1543v-160h-564v160h564z" />
    <glyph glyph-name="amacron" unicode="&#x101;" horiz-adv-x="1070" 
d="M439.5 149q72.5 0 139.5 37t104 101v100q-80 30 -181.5 30t-160 -36.5t-58.5 -101t42 -97.5t114.5 -33zM892 -11q-162 0 -188 139q-123 -151 -330 -150q-138 0 -223.5 77t-85.5 202q0 156 113.5 231.5t263 75.5t241.5 -30v25q0 238 -257 238q-169 0 -264 -60l-6 2v177
q110 69 320.5 69t318.5 -109t108 -310v-298q0 -78 63 -78q42 0 62 19l5 -2v-188q-60 -30 -141 -30zM767 1292v-149h-560v149h560z" />
    <glyph glyph-name="Abreve" unicode="&#x102;" horiz-adv-x="1191" 
d="M393 408h396l-180 413l-24 69l-23 -69zM966 0l-106 246h-534l-101 -246h-218l537 1244h93l556 -1244h-227zM589 1320q-120 0 -201 74.5t-81 197.5l140 15q6 -63 43 -100.5t102 -37.5t105 38t44 100l132 -15q0 -123 -82 -197.5t-202 -74.5z" />
    <glyph glyph-name="abreve" unicode="&#x103;" horiz-adv-x="1070" 
d="M439.5 149q72.5 0 139.5 37t104 101v100q-80 30 -181.5 30t-160 -36.5t-58.5 -101t42 -97.5t114.5 -33zM892 -11q-162 0 -188 139q-123 -151 -330 -150q-138 0 -223.5 77t-85.5 202q0 156 113.5 231.5t263 75.5t241.5 -30v25q0 238 -257 238q-169 0 -264 -60l-6 2v177
q110 69 320.5 69t318.5 -109t108 -310v-298q0 -78 63 -78q42 0 62 19l5 -2v-188q-60 -30 -141 -30zM486 1071q-119 0 -198 76t-79 205l139 15l6 -4q4 -61 39 -98.5t95.5 -37.5t99 37t41.5 97l6 6l132 -15q0 -128 -81 -204.5t-200 -76.5z" />
    <glyph glyph-name="Aogonek" unicode="&#x104;" horiz-adv-x="1191" 
d="M393 408h396l-180 413l-24 69l-23 -69zM987 -222q0 -32 20.5 -55t56 -23t62.5 8l8 -4v-127q-48 -15 -131 -15t-144.5 42t-61.5 122q0 156 195 274h-26l-106 246h-534l-101 -246h-218l537 1244h93l556 -1244h-48q-158 -101 -158 -222z" />
    <glyph glyph-name="aogonek" unicode="&#x105;" horiz-adv-x="1070" 
d="M439.5 149q72.5 0 139.5 37t104 101v100q-80 30 -181.5 30t-160 -36.5t-58.5 -101t42 -97.5t114.5 -33zM934.5 -289q35.5 0 63.5 8l7 -4v-126q-48 -15 -131 -15t-144.5 41.5t-61.5 121.5q0 143 168 257q-110 20 -132 134q-123 -151 -330 -150q-138 0 -223.5 77t-85.5 202
q0 156 113.5 231.5t263 75.5t241.5 -30v25q0 238 -257 238q-169 0 -264 -60l-6 2v177q110 69 320.5 69t318.5 -109t108 -310v-298q0 -78 63 -78q41 0 62 19l5 -2v-188q-5 -4 -16 -8q-158 -101 -159 -221q0 -32 20.5 -55.5t56 -23.5z" />
    <glyph glyph-name="Cacute" unicode="&#x106;" horiz-adv-x="1159" 
d="M88 610.5q0 292.5 180.5 469.5t472.5 177q175 0 339 -60v-205l-6 -2q-138 69 -303 69q-214 0 -336 -119t-122 -325t121 -322t341 -116q158 0 297 63l8 -2v-197q-147 -63 -337 -63q-292 2 -473.5 171t-181.5 461.5zM514 1303l-45 114l356 227l108 -168l-11 -26z" />
    <glyph glyph-name="cacute" unicode="&#x107;" horiz-adv-x="925" 
d="M600 -24q-229 0 -374.5 135t-145.5 367.5t143.5 369.5t372.5 137q138 0 251 -41v-184l-7 -4q-112 43 -238 43t-211.5 -85t-85.5 -229q0 -143 85 -231q86 -88 214 -89t238 57l9 -4v-188q-104 -54 -251 -54zM411 1058l-72 106l303 279l142 -155l-6 -26z" />
    <glyph glyph-name="Ccircumflex" unicode="&#x108;" horiz-adv-x="1159" 
d="M88 610.5q0 292.5 180.5 469.5t472.5 177q175 0 339 -60v-205l-6 -2q-138 69 -303 69q-214 0 -336 -119t-122 -325t121 -322t341 -116q158 0 297 63l8 -2v-197q-147 -63 -337 -63q-292 2 -473.5 171t-181.5 461.5zM482 1305l-71 97l231 223h99l240 -223l-74 -97l-218 145
z" />
    <glyph glyph-name="ccircumflex" unicode="&#x109;" horiz-adv-x="925" 
d="M600 -24q-229 0 -374.5 135t-145.5 367.5t143.5 369.5t372.5 137q138 0 251 -41v-184l-7 -4q-112 43 -238 43t-211.5 -85t-85.5 -229q0 -143 85 -231q86 -88 214 -89t238 57l9 -4v-188q-104 -54 -251 -54zM356 1072l-86 82l223 265h103l231 -265l-86 -82l-197 161z" />
    <glyph glyph-name="Cdotaccent" unicode="&#x10a;" horiz-adv-x="1159" 
d="M88 610.5q0 292.5 180.5 469.5t472.5 177q175 0 339 -60v-205l-6 -2q-138 69 -303 69q-214 0 -336 -119t-122 -325t121 -322t341 -116q158 0 297 63l8 -2v-197q-147 -63 -337 -63q-292 2 -473.5 171t-181.5 461.5zM696 1342q-54 0 -92 38.5t-38 93.5t38 93t91 38
t92.5 -39t39.5 -93t-38.5 -92.5t-92.5 -38.5z" />
    <glyph glyph-name="cdotaccent" unicode="&#x10b;" horiz-adv-x="925" 
d="M600 -24q-229 0 -374.5 135t-145.5 367.5t143.5 369.5t372.5 137q138 0 251 -41v-184l-7 -4q-112 43 -237.5 43t-211.5 -85t-86 -229t85 -231.5t213.5 -88.5t238.5 57l9 -4v-188q-104 -54 -251 -54zM546 1123q-57 0 -97.5 41t-40.5 98.5t41 97.5t97.5 40t97.5 -40
t41 -97.5t-41 -98.5t-98 -41z" />
    <glyph glyph-name="Ccaron" unicode="&#x10c;" horiz-adv-x="1159" 
d="M88 610.5q0 292.5 180.5 469.5t472.5 177q175 0 339 -60v-205l-6 -2q-138 69 -303 69q-214 0 -336 -119t-122 -325t121 -322t341 -116q158 0 297 63l8 -2v-197q-147 -63 -337 -63q-292 2 -473.5 171t-181.5 461.5zM652 1307l-241 220l75 97l218 -146l206 146l71 -97
l-231 -220h-98z" />
    <glyph glyph-name="ccaron" unicode="&#x10d;" horiz-adv-x="925" 
d="M600 -24q-229 0 -374.5 135t-145.5 367.5t143.5 369.5t372.5 137q138 0 251 -41v-184l-7 -4q-112 43 -238 43t-211.5 -85t-85.5 -229q0 -143 85 -231q86 -88 214 -89t238 57l9 -4v-188q-104 -54 -251 -54zM503 1072l-233 265l87 82l198 -160l188 160l84 -82l-224 -265
h-100z" />
    <glyph glyph-name="Dcaron" unicode="&#x10e;" horiz-adv-x="1362" 
d="M1048 621q0 208 -121 318.5t-341 110.5q-108 0 -204 -7v-848q82 -5 216 -5q223 2 336.5 112.5t113.5 318.5zM592 1249q328 0 505.5 -166.5t177.5 -461t-185 -459t-495.5 -164.5t-428.5 4v1231q238 16 426 16zM674 1307h-99l-240 220l75 97l217 -146l207 146l71 -97z" />
    <glyph glyph-name="dcaron" unicode="&#x10f;" horiz-adv-x="1249" 
d="M566 171q76 0 138.5 36.5t96.5 103.5v423q-86 61 -209.5 61t-205 -86.5t-81.5 -236.5t72 -225.5t189 -75.5zM801 1322h219v-1322h-178l-21 115q-106 -140 -303.5 -139.5t-317.5 129t-120 361t139.5 376t352.5 143.5q136 0 229 -52v389zM1305 1329l19 -20l-65 -404h-131
l13 424h164z" />
    <glyph glyph-name="Dcroat" unicode="&#x110;" horiz-adv-x="1387" 
d="M1072 621q0 208 -121 318.5t-340 110.5q-108 0 -205 -7v-358h192v-149h-192v-341q80 -5 216 -5q223 2 336.5 112.5t113.5 318.5zM616 1249q328 0 506 -166.5t178 -461t-185.5 -459t-495.5 -164.5t-429 4v534h-158v149h158v548q238 16 426 16z" />
    <glyph glyph-name="dcroat" unicode="&#x111;" horiz-adv-x="1159" 
d="M566 171q76 0 138.5 36.5t96.5 103.5v423q-85 61 -209 61t-205.5 -86.5t-81.5 -236.5t72 -225.5t189 -75.5zM1147 1212v-149h-127v-1063h-178l-21 115q-105 -139 -303 -139t-318 128q-120 130 -120 362t139.5 375.5t352.5 143.5q136 0 229 -52v130h-175v149h175v110h219
v-110h127z" />
    <glyph glyph-name="Emacron" unicode="&#x112;" horiz-adv-x="1038" 
d="M384 192h566v-192h-784v1233h763v-190h-545v-317h510v-188h-510v-346zM853 1543v-160h-564v160h564z" />
    <glyph glyph-name="emacron" unicode="&#x113;" horiz-adv-x="1074" 
d="M557.5 802q-95.5 0 -162 -57.5t-86.5 -167.5h473q-11 108 -70 166.5t-154.5 58.5zM556.5 985q204.5 0 322 -121t119.5 -343q0 -32 -4 -95h-689q17 -130 105.5 -198t230 -68t292.5 69l5 -2v-175q-136 -76 -345 -76t-361 126.5t-152 364.5t136 378t340.5 140zM830 1292
v-149h-560v149h560z" />
    <glyph glyph-name="Ebreve" unicode="&#x114;" horiz-adv-x="1038" 
d="M384 192h566v-192h-784v1233h763v-190h-545v-317h510v-188h-510v-346zM571 1320q-120 0 -201 74.5t-81 197.5l139 15q6 -63 43 -100.5t102.5 -37.5t105.5 38t43 100l133 -15q0 -123 -82 -197.5t-202 -74.5z" />
    <glyph glyph-name="ebreve" unicode="&#x115;" horiz-adv-x="1074" 
d="M557.5 802q-95.5 0 -162 -57.5t-86.5 -167.5h473q-11 108 -70 166.5t-154.5 58.5zM556.5 985q204.5 0 322 -121t119.5 -343q0 -32 -4 -95h-689q17 -130 105.5 -198t230 -68t292.5 69l5 -2v-175q-136 -76 -345 -76t-361 126.5t-152 364.5t136 378t340.5 140zM549 1071
q-119 0 -198 76t-79 205l139 15l6 -4q4 -61 39.5 -98.5t95.5 -37.5t98.5 37t42.5 97l5 6l132 -15q0 -128 -81 -204.5t-200 -76.5z" />
    <glyph glyph-name="Edotaccent" unicode="&#x116;" horiz-adv-x="1038" 
d="M384 192h566v-192h-784v1233h763v-190h-545v-317h510v-188h-510v-346zM572 1342q-54 0 -92.5 38.5t-38.5 93.5t38.5 93t92.5 38t92 -39t38 -93t-38 -92.5t-92 -38.5z" />
    <glyph glyph-name="edotaccent" unicode="&#x117;" horiz-adv-x="1074" 
d="M557.5 802q-95.5 0 -162 -57.5t-86.5 -167.5h473q-11 108 -70 166.5t-154.5 58.5zM556.5 985q204.5 0 322 -121t119.5 -343q0 -32 -4 -95h-689q17 -130 105.5 -198t230 -68t292.5 69l5 -2v-175q-136 -76 -345 -76t-361 126.5t-152 364.5t136 378t340.5 140zM550 1108
q-57 0 -98 41t-41 98.5t41 97.5t98 40t98 -40t41 -97.5t-41 -98.5t-98 -41z" />
    <glyph glyph-name="Eogonek" unicode="&#x118;" horiz-adv-x="1038" 
d="M867.5 -300q35.5 0 63.5 8l7 -4v-127q-48 -15 -131 -15t-144.5 42t-61.5 122q0 156 196 274h-631v1233h763v-190h-545v-317h510v-188h-510v-346h566v-192q-158 -101 -159 -222q0 -32 20.5 -55t56 -23z" />
    <glyph glyph-name="eogonek" unicode="&#x119;" horiz-adv-x="1074" 
d="M557.5 802q-95.5 0 -162 -57.5t-86.5 -167.5h473q-11 108 -70 166.5t-154.5 58.5zM556.5 985q204.5 0 322 -121t119.5 -343q0 -32 -4 -95h-689q17 -130 105.5 -198t230 -68t292.5 69l5 -2v-175q-37 -22 -96 -43q-156 -101 -157 -219q0 -32 20.5 -55.5t56 -23.5t63.5 8
l7 -4v-126q-48 -15 -131 -15t-144.5 41.5t-61.5 121.5q0 134 144 239h-41q-214 0 -366 126.5t-152 364.5t136 378t340.5 140z" />
    <glyph glyph-name="Ecaron" unicode="&#x11a;" horiz-adv-x="1038" 
d="M384 192h566v-192h-784v1233h763v-190h-545v-317h510v-188h-510v-346zM626 1307h-99l-240 220l74 97l218 -146l207 146l70 -97z" />
    <glyph glyph-name="ecaron" unicode="&#x11b;" horiz-adv-x="1074" 
d="M557.5 802q-95.5 0 -162 -57.5t-86.5 -167.5h473q-11 108 -70 166.5t-154.5 58.5zM556.5 985q204.5 0 322 -121t119.5 -343q0 -32 -4 -95h-689q17 -130 105.5 -198t230 -68t292.5 69l5 -2v-175q-136 -76 -345 -76t-361 126.5t-152 364.5t136 378t340.5 140zM607 1058
h-101l-232 264l87 82l198 -160l188 160l83 -82z" />
    <glyph glyph-name="Gcircumflex" unicode="&#x11c;" horiz-adv-x="1284" 
d="M1180 627v-556q-195 -89 -445 -90q-307 0 -477 165t-170 462t187 473t503 176q197 0 350 -62l-2 -210l-5 -2q-153 76 -357 76t-326 -121q-122 -120 -122.5 -324t112 -320.5t320.5 -116.5q132 0 235 41v231h-257v178h454zM707 1450l-206 -145l-71 97l231 223h99l240 -223
l-75 -97z" />
    <glyph glyph-name="gcircumflex" unicode="&#x11d;" horiz-adv-x="1070" 
d="M808 -56q0 32 -15 52.5t-68 34.5t-174 24t-180 19q-102 -56 -103 -128q0 -114 270 -114t270 112zM512.5 499q88.5 0 141 39t52.5 111.5t-52.5 112.5t-141 40t-140.5 -40t-52 -112.5t52 -111.5t140.5 -39zM1017 961v-157l-183 2q80 -71 80 -173q0 -132 -111.5 -212
t-292.5 -80q-88 0 -154 18q-17 -20 -17 -41q0 -39 50 -54.5t240 -30.5t284 -72t94 -199q0 -282 -489 -282q-205 0 -328 56.5t-123 178t143 206.5q-74 45 -74 136t93 158q-123 84 -123 231t112 231t296 84h503zM505 1233l-188 -161l-86 82l223 265h103l231 -265l-86 -82z" />
    <glyph glyph-name="Gbreve" unicode="&#x11e;" horiz-adv-x="1284" 
d="M1180 627v-556q-195 -89 -445 -90q-307 0 -477 165t-170 462t187 473t503 176q197 0 350 -62l-2 -210l-5 -2q-153 76 -356.5 76t-326.5 -121t-123 -324.5t112.5 -320t320.5 -116.5q132 0 235 41v231h-257v178h454zM714 1320q-120 0 -201 74.5t-81 197.5l140 15
q6 -63 43 -100.5t102 -37.5t105 38t44 100l132 -15q0 -123 -82 -197.5t-202 -74.5z" />
    <glyph glyph-name="gbreve" unicode="&#x11f;" horiz-adv-x="1070" 
d="M808 -56q0 32 -15 52.5t-68 34.5t-174 24t-180 19q-102 -56 -103 -128q0 -114 270 -114t270 112zM512.5 499q88.5 0 141 39t52.5 111.5t-52.5 112.5t-141 40t-140.5 -40t-52 -112.5t52 -111.5t140.5 -39zM1017 961v-157l-183 2q80 -71 80 -173q0 -132 -111.5 -212
t-292.5 -80q-88 0 -154 18q-17 -20 -17 -41q0 -39 50 -54.5t240 -30.5t284 -72t94 -199q0 -282 -489 -282q-205 0 -328 56.5t-123 178t143 206.5q-74 45 -74 136t93 158q-123 84 -123 231t112 231t296 84h503zM506.5 1085q-119.5 0 -198.5 76.5t-79 205.5l140 14l5 -3
q4 -61 39.5 -98.5t95.5 -37.5t98.5 37t42.5 97l5 5l133 -14q0 -128 -81 -205t-200.5 -77z" />
    <glyph glyph-name="Gdotaccent" unicode="&#x120;" horiz-adv-x="1284" 
d="M1180 627v-556q-195 -89 -445 -90q-307 0 -477 165t-170 462t187 473t503 176q197 0 350 -62l-2 -210l-5 -2q-153 76 -357 76t-326 -121q-122 -120 -122.5 -324t112 -320.5t320.5 -116.5q132 0 235 41v231h-257v178h454zM715 1342q-54 0 -92 38.5t-38 93.5t38 93t91 38
t92 -39t39 -93t-38 -92.5t-92 -38.5z" />
    <glyph glyph-name="gdotaccent" unicode="&#x121;" horiz-adv-x="1070" 
d="M808 -56q0 32 -15 52.5t-68 34.5t-174 24t-180 19q-102 -56 -103 -128q0 -114 270 -114t270 112zM512.5 499q88.5 0 141 39t52.5 111.5t-52.5 112.5t-141 40t-140.5 -40t-52 -112.5t52 -111.5t140.5 -39zM1017 961v-157l-183 2q80 -71 80 -173q0 -132 -111.5 -212
t-292.5 -80q-88 0 -154 18q-17 -20 -17 -41q0 -39 50 -54.5t240 -30.5t284 -72t94 -199q0 -282 -489 -282q-205 0 -328 56.5t-123 178t143 206.5q-74 45 -74 136t93 158q-123 84 -123 231t112 231t296 84h503zM507 1123q-57 0 -97.5 41t-40.5 98.5t41 97.5t97.5 40t97.5 -40
t41 -97.5t-41 -98.5t-98 -41z" />
    <glyph glyph-name="Gcommaaccent" unicode="&#x122;" horiz-adv-x="1284" 
d="M633 -192l-6 95l188 15l17 -24q0 -181 -95 -335h-137q34 123 33 249zM1180 627v-556q-195 -89 -445 -90q-307 0 -477 165t-170 462t187 473t503 176q197 0 350 -62l-2 -210l-5 -2q-153 76 -356.5 76t-326.5 -121t-123 -324.5t112.5 -320t320.5 -116.5q132 0 235 41v231
h-257v178h454z" />
    <glyph glyph-name="gcommaaccent" unicode="&#x123;" horiz-adv-x="1070" 
d="M808 -56q0 32 -15 52.5t-68 34.5t-174 24t-180 19q-102 -56 -103 -128q0 -114 270 -114t270 112zM512.5 499q88.5 0 141 39t52.5 111.5t-52.5 112.5t-141 40t-140.5 -40t-52 -112.5t52 -111.5t140.5 -39zM1017 961v-157l-183 2q80 -71 80 -173q0 -132 -111.5 -212
t-292.5 -80q-88 0 -154 18q-17 -20 -17 -41q0 -39 50 -54.5t240 -30.5t284 -72t94 -199q0 -282 -489 -282q-205 0 -328 56.5t-123 178t143 206.5q-74 45 -74 136t93 158q-123 84 -123 231t112 231t296 84h503zM620 1072l-188 -14l-17 24q0 181 95 335h138q-34 -123 -34 -250
z" />
    <glyph glyph-name="Hcircumflex" unicode="&#x124;" horiz-adv-x="1390" 
d="M1005 1233h220v-1233h-220v521h-621v-521h-218v1233h218v-514h621v514zM689 1450l-207 -145l-71 97l231 223h99l240 -223l-74 -97z" />
    <glyph glyph-name="hcircumflex" unicode="&#x125;" horiz-adv-x="1158" 
d="M645.5 985q181.5 0 283.5 -107t102 -299v-579h-217v525q0 132 -60.5 191t-151 59t-154 -43t-89.5 -119v-613h-219v1322h219v-471q105 134 286.5 134zM471 1368l-218 146l-206 -146l-71 97l231 224h98l241 -224z" />
    <glyph glyph-name="Hbar" unicode="&#x126;" horiz-adv-x="1476" 
d="M1050 719v164h-624v-164h624zM1406 1033v-150h-138v-883h-218v521h-624v-521h-217v883h-138v150h138v200h217v-200h624v200h218v-200h138z" />
    <glyph glyph-name="hbar" unicode="&#x127;" horiz-adv-x="1158" 
d="M645.5 985q181.5 0 283.5 -107t102 -299v-579h-217v525q0 132 -60.5 191t-151 59t-154 -43t-89.5 -119v-613h-219v1063h-149v149h149v110h219v-110h198v-149h-198v-212q105 134 286.5 134z" />
    <glyph glyph-name="Itilde" unicode="&#x128;" horiz-adv-x="551" 
d="M166 0v1233h219v-1233h-219zM135 1573q72 0 149 -31.5t110 -31.5t55 20.5t22 52.5l4 3l136 -41q-4 -93 -59 -150.5t-142 -57.5q-45 0 -126 31.5t-116.5 31.5t-57 -21.5t-21.5 -52.5l-3 -4l-136 39q4 91 58.5 151.5t126.5 60.5z" />
    <glyph glyph-name="itilde" unicode="&#x129;" horiz-adv-x="498" 
d="M140 0v961h219v-961h-219zM97 1359q73 0 155.5 -33.5t118 -33.5t57 20.5t21.5 52.5l5 3l136 -33q0 -99 -56 -156.5t-141 -57.5q-52 -2 -137 32.5t-118.5 34.5t-54 -19.5t-20.5 -53.5l-5 -3l-136 33q0 88 51 151t124 63z" />
    <glyph glyph-name="Imacron" unicode="&#x12a;" horiz-adv-x="551" 
d="M166 0v1233h219v-1233h-219zM50 1387v166h451v-166h-451z" />
    <glyph glyph-name="imacron" unicode="&#x12b;" horiz-adv-x="498" 
d="M140 0v961h219v-961h-219zM-9 1143v149h515v-149h-515z" />
    <glyph glyph-name="Ibreve" unicode="&#x12c;" horiz-adv-x="551" 
d="M166 0v1233h219v-1233h-219zM277 1320q-120 0 -201.5 74.5t-81.5 197.5l140 15q6 -63 43 -100.5t102 -37.5t105 38t44 100l132 -15q0 -123 -81.5 -197.5t-201.5 -74.5z" />
    <glyph glyph-name="ibreve" unicode="&#x12d;" horiz-adv-x="498" 
d="M140 0v961h219v-961h-219zM247.5 1071q-119.5 0 -198.5 76t-79 205l140 15l5 -4q4 -61 39.5 -98.5t95.5 -37.5t98.5 37t42.5 97l6 6l132 -15q0 -128 -81 -204.5t-200.5 -76.5z" />
    <glyph glyph-name="Iogonek" unicode="&#x12e;" horiz-adv-x="551" 
d="M290.5 -289q35.5 0 63.5 8l7 -4v-126q-48 -15 -131 -15t-144.5 41.5t-61.5 121.5q0 149 177 263h-35v1233h219v-1233h-29q-141 -95 -142 -210q0 -32 20.5 -55.5t56 -23.5z" />
    <glyph glyph-name="iogonek" unicode="&#x12f;" horiz-adv-x="498" 
d="M140 0v961h219v-961h-22q-158 -101 -158 -222q0 -32 20.5 -55t56 -23t62.5 8l8 -4v-127q-48 -15 -131 -15t-144.5 42t-61.5 122q0 156 195 274h-44zM248 1108q-57 0 -97.5 41t-40.5 98.5t41 97.5t97.5 40t97.5 -40t41 -97.5t-41 -98.5t-98 -41z" />
    <glyph glyph-name="Idotaccent" unicode="&#x130;" horiz-adv-x="551" 
d="M166 0v1233h219v-1233h-219zM277 1342q-54 0 -92 38.5t-38 93.5t38 93t92 38t92.5 -39t38.5 -93t-38.5 -92.5t-92.5 -38.5z" />
    <glyph glyph-name="dotlessi" unicode="&#x131;" horiz-adv-x="498" 
d="M140 0v961h219v-961h-219z" />
    <glyph glyph-name="IJ" unicode="&#x132;" horiz-adv-x="1245" 
d="M681 -6q-47 0 -104 6v184l8 4q30 -6 68 -6q222 0 222 272v779h220v-760q-1 -479 -414 -479zM166 0v1233h219v-1233h-219z" />
    <glyph glyph-name="ij" unicode="&#x133;" horiz-adv-x="1007" 
d="M475 -317q-112 0 -226 34v190l4 2q89 -28 199 -28q110 1 154 73t44 264v743h218v-782q0 -266 -100 -381t-293 -115zM140 102v859h219v-859h-219zM897 1247q-1 -59 -41 -99t-97 -40t-98 41t-41 99t41 97q41 40 98 40t97 -40t41 -98zM387 1247q0 -59 -41 -99t-98 -40
q-58 0 -98 41t-40 99t41 97q41 40 97 40t98 -40q41 -40 41 -98z" />
    <glyph glyph-name="Jcircumflex" unicode="&#x134;" horiz-adv-x="694" 
d="M130 -6q-45 0 -104 6v184l8 4q30 -6 68 -6q222 0 222 272v779h220v-760q-1 -479 -414 -479zM218 1305l-71 97l231 223h99l240 -223l-75 -97l-218 145z" />
    <glyph glyph-name="jcircumflex" unicode="&#x135;" horiz-adv-x="532" 
d="M43 -317q-34 0 -116 12v190l6 1q30 -6 63 -5q95 0 136 54t41 158v868h220v-918q0 -179 -90.5 -269.5t-259.5 -90.5zM91 1058l-85 81l223 265h102l231 -265l-85 -81l-198 160z" />
    <glyph glyph-name="Kcommaaccent" unicode="&#x136;" horiz-adv-x="1204" 
d="M516 -192l-6 95l188 15l17 -24q0 -181 -95 -335h-138q34 123 34 249zM384 0h-218v1233h218v-537l541 537h255l2 -8l-612 -598l648 -621l-2 -6h-276l-556 525v-525z" />
    <glyph glyph-name="kcommaaccent" unicode="&#x137;" horiz-adv-x="1042" 
d="M438 -192l-6 95l188 15l17 -24q0 -181 -95 -335h-138q34 123 34 249zM359 0h-219v1322h219v-760l393 399h253l2 -6l-447 -450l473 -499l-2 -6h-268l-404 421v-421z" />
    <glyph glyph-name="kgreenlandic" unicode="&#x138;" horiz-adv-x="1042" 
d="M359 0h-219v961h219v-401l399 401h253l4 -6l-455 -450l473 -499l-2 -6h-268l-404 421v-421z" />
    <glyph glyph-name="Lacute" unicode="&#x139;" horiz-adv-x="938" 
d="M384 182h534v-182h-752v1233h218v-1051zM540 1476l-11 -26l-408 -147l-45 114l356 227z" />
    <glyph glyph-name="lacute" unicode="&#x13a;" horiz-adv-x="502" 
d="M141 0v1322h222v-1322h-222zM117 1404l-72 106l303 279l142 -154l-6 -26z" />
    <glyph glyph-name="Lcommaaccent" unicode="&#x13b;" horiz-adv-x="938" 
d="M449 -192l-6 95l188 15l17 -24q0 -181 -95 -335h-138q34 123 34 249zM384 182h534v-182h-752v1233h218v-1051z" />
    <glyph glyph-name="lcommaaccent" unicode="&#x13c;" horiz-adv-x="502" 
d="M155 -192l-6 95l188 15l17 -24q0 -181 -95 -335h-138q34 123 34 249zM141 0v1322h222v-1322h-222z" />
    <glyph glyph-name="Lcaron" unicode="&#x13d;" horiz-adv-x="949" 
d="M384 182h534v-182h-752v1233h218v-1051zM832 1240l-65 -402h-130l15 424h162z" />
    <glyph glyph-name="lcaron" unicode="&#x13e;" horiz-adv-x="592" 
d="M141 0v1322h222v-1322h-222zM469 905l15 424h162l21 -20l-67 -404h-131z" />
    <glyph glyph-name="Ldot" unicode="&#x13f;" horiz-adv-x="981" 
d="M748.5 611q-59.5 0 -91 31.5t-31.5 82t31.5 84t91 33.5t91 -33.5t31.5 -84t-31.5 -82t-91 -31.5zM384 182h534v-182h-752v1233h218v-1051z" />
    <glyph glyph-name="ldot" unicode="&#x140;" horiz-adv-x="703" 
d="M603.5 564q-59.5 0 -91.5 31.5t-32 82t32 84t91.5 33.5t91 -33.5t31.5 -84t-31.5 -82t-91 -31.5zM141 0v1322h222v-1322h-222z" />
    <glyph glyph-name="Lslash" unicode="&#x141;" horiz-adv-x="960" 
d="M406 182h532v-182h-752v458l-128 -80l-8 4v173l136 85v593h220v-455l130 82h8v-179l-138 -85v-414z" />
    <glyph glyph-name="lslash" unicode="&#x142;" horiz-adv-x="618" 
d="M559 901v-173l-142 -91v-637h-220v495l-123 -78h-7v173l130 84v648h220v-507l134 86h8z" />
    <glyph glyph-name="Nacute" unicode="&#x143;" horiz-adv-x="1375" 
d="M166 0v1233h95l735 -805h6v805h208v-1233h-93l-737 810h-6v-810h-208zM510 1303l-45 114l356 227l108 -168l-11 -26z" />
    <glyph glyph-name="nacute" unicode="&#x144;" horiz-adv-x="1159" 
d="M659 985q168 0 271 -107t103 -305v-573h-219v514q0 136 -62 198t-152 61.5t-153 -44.5t-88 -120v-609h-219v961h178l23 -131q47 69 128.5 112t189.5 43zM802 1247l-366 -204l-73 106l304 279l141 -155z" />
    <glyph glyph-name="Ncommaaccent" unicode="&#x145;" horiz-adv-x="1375" 
d="M600 -192l-6 95l188 15l17 -24q0 -181 -95 -335h-138q34 123 34 249zM166 0v1233h95l735 -805h6v805h208v-1233h-93l-737 810h-6v-810h-208z" />
    <glyph glyph-name="ncommaaccent" unicode="&#x146;" horiz-adv-x="1159" 
d="M471 -192l-6 95l188 15l17 -24q0 -181 -95 -335h-137q34 123 33 249zM659 985q168 0 271 -107t103 -305v-573h-219v514q0 136 -61.5 197.5t-152 61.5t-153.5 -44t-88 -120v-609h-219v961h178l23 -131q47 69 128.5 112t189.5 43z" />
    <glyph glyph-name="Ncaron" unicode="&#x147;" horiz-adv-x="1375" 
d="M166 0v1233h95l735 -805h6v805h208v-1233h-93l-737 810h-6v-810h-208zM648 1307l-240 220l74 97l218 -146l207 146l70 -97l-230 -220h-99z" />
    <glyph glyph-name="ncaron" unicode="&#x148;" horiz-adv-x="1159" 
d="M659 985q168 0 271 -107t103 -305v-573h-219v514q0 136 -62 198t-152 61.5t-153 -44.5t-88 -120v-609h-219v961h178l23 -131q47 69 128.5 112t189.5 43zM627 1058h-100l-233 264l88 82l197 -160l188 160l84 -82z" />
    <glyph glyph-name="napostrophe" unicode="&#x149;" horiz-adv-x="1314" 
d="M814 985q166 0 270 -107t104 -305v-573h-220v514q0 136 -61.5 197.5t-152.5 61.5t-153.5 -44t-86.5 -120v-609h-222v961h179l22 -131q103 155 321 155zM0 834q36 218 22 436l181 31l28 -31q-2 -194 -104 -436h-127z" />
    <glyph glyph-name="Eng" unicode="&#x14a;" horiz-adv-x="1374" 
d="M1002 1233h208v-1116q0 -482 -408 -482q-56 0 -102 8v178l2 2q34 -6 73 -5q227 0 227 281v28l-622 683h-6v-810h-208v1233h95l735 -805h6v805z" />
    <glyph glyph-name="eng" unicode="&#x14b;" horiz-adv-x="1148" 
d="M642 -209q84 0 123 46t39 152v538q0 127 -61.5 186.5t-148.5 59.5t-148.5 -42t-86.5 -118v-613h-219v961h178l25 -147q104 171 322 171q162 0 259.5 -101.5t97.5 -291.5v-640q0 -175 -87.5 -260t-243.5 -85l-82 6v178l4 4q26 -4 29 -4z" />
    <glyph glyph-name="Omacron" unicode="&#x14c;" horiz-adv-x="1457" 
d="M730 171q186 0 299.5 120t113.5 326t-113.5 325t-299.5 119t-300.5 -119t-114.5 -325t114.5 -326t300.5 -120zM734.5 -24q-274.5 0 -460.5 169.5t-186 467t181.5 472t456 174.5t459.5 -170.5t185 -468.5t-180.5 -471t-455 -173zM447 1383v160h564v-160h-564z" />
    <glyph glyph-name="omacron" unicode="&#x14d;" horiz-adv-x="1180" 
d="M589 164q129 0 206.5 87.5t77.5 231t-77 228t-206.5 84.5t-207 -85.5t-77.5 -229t77.5 -230t206.5 -86.5zM588.5 -24q-217.5 0 -363 132t-145.5 367.5t146 372.5t364 137t363 -131.5t145 -368t-146 -373t-363.5 -136.5zM309 1143v149h560v-149h-560z" />
    <glyph glyph-name="Obreve" unicode="&#x14e;" horiz-adv-x="1457" 
d="M730 171q186 0 299.5 120t113.5 326t-113.5 325t-299.5 119t-300.5 -119t-114.5 -325t114.5 -326t300.5 -120zM734.5 -24q-274.5 0 -460.5 169.5t-186 467t181.5 472t456 174.5t459.5 -170.5t185 -468.5t-180.5 -471t-455 -173zM729 1320q-120 0 -201 74.5t-81 197.5
l139 15q6 -63 43.5 -100.5t102.5 -37.5t105 38t44 100l132 -15q0 -123 -82 -197.5t-202 -74.5z" />
    <glyph glyph-name="obreve" unicode="&#x14f;" horiz-adv-x="1180" 
d="M589 164q129 0 206.5 87.5t77.5 231t-77 228t-206.5 84.5t-207 -85.5t-77.5 -229t77.5 -230t206.5 -86.5zM588.5 -24q-217.5 0 -363 132t-145.5 367.5t146 372.5t364 137t363 -131.5t145 -368t-146 -373t-363.5 -136.5zM588 1071q-119 0 -198 76t-79 205l140 15l5 -4
q4 -61 39.5 -98.5t95.5 -37.5t98.5 37t42.5 97l5 6l132 -15q0 -128 -81 -204.5t-200 -76.5z" />
    <glyph glyph-name="Ohungarumlaut" unicode="&#x150;" horiz-adv-x="1457" 
d="M730 171q186 0 299.5 120t113.5 326t-113.5 325t-299.5 119t-300.5 -119t-114.5 -325t114.5 -326t300.5 -120zM734.5 -24q-274.5 0 -460.5 169.5t-186 467t181.5 472t456 174.5t459.5 -170.5t185 -468.5t-180.5 -471t-455 -173zM931 1314l-110 47l134 309l166 -39l5 -30z
M566 1314l-108 47l132 309l168 -39l3 -30z" />
    <glyph glyph-name="ohungarumlaut" unicode="&#x151;" horiz-adv-x="1180" 
d="M589 164q129 0 206.5 87.5t77.5 231t-77 228t-206.5 84.5t-207 -85.5t-77.5 -229t77.5 -230t206.5 -86.5zM588.5 -24q-217.5 0 -363 132t-145.5 367.5t146 372.5t364 137t363 -131.5t145 -368t-146 -373t-363.5 -136.5zM769 1046l-101 54l157 322l154 -54l4 -31z
M434 1046l-99 54l157 322l156 -54l2 -31z" />
    <glyph glyph-name="OE" unicode="&#x152;" horiz-adv-x="1737" 
d="M322 620q0 -205 107 -324t279 -119t279.5 120t107.5 323t-107 323t-279 120t-279.5 -119t-107.5 -324zM1642 175v-175h-767q-82 -20 -169 -20q-253 0 -431 169t-178 467t172 471t437 173q97 0 180 -24h736v-173h-455q123 -141 147 -342h272v-172h-270q-17 -223 -149 -374
h475z" />
    <glyph glyph-name="oe" unicode="&#x153;" horiz-adv-x="1800" 
d="M573 162q120 0 191.5 87.5t71.5 231.5t-71.5 230t-190.5 86t-194 -88.5t-75 -231t74 -229t194 -86.5zM1300 808q-93 0 -154.5 -59.5t-80.5 -173.5h456q-11 115 -69.5 174t-151.5 59zM1300 985q195 0 308.5 -120t115.5 -346q0 -63 -2 -95h-661q15 -130 97 -198t221.5 -68
t281.5 71l5 -4v-173q-134 -76 -316 -76q-266 0 -400 190q-127 -190 -386 -190q-212 0 -348 133t-136 362t138 371.5t346 142.5q255 0 384 -186q123 186 352 186z" />
    <glyph glyph-name="Racute" unicode="&#x154;" horiz-adv-x="1130" 
d="M382 614h139q119 0 193 57t74 164t-63.5 164t-185.5 57t-157 -4v-438zM382 445v-445h-216v1233q171 11 373 11t335 -94t133 -299q0 -145 -66 -238.5t-176 -134.5l300 -472l-2 -6h-234l-276 445h-171zM776 1450l-407 -147l-45 114l356 227l108 -168z" />
    <glyph glyph-name="racute" unicode="&#x155;" horiz-adv-x="746" 
d="M592.5 981q71.5 0 114.5 -15v-197l-5 -4q-43 17 -99 17q-216 0 -244 -250v-532h-219v961h178l21 -132q41 76 111.5 114t142 38zM659 1247l-367 -204l-72 106l303 279l142 -155z" />
    <glyph glyph-name="Rcommaaccent" unicode="&#x156;" horiz-adv-x="1130" 
d="M471 -192l-6 95l188 15l17 -24q0 -181 -95 -335h-137q34 123 33 249zM382 614h139q119 0 193 57t74 164t-63.5 164t-185.5 57t-157 -4v-438zM382 445v-445h-216v1233q171 11 373 11t335 -94t133 -299q0 -145 -66 -238.5t-176 -134.5l300 -472l-2 -6h-234l-276 445h-171z
" />
    <glyph glyph-name="rcommaaccent" unicode="&#x157;" horiz-adv-x="746" 
d="M156 -192l-5 95l188 15l17 -24q0 -181 -95 -335h-138q34 123 33 249zM592.5 981q71.5 0 114.5 -15v-197l-5 -4q-43 17 -99 17q-216 0 -244 -250v-532h-219v961h178l21 -132q41 76 111.5 114t142 38z" />
    <glyph glyph-name="Rcaron" unicode="&#x158;" horiz-adv-x="1130" 
d="M382 614h139q119 0 193 57t74 164t-63.5 164t-185.5 57t-157 -4v-438zM382 445v-445h-216v1233q171 11 373 11t335 -94t133 -299q0 -145 -66 -238.5t-176 -134.5l300 -472l-2 -6h-234l-276 445h-171zM605 1307h-99l-240 220l75 97l218 -146l206 146l71 -97z" />
    <glyph glyph-name="rcaron" unicode="&#x159;" horiz-adv-x="746" 
d="M592.5 981q71.5 0 114.5 -15v-197l-5 -4q-43 17 -99 17q-216 0 -244 -250v-532h-219v961h178l21 -132q41 76 111.5 114t142 38zM484 1058h-100l-233 264l87 82l198 -160l188 160l83 -82z" />
    <glyph glyph-name="Sacute" unicode="&#x15a;" horiz-adv-x="988" 
d="M451 -22q-200 0 -350 80v212l7 4q149 -106 326 -106q108 0 171 42.5t63 118t-49 124t-189.5 108.5t-224.5 139.5t-84 208.5q0 169 118 259.5t300.5 90.5t307.5 -58v-197l-5 -2q-114 65 -280 65q-102 2 -161.5 -33.5t-59.5 -104.5q0 -41 32.5 -76.5t61.5 -51t82.5 -40.5
t63.5 -31q149 -69 227 -155.5t78 -244t-117.5 -255t-317.5 -97.5zM331 1303l-44 114l355 227l108 -168l-11 -26z" />
    <glyph glyph-name="sacute" unicode="&#x15b;" horiz-adv-x="904" 
d="M417.5 -24q-196.5 0 -333.5 69v195l5 2q141 -93 336 -93t195 106q0 54 -46.5 84t-193 70t-218 105t-71.5 188t112 203t288.5 80t292.5 -47v-186l-8 -2q-114 54 -273 54q-89 0 -143.5 -26t-54.5 -72.5t44 -71.5t172 -61q162 -41 235.5 -109.5t73.5 -200.5t-108 -209.5
t-304.5 -77.5zM318 1058l-72 106l303 279l142 -155l-6 -26z" />
    <glyph glyph-name="Scircumflex" unicode="&#x15c;" horiz-adv-x="988" 
d="M451 -22q-200 0 -350 80v212l7 4q149 -106 326 -106q108 0 171 42.5t63 118t-49 124t-189.5 108.5t-224.5 139.5t-84 208.5q0 169 118 259.5t300.5 90.5t307.5 -58v-197l-5 -2q-114 65 -280 65q-102 2 -161.5 -33.5t-59.5 -104.5q0 -41 32.5 -76.5t61.5 -51t82.5 -40.5
t63.5 -31q149 -69 227 -155.5t78 -244t-117.5 -255t-317.5 -97.5zM300 1305l-71 97l231 223h99l240 -223l-75 -97l-218 145z" />
    <glyph glyph-name="scircumflex" unicode="&#x15d;" horiz-adv-x="904" 
d="M417.5 -24q-196.5 0 -333.5 69v195l5 2q141 -93 336 -93t195 106q0 54 -46.5 84t-193 70t-218 105t-71.5 188t112 203t288.5 80t292.5 -47v-186l-8 -2q-114 54 -273 54q-89 0 -143.5 -26t-54.5 -72.5t44 -71.5t172 -61q162 -41 235.5 -109.5t73.5 -200.5t-108 -209.5
t-304.5 -77.5zM263 1072l-86 82l223 265h103l231 -265l-86 -82l-197 161z" />
    <glyph glyph-name="Scedilla" unicode="&#x15e;" horiz-adv-x="988" 
d="M886 343q0 -145 -87.5 -238.5t-239.5 -119.5l-49 -71q7 2 28 2q169 -7 169 -164q0 -101 -73.5 -148t-158 -47t-144.5 19v109l6 2q39 -13 82 -13q110 0 110 75q0 63 -80 63q-43 0 -75 -11l-3 5v92l52 80q-177 4 -322 80v212l7 4q149 -106 326 -106q108 0 171 42.5t63 118
t-49 124t-189.5 108.5t-224.5 139.5t-84 208.5q0 169 118 259.5t300.5 90.5t307.5 -58v-197l-5 -2q-114 65 -280 65q-102 2 -161.5 -33.5t-59.5 -104.5q0 -41 32.5 -76.5t61.5 -51t82.5 -40.5t63.5 -31q149 -69 227 -155.5t78 -231.5z" />
    <glyph glyph-name="scedilla" unicode="&#x15f;" horiz-adv-x="904" 
d="M830 273q0 -122 -81.5 -197.5t-230.5 -94.5l-45 -67q7 2 28 2q169 -7 169 -164q0 -101 -73.5 -148t-158.5 -47t-144 19v109l6 2q39 -13 82 -13q110 0 110 75q0 63 -81 63q-45 0 -74 -11l-4 5v92l52 78q-179 7 -301 69v195l5 2q141 -93 336 -93t195 106q0 54 -46.5 84
t-193 70t-218 105t-71.5 188t112 203t288.5 80t292.5 -47v-186l-8 -2q-114 54 -273 54q-89 0 -143.5 -26t-54.5 -72.5t44 -71.5t172 -61q162 -41 235.5 -109.5t73.5 -190.5z" />
    <glyph glyph-name="Scaron" unicode="&#x160;" horiz-adv-x="988" 
d="M451 -22q-200 0 -350 80v212l7 4q149 -106 326 -106q108 0 171 42.5t63 118t-49 124t-189.5 108.5t-224.5 139.5t-84 208.5q0 169 118 259.5t300.5 90.5t307.5 -58v-197l-5 -2q-114 65 -280 65q-102 2 -161.5 -33.5t-59.5 -104.5q0 -41 32.5 -76.5t61.5 -51t82.5 -40.5
t63.5 -31q149 -69 227 -155.5t78 -244t-117.5 -255t-317.5 -97.5zM469 1307l-240 220l74 97l218 -146l207 146l71 -97l-231 -220h-99z" />
    <glyph glyph-name="scaron" unicode="&#x161;" horiz-adv-x="904" 
d="M417.5 -24q-196.5 0 -333.5 69v195l5 2q141 -93 336 -93t195 106q0 54 -46.5 84t-193 70t-218 105t-71.5 188t112 203t288.5 80t292.5 -47v-186l-8 -2q-114 54 -273 54q-89 0 -143.5 -26t-54.5 -72.5t44 -71.5t172 -61q162 -41 235.5 -109.5t73.5 -200.5t-108 -209.5
t-304.5 -77.5zM410 1072l-233 265l87 82l198 -160l188 160l84 -82l-224 -265h-100z" />
    <glyph glyph-name="uni0162" unicode="&#x162;" horiz-adv-x="1068" 
d="M650 0h-43l-58 -86q7 2 28 2q169 -7 170 -164q0 -101 -73.5 -148t-158.5 -47t-144 19v109l5 2q39 -13 82 -13q110 0 110 75q0 63 -80 63q-45 0 -75 -11l-3 5v92l67 102h-47v1037h-404v196h1017v-196h-393v-1037z" />
    <glyph glyph-name="uni0163" unicode="&#x163;" horiz-adv-x="757" 
d="M726 784h-305v-428q0 -171 152 -172q76 0 148 36l5 -2v-186q-69 -35 -169 -41l-51 -77q7 2 28 2q169 -7 170 -164q0 -101 -73.5 -148t-158.5 -47t-144 19v109l5 2q39 -13 82 -13q110 0 110 75q0 63 -80 63q-45 0 -74 -11l-4 5v92l63 98q-110 20 -169.5 100.5t-59.5 214.5
v473h-169v177h169v232l214 43l6 -3v-272h305v-177z" />
    <glyph glyph-name="Tcaron" unicode="&#x164;" horiz-adv-x="1068" 
d="M1043 1233v-196h-393v-1037h-220v1037h-404v196h1017zM588 1307h-98l-241 220l75 97l218 -146l206 146l71 -97z" />
    <glyph glyph-name="tcaron" unicode="&#x165;" horiz-adv-x="750" 
d="M421 961h305v-177h-305v-428q0 -171 152 -172q76 0 148 36l5 -2v-186q-84 -43 -223.5 -43t-220.5 83t-81 239v473h-169v177h169v232l214 43l6 -3v-272zM750 1465l-69 -350h-115l15 371h151z" />
    <glyph glyph-name="Tbar" unicode="&#x166;" horiz-adv-x="1081" 
d="M1050 1037h-393v-398h166v-147h-166v-492h-219v492h-181v147h181v398h-404v196h1016v-196z" />
    <glyph glyph-name="tbar" unicode="&#x167;" horiz-adv-x="757" 
d="M726 784h-305v-199h182v-149h-182v-80q0 -171 152 -172q76 0 148 36l5 -2v-186q-84 -43 -224 -43t-220.5 83t-80.5 239v125h-164v149h164v199h-169v177h169v232l214 43l6 -3v-272h305v-177z" />
    <glyph glyph-name="Utilde" unicode="&#x168;" horiz-adv-x="1334" 
d="M665.5 -26q-246.5 0 -381.5 132t-135 376v751h218v-723q0 -173 78 -261.5t225 -88.5t225.5 89.5t78.5 260.5v723h212v-751q0 -242 -137 -375t-383.5 -133zM526 1573q72 0 149 -31.5t110 -31.5t55 20.5t22 52.5l4 3l136 -41q-4 -93 -59 -150.5t-142 -57.5q-45 0 -126 31.5
t-116.5 31.5t-57 -21.5t-21.5 -52.5l-3 -4l-136 39q4 91 58.5 151.5t126.5 60.5z" />
    <glyph glyph-name="utilde" unicode="&#x169;" horiz-adv-x="1137" 
d="M778 961h220v-961h-179l-20 125q-99 -149 -321 -149q-168 0 -259 96.5t-91 277.5v611h220v-566q0 -231 205 -231q76 0 138.5 40t86.5 122v635zM421 1359q73 0 155.5 -33.5t118 -33.5t57 20.5t21.5 52.5l5 3l136 -33q0 -99 -56 -156.5t-141 -57.5q-52 -2 -137 32.5
t-118.5 34.5t-54 -19.5t-20.5 -53.5l-5 -3l-136 33q0 88 51 151t124 63z" />
    <glyph glyph-name="Umacron" unicode="&#x16a;" horiz-adv-x="1334" 
d="M665.5 -26q-246.5 0 -381.5 132t-135 376v751h218v-723q0 -173 78 -261.5t225 -88.5t225.5 89.5t78.5 260.5v723h212v-751q0 -242 -137 -375t-383.5 -133zM385 1383v160h565v-160h-565z" />
    <glyph glyph-name="umacron" unicode="&#x16b;" horiz-adv-x="1137" 
d="M778 961h220v-961h-179l-20 125q-99 -149 -321 -149q-168 0 -259 96.5t-91 277.5v611h220v-566q0 -231 205 -231q76 0 138.5 40t86.5 122v635zM853 1292v-149h-561v149h561z" />
    <glyph glyph-name="Ubreve" unicode="&#x16c;" horiz-adv-x="1334" 
d="M665.5 -26q-246.5 0 -381.5 132t-135 376v751h218v-723q0 -173 78 -261.5t225 -88.5t225.5 89.5t78.5 260.5v723h212v-751q0 -242 -137 -375t-383.5 -133zM668 1320q-120 0 -201.5 74.5t-81.5 197.5l140 15q6 -63 43 -100.5t102 -37.5t105 38t44 100l132 -15
q0 -123 -81.5 -197.5t-201.5 -74.5z" />
    <glyph glyph-name="ubreve" unicode="&#x16d;" horiz-adv-x="1137" 
d="M778 961h220v-961h-179l-20 125q-99 -149 -321 -149q-168 0 -259 96.5t-91 277.5v611h220v-566q0 -231 205 -231q76 0 138.5 40t86.5 122v635zM571.5 1071q-119.5 0 -198.5 76t-79 205l140 15l5 -4q4 -61 39.5 -98.5t95.5 -37.5t98.5 37t42.5 97l6 6l132 -15
q0 -128 -81 -204.5t-200.5 -76.5z" />
    <glyph glyph-name="Uring" unicode="&#x16e;" horiz-adv-x="1334" 
d="M665.5 -26q-246.5 0 -381.5 132t-135 376v751h218v-723q0 -173 78 -261.5t225 -88.5t225.5 89.5t78.5 260.5v723h212v-751q0 -242 -137 -375t-383.5 -133zM668.5 1381q34.5 0 57 22.5t22.5 56t-22 56t-57 22.5t-57 -22.5t-22 -56t22 -56t56.5 -22.5zM668.5 1275
q-87.5 0 -143.5 52.5t-56 132.5t56 133t143.5 53t143.5 -53t56 -132t-56 -132.5t-143.5 -53.5z" />
    <glyph glyph-name="uring" unicode="&#x16f;" horiz-adv-x="1137" 
d="M778 961h220v-961h-179l-20 125q-99 -149 -321 -149q-168 0 -259 96.5t-91 277.5v611h220v-566q0 -231 205 -231q76 0 138.5 40t86.5 122v635zM576 1326q-38 0 -64 -25.5t-26 -62.5t26 -63t64 -26t63.5 26t25.5 63t-25.5 62.5t-63.5 25.5zM575 1037q-91 0 -148.5 57.5
t-57.5 142.5t57.5 141.5t147.5 56.5t148 -56.5t58 -142.5t-57 -142.5t-148 -56.5z" />
    <glyph glyph-name="Uhungarumlaut" unicode="&#x170;" horiz-adv-x="1334" 
d="M665.5 -26q-246.5 0 -381.5 132t-135 376v751h218v-723q0 -173 78 -261.5t225 -88.5t225.5 89.5t78.5 260.5v723h212v-751q0 -242 -137 -375t-383.5 -133zM869 1314l-109 47l134 309l165 -39l6 -30zM505 1314l-108 47l132 309l167 -39l4 -30z" />
    <glyph glyph-name="uhungarumlaut" unicode="&#x171;" horiz-adv-x="1137" 
d="M778 961h220v-961h-179l-20 125q-99 -149 -321 -149q-168 0 -259 96.5t-91 277.5v611h220v-566q0 -231 205 -231q76 0 138.5 40t86.5 122v635zM966 1337l-214 -291l-100 54l156 322l155 -54zM633 1337l-216 -291l-99 54l157 322l156 -54z" />
    <glyph glyph-name="Uogonek" unicode="&#x172;" horiz-adv-x="1334" 
d="M974 1233h212v-751q0 -188 -84 -311.5t-240 -170.5q-141 -95 -141 -210q0 -32 20 -56q19 -24 55 -23.5t64 8.5l8 -4v-126q-48 -15 -132 -15t-144.5 41.5t-60.5 121.5q0 134 139 237h-2q-249 0 -384 132t-135 376v751h218v-723q0 -173 78 -261.5t225 -88.5t225.5 89.5
t78.5 260.5v723z" />
    <glyph glyph-name="uogonek" unicode="&#x173;" horiz-adv-x="1137" 
d="M778 961h220v-961h-4q-155 -101 -154 -220q0 -32 20.5 -55t55.5 -23t63 8l8 -4v-127q-47 -15 -131 -15t-145 42t-61 122q0 158 192 272h-23l-20 125q-99 -149 -321 -149q-168 0 -259 96.5t-91 277.5v611h220v-566q0 -231 205 -231q76 0 138.5 40t86.5 122v635z" />
    <glyph glyph-name="Wcircumflex" unicode="&#x174;" horiz-adv-x="1794" 
d="M1771 1233l1 -8l-402 -1238h-164l-288 843l-15 56l-15 -56l-288 -843h-168l-417 1238l2 8h231l260 -859l15 -84l21 84l281 849h160l281 -828l22 -95l21 95l251 838h211zM892 1454l-207 -145l-71 97l231 223h99l240 -223l-74 -97z" />
    <glyph glyph-name="wcircumflex" unicode="&#x175;" horiz-adv-x="1502" 
d="M1473 961l2 -6l-323 -955h-156l-229 661l-9 37l-11 -37l-237 -661h-160l-324 955l2 6h220l188 -635l7 -45l9 45l218 635h181l212 -633l9 -43l8 46l190 630h203zM750 1234l-188 -160l-85 82l223 265h102l231 -265l-85 -82z" />
    <glyph glyph-name="Ycircumflex" unicode="&#x176;" horiz-adv-x="1126" 
d="M456 0v499l-445 726l2 8h235l322 -537l318 537h222l2 -8l-440 -730v-495h-216zM352 1305l-71 97l231 223h99l240 -223l-75 -97l-217 145z" />
    <glyph glyph-name="ycircumflex" unicode="&#x177;" horiz-adv-x="994" 
d="M210 -317q-47 0 -117 12v186l6 2q34 -11 70 -11q95 0 155 42.5t93 143.5l-395 897l4 6h233l260 -659l235 659h220l2 -6l-369 -921q-76 -195 -158 -273t-239 -78zM505 1218l-188 -160l-86 81l223 265h103l231 -265l-86 -81z" />
    <glyph glyph-name="Ydieresis" unicode="&#x178;" horiz-adv-x="1126" 
d="M456 0v499l-445 726l2 8h235l322 -537l318 537h222l2 -8l-440 -730v-495h-216zM774.5 1346q-48.5 0 -83 34.5t-34.5 83t34.5 83t83 34.5t83 -34.5t34.5 -83t-34.5 -83t-83 -34.5zM359.5 1346q-48.5 0 -83 34.5t-34.5 83t34.5 83t83 34.5t83.5 -34.5t35 -83t-35 -83
t-83.5 -34.5z" />
    <glyph glyph-name="Zacute" unicode="&#x179;" horiz-adv-x="1107" 
d="M67 0v74l665 980h-661l-2 179h961v-75l-674 -977h687v-181h-976zM367 1303l-45 114l356 227l108 -168l-11 -26z" />
    <glyph glyph-name="zacute" unicode="&#x17a;" horiz-adv-x="975" 
d="M910 182v-182h-841v104l531 672h-527v185h823v-110l-537 -669h551zM713 1247l-367 -204l-72 106l303 279l142 -155z" />
    <glyph glyph-name="Zdotaccent" unicode="&#x17b;" horiz-adv-x="1107" 
d="M67 0v74l665 980h-661l-2 179h961v-75l-674 -977h687v-181h-976zM549 1342q-54 0 -92 38.5t-38 93.5t38 93t92 38t92.5 -39t38.5 -93t-38.5 -92.5t-92.5 -38.5z" />
    <glyph glyph-name="zdotaccent" unicode="&#x17c;" horiz-adv-x="975" 
d="M910 182v-182h-841v104l531 672h-527v185h823v-110l-537 -669h551zM481 1108q-57 0 -97.5 41t-40.5 98.5t40.5 97.5t97.5 40t98 -40t41 -97.5t-41 -98.5t-98 -41z" />
    <glyph glyph-name="Zcaron" unicode="&#x17d;" horiz-adv-x="1107" 
d="M67 0v74l665 980h-661l-2 179h961v-75l-674 -977h687v-181h-976zM505 1307l-241 220l75 97l218 -146l206 146l71 -97l-231 -220h-98z" />
    <glyph glyph-name="zcaron" unicode="&#x17e;" horiz-adv-x="975" 
d="M910 182v-182h-841v104l531 672h-527v185h823v-110l-537 -669h551zM538 1058h-100l-233 264l87 82l198 -160l188 160l83 -82z" />
    <glyph glyph-name="uni018F" unicode="&#x18f;" horiz-adv-x="1444" 
d="M720.5 166q145.5 0 234.5 87.5t112 258.5h-685q13 -166 103 -256t235.5 -90zM700.5 1257q261.5 0 430.5 -159.5t169 -464.5t-164 -481t-421 -176t-409.5 162t-154.5 422q0 89 4 121h916q-15 184 -111 281t-273 97q-117 0 -216 -32.5t-214 -106.5l-8 5v188
q190 144 451.5 144z" />
    <glyph glyph-name="uni019D" unicode="&#x19d;" horiz-adv-x="1375" 
d="M1002 1233h208v-1233h-93l-737 810h-6v-736q0 -220 -99.5 -329.5t-283.5 -109.5q-54 0 -114 9v177l2 2q35 -6 74 -5q106 0 159.5 67t53.5 184v1164h95l735 -805h6v805z" />
    <glyph glyph-name="Gcaron" unicode="&#x1e6;" horiz-adv-x="1284" 
d="M1180 627v-556q-195 -89 -445 -90q-307 0 -477 165t-170 462t187 473t503 176q197 0 350 -62l-2 -210l-5 -2q-153 76 -357 76t-326 -121q-122 -120 -122.5 -324t112 -320.5t320.5 -116.5q132 0 235 41v231h-257v178h454zM769 1307h-99l-240 220l75 97l217 -146l207 146
l71 -97z" />
    <glyph glyph-name="gcaron" unicode="&#x1e7;" horiz-adv-x="1070" 
d="M808 -56q0 32 -15 52.5t-68 34.5t-174 24t-180 19q-102 -56 -103 -128q0 -114 270 -114t270 112zM512.5 499q88.5 0 141 39t52.5 111.5t-52.5 112.5t-141 40t-140.5 -40t-52 -112.5t52 -111.5t140.5 -39zM1017 961v-157l-183 2q80 -71 80 -173q0 -132 -111.5 -212
t-292.5 -80q-88 0 -154 18q-17 -20 -17 -41q0 -39 50 -54.5t240 -30.5t284 -72t94 -199q0 -282 -489 -282q-205 0 -328 56.5t-123 178t143 206.5q-74 45 -74 136t93 158q-123 84 -123 231t112 231t296 84h503zM564 1072h-100l-233 265l87 82l198 -160l188 160l84 -82z" />
    <glyph glyph-name="uni01EA" unicode="&#x1ea;" horiz-adv-x="1457" 
d="M315 617q0 -206 114.5 -326t300.5 -120t299.5 120t113.5 326t-113.5 325t-299.5 119t-300.5 -119t-114.5 -325zM847.5 -296q35.5 0 62.5 7l8 -3v-127q-48 -15 -131 -15t-144.5 42t-61.5 122q0 140 153 246h-4q-270 0 -456 169.5t-186 467t181.5 472t456 174.5
t459.5 -170.5t185 -472.5q0 -238 -121 -399t-324 -217q-155 -97 -154 -218q0 -32 20.5 -55t56 -23z" />
    <glyph glyph-name="uni01EB" unicode="&#x1eb;" horiz-adv-x="1180" 
d="M305 480q0 -143 77.5 -229.5t206.5 -86.5t206.5 87.5t77.5 231t-77 228t-206.5 84.5t-207 -86t-77.5 -229zM618 -210q0 -32 20.5 -55.5t56 -23.5t63.5 8l7 -4v-126q-48 -15 -131 -15t-144.5 41.5t-61.5 121.5q0 132 142 239q-210 6 -350 138t-140 364.5t146 369.5
t364 137t363 -131.5t145 -373.5q0 -181 -92 -305.5t-245 -172.5q-143 -101 -143 -212z" />
    <glyph glyph-name="Aringacute" unicode="&#x1fa;" horiz-adv-x="1191" 
d="M393 408h396l-180 413l-24 69l-23 -69zM966 0l-106 246h-534l-101 -246h-218l537 1244h93l556 -1244h-227zM590.5 1538q-34.5 0 -56.5 -22.5t-22 -56t22.5 -56t56.5 -22.5t56.5 22.5t22.5 56t-22.5 56t-57 22.5zM590.5 1275q-87.5 0 -143.5 52.5t-56 132.5t56 133
t137.5 53t137.5 -43l283 181l108 -168l-11 -26l-313 -114v-16q0 -78 -55.5 -131.5t-143 -53.5z" />
    <glyph glyph-name="aringacute" unicode="&#x1fb;" horiz-adv-x="1070" 
d="M439.5 149q72.5 0 139.5 37t104 101v100q-80 30 -181.5 30t-160 -36.5t-58.5 -101t42 -97.5t114.5 -33zM892 -11q-162 0 -188 139q-123 -151 -330 -150q-138 0 -223.5 77t-85.5 202q0 156 113.5 231.5t263 75.5t241.5 -30v25q0 238 -257 238q-169 0 -264 -60l-6 2v177
q110 69 320.5 69t318.5 -109t108 -310v-298q0 -78 63 -78q42 0 62 19l5 -2v-188q-60 -30 -141 -30zM491 1326q-38 0 -64.5 -25.5t-26.5 -62.5t26 -63t64.5 -26t63.5 26t25 63t-25 62.5t-63 25.5zM490 1037q-91 0 -149 57.5t-58 142.5t57.5 141.5t147.5 56.5q50 0 95 -20
l242 223l141 -154l-5 -26l-278 -155q11 -32 11 -65q0 -88 -56.5 -144.5t-147.5 -56.5z" />
    <glyph glyph-name="AEacute" unicode="&#x1fc;" horiz-adv-x="1562" 
d="M756 473v517l-112 -208l-186 -309h298zM977 179h496v-179h-717v318h-389l-192 -318h-223l742 1233h758v-179h-475v-328h440v-177h-440v-370zM1165 1458l-407 -147l-45 113l356 227l108 -167z" />
    <glyph glyph-name="aeacute" unicode="&#x1fd;" horiz-adv-x="1657" 
d="M430 153q76 0 151.5 38t118.5 99q-20 61 -26 133q-195 -4 -296.5 -35.5t-101.5 -121.5q0 -52 39 -82.5t115 -30.5zM1126 808q-89 0 -151 -61.5t-81 -176.5h458q-20 238 -226 238zM1184 158q173 0 315 80l7 -3v-179q-143 -80 -341 -80q-123 0 -229 46.5t-173 139.5
q-156 -184 -389 -184q-147 0 -230 72.5t-83 183t46 174.5q110 155 561 162q-9 229 -251 229q-169 0 -268 -62l-6 4v175q39 26 125 47.5t188 21.5q238 0 343 -147q130 147 330 147t317.5 -120t119.5 -346l-2 -96h-672q17 -127 97 -196t195 -69zM1050 1247l-367 -204l-72 106
l303 279l142 -155z" />
    <glyph glyph-name="Oslashacute" unicode="&#x1fe;" horiz-adv-x="1457" 
d="M1143 616q0 162 -74 278l-568 -661q95 -61 229 -62q186 0 299.5 120t113.5 325zM315 616q0 -164 74 -275l566 661q-97 60 -225 59q-186 0 -300.5 -119t-114.5 -326zM1372 1262v-15l-160 -186q158 -177 158 -458t-180.5 -454t-459.5 -173q-205 0 -365 98l-91 -106h-186v21
l158 184q-158 173 -158 455t181.5 456.5t460.5 174.5q199 0 359 -97l88 100h195zM955 1450l-408 -147l-44 114l355 227l108 -168z" />
    <glyph glyph-name="oslashacute" unicode="&#x1ff;" horiz-adv-x="1182" 
d="M875 482q0 99 -41 175l-385 -458q61 -35 141 -35q130 0 207.5 87.5t77.5 230.5zM307 502q0 -121 41 -199l382 458q-60 34 -140 34q-128 0 -205.5 -86t-77.5 -207zM1106 994v-15l-127 -150q121 -134 121 -356t-146 -359.5t-364 -137.5q-155 0 -273 67l-66 -78h-169v20
l123 147q-123 134 -123 356.5t146 359.5t362 137q151 0 272 -65l61 74h183zM823 1247l-367 -204l-72 106l303 279l142 -155z" />
    <glyph glyph-name="Scommaaccent" unicode="&#x218;" horiz-adv-x="988" 
d="M395 -192l-6 95l188 15l17 -24q0 -181 -95 -335h-138q34 123 34 249zM451 -22q-200 0 -350 80v212l7 4q149 -106 326 -106q108 0 171 42.5t63 118t-49 124t-189.5 108.5t-224.5 139.5t-84 208.5q0 169 118 259.5t300.5 90.5t307.5 -58v-197l-5 -2q-114 65 -280 65
q-102 2 -161.5 -33.5t-59.5 -104.5q0 -41 32.5 -76.5t61.5 -51t82.5 -40.5t63.5 -31q149 -69 227 -155.5t78 -244t-117.5 -255t-317.5 -97.5z" />
    <glyph glyph-name="scommaaccent" unicode="&#x219;" horiz-adv-x="904" 
d="M357 -192l-5 95l188 15l17 -24q0 -181 -95 -335h-138q34 123 33 249zM417.5 -24q-196.5 0 -333.5 69v195l5 2q141 -93 336 -93t195 106q0 54 -46.5 84t-193 70t-218 105t-71.5 188t112 203t288.5 80t292.5 -47v-186l-8 -2q-114 54 -273 54q-89 0 -143.5 -26t-54.5 -72.5
t44 -71.5t172 -61q162 -41 235.5 -109.5t73.5 -200.5t-108 -209.5t-304.5 -77.5z" />
    <glyph glyph-name="uni021A" unicode="&#x21a;" horiz-adv-x="1068" 
d="M434 -192l-6 95l188 15l17 -24q0 -181 -95 -335h-138q34 123 34 249zM1043 1233v-196h-393v-1037h-220v1037h-404v196h1017z" />
    <glyph glyph-name="uni021B" unicode="&#x21b;" horiz-adv-x="757" 
d="M391 -192l-6 95l188 15l17 -24q0 -181 -95 -335h-138q34 123 34 249zM726 784h-305v-428q0 -171 152 -172q76 0 148 36l5 -2v-186q-84 -43 -223.5 -43t-220.5 83t-81 239v473h-169v177h169v232l214 43l6 -3v-272h305v-177z" />
    <glyph glyph-name="uni0232" unicode="&#x232;" horiz-adv-x="1126" 
d="M456 0v499l-445 726l2 8h235l322 -537l318 537h222l2 -8l-440 -730v-495h-216zM283 1383v160h564v-160h-564z" />
    <glyph glyph-name="uni0233" unicode="&#x233;" horiz-adv-x="994" 
d="M210 -317q-47 0 -117 12v186l6 2q34 -11 70 -11q95 0 155 42.5t93 143.5l-395 897l4 6h233l260 -659l235 659h220l2 -6l-369 -921q-76 -195 -158 -273t-239 -78zM788 1292v-149h-561v149h561z" />
    <glyph glyph-name="uni0237" unicode="&#x237;" horiz-adv-x="532" 
d="M43 -317q-34 0 -116 12v190l6 1q30 -6 63 -5q95 0 136 54t41 158v868h220v-918q0 -179 -90.5 -269.5t-259.5 -90.5z" />
    <glyph glyph-name="uni0259" unicode="&#x259;" horiz-adv-x="1070" 
d="M519 158q91 0 156 57q64 57 86 169h-469q26 -226 227 -226zM502 985q212 0 350 -124t138 -368q0 -245 -133 -381t-339 -136t-323 117q-115 117 -117 346q0 63 2 95h687q-15 132 -91 200t-196 67q-190 0 -339 -112l-5 4v180q154 112 366 112z" />
    <glyph glyph-name="uni0272" unicode="&#x272;" horiz-adv-x="1159" 
d="M-20 -209q82 0 121 46t39 152v972h178l23 -131q47 69 129 112t189 43q168 0 271 -107t103 -305v-573h-219v514q0 136 -62 197t-152 61t-153 -43q-63 -44 -88 -120v-657q1 -175 -87 -260t-244 -85l-82 6v178l4 4q26 -4 30 -4z" />
    <glyph glyph-name="circumflex" unicode="&#x2c6;" horiz-adv-x="692" 
d="M155 1058l-86 81l223 265h103l231 -265l-86 -81l-197 160z" />
    <glyph glyph-name="caron" unicode="&#x2c7;" horiz-adv-x="692" 
d="M313 972l-239 277l73 75l203 -179l203 179l73 -75l-241 -277h-72z" />
    <glyph glyph-name="breve" unicode="&#x2d8;" horiz-adv-x="644" 
d="M320 1071q-119 0 -198 76t-79 205l139 15l6 -4q4 -61 39.5 -98.5t95.5 -37.5t98.5 37t42.5 97l5 6l132 -15q0 -128 -81 -204.5t-200 -76.5z" />
    <glyph glyph-name="dotaccent" unicode="&#x2d9;" horiz-adv-x="538" 
d="M269 1108q-57 0 -98 41t-41 98.5t41 97.5t98 40t98 -40t41 -97.5t-41 -98.5t-98 -41z" />
    <glyph glyph-name="ring" unicode="&#x2da;" horiz-adv-x="610" 
d="M277 1149q38 0 63 26t25 63t-25 62.5t-63 25.5t-64.5 -25.5t-26.5 -62.5t26.5 -63t64.5 -26zM275 1037q-90 0 -148 57.5t-58 142.5t57.5 141.5t148 56.5t148 -56.5t57.5 -142.5t-57.5 -142.5t-147.5 -56.5z" />
    <glyph glyph-name="ogonek" unicode="&#x2db;" horiz-adv-x="383" 
d="M234 -426q-83 0 -145 42q-61 42 -61 121q0 162 205 280l143 -6q-158 -101 -158 -221q0 -32 20 -55q35 -41 119 -16l8 -4v-126q-48 -15 -131 -15z" />
    <glyph glyph-name="tilde" unicode="&#x2dc;" horiz-adv-x="707" 
d="M201 1359q73 0 155.5 -33.5t118 -33.5t57 20.5t21.5 52.5l6 3l135 -33q0 -99 -55.5 -156.5t-141.5 -57.5q-52 -2 -136.5 32.5t-118.5 34.5t-54 -19.5t-20 -53.5l-6 -3l-136 33q0 88 51 151t124 63z" />
    <glyph glyph-name="hungarumlaut" unicode="&#x2dd;" horiz-adv-x="735" 
d="M478 1046l-100 54l156 322l155 -54l4 -31zM143 1046l-98 54l156 322l156 -54l2 -31z" />
    <glyph glyph-name="gravecomb" unicode="&#x300;" 
d="M-88 1043l-366 204l-6 26l140 155l303 -279z" />
    <glyph glyph-name="acutecomb" unicode="&#x301;" 
d="M-384 1043l-72 106l303 279l142 -155l-6 -26z" />
    <glyph glyph-name="uni0302" unicode="&#x302;" 
d="M-538 1058l-86 81l224 265h102l231 -265l-86 -81l-197 160z" />
    <glyph glyph-name="tildecomb" unicode="&#x303;" 
d="M-506.5 1359q72.5 0 155.5 -33.5t118.5 -33.5t56.5 20.5t21 52.5l6 3l136 -33q0 -99 -56 -156.5t-141 -57.5q-52 -2 -137 32.5t-118.5 34.5t-54 -19.5t-20.5 -53.5l-6 -3l-135 33q0 88 51 151t123.5 63z" />
    <glyph glyph-name="uni0304" unicode="&#x304;" 
d="M-603 1143v149h560v-149h-560z" />
    <glyph glyph-name="uni0306" unicode="&#x306;" 
d="M-324 1071q-119 0 -198 76t-79 205l139 15l6 -4q4 -61 39 -98.5t95 -37.5t99 37t42 97l6 6l132 -15q0 -128 -81 -204.5t-200 -76.5z" />
    <glyph glyph-name="uni0307" unicode="&#x307;" 
d="M-269 1108q-57 0 -98 41t-41 98.5t41 97.5t98 40t98 -40t41 -97.5t-41 -98.5t-98 -41z" />
    <glyph glyph-name="uni0308" unicode="&#x308;" 
d="M-139 1115q-55 0 -93 38.5t-38 92t38 93t92 39.5t94 -39t40 -93.5t-39 -92.5t-94 -38zM-534 1115q-54 0 -92.5 38.5t-38.5 92t38.5 93t92.5 39.5t93 -39t39 -93.5t-39 -92.5t-93 -38z" />
    <glyph glyph-name="uni030A" unicode="&#x30a;" 
d="M-273 1149q38 0 63.5 26t25.5 63t-25.5 62.5t-63.5 25.5t-64 -25.5t-26 -62.5t26 -63t64 -26zM-274 1037q-91 0 -148.5 57.5t-57.5 142.5t57.5 141.5t147.5 56.5t148 -56.5t58 -142.5t-57 -142.5t-148 -56.5z" />
    <glyph glyph-name="uni030B" unicode="&#x30b;" 
d="M-257 1046l-100 54l156 322l154 -54l4 -31zM-592 1046l-99 54l157 322l156 -54l2 -31z" />
    <glyph glyph-name="uni030C" unicode="&#x30c;" 
d="M-391 1058l-233 264l88 82l197 -160l188 160l84 -82l-223 -264h-101z" />
    <glyph glyph-name="uni0312" unicode="&#x312;" 
d="M-41 1419q-34 -123 -33 -250l5 -95l-188 -15l-17 25q0 181 95 335h138z" />
    <glyph glyph-name="dotbelowcomb" unicode="&#x323;" 
d="M-269 -408q-57 0 -98 41t-41 98t41 98t98 41t98 -41t41 -98t-41 -98t-98 -41z" />
    <glyph glyph-name="uni0326" unicode="&#x326;" 
d="M-266 -192l-6 95l188 15l17 -24q0 -181 -95 -335h-138q34 123 34 249z" />
    <glyph glyph-name="uni0327" unicode="&#x327;" 
d="M-228 -443q-85 0 -144 19v109l5 2q39 -13 82 -13q110 0 110 75q0 63 -80 63q-43 0 -75 -11l-3 5v92l67 102h130l-58 -86q7 2 28 2q169 -7 170 -164q0 -101 -73.5 -148t-158.5 -47z" />
    <glyph glyph-name="uni0328" unicode="&#x328;" 
d="M-178 -426q-83 0 -144.5 41.5t-61.5 121.5q0 162 205 280l144 -6q-158 -101 -159 -221q0 -32 20.5 -55.5t56 -23.5t63.5 8l7 -4v-126q-48 -15 -131 -15z" />
    <glyph glyph-name="uni0335" unicode="&#x335;" 
d="M-622 298v149h566v-149h-566z" />
    <glyph glyph-name="uni0336" unicode="&#x336;" 
d="M-1117 613v152h1074v-152h-1074z" />
    <glyph glyph-name="uni0337" unicode="&#x337;" 
d="M-521 417v173l484 311h7v-173l-484 -311h-7z" />
    <glyph glyph-name="uni0338" unicode="&#x338;" 
d="M-1084 -24v20l842 1008h184v-15l-854 -1013h-172z" />
    <glyph glyph-name="Wgrave" unicode="&#x1e80;" horiz-adv-x="1794" 
d="M1771 1233l1 -8l-402 -1238h-164l-288 843l-15 56l-15 -56l-288 -843h-168l-417 1238l2 8h231l260 -859l15 -84l21 84l281 849h160l281 -828l22 -95l21 95l251 838h211zM1067 1307l-408 147l-11 26l108 168l354 -226z" />
    <glyph glyph-name="wgrave" unicode="&#x1e81;" horiz-adv-x="1502" 
d="M1473 961l2 -6l-323 -955h-156l-229 661l-9 37l-11 -37l-237 -661h-160l-324 955l2 6h220l188 -635l7 -45l9 45l218 635h181l212 -633l9 -43l8 46l190 630h203zM877 1059l-367 205l-5 26l139 155l304 -280z" />
    <glyph glyph-name="Wacute" unicode="&#x1e82;" horiz-adv-x="1794" 
d="M1771 1233l1 -8l-402 -1238h-164l-288 843l-15 56l-15 -56l-288 -843h-168l-417 1238l2 8h231l260 -859l15 -84l21 84l281 849h160l281 -828l22 -95l21 95l251 838h211zM1125 1454l-408 -147l-45 114l356 227l108 -168z" />
    <glyph glyph-name="wacute" unicode="&#x1e83;" horiz-adv-x="1502" 
d="M1473 961l2 -6l-323 -955h-156l-229 661l-9 37l-11 -37l-237 -661h-160l-324 955l2 6h220l188 -635l7 -45l9 45l218 635h181l212 -633l9 -43l8 46l190 630h203zM985 1264l-367 -205l-72 106l303 280l141 -155z" />
    <glyph glyph-name="Wdieresis" unicode="&#x1e84;" horiz-adv-x="1794" 
d="M1771 1233l1 -8l-402 -1238h-164l-288 843l-15 56l-15 -56l-288 -843h-168l-417 1238l2 8h231l260 -859l15 -84l21 84l281 849h160l281 -828l22 -95l21 95l251 838h211zM1107.5 1350q-48.5 0 -83 34.5t-34.5 83t34.5 82.5t83 34t83 -34t34.5 -82.5t-34.5 -83t-83 -34.5z
M692.5 1350q-48.5 0 -83 34.5t-34.5 83t34.5 82.5t83 34t84 -34t35.5 -82.5t-35.5 -83t-84 -34.5z" />
    <glyph glyph-name="wdieresis" unicode="&#x1e85;" horiz-adv-x="1502" 
d="M1473 961l2 -6l-323 -955h-156l-229 661l-9 37l-11 -37l-237 -661h-160l-324 955l2 6h220l188 -635l7 -45l9 45l218 635h181l212 -633l9 -43l8 46l190 630h203zM958 1132q-55 0 -93 38t-38 92t38 93.5t92 39.5t94 -39.5t40 -93.5t-39 -92t-94 -38zM562 1132q-54 0 -92 38
t-38 92t38 93.5t92 39.5t93 -39.5t39 -93.5t-39 -92t-93 -38z" />
    <glyph glyph-name="uni1E9E" unicode="&#x1e9e;" horiz-adv-x="1387" 
d="M905.5 -28q-185.5 0 -320.5 60v193l5 4q130 -74 258 -74t186.5 53t58.5 144q0 166 -194 194q-80 13 -206 3v71l247 432q-67 17 -180 17q-395 0 -395 -401v-668h-220v676q0 134 39 239t101.5 168.5t148.5 104.5q152 72 346 72q268 0 425 -78v-69l-241 -389
q153 -11 251 -96.5t98 -266t-111 -285t-296.5 -104.5z" />
    <glyph glyph-name="uni1EA0" unicode="&#x1ea0;" horiz-adv-x="1191" 
d="M591 -130q57 0 98 -41t41 -98t-41 -98t-98 -41t-98 41t-41 98t41 98t98 41zM393 408h396l-180 413l-24 69l-23 -69zM1193 0h-227l-106 246h-534l-101 -246h-218l537 1244h93z" />
    <glyph glyph-name="uni1EA1" unicode="&#x1ea1;" horiz-adv-x="1070" 
d="M524 -130q57 0 98 -41t41 -98t-41 -98t-98 -41t-98 41t-41 98t41 98t98 41zM439.5 149q72.5 0 139.5 37t104 101v100q-80 30 -181.5 30t-160 -36.5t-58.5 -101t42 -97.5t114.5 -33zM892 -11q-162 0 -188 139q-123 -151 -330 -150q-138 0 -223.5 77t-85.5 202
q0 156 113.5 231.5t263 75.5t241.5 -30v25q0 238 -257 238q-169 0 -264 -60l-6 2v177q110 69 320.5 69t318.5 -109t108 -310v-298q0 -78 63 -78q42 0 62 19l5 -2v-188q-60 -30 -141 -30z" />
    <glyph glyph-name="uni1EB8" unicode="&#x1eb8;" horiz-adv-x="1038" 
d="M593 -130q57 0 98 -41t41 -98t-41 -98t-98 -41t-98 41t-41 98t41 98t98 41zM384 192h566v-192h-784v1233h763v-190h-545v-317h510v-188h-510v-346z" />
    <glyph glyph-name="uni1EB9" unicode="&#x1eb9;" horiz-adv-x="1074" 
d="M597 -130q57 0 97.5 -41t40.5 -98t-41 -98t-97.5 -41t-97.5 41t-41 98t41 98t98 41zM557.5 802q-95.5 0 -162 -57.5t-86.5 -167.5h473q-11 108 -70 166.5t-154.5 58.5zM556.5 985q204.5 0 322 -121t119.5 -343q0 -32 -4 -95h-689q17 -130 105.5 -198t230 -68t292.5 69
l5 -2v-175q-136 -76 -345 -76t-361 126.5t-152 364.5t136 378t340.5 140z" />
    <glyph glyph-name="uni1EBC" unicode="&#x1ebc;" horiz-adv-x="1038" 
d="M384 192h566v-192h-784v1233h763v-190h-545v-317h510v-188h-510v-346zM429 1573q72 0 149 -31.5t110 -31.5t55 20.5t22 52.5l4 3l136 -41q-4 -93 -59 -150.5t-142 -57.5q-45 0 -126 31.5t-116.5 31.5t-56.5 -21t-21 -53l-4 -4l-136 39q4 91 58.5 151.5t126.5 60.5z" />
    <glyph glyph-name="uni1EBD" unicode="&#x1ebd;" horiz-adv-x="1074" 
d="M557.5 802q-95.5 0 -162 -57.5t-86.5 -167.5h473q-11 108 -70 166.5t-154.5 58.5zM556.5 985q204.5 0 322 -121t119.5 -343q0 -32 -4 -95h-689q17 -130 105.5 -198t230 -68t292.5 69l5 -2v-175q-136 -76 -345 -76t-361 126.5t-152 364.5t136 378t340.5 140zM398.5 1359
q72.5 0 155.5 -33.5t118.5 -33.5t56.5 20.5t21 52.5l6 3l136 -33q0 -99 -56 -156.5t-142 -57.5q-52 -2 -136.5 32.5t-118 34.5t-54 -19.5t-20.5 -53.5l-6 -3l-136 33q0 88 51.5 151t124 63z" />
    <glyph glyph-name="uni1ECA" unicode="&#x1eca;" horiz-adv-x="551" 
d="M276 -408q-57 0 -97.5 41t-40.5 98t41 98t97.5 41t97.5 -41t41 -98t-41 -98t-98 -41zM166 0v1233h219v-1233h-219z" />
    <glyph glyph-name="uni1ECB" unicode="&#x1ecb;" horiz-adv-x="498" 
d="M247 -408q-57 0 -98 41t-41 98t41 98t98 41t97.5 -41t40.5 -98t-40.5 -98t-97.5 -41zM140 0v961h219v-961h-219zM248 1108q-57 0 -97.5 41t-40.5 98.5t41 97.5t97.5 40t97.5 -40t41 -97.5t-41 -98.5t-98 -41z" />
    <glyph glyph-name="uni1ECC" unicode="&#x1ecc;" horiz-adv-x="1457" 
d="M729 -408q-57 0 -98 41t-41 98t41 98t98 41t98 -41t41 -98t-41 -98t-98 -41zM730 171q186 0 299.5 120t113.5 326t-113.5 325t-299.5 119t-300.5 -119t-114.5 -325t114.5 -326t300.5 -120zM734.5 -24q-274.5 0 -460.5 169.5t-186 467t181.5 472t456 174.5t459.5 -170.5
t185 -468.5t-180.5 -471t-455 -173z" />
    <glyph glyph-name="uni1ECD" unicode="&#x1ecd;" horiz-adv-x="1180" 
d="M589 -408q-57 0 -97.5 41t-40.5 98t40.5 98t97.5 41t98 -41t41 -98t-41 -98t-98 -41zM589 164q129 0 206.5 87.5t77.5 231t-77 228t-206.5 84.5t-207 -85.5t-77.5 -229t77.5 -230t206.5 -86.5zM588.5 -24q-217.5 0 -363 132t-145.5 367.5t146 372.5t364 137t363 -131.5
t145 -368t-146 -373t-363.5 -136.5z" />
    <glyph glyph-name="uni1EE4" unicode="&#x1ee4;" horiz-adv-x="1334" 
d="M667 -408q-57 0 -97.5 41t-40.5 98t41 98t97.5 41t97.5 -41t41 -98t-41 -98t-98 -41zM665.5 -26q-246.5 0 -381.5 132t-135 376v751h218v-723q0 -173 78 -261.5t225 -88.5t225.5 89.5t78.5 260.5v723h212v-751q0 -242 -137 -375t-383.5 -133z" />
    <glyph glyph-name="uni1EE5" unicode="&#x1ee5;" horiz-adv-x="1137" 
d="M572 -130q57 0 98 -41t41 -98t-41 -98t-98 -41t-97.5 41t-40.5 98t40.5 98t97.5 41zM778 961h220v-961h-179l-20 125q-99 -149 -321 -149q-168 0 -259 96.5t-91 277.5v611h220v-566q0 -231 205 -231q76 0 138.5 40t86.5 122v635z" />
    <glyph glyph-name="Ygrave" unicode="&#x1ef2;" horiz-adv-x="1126" 
d="M456 0v499l-445 726l2 8h235l322 -537l318 537h222l2 -8l-440 -730v-495h-216zM734 1303l-408 147l-11 26l108 168l353 -225z" />
    <glyph glyph-name="ygrave" unicode="&#x1ef3;" horiz-adv-x="994" 
d="M210 -317q-47 0 -117 12v186l6 2q34 -11 70 -11q95 0 155 42.5t93 143.5l-395 897l4 6h233l260 -659l235 659h220l2 -6l-369 -921q-76 -195 -158 -273t-239 -78zM631 1043l-367 204l-5 26l139 155l304 -279z" />
    <glyph glyph-name="uni1EF8" unicode="&#x1ef8;" horiz-adv-x="1126" 
d="M456 0v499l-445 726l2 8h235l322 -537l318 537h222l2 -8l-440 -730v-495h-216zM423.5 1573q71.5 0 149 -31.5t110 -31.5t55 20.5t22.5 52.5l3 3l136 -41q-4 -93 -58.5 -150.5t-142.5 -57.5q-45 0 -125.5 31.5t-116.5 31.5t-57 -21.5t-21 -52.5l-4 -4l-136 39
q4 91 59 151.5t126.5 60.5z" />
    <glyph glyph-name="uni1EF9" unicode="&#x1ef9;" horiz-adv-x="994" 
d="M210 -317q-47 0 -117 12v186l6 2q34 -11 70 -11q95 0 155 42.5t93 143.5l-395 897l4 6h233l260 -659l235 659h220l2 -6l-369 -921q-76 -195 -158 -273t-239 -78zM356 1359q73 0 155.5 -33.5t118 -33.5t56.5 20.5t21 52.5l6 3l136 -33q0 -99 -56 -156.5t-141 -57.5
q-52 -2 -137 32.5t-118.5 34.5t-54 -19.5t-20.5 -53.5l-5 -3l-136 33q0 88 51 151t124 63z" />
    <glyph glyph-name="endash" unicode="&#x2013;" horiz-adv-x="994" 
d="M125 430v179h744v-179h-744z" />
    <glyph glyph-name="emdash" unicode="&#x2014;" horiz-adv-x="1623" 
d="M125 430v179h1374v-179h-1374z" />
    <glyph glyph-name="quoteleft" unicode="&#x2018;" horiz-adv-x="415" 
d="M333 1300q-35 -237 -22 -436l-181 -32l-28 32q2 194 105 436h126z" />
    <glyph glyph-name="quoteright" unicode="&#x2019;" horiz-adv-x="396" 
d="M89 834q34 231 23 436l180 31l28 -31q-2 -194 -104 -436h-127z" />
    <glyph glyph-name="quotesinglbase" unicode="&#x201a;" horiz-adv-x="411" 
d="M69 -300q35 237 22 436l181 32l28 -32q-2 -194 -105 -436h-126z" />
    <glyph glyph-name="quotedblleft" unicode="&#x201c;" horiz-adv-x="716" 
d="M633 1300q-35 -237 -22 -436l-181 -32l-28 32q2 194 104 436h127zM333 1300q-35 -237 -22 -436l-181 -32l-28 32q2 194 105 436h126z" />
    <glyph glyph-name="quotedblright" unicode="&#x201d;" horiz-adv-x="709" 
d="M389 834q35 237 22 436l181 31l28 -31q-2 -194 -104 -436h-127zM89 834q34 231 23 436l180 31l28 -31q-2 -194 -104 -436h-127z" />
    <glyph glyph-name="quotedblbase" unicode="&#x201e;" horiz-adv-x="707" 
d="M369 -300q35 237 22 436l181 32l28 -32q-2 -194 -105 -436h-126zM69 -300q35 237 22 436l181 32l28 -32q-2 -194 -105 -436h-126z" />
    <glyph glyph-name="dagger" unicode="&#x2020;" horiz-adv-x="1040" 
d="M590 950l343 31v-205l-315 28l-24 -945h-149l-28 943l-309 -26v205l337 -33l-28 357h205z" />
    <glyph glyph-name="daggerdbl" unicode="&#x2021;" horiz-adv-x="1040" 
d="M417 -138l32 345l-345 -28v203l317 -28l26 231l-28 229l-309 -26v204l337 -31l-30 344h205l-32 -342l345 29v-204l-317 27l-22 -230l24 -229l311 26v-203l-339 30l30 -347h-205z" />
    <glyph glyph-name="bullet" unicode="&#x2022;" horiz-adv-x="733" 
d="M367 264q-91 0 -157 66t-65 156q0 91 65 156q64 65 156 65t157 -65t65 -156q0 -90 -65 -156t-156 -66z" />
    <glyph glyph-name="ellipsis" unicode="&#x2026;" horiz-adv-x="1185" 
d="M983 -17q-61 -1 -95 35t-35 90q0 54 35 91q36 37 96 37t96 -37t35 -91q1 -54 -35 -90t-97 -35zM605 -17q-61 -1 -95 35t-35 90q0 54 35 91q36 37 96 37t96 -37t35 -91q1 -54 -35 -90t-97 -35zM225 -17q-61 -1 -95 35t-35 90q0 54 35 91q36 37 96 37t96 -37t35 -91
q1 -54 -35 -90t-97 -35z" />
    <glyph glyph-name="perthousand" unicode="&#x2030;" horiz-adv-x="2126" 
d="M1752 134q69 0 108 42t39 126t-39 130t-108 45q-69 0 -108 -46q-39 -45 -39 -129t39 -126t108 -42zM1072 134q69 0 108 42t39 126t-39 130t-108 45q-69 0 -108 -46q-39 -45 -39 -129t39 -126t108 -42zM1751 -9q-142 0 -229 80t-87 231q0 152 88 234t229 82t229 -83
q87 -83 87 -235t-88 -230q-88 -79 -229 -79zM1072 -9q-141 0 -229 80q-87 80 -87 230q0 149 88 233t228 84t229 -83q88 -83 88 -233t-88 -231q-88 -80 -229 -80zM532 922q0 84 -40 128t-108 45q-68 0 -108 -46q-38 -45 -38 -127t38 -127t108 -45q68 0 108 44t40 128zM222 22
l841 1190h179l-844 -1190h-176zM386 1238q142 0 228 -83q88 -83 88 -235t-88 -231q-88 -80 -230 -80t-229 80t-86 231q-1 150 87 234t230 84z" />
    <glyph glyph-name="guilsinglleft" unicode="&#x2039;" horiz-adv-x="634" 
d="M547 868v-19l-260 -320l262 -337v-15h-214l-277 348l281 343h208z" />
    <glyph glyph-name="guilsinglright" unicode="&#x203a;" horiz-adv-x="634" 
d="M89 177v18l261 321l-262 337v15h214l277 -349l-281 -342h-209z" />
    <glyph glyph-name="fraction" unicode="&#x2044;" horiz-adv-x="227" 
d="M-322 -22l773 1255h169l-775 -1255h-167z" />
    <glyph glyph-name="uni20A8" unicode="&#x20a8;" horiz-adv-x="854" 
d="M776 0h-264l-400 449v160h87q104 0 176 39t96 115h-397l38 164h359q-45 141 -257 142h-140l38 164h720l-39 -164h-184q65 -56 84 -142h152l-39 -164h-115q-24 -125 -111 -200t-202 -101l398 -453v-9z" />
    <glyph glyph-name="Euro" unicode="&#x20ac;" horiz-adv-x="1266" 
d="M858 -9q-214 0 -374 110t-221 303h-200l26 158h146q-2 18 -2 50t3 81h-124l28 158h128q64 192 222 301t368 108q164 0 298 -42l-35 -190l-6 -2q-106 41 -234 41q-274 0 -376 -216h415l-28 -158h-428q-4 -45 -4 -67t4 -64h405l-26 -158h-340q99 -220 381 -220
q141 0 268 58l6 -4l-35 -193q-117 -54 -265 -54z" />
    <glyph glyph-name="uni20BD" unicode="&#x20bd;" horiz-adv-x="1072" 
d="M417 653h127q268 0 268 211q0 95 -62.5 150t-167.5 55t-165 -4v-412zM570 480h-153v-139h233v-168h-233v-173h-216v173h-154v168h154v139h-154v173h154v583q227 13 352 11q229 0 352 -94t125 -284t-122 -289.5t-338 -99.5z" />
    <glyph glyph-name="trademark" unicode="&#x2122;" horiz-adv-x="1562" 
d="M1385 1225l56 -590h-158l-32 315h-2l-143 -315h-99l-141 320h-2l-34 -320h-160l60 590h169l164 -365l158 365h164zM71 1065v160h564v-160h-194v-430h-169v430h-201z" />
    <glyph glyph-name="oneeighth" unicode="&#x215b;" horiz-adv-x="1353" 
d="M1015 101q59 0 91 21t32 57t-41 69t-123 56q-7 3 -10 3q-84 -43 -83 -112q0 -94 134 -94zM912 510q0 -32 25 -50t67 -31q42 -14 44 -18q74 41 74 83q1 85 -104 85t-106 -69zM1294 186q0 -89 -75 -145t-207 -56t-209 50q-75 50 -75 140q0 117 125 181q-103 60 -103 152
t74 143t187 51q112 0 187 -45q76 -45 76 -139t-110 -155q70 -35 100 -77t30 -100zM884 1233h170l-775 -1255h-167zM195 559v467l-152 -49v174l301 100h19v-692h-168z" />
    <glyph glyph-name="threeeighths" unicode="&#x215c;" horiz-adv-x="1519" 
d="M1179 101q59 0 91 21t32 57q-1 79 -164 125q-7 3 -10 3q-84 -43 -84 -112q1 -94 135 -94zM1076 510q0 -32 25 -50t66 -31q41 -14 45 -18q74 41 74 83q1 85 -104 85t-106 -69zM1458 186q0 -89 -76 -145t-207 -56q-132 0 -208 50q-75 50 -75 140q0 117 125 181
q-103 60 -103 152t74 143t187 51q112 0 187 -45t75 -139t-110 -155q71 -35 101 -77t30 -100zM1050 1233h169l-774 -1255h-168zM579 771q0 -106 -78 -167q-79 -60 -213 -60t-219 44v131l2 2q71 -45 169 -45t143 23q44 23 43 72q0 86 -109 85h-133v114h118q95 0 95 73
q0 78 -126 78t-185 -36l-2 2v132q86 35 203 36q266 0 266 -183q0 -91 -82 -145q108 -50 108 -156z" />
    <glyph glyph-name="fiveeighths" unicode="&#x215d;" horiz-adv-x="1524" 
d="M1184 101q58 0 90 21t33 57q0 78 -164 125q-7 3 -9 3q-84 -43 -84 -112q0 -94 134 -94zM1082 510q0 -32 25 -50t66 -31q41 -14 45 -18q74 41 74 92q0 34 -29 55t-79 21q-102 0 -102 -69zM1180 -15q-132 0 -207 50t-76 140q0 117 125 181q-102 60 -102 152t74 143t186 51
t188 -45t75 -139q0 -94 -110 -155q71 -35 101 -77t29 -100q0 -89 -75 -145q-76 -56 -208 -56zM1059 1233h170l-775 -1255h-167zM585 771q0 -115 -86 -171t-209 -56t-223 31v138h2q95 -39 205 -39q141 0 141 102q0 89 -132 90q-99 0 -205 -19l-4 4l27 391h446v-134h-316
l-11 -129q60 7 106 8q259 0 259 -216z" />
    <glyph glyph-name="seveneighths" unicode="&#x215e;" horiz-adv-x="1428" 
d="M1087 101q58 0 91 21q32 21 32 57t-43 71t-121 54q-7 3 -9 3q-84 -43 -84 -112q0 -94 134 -94zM985 510q0 -32 25 -50t66 -31q41 -14 45 -18q74 41 74 92q0 34 -29 55t-79 21q-102 0 -102 -69zM1367 186q1 -89 -75 -145t-208 -56t-208 50q-75 50 -75 140q0 117 124 181
q-102 60 -102 152t74 143t186 51q111 0 187 -45t76 -139t-110 -155q71 -35 101 -77t30 -100zM955 1233h170l-775 -1255h-168zM47 1089v151h526v-84l-275 -597h-164l-4 1l259 529h-342z" />
    <glyph glyph-name="arrowleft" unicode="&#x2190;" horiz-adv-x="1141" 
d="M1097 492h-702l236 -233l-134 -134l-465 465l463 468l134 -135l-236 -234h702z" />
    <glyph glyph-name="arrowup" unicode="&#x2191;" horiz-adv-x="1141" 
d="M473 35v797l-244 -246l-134 135l478 472l475 -474l-134 -134l-240 244l-4 -794h-197z" />
    <glyph glyph-name="arrowright" unicode="&#x2192;" horiz-adv-x="1141" 
d="M648 1058l464 -468l-466 -465l-134 134l236 233h-701l1 197h702l-236 234z" />
    <glyph glyph-name="arrowdown" unicode="&#x2193;" horiz-adv-x="1141" 
d="M473 1184h197l4 -793l240 244l134 -134l-475 -475l-478 473l134 134l244 -246v797z" />
    <glyph glyph-name="uni2196" unicode="&#x2196;" horiz-adv-x="1141" 
d="M132 393v672l672 2v-188h-346l618 -618l-140 -140l-618 616l2 -344h-188z" />
    <glyph glyph-name="uni2197" unicode="&#x2197;" horiz-adv-x="1141" 
d="M1024 393h-188l2 344l-618 -616l-140 140l618 618h-346v188l672 -2v-672z" />
    <glyph glyph-name="uni2198" unicode="&#x2198;" horiz-adv-x="1141" 
d="M1018 802v-672l-672 -2v189h347l-619 618l140 139l618 -616l-2 344h188z" />
    <glyph glyph-name="uni2199" unicode="&#x2199;" horiz-adv-x="1141" 
d="M804 311v-188l-672 2v672h188l-2 -345l618 617l140 -140l-618 -618h346z" />
    <glyph glyph-name="minus" unicode="&#x2212;" horiz-adv-x="1051" 
d="M127 465v161h798v-161h-798z" />
    <glyph glyph-name="approxequal" unicode="&#x2248;" horiz-adv-x="984" 
d="M322 467q82 0 179 -34t147 -35q80 0 82 73l7 6l127 -25q0 -96 -57 -156t-135 -60t-176 34t-144 35q-86 0 -89 -74l-2 -6l-136 19q0 101 57 162q58 61 140 61zM648 771q80 0 82 74l7 6l127 -24q0 -97 -57 -157t-152 -59q-61 0 -159 34t-144 35q-86 0 -89 -77l-2 -3
l-136 18q0 99 57 160q99 106 319 27q97 -34 147 -34z" />
    <glyph glyph-name="notequal" unicode="&#x2260;" horiz-adv-x="1089" 
d="M963 665h-242l-121 -255h363v-155h-436l-103 -218h-186l103 218h-214v155h286l121 255h-407v156h482l95 203h186l-95 -203h168v-156z" />
    <glyph glyph-name="uniF8FF" unicode="&#xf8ff;" horiz-adv-x="2701" 
d="M2035 28h13q7 0 7 6t-7 5h-13v-11zM2026 4v43h20q19 0 19 -13t-13 -14l11 -16h-11l-8 16h-9v-16h-9zM2044 -9q34 -1 34 33t-34 34t-33 -34q-1 -33 33 -33zM2044 -19q-45 0 -44 43q0 43 44 43t45 -43q0 -43 -45 -43zM1316 203q0 43 -39 43t-39 -58q0 -26 9 -54q29 0 49 22
t20 47zM1746 203h75q6 50 -32 50q-43 0 -43 -50zM1806 -9q-263 0 -263 227q0 110 61 172q62 62 168 62t163 -56t57 -160q0 -39 -5 -65h-231q20 -33 88 -33t107 22v-140q-43 -29 -145 -29zM1039 -82q0 264 19 525h145q13 -78 13 -141q32 151 149 150q69 0 109 -54t40 -156
q0 -251 -255 -251q2 -28 1 -73h-221zM1009 190q-1 -156 -63 -219q-62 -64 -198 -64t-186 32v154q44 -30 124 -30t101 33q7 10 6 19q-30 -20 -91 -20q-168 0 -168 154v25h-102l6 -121q11 -7 31 -7t30 9v-136q-35 -28 -123 -28q-88 -1 -122 31t-32 103q0 71 5 149h-33v149
l217 54l-1 -34h329v-221q0 -30 6 -40t22 -11q30 0 30 51v221h193q19 -97 19 -253zM2247 694q0 -52 41 -52t41 52t-43 53q-39 -1 -39 -53zM640 694q0 -52 43 -52t43 52t-45 53q-41 -1 -41 -53zM2290 957q225 0 225 -232t-228 -232t-228 232t231 232zM1553 503q0 326 18 445
h149q11 -82 11 -142q5 28 13 56t44 62t103 33q67 0 98 -47t35 -150l5 -257h-212l4 173q0 54 -28 54q-34 0 -34 -54l6 -173h-212zM689 957q231 0 231 -218v-236h-155l-15 113q-22 -123 -139 -123q-171 0 -172 213q0 251 250 251zM938 776v147l222 56l2 -31h331
q19 -119 19 -445h-220q0 171 6 273h-114l6 -121q8 -7 30 -7t31 9v-138q-25 -27 -126 -27q-153 0 -153 122l7 162h-41zM186 503q0 249 17 584h186q19 -372 19 -584h-222zM1400 972q-48 0 -81 34t-33 80q0 47 33 81t81 34t82 -34t34 -82q0 -49 -34 -81t-82 -32z" />
    <glyph glyph-name="Jacute" horiz-adv-x="694" 
d="M130 -6q-45 0 -104 6v184l8 4q30 -6 68 -6q222 0 222 272v779h220v-760q-1 -479 -414 -479zM249 1303l-44 114l355 227l108 -168l-11 -26z" />
    <glyph glyph-name="G.002" horiz-adv-x="1284" 
d="M735 -19q-307 0 -477 165t-170 462t187 473t503 176q197 0 350 -62l-2 -210l-5 -2q-155 76 -357 76t-326 -121q-124 -120 -123.5 -324t113 -320.5t320.5 -116.5q132 0 235 41v361h196l1 -508q-196 -90 -445 -90z" />
    <glyph glyph-name="M.002" horiz-adv-x="1580" 
d="M1352 1231l117 -1231h-207l-65 758h-5l-362 -751h-72l-369 747h-4l-68 -754h-205l119 1231h130l441 -881l425 881h125z" />
    <glyph glyph-name="i.loclTRK" horiz-adv-x="498" 
d="M140 0v961h219v-961h-219zM248 1108q-57 0 -97.5 41t-40.5 98.5t41 97.5t97.5 40t97.5 -40t41 -97.5t-41 -98.5t-98 -41z" />
    <glyph glyph-name="jacute" horiz-adv-x="532" 
d="M43 -317q-34 0 -116 12v190l6 1q30 -6 63 -5q95 0 136 54t41 158v868h220v-918q0 -179 -90.5 -269.5t-259.5 -90.5zM147 1043l-73 106l304 279l141 -155l-5 -26z" />
    <glyph glyph-name="germandbls.calt" horiz-adv-x="1387" 
d="M909 -28q-188 0 -324 60v193l5 2q130 -73 258 -72.5t186.5 53.5t58.5 144q0 166 -194 194q-80 13 -206 3v71l247 438q-67 17 -180 16q-173 0 -284 -94t-111 -312v-668h-220v676q0 134 40 240q41 106 103 170t148 106q153 74 348 74q270 0 421 -78v-69l-241 -395
q151 -11 250 -99.5t99 -267.5t-108 -282t-296 -103z" />
    <glyph glyph-name="a.ss01" horiz-adv-x="1197" 
d="M566 171q76 0 138.5 38.5t94.5 103.5v415q-82 67 -207 67t-205 -88.5t-80 -235.5t72 -223.5t187 -76.5zM1009 -13q-158 0 -186 130q-112 -141 -310 -141t-315.5 128.5t-117.5 360t138.5 376t358.5 144.5q151 0 253 -75l10 51h178v-695q0 -80 66 -80q35 0 59 19l6 -4v-182
q-58 -32 -140 -32z" />
    <glyph glyph-name="aacute.ss01" horiz-adv-x="1197" 
d="M566 171q76 0 138.5 38.5t94.5 103.5v415q-82 67 -207 67t-205 -88.5t-80 -235.5t72 -223.5t187 -76.5zM1009 -13q-158 0 -186 130q-112 -141 -310 -141t-315.5 128.5t-117.5 360t138.5 376t358.5 144.5q151 0 253 -75l10 51h178v-695q0 -80 66 -80q35 0 59 19l6 -4v-182
q-58 -32 -140 -32zM817 1247l-366 -204l-73 106l303 279l142 -155z" />
    <glyph glyph-name="abreve.ss01" horiz-adv-x="1197" 
d="M566 171q76 0 138.5 38.5t94.5 103.5v415q-82 67 -207 67t-205 -88.5t-80 -235.5t72 -223.5t187 -76.5zM1009 -13q-158 0 -186 130q-112 -141 -310 -141t-315.5 128.5t-117.5 360t138.5 376t358.5 144.5q151 0 253 -75l10 51h178v-695q0 -80 66 -80q35 0 59 19l6 -4v-182
q-58 -32 -140 -32zM584.5 1071q-119.5 0 -198.5 76t-79 205l140 15l5 -4q4 -61 39.5 -98.5t95.5 -37.5t98.5 37t42.5 97l6 6l132 -15q0 -128 -81 -204.5t-200.5 -76.5z" />
    <glyph glyph-name="acircumflex.ss01" horiz-adv-x="1197" 
d="M566 171q76 0 138.5 38.5t94.5 103.5v415q-82 67 -207 67t-205 -88.5t-80 -235.5t72 -223.5t187 -76.5zM1009 -13q-158 0 -186 130q-112 -141 -310 -141t-315.5 128.5t-117.5 360t138.5 376t358.5 144.5q151 0 253 -75l10 51h178v-695q0 -80 66 -80q35 0 59 19l6 -4v-182
q-58 -32 -140 -32zM583 1218l-188 -160l-86 81l223 265h103l231 -265l-86 -81z" />
    <glyph glyph-name="adieresis.ss01" horiz-adv-x="1197" 
d="M566 171q76 0 138.5 38.5t94.5 103.5v415q-82 67 -207 67t-205 -88.5t-80 -235.5t72 -223.5t187 -76.5zM1009 -13q-158 0 -186 130q-112 -141 -310 -141t-315.5 128.5t-117.5 360t138.5 376t358.5 144.5q151 0 253 -75l10 51h178v-695q0 -80 66 -80q35 0 59 19l6 -4v-182
q-58 -32 -140 -32zM790 1115q-55 0 -93 38.5t-38 92t38 93t92 39.5t94 -39t40 -93.5t-39 -92.5t-94 -38zM395 1115q-54 0 -92.5 38.5t-38.5 92t38.5 93t92.5 39.5t93 -39t39 -93.5t-39 -92.5t-93 -38z" />
    <glyph glyph-name="uni1EA1.ss01" horiz-adv-x="1197" 
d="M599 -130q57 0 97.5 -41t40.5 -98t-41 -98t-97.5 -41t-97.5 41t-41 98t41 98t98 41zM566 171q76 0 138.5 38.5t94.5 103.5v415q-82 67 -207 67t-205 -88.5t-80 -235.5t72 -223.5t187 -76.5zM1009 -13q-158 0 -186 130q-112 -141 -310 -141t-315.5 128.5t-117.5 360
t138.5 376t358.5 144.5q151 0 253 -75l10 51h178v-695q0 -80 66 -80q35 0 59 19l6 -4v-182q-58 -32 -140 -32z" />
    <glyph glyph-name="agrave.ss01" horiz-adv-x="1197" 
d="M566 171q76 0 138.5 38.5t94.5 103.5v415q-82 67 -207 67t-205 -88.5t-80 -235.5t72 -223.5t187 -76.5zM1009 -13q-158 0 -186 130q-112 -141 -310 -141t-315.5 128.5t-117.5 360t138.5 376t358.5 144.5q151 0 253 -75l10 51h178v-695q0 -80 66 -80q35 0 59 19l6 -4v-182
q-58 -32 -140 -32zM709 1043l-366 204l-6 26l140 155l303 -279z" />
    <glyph glyph-name="amacron.ss01" horiz-adv-x="1197" 
d="M566 171q76 0 138.5 38.5t94.5 103.5v415q-82 67 -207 67t-205 -88.5t-80 -235.5t72 -223.5t187 -76.5zM1009 -13q-158 0 -186 130q-112 -141 -310 -141t-315.5 128.5t-117.5 360t138.5 376t358.5 144.5q151 0 253 -75l10 51h178v-695q0 -80 66 -80q35 0 59 19l6 -4v-182
q-58 -32 -140 -32zM866 1292v-149h-561v149h561z" />
    <glyph glyph-name="aogonek.ss01" horiz-adv-x="1197" 
d="M566 171q76 0 138.5 38.5t94.5 103.5v415q-82 67 -207 67t-205 -88.5t-80 -235.5t72 -223.5t187 -76.5zM1149 19q-5 0 -13 -8q-158 -101 -159 -221q0 -32 20.5 -55.5t56 -23.5t63.5 8l8 -4v-126q-48 -15 -131.5 -15t-144.5 41.5t-61 121.5q0 145 165 256
q-108 20 -130 124q-112 -141 -310 -141t-315.5 128.5t-117.5 360t138.5 376t358.5 144.5q151 0 253 -75l10 51h178v-695q0 -80 66 -80q35 0 59 19l6 -4v-182z" />
    <glyph glyph-name="aring.ss01" horiz-adv-x="1197" 
d="M566 171q76 0 138.5 38.5t94.5 103.5v415q-82 67 -207 67t-205 -88.5t-80 -235.5t72 -223.5t187 -76.5zM1009 -13q-158 0 -186 130q-112 -141 -310 -141t-315.5 128.5t-117.5 360t138.5 376t358.5 144.5q151 0 253 -75l10 51h178v-695q0 -80 66 -80q35 0 59 19l6 -4v-182
q-58 -32 -140 -32zM589 1326q-38 0 -64 -25.5t-26 -62.5t26 -63t64 -26t63.5 26t25.5 63t-25.5 62.5t-63.5 25.5zM587 1037q-90 0 -147.5 57.5t-57.5 142.5t57.5 141.5t147.5 56.5t148 -56.5t58 -142.5t-58 -142.5t-148 -56.5z" />
    <glyph glyph-name="aringacute.ss01" horiz-adv-x="1197" 
d="M566 171q76 0 138.5 38.5t94.5 103.5v415q-82 67 -207 67t-205 -88.5t-80 -235.5t72 -223.5t187 -76.5zM1009 -13q-158 0 -186 130q-112 -141 -310 -141t-315.5 128.5t-117.5 360t138.5 376t358.5 144.5q151 0 253 -75l10 51h178v-695q0 -80 66 -80q35 0 59 19l6 -4v-182
q-58 -32 -140 -32zM589 1326q-38 0 -64 -25.5t-26 -62.5t26 -63t64 -26t63.5 26t25.5 63t-25.5 62.5t-63.5 25.5zM587 1037q-90 0 -147.5 57.5t-57.5 142.5t57.5 141.5t146.5 56.5q52 0 97 -20l242 223l142 -154l-6 -26l-277 -155q9 -34 9 -65q0 -88 -58 -144.5t-148 -56.5z
" />
    <glyph glyph-name="atilde.ss01" horiz-adv-x="1197" 
d="M566 171q76 0 138.5 38.5t94.5 103.5v415q-82 67 -207 67t-205 -88.5t-80 -235.5t72 -223.5t187 -76.5zM1009 -13q-158 0 -186 130q-112 -141 -310 -141t-315.5 128.5t-117.5 360t138.5 376t358.5 144.5q151 0 253 -75l10 51h178v-695q0 -80 66 -80q35 0 59 19l6 -4v-182
q-58 -32 -140 -32zM434 1359q73 0 155.5 -33.5t118 -33.5t57 20.5t21.5 52.5l5 3l136 -33q0 -99 -56 -156.5t-141 -57.5q-52 -2 -137 32.5t-118.5 34.5t-54 -19.5t-20.5 -53.5l-5 -3l-136 33q0 88 51 151t124 63z" />
    <glyph glyph-name="d.ss01" horiz-adv-x="1202" 
d="M566 171q76 0 139.5 38.5t95.5 103.5v422q-84 60 -208.5 60t-205 -86.5t-80.5 -235.5t72.5 -225.5t186.5 -76.5zM515.5 -24q-195.5 0 -314.5 127.5t-119 358t137.5 377t352.5 146.5q134 0 229 -50v387h219v-1056q0 -80 67 -80q32 0 56 24l8 -3l-2 -187q-56 -34 -140 -33
q-158 0 -186 127q-112 -138 -307.5 -138z" />
    <glyph glyph-name="dcaron.ss01" horiz-adv-x="1262" 
d="M566 171q76 0 139.5 38.5t95.5 103.5v422q-85 60 -209 60t-204.5 -86.5t-80.5 -235.5t72.5 -225.5t186.5 -76.5zM1085 186q35 0 60 24l6 -3l-2 -187q-56 -34 -140 -33q-158 0 -186 127q-111 -138 -307 -138t-315 128t-119 358t137.5 376.5t352.5 146.5q134 0 229 -50v387
h219v-1056q0 -80 65 -80zM1309 1329l18 -20l-67 -404h-130l15 424h164z" />
    <glyph glyph-name="dcroat.ss01" horiz-adv-x="1202" 
d="M592.5 795q-124.5 0 -205 -86.5t-80.5 -235.5t72.5 -225.5t186.5 -76.5q76 0 139.5 38.5t95.5 103.5v422q-84 60 -208.5 60zM1020 1063v-797q0 -80 67 -80q32 0 56 24l8 -3l-2 -187q-56 -34 -140 -33q-158 0 -186 127q-112 -138 -307.5 -138t-314.5 127.5t-119 358
t137.5 377t352.5 146.5q134 0 229 -50v128h-196v149h196v110h219v-110h151v-149h-151z" />
    <glyph glyph-name="g.ss01" horiz-adv-x="1158" 
d="M590 795q-127 0 -205 -76.5t-78 -211.5t71 -206.5t182 -71.5q167 1 241 142v361q-84 63 -211 63zM1020 977v-850q0 -216 -139.5 -330.5t-360 -114.5t-377.5 74v201l8 4q145 -93 322.5 -93t252.5 62.5t75 190.5v32q-108 -112 -296.5 -112t-305.5 119t-117 339.5t141.5 353
t329.5 132.5t294 -84l22 76h151z" />
    <glyph glyph-name="gbreve.ss01" horiz-adv-x="1158" 
d="M590 795q-127 0 -205 -76.5t-78 -211.5t71 -206.5t182 -71.5q167 1 241 142v361q-84 63 -211 63zM1020 977v-850q0 -216 -139.5 -330.5t-360 -114.5t-377.5 74v201l8 4q145 -93 322.5 -93t252.5 62.5t75 190.5v32q-108 -112 -296.5 -112t-305.5 119t-117 339.5t141.5 353
t329.5 132.5t294 -84l22 76h151zM568 1071q-119 0 -198.5 76t-79.5 205l140 15l6 -4q4 -61 39 -98.5t95.5 -37.5t98.5 37t42 97l6 6l132 -15q0 -128 -81 -204.5t-200 -76.5z" />
    <glyph glyph-name="gcaron.ss01" horiz-adv-x="1158" 
d="M590 795q-127 0 -205 -76.5t-78 -211.5t71 -206.5t182 -71.5q167 1 241 142v361q-84 63 -211 63zM1020 977v-850q0 -216 -139.5 -330.5t-360 -114.5t-377.5 74v201l8 4q145 -93 322.5 -93t252.5 62.5t75 190.5v32q-108 -112 -296.5 -112t-305.5 119t-117 339.5t141.5 353
t329.5 132.5t294 -84l22 76h151zM626 1058h-101l-233 264l88 82l197 -160l188 160l84 -82z" />
    <glyph glyph-name="gcircumflex.ss01" horiz-adv-x="1158" 
d="M590 795q-127 0 -205 -76.5t-78 -211.5t71 -206.5t182 -71.5q167 1 241 142v361q-84 63 -211 63zM1020 977v-850q0 -216 -139.5 -330.5t-360 -114.5t-377.5 74v201l8 4q145 -93 322.5 -93t252.5 62.5t75 190.5v32q-108 -112 -296.5 -112t-305.5 119t-117 339.5t141.5 353
t329.5 132.5t294 -84l22 76h151zM566 1218l-188 -160l-86 81l224 265h102l231 -265l-86 -81z" />
    <glyph glyph-name="gcommaaccent.ss01" horiz-adv-x="1158" 
d="M590 795q-127 0 -205 -76.5t-78 -211.5t71 -206.5t182 -71.5q167 1 241 142v361q-84 63 -211 63zM1020 977v-850q0 -216 -139.5 -330.5t-360 -114.5t-377.5 74v201l8 4q145 -93 322.5 -93t252.5 62.5t75 190.5v32q-108 -112 -296.5 -112t-305.5 119t-117 339.5t141.5 353
t329.5 132.5t294 -84l22 76h151zM676 1152l5 -94l-188 -15l-16 24q0 181 95 335h137q-34 -123 -33 -250z" />
    <glyph glyph-name="gdotaccent.ss01" horiz-adv-x="1158" 
d="M590 795q-127 0 -205 -76.5t-78 -211.5t71 -206.5t182 -71.5q167 1 241 142v361q-84 63 -211 63zM1020 977v-850q0 -216 -139.5 -330.5t-360 -114.5t-377.5 74v201l8 4q145 -93 322.5 -93t252.5 62.5t75 190.5v32q-108 -112 -296.5 -112t-305.5 119t-117 339.5t141.5 353
t329.5 132.5t294 -84l22 76h151zM569 1108q-57 0 -98 41t-41 98.5t41 97.5t98 40t97.5 -40t40.5 -97.5t-40.5 -98.5t-97.5 -41z" />
    <glyph glyph-name="l.ss01" horiz-adv-x="558" 
d="M404 -19q-272 0 -272 270v1071h220v-1015q0 -128 99 -128q39 0 70 16l6 -1v-190q-58 -23 -123 -23z" />
    <glyph glyph-name="lacute.ss01" horiz-adv-x="558" 
d="M404 -19q-272 0 -272 270v1071h220v-1015q0 -128 99 -128q39 0 70 16l6 -1v-190q-58 -23 -123 -23zM60 1385l-45 114l356 227l107 -168l-11 -26z" />
    <glyph glyph-name="lcaron.ss01" horiz-adv-x="590" 
d="M404 -19q-272 0 -272 270v1071h220v-1015q0 -128 99 -128q41 0 72 16l4 -1v-190q-58 -23 -123 -23zM452 905l15 424h162l19 -20l-65 -404h-131z" />
    <glyph glyph-name="lcommaaccent.ss01" horiz-adv-x="558" 
d="M236 -192l-5 95l188 15l17 -24q0 -181 -95 -335h-138q34 123 33 249zM404 -19q-272 0 -272 270v1071h220v-1015q0 -128 99 -128q39 0 70 16l6 -1v-190q-58 -23 -123 -23z" />
    <glyph glyph-name="ldot.ss01" horiz-adv-x="700" 
d="M593.5 551q-59.5 0 -91 31t-31.5 82t31.5 84.5t91 33.5t91.5 -33.5t32 -84.5t-32 -82t-91.5 -31zM404 -19q-272 0 -272 270v1071h220v-1015q0 -128 99 -128q41 0 72 16l4 -1v-190q-58 -23 -123 -23z" />
    <glyph glyph-name="lslash.ss01" horiz-adv-x="649" 
d="M192 251v259l-125 -80h-7v171l132 86v635h219v-495l133 85h7v-171l-140 -89v-345q0 -128 99 -128q41 -1 73 16l3 -1v-190q-58 -22 -122 -23q-272 0 -272 270z" />
    <glyph glyph-name="y.ss01" horiz-adv-x="996" 
d="M976 961l1 -6l-528 -1258h-227l-4 5l180 365l-374 888l2 6h235l245 -674l248 674h222z" />
    <glyph glyph-name="yacute.ss01" horiz-adv-x="996" 
d="M976 961l1 -6l-528 -1258h-227l-4 5l180 365l-374 888l2 6h235l245 -674l248 674h222zM741 1247l-367 -204l-72 106l303 279l142 -155z" />
    <glyph glyph-name="ycircumflex.ss01" horiz-adv-x="996" 
d="M976 961l1 -6l-528 -1258h-227l-4 5l180 365l-374 888l2 6h235l245 -674l248 674h222zM506 1218l-188 -160l-85 81l223 265h103l230 -265l-85 -81z" />
    <glyph glyph-name="ydieresis.ss01" horiz-adv-x="996" 
d="M976 961l1 -6l-528 -1258h-227l-4 5l180 365l-374 888l2 6h235l245 -674l248 674h222zM714 1115q-55 0 -93 38.5t-38 92t38 93t92 39.5t94 -39t40 -93.5t-39 -92.5t-94 -38zM318 1115q-54 0 -92 38.5t-38 92t38 93t92 39.5t93.5 -39t39.5 -93.5t-39.5 -92.5t-93.5 -38z
" />
    <glyph glyph-name="ygrave.ss01" horiz-adv-x="996" 
d="M976 961l1 -6l-528 -1258h-227l-4 5l180 365l-374 888l2 6h235l245 -674l248 674h222zM633 1043l-367 204l-5 26l139 155l304 -279z" />
    <glyph glyph-name="uni1EF9.ss01" horiz-adv-x="996" 
d="M976 961l1 -6l-528 -1258h-227l-4 5l180 365l-374 888l2 6h235l245 -674l248 674h222zM357.5 1359q72.5 0 155.5 -33.5t118.5 -33.5t56.5 20.5t21 52.5l6 3l136 -33q0 -99 -56 -156.5t-142 -57.5q-52 -2 -136.5 32.5t-118 34.5t-54 -19.5t-20.5 -53.5l-6 -3l-136 33
q0 88 51.5 151t124 63z" />
    <glyph glyph-name="g.ss02" horiz-adv-x="996" 
d="M483.5 808q-89.5 0 -141.5 -38t-52 -108t52.5 -109t140.5 -39t141.5 39t53.5 109t-52.5 108t-142 38zM938 -26q0 -294 -463 -294q-257 0 -410 71v180l6 2q184 -80 398 -80q130 0 192.5 22.5t62.5 73.5t-43.5 71.5t-211.5 33.5t-248.5 56t-80.5 139.5t83 156.5
q-143 88 -143 246t111 244.5t291 86.5q97 0 179 -26l151 186l145 -141l-153 -131q84 -80 84 -218.5t-111.5 -223.5t-294.5 -85q-52 0 -111 10q-30 -20 -30 -52.5t52 -45t215.5 -26.5t246.5 -72.5t83 -183.5z" />
    <glyph glyph-name="gbreve.ss02" horiz-adv-x="996" 
d="M483.5 808q-89.5 0 -141.5 -38t-52 -108t52.5 -109t140.5 -39t141.5 39t53.5 109t-52.5 108t-142 38zM938 -26q0 -294 -463 -294q-257 0 -410 71v180l6 2q184 -80 398 -80q130 0 192.5 22.5t62.5 73.5t-43.5 71.5t-211.5 33.5t-248.5 56t-80.5 139.5t83 156.5
q-143 88 -143 246t111 244.5t291 86.5q97 0 179 -26l151 186l145 -141l-153 -131q84 -80 84 -218.5t-111.5 -223.5t-294.5 -85q-52 0 -111 10q-30 -20 -30 -52.5t52 -45t215.5 -26.5t246.5 -72.5t83 -183.5zM462 1085q-119 0 -198.5 76.5t-79.5 205.5l140 14l6 -3
q4 -61 39 -98.5t95.5 -37.5t98.5 37t42 97l6 5l132 -14q0 -128 -81 -205t-200 -77z" />
    <glyph glyph-name="gcaron.ss02" horiz-adv-x="996" 
d="M483.5 808q-89.5 0 -141.5 -38t-52 -108t52.5 -109t140.5 -39t141.5 39t53.5 109t-52.5 108t-142 38zM938 -26q0 -294 -463 -294q-257 0 -410 71v180l6 2q184 -80 398 -80q130 0 192.5 22.5t62.5 73.5t-43.5 71.5t-211.5 33.5t-248.5 56t-80.5 139.5t83 156.5
q-143 88 -143 246t111 244.5t291 86.5q97 0 179 -26l151 186l145 -141l-153 -131q84 -80 84 -218.5t-111.5 -223.5t-294.5 -85q-52 0 -111 10q-30 -20 -30 -52.5t52 -45t215.5 -26.5t246.5 -72.5t83 -183.5zM519 1072h-100l-233 265l88 82l197 -160l188 160l84 -82z" />
    <glyph glyph-name="gcircumflex.ss02" horiz-adv-x="996" 
d="M483.5 808q-89.5 0 -141.5 -38t-52 -108t52.5 -109t140.5 -39t141.5 39t53.5 109t-52.5 108t-142 38zM938 -26q0 -294 -463 -294q-257 0 -410 71v180l6 2q184 -80 398 -80q130 0 192.5 22.5t62.5 73.5t-43.5 71.5t-211.5 33.5t-248.5 56t-80.5 139.5t83 156.5
q-143 88 -143 246t111 244.5t291 86.5q97 0 179 -26l151 186l145 -141l-153 -131q84 -80 84 -218.5t-111.5 -223.5t-294.5 -85q-52 0 -111 10q-30 -20 -30 -52.5t52 -45t215.5 -26.5t246.5 -72.5t83 -183.5zM460 1233l-188 -161l-86 82l224 265h102l231 -265l-86 -82z" />
    <glyph glyph-name="gcommaaccent.ss02" horiz-adv-x="996" 
d="M483.5 808q-89.5 0 -141.5 -38t-52 -108t52.5 -109t140.5 -39t141.5 39t53.5 109t-52.5 108t-142 38zM938 -26q0 -294 -463 -294q-257 0 -410 71v180l6 2q184 -80 398 -80q130 0 192.5 22.5t62.5 73.5t-43.5 71.5t-211.5 33.5t-248.5 56t-80.5 139.5t83 156.5
q-143 88 -143 246t111 244.5t291 86.5q97 0 179 -26l151 186l145 -141l-153 -131q84 -80 84 -218.5t-111.5 -223.5t-294.5 -85q-52 0 -111 10q-30 -20 -30 -52.5t52 -45t215.5 -26.5t246.5 -72.5t83 -183.5zM575 1072l-188 -14l-16 24q0 181 94 335h138q-34 -123 -33 -250z
" />
    <glyph glyph-name="gdotaccent.ss02" horiz-adv-x="996" 
d="M483.5 808q-89.5 0 -141.5 -38t-52 -108t52.5 -109t140.5 -39t141.5 39t53.5 109t-52.5 108t-142 38zM938 -26q0 -294 -463 -294q-257 0 -410 71v180l6 2q184 -80 398 -80q130 0 192.5 22.5t62.5 73.5t-43.5 71.5t-211.5 33.5t-248.5 56t-80.5 139.5t83 156.5
q-143 88 -143 246t111 244.5t291 86.5q97 0 179 -26l151 186l145 -141l-153 -131q84 -80 84 -218.5t-111.5 -223.5t-294.5 -85q-52 0 -111 10q-30 -20 -30 -52.5t52 -45t215.5 -26.5t246.5 -72.5t83 -183.5zM463 1123q-57 0 -98 41t-41 98.5t41 97.5t98 40t97.5 -40
t40.5 -97.5t-40.5 -98.5t-97.5 -41z" />
    <glyph glyph-name="f_t" horiz-adv-x="1344" 
d="M1311 784h-306v-428q0 -171 153 -172q80 0 147 36l6 -2v-186q-79 -43 -221 -43t-223 83t-81 239v473h-375v-784h-219v784h-132v177h132q6 182 102.5 277t251.5 95q88 0 137 -20v-188l-7 -4q-37 19 -97 18q-166 0 -168 -178h375v232l214 43l5 -3v-272h306v-177z" />
    <glyph glyph-name="f_y" horiz-adv-x="1558" 
d="M775 -317q-47 0 -118 12v186l4 2q34 -11 73 -11q95 0 153.5 42.5t91.5 143.5l-312 713h-256v-771h-219v771h-132v171h132v2q0 188 97.5 288.5t254.5 100.5q88 0 139 -20v-190l-7 -2q-34 17 -97 17q-168 0 -168 -181v-15h419l255 -639l233 658h220l2 -6l-373 -935h-2
q-74 -190 -154 -263.5t-236 -73.5z" />
    <glyph glyph-name="t_t" horiz-adv-x="1426" 
d="M1395 784h-306v-428q0 -171 153 -172q78 0 149 36l4 -2v-186q-79 -43 -221 -43t-224 83q-81 83 -81 239v473h-448v-428q0 -171 152 -172q76 0 148 36l5 -2v-186q-84 -43 -224 -43t-220 83q-81 83 -81 239v473h-169v177h169v232l214 43l6 -3v-272h448v232l215 43l5 -3
v-272h306v-177z" />
    <glyph glyph-name="L_periodcentered_L.loclCAT" horiz-adv-x="1863" 
d="M745 583q-60 1 -92 33t-31 82q0 50 31 84q32 34 92 34q59 0 91 -34t32 -84t-32 -82t-91 -33zM1324 182h517v-182h-735v1233h218v-1051zM382 1233v-1051h521v-182h-737v1233h216z" />
    <glyph glyph-name="l_periodcentered_l.loclCAT" horiz-adv-x="1202" 
d="M603.5 568q-59.5 0 -92.5 32.5t-33 82.5t33 83t92.5 33t91 -32.5t31.5 -82.5t-31.5 -83t-91 -33zM842 0v1322h221v-1322h-221zM141 0v1322h222v-1322h-222z" />
    <glyph glyph-name="l_periodcentered_l.loclCAT.ss01" horiz-adv-x="1256" 
d="M595.5 553q-59.5 0 -92 32.5t-32.5 83t32.5 84t91.5 33.5t91 -34t32.5 -84t-31.5 -82.5t-91.5 -32.5zM1102 -19q-272 0 -272 270v1071h220v-1015q0 -128 99 -128q39 0 70 16l6 -1v-190q-60 -23 -123 -23zM404 -19q-272 0 -272 270v1071h220v-1015q0 -128 99 -128
q39 0 70 16l6 -1v-190q-58 -23 -123 -23z" />
    <glyph glyph-name="germandbls.smcp.calt" horiz-adv-x="1221" 
d="M806 -22q-160 0 -281 52v184h4q112 -73 249 -73q74 0 117 38.5t43 99.5q0 140 -236 144q-43 0 -88 -6l-14 47l180 327q-48 13 -117 13q-138 0 -223.5 -76t-85.5 -244v-484h-220v495q0 119 34.5 211.5t88.5 147.5q148 151 454 151q192 0 341 -72v-39l-179 -319
q99 -13 178 -66q100 -67 100 -214.5t-92.5 -232t-252.5 -84.5z" />
    <glyph glyph-name="a.smcp" horiz-adv-x="1091" 
d="M378 357h322l-24 60l-136 378l-138 -378zM847 0l-87 212h-440l-85 -212h-216l413 987h218l432 -987h-235z" />
    <glyph glyph-name="aacute.smcp" horiz-adv-x="1091" 
d="M378 357h322l-24 60l-136 378l-138 -378zM847 0l-87 212h-440l-85 -212h-216l413 987h218l432 -987h-235zM760 1273l-367 -204l-73 106l304 279l141 -154z" />
    <glyph glyph-name="abreve.smcp" horiz-adv-x="1091" 
d="M378 357h322l-24 60l-136 378l-138 -378zM847 0l-87 212h-440l-85 -212h-216l413 987h218l432 -987h-235zM527 1097q-119 0 -198.5 76t-79.5 205l140 15l6 -4q4 -61 39 -99q36 -38 96 -37.5t98.5 37.5t41.5 97l6 6l132 -15q0 -128 -81 -204.5t-200 -76.5z" />
    <glyph glyph-name="acircumflex.smcp" horiz-adv-x="1091" 
d="M378 357h322l-24 60l-136 378l-138 -378zM847 0l-87 212h-440l-85 -212h-216l413 987h218l432 -987h-235zM525 1244l-188 -160l-86 81l224 265h102l231 -265l-86 -81z" />
    <glyph glyph-name="adieresis.smcp" horiz-adv-x="1091" 
d="M378 357h322l-24 60l-136 378l-138 -378zM847 0l-87 212h-440l-85 -212h-216l413 987h218l432 -987h-235zM733 1141q-55 0 -93.5 38.5t-38.5 92t38.5 93t92.5 39.5t94 -39t40 -93.5t-39 -92.5t-94 -38zM337 1141q-54 0 -92 38.5t-38 92t38 93t92 39.5t93 -39t39 -93.5
t-39 -92.5t-93 -38z" />
    <glyph glyph-name="uni1EA1.smcp" horiz-adv-x="1091" 
d="M535 -130q57 0 98 -41t41 -98t-41 -98t-98 -41t-97.5 41t-40.5 98t40.5 98t97.5 41zM378 357h322l-24 60l-136 378l-138 -378zM1082 0h-235l-87 212h-440l-85 -212h-216l413 987h218z" />
    <glyph glyph-name="agrave.smcp" horiz-adv-x="1091" 
d="M378 357h322l-24 60l-136 378l-138 -378zM847 0l-87 212h-440l-85 -212h-216l413 987h218l432 -987h-235zM652 1069l-367 204l-6 27l140 154l303 -279z" />
    <glyph glyph-name="amacron.smcp" horiz-adv-x="1091" 
d="M378 357h322l-24 60l-136 378l-138 -378zM847 0l-87 212h-440l-85 -212h-216l413 987h218l432 -987h-235zM808 1318v-149h-560v149h560z" />
    <glyph glyph-name="aogonek.smcp" horiz-adv-x="1091" 
d="M378 357h322l-24 60l-136 378l-138 -378zM936.5 -294q35.5 0 63.5 7l7 -3v-127q-48 -15 -131 -15t-144.5 42t-61.5 122q0 153 186 268h-9l-87 212h-440l-85 -212h-216l413 987h218l432 -987h-73q-149 -102 -149 -216q0 -32 20.5 -55t56 -23z" />
    <glyph glyph-name="aring.smcp" horiz-adv-x="1091" 
d="M378 357h322l-24 60l-136 378l-138 -378zM847 0l-87 212h-440l-85 -212h-216l413 987h218l432 -987h-235zM532 1352q-38 0 -64.5 -25.5t-26.5 -62.5t26 -63t64.5 -26t63.5 26t25 63t-25 62.5t-63 25.5zM531 1063q-91 0 -149 58t-58 142.5t57.5 141.5t148 57t148 -57
t57.5 -143t-56.5 -142.5t-147.5 -56.5z" />
    <glyph glyph-name="aringacute.smcp" horiz-adv-x="1091" 
d="M378 357h322l-24 60l-136 378l-138 -378zM847 0l-87 212h-440l-85 -212h-216l413 987h218l432 -987h-235zM532 1352q-38 0 -64.5 -25.5t-26.5 -62.5t26 -63t64.5 -26t63.5 26t25 63t-25 62.5t-63 25.5zM531 1063q-91 0 -149 58t-58 142.5t57.5 141.5t133 57t122.5 -27
l238 218l142 -154l-6 -26l-281 -159q6 -22 5 -50q0 -88 -56.5 -144.5t-147.5 -56.5z" />
    <glyph glyph-name="atilde.smcp" horiz-adv-x="1091" 
d="M378 357h322l-24 60l-136 378l-138 -378zM847 0l-87 212h-440l-85 -212h-216l413 987h218l432 -987h-235zM376 1385q73 0 155.5 -33.5t118 -33.5t57 20.5t21.5 52.5l6 4l135 -34q0 -99 -55.5 -156.5t-141.5 -57.5q-52 -2 -136.5 32.5t-118.5 34.5t-54 -19.5t-20 -53.5
l-6 -3l-136 33q0 88 51 151t124 63z" />
    <glyph glyph-name="ae.smcp" horiz-adv-x="1374" 
d="M681 372v453h-1l-254 -453h255zM1322 987v-170h-434v-236h404v-158h-404v-257h451v-166h-658v223h-338l-129 -223h-218l564 987h762z" />
    <glyph glyph-name="aeacute.smcp" horiz-adv-x="1374" 
d="M681 372v453h-1l-254 -453h255zM1322 987v-170h-434v-236h404v-158h-404v-257h451v-166h-658v223h-338l-129 -223h-218l564 987h762zM659 1069l-73 106l304 279l141 -154l-5 -27z" />
    <glyph glyph-name="b.smcp" horiz-adv-x="988" 
d="M514 141q192 0 192 149q0 71 -49.5 112t-135.5 41h-169v-300q43 -2 162 -2zM352 579h160q71 0 114.5 36.5t43.5 101.5q0 134 -190 134q-86 0 -128 -6v-266zM482 -7q-201 0 -341 7v983q149 19 321 19q402 0 404 -263q2 -156 -134 -218q179 -60 178 -232q0 -296 -428 -296z
" />
    <glyph glyph-name="c.smcp" horiz-adv-x="968" 
d="M626 -24q-248 0 -398 136t-150 375t148 380.5t394 141.5q149 0 272 -45v-188l-6 -1q-117 47 -255 47t-229 -88t-91 -238t89.5 -241t236.5 -91t253 48l6 -3v-187q-108 -46 -270 -46z" />
    <glyph glyph-name="cacute.smcp" horiz-adv-x="968" 
d="M626 -24q-248 0 -398 136t-150 375t148 380.5t394 141.5q149 0 272 -45v-188l-6 -1q-117 47 -255 47t-229 -88t-91 -238t89.5 -241t236.5 -91t253 48l6 -3v-187q-108 -46 -270 -46zM443 1067l-72 106l303 279l141 -154l-5 -26z" />
    <glyph glyph-name="ccaron.smcp" horiz-adv-x="968" 
d="M626 -24q-248 0 -398 136t-150 375t148 380.5t394 141.5q149 0 272 -45v-188l-6 -1q-117 47 -255 47t-229 -88t-91 -238t89.5 -241t236.5 -91t253 48l6 -3v-187q-108 -46 -270 -46zM534 1082l-232 264l87 82l197 -160l189 160l83 -82l-223 -264h-101z" />
    <glyph glyph-name="ccedilla.smcp" horiz-adv-x="968" 
d="M596.5 -443q-84.5 0 -144.5 19v109l6 2q39 -13 82 -13q110 0 110 75q0 63 -80 63q-45 0 -75 -11l-3 5v92l54 82q-214 22 -341 155t-127 362t148 370.5t394 141.5q149 0 272 -45v-188l-6 -1q-117 47 -255 46.5t-229 -88t-91 -237.5t89.5 -241t236.5 -91t253 48l6 -3v-187
q-91 -39 -222 -44l-43 -64q7 2 28 2q169 -7 170 -164q0 -101 -74 -148t-158.5 -47z" />
    <glyph glyph-name="ccircumflex.smcp" horiz-adv-x="968" 
d="M626 -24q-248 0 -398 136t-150 375t148 380.5t394 141.5q149 0 272 -45v-188l-6 -1q-117 47 -255 47t-229 -88t-91 -238t89.5 -241t236.5 -91t253 48l6 -3v-187q-108 -46 -270 -46zM387 1082l-85 82l223 264h102l231 -264l-85 -82l-198 160z" />
    <glyph glyph-name="cdotaccent.smcp" horiz-adv-x="968" 
d="M626 -24q-248 0 -398 136t-150 375t148 380.5t394 141.5q149 0 272 -45v-188l-6 -1q-117 47 -255 46.5t-229 -88t-91 -237.5t89.5 -241t236.5 -91t253 48l6 -3v-187q-108 -46 -270 -46zM578 1132q-57 0 -98 41t-41 98.5t41 97.5t98 40t98 -40t41 -97.5t-41 -98.5t-98 -41
z" />
    <glyph glyph-name="d.smcp" horiz-adv-x="1187" 
d="M516 177q179 0 272 82q93 81 93 235t-94 237.5t-273 83.5q-89 0 -153 -7v-627q58 -4 155 -4zM501 998q296 0 451.5 -131.5t154.5 -370.5t-156.5 -369.5t-439.5 -130.5t-370 4v981q194 17 360 17z" />
    <glyph glyph-name="eth.smcp" horiz-adv-x="1230" 
d="M559 177q179 0 271 82q92 81 92.5 235t-93.5 237.5t-272 83.5q-89 0 -153 -7v-249h186v-149h-186v-229q58 -4 155 -4zM544 998q296 0 451.5 -131.5t154.5 -370.5t-156.5 -369.5t-439.5 -130.5t-370 4v410h-156v149h156v422q194 17 360 17z" />
    <glyph glyph-name="dcaron.smcp" horiz-adv-x="1187" 
d="M516 177q179 0 272 82q93 81 93 235t-94 237.5t-273 83.5q-89 0 -153 -7v-627q58 -4 155 -4zM501 998q296 0 451.5 -131.5t154.5 -370.5t-156.5 -369.5t-439.5 -130.5t-370 4v981q194 17 360 17zM626 1082h-101l-233 264l88 82l197 -160l188 160l84 -82z" />
    <glyph glyph-name="dcroat.smcp" horiz-adv-x="1230" 
d="M559 177q179 0 271 82q92 81 92.5 235t-93.5 237.5t-272 83.5q-89 0 -153 -7v-249h186v-149h-186v-229q58 -4 155 -4zM544 998q296 0 451.5 -131.5t154.5 -370.5t-156.5 -369.5t-439.5 -130.5t-370 4v410h-156v149h156v422q194 17 360 17z" />
    <glyph glyph-name="e.smcp" horiz-adv-x="906" 
d="M141 0v987h663v-177h-447v-224h418v-169h-418v-246h464v-171h-680z" />
    <glyph glyph-name="eacute.smcp" horiz-adv-x="906" 
d="M141 0v987h663v-177h-447v-224h418v-169h-418v-246h464v-171h-680zM350 1069l-73 106l304 279l141 -154l-5 -27z" />
    <glyph glyph-name="ebreve.smcp" horiz-adv-x="906" 
d="M141 0v987h663v-177h-447v-224h418v-169h-418v-246h464v-171h-680zM484 1097q-119 0 -198 76t-79 205l139 15l6 -4q4 -61 39 -98.5t95 -37.5t99 37t42 97l6 6l132 -15q0 -128 -81 -204.5t-200 -76.5z" />
    <glyph glyph-name="ecaron.smcp" horiz-adv-x="906" 
d="M141 0v987h663v-177h-447v-224h418v-169h-418v-246h464v-171h-680zM441 1084l-232 264l87 82l197 -160l188 160l84 -82l-223 -264h-101z" />
    <glyph glyph-name="ecircumflex.smcp" horiz-adv-x="906" 
d="M141 0v987h663v-177h-447v-224h418v-169h-418v-246h464v-171h-680zM294 1084l-85 81l223 265h102l231 -265l-85 -81l-198 160z" />
    <glyph glyph-name="edieresis.smcp" horiz-adv-x="906" 
d="M141 0v987h663v-177h-447v-224h418v-169h-418v-246h464v-171h-680zM690 1141q-55 0 -93 38.5t-38 92t38 93t92 39.5t94 -39t40 -93.5t-39 -92.5t-94 -38zM294 1141q-54 0 -92 38.5t-38 92t38 93t92 39.5t93 -39t39 -93.5t-39 -92.5t-93 -38z" />
    <glyph glyph-name="edotaccent.smcp" horiz-adv-x="906" 
d="M141 0v987h663v-177h-447v-224h418v-169h-418v-246h464v-171h-680zM485 1134q-57 0 -98 41t-41 98.5t41 97.5t98 40t98 -40t41 -97.5t-41 -98.5t-98 -41z" />
    <glyph glyph-name="uni1EB9.smcp" horiz-adv-x="906" 
d="M481 -408q-57 0 -97.5 41t-40.5 98t40.5 98t97.5 41t98 -41t41 -98t-41 -98t-98 -41zM141 0v987h663v-177h-447v-224h418v-169h-418v-246h464v-171h-680z" />
    <glyph glyph-name="egrave.smcp" horiz-adv-x="906" 
d="M141 0v987h663v-177h-447v-224h418v-169h-418v-246h464v-171h-680zM609 1069l-367 204l-6 27l140 154l304 -279z" />
    <glyph glyph-name="emacron.smcp" horiz-adv-x="906" 
d="M141 0v987h663v-177h-447v-224h418v-169h-418v-246h464v-171h-680zM205 1169v149h560v-149h-560z" />
    <glyph glyph-name="eogonek.smcp" horiz-adv-x="906" 
d="M663 -222q0 -32 20.5 -55t56 -23t62.5 8l8 -4v-127q-48 -15 -131 -15t-144.5 42t-61.5 122q0 156 195 274h-527v987h663v-177h-447v-224h418v-169h-418v-246h464v-171q-158 -101 -158 -222z" />
    <glyph glyph-name="uni1EBD.smcp" horiz-adv-x="906" 
d="M141 0v987h663v-177h-447v-224h418v-169h-418v-246h464v-171h-680zM333.5 1385q72.5 0 155.5 -33.5t118.5 -33.5t56.5 20.5t21 52.5l6 4l136 -34q0 -99 -56 -156.5t-142 -57.5q-52 -2 -136.5 32.5t-118.5 34.5t-54 -19.5t-20 -53.5l-6 -3l-136 33q0 88 51.5 151t124 63z
" />
    <glyph glyph-name="uni0259.smcp" horiz-adv-x="1081" 
d="M514 156q98 0 164 58q65 58 87 170h-486q13 -112 75 -170t160 -58zM492 1007q220 0 364 -129t146 -400q0 -230 -136 -366t-350 -136t-333 117q-120 117 -120 346q0 60 2 95h706q-13 144 -91 214t-203 69q-190 0 -350 -110l-6 2v187q151 111 371 111z" />
    <glyph glyph-name="f.smcp" horiz-adv-x="876" 
d="M141 0v987h674v-194h-452v-274h397v-178h-397v-341h-222z" />
    <glyph glyph-name="g.smcp" horiz-adv-x="1107" 
d="M814 490h195v-447q-168 -65 -357 -65q-257 0 -415.5 131t-158.5 375t166 385.5t434 141.5q195 0 312 -48v-192l-7 -2q-119 48 -299 48t-279.5 -87.5t-99.5 -242t93.5 -239t268.5 -84.5q78 0 147 22v304z" />
    <glyph glyph-name="gbreve.smcp" horiz-adv-x="1107" 
d="M814 490h195v-447q-168 -65 -357 -65q-257 0 -415.5 131t-158.5 375t166 385.5t434 141.5q195 0 312 -48v-192l-7 -2q-119 48 -299 48t-279.5 -87.5t-99.5 -242t93.5 -239t268.5 -84.5q78 0 147 22v304zM612.5 1095q-119.5 0 -198.5 76t-79 205l140 15l5 -4
q4 -61 39.5 -98.5t95.5 -37.5t98.5 37.5t42.5 96.5l5 6l133 -15q0 -128 -81 -204.5t-200.5 -76.5z" />
    <glyph glyph-name="gcaron.smcp" horiz-adv-x="1107" 
d="M814 490h195v-447q-168 -65 -357 -65q-257 0 -415.5 131t-158.5 375t166 385.5t434 141.5q195 0 312 -48v-192l-7 -2q-119 48 -299 48t-279.5 -87.5t-99.5 -242t93.5 -239t268.5 -84.5q78 0 147 22v304zM670 1082h-100l-233 264l87 82l198 -160l188 160l84 -82z" />
    <glyph glyph-name="gcircumflex.smcp" horiz-adv-x="1107" 
d="M814 490h195v-447q-168 -65 -357 -65q-257 0 -415.5 131t-158.5 375t166 385.5t434 141.5q195 0 312 -48v-192l-7 -2q-119 48 -299 48t-279.5 -87.5t-99.5 -242t93.5 -239t268.5 -84.5q78 0 147 22v304zM611 1242l-188 -160l-86 82l223 264h103l231 -264l-86 -82z" />
    <glyph glyph-name="gcommaaccent.smcp" horiz-adv-x="1107" 
d="M534 -192l-5 95l188 15l17 -24q0 -181 -95 -335h-138q34 123 33 249zM814 490h195v-447q-168 -65 -357 -65q-257 0 -415.5 131t-158.5 375t166 385.5t434 141.5q195 0 312 -48v-192l-7 -2q-119 48 -299 48t-279.5 -87.5t-99.5 -242t93.5 -239t268.5 -84.5q78 0 147 22
v304z" />
    <glyph glyph-name="gdotaccent.smcp" horiz-adv-x="1107" 
d="M814 490h195v-447q-168 -65 -357 -65q-257 0 -415.5 131t-158.5 375t166 385.5t434 141.5q195 0 312 -48v-192l-7 -2q-119 48 -299 48t-279.5 -87.5t-99.5 -242t93.5 -239t268.5 -84.5q78 0 147 22v304zM613 1132q-57 0 -97.5 41t-40.5 98.5t41 97.5t97.5 40t97.5 -40
t41 -97.5t-41 -98.5t-98 -41z" />
    <glyph glyph-name="h.smcp" horiz-adv-x="1217" 
d="M855 985h219v-985h-219v395h-492v-395h-222v985h222v-391h492v391z" />
    <glyph glyph-name="hbar.smcp" horiz-adv-x="1219" 
d="M856 594v106h-491v-106h491zM1160 853v-153h-84v-700h-220v395h-491v-395h-222v700h-83v153h83v132h222v-132h491v132h220v-132h84z" />
    <glyph glyph-name="hcircumflex.smcp" horiz-adv-x="1217" 
d="M855 985h219v-985h-219v395h-492v-395h-222v985h222v-391h492v391zM605 1242l-188 -160l-86 82l224 264h102l231 -264l-86 -82z" />
    <glyph glyph-name="i.smcp" horiz-adv-x="506" 
d="M141 0v987h222v-987h-222z" />
    <glyph glyph-name="dotlessi.smcp" horiz-adv-x="506" 
d="M141 0v987h222v-987h-222z" />
    <glyph glyph-name="iacute.smcp" horiz-adv-x="506" 
d="M141 0v987h222v-987h-222zM117 1069l-72 106l303 279l142 -154l-6 -27z" />
    <glyph glyph-name="ibreve.smcp" horiz-adv-x="506" 
d="M141 0v987h222v-987h-222zM251.5 1095q-119.5 0 -198.5 76t-79 205l140 15l5 -4q4 -61 39.5 -98.5t95.5 -37.5t98.5 37.5t42.5 96.5l5 6l132 -15q0 -128 -80.5 -204.5t-200 -76.5z" />
    <glyph glyph-name="icircumflex.smcp" horiz-adv-x="506" 
d="M141 0v987h222v-987h-222zM61 1084l-85 81l223 265h103l230 -265l-85 -81l-198 160z" />
    <glyph glyph-name="idieresis.smcp" horiz-adv-x="506" 
d="M141 0v987h222v-987h-222zM457 1141q-55 0 -93 38.5t-38 92t38 93t92 39.5t94 -39t40 -93.5t-39 -92.5t-94 -38zM61 1141q-54 0 -92 38.5t-38 92t38 93t92 39.5t93.5 -39t39.5 -93.5t-39.5 -92.5t-93.5 -38z" />
    <glyph glyph-name="i.loclTRK.smcp" horiz-adv-x="506" 
d="M141 0v987h222v-987h-222zM252 1134q-57 0 -97.5 41t-40.5 98.5t40.5 97.5t97.5 40t98 -40t41 -97.5t-41 -98.5t-98 -41z" />
    <glyph glyph-name="uni1ECB.smcp" horiz-adv-x="506" 
d="M252 -408q-57 0 -97.5 41t-40.5 98t40.5 98t97.5 41t98 -41t41 -98t-41 -98t-98 -41zM141 0v987h222v-987h-222z" />
    <glyph glyph-name="igrave.smcp" horiz-adv-x="506" 
d="M141 0v987h222v-987h-222zM376 1069l-367 204l-5 27l139 154l304 -279z" />
    <glyph glyph-name="ij.smcp" horiz-adv-x="1139" 
d="M653 -13q-58 0 -111 7v190l5 4q37 -7 62 -7q179 0 179 212v592h219v-642q0 -177 -91.5 -266.5t-262.5 -89.5zM141 0v987h222v-987h-222z" />
    <glyph glyph-name="imacron.smcp" horiz-adv-x="506" 
d="M141 0v987h222v-987h-222zM-6 1169v149h516v-149h-516z" />
    <glyph glyph-name="iogonek.smcp" horiz-adv-x="506" 
d="M192 -210q0 -32 20.5 -55.5t56 -23.5t62.5 8l8 -4v-126q-48 -15 -131 -15t-144.5 41.5t-61.5 121.5q0 149 177 263h-38v987h222v-987h-30q-141 -95 -141 -210z" />
    <glyph glyph-name="itilde.smcp" horiz-adv-x="506" 
d="M141 0v987h222v-987h-222zM147 1381q47 0 110 -33.5t91 -33.5t45.5 20.5t17.5 56.5l8 4l115 -34q0 -97 -48 -153.5t-121 -56.5q-39 -2 -106 32.5t-95 34.5q-58 0 -62 -77l-3 -3l-118 33q0 86 45 148t121 62z" />
    <glyph glyph-name="j.smcp" horiz-adv-x="634" 
d="M149 -13q-60 0 -114 7v190l8 4q24 -7 59 -7q97 0 139 54t42 158v592h218v-642q0 -177 -91.5 -266.5t-260.5 -89.5z" />
    <glyph glyph-name="jacute.smcp" horiz-adv-x="634" 
d="M149 -13q-60 0 -114 7v190l8 4q24 -7 59 -7q97 0 139 54t42 158v592h218v-642q0 -177 -91.5 -266.5t-260.5 -89.5zM257 1043l-73 106l304 279l141 -155l-5 -26z" />
    <glyph glyph-name="jcircumflex.smcp" horiz-adv-x="634" 
d="M149 -13q-60 0 -114 7v190l8 4q24 -7 59 -7q97 0 139 54t42 158v592h218v-642q0 -177 -91.5 -266.5t-260.5 -89.5zM201 1058l-86 81l224 265h102l231 -265l-86 -81l-197 160z" />
    <glyph glyph-name="k.smcp" horiz-adv-x="1033" 
d="M363 0h-222v985h222v-469l400 469h237l4 -6l-418 -476l436 -497l-4 -6h-257l-398 456v-456z" />
    <glyph glyph-name="kcommaaccent.smcp" horiz-adv-x="1033" 
d="M447 -192l-6 95l188 15l17 -24q0 -181 -95 -335h-138q34 123 34 249zM363 0h-222v985h222v-469l400 469h237l4 -6l-418 -476l436 -497l-4 -6h-257l-398 456v-456z" />
    <glyph glyph-name="kgreenlandic.smcp" horiz-adv-x="1033" 
d="M363 0h-222v985h222v-469l400 469h237l4 -6l-418 -476l436 -497l-4 -6h-257l-398 456v-456z" />
    <glyph glyph-name="l.smcp" horiz-adv-x="839" 
d="M363 192h443v-192h-665v992h222v-800z" />
    <glyph glyph-name="lacute.smcp" horiz-adv-x="839" 
d="M363 192h443v-192h-665v992h222v-800zM488 1273l-6 -26l-367 -204l-72 106l303 279z" />
    <glyph glyph-name="lcaron.smcp" horiz-adv-x="843" 
d="M363 192h443v-192h-665v992h222v-800zM775 979l-66 -404h-130l15 425h162z" />
    <glyph glyph-name="lcommaaccent.smcp" horiz-adv-x="839" 
d="M380 -194l-6 95l188 15l17 -24q0 -181 -95 -335h-138q34 123 34 249zM363 192h443v-192h-665v992h222v-800z" />
    <glyph glyph-name="ldot.smcp" horiz-adv-x="893" 
d="M701.5 480q-59.5 0 -91 32t-31.5 82t31.5 83.5t91 33.5t91.5 -33.5t32 -83.5t-32 -82t-91.5 -32zM363 992v-800h443v-192h-665v992h222z" />
    <glyph glyph-name="l_periodcentered_l.loclCAT.smcp" horiz-adv-x="1733" 
d="M701.5 711q59.5 0 91.5 -33.5t32 -83.5t-32 -82t-91.5 -32t-91 32t-31.5 82t31.5 83.5t91 33.5zM1257 192h443v-192h-665v992h222v-800zM363 992v-800h443v-192h-665v992h222z" />
    <glyph glyph-name="lslash.smcp" horiz-adv-x="880" 
d="M402 192h445v-192h-665v363l-121 -78h-7v171l128 82v454h220v-312l136 87h8v-171l-144 -91v-313z" />
    <glyph glyph-name="m.smcp" horiz-adv-x="1398" 
d="M88 0l121 987h126l372 -656l339 656h138l130 -987h-202l-75 583h-2l-298 -563h-69l-312 559h-2l-67 -579h-199z" />
    <glyph glyph-name="n.smcp" horiz-adv-x="1199" 
d="M141 0v985h118l588 -607v609h211v-987h-114l-592 613v-613h-211z" />
    <glyph glyph-name="nacute.smcp" horiz-adv-x="1199" 
d="M141 0v985h118l588 -607v609h211v-987h-114l-592 613v-613h-211zM464 1069l-73 106l303 279l142 -154l-6 -27z" />
    <glyph glyph-name="napostrophe.smcp" horiz-adv-x="1374" 
d="M317 0v985h117l586 -607l2 609h209v-987h-114l-592 613l2 -613h-210zM58 834q38 226 24 439l169 28l28 -31q0 -182 -98 -436h-123z" />
    <glyph glyph-name="ncaron.smcp" horiz-adv-x="1199" 
d="M141 0v985h118l588 -607v609h211v-987h-114l-592 613v-613h-211zM555 1084l-233 264l88 82l197 -160l188 160l84 -82l-224 -264h-100z" />
    <glyph glyph-name="ncommaaccent.smcp" horiz-adv-x="1199" 
d="M492 -439q34 123 33 249l-6 95l188 15l17 -24q0 -181 -95 -335h-137zM141 0v985h118l588 -607v609h211v-987h-114l-592 613v-613h-211z" />
    <glyph glyph-name="eng.smcp" horiz-adv-x="1200" 
d="M847 987h211v-1035q0 -374 -410 -343l-4 177l4 5q201 -17 201 198v110l-497 514v-613h-211v985h118l588 -607v609z" />
    <glyph glyph-name="uni0272.smcp" horiz-adv-x="1199" 
d="M141 -11v996h118l588 -607v609h211v-987h-114l-592 613v-617q2 -222 -102.5 -310t-294.5 -77l-3 177l3 5q186 -8 186 198z" />
    <glyph glyph-name="ntilde.smcp" horiz-adv-x="1199" 
d="M141 0v985h118l588 -607v609h211v-987h-114l-592 613v-613h-211zM447 1385q73 0 155.5 -33.5t118 -33.5t57 20.5t21.5 52.5l5 4l136 -34q0 -99 -55.5 -156.5t-141.5 -57.5q-52 -2 -137 32.5t-118.5 34.5t-54 -19.5t-20.5 -53.5l-5 -3l-136 33q0 88 51 151t124 63z" />
    <glyph glyph-name="o.smcp" horiz-adv-x="1228" 
d="M613 168q139 0 223 88t84 235.5t-84 235.5t-221.5 88t-220.5 -88t-83 -236t81.5 -235.5t220.5 -87.5zM615 -24q-230 0 -382.5 136t-152.5 374.5t152 380.5t381.5 142t382.5 -137.5t153 -375t-152 -379t-382 -141.5z" />
    <glyph glyph-name="oacute.smcp" horiz-adv-x="1228" 
d="M613 168q139 0 223 88t84 235.5t-84 235.5t-221.5 88t-220.5 -88t-83 -236t81.5 -235.5t220.5 -87.5zM615 -24q-230 0 -382.5 136t-152.5 374.5t152 380.5t381.5 142t382.5 -137.5t153 -375t-152 -379t-382 -141.5zM478 1061l-72 106l303 280l142 -155l-6 -26z" />
    <glyph glyph-name="obreve.smcp" horiz-adv-x="1228" 
d="M613 168q139 0 223 88t84 235.5t-84 235.5t-221.5 88t-220.5 -88t-83 -236t81.5 -235.5t220.5 -87.5zM615 -24q-230 0 -382.5 136t-152.5 374.5t152 380.5t381.5 142t382.5 -137.5t153 -375t-152 -379t-382 -141.5zM612.5 1089q-119.5 0 -198.5 76.5t-79 204.5l140 15
l5 -4q4 -61 39.5 -98t95.5 -37t98.5 37t42.5 97l5 5l133 -15q0 -128 -81 -204.5t-200.5 -76.5z" />
    <glyph glyph-name="ocircumflex.smcp" horiz-adv-x="1228" 
d="M613 168q139 0 223 88t84 235.5t-84 235.5t-221.5 88t-220.5 -88t-83 -236t81.5 -235.5t220.5 -87.5zM615 -24q-230 0 -382.5 136t-152.5 374.5t152 380.5t381.5 142t382.5 -137.5t153 -375t-152 -379t-382 -141.5zM423 1076l-86 82l223 264h103l231 -264l-86 -82
l-197 160z" />
    <glyph glyph-name="odieresis.smcp" horiz-adv-x="1228" 
d="M613 168q139 0 223 88t84 235.5t-84 235.5t-221.5 88t-220.5 -88t-83 -236t81.5 -235.5t220.5 -87.5zM615 -24q-230 0 -382.5 136t-152.5 374.5t152 380.5t381.5 142t382.5 -137.5t153 -375t-152 -379t-382 -141.5zM818 1134q-55 0 -93 38t-38 92t38 93t92 39t94 -39
t40 -93t-39 -92t-94 -38zM423 1134q-54 0 -92.5 38t-38.5 92t38.5 93t92.5 39t93 -39t39 -93t-39 -92t-93 -38z" />
    <glyph glyph-name="uni1ECD.smcp" horiz-adv-x="1228" 
d="M613 -408q-57 0 -97.5 41t-40.5 98t41 98t97.5 41t97.5 -41t41 -98t-41 -98t-98 -41zM613 168q139 0 223 88t84 235.5t-84 235.5t-221.5 88t-220.5 -88t-83 -236t81.5 -235.5t220.5 -87.5zM615 -24q-230 0 -382.5 136t-152.5 374.5t152 380.5t381.5 142t382.5 -137.5
t153 -375t-152 -379t-382 -141.5z" />
    <glyph glyph-name="ograve.smcp" horiz-adv-x="1228" 
d="M613 168q139 0 223 88t84 235.5t-84 235.5t-221.5 88t-220.5 -88t-83 -236t81.5 -235.5t220.5 -87.5zM615 -24q-230 0 -382.5 136t-152.5 374.5t152 380.5t381.5 142t382.5 -137.5t153 -375t-152 -379t-382 -141.5zM737 1061l-366 205l-6 26l140 155l303 -280z" />
    <glyph glyph-name="ohungarumlaut.smcp" horiz-adv-x="1228" 
d="M613 168q139 0 223 88t84 235.5t-84 235.5t-221.5 88t-220.5 -88t-83 -236t81.5 -235.5t220.5 -87.5zM615 -24q-230 0 -382.5 136t-152.5 374.5t152 380.5t381.5 142t382.5 -137.5t153 -375t-152 -379t-382 -141.5zM793 1065l-100 54l156 322l155 -54l3 -32zM458 1065
l-99 54l157 322l156 -54l2 -32z" />
    <glyph glyph-name="omacron.smcp" horiz-adv-x="1228" 
d="M613 168q139 0 223 88t84 235.5t-84 235.5t-221.5 88t-220.5 -88t-83 -236t81.5 -235.5t220.5 -87.5zM615 -24q-230 0 -382.5 136t-152.5 374.5t152 380.5t381.5 142t382.5 -137.5t153 -375t-152 -379t-382 -141.5zM333 1162v149h561v-149h-561z" />
    <glyph glyph-name="uni01EB.smcp" horiz-adv-x="1228" 
d="M311 491q0 -148 82 -235.5t220.5 -87.5t222.5 88t84 235.5t-84 235.5t-221.5 88t-220.5 -88t-83 -236zM657 -210q0 -32 20.5 -55.5t56 -23.5t63.5 8l7 -4v-126q-48 -15 -131 -15t-144.5 41.5t-61.5 121.5q0 132 142 239q-227 2 -378 137.5t-151 373.5t152 380t381.5 142
t382.5 -137.5t153 -381.5q0 -179 -93.5 -305.5t-249.5 -178.5q-149 -99 -149 -216z" />
    <glyph glyph-name="oslash.smcp" horiz-adv-x="1228" 
d="M614 168q138 0 222 88t84 236q0 106 -47 188l-406 -481q67 -31 147 -31zM311 508q0 -131 50 -210l402 484q-63 34 -149 33q-138 0 -220.5 -88t-82.5 -219zM614 -24q-155 0 -279 65l-65 -76h-171v20l119 142q-138 141 -138 369.5t152 370.5t382 142q160 0 283 -67l43 50
h185v-15l-107 -126q130 -143 130.5 -367.5t-151.5 -366t-383 -141.5z" />
    <glyph glyph-name="oslashacute.smcp" horiz-adv-x="1228" 
d="M614 168q138 0 222 88t84 236q0 106 -47 188l-406 -481q67 -31 147 -31zM311 508q0 -131 50 -210l402 484q-63 34 -149 33q-138 0 -220.5 -88t-82.5 -219zM614 -24q-155 0 -279 65l-65 -76h-171v20l119 142q-138 141 -138 369.5t152 370.5t382 142q160 0 283 -67l43 50
h185v-15l-107 -126q130 -143 130.5 -367.5t-151.5 -366t-383 -141.5zM817 1272l-366 -205l-73 106l303 279l142 -154z" />
    <glyph glyph-name="otilde.smcp" horiz-adv-x="1228" 
d="M613 168q139 0 223 88t84 235.5t-84 235.5t-221.5 88t-220.5 -88t-83 -236t81.5 -235.5t220.5 -87.5zM615 -24q-230 0 -382.5 136t-152.5 374.5t152 380.5t381.5 142t382.5 -137.5t153 -375t-152 -379t-382 -141.5zM462 1378q73 0 155.5 -33.5t118 -33.5t57 20.5
t21.5 51.5l5 4l136 -33q0 -99 -56 -157t-141 -58q-52 -2 -137 32.5t-118.5 34.5t-54 -19.5t-20.5 -52.5l-5 -4l-136 34q0 88 51 151t124 63z" />
    <glyph glyph-name="oe.smcp" horiz-adv-x="1536" 
d="M303 491q0 -150 80.5 -239.5t213.5 -89.5t206.5 90.5t73.5 239t-73.5 239t-205.5 90.5t-213.5 -90t-81.5 -240zM1452 158v-158h-685q-74 -24 -169 -24q-220 0 -369 134t-149 376t145.5 382.5t372.5 140.5q84 0 160 -22h677v-160h-439q80 -99 99 -250h309v-153h-307
q-13 -155 -99 -266h454z" />
    <glyph glyph-name="p.smcp" horiz-adv-x="966" 
d="M473 458q231 0 231 182q0 88 -55 135.5t-153.5 47.5t-132.5 -6v-353q65 -6 110 -6zM499 298q-69 0 -136 5v-303h-222v985q184 13 347 11q420 -3 422 -344q2 -175 -109.5 -264.5t-301.5 -89.5z" />
    <glyph glyph-name="thorn.smcp" horiz-adv-x="975" 
d="M464 307q233 0 232 185q0 86 -55 132t-153 46t-125 -7v-352q79 -4 101 -4zM363 0h-222v987h222v-145q35 2 117 1q419 -3 421 -344q2 -175 -109 -264t-300 -90q-63 0 -129 6v-151z" />
    <glyph glyph-name="q.smcp" horiz-adv-x="1228" 
d="M311 491q0 -148 82 -235.5t220.5 -87.5t222.5 88t84 235.5t-84 235.5t-221.5 88t-220.5 -88t-83 -236zM614 -24q-229 0 -381.5 136t-152.5 374.5t152 380.5t381.5 142t382.5 -137.5t153 -389t-190 -396.5q130 -136 342 -194l-65 -160q-149 37 -252 99.5t-198 168.5
q-74 -24 -172 -24z" />
    <glyph glyph-name="r.smcp" horiz-adv-x="1009" 
d="M356 484h141q88 0 143.5 44t55.5 124t-54 123.5t-142 43.5t-144 -4v-331zM141 0v985q162 11 342 11t303.5 -77t123.5 -245q0 -117 -57.5 -196.5t-146.5 -114.5l230 -363h-236l-194 317h-150v-317h-215z" />
    <glyph glyph-name="racute.smcp" horiz-adv-x="1009" 
d="M356 484h141q88 0 143.5 44t55.5 124t-54 123.5t-142 43.5t-144 -4v-331zM141 0v985q162 11 342 11t303.5 -77t123.5 -245q0 -117 -57.5 -196.5t-146.5 -114.5l230 -363h-236l-194 317h-150v-317h-215zM341 1067l-73 106l304 279l141 -154l-6 -26z" />
    <glyph glyph-name="rcaron.smcp" horiz-adv-x="1009" 
d="M356 484h141q88 0 143.5 44t55.5 124t-54 123.5t-142 43.5t-144 -4v-331zM141 0v985q162 11 342 11t303.5 -77t123.5 -245q0 -117 -57.5 -196.5t-146.5 -114.5l230 -363h-236l-194 317h-150v-317h-215zM432 1082l-233 264l88 82l197 -160l188 160l84 -82l-224 -264h-100z
" />
    <glyph glyph-name="rcommaaccent.smcp" horiz-adv-x="1009" 
d="M402 -192l-5 95l188 15l16 -24q0 -181 -95 -335h-137q34 123 33 249zM356 484h141q88 0 143.5 44t55.5 124t-54 123.5t-142 43.5t-144 -4v-331zM141 0v985q162 11 342 11t303.5 -77t123.5 -245q0 -117 -57.5 -196.5t-146.5 -114.5l230 -363h-236l-194 317h-150v-317h-215
z" />
    <glyph glyph-name="s.smcp" horiz-adv-x="847" 
d="M389.5 -24q-176.5 0 -301.5 65v203l7 2q121 -93 294 -93t173 111q0 58 -42 89.5t-170.5 81t-189.5 113t-60 184.5t104 199t260.5 78t265.5 -46v-183l-6 -2q-97 50 -242 54q-173 0 -175 -102q0 -47 36.5 -72t95 -48t69.5 -29q132 -52 194.5 -119t62.5 -194.5t-99.5 -209.5
t-276 -82z" />
    <glyph glyph-name="sacute.smcp" horiz-adv-x="847" 
d="M389.5 -24q-176.5 0 -301.5 65v203l7 2q121 -93 294 -93t173 111q0 58 -42 89.5t-170.5 81t-189.5 113t-60 184.5t104 199t260.5 78t265.5 -46v-183l-6 -2q-97 50 -242 54q-173 0 -175 -102q0 -47 36.5 -72t95 -48t69.5 -29q132 -52 194.5 -119t62.5 -194.5t-99.5 -209.5
t-276 -82zM303 1067l-72 106l303 279l142 -154l-6 -26z" />
    <glyph glyph-name="scaron.smcp" horiz-adv-x="847" 
d="M389.5 -24q-176.5 0 -301.5 65v203l7 2q121 -93 294 -93t173 111q0 58 -42 89.5t-170.5 81t-189.5 113t-60 184.5t104 199t260.5 78t265.5 -46v-183l-6 -2q-97 50 -242 54q-173 0 -175 -102q0 -47 36.5 -72t95 -48t69.5 -29q132 -52 194.5 -119t62.5 -194.5t-99.5 -209.5
t-276 -82zM395 1082l-233 264l87 82l198 -160l188 160l84 -82l-224 -264h-100z" />
    <glyph glyph-name="scedilla.smcp" horiz-adv-x="847" 
d="M765 278.5q0 -116.5 -72.5 -195.5t-202.5 -100l-47 -69q7 2 28 2q169 -7 169 -164q0 -101 -73.5 -148t-158 -47t-144.5 19v109l6 2q39 -13 82 -13q110 0 110 75q0 63 -80 63q-43 0 -75 -11l-4 5v92l53 78q-158 7 -268 65v203l7 2q121 -93 294 -93t173 111q0 58 -42 89.5
t-170.5 81t-189.5 113t-60 184.5t104 199t260.5 78t265.5 -46v-183l-6 -2q-97 50 -242 54q-173 0 -175 -102q0 -47 36.5 -72t95 -48t69.5 -29q132 -52 194.5 -119t62.5 -183.5z" />
    <glyph glyph-name="scircumflex.smcp" horiz-adv-x="847" 
d="M389.5 -24q-176.5 0 -301.5 65v203l7 2q121 -93 294 -93t173 111q0 58 -42 89.5t-170.5 81t-189.5 113t-60 184.5t104 199t260.5 78t265.5 -46v-183l-6 -2q-97 50 -242 54q-173 0 -175 -102q0 -47 36.5 -72t95 -48t69.5 -29q132 -52 194.5 -119t62.5 -194.5t-99.5 -209.5
t-276 -82zM248 1082l-86 82l223 264h103l231 -264l-86 -82l-197 160z" />
    <glyph glyph-name="scommaaccent.smcp" horiz-adv-x="847" 
d="M328 -192l-6 95l188 15l17 -24q0 -181 -95 -335h-138q34 123 34 249zM389.5 -24q-176.5 0 -301.5 65v203l7 2q121 -93 294 -93t173 111q0 58 -42 89.5t-170.5 81t-189.5 113t-60 184.5t104 199t260.5 78t265.5 -46v-183l-6 -2q-97 50 -242 54q-173 0 -175 -102
q0 -47 36.5 -72t95 -48t69.5 -29q132 -52 194.5 -119t62.5 -194.5t-99.5 -209.5t-276 -82z" />
    <glyph glyph-name="germandbls.smcp" horiz-adv-x="1221" 
d="M806 -22q-160 0 -281 52v182l6 2q110 -73 247 -73q74 0 117 38.5t43 99.5q0 140 -236 144q-43 0 -88 -6l-14 47l180 327q-48 13 -117 13q-138 0 -223.5 -78t-85.5 -248v-478h-220v490q0 119 34.5 212t88.5 149q148 154 453 154q193 0 342 -72v-39l-179 -319
q99 -13 178 -66q100 -67 100 -214.5t-92.5 -232t-252.5 -84.5z" />
    <glyph glyph-name="t.smcp" horiz-adv-x="968" 
d="M933 985v-197h-333v-788h-220v788h-343v197h896z" />
    <glyph glyph-name="tbar.smcp" horiz-adv-x="983" 
d="M940 788h-333v-302h168v-149h-168v-337h-220v337h-178v149h178v302h-342v197h895v-197z" />
    <glyph glyph-name="tcaron.smcp" horiz-adv-x="968" 
d="M933 985v-197h-333v-788h-220v788h-343v197h896zM544 1082h-101l-233 264l88 82l197 -160l188 160l84 -82z" />
    <glyph glyph-name="uni0163.smcp" horiz-adv-x="968" 
d="M600 0h-28l-58 -86q7 2 28 2q169 -7 169 -164q0 -101 -73.5 -148t-158.5 -47t-144 19v109l6 2q39 -13 82 -13q110 0 109 75q0 63 -80 63q-43 0 -74 -11l-4 5v92l67 102h-61v788h-343v197h896v-197h-333v-788z" />
    <glyph glyph-name="uni021B.smcp" horiz-adv-x="968" 
d="M398 -192l-5 95l188 15l17 -24q0 -181 -95 -335h-138q34 123 33 249zM933 985v-197h-333v-788h-220v788h-343v197h896z" />
    <glyph glyph-name="u.smcp" horiz-adv-x="1161" 
d="M582 -20q-215 0 -334.5 112.5t-119.5 315.5v579h222v-557q0 -127 60.5 -193t174 -66t175 66t61.5 193v557h212v-579q0 -203 -118 -315.5t-333 -112.5z" />
    <glyph glyph-name="uacute.smcp" horiz-adv-x="1161" 
d="M582 -20q-215 0 -334.5 112.5t-119.5 315.5v579h222v-557q0 -127 60.5 -193t174 -66t175 66t61.5 193v557h212v-579q0 -203 -118 -315.5t-333 -112.5zM447 1069l-73 106l304 279l141 -154l-5 -27z" />
    <glyph glyph-name="ubreve.smcp" horiz-adv-x="1161" 
d="M582 -20q-215 0 -334.5 112.5t-119.5 315.5v579h222v-557q0 -127 60.5 -193t174 -66t175 66t61.5 193v557h212v-579q0 -203 -118 -315.5t-333 -112.5zM581 1097q-119 0 -198.5 76t-79.5 205l140 15l6 -4q4 -61 39 -98.5t95.5 -37.5t99 37t41.5 97l6 6l132 -15
q0 -128 -81 -204.5t-200 -76.5z" />
    <glyph glyph-name="ucircumflex.smcp" horiz-adv-x="1161" 
d="M582 -20q-215 0 -334.5 112.5t-119.5 315.5v579h222v-557q0 -127 60.5 -193t174 -66t175 66t61.5 193v557h212v-579q0 -203 -118 -315.5t-333 -112.5zM391 1084l-86 81l224 265h102l231 -265l-86 -81l-197 160z" />
    <glyph glyph-name="udieresis.smcp" horiz-adv-x="1161" 
d="M582 -20q-215 0 -334.5 112.5t-119.5 315.5v579h222v-557q0 -127 60.5 -193t174 -66t175 66t61.5 193v557h212v-579q0 -203 -118 -315.5t-333 -112.5zM787 1141q-55 0 -93.5 38.5t-38.5 92t38.5 93t92.5 39.5t94 -39t40 -93.5t-39 -92.5t-94 -38zM391 1141
q-54 0 -92 38.5t-38 92t38 93t92 39.5t93 -39t39 -93.5t-39 -92.5t-93 -38z" />
    <glyph glyph-name="uni1EE5.smcp" horiz-adv-x="1161" 
d="M582 -408q-57 0 -98 41t-41 98t41 98t98 41t98 -41t41 -98t-41 -98t-98 -41zM582 -20q-215 0 -334.5 112.5t-119.5 315.5v579h222v-557q0 -127 60.5 -193t174 -66t175 66t61.5 193v557h212v-579q0 -203 -118 -315.5t-333 -112.5z" />
    <glyph glyph-name="ugrave.smcp" horiz-adv-x="1161" 
d="M582 -20q-215 0 -334.5 112.5t-119.5 315.5v579h222v-557q0 -127 60.5 -193t174 -66t175 66t61.5 193v557h212v-579q0 -203 -118 -315.5t-333 -112.5zM706 1069l-367 204l-6 27l140 154l303 -279z" />
    <glyph glyph-name="uhungarumlaut.smcp" horiz-adv-x="1161" 
d="M582 -20q-215 0 -334.5 112.5t-119.5 315.5v579h222v-557q0 -127 60.5 -193t174 -66t175 66t61.5 193v557h212v-579q0 -203 -118 -315.5t-333 -112.5zM761 1072l-100 54l156 322l155 -53l4 -32zM426 1072l-98 54l156 322l156 -53l2 -32z" />
    <glyph glyph-name="umacron.smcp" horiz-adv-x="1161" 
d="M582 -20q-215 0 -334.5 112.5t-119.5 315.5v579h222v-557q0 -127 60.5 -193t174 -66t175 66t61.5 193v557h212v-579q0 -203 -118 -315.5t-333 -112.5zM302 1169v149h560v-149h-560z" />
    <glyph glyph-name="uogonek.smcp" horiz-adv-x="1161" 
d="M821 987h212v-579q0 -151 -66 -253.5t-189 -145.5q-156 -101 -156 -219q0 -32 20 -56t56 -23.5t63 8.5l8 -4v-126q-48 -15 -131 -15t-144.5 41.5t-61.5 121.5q0 134 147 243q-214 2 -332.5 114.5t-118.5 313.5v579h222v-557q0 -127 60 -193t174 -66t175.5 66t61.5 193
v557z" />
    <glyph glyph-name="uring.smcp" horiz-adv-x="1161" 
d="M582 -20q-215 0 -334.5 112.5t-119.5 315.5v579h222v-557q0 -127 60.5 -193t174 -66t175 66t61.5 193v557h212v-579q0 -203 -118 -315.5t-333 -112.5zM586 1175q38 0 63 26t25 63t-25 62.5t-63 25.5t-64.5 -25.5t-26.5 -62.5t26.5 -63t64.5 -26zM584 1063q-90 0 -148 58
t-58 142.5t57.5 141.5t148 57t148 -57t57.5 -143t-57.5 -142.5t-147.5 -56.5z" />
    <glyph glyph-name="utilde.smcp" horiz-adv-x="1161" 
d="M582 -20q-215 0 -334.5 112.5t-119.5 315.5v579h222v-557q0 -127 60.5 -193t174 -66t175 66t61.5 193v557h212v-579q0 -203 -118 -315.5t-333 -112.5zM430 1385q73 0 155.5 -33.5t118 -33.5t57 20.5t21.5 52.5l6 4l135 -34q0 -99 -55.5 -156.5t-141.5 -57.5
q-52 -2 -136.5 32.5t-118.5 34.5t-54 -19.5t-20 -53.5l-6 -3l-136 33q0 88 51 151t124 63z" />
    <glyph glyph-name="v.smcp" horiz-adv-x="1037" 
d="M1018 985l4 -6l-436 -979h-139l-432 979l4 6h221l285 -706l287 706h206z" />
    <glyph glyph-name="w.smcp" horiz-adv-x="1508" 
d="M1484 985l2 -6l-345 -979h-154l-222 670l-7 28l-231 -698h-158l-347 979l4 6h214l205 -659l7 -41l10 41l216 659h167l216 -657l11 -51l10 53l201 655h201z" />
    <glyph glyph-name="wacute.smcp" horiz-adv-x="1508" 
d="M1484 985l2 -6l-345 -979h-154l-222 670l-7 28l-231 -698h-158l-347 979l4 6h214l205 -659l7 -41l10 41l216 659h167l216 -657l11 -51l10 53l201 655h201zM987 1272l-367 -205l-73 106l304 279l141 -154z" />
    <glyph glyph-name="wcircumflex.smcp" horiz-adv-x="1508" 
d="M1484 985l2 -6l-345 -979h-154l-222 670l-7 28l-231 -698h-158l-347 979l4 6h214l205 -659l7 -41l10 41l216 659h167l216 -657l11 -51l10 53l201 655h201zM752 1242l-188 -160l-86 82l224 264h102l231 -264l-85 -82z" />
    <glyph glyph-name="wdieresis.smcp" horiz-adv-x="1508" 
d="M1484 985l2 -6l-345 -979h-154l-222 670l-7 28l-231 -698h-158l-347 979l4 6h214l205 -659l7 -41l10 41l216 659h167l216 -657l11 -51l10 53l201 655h201zM960 1139q-55 0 -93 38.5t-38 92.5t38 93t92 39t94 -39t40 -93t-39 -92.5t-94 -38.5zM564 1139q-54 0 -92 38.5
t-38 92.5t38 93t92 39t93 -39t39 -93t-39 -92.5t-93 -38.5z" />
    <glyph glyph-name="wgrave.smcp" horiz-adv-x="1508" 
d="M1484 985l2 -6l-345 -979h-154l-222 670l-7 28l-231 -698h-158l-347 979l4 6h214l205 -659l7 -41l10 41l216 659h167l216 -657l11 -51l10 53l201 655h201zM879 1067l-367 205l-6 26l140 154l304 -279z" />
    <glyph glyph-name="x.smcp" horiz-adv-x="1044" 
d="M648 503l370 -497l-1 -6h-228l-273 372l-274 -372h-218l-2 6l375 500l-352 473l2 6h229l253 -350l257 350h216l3 -6z" />
    <glyph glyph-name="y.smcp" horiz-adv-x="1005" 
d="M402 0v363l-383 616l3 6h220l266 -436l263 436h212l2 -6l-380 -614v-365h-203z" />
    <glyph glyph-name="yacute.smcp" horiz-adv-x="1005" 
d="M402 0v363l-383 616l3 6h220l266 -436l263 436h212l2 -6l-380 -614v-365h-203zM359 1067l-72 106l303 279l142 -154l-6 -26z" />
    <glyph glyph-name="ycircumflex.smcp" horiz-adv-x="1005" 
d="M402 0v363l-383 616l3 6h220l266 -436l263 436h212l2 -6l-380 -614v-365h-203zM303 1082l-85 82l223 264h103l231 -264l-86 -82l-197 160z" />
    <glyph glyph-name="ydieresis.smcp" horiz-adv-x="1005" 
d="M402 0v363l-383 616l3 6h220l266 -436l263 436h212l2 -6l-380 -614v-365h-203zM699 1139q-55 0 -93 38.5t-38 92.5t38 93t92 39t94 -39t40 -93t-39 -92.5t-94 -38.5zM303 1139q-54 0 -92 38.5t-38 92.5t38 93t92 39t93.5 -39t39.5 -93t-39.5 -92.5t-93.5 -38.5z" />
    <glyph glyph-name="ygrave.smcp" horiz-adv-x="1005" 
d="M402 0v363l-383 616l3 6h220l266 -436l263 436h212l2 -6l-380 -614v-365h-203zM618 1067l-367 205l-5 26l139 154l304 -279z" />
    <glyph glyph-name="uni0233.smcp" horiz-adv-x="1005" 
d="M402 0v363l-383 616l3 6h220l266 -436l263 436h212l2 -6l-380 -614v-365h-203zM214 1167v149h561v-149h-561z" />
    <glyph glyph-name="uni1EF9.smcp" horiz-adv-x="1005" 
d="M402 0v363l-383 616l3 6h220l266 -436l263 436h212l2 -6l-380 -614v-365h-203zM342.5 1383q72.5 0 155.5 -33.5t118.5 -33.5t56.5 20.5t21 52.5l6 4l136 -34q0 -99 -56 -156.5t-141 -57.5q-52 -2 -137 32.5t-118.5 34.5t-54 -19.5t-20.5 -53.5l-6 -3l-135 33q0 88 51 151
t123.5 63z" />
    <glyph glyph-name="z.smcp" horiz-adv-x="992" 
d="M925 181v-181h-856v104l551 702h-542v183h836v-106l-549 -702h560z" />
    <glyph glyph-name="zacute.smcp" horiz-adv-x="992" 
d="M925 181v-181h-856v104l551 702h-542v183h836v-106l-549 -702h560zM721 1272l-367 -205l-73 106l304 279l141 -154z" />
    <glyph glyph-name="zcaron.smcp" horiz-adv-x="992" 
d="M925 181v-181h-856v104l551 702h-542v183h836v-106l-549 -702h560zM546 1082h-101l-233 264l88 82l197 -160l188 160l84 -82z" />
    <glyph glyph-name="zdotaccent.smcp" horiz-adv-x="992" 
d="M925 181v-181h-856v104l551 702h-542v183h836v-106l-549 -702h560zM489 1132q-57 0 -98 41t-41 98.5t41 97.5t98 40t97.5 -40t40.5 -97.5t-40.5 -98.5t-97.5 -41z" />
    <glyph glyph-name="zero.osf" horiz-adv-x="1178" 
d="M591 175q133 0 208 84q74 84 74 230q0 145 -76 233q-75 88 -207 88t-207 -87t-75 -233t74 -230q76 -85 209 -85zM589 -24q-226 0 -364 134q-137 134 -137 375t139 384q140 142 364 142t363 -140q139 -141 139 -381t-139 -377t-365 -137z" />
    <glyph glyph-name="one.osf" horiz-adv-x="647" 
d="M292 0v717l-232 -95v210l404 168h39v-1000h-211z" />
    <glyph glyph-name="two.osf" horiz-adv-x="999" 
d="M84 0v136q35 24 193 128t208 153t86 89q66 72 66 153q-2 160 -218 160q-171 0 -311 -106l-6 4l-1 193q153 101 347 101t302 -82q108 -83 108 -235t-92 -259t-282 -234q-22 -15 -37 -19l2 -3q19 7 37 7h450v-186h-852z" />
    <glyph glyph-name="three.osf" horiz-adv-x="949" 
d="M868 138q0 -199 -120 -306t-309 -108q-127 0 -201 22t-154 70v199l7 4q134 -108 328 -108q106 1 175 57t69 167t-71 158t-212 50h-90v173l73 2q115 2 178 43q62 42 62 112t-52 109t-143 39q-181 0 -293 -82l-7 6v178q134 88 313 88t286 -76t107 -234t-136 -249
q190 -82 190 -314z" />
    <glyph glyph-name="four.osf" horiz-adv-x="1111" 
d="M681 169v490l-368 -490h368zM1054 169v-169h-181v-270h-192v270h-646v91l680 911h158v-833h181z" />
    <glyph glyph-name="five.osf" horiz-adv-x="981" 
d="M452 -276q-201 0 -359 75v186l11 6q93 -50 160 -69t178 -19t185 63q73 62 73 168t-72 166t-222 60t-287 -30l22 655h706v-186h-527l-9 -272q74 13 147 13q222 0 334 -101t111 -292q0 -111 -40 -195q-70 -147 -251 -203q-78 -25 -160 -25z" />
    <glyph glyph-name="six.osf" horiz-adv-x="1068" 
d="M576 600q-98 0 -169 -57q-70 -57 -89 -156q56 -229 237 -229q102 0 165 65q62 65 63 162t-54 156t-153 59zM616 788q168 0 272 -104t104 -284q0 -182 -121 -306t-329 -124t-329 150q-120 150 -120 433q0 346 161 539t420 193q127 0 223 -36v-182l-7 -6q-91 37 -214 37
q-175 0 -266 -124t-105 -334q104 148 311 148z" />
    <glyph glyph-name="seven.osf" horiz-adv-x="917" 
d="M43 786v199h843v-110l-510 -1147h-214l-2 6l480 1052h-597z" />
    <glyph glyph-name="eight.osf" horiz-adv-x="1040" 
d="M520 141q102 0 160 45t55 119q0 74 -56 128t-202 121q-11 5 -17 8q-169 -99 -166 -244q0 -86 62 -132t164 -45zM715 931q-1 83 -53 131t-140 48t-138 -46q-51 -46 -51 -112q1 -66 49 -113q48 -46 171 -102q162 86 162 194zM512 -28q-201 0 -313 87t-111 230
q-4 212 225 350q-190 119 -190 290t114 263q115 92 286 92t284 -86t113 -252t-209 -285q123 -71 179 -149t56 -192q2 -156 -116 -252t-318 -96z" />
    <glyph glyph-name="nine.osf" horiz-adv-x="1061" 
d="M492 356q96 0 169 53t93 144q-24 128 -89 200t-162 72t-156 -65q-59 -66 -59 -170t54 -169t150 -65zM520 1011q208 0 331 -161q123 -162 123 -464t-145 -482t-401 -180q-164 0 -273 36v190l5 7q108 -47 261 -46q305 0 342 396q-112 -134 -293 -134t-288 109
q-108 110 -108 298t120 310q118 122 326 121z" />
    <glyph glyph-name="zero.sinf" horiz-adv-x="741" 
d="M372 -169q135 0 134 223q0 112 -36 172t-99 59q-63 0 -99 -59t-36 -172q1 -223 136 -223zM372 411q138 0 224 -92t86 -264q0 -171 -87 -261q-86 -90 -225 -90t-224 89t-85 261t86 264q86 93 225 93z" />
    <glyph glyph-name="one.sinf" horiz-adv-x="458" 
d="M195 -279v467l-152 -48v173l301 100h19v-692h-168z" />
    <glyph glyph-name="two.sinf" horiz-adv-x="659" 
d="M60 -279q0 179 193 318q95 71 124 101t29 61q0 73 -121 73t-207 -71l-2 2v141q104 71 229 71t200 -49q75 -48 75 -134t-39 -140q-41 -54 -143 -124t-108 -115h317v-134h-547z" />
    <glyph glyph-name="three.sinf" horiz-adv-x="633" 
d="M579 -67q0 -106 -78 -167q-79 -60 -211 -60t-221 43v132l2 2q71 -45 169 -45t143 23q44 23 43 72q0 86 -109 86h-133v113h118q95 0 95 73q0 78 -126 78t-185 -35l-2 1v133q86 35 203 35q266 0 266 -182q0 -92 -82 -146q108 -50 108 -156z" />
    <glyph glyph-name="four.sinf" horiz-adv-x="690" 
d="M391 -52v259l-190 -259h190zM642 -52v-110h-96v-117h-155v117h-363v73l378 502h140v-465h96z" />
    <glyph glyph-name="five.sinf" horiz-adv-x="642" 
d="M415 -61q0 89 -132 89q-99 0 -205 -19l-4 4l27 391h446v-134h-316l-11 -129q39 7 133 7t163 -49t69 -165t-86 -172t-209 -56t-223 31v138h2q95 -39 205 -39q141 0 141 103z" />
    <glyph glyph-name="six.sinf" horiz-adv-x="692" 
d="M357 -169q54 1 87 29t33 70t-29 70t-79 28q-51 0 -89 -27t-57 -66q30 -104 134 -104zM402 156q106 0 170 -58q63 -58 63 -162t-77 -168q-76 -64 -214 -64t-213 82t-75 248t102 274q102 107 266 107q95 0 153 -20v-129l-5 -3q-58 22 -142 22q-182 0 -210 -205
q76 76 182 76z" />
    <glyph glyph-name="seven.sinf" horiz-adv-x="599" 
d="M47 251v151h526v-84l-275 -597h-164l-4 2l259 528h-342z" />
    <glyph glyph-name="eight.sinf" horiz-adv-x="688" 
d="M344 -179q58 -1 92 21t35 56t-33 58t-120 51l-35 13q-69 -39 -69 -104q0 -95 130 -95zM347 300q-49 0 -76 -19t-27 -51t20 -45q20 -14 118 -53q71 39 70 91q0 33 -28 55t-77 22zM340 -294q-133 0 -206 50t-73 140q0 114 116 177q-93 61 -93 154t74 144t187 51t187 -45
q74 -47 74 -141t-109 -152q71 -34 101 -76t29 -101q0 -89 -77 -145t-210 -56z" />
    <glyph glyph-name="nine.sinf" horiz-adv-x="694" 
d="M216 181q0 -101 115 -101q88 0 144 56q-19 143 -144 143q-51 -1 -83 -29t-32 -69zM342 417q137 1 214 -87t77 -246q0 -378 -344 -378q-115 0 -185 26v138l4 2q78 -34 173 -36t139 46t53 133q-67 -58 -175 -58t-176 55t-68 163t75 175q76 67 213 67z" />
    <glyph glyph-name="zero.tf" horiz-adv-x="1038" 
d="M274 610q0 -212 65 -324t181 -113q116 0 181 113q66 113 66 324t-67 327q-68 117 -182 117t-179 -116t-65 -328zM516 -28q-210 0 -339 164t-129 472t132 478t342 170t338 -168q128 -170 128 -479t-130 -473q-132 -164 -342 -164z" />
    <glyph glyph-name="one.tf" horiz-adv-x="1038" 
d="M518 0v940l-287 -123h-11v220l471 216h41v-1253h-214z" />
    <glyph glyph-name="two.tf" horiz-adv-x="1038" 
d="M711 896q0 171 -219 171q-112 0 -203 -38t-140 -81l-4 2l-2 189q151 119 376 120q173 -1 291 -89t117 -254q0 -130 -62 -223t-230 -228q-236 -192 -248 -279h566v-186h-841q-2 151 88 287q90 135 251 275t211 202q49 62 49 132z" />
    <glyph glyph-name="three.tf" horiz-adv-x="1038" 
d="M484 -28q-206 0 -357 82v197l3 2q132 -99 324 -98q123 -1 202 55t79 155t-76 143t-248 47l-104 2v175h104q128 0 199 44q70 45 70 127t-59 127t-167 44q-188 0 -294 -76l-4 2v182q153 78 331 78q179 0 291 -81t112 -245t-147 -264q195 -82 201 -307q2 -177 -126 -284
t-334 -107z" />
    <glyph glyph-name="four.tf" horiz-adv-x="1038" 
d="M644 423v489l-331 -489h331zM1000 423v-181h-157v-242h-199v242h-605v97l633 907h171v-823h157z" />
    <glyph glyph-name="five.tf" horiz-adv-x="1038" 
d="M128 41v205h4q168 -84 318 -84q289 0 289 225q0 97 -69 156t-217 59t-302 -45l-4 5l35 674h717v-184h-534l-13 -281q61 19 160 18q210 0 330 -99q119 -100 119 -288q0 -115 -42 -202t-112 -134q-140 -94 -324 -94q-183 0 -355 69z" />
    <glyph glyph-name="six.tf" horiz-adv-x="1038" 
d="M557 158q106 0 167 64q62 64 62 163t-55 161t-157 61q-102 0 -172 -62q-71 -62 -84 -163q49 -224 239 -224zM624 795q169 0 272 -103q104 -103 104 -286q0 -184 -122 -310t-332 -126t-336 149q-125 149 -124 425q0 337 163 525q164 188 429 188q151 0 234 -34v-180l-7 -4
q-89 34 -222 33q-177 0 -267 -116t-109 -310q110 149 317 149z" />
    <glyph glyph-name="seven.tf" horiz-adv-x="1038" 
d="M115 1031v202h874v-110l-486 -1123h-227l456 1031h-617z" />
    <glyph glyph-name="eight.tf" horiz-adv-x="1038" 
d="M300 337q0 -182 234 -182q102 0 160 48q58 47 56 123t-60 123t-262 124q-128 -93 -128 -236zM726 923q0 148 -195 148q-91 -1 -139 -39t-49 -102t55 -109t188 -95l8 -4q132 84 132 201zM522 -28q-208 0 -324 90t-116 253q0 205 195 340q-156 109 -156 267t115 247
q116 89 294 89t292 -78q114 -80 114 -234q0 -177 -188 -294q116 -63 166 -136t52 -185q0 -159 -118 -259t-326 -100z" />
    <glyph glyph-name="nine.tf" horiz-adv-x="1038" 
d="M525 614q155 0 240 138q-15 149 -81 234t-164 85q-98 1 -160 -61t-62 -167t60 -167t167 -62zM82 831q0 189 126 309t329 120q204 0 324 -154t120 -470q0 -314 -139 -486t-390 -172q-184 0 -296 46v194l6 4q120 -60 276 -61t232 97t93 276q-107 -106 -283 -106t-287 107
t-111 296z" />
    <glyph glyph-name="zero.dnom" horiz-adv-x="741" 
d="M372 110q135 0 134 223q0 112 -36 172q-36 59 -99 59t-99 -59t-36 -172q1 -223 136 -223zM61 333q0 171 86 265t225 93q138 0 224 -92q86 -93 86 -265t-87 -262q-86 -90 -225 -89q-139 -1 -224 89t-85 261z" />
    <glyph glyph-name="one.dnom" horiz-adv-x="458" 
d="M195 0v467l-152 -48v173l301 101h19v-693h-168z" />
    <glyph glyph-name="two.dnom" horiz-adv-x="659" 
d="M60 0q0 179 193 318q95 71 124 101q29 29 29 61t-28 52t-76 21q-134 0 -224 -71l-2 2v142q104 70 229 70t200 -49t75 -135t-39 -138q-40 -54 -128 -117q-112 -74 -121 -123h315v-134h-547z" />
    <glyph glyph-name="three.dnom" horiz-adv-x="633" 
d="M579 212q0 -106 -78 -166q-79 -60 -213 -61q-134 0 -219 45v130l2 2q71 -45 169 -45q187 0 186 95q0 86 -109 86h-133v113h118q95 0 95 73q0 78 -126 78t-185 -35l-2 2v132q86 35 203 35q266 0 266 -182q0 -91 -82 -145q108 -51 108 -157z" />
    <glyph glyph-name="four.dnom" horiz-adv-x="690" 
d="M391 227v259l-190 -259h190zM642 227v-110h-96v-117h-155v117h-363v73l378 503h140v-466h96z" />
    <glyph glyph-name="five.dnom" horiz-adv-x="642" 
d="M290 -15q-123 0 -223 32v138h2q95 -39 205 -40q141 0 141 103q0 89 -132 89q-99 0 -205 -18l-4 3l27 391h446v-134h-316l-11 -128q60 7 106 7q121 0 190 -50t69 -166t-86 -171q-86 -56 -209 -56z" />
    <glyph glyph-name="six.dnom" horiz-adv-x="692" 
d="M357 110q54 0 87 29t33 71t-29 69q-29 28 -79 28q-51 0 -89 -27t-57 -66q30 -104 134 -104zM401 424q107 0 171 -54q63 -54 63 -156t-77 -166q-76 -64 -214 -65q-138 0 -213 82q-75 83 -75 249t102 273t266 107q91 0 153 -18v-129l-5 -3q-60 20 -142 20q-186 0 -212 -216
q76 76 183 76z" />
    <glyph glyph-name="seven.dnom" horiz-adv-x="599" 
d="M47 531v150h526v-83l-275 -598h-164l-4 2l259 529h-342z" />
    <glyph glyph-name="eight.dnom" horiz-adv-x="688" 
d="M348 101q58 0 90 21t33 57q0 78 -164 125q-7 3 -9 3q-84 -43 -84 -112q0 -94 134 -94zM246 510q0 -32 25 -50t66 -31q41 -14 45 -18q74 41 74 92q0 34 -29 55t-79 21q-102 0 -102 -69zM344 -15q-132 0 -207 50t-76 140q0 117 125 181q-102 60 -102 152t74 143t186 51
t188 -45t75 -139q0 -94 -110 -155q71 -35 101 -77t29 -100q0 -89 -75 -145q-76 -56 -208 -56z" />
    <glyph glyph-name="nine.dnom" horiz-adv-x="694" 
d="M331 359q88 0 144 56q-19 143 -144 144q-51 0 -83 -29t-32 -70q0 -101 115 -101zM298 238q-106 0 -176 54q-68 54 -68 162t76 176q76 66 212 66q137 0 214 -88t77 -245q0 -378 -344 -378q-115 0 -185 26v138l4 2q78 -35 173 -37t139 46t53 134q-69 -56 -175 -56z" />
    <glyph glyph-name="zero.numr" horiz-adv-x="741" 
d="M372 668q135 0 134 224q0 112 -36 172t-99 59q-63 0 -99 -59t-36 -172q1 -224 136 -224zM372 1249q138 0 224 -92t86 -264q0 -171 -87 -261q-86 -90 -225 -90t-224 89t-85 261t86 264q86 93 225 93z" />
    <glyph glyph-name="one.numr" horiz-adv-x="458" 
d="M195 559v467l-152 -49v174l301 100h19v-692h-168z" />
    <glyph glyph-name="two.numr" horiz-adv-x="659" 
d="M60 559q0 179 193 318q95 71 124 101t29 61q0 32 -28 52t-76 21q-134 0 -224 -71l-2 2v141q104 71 229 71t200 -49t75 -135t-39 -139q-40 -53 -128 -117q-112 -74 -121 -122h315v-134h-547z" />
    <glyph glyph-name="three.numr" horiz-adv-x="633" 
d="M579 771q0 -106 -78 -167q-79 -60 -213 -60t-219 44v131l2 2q71 -45 169 -45t143 23q44 23 43 72q0 86 -109 85h-133v114h118q95 0 95 73q0 78 -126 78t-185 -36l-2 2v132q86 35 203 36q266 0 266 -183q0 -91 -82 -145q108 -50 108 -156z" />
    <glyph glyph-name="four.numr" horiz-adv-x="690" 
d="M391 786v258l-190 -258h190zM642 786v-110h-96v-117h-155v117h-363v72l378 503h140v-465h96z" />
    <glyph glyph-name="five.numr" horiz-adv-x="642" 
d="M326 987q259 0 259 -216q0 -115 -86 -171t-209 -56t-223 31v138h2q95 -39 205 -39q141 0 141 102q0 89 -132 90q-99 0 -205 -19l-4 4l27 391h446v-134h-316l-11 -129q60 7 106 8z" />
    <glyph glyph-name="six.numr" horiz-adv-x="692" 
d="M357 668q54 0 87 29t33 71t-29 70t-79 28q-51 0 -89 -27t-57 -66q30 -105 134 -105zM401 983q107 0 171 -55q64 -54 63 -156q0 -102 -77 -166q-76 -64 -214 -64t-213 82t-75 248t102 274q102 107 266 107q91 0 153 -19v-128l-5 -4q-60 20 -142 21q-186 0 -212 -216
q76 76 183 76z" />
    <glyph glyph-name="seven.numr" horiz-adv-x="599" 
d="M47 1089v151h526v-84l-275 -597h-164l-4 1l259 529h-342z" />
    <glyph glyph-name="eight.numr" horiz-adv-x="688" 
d="M348 659q58 0 90 21t33 57q0 36 -34 64q-35 27 -79 43t-51 19t-9 3q-84 -43 -84 -112q0 -95 134 -95zM456 1053q0 85 -105 85t-105 -69q0 -32 25 -50q25 -17 66 -31t45 -18q74 41 74 83zM344 544q-132 0 -207 50t-76 140q0 117 125 180q-102 60 -102 152t74 143t186 51
t188 -44q75 -45 75 -139t-110 -155q132 -65 130 -177q0 -89 -75 -145q-76 -56 -208 -56z" />
    <glyph glyph-name="nine.numr" horiz-adv-x="694" 
d="M331 918q88 0 144 56q-19 143 -144 143q-51 0 -83 -29t-32 -70q0 -100 115 -100zM342 1255q137 0 214 -88t77 -245q0 -378 -344 -378q-115 0 -185 26v137l4 2q78 -35 173 -36t139 47t53 133q-69 -56 -175 -56t-176 54q-68 54 -68 162t75 175q76 67 213 67z" />
    <glyph glyph-name="zero.sups" horiz-adv-x="741" 
d="M372 948q135 0 134 223q0 111 -36 171t-99 60t-99 -59t-36 -172q1 -223 136 -223zM370 821q-139 0 -224 89q-85 88 -85 260t86 265t225 93q138 0 224 -92t86 -264t-87 -262q-86 -90 -225 -89z" />
    <glyph glyph-name="one.sups" horiz-adv-x="458" 
d="M195 838v467l-152 -48v173l301 100h19v-692h-168z" />
    <glyph glyph-name="two.sups" horiz-adv-x="659" 
d="M60 838q0 179 193 318q95 71 124 101q29 29 29 61t-28 52t-76 21q-134 0 -224 -71l-2 2v141q104 71 229 71t200 -49t75 -135t-39 -138q-40 -54 -128 -117q-112 -74 -121 -123h315v-134h-547z" />
    <glyph glyph-name="three.sups" horiz-adv-x="633" 
d="M579 1050q0 -106 -78 -167q-79 -61 -213 -61t-219 46v130l2 2q71 -45 169 -45t143 23q44 23 43 72q0 86 -109 86h-133v113h118q95 0 95 73q0 78 -126 78t-185 -35l-2 2v132q86 35 203 35q266 0 266 -182q0 -92 -82 -146q108 -50 108 -156z" />
    <glyph glyph-name="four.sups" horiz-adv-x="690" 
d="M391 1065v259l-190 -259h190zM642 1065v-110h-96v-117h-155v117h-363v73l378 502h140v-465h96z" />
    <glyph glyph-name="five.sups" horiz-adv-x="642" 
d="M290 823q-123 0 -223 32v137h2q95 -39 205 -39q141 0 141 103q0 89 -132 89q-99 0 -205 -19l-4 4l27 391h446v-134h-316l-11 -128q60 7 106 7q121 0 190 -50t69 -166t-86 -171q-86 -56 -209 -56z" />
    <glyph glyph-name="six.sups" horiz-adv-x="692" 
d="M357 948q54 0 87 29t33 71t-29 69q-29 28 -79 28q-51 0 -89 -27t-57 -66q30 -104 134 -104zM401 1262q107 0 171 -55t63 -156q0 -101 -77 -165q-76 -64 -214 -65q-138 0 -213 82q-75 83 -75 249t102 273t266 107q91 0 153 -18v-129l-5 -4q-60 20 -142 21
q-186 0 -212 -216q76 76 183 76z" />
    <glyph glyph-name="seven.sups" horiz-adv-x="599" 
d="M47 1368v151h526v-84l-275 -597h-164l-4 2l259 528h-342z" />
    <glyph glyph-name="eight.sups" horiz-adv-x="688" 
d="M348 938q58 0 90 22t33 56q0 36 -40 69t-124 57q-7 3 -9 3q-84 -43 -84 -112q0 -95 134 -95zM246 1348q0 -32 25 -50t66 -31q41 -14 45 -18q74 41 74 92q0 34 -29 55t-79 21q-102 0 -102 -69zM344 823q-132 0 -207 50t-76 140q0 117 125 180q-102 60 -102 152
q0 91 74 143t186 52t188 -45t75 -139q0 -94 -110 -155q71 -35 101 -77t29 -100q0 -89 -75 -145q-76 -56 -208 -56z" />
    <glyph glyph-name="nine.sups" horiz-adv-x="694" 
d="M331 1197q88 0 144 56q-19 143 -144 143q-51 0 -83 -28t-32 -70q0 -101 115 -101zM298 1076q-106 0 -176 54q-68 54 -68 162t76 176q76 66 212 66q137 0 214 -88t77 -245q0 -378 -344 -378q-115 0 -185 26v138l4 2q78 -35 173 -37t139 46t53 134q-69 -56 -175 -56z" />
    <glyph glyph-name="zero.smcp" horiz-adv-x="1215" 
d="M608 830q-140 0 -220 -90t-81 -242q0 -152 81 -240q82 -88 222 -87q140 0 220 88q80 89 80 239t-81 241t-221 91zM607 -24q-235 0 -377 137t-142 381t144 390t377 146t377 -142t144 -388q0 -244 -144 -384t-379 -140z" />
    <glyph glyph-name="one.smcp" horiz-adv-x="647" 
d="M292 0v735l-232 -95v211l404 166h39v-1017h-211z" />
    <glyph glyph-name="two.smcp" horiz-adv-x="999" 
d="M80 0q0 156 92 260q47 53 127 115t136 95q151 86 176 136q24 50 24 85q-2 143 -216 147q-179 0 -311 -106l-6 3l-1 194q143 101 335 101t307 -80t115 -239q0 -117 -70 -205t-215 -176t-165 -113t-39 -36l2 -4q19 9 37 9h491v-186h-819z" />
    <glyph glyph-name="three.smcp" horiz-adv-x="949" 
d="M868 292q0 -154 -120 -236t-316 -82q-197 0 -348 84v195l7 4q136 -101 332 -101q240 0 240 149q0 76 -66 110t-199 36h-89v162l73 1q123 4 172 32t49 84q0 112 -188 112t-300 -82l-7 5v175q132 88 312 88t287 -68t107 -198t-114 -205q168 -71 168 -265z" />
    <glyph glyph-name="four.smcp" horiz-adv-x="1070" 
d="M639 354v374l-308 -374h308zM1011 354v-166h-181v-188h-191v188h-585v91l620 734h156v-659h181z" />
    <glyph glyph-name="five.smcp" horiz-adv-x="981" 
d="M454 149q106 0 175 47q69 48 69 128t-63 125t-219 45t-297 -29l22 537h706v-175h-529l-7 -179q74 15 166 15q212 0 319 -85t107 -245q0 -123 -69 -207q-124 -151 -353 -150q-228 0 -388 74v181l11 5q96 -50 170 -68t180 -19z" />
    <glyph glyph-name="six.smcp" horiz-adv-x="1068" 
d="M559 149q105 0 165 47t60 131q0 174 -198 174q-96 0 -168 -51t-87 -141q64 -160 228 -160zM637 680q162 0 258 -92q95 -92 95 -248q0 -158 -119 -264t-321 -106t-330 131t-127 383q0 252 160 399q160 146 415 147q130 0 226 -32v-175l-8 -6q-89 35 -210 36
q-175 1 -269 -91t-104 -246q94 164 334 164z" />
    <glyph glyph-name="seven.smcp" horiz-adv-x="902" 
d="M43 812v197h828v-110l-415 -899h-214l-4 6l389 806h-584z" />
    <glyph glyph-name="eight.smcp" horiz-adv-x="1040" 
d="M527 136q104 0 157 34t52 92t-53 95q-53 36 -133 57t-129 38q-123 -74 -119 -173q0 -69 60 -106t165 -37zM522 860q-85 0 -134 -32t-49 -80t58 -87t204 -80q108 71 108 153q0 60 -51 93t-136 33zM512 -28q-201 0 -313 74t-111 200q-4 166 180 275q-140 88 -140 223
t112 210q112 76 281 76t281 -70t112 -202t-143 -237q175 -82 175 -244q2 -137 -116 -221t-318 -84z" />
    <glyph glyph-name="nine.smcp" horiz-adv-x="1061" 
d="M499 499q101 0 173 50t82 140q-63 160 -242 160q-93 0 -152 -47q-58 -47 -58 -129t48 -128t149 -46zM93 660q0 156 119 264q118 106 320 106t331 -132t128 -383q-1 -253 -156 -399t-409 -146q-145 0 -234 32v175l7 4q86 -34 211 -34q171 0 266 89t106 242
q-93 -156 -333 -156q-160 0 -258 91t-98 247z" />
    <glyph glyph-name="exclam.case" horiz-adv-x="552" 
d="M274 -26q-60 0 -92 34t-32 84q0 51 32 83t92 32t92 -32t31 -83q1 -50 -31 -84t-92 -34zM182 363l-14 924h217l-16 -924h-187z" />
    <glyph glyph-name="exclamdown.case" horiz-adv-x="554" 
d="M169 -58l13 918h189l14 -918h-216zM281 1018q-59 0 -91 32t-32 82t32 84t90 35q58 0 92 -34q32 -35 32 -85t-32 -82t-91 -32z" />
    <glyph glyph-name="question.case" horiz-adv-x="856" 
d="M328 -13q-60 0 -92 33q-32 34 -32 84t32 83t92 33t92 -33t31 -84q1 -51 -31 -83t-92 -33zM527 937q0 73 -50 119t-146 46q-147 0 -243 -78l-4 2v190q108 74 274 74t276 -86q109 -86 109 -245q0 -119 -49 -193t-154 -155q-119 -86 -119 -233l-192 -4q0 128 35 202t133 146
q69 52 99 97t31 118z" />
    <glyph glyph-name="questiondown.case" horiz-adv-x="856" 
d="M498 -37q-167 1 -276 87t-108 244q0 119 49 193t154 155q119 86 119 233l191 4q0 -129 -35 -203t-118 -136t-114 -106q-30 -45 -30 -118q0 -74 50 -120t145 -45q147 0 244 78l4 -2v-190q-108 -74 -275 -74zM529 1266q59 0 91 -33t32 -83t-32 -84q-32 -33 -92 -33t-90 33
q-32 33 -32 84q0 52 32 84t91 32z" />
    <glyph glyph-name="question.ss01" horiz-adv-x="882" 
d="M327 -15q-59 0 -91 34t-33 84q0 51 32 83q31 32 91 32t92 -33t31 -83q1 -50 -31 -84q-32 -33 -91 -33zM344 415q-76 0 -147 21v165l6 4q78 -17 130 -17q102 0 181 72q78 72 78 192t-71 186t-195 66t-218 -52l-9 6v161q106 56 255 56q195 0 318 -108t123 -306
q-1 -198 -129 -322t-322 -124z" />
    <glyph glyph-name="questiondown.ss01" horiz-adv-x="848" 
d="M529 566q76 0 147 -20v-166l-6 -4q-78 17 -130 17q-102 0 -180 -72t-79 -192q0 -120 71 -186q70 -66 194 -66t219 52l10 -5v-162q-106 -56 -256 -56q-195 0 -318 108t-123 306t128 322t323 124zM547 763q-59 0 -91 33t-32 84q0 52 32 84t90 32q59 0 92 -34q32 -34 32 -83
q0 -50 -32 -83t-91 -33z" />
    <glyph glyph-name="bullet.ss02" horiz-adv-x="705" 
d="M350 197l-227 304l227 307l233 -307z" />
    <glyph glyph-name="braceleft.case" horiz-adv-x="660" 
d="M510 -210q-285 0 -285 266v288q0 84 -53 132t-103 47v184q50 0 104 44t54 126v288q0 264 283 265h78v-164h-56q-61 0 -90 -23t-29 -87v-326q0 -98 -62 -156t-124 -58v-11q61 0 123 -59t63 -153v-328q0 -65 30 -88t95 -24h48v-163h-76z" />
    <glyph glyph-name="braceright.case" horiz-adv-x="660" 
d="M436 875q0 -80 53 -125t103 -44v-185q-50 -1 -103 -47t-53 -130v-290q0 -264 -283 -264h-79v163h47q65 1 97 23t31 87v328q-1 95 61 155t124 59v9q-61 0 -123 60q-61 60 -62 155v325q0 65 -30 89q-31 23 -92 23h-53v164h79q283 0 283 -266v-289z" />
    <glyph glyph-name="bracketleft.case" horiz-adv-x="633" 
d="M566 1268h-203v-1316h203v-161h-389v1637h389v-160z" />
    <glyph glyph-name="bracketright.case" horiz-adv-x="634" 
d="M67 1428h389v-1638h-389v162h203v1316h-203v160z" />
    <glyph glyph-name="parenleft.case" horiz-adv-x="610" 
d="M93 618q0 484 264 736q62 61 125 94l73 -165q-108 -69 -185 -229q-78 -160 -78 -438t78 -444q78 -167 185 -235l-73 -164q-142 62 -259 259q-130 218 -130 586z" />
    <glyph glyph-name="parenright.case" horiz-adv-x="610" 
d="M318 616q0 278 -76 438t-184 229l70 165q131 -69 251 -251q62 -97 100 -247t39 -332q0 -346 -118 -562t-272 -283l-70 164q106 69 183 235t77 444z" />
    <glyph glyph-name="emdash.case" horiz-adv-x="1619" 
d="M123 529v180h1374v-180h-1374z" />
    <glyph glyph-name="endash.case" horiz-adv-x="992" 
d="M123 529v180h745v-180h-745z" />
    <glyph glyph-name="hyphen.case" horiz-adv-x="783" 
d="M123 529v180h536v-180h-536z" />
    <glyph glyph-name="uni00AD.case" horiz-adv-x="783" 
d="M123 531v178h536v-178h-536z" />
    <glyph glyph-name="guillemotleft.case" horiz-adv-x="1038" 
d="M959 964v-18l-261 -320l263 -337v-15h-214l-278 348l281 342h209zM542 964v-18l-261 -320l263 -337v-15h-214l-278 348l281 342h209z" />
    <glyph glyph-name="guillemotright.case" horiz-adv-x="1040" 
d="M499 276v18l261 320l-263 337v15h214l278 -348l-282 -342h-208zM80 276v18l261 320l-263 337v15h214l278 -348l-281 -342h-209z" />
    <glyph glyph-name="guilsinglleft.case" horiz-adv-x="619" 
d="M544 970v-19l-259 -320l261 -337v-15h-213l-275 348l281 343h205z" />
    <glyph glyph-name="guilsinglright.case" horiz-adv-x="621" 
d="M80 276v18l261 320l-263 337v15h214l278 -348l-281 -342h-209z" />
    <glyph glyph-name="cent.osf" horiz-adv-x="1037" 
d="M709 -184h-206v178q-195 34 -308 165q-111 131 -111 339t112 344t310 171v182h205v-175q115 -7 212 -48v-186l-7 -6q-121 54 -268 54t-241 -88t-94 -240t93 -242q92 -91 246 -91t273 62l8 -6v-186q-95 -47 -224 -56v-171z" />
    <glyph glyph-name="currency.osf" horiz-adv-x="1331" 
d="M354 495q0 -128 90 -219q90 -92 218 -92t220 92q90 92 90 219q0 129 -89 219t-219 90t-221 -90q-89 -91 -89 -219zM1158 492q0 -144 -78 -265l153 -153l-148 -147l-152 153q-121 -80 -267 -80t-268 76l-147 -149l-147 147l145 146q-83 126 -83 276t82 269l-144 144
l147 147l144 -144q123 78 272 78t269 -83l149 149l148 -147l-151 -151q76 -122 76 -266z" />
    <glyph glyph-name="dollar.osf" horiz-adv-x="925" 
d="M838 286q0 -118 -70 -194t-196 -99v-177h-203v167q-158 11 -276 67v188l4 2q147 -93 329 -93q216 0 216 123q0 60 -50 88t-199 74q-149 44 -220 116t-71 189t78 191t211 98v167h207v-162q121 -7 208 -44v-186l-4 -2q-117 56 -279 56q-197 0 -197 -110q0 -67 72 -101
q26 -13 160 -56q134 -44 207 -114t73 -188z" />
    <glyph glyph-name="Euro.osf" horiz-adv-x="1029" 
d="M717 166q106 0 214 43l7 -4l-29 -190q-86 -37 -213 -37q-186 0 -320 88t-184 251h-162l20 134h116q-2 17 -2 54t2 54h-92l25 134h91q52 164 186 253t298 89t281 -45l-43 -178l-7 -4q-95 39 -183 39q-210 0 -292 -154h436l-24 -134h-451q-2 -15 -2 -41t4 -67h424l-22 -134
h-361q82 -151 283 -151z" />
    <glyph glyph-name="uni20BD.osf" horiz-adv-x="966" 
d="M413 516h110q212 0 212 156q0 76 -49 118t-143.5 42.5t-129.5 -5.5v-311zM549 369h-136v-103h222v-141h-222v-125h-219v125h-164l2 141h162v103h-164l2 147h162v469q182 13 346 11q400 -6 402 -313q2 -155 -105 -234.5t-288 -79.5z" />
    <glyph glyph-name="uni20A8.osf" horiz-adv-x="824" 
d="M676 0h-255l-294 318v160h76q169 0 218 110h-328l34 151h297q-41 114 -219 114h-112l34 156h702l-38 -156h-212q52 -47 65 -114h185l-38 -151h-152q-49 -200 -270 -253l307 -329v-6z" />
    <glyph glyph-name="sterling.osf" horiz-adv-x="1012" 
d="M922 177v-177h-790l-5 13q123 140 122 328q0 26 -7 74h-168v162h138q-2 15 -2 45q0 195 125 304t317 109q149 0 247 -52v-190l-7 -4q-99 56 -216 56q-244 0 -244 -208q0 -22 4 -60h363v-162h-337q4 -34 3 -50q1 -104 -44 -188h501z" />
    <glyph glyph-name="yen.osf" horiz-adv-x="1010" 
d="M868 514v-171h-259v-82h259v-170h-259v-91h-203v91h-263v170h263v82h-263v171h174l-298 488h225l268 -458l264 458h216l-298 -488h174z" />
    <glyph glyph-name="arrowup.ss01" horiz-adv-x="1141" 
d="M95 251v291l477 475l474 -475v-291l-476 483z" />
    <glyph glyph-name="uni2197.ss01" horiz-adv-x="1141" 
d="M944 964v-672l-205 -204l6 675l-678 -3l205 204h672z" />
    <glyph glyph-name="arrowright.ss01" horiz-adv-x="1141" 
d="M493 106h-290l480 475l-480 477h290l475 -477z" />
    <glyph glyph-name="uni2198.ss01" horiz-adv-x="1141" 
d="M936 231h-672l-204 205l677 -4l-5 676l204 -205v-672z" />
    <glyph glyph-name="arrowdown.ss01" horiz-adv-x="1141" 
d="M95 979l475 -482l476 482v-290l-474 -475l-477 475v290z" />
    <glyph glyph-name="uni2199.ss01" horiz-adv-x="1141" 
d="M205 222v672l205 204l-6 -675l678 3l-205 -204h-672z" />
    <glyph glyph-name="arrowleft.ss01" horiz-adv-x="1141" 
d="M642 106l-474 475l474 477h291l-481 -477l481 -475h-291z" />
    <glyph glyph-name="uni2196.ss01" horiz-adv-x="1141" 
d="M220 964h672l205 -204l-678 3l5 -675l-204 204v672z" />
    <glyph glyph-name="ampersand.alt" horiz-adv-x="1279" 
d="M1236 767v-154h-138q-4 -324 -135 -484q-132 -159 -417 -159q-205 0 -334 97q-128 97 -128 268q0 115 61 207t172 139q-141 76 -142 261q0 151 106 241t268 90q119 0 209 -39v-178l-4 -2q-84 44 -175 44t-146 -42t-55 -122q0 -78 47 -118t145 -49v-153q-132 -13 -203 -78
t-71 -165q0 -101 74 -159t202 -57q173 1 256 111t79 347h-157v154h486z" />
    <glyph glyph-name="at.case" horiz-adv-x="1511" 
d="M709 590l-7 -18h169l-20 52l-60 197l-7 35h-2l-7 -35zM1152 480q104 0 105 229q-2 201 -129 327q-126 126 -344 126t-365 -151t-147 -388t143 -385t371 -147q228 0 366 129h8l89 -125q-168 -162 -470 -162t-495 189t-193 497q1 309 197 505t491 196t477 -170t181 -429
q0 -192 -79 -306t-215 -113q-99 0 -149 38t-80 120h-253l-52 -140h-192l270 689h196l193 -450q20 -43 34 -61t42 -18z" />
    </font>
</defs>
</svg>
