<?xml version="1.0" standalone="no"?>
<!DOCTYPE svg PUBLIC "-//W3C//DTD SVG 1.1//EN" "http://www.w3.org/Graphics/SVG/1.1/DTD/svg11.dtd" >
<svg xmlns="http://www.w3.org/2000/svg">
<metadata>
Created by FontPrep 20130207 at Fri May 26 15:12:36 2017
 By Lizzy Knight
Copyright (c) 2017 by Alfonso Garci'a - Latinotype Team. All rights reserved.
</metadata>
<defs>
<font id="c18f94d87ae055ea60c29e08bf5fca68" horiz-adv-x='1024' >
  <font-face 
    font-family="RawsonPro-Regular"
    font-weight="400"
    font-stretch="normal"
    units-per-em="2048"
    panose-1="0 0 5 0 0 0 0 0 0 0"
    ascent="1638"
    descent="-410"
    x-height="961"
    cap-height="1231"
    bbox="-1313 -428 2515 1748"
    underline-thickness="93"
    underline-position="-93"
    unicode-range="U+0020-FB02"
  />
<missing-glyph horiz-adv-x="930" 
 />
    <glyph glyph-name="fi" unicode="fi" horiz-adv-x="1020" 
d="M724 0v961h138v-961h-138zM199 998q0 160 87 246t222 85q73 0 119 -20v-121l-5 -2q-32 19 -106 19q-74 -1 -125 -53q-52 -52 -52 -154v-35h233v-114h-233v-849h-140v849h-134v114h134v35zM793 1154q-37 0 -65 27t-28 65t28 66t65 27q37 0 65 -27q28 -28 28 -66t-28 -65
t-65 -27z" />
    <glyph glyph-name="fl" unicode="fl" horiz-adv-x="1018" 
d="M721 1322h139v-1322h-139v1322zM199 998q0 160 87 246t222 85q78 0 119 -20v-123l-5 -2q-35 20 -107 20t-124 -52t-52 -154v-37h233v-112h-233v-849h-140v849h-134v112h134v37z" />
    <glyph glyph-name=".notdef" horiz-adv-x="930" 
 />
    <glyph glyph-name=".null" 
 />
    <glyph glyph-name="nonmarkingreturn" horiz-adv-x="681" 
 />
    <glyph glyph-name="space" unicode=" " horiz-adv-x="489" 
 />
    <glyph glyph-name="exclam" unicode="!" horiz-adv-x="476" 
d="M236 -20q-41 0 -63 23t-22 59t22 58q22 23 63 23q40 0 64 -23q24 -24 24 -58t-24 -58t-64 -24zM179 356l-10 912h140l-11 -912h-119z" />
    <glyph glyph-name="quotedbl" unicode="&#x22;" horiz-adv-x="606" 
d="M376 815l-5 416h117l15 -15l-38 -401h-89zM141 815l-5 416h117l15 -15l-37 -401h-90z" />
    <glyph glyph-name="numbersign" unicode="#" horiz-adv-x="1055" 
d="M655 404l47 281h-294l-47 -281h294zM948 685h-149l-47 -281h171v-97h-188l-33 -195h-97l34 195h-295l-33 -195h-97l34 195h-140v97h156l47 281h-181v97h198l33 194h97l-34 -194h295l33 194h97l-34 -194h133v-97z" />
    <glyph glyph-name="dollar" unicode="$" horiz-adv-x="901" 
d="M806 399q0 -119 -75 -193t-210 -91v-175h-132v172q-166 7 -290 72v125l3 2q138 -88 322 -88q255 0 256 170q0 78 -62 116q-62 37 -212 77q-148 40 -220 102t-72 180t83 188q84 69 224 82v178h132v-177q130 -6 222 -46v-123l-4 -2q-117 52 -274 52q-240 0 -240 -145
q0 -62 36 -96q36 -35 95 -51t120 -34q142 -41 220 -108t78 -187z" />
    <glyph glyph-name="percent" unicode="%" horiz-adv-x="1400" 
d="M1028 89q84 -1 133 51t49 149t-49 151t-133 53q-84 0 -132 -54q-48 -55 -47 -151q-1 -96 47 -148t132 -51zM1326 289q0 -143 -82 -221t-215 -77q-133 0 -215 77q-82 76 -82 220t82 224t215 80t215 -80t82 -223zM372 734q84 0 133 52q48 52 48 149t-48 151q-49 54 -133 53
q-84 0 -132 -54q-48 -55 -48 -151t48 -148t132 -52zM222 20l832 1194h121l-832 -1194h-121zM372 637q-134 0 -216 77q-82 78 -82 220t83 223t216 81t216 -80t83 -223t-83 -221t-217 -77z" />
    <glyph glyph-name="ampersand" unicode="&#x26;" horiz-adv-x="1226" 
d="M812 242q-371 375 -376 382q-104 -50 -156 -116t-53 -176t75 -176t206 -65q186 0 304 151zM1223 642h-154q-19 -229 -106 -389l242 -253h-157l-152 155q-153 -184 -406 -185q-175 0 -286 90t-111 258q0 251 268 386q-117 140 -117 272t95 213t239 81t243 -58v-117h-4
q-111 59 -213 59t-165 -49t-63 -127t47 -144q47 -67 160 -186l290 -302q58 130 71 296h-168v105h447v-105z" />
    <glyph glyph-name="quotesingle" unicode="'" horiz-adv-x="374" 
d="M141 815l-5 416h117l15 -15l-37 -401h-90z" />
    <glyph glyph-name="parenleft" unicode="(" horiz-adv-x="551" 
d="M97 538q0 350 110 577t244 287l52 -104q-106 -64 -190 -262t-84 -495t85 -500t189 -257l-52 -106q-134 56 -244 283t-110 577z" />
    <glyph glyph-name="parenright" unicode=")" horiz-adv-x="551" 
d="M454 549q0 -350 -110 -577t-243 -287l-53 105q106 63 190 261q84 197 84 495t-85 500t-189 257l53 106q133 -56 243 -283t110 -577z" />
    <glyph glyph-name="asterisk" unicode="*" horiz-adv-x="875" 
d="M493 704l-13 9l-39 277l10 10l18 5l11 -7l108 -261l-5 -11zM246 767l-65 65l1 17l220 171l13 -2l15 -13v-13l-171 -223zM747 903l-259 104l-4 11l4 21l9 7l281 -39l8 -9l-23 -89zM400 1031l-279 38l-9 9l22 89l19 8l257 -104l5 -12l-5 -22zM495 1058l-13 1l-13 15
l175 235l15 -2l60 -61l-51 -62zM430 1072l-11 6l-108 261l6 11l87 24l15 -9l37 -278l-5 -9z" />
    <glyph glyph-name="plus" unicode="+" horiz-adv-x="921" 
d="M838 600v-110h-320v-345h-112v345h-322v110h322v344h112v-344h320z" />
    <glyph glyph-name="comma" unicode="," horiz-adv-x="363" 
d="M121 24q0 41 -6 97l129 13l19 -20q0 -199 -99 -386h-86q43 155 43 296z" />
    <glyph glyph-name="hyphen" unicode="-" horiz-adv-x="781" 
d="M136 480v116h508v-116h-508z" />
    <glyph glyph-name="period" unicode="." horiz-adv-x="404" 
d="M201 -9q-45 0 -70 26t-25 65t26 66t70 27t70 -27t26 -66t-26 -65t-71 -26z" />
    <glyph glyph-name="slash" unicode="/" horiz-adv-x="837" 
d="M65 -220l583 1613h127l-583 -1613h-127z" />
    <glyph glyph-name="zero" unicode="0" horiz-adv-x="1172" 
d="M586 95q153 0 243 135q91 135 91 379q0 243 -90 383t-244 140q-153 0 -242 -140t-89 -384t89 -378q89 -135 242 -135zM586 -26q-216 0 -347 167t-131 469t132 472t347 171q215 0 347 -170t131 -473q1 -304 -131 -470t-348 -166z" />
    <glyph glyph-name="one" unicode="1" horiz-adv-x="692" 
d="M367 0v1044l-313 -154h-7v140l428 221h30v-1251h-138z" />
    <glyph glyph-name="two" unicode="2" horiz-adv-x="997" 
d="M728 922q0 92 -69 151t-191 59t-214 -42q-90 -42 -139 -94l-3 2l-2 123q134 134 367 134q169 1 279 -89t110 -243q0 -117 -69 -211t-244 -243q-134 -108 -211 -199t-85 -147h652v-123h-823q-6 249 355 544q160 130 224 208q63 78 63 170z" />
    <glyph glyph-name="three" unicode="3" horiz-adv-x="988" 
d="M445 -28q-205 0 -350 93v136l4 2q136 -114 344 -114q134 0 222 70t87 193q0 231 -355 234l-101 2v119h101q141 2 221 57q80 56 80 156t-71 158t-191 58q-184 0 -302 -92l-2 2v119q140 91 315 91t281 -81q106 -82 106 -229q0 -188 -175 -281q219 -71 225 -317
q4 -168 -115 -272t-324 -104z" />
    <glyph glyph-name="four" unicode="4" horiz-adv-x="1098" 
d="M691 397v636l-466 -636h466zM1037 397v-125h-218v-272h-128v272h-654v58l674 919h108v-852h218z" />
    <glyph glyph-name="five" unicode="5" horiz-adv-x="1001" 
d="M475 767q205 0 319 -102q114 -103 115 -293t-125 -295t-314 -105t-360 82v136h4q178 -93 334 -93q156 -1 236 73t81 198q0 124 -79 199t-239 75t-307 -42l-4 3l43 630h676v-121h-557l-24 -365q80 20 201 20z" />
    <glyph glyph-name="six" unicode="6" horiz-adv-x="1077" 
d="M845 374q0 120 -72 194q-73 74 -201 74t-214 -78q-87 -78 -99 -193q61 -276 303 -276q121 0 202 79q81 80 81 200zM600 769q175 0 279 -105q104 -106 104 -280t-120 -294t-322 -120q-201 0 -317 144t-116 446q0 304 153 498t400 195q140 0 231 -37v-118l-4 -1
q-91 35 -225 35q-197 0 -303 -155t-116 -407q50 91 143 145q94 54 213 54z" />
    <glyph glyph-name="seven" unicode="7" horiz-adv-x="901" 
d="M45 1102v129h819v-66l-482 -1165h-146l466 1102h-657z" />
    <glyph glyph-name="eight" unicode="8" horiz-adv-x="1092" 
d="M552 95q138 0 217 63q78 63 75 161t-75 153q-73 55 -244 113q-7 4 -89 35q-188 -117 -187 -296q1 -112 83 -170t220 -59zM806 944q0 90 -66 138t-186 48t-185 -50t-65 -132t69 -136q70 -54 217 -103l47 -18q169 106 169 253zM546 -28q-206 0 -323 88t-117 249
q-2 220 227 363q-175 102 -175 272q0 140 110 226t286 85q176 0 284 -76t108 -222q0 -184 -207 -311q128 -61 187 -135t61 -189q1 -154 -117 -252t-324 -98z" />
    <glyph glyph-name="nine" unicode="9" horiz-adv-x="1072" 
d="M223 855q-1 -127 77 -203t196 -77q118 0 201 58t122 151q-20 174 -101 262t-205 88t-207 -76t-83 -203zM528 1257q196 0 314 -149q120 -149 120 -461t-134 -489q-135 -177 -387 -177q-160 0 -270 45v125l4 2q123 -52 253 -52q197 -2 291 132q93 134 104 378
q-117 -160 -339 -160q-182 0 -290 108t-108 287t123 295t319 116z" />
    <glyph glyph-name="colon" unicode=":" horiz-adv-x="439" 
d="M220 -9q-41 0 -64 23q-22 23 -22 58q0 34 23 58t63 24t64 -24q23 -24 23 -58t-23 -58t-64 -23zM220 739q-41 0 -64 23q-22 23 -22 58t23 59t63 24t64 -24q23 -25 23 -59t-23 -58t-64 -23z" />
    <glyph glyph-name="semicolon" unicode=";" horiz-adv-x="478" 
d="M179 24q0 41 -6 97l129 13l18 -20q0 -199 -98 -386h-86q43 155 43 296zM255 741q-45 0 -70 26t-25 65t26 66t70 27t70 -27t26 -66t-26 -65t-71 -26z" />
    <glyph glyph-name="less" unicode="&#x3c;" horiz-adv-x="862" 
d="M209 546l26 -12l508 -292l-56 -101l-613 354v101l613 354l56 -101l-510 -292z" />
    <glyph glyph-name="equal" unicode="=" horiz-adv-x="1040" 
d="M140 285v112h761v-112h-761zM140 680v109h761v-109h-761z" />
    <glyph glyph-name="greater" unicode="&#x3e;" horiz-adv-x="862" 
d="M175 950l613 -354v-101l-613 -354l-56 101l510 292l24 12l-26 11l-508 292z" />
    <glyph glyph-name="question" unicode="?" horiz-adv-x="798" 
d="M324 -9q-41 0 -63 24t-23 59q0 34 22 58t64 24q41 0 63 -23q23 -23 23 -59t-22 -59q-22 -24 -64 -24zM344 1160q-156 0 -256 -93l-4 2v123q98 89 264 89t264 -84t98 -217q0 -132 -50 -206q-49 -74 -154 -160q-123 -91 -122 -262l-123 -2q0 123 33 199q34 77 120 141
t121 118q37 54 37 145t-61 149t-167 58z" />
    <glyph glyph-name="at" unicode="@" horiz-adv-x="1498" 
d="M747 223q156 0 223 166v251q-76 88 -189 88t-177 -71t-64 -187t59 -182t148 -65zM1138 136q-76 0 -118 41q-41 41 -41 108v2q-76 -160 -255 -160q-128 0 -211 88q-83 89 -83 249t93 258t231 97q138 0 227 -84l9 66h88v-483q0 -86 73 -85q147 0 147 311q0 210 -136 354
t-380 144t-404 -160q-160 -161 -160 -418t158 -412q158 -154 408 -154t402 139h6l52 -74q-171 -168 -447 -168q-317 -1 -506 183t-189 485t192 491t486 189q294 0 464 -175q171 -175 171 -417q-1 -195 -69 -305t-208 -110z" />
    <glyph glyph-name="A" unicode="A" horiz-adv-x="1178" 
d="M343 436h486l-229 528l-19 54l-19 -54zM1018 0l-141 326h-579l-136 -326h-138l533 1249h56l551 -1249h-146z" />
    <glyph glyph-name="B" unicode="B" horiz-adv-x="1083" 
d="M503 106q350 0 350 238q0 109 -75.5 174t-209.5 65h-248v-477h183zM505 1130q-115 0 -185 -5v-436h203q117 0 186 59.5t69 165.5q1 216 -273 216zM990 354q0 -354 -476 -354h-328v1231q143 13 304 13q218 0 318.5 -85t100.5 -226q0 -198 -164 -274q114 -34 179.5 -114
t65.5 -191z" />
    <glyph glyph-name="C" unicode="C" horiz-adv-x="1184" 
d="M101 608.5q0 288.5 179.5 465.5t469.5 177q194 0 354 -71v-130l-6 -2q-147 76 -331 77q-238 0 -380.5 -140t-142.5 -372.5t138.5 -369.5t384.5 -137q179 0 331 76l6 -1v-125q-157 -78 -356 -78q-292 2 -469.5 172t-177.5 458.5z" />
    <glyph glyph-name="D" unicode="D" horiz-adv-x="1362" 
d="M1117 619.5q0 237.5 -140.5 368.5t-408.5 131q-114 0 -244 -9v-983q86 -6 257 -6q264 2 400 131.5t136 367zM572 1246q339 0 514.5 -166t175.5 -460t-181.5 -458t-514.5 -164q-285 0 -380 6v1227q204 15 386 15z" />
    <glyph glyph-name="E" unicode="E" horiz-adv-x="1024" 
d="M326 128h607v-128h-747v1231h723v-129h-583v-404h547v-128h-547v-442z" />
    <glyph glyph-name="F" unicode="F" horiz-adv-x="953" 
d="M901 1104h-575v-447h489v-123h-489v-534h-140v1231h715v-127z" />
    <glyph glyph-name="G" unicode="G" horiz-adv-x="1297" 
d="M1184 594v-506q-194 -106 -473 -106t-444.5 168t-165.5 458t182 466.5t484 176.5q205 0 365 -69l-2 -136l-5 -2q-158 80 -378 80t-360.5 -141t-140.5 -372t127.5 -367t365.5 -136q186 0 319 67v300h-326v119h452z" />
    <glyph glyph-name="H" unicode="H" horiz-adv-x="1385" 
d="M1059 1231h140v-1231h-140v562h-733v-562h-140v1231h140v-544h733v544z" />
    <glyph glyph-name="I" unicode="I" horiz-adv-x="510" 
d="M186 0v1231h140v-1231h-140z" />
    <glyph glyph-name="J" unicode="J" horiz-adv-x="662" 
d="M121 -6q-43 0 -95 6v119l6 2q32 -6 74 -6q246 0 246 293v823h140v-812q0 -425 -371 -425z" />
    <glyph glyph-name="K" unicode="K" horiz-adv-x="1146" 
d="M326 0h-140v1231h140v-563l620 563h166l1 -6l-662 -598l698 -621l-2 -6h-181l-640 566v-566z" />
    <glyph glyph-name="L" unicode="L" horiz-adv-x="930" 
d="M326 117h583v-117h-723v1231h140v-1114z" />
    <glyph glyph-name="M" unicode="M" horiz-adv-x="1597" 
d="M151 0l72 1231h123l464 -844l443 844h121l73 -1231h-131l-59 981h-4l-415 -787h-67l-427 787h-5l-56 -981h-132z" />
    <glyph glyph-name="N" unicode="N" horiz-adv-x="1375" 
d="M186 0v1234h58l806 -951h6v948h134v-1237h-56l-810 956h-4v-950h-134z" />
    <glyph glyph-name="O" unicode="O" horiz-adv-x="1467" 
d="M734 99q216 0 351.5 138.5t135.5 377t-135.5 377t-351.5 138.5t-352 -138.5t-136 -377t136 -377t352 -138.5zM736 -26q-272 0 -453.5 171.5t-181.5 467t179.5 469t451.5 173.5t453.5 -171.5t181.5 -466.5t-179.5 -469t-451.5 -174z" />
    <glyph glyph-name="P" unicode="P" horiz-adv-x="1027" 
d="M477 586q169 0 257.5 69t88.5 195.5t-78 198.5t-239 72q-88 0 -182 -6v-517q82 -12 153 -12zM493 469q-80 0 -169 9v-478h-138v1231q160 11 311 11q229 0 346.5 -98.5t119.5 -284t-122 -288t-348 -102.5z" />
    <glyph glyph-name="Q" unicode="Q" horiz-adv-x="1467" 
d="M734 99q216 0 351.5 138.5t135.5 377t-135.5 377t-351.5 138.5t-352 -138.5t-136 -377t136 -377t352 -138.5zM1367 631.5q0 -280.5 -146.5 -448.5t-380.5 -202q37 -104 109.5 -159t199.5 -77l2 -4l-49 -104q-160 30 -252 112t-141 225q-261 9 -434.5 178.5t-173.5 462.5
t179.5 466.5t451.5 173.5t453.5 -171.5t181.5 -452z" />
    <glyph glyph-name="R" unicode="R" horiz-adv-x="1081" 
d="M324 596h166q140 0 229 68t89 193.5t-73.5 194.5t-206.5 69t-204 -8v-517zM324 484v-484h-138v1231q182 11 315 11q210 0 329.5 -92t119.5 -282q0 -141 -72 -232t-189 -128l320 -502l-2 -6h-151l-303 484h-229z" />
    <glyph glyph-name="S" unicode="S" horiz-adv-x="947" 
d="M437 -26q-189 0 -335 86v141l6 4q143 -108 328 -108q123 0 196.5 56.5t73.5 154t-64.5 158.5t-208.5 127t-228 144t-84 201q0 156 111 241t282 85t300 -59v-133l-6 -1q-112 69 -289 72q-114 0 -185 -47.5t-71 -138t70.5 -142.5t169.5 -97.5t146 -74.5t97 -75
q98 -90 97.5 -247t-109 -252t-297.5 -95z" />
    <glyph glyph-name="T" unicode="T" horiz-adv-x="1031" 
d="M1002 1231v-125h-414v-1106h-137v1106h-423v125h974z" />
    <glyph glyph-name="U" unicode="U" horiz-adv-x="1327" 
d="M663.5 -26q-236.5 0 -365.5 129.5t-129 367.5v760h138v-741q0 -194 93 -294.5t265.5 -100.5t265.5 101.5t93 293.5v741h136v-760q0 -236 -130 -366.5t-366.5 -130.5z" />
    <glyph glyph-name="V" unicode="V" horiz-adv-x="1161" 
d="M1136 1231l2 -6l-518 -1251h-78l-518 1251l2 6h145l401 -993l14 -56l17 56l395 993h138z" />
    <glyph glyph-name="W" unicode="W" horiz-adv-x="1794" 
d="M1756 1231l2 -6l-408 -1247h-103l-335 981l-11 45l-13 -45l-335 -981h-104l-417 1247l2 6h147l311 -987l14 -69l17 69l328 981h100l332 -970l17 -71l14 71l308 976h134z" />
    <glyph glyph-name="X" unicode="X" horiz-adv-x="1143" 
d="M663 642l456 -636l-2 -6h-162l-391 546l-382 -546h-148l-2 6l445 633l-421 586l2 6h164l355 -501l346 501h153l2 -6z" />
    <glyph glyph-name="Y" unicode="Y" horiz-adv-x="1096" 
d="M480 0v514l-452 711l2 6h147l376 -589l372 589h140l2 -6l-449 -713v-512h-138z" />
    <glyph glyph-name="Z" unicode="Z" horiz-adv-x="1083" 
d="M67 0v48l748 1067h-742v116h936v-49l-756 -1067h765v-115h-951z" />
    <glyph glyph-name="bracketleft" unicode="[" horiz-adv-x="562" 
d="M499 1287h-205v-1479h205v-102h-324v1685h324v-104z" />
    <glyph glyph-name="backslash" unicode="\" horiz-adv-x="837" 
d="M775 -220h-127l-583 1613h127z" />
    <glyph glyph-name="bracketright" unicode="]" horiz-adv-x="562" 
d="M63 1391h324v-1685h-324v102h203v1479h-203v104z" />
    <glyph glyph-name="asciicircum" unicode="^" horiz-adv-x="916" 
d="M503 1253l324 -603l-93 -43l-265 503l-9 24l-274 -527l-93 43l322 603h88z" />
    <glyph glyph-name="underscore" unicode="_" horiz-adv-x="882" 
d="M69 -114v112h745v-112h-745z" />
    <glyph glyph-name="grave" unicode="`" horiz-adv-x="443" 
d="M363 1048l-328 218l-3 21l96 100l285 -266z" />
    <glyph glyph-name="a" unicode="a" horiz-adv-x="1050" 
d="M410 95q210 0 318 177v132q-97 41 -229 41t-207.5 -45.5t-75.5 -132t56 -129.5t138 -43zM728 577q0 287 -310 287q-154 0 -250 -65l-4 2v113q101 69 296 69t300.5 -102.5t105.5 -297.5v-363q0 -101 76 -101q41 0 65 22l6 -1v-121q-48 -30 -117 -30q-153 0 -159 158
q-130 -169 -353 -169q-134 0 -222 73.5t-88 214t113 215t274 74.5t267 -41v63z" />
    <glyph glyph-name="b" unicode="b" horiz-adv-x="1139" 
d="M551 101q153 0 250.5 101t97.5 284t-87.5 277.5t-225.5 94.5q-91 0 -172 -48.5t-120 -129.5v-525q104 -54 257 -54zM603.5 983q198.5 0 319 -125.5t120.5 -362t-140 -377t-367 -140.5t-383 87v1257h141v-484q111 145 309.5 145z" />
    <glyph glyph-name="c" unicode="c" horiz-adv-x="930" 
d="M600 -22q-225 0 -366 136.5t-141 365.5t142.5 367t364.5 138q138 0 249 -43v-117l-6 -4q-108 43 -230 43q-168 0 -272.5 -104.5t-104.5 -276.5t101.5 -277t275.5 -107q121 0 234 61l8 -4v-119q-108 -59 -255 -59z" />
    <glyph glyph-name="d" unicode="d" horiz-adv-x="1139" 
d="M553 102q194 0 289 174v500q-101 84 -254 84t-251.5 -106t-98.5 -286t87.5 -273t227.5 -93zM842 1322h141v-1322h-115l-15 132q-115 -155 -332 -154q-188 0 -308 126q-120 128 -120 360t138 375.5t348 143.5q155 0 263 -73v412z" />
    <glyph glyph-name="e" unicode="e" horiz-adv-x="1063" 
d="M555 864q-123 0 -207.5 -78.5t-105.5 -217.5h598q-13 140 -87.5 218t-197.5 78zM554 983q198 0 310 -123t113 -342q0 -43 -1 -66h-740q9 -169 116.5 -261t265 -92t300.5 76l5 -2v-117q-136 -80 -336.5 -80t-347 128.5t-146.5 364.5t131.5 375t329.5 139z" />
    <glyph glyph-name="f" unicode="f" horiz-adv-x="618" 
d="M508 1329q84 0 129 -20v-123l-6 -2q-39 20 -115 20t-126.5 -50t-50.5 -156v-37h238v-112h-238v-849h-140v849h-134v112h134v22q0 171 86.5 258.5t222.5 87.5z" />
    <glyph glyph-name="g" unicode="g" horiz-adv-x="1038" 
d="M842 -56q0 83 -86 113q-69 24 -209 36q-138 17 -175 22q-162 -73 -162 -180q0 -143 316 -143.5t316 152.5zM741 654q0 94 -67 146.5t-174 52.5t-173 -53t-66 -145.5t66 -143.5t174 -52t174 50t66 145zM976 961v-106h-213q112 -80 112 -210.5t-106 -211.5t-270 -81
q-97 0 -171 28q-34 -26 -34 -67t54 -60.5t244 -36.5t285 -72t95 -183q0 -279 -462 -279q-192 0 -311 55.5t-119 186t173 223.5q-89 41 -89 126.5t80 149.5q-119 84 -119 227.5t105 227t271 83.5h475z" />
    <glyph glyph-name="h" unicode="h" horiz-adv-x="1141" 
d="M620 983q169 0 273.5 -107t104.5 -308v-568h-140v536q0 162 -76 236t-186 74.5t-186.5 -51.5t-111.5 -145v-650h-142v1322h142v-495q106 156 322 156z" />
    <glyph glyph-name="i" unicode="i" horiz-adv-x="454" 
d="M156 0v961h142v-961h-142zM227 1143q-39 0 -68 29t-29 69t29 68t68 28t68 -28t29 -68t-29 -69t-68 -29z" />
    <glyph glyph-name="j" unicode="j" horiz-adv-x="485" 
d="M19 -315q-35 0 -92 10v121l6 2q28 -6 60 -6q197 0 197 240v909h140v-939q0 -337 -311 -337zM259 1143q-39 0 -68 29t-29 69t29 68t68 28t68 -28t29 -68t-29 -69t-68 -29z" />
    <glyph glyph-name="k" unicode="k" horiz-adv-x="979" 
d="M298 0h-142v1322h142v-786l469 425h166l2 -6l-503 -454l527 -495l-2 -6h-175l-484 451v-451z" />
    <glyph glyph-name="l" unicode="l" horiz-adv-x="459" 
d="M162 0v1322h140v-1322h-140z" />
    <glyph glyph-name="m" unicode="m" horiz-adv-x="1746" 
d="M1261 983q138 0 240 -102.5t102 -297.5v-583h-138v546q0 155 -69 228q-68 73 -168 73q-198 0 -280 -190q4 -48 3 -74v-583h-141v546q0 155 -68 228t-168.5 73t-173 -53t-102.5 -144v-650h-142v961h116l15 -142q41 69 121 116.5t185.5 47.5t187 -47.5t126.5 -138.5
q45 80 130.5 133t223.5 53z" />
    <glyph glyph-name="n" unicode="n" horiz-adv-x="1143" 
d="M620 983q168 0 274 -107t106 -317v-559h-140v523q0 168 -77 246t-188 78t-187.5 -54t-109.5 -147v-646h-142v961h116l17 -146q108 168 331 168z" />
    <glyph glyph-name="o" unicode="o" horiz-adv-x="1174" 
d="M585.5 99q155.5 0 253 104t97.5 278t-97.5 276.5t-253 102.5t-252.5 -102.5t-97 -276.5t97 -278t252.5 -104zM584 -24q-211 0 -351 134t-140 366.5t142.5 369.5t354 137t352 -133t140.5 -366t-143.5 -370.5t-354.5 -137.5z" />
    <glyph glyph-name="p" unicode="p" horiz-adv-x="1141" 
d="M559 101q158 0 251 103t93 282.5t-84.5 275.5t-228.5 96q-93 0 -174 -50t-118 -128v-505q103 -74 261 -74zM622 983q190 0 307 -129.5t117 -361t-133 -373t-349 -141.5q-158 0 -266 67v-350h-142v1266h116l15 -134q110 156 335 156z" />
    <glyph glyph-name="q" unicode="q" horiz-adv-x="1139" 
d="M553 102q97 0 173 47.5t117 129.5v497q-99 84 -253 84t-252 -106t-98 -284.5t86 -273t227 -94.5zM985 961v-1266h-142v424q-108 -141 -310 -141t-320 128.5t-118 360t138 374t330 142.5t297 -87l9 65h116z" />
    <glyph glyph-name="r" unicode="r" horiz-adv-x="707" 
d="M560 981q61 0 112 -18v-127l-5 -2q-41 19 -107 19q-220 0 -262 -259v-594h-142v961h116l15 -140q79 160 273 160z" />
    <glyph glyph-name="s" unicode="s" horiz-adv-x="888" 
d="M404 -24q-188 0 -316 72v136l5 2q134 -89 311 -89q264 0 264 152q0 73 -55.5 109.5t-206.5 76.5t-227.5 99.5t-76.5 179.5t106.5 194.5t273 74.5t274.5 -48v-125l-6 -2q-117 54 -246.5 54t-196.5 -38t-67 -102t56 -98t206.5 -72t227 -103t76.5 -194.5t-107 -204
t-295 -74.5z" />
    <glyph glyph-name="t" unicode="t" horiz-adv-x="726" 
d="M227 277v566h-184v118h184v236l136 26l6 -4v-258h338v-118h-338v-540q0 -188 173 -188q90 0 164 43l5 -2v-119q-78 -47 -209 -46.5t-203 73t-72 213.5z" />
    <glyph glyph-name="u" unicode="u" horiz-adv-x="1117" 
d="M819 961h142v-961h-116l-15 130q-101 -153 -325 -152q-171 0 -265.5 97.5t-94.5 291.5v594h142v-570q0 -292 255 -292q93 0 169.5 50t107.5 145v667z" />
    <glyph glyph-name="v" unicode="v" horiz-adv-x="1016" 
d="M983 961l2 -6l-425 -966h-100l-428 966l2 6h152l328 -792l324 792h145z" />
    <glyph glyph-name="w" unicode="w" horiz-adv-x="1493" 
d="M1448 961l2 -6l-320 -955h-104l-265 750l-11 39l-9 -39l-272 -750h-106l-322 955l2 6h141l231 -741l8 -41l9 41l262 741h116l259 -739l9 -41l7 42l235 738h128z" />
    <glyph glyph-name="x" unicode="x" horiz-adv-x="981" 
d="M581 493l365 -487l-2 -6h-158l-296 398l-300 -398h-149l-2 6l367 484l-352 465l2 6h160l281 -380l283 380h145l2 -6z" />
    <glyph glyph-name="y" unicode="y" horiz-adv-x="981" 
d="M203 -315q-37 0 -108 12v119l6 2q41 -11 78 -12q101 0 156 49t108 180l-408 920l2 6h151l324 -767l294 767h142l2 -6l-388 -951q-69 -177 -143.5 -248t-215.5 -71z" />
    <glyph glyph-name="z" unicode="z" horiz-adv-x="951" 
d="M886 121v-121h-815v63l607 777h-604v121h797v-67l-608 -773h623z" />
    <glyph glyph-name="braceleft" unicode="{" horiz-adv-x="592" 
d="M352 750q0 -91 -61 -145t-120 -54v-7q61 0 121 -54t60 -146v-411q0 -82 34 -109t109 -27h32v-106h-54q-125 0 -185 54t-59 181v389q0 81 -53 127t-105 46v123q52 1 105 45t53 122v389q0 127 60 181t184 54h54v-106h-32q-76 0 -110 -27t-33 -107v-412z" />
    <glyph glyph-name="bar" unicode="|" horiz-adv-x="476" 
d="M175 -188v1540h128v-1540h-128z" />
    <glyph glyph-name="braceright" unicode="}" horiz-adv-x="592" 
d="M361 778q0 -80 53 -126t107 -47v-123q-54 0 -107 -44t-53 -123v-389q1 -127 -59 -181t-183 -54h-54v106h34q74 0 108 27t33 109v411q0 92 61 146t120 54v7q-61 0 -121 54t-60 145v412q0 80 -33 107q-34 27 -108 27h-34v106h54q123 0 183 -54t59 -181v-389z" />
    <glyph glyph-name="asciitilde" unicode="~" horiz-adv-x="983" 
d="M320 640q78 0 181 -39q105 -39 151 -39q103 0 106 84l3 4l90 -19q0 -80 -54 -130q-53 -50 -125 -50t-178 39t-154 39q-48 -1 -78 -23t-31 -61l-2 -4l-95 13q0 84 54 135t132 51z" />
    <glyph glyph-name="exclamdown" unicode="&#xa1;" horiz-adv-x="444" 
d="M153 -296l9 910h121l9 -910h-139zM223 829q-41 0 -63 22q-22 21 -22 57t22 60t63 24t65 -24t23 -59q0 -35 -23 -58q-24 -22 -65 -22z" />
    <glyph glyph-name="cent" unicode="&#xa2;" horiz-adv-x="1066" 
d="M670 -71h-132v177q-207 28 -325 161t-118 343t121 348q121 139 326 167v180h132v-175q138 -4 270 -58v-121l-8 -5q-138 60 -286 59q-184 0 -296 -107t-112 -282t108 -282t290 -107t310 75l7 -6v-123q-130 -69 -287 -72v-172z" />
    <glyph glyph-name="sterling" unicode="&#xa3;" horiz-adv-x="1074" 
d="M985 117v-117h-845l-6 11q130 169 130 421q0 56 -13 134h-178v115h158q-17 93 -17 161q0 197 123 303t303 106t300 -69v-128l-4 -4q-128 78 -276 78t-227 -72t-79 -207q0 -71 17 -168h413v-115h-393q13 -82 13 -134q0 -188 -73 -315h654z" />
    <glyph glyph-name="currency" unicode="&#xa4;" horiz-adv-x="1323" 
d="M283 621q0 -157 110 -269t266 -112t266 112t110 269t-110 268t-266 111t-266 -111t-110 -268zM1158 621q0 -167 -102 -303l143 -143l-93 -91l-143 141q-136 -102 -304 -102t-296 97l-138 -136l-93 91l136 136q-108 138 -108 309t104 305l-132 129l93 95l132 -132
q133 102 305 102t306 -108l138 138l93 -95l-138 -138q97 -128 97 -295z" />
    <glyph glyph-name="yen" unicode="&#xa5;" horiz-adv-x="1171" 
d="M983 611v-110h-328v-170h328v-109h-328v-222h-136v222h-322v109h322v170h-322v110h265l-401 631h153l376 -602l374 602h146l-397 -631h270z" />
    <glyph glyph-name="brokenbar" unicode="&#xa6;" horiz-adv-x="491" 
d="M182 -188v577h129v-577h-129zM182 784v568h129v-568h-129z" />
    <glyph glyph-name="section" unicode="&#xa7;" horiz-adv-x="975" 
d="M763 393q0 81 -61 133t-213 123q-152 70 -204 101q-67 -65 -67 -145t62 -132t211 -117q150 -65 209 -105q63 61 63 142zM845 28q0 -140 -111 -222q-110 -82 -290 -82t-303 71v121l6 2q130 -78 302 -78q113 0 183 46t70 136q0 50 -36 90t-78 60q-42 21 -105 50
q-64 29 -77 35q-162 74 -237 141q-74 67 -74 188t125 213q-84 78 -84 186q0 138 108 216t284 78t289 -63v-121h-3q-110 67 -282 67q-110 0 -184 -45t-74 -127t56 -124t140 -78q83 -36 98 -41q160 -69 239 -140t79 -190t-119 -216q78 -69 78 -173z" />
    <glyph glyph-name="dieresis" unicode="&#xa8;" horiz-adv-x="577" 
d="M474 1147q-38 0 -65 27t-27 65t27 65t65 27t66 -28t28 -65t-28 -64t-66 -27zM116 1147q-38 0 -65 27t-27 65t27 65t65 27t66 -27t28 -65t-28 -65t-66 -27z" />
    <glyph glyph-name="copyright" unicode="&#xa9;" horiz-adv-x="1293" 
d="M654 244q-114 0 -197 74t-83 202t84 208q84 78 216 78q86 0 156 -28v-91l-5 -2q-61 30 -147 30t-142 -52t-56 -138t56 -137t144 -51t152 34l4 -2v-90q-68 -35 -182 -35zM649 60q203 0 329 130t126 338t-128 338t-328 130t-329 -130q-127 -130 -127 -337t128 -338
t329 -131zM648 -22q-240 0 -395 155t-155 395t156 396q154 154 394 154t394 -155t154 -395t-154 -395t-394 -155z" />
    <glyph glyph-name="ordfeminine" unicode="&#xaa;" horiz-adv-x="878" 
d="M353 726q64 0 131 32.5t101 84.5v92q-80 30 -190 29q-181 0 -181 -121q0 -58 37.5 -87.5t101.5 -29.5zM585 1067q1 199 -233 199q-114 0 -192 -48l-4 3v92q69 50 222 50t234 -74.5t81 -217.5v-256q0 -76 50 -76q29 0 46 15l4 -2v-89q-30 -20 -93 -21q-99 0 -108 108
q-102 -117 -272 -117q-95 0 -157 56t-62 158.5t79 155.5t205.5 53t199.5 -32v43z" />
    <glyph glyph-name="guillemotleft" unicode="&#xab;" horiz-adv-x="1014" 
d="M912 853v-15l-296 -320l296 -332v-11h-145l-309 341l311 337h143zM521 853v-15l-296 -320l296 -332v-11h-145l-309 341l311 337h143z" />
    <glyph glyph-name="uni00AD" unicode="&#xad;" horiz-adv-x="781" 
d="M136 480v116h508v-116h-508z" />
    <glyph glyph-name="registered" unicode="&#xae;" horiz-adv-x="1185" 
d="M493 868h101q97 0 97 82t-105 83q-78 0 -93 -2v-163zM784 953q0 -108 -91 -147l117 -164h-103l-106 149h-108v-149h-89v468q78 4 182 3q198 0 198 -160zM595 460q176 0 284 114t108 293q0 181 -110 295t-284 114t-285 -116q-111 -114 -111 -292t111 -294
q111 -114 287 -114zM595 1352q213 0 347 -136t134 -348t-134 -348t-347 -136t-350 136t-137 348t137 348t350 136z" />
    <glyph glyph-name="macron" unicode="&#xaf;" horiz-adv-x="647" 
d="M45 1156v106h534v-106h-534z" />
    <glyph glyph-name="degree" unicode="&#xb0;" horiz-adv-x="659" 
d="M330 873q62 0 103 43q40 43 40 105t-40 105q-41 43 -103 43t-102 -43t-40 -105t40 -105t102 -43zM330 793q-100 0 -166 65t-65 163q0 98 66 163q65 65 165 65t165 -65t65 -163t-65 -163t-165 -65z" />
    <glyph glyph-name="plusminus" unicode="&#xb1;" horiz-adv-x="1003" 
d="M879 506h-322v-286h314v-110h-739v110h315v286h-322v108h324v330h108v-330h322v-108z" />
    <glyph glyph-name="uni00B2" unicode="&#xb2;" horiz-adv-x="636" 
d="M432 1054q0 42 -36 72t-98 30q-128 0 -216 -76l-2 2v98q99 74 217 74t187 -48q69 -50 69 -130t-43 -136t-138 -125q-140 -99 -149 -163h360v-93h-518q-4 153 199 303q98 72 133 110t35 82z" />
    <glyph glyph-name="uni00B3" unicode="&#xb3;" horiz-adv-x="619" 
d="M559 760q0 -99 -74 -158q-75 -58 -201 -58t-211 52v93l1 2q78 -56 205 -56q76 0 125 33q48 34 48 92t-39 88q-39 29 -102 29h-106v80h95q54 0 88 27t35 74q0 104 -151 104q-112 0 -177 -45h-2v95q82 43 193 43t179 -44t68 -137t-95 -149q121 -45 121 -165z" />
    <glyph glyph-name="acute" unicode="&#xb4;" horiz-adv-x="443" 
d="M82 1048l-50 73l285 266l96 -100l-5 -21z" />
    <glyph glyph-name="paragraph" unicode="&#xb6;" horiz-adv-x="1074" 
d="M981 1117v-125h-119v-1199h-45v1199h-130v-1199h-132v615q-249 0 -371 84q-121 85 -120 263q2 362 470 362h447z" />
    <glyph glyph-name="periodcentered" unicode="&#xb7;" horiz-adv-x="431" 
d="M216 371q-86 0 -86 80q0 35 22 58t64 23q41 0 63 -23q23 -23 23 -58t-22 -57t-64 -23z" />
    <glyph glyph-name="cedilla" unicode="&#xb8;" horiz-adv-x="377" 
d="M156 -428q-81 0 -134 18v84l4 2q39 -15 94 -15t87.5 23.5t32.5 67.5q0 76 -89 77q-47 0 -86 -15l-2 4v68l69 114h93l-57 -97q15 6 39 6q67 0 112.5 -36.5t45.5 -123t-64 -132t-145 -45.5z" />
    <glyph glyph-name="uni00B9" unicode="&#xb9;" horiz-adv-x="426" 
d="M205 559v536l-160 -64v121l260 99h15v-692h-115z" />
    <glyph glyph-name="ordmasculine" unicode="&#xba;" horiz-adv-x="934" 
d="M467 719q114 0 185 76q70 76 70 204t-70 204q-71 76 -184 76q-114 0 -184 -76q-70 -75 -70 -203t70 -204t183 -77zM843 1002q0 -178 -106 -282t-268 -104t-270 102t-108 279q0 176 106 281t268 105t270 -102t108 -279z" />
    <glyph glyph-name="guillemotright" unicode="&#xbb;" horiz-adv-x="1014" 
d="M493 173v15l296 320l-296 332v11h146l309 -341l-311 -337h-144zM102 173v15l296 320l-296 332v11h146l309 -341l-311 -337h-144z" />
    <glyph glyph-name="onequarter" unicode="&#xbc;" horiz-adv-x="1375" 
d="M1095 214v333l-253 -333h253zM1318 214v-76h-115v-138h-108v138h-378v46l393 514h93v-484h115zM959 1231h115l-800 -1253h-116zM205 559v536l-160 -64v121l260 99h15v-692h-115z" />
    <glyph glyph-name="onehalf" unicode="&#xbd;" horiz-adv-x="1377" 
d="M1030 598q-128 0 -216 -77l-2 2v99q99 74 217 74t187 -49t69 -129t-43 -136t-138 -125q-140 -99 -149 -164h359v-93h-517q-2 73 49 152q51 80 149 152t133 110q36 38 36 81t-36 73t-98 30zM104 -22l801 1253h115l-800 -1253h-116zM231 559v536l-160 -64v121l260 99h15
v-692h-115z" />
    <glyph glyph-name="threequarters" unicode="&#xbe;" horiz-adv-x="1444" 
d="M1162 214v333l-253 -333h253zM1385 214v-76h-115v-138h-108v138h-378v46l393 514h93v-484h115zM1069 1231h115l-800 -1253h-116zM559 760q0 -99 -74 -158q-75 -58 -201 -58t-211 52v93l1 2q78 -56 205 -56q76 0 125 33q48 34 48 92t-39 88q-39 29 -102 29h-106v80h95
q54 0 88 27t35 74q0 104 -151 104q-112 0 -177 -45h-2v95q82 43 193 43t179 -44q67 -44 67 -137t-94 -149q121 -44 121 -165z" />
    <glyph glyph-name="questiondown" unicode="&#xbf;" horiz-adv-x="785" 
d="M218 21q0 -91 60 -149t167 -58q156 0 257 93l4 -2v-123q-99 -89 -265 -89q-165 0 -263 84t-98 217q0 132 49 206t154 159q123 91 123 263l123 2q0 -124 -34 -200t-119 -140t-122 -118q-36 -54 -36 -145zM465 983q41 0 63 -24q22 -23 23 -59q0 -36 -22 -59
q-21 -23 -63 -23t-64 22q-22 24 -22 59t22 59t63 25z" />
    <glyph glyph-name="Agrave" unicode="&#xc0;" horiz-adv-x="1178" 
d="M343 436h486l-229 528l-19 54l-19 -54zM1018 0l-141 326h-579l-136 -326h-138l533 1249h56l551 -1249h-146zM741 1305l-372 158l-10 21l75 110l335 -209z" />
    <glyph glyph-name="Aacute" unicode="&#xc1;" horiz-adv-x="1178" 
d="M343 436h486l-229 528l-19 54l-19 -54zM1018 0l-141 326h-579l-136 -326h-138l533 1249h56l551 -1249h-146zM780 1463l-370 -158l-30 78l335 211l74 -110z" />
    <glyph glyph-name="Acircumflex" unicode="&#xc2;" horiz-adv-x="1178" 
d="M343 436h486l-229 528l-19 54l-19 -54zM1018 0l-141 326h-579l-136 -326h-138l533 1249h56l551 -1249h-146zM575 1460l-201 -155l-52 69l224 207h65l231 -207l-54 -69z" />
    <glyph glyph-name="Atilde" unicode="&#xc3;" horiz-adv-x="1178" 
d="M343 436h486l-229 528l-19 54l-19 -54zM1018 0l-141 326h-579l-136 -326h-138l533 1249h56l551 -1249h-146zM446.5 1532q61.5 0 142.5 -34.5t115 -34.5t57 21.5t23 58.5l4 4l95 -30q-4 -78 -50.5 -125.5t-104.5 -47.5t-140.5 35.5t-119.5 35.5t-60 -22.5t-23 -59.5l-3 -2
l-95 26q4 76 51 125.5t108.5 49.5z" />
    <glyph glyph-name="Adieresis" unicode="&#xc4;" horiz-adv-x="1178" 
d="M343 436h486l-229 528l-19 54l-19 -54zM1018 0l-141 326h-579l-136 -326h-138l533 1249h56l551 -1249h-146zM774.5 1361q-35.5 0 -59.5 24t-24 59.5t24 60t59.5 24.5t59.5 -24.5t24 -60t-24 -59.5t-59.5 -24zM396.5 1361q-35.5 0 -59.5 24t-24 59.5t24 60t59.5 24.5
t59.5 -24.5t24 -60t-24 -59.5t-59.5 -24z" />
    <glyph glyph-name="Aring" unicode="&#xc5;" horiz-adv-x="1178" 
d="M343 436h486l-229 528l-19 54l-19 -54zM1018 0l-141 326h-579l-136 -326h-138l533 1249h56l551 -1249h-146zM583 1517q-37 0 -61.5 -25t-24.5 -60.5t24.5 -60.5t61.5 -25t61 25t24 60.5t-24 60.5t-61 25zM582 1270q-75 0 -123 45.5t-48 116t47.5 116.5t123 46t123 -46
t47.5 -116.5t-47.5 -116t-122.5 -45.5z" />
    <glyph glyph-name="AE" unicode="&#xc6;" horiz-adv-x="1524" 
d="M763 477v599l-87 -158l-276 -441h363zM903 117h529v-117h-669v376h-426l-235 -376h-143l767 1231h682v-116h-505v-419h469v-115h-469v-464z" />
    <glyph glyph-name="Ccedilla" unicode="&#xc7;" horiz-adv-x="1184" 
d="M767 1125q-239 0 -381 -140q-142 -141 -142 -373t138.5 -369t384.5 -137q179 0 331 76l6 -1v-125q-141 -71 -313 -78l-44 -75q13 6 39 6q67 0 112.5 -36.5t45.5 -122.5t-64 -132q-66 -46 -146 -46t-133 18v84l4 2q39 -15 94 -15t87.5 23.5t32.5 67.5q0 76 -89 77
q-47 0 -86 -15l-2 4v68l56 94q-272 17 -434.5 185t-162.5 450t179.5 459t469.5 177q194 0 354 -71v-130l-6 -2q-147 77 -331 77z" />
    <glyph glyph-name="Egrave" unicode="&#xc8;" horiz-adv-x="1024" 
d="M326 128h607v-128h-747v1231h723v-129h-583v-404h547v-128h-547v-442zM730 1305l-373 158l-9 21l75 110l335 -209z" />
    <glyph glyph-name="Eacute" unicode="&#xc9;" horiz-adv-x="1024" 
d="M326 128h607v-128h-747v1231h723v-129h-583v-404h547v-128h-547v-442zM769 1463l-371 -158l-29 78l335 211l74 -110z" />
    <glyph glyph-name="Ecircumflex" unicode="&#xca;" horiz-adv-x="1024" 
d="M326 128h607v-128h-747v1231h723v-129h-583v-404h547v-128h-547v-442zM564 1460l-201 -155l-52 69l223 207h66l230 -207l-54 -69z" />
    <glyph glyph-name="Edieresis" unicode="&#xcb;" horiz-adv-x="1024" 
d="M326 128h607v-128h-747v1231h723v-129h-583v-404h547v-128h-547v-442zM763.5 1361q-35.5 0 -59.5 24t-24 59.5t24 60t59.5 24.5t59.5 -24.5t24 -60t-24 -59.5t-59.5 -24zM385.5 1361q-35.5 0 -59.5 24t-24 59.5t24 60t59.5 24.5t59.5 -24.5t24 -60t-24 -59.5t-59.5 -24z
" />
    <glyph glyph-name="Igrave" unicode="&#xcc;" horiz-adv-x="510" 
d="M186 0v1231h140v-1231h-140zM415 1305l-372 158l-9 21l74 110l335 -209z" />
    <glyph glyph-name="Iacute" unicode="&#xcd;" horiz-adv-x="510" 
d="M186 0v1231h140v-1231h-140zM84 1305l-30 78l335 211l75 -110l-10 -21z" />
    <glyph glyph-name="Icircumflex" unicode="&#xce;" horiz-adv-x="510" 
d="M186 0v1231h140v-1231h-140zM48 1305l-52 69l224 207h65l231 -207l-54 -69l-213 155z" />
    <glyph glyph-name="Idieresis" unicode="&#xcf;" horiz-adv-x="510" 
d="M186 0v1231h140v-1231h-140zM448.5 1361q-35.5 0 -59.5 24t-24 59.5t24 60t59.5 24.5t59.5 -24.5t24 -60t-24 -59.5t-59.5 -24zM70.5 1361q-35.5 0 -59.5 24t-24 59.5t24 60t59.5 24.5t60 -24.5t24.5 -60t-24.5 -59.5t-60 -24z" />
    <glyph glyph-name="Eth" unicode="&#xd0;" horiz-adv-x="1377" 
d="M1132 619.5q0 237.5 -140.5 368.5t-408.5 131q-114 0 -244 -9v-449h201v-102h-201v-432q88 -6 257 -6q264 2 400 131.5t136 367zM586 1246q339 0 515 -166t176 -460t-181.5 -458t-514.5 -164q-285 0 -380 6v555h-167v102h167v570q203 15 385 15z" />
    <glyph glyph-name="Ntilde" unicode="&#xd1;" horiz-adv-x="1375" 
d="M186 0v1234h58l806 -951h6v948h134v-1237h-56l-810 956h-4v-950h-134zM558.5 1532q61.5 0 142.5 -34.5t114.5 -34.5t57 21.5t23.5 58.5l3 4l95 -30q-4 -78 -50.5 -125.5t-104 -47.5t-140.5 35.5t-119.5 35.5t-59.5 -22.5t-23 -59.5l-4 -2l-95 26q4 76 51.5 125.5
t109 49.5z" />
    <glyph glyph-name="Ograve" unicode="&#xd2;" horiz-adv-x="1467" 
d="M734 99q216 0 351.5 138.5t135.5 377t-135.5 377t-351.5 138.5t-352 -138.5t-136 -377t136 -377t352 -138.5zM736 -26q-272 0 -453.5 171.5t-181.5 467t179.5 469t451.5 173.5t453.5 -171.5t181.5 -466.5t-179.5 -469t-451.5 -174zM892 1305l-373 158l-9 21l75 110
l335 -209z" />
    <glyph glyph-name="Oacute" unicode="&#xd3;" horiz-adv-x="1467" 
d="M734 99q216 0 351.5 138.5t135.5 377t-135.5 377t-351.5 138.5t-352 -138.5t-136 -377t136 -377t352 -138.5zM736 -26q-272 0 -453.5 171.5t-181.5 467t179.5 469t451.5 173.5t453.5 -171.5t181.5 -466.5t-179.5 -469t-451.5 -174zM560 1305l-29 78l335 211l74 -110
l-9 -21z" />
    <glyph glyph-name="Ocircumflex" unicode="&#xd4;" horiz-adv-x="1467" 
d="M734 99q216 0 351.5 138.5t135.5 377t-135.5 377t-351.5 138.5t-352 -138.5t-136 -377t136 -377t352 -138.5zM736 -26q-272 0 -453.5 171.5t-181.5 467t179.5 469t451.5 173.5t453.5 -171.5t181.5 -466.5t-179.5 -469t-451.5 -174zM525 1305l-52 69l223 207h65l231 -207
l-54 -69l-212 155z" />
    <glyph glyph-name="Otilde" unicode="&#xd5;" horiz-adv-x="1467" 
d="M734 99q216 0 351.5 138.5t135.5 377t-135.5 377t-351.5 138.5t-352 -138.5t-136 -377t136 -377t352 -138.5zM736 -26q-272 0 -453.5 171.5t-181.5 467t179.5 469t451.5 173.5t453.5 -171.5t181.5 -466.5t-179.5 -469t-451.5 -174zM597.5 1532q61.5 0 142.5 -34.5
t114.5 -34.5t57 21.5t23.5 58.5l3 4l95 -30q-4 -78 -50.5 -125.5t-104 -47.5t-140.5 35.5t-119.5 35.5t-59.5 -22.5t-23 -59.5l-4 -2l-94 26q4 76 51 125.5t108.5 49.5z" />
    <glyph glyph-name="Odieresis" unicode="&#xd6;" horiz-adv-x="1467" 
d="M734 99q216 0 351.5 138.5t135.5 377t-135.5 377t-351.5 138.5t-352 -138.5t-136 -377t136 -377t352 -138.5zM736 -26q-272 0 -453.5 171.5t-181.5 467t179.5 469t451.5 173.5t453.5 -171.5t181.5 -466.5t-179.5 -469t-451.5 -174zM925.5 1361q-35.5 0 -59.5 24t-24 59.5
t24 60t59.5 24.5t59.5 -24.5t24 -60t-24 -59.5t-59.5 -24zM547.5 1361q-35.5 0 -59.5 24t-24 59.5t24 60t59.5 24.5t59.5 -24.5t24 -60t-24 -59.5t-59.5 -24z" />
    <glyph glyph-name="multiply" unicode="&#xd7;" horiz-adv-x="951" 
d="M832 821l-277 -277l277 -280l-78 -78l-277 279l-280 -279l-78 78l279 280l-279 277l78 78l280 -277l277 277z" />
    <glyph glyph-name="Oslash" unicode="&#xd8;" horiz-adv-x="1467" 
d="M1221 600q0 224 -109 361l-676 -771q123 -91 298 -91q216 0 351.5 138.5t135.5 362.5zM246 629.5q0 -222.5 108 -359.5l674 771q-125 89 -294 89q-216 0 -352 -139t-136 -361.5zM1367 1262v-11l-164 -186q164 -177 164 -460t-180 -457t-453 -174q-223 0 -386 117
l-108 -123h-139v15l160 183q-160 175 -160 458.5t179.5 457t453.5 173.5q220 0 383 -114l106 121h144z" />
    <glyph glyph-name="Ugrave" unicode="&#xd9;" horiz-adv-x="1327" 
d="M663.5 -26q-236.5 0 -365.5 129.5t-129 367.5v760h138v-741q0 -194 93 -294.5t265.5 -100.5t265.5 101.5t93 293.5v741h136v-760q0 -236 -130 -366.5t-366.5 -130.5zM823 1305l-372 158l-10 21l75 110l335 -209z" />
    <glyph glyph-name="Uacute" unicode="&#xda;" horiz-adv-x="1327" 
d="M663.5 -26q-236.5 0 -365.5 129.5t-129 367.5v760h138v-741q0 -194 93 -294.5t265.5 -100.5t265.5 101.5t93 293.5v741h136v-760q0 -236 -130 -366.5t-366.5 -130.5zM492 1305l-30 78l335 211l74 -110l-9 -21z" />
    <glyph glyph-name="Ucircumflex" unicode="&#xdb;" horiz-adv-x="1327" 
d="M663.5 -26q-236.5 0 -365.5 129.5t-129 367.5v760h138v-741q0 -194 93 -294.5t265.5 -100.5t265.5 101.5t93 293.5v741h136v-760q0 -236 -130 -366.5t-366.5 -130.5zM456 1305l-52 69l223 207h66l230 -207l-54 -69l-212 155z" />
    <glyph glyph-name="Udieresis" unicode="&#xdc;" horiz-adv-x="1327" 
d="M663.5 -26q-236.5 0 -365.5 129.5t-129 367.5v760h138v-741q0 -194 93 -294.5t265.5 -100.5t265.5 101.5t93 293.5v741h136v-760q0 -236 -130 -366.5t-366.5 -130.5zM856.5 1361q-35.5 0 -59.5 24t-24 59.5t24 60t59.5 24.5t59.5 -24.5t24 -60t-24 -59.5t-59.5 -24z
M478.5 1361q-35.5 0 -59.5 24t-24 59.5t24 60t59.5 24.5t59.5 -24.5t24 -60t-24 -59.5t-59.5 -24z" />
    <glyph glyph-name="Yacute" unicode="&#xdd;" horiz-adv-x="1096" 
d="M480 0v514l-452 711l2 6h147l376 -589l372 589h140l2 -6l-449 -713v-512h-138zM376 1305l-30 78l335 211l75 -110l-9 -21z" />
    <glyph glyph-name="Thorn" unicode="&#xde;" horiz-adv-x="1042" 
d="M469 352q343 0 343 272q0 121 -81 190.5t-247 69.5q-86 0 -160 -7v-518q69 -7 145 -7zM484 236q-86 0 -160 6v-242h-138v1231h138v-233q89 7 175 7q212 0 331 -94.5t121 -280t-121 -290t-346 -104.5z" />
    <glyph glyph-name="germandbls" unicode="&#xdf;" horiz-adv-x="1146" 
d="M1087 229q0 -112 -88.5 -182.5t-226 -70.5t-234.5 63v132l6 2q99 -76 227 -76q82 0 131 33.5t49 99.5t-35 105t-118 86.5t-114.5 71t-59.5 68t-28 105t30 112.5t64 83q94 85 94 169.5t-62.5 129.5t-174.5 45t-180.5 -71t-68.5 -214v-920h-142v935q0 192 109 293
t278.5 101t274 -70.5t104.5 -219.5q0 -67 -28 -123t-62 -86q-90 -79 -89.5 -135t36.5 -90.5t129.5 -93t136 -114.5t42.5 -168z" />
    <glyph glyph-name="agrave" unicode="&#xe0;" horiz-adv-x="1050" 
d="M410 95q210 0 318 177v132q-97 41 -229 41t-207.5 -45.5t-75.5 -132t56 -129.5t138 -43zM728 577q0 287 -310 287q-154 0 -250 -65l-4 2v113q101 69 296 69t300.5 -102.5t105.5 -297.5v-363q0 -101 76 -101q41 0 65 22l6 -1v-121q-48 -30 -117 -30q-153 0 -159 158
q-130 -169 -353 -169q-134 0 -222 73.5t-88 214t113 215t274 74.5t267 -41v63zM594 1048l-328 218l-3 21l96 100l285 -266z" />
    <glyph glyph-name="aacute" unicode="&#xe1;" horiz-adv-x="1050" 
d="M410 95q210 0 318 177v132q-97 41 -229 41t-207.5 -45.5t-75.5 -132t56 -129.5t138 -43zM728 577q0 287 -310 287q-154 0 -250 -65l-4 2v113q101 69 296 69t300.5 -102.5t105.5 -297.5v-363q0 -101 76 -101q41 0 65 22l6 -1v-121q-48 -30 -117 -30q-153 0 -159 158
q-130 -169 -353 -169q-134 0 -222 73.5t-88 214t113 215t274 74.5t267 -41v63zM680 1266l-326 -218l-51 73l285 266l97 -100z" />
    <glyph glyph-name="acircumflex" unicode="&#xe2;" horiz-adv-x="1050" 
d="M410 95q210 0 318 177v132q-97 41 -229 41t-207.5 -45.5t-75.5 -132t56 -129.5t138 -43zM728 577q0 287 -310 287q-154 0 -250 -65l-4 2v113q101 69 296 69t300.5 -102.5t105.5 -297.5v-363q0 -101 76 -101q41 0 65 22l6 -1v-121q-48 -30 -117 -30q-153 0 -159 158
q-130 -169 -353 -169q-134 0 -222 73.5t-88 214t113 215t274 74.5t267 -41v63zM475 1234l-186 -178l-62 61l218 250h65l224 -250l-62 -61z" />
    <glyph glyph-name="atilde" unicode="&#xe3;" horiz-adv-x="1050" 
d="M410 95q210 0 318 177v132q-97 41 -229 41t-207.5 -45.5t-75.5 -132t56 -129.5t138 -43zM728 577q0 287 -310 287q-154 0 -250 -65l-4 2v113q101 69 296 69t300.5 -102.5t105.5 -297.5v-363q0 -101 76 -101q41 0 65 22l6 -1v-121q-48 -30 -117 -30q-153 0 -159 158
q-130 -169 -353 -169q-134 0 -222 73.5t-88 214t113 215t274 74.5t267 -41v63zM331.5 1318q63.5 0 151 -36t125 -36t59.5 20.5t22 57.5l5 3l92 -20q0 -82 -46.5 -129.5t-108 -48.5t-150 37.5t-126 38.5t-58.5 -21.5t-21 -58.5l-4 -4l-93 20q0 74 44.5 125.5t108 51.5z" />
    <glyph glyph-name="adieresis" unicode="&#xe4;" horiz-adv-x="1050" 
d="M410 95q210 0 318 177v132q-97 41 -229 41t-207.5 -45.5t-75.5 -132t56 -129.5t138 -43zM728 577q0 287 -310 287q-154 0 -250 -65l-4 2v113q101 69 296 69t300.5 -102.5t105.5 -297.5v-363q0 -101 76 -101q41 0 65 22l6 -1v-121q-48 -30 -117 -30q-153 0 -159 158
q-130 -169 -353 -169q-134 0 -222 73.5t-88 214t113 215t274 74.5t267 -41v63zM664 1147q-38 0 -65 27t-27 65t27 65t65 27t66 -28t28 -65t-28 -64t-66 -27zM306 1147q-38 0 -65 27t-27 65t27 65t65 27t66 -27t28 -65t-28 -65t-66 -27z" />
    <glyph glyph-name="aring" unicode="&#xe5;" horiz-adv-x="1050" 
d="M410 95q210 0 318 177v132q-97 41 -229 41t-207.5 -45.5t-75.5 -132t56 -129.5t138 -43zM728 577q0 287 -310 287q-154 0 -250 -65l-4 2v113q101 69 296 69t300.5 -102.5t105.5 -297.5v-363q0 -101 76 -101q41 0 65 22l6 -1v-121q-48 -30 -117 -30q-153 0 -159 158
q-130 -169 -353 -169q-134 0 -222 73.5t-88 214t113 215t274 74.5t267 -41v63zM479 1311q-40 0 -67 -27t-27 -66t27 -66t67 -27t67 27t27 66t-27 66t-67 27zM479 1046q-77 0 -126.5 49.5t-49.5 122t49.5 121t126.5 48.5t125.5 -47.5t48.5 -122t-48.5 -123t-125.5 -48.5z" />
    <glyph glyph-name="ae" unicode="&#xe6;" horiz-adv-x="1673" 
d="M413 97q96 0 187 51t143 142q-20 74 -26 159q-379 0 -469 -94q-38 -40 -38 -108t53.5 -109t149.5 -41zM1157.5 869q-121.5 0 -202 -82.5t-99.5 -229.5h578q-9 151 -82 231.5t-194.5 80.5zM713 577q1 287 -303 287q-152 0 -252 -65l-5 3v112q91 69 296 69q264 0 352 -195
q60 91 151 143t199 52q195 0 307 -124t113 -345v-65h-716q9 -166 107.5 -257t256 -91t293.5 83l5 -3v-123q-140 -82 -324 -82q-128 0 -235 53t-169 159q-155 -210 -413 -210q-138 0 -220.5 69.5t-82.5 200.5q0 184 188 249q163 56 452 60v20z" />
    <glyph glyph-name="ccedilla" unicode="&#xe7;" horiz-adv-x="930" 
d="M624 -91q67 0 112.5 -36.5t45.5 -123t-64.5 -132t-145 -45.5t-133.5 18v84l4 2q39 -15 94 -15t87.5 23.5t32.5 67.5q0 76 -89 77q-47 0 -86 -15l-2 4v68l58 95q-201 19 -323 153t-122 354.5t142.5 358.5t364.5 138q138 0 249 -43v-117l-6 -4q-108 43 -230 43
q-168 0 -272.5 -104.5t-104.5 -276.5t101.5 -277t275.5 -107q121 0 234 61l8 -4v-119q-101 -54 -226 -59l-44 -75q15 6 39 6z" />
    <glyph glyph-name="egrave" unicode="&#xe8;" horiz-adv-x="1063" 
d="M555 864q-123 0 -207.5 -78.5t-105.5 -217.5h598q-13 140 -87.5 218t-197.5 78zM554 983q198 0 310 -123t113 -342q0 -43 -1 -66h-740q9 -169 116.5 -261t265 -92t300.5 76l5 -2v-117q-136 -80 -336.5 -80t-347 128.5t-146.5 364.5t131.5 375t329.5 139zM663 1048
l-328 218l-4 21l97 100l285 -266z" />
    <glyph glyph-name="eacute" unicode="&#xe9;" horiz-adv-x="1063" 
d="M555 864q-123 0 -207.5 -78.5t-105.5 -217.5h598q-13 140 -87.5 218t-197.5 78zM554 983q198 0 310 -123t113 -342q0 -43 -1 -66h-740q9 -169 116.5 -261t265 -92t300.5 76l5 -2v-117q-136 -80 -336.5 -80t-347 128.5t-146.5 364.5t131.5 375t329.5 139zM748 1266
l-325 -218l-51 73l285 266l97 -100z" />
    <glyph glyph-name="ecircumflex" unicode="&#xea;" horiz-adv-x="1063" 
d="M555 864q-123 0 -207.5 -78.5t-105.5 -217.5h598q-13 140 -87.5 218t-197.5 78zM554 983q198 0 310 -123t113 -342q0 -43 -1 -66h-740q9 -169 116.5 -261t265 -92t300.5 76l5 -2v-117q-136 -80 -336.5 -80t-347 128.5t-146.5 364.5t131.5 375t329.5 139zM544 1234
l-187 -178l-61 61l218 250h65l223 -250l-61 -61z" />
    <glyph glyph-name="edieresis" unicode="&#xeb;" horiz-adv-x="1063" 
d="M555 864q-123 0 -207.5 -78.5t-105.5 -217.5h598q-13 140 -87.5 218t-197.5 78zM554 983q198 0 310 -123t113 -342q0 -43 -1 -66h-740q9 -169 116.5 -261t265 -92t300.5 76l5 -2v-117q-136 -80 -336.5 -80t-347 128.5t-146.5 364.5t131.5 375t329.5 139zM733 1147
q-38 0 -65.5 27t-27.5 65t27 65t65.5 27t66.5 -28t28 -65t-28 -64t-66 -27zM375 1147q-38 0 -65 27t-27 65t27 65t65 27t66 -27t28 -65t-28 -65t-66 -27z" />
    <glyph glyph-name="igrave" unicode="&#xec;" horiz-adv-x="454" 
d="M156 0v961h142v-961h-142zM343 1048l-328 218l-4 21l97 100l285 -266z" />
    <glyph glyph-name="iacute" unicode="&#xed;" horiz-adv-x="454" 
d="M156 0v961h142v-961h-142zM102 1048l-50 73l285 266l97 -100l-6 -21z" />
    <glyph glyph-name="icircumflex" unicode="&#xee;" horiz-adv-x="454" 
d="M156 0v961h142v-961h-142zM37 1056l-61 61l218 250h65l223 -250l-61 -61l-198 178z" />
    <glyph glyph-name="idieresis" unicode="&#xef;" horiz-adv-x="454" 
d="M156 0v961h142v-961h-142zM378 1147q-39 0 -65 27t-26 65t26 65t64 27t66 -27t28 -64t-27 -65t-66 -28zM76 1147q-39 0 -65 27t-26 65t26 65t64 27t66 -27t28 -64t-27 -65t-66 -28z" />
    <glyph glyph-name="eth" unicode="&#xf0;" horiz-adv-x="1193" 
d="M584 99q158 0 252.5 116t94.5 344v5q-30 82 -122 149t-237.5 67t-238.5 -93t-93 -245t93 -247.5t251 -95.5zM584 -24q-224 0 -355.5 123.5t-131.5 335t133 340t346 128.5t342 -142q-45 322 -240 418l-157 -157l-74 75l115 115q-34 6 -70 6q-151 0 -261 -49l-6 6v119
q106 47 235.5 47t207.5 -23l157 157l74 -75l-124 -125q302 -169 301 -694q0 -287 -134 -446t-358 -159z" />
    <glyph glyph-name="ntilde" unicode="&#xf1;" horiz-adv-x="1143" 
d="M620 983q168 0 274 -107t106 -317v-559h-140v523q0 168 -77 246t-188 78t-187.5 -54t-109.5 -147v-646h-142v961h116l17 -146q108 168 331 168zM414.5 1318q62.5 0 151.5 -36t125.5 -36t59 20.5t22.5 57.5l5 3l91 -20q0 -82 -46.5 -129.5t-107.5 -48.5t-149.5 37.5
t-126 38.5t-59 -21.5t-21.5 -58.5l-3 -4l-93 20q0 74 44.5 125.5t107 51.5z" />
    <glyph glyph-name="ograve" unicode="&#xf2;" horiz-adv-x="1174" 
d="M585.5 99q155.5 0 253 104t97.5 278t-97.5 276.5t-253 102.5t-252.5 -102.5t-97 -276.5t97 -278t252.5 -104zM584 -24q-211 0 -351 134t-140 366.5t142.5 369.5t354 137t352 -133t140.5 -366t-143.5 -370.5t-354.5 -137.5zM704 1048l-328 218l-4 21l97 100l285 -266z" />
    <glyph glyph-name="oacute" unicode="&#xf3;" horiz-adv-x="1174" 
d="M585.5 99q155.5 0 253 104t97.5 278t-97.5 276.5t-253 102.5t-252.5 -102.5t-97 -276.5t97 -278t252.5 -104zM584 -24q-211 0 -351 134t-140 366.5t142.5 369.5t354 137t352 -133t140.5 -366t-143.5 -370.5t-354.5 -137.5zM464 1048l-51 73l285 266l97 -100l-6 -21z" />
    <glyph glyph-name="ocircumflex" unicode="&#xf4;" horiz-adv-x="1174" 
d="M585.5 99q155.5 0 253 104t97.5 278t-97.5 276.5t-253 102.5t-252.5 -102.5t-97 -276.5t97 -278t252.5 -104zM584 -24q-211 0 -351 134t-140 366.5t142.5 369.5t354 137t352 -133t140.5 -366t-143.5 -370.5t-354.5 -137.5zM398 1056l-61 61l218 250h65l223 -250l-61 -61
l-197 178z" />
    <glyph glyph-name="otilde" unicode="&#xf5;" horiz-adv-x="1174" 
d="M585.5 99q155.5 0 253 104t97.5 278t-97.5 276.5t-253 102.5t-252.5 -102.5t-97 -276.5t97 -278t252.5 -104zM584 -24q-211 0 -351 134t-140 366.5t142.5 369.5t354 137t352 -133t140.5 -366t-143.5 -370.5t-354.5 -137.5zM440.5 1318q62.5 0 151.5 -36t126 -36t59 20.5
t22 57.5l5 3l92 -20q0 -82 -47 -129.5t-108 -48.5t-149.5 37.5t-126 38.5t-59 -21.5t-21.5 -58.5l-3 -4l-93 20q0 74 44.5 125.5t107 51.5z" />
    <glyph glyph-name="odieresis" unicode="&#xf6;" horiz-adv-x="1174" 
d="M585.5 99q155.5 0 253 104t97.5 278t-97.5 276.5t-253 102.5t-252.5 -102.5t-97 -276.5t97 -278t252.5 -104zM584 -24q-211 0 -351 134t-140 366.5t142.5 369.5t354 137t352 -133t140.5 -366t-143.5 -370.5t-354.5 -137.5zM774 1147q-38 0 -65.5 27t-27.5 65t27 65
t65.5 27t66.5 -28t28 -65t-28 -64t-66 -27zM416 1147q-38 0 -65 27t-27 65t27 65t65 27t66 -27t28 -65t-28 -65t-66 -27z" />
    <glyph glyph-name="divide" unicode="&#xf7;" horiz-adv-x="992" 
d="M497 158q-47 0 -72 26t-25 65t26 67t71 27q45 0 71 -27q26 -26 26 -66t-25 -66t-72 -26zM115 497v112h764v-112h-764zM497 752q-47 0 -72 26t-25 65t26 66t71 27t71 -27t26 -66t-25 -65t-72 -26z" />
    <glyph glyph-name="oslash" unicode="&#xf8;" horiz-adv-x="1178" 
d="M586 99q156 0 254 104t98 266t-72 261l-481 -570q84 -61 201 -61zM238 495q0 -160 71 -260l479 569q-88 56 -202 56q-155 0 -251.5 -102.5t-96.5 -262.5zM586 -24q-166 0 -286 82l-75 -88h-124v15l119 142q-125 134 -125 358t142.5 361t348.5 137q164 0 287 -78l69 84
h132v-12l-119 -139q128 -138 128.5 -362.5t-143 -362t-354.5 -137.5z" />
    <glyph glyph-name="ugrave" unicode="&#xf9;" horiz-adv-x="1117" 
d="M819 961h142v-961h-116l-15 130q-101 -153 -325 -152q-171 0 -265.5 97.5t-94.5 291.5v594h142v-570q0 -292 255 -292q93 0 169.5 50t107.5 145v667zM676 1048l-328 218l-4 21l97 100l285 -266z" />
    <glyph glyph-name="uacute" unicode="&#xfa;" horiz-adv-x="1117" 
d="M819 961h142v-961h-116l-15 130q-101 -153 -325 -152q-171 0 -265.5 97.5t-94.5 291.5v594h142v-570q0 -292 255 -292q93 0 169.5 50t107.5 145v667zM761 1266l-325 -218l-51 73l285 266l97 -100z" />
    <glyph glyph-name="ucircumflex" unicode="&#xfb;" horiz-adv-x="1117" 
d="M819 961h142v-961h-116l-15 130q-101 -153 -325 -152q-171 0 -265.5 97.5t-94.5 291.5v594h142v-570q0 -292 255 -292q93 0 169.5 50t107.5 145v667zM557 1234l-186 -178l-62 61l218 250h65l223 -250l-61 -61z" />
    <glyph glyph-name="udieresis" unicode="&#xfc;" horiz-adv-x="1117" 
d="M819 961h142v-961h-116l-15 130q-101 -153 -325 -152q-171 0 -265.5 97.5t-94.5 291.5v594h142v-570q0 -292 255 -292q93 0 169.5 50t107.5 145v667zM746 1147q-38 0 -65.5 27t-27.5 65t27 65t65.5 27t66.5 -28t28 -65t-28 -64t-66 -27zM388 1147q-38 0 -65 27t-27 65
t27 65t65 27t66 -27t28 -65t-28 -65t-66 -27z" />
    <glyph glyph-name="yacute" unicode="&#xfd;" horiz-adv-x="981" 
d="M203 -315q-37 0 -108 12v119l6 2q41 -11 78 -12q101 0 156 49t108 180l-408 920l2 6h151l324 -767l294 767h142l2 -6l-388 -951q-69 -177 -143.5 -248t-215.5 -71zM704 1266l-326 -218l-50 73l285 266l96 -100z" />
    <glyph glyph-name="thorn" unicode="&#xfe;" horiz-adv-x="1141" 
d="M559.5 101q157.5 0 250.5 102t93 284.5t-86.5 276.5t-222.5 94q-99 0 -177 -49t-119 -129v-505q104 -74 261.5 -74zM614 983q201 0 316.5 -129.5t115.5 -362t-135 -373t-339 -140.5q-164 0 -274 67v-350h-142v1627h142v-480q115 141 316 141z" />
    <glyph glyph-name="ydieresis" unicode="&#xff;" horiz-adv-x="981" 
d="M203 -315q-37 0 -108 12v119l6 2q41 -11 78 -12q101 0 156.5 49.5t107.5 179.5l-408 920l2 6h151l324 -767l294 767h142l2 -6l-388 -951q-69 -177 -143.5 -248t-215.5 -71zM688 1147q-38 0 -65 27t-27 65t27 65t65 27t66 -28t28 -65t-28 -64t-66 -27zM330 1147
q-38 0 -65 27t-27 65t27 65t65 27t66 -27t28 -65t-28 -65t-66 -27z" />
    <glyph glyph-name="Amacron" unicode="&#x100;" horiz-adv-x="1178" 
d="M343 436h486l-229 528l-19 54l-19 -54zM1018 0l-141 326h-579l-136 -326h-138l533 1249h56l551 -1249h-146zM842 1510v-117h-522v117h522z" />
    <glyph glyph-name="amacron" unicode="&#x101;" horiz-adv-x="1050" 
d="M410 95q210 0 318 177v132q-97 41 -229 41t-207.5 -45.5t-75.5 -132t56 -129.5t138 -43zM728 577q0 287 -310 287q-154 0 -250 -65l-4 2v113q101 69 296 69t300.5 -102.5t105.5 -297.5v-363q0 -101 76 -101q41 0 65 22l6 -1v-121q-48 -30 -117 -30q-153 0 -159 158
q-130 -169 -353 -169q-134 0 -222 73.5t-88 214t113 215t274 74.5t267 -41v63zM745 1262v-106h-535v106h535z" />
    <glyph glyph-name="Abreve" unicode="&#x102;" horiz-adv-x="1178" 
d="M343 436h486l-229 528l-19 54l-19 -54zM1018 0l-141 326h-579l-136 -326h-138l533 1249h56l551 -1249h-146zM581 1316q-110 0 -180.5 66t-70.5 178l91 10q7 -69 50 -109t114 -40t116.5 40.5t46.5 108.5l88 -10q0 -112 -72.5 -178t-182.5 -66z" />
    <glyph glyph-name="abreve" unicode="&#x103;" horiz-adv-x="1050" 
d="M410 95q210 0 318 177v132q-97 41 -229 41t-207.5 -45.5t-75.5 -132t56 -129.5t138 -43zM728 577q0 287 -310 287q-154 0 -250 -65l-4 2v113q101 69 296 69t300.5 -102.5t105.5 -297.5v-363q0 -101 76 -101q41 0 65 22l6 -1v-121q-48 -30 -117 -30q-153 0 -159 158
q-130 -169 -353 -169q-134 0 -222 73.5t-88 214t113 215t274 74.5t267 -41v63zM476.5 1074q-109.5 0 -180.5 69t-71 188l95 11l4 -3q4 -71 46.5 -114t109.5 -43t111 43t46 112l3 5l92 -11q0 -117 -73 -187t-182.5 -70z" />
    <glyph glyph-name="Aogonek" unicode="&#x104;" horiz-adv-x="1178" 
d="M343 436h486l-229 528l-19 54l-19 -54zM1054.5 -322q41.5 0 62.5 7l8 -3v-92q-37 -13 -113 -13t-129 39.5t-53 111.5q0 155 192 272h-4l-141 326h-579l-136 -326h-138l533 1249h56l551 -1249h-28q-169 -114 -170 -238q0 -35 23.5 -59.5t65 -24.5z" />
    <glyph glyph-name="aogonek" unicode="&#x105;" horiz-adv-x="1050" 
d="M410 95q210 0 318 177v132q-97 41 -229 41t-207.5 -45.5t-75.5 -132t56 -129.5t138 -43zM728 577q0 287 -310 287q-154 0 -250 -65l-4 2v113q101 69 296 69t300.5 -102.5t105.5 -297.5v-363q0 -101 76 -101q41 0 65 22l6 -1v-121q-8 -8 -24 -13q-168 -110 -168 -237
q0 -35 23.5 -59.5t65 -24.5t62.5 8l7 -4v-91q-37 -13 -112.5 -13t-128.5 39t-53 112q0 143 170 257q-112 20 -118 154q-130 -169 -353 -169q-134 0 -222 73.5t-88 214t113 215t274 74.5t267 -41v63z" />
    <glyph glyph-name="Cacute" unicode="&#x106;" horiz-adv-x="1184" 
d="M101 608.5q0 288.5 179.5 465.5t469.5 177q194 0 354 -71v-130l-6 -2q-147 76 -331 77q-238 0 -380.5 -140t-142.5 -372.5t138.5 -369.5t384.5 -137q179 0 331 76l6 -1v-125q-157 -78 -356 -78q-292 2 -469.5 172t-177.5 458.5zM534 1305l-29 78l335 211l74 -110l-9 -21z
" />
    <glyph glyph-name="cacute" unicode="&#x107;" horiz-adv-x="930" 
d="M600 -22q-225 0 -366 136.5t-141 365.5t142.5 367t364.5 138q138 0 249 -43v-117l-6 -4q-108 43 -230 43q-168 0 -272.5 -104.5t-104.5 -276.5t101.5 -277t275.5 -107q121 0 234 61l8 -4v-119q-108 -59 -255 -59zM432 1058l-50 72l285 266l96 -100l-5 -21z" />
    <glyph glyph-name="Ccircumflex" unicode="&#x108;" horiz-adv-x="1184" 
d="M101 608.5q0 288.5 179.5 465.5t469.5 177q194 0 354 -71v-130l-6 -2q-147 76 -331 77q-238 0 -380.5 -140t-142.5 -372.5t138.5 -369.5t384.5 -137q179 0 331 76l6 -1v-125q-157 -78 -356 -78q-292 2 -469.5 172t-177.5 458.5zM499 1305l-52 69l223 207h65l231 -207
l-54 -69l-212 155z" />
    <glyph glyph-name="ccircumflex" unicode="&#x109;" horiz-adv-x="930" 
d="M600 -22q-225 0 -366 136.5t-141 365.5t142.5 367t364.5 138q138 0 249 -43v-117l-6 -4q-108 43 -230 43q-168 0 -272.5 -104.5t-104.5 -276.5t101.5 -277t275.5 -107q121 0 234 61l8 -4v-119q-108 -59 -255 -59zM367 1065l-62 61l218 250h65l224 -250l-62 -61l-197 179z
" />
    <glyph glyph-name="Cdotaccent" unicode="&#x10a;" horiz-adv-x="1184" 
d="M101 608.5q0 288.5 179.5 465.5t469.5 177q194 0 354 -71v-130l-6 -2q-147 76 -331 77q-238 0 -380.5 -140t-142.5 -372.5t138.5 -369.5t384.5 -137q179 0 331 76l6 -1v-125q-157 -78 -356 -78q-292 2 -469.5 172t-177.5 458.5zM705.5 1363q-37.5 0 -63.5 26t-26 63
t27 64t63.5 27t63.5 -26t27 -64t-27 -64t-64.5 -26z" />
    <glyph glyph-name="cdotaccent" unicode="&#x10b;" horiz-adv-x="930" 
d="M600 -22q-225 0 -366 136.5t-141 365.5t142.5 367t364.5 138q138 0 249 -43v-117l-6 -4q-108 43 -230 43q-168 0 -272.5 -104.5t-104.5 -276.5t101.5 -277t275.5 -107q121 0 234 61l8 -4v-119q-108 -59 -255 -59zM557 1152q-39 0 -68 29t-29 69t29 68t68 28t67.5 -28
t28.5 -68t-28.5 -69t-67.5 -29z" />
    <glyph glyph-name="Ccaron" unicode="&#x10c;" horiz-adv-x="1184" 
d="M101 608.5q0 288.5 179.5 465.5t469.5 177q194 0 354 -71v-130l-6 -2q-147 76 -331 77q-238 0 -380.5 -140t-142.5 -372.5t138.5 -369.5t384.5 -137q179 0 331 76l6 -1v-125q-157 -78 -356 -78q-292 2 -469.5 172t-177.5 458.5zM678 1305l-231 209l52 67l214 -155
l201 155l52 -67l-225 -209h-63z" />
    <glyph glyph-name="ccaron" unicode="&#x10d;" horiz-adv-x="930" 
d="M600 -22q-225 0 -366 136.5t-141 365.5t142.5 367t364.5 138q138 0 249 -43v-117l-6 -4q-108 43 -230 43q-168 0 -272.5 -104.5t-104.5 -276.5t101.5 -277t275.5 -107q121 0 234 61l8 -4v-119q-108 -59 -255 -59zM529 1067l-224 251l62 58l197 -177l186 177l62 -58
l-218 -251h-65z" />
    <glyph glyph-name="Dcaron" unicode="&#x10e;" horiz-adv-x="1362" 
d="M1117 619.5q0 237.5 -140.5 368.5t-408.5 131q-114 0 -244 -9v-983q86 -6 257 -6q264 2 400 131.5t136 367zM572 1246q339 0 514.5 -166t175.5 -460t-181.5 -458t-514.5 -164q-285 0 -380 6v1227q204 15 386 15zM648 1305h-63l-231 209l52 67l214 -155l201 155l52 -67z
" />
    <glyph glyph-name="dcaron" unicode="&#x10f;" horiz-adv-x="1191" 
d="M553 102q194 0 289 174v500q-101 84 -254 84t-251.5 -106t-98.5 -285.5t87.5 -273t227.5 -93.5zM842 1322h141v-1322h-115l-15 132q-115 -155 -332 -154q-188 0 -308 126.5t-120 359t138 376t348 143.5q155 0 263 -73v412zM1238 1329l15 -16l-50 -378h-91l16 394h110z
" />
    <glyph glyph-name="Dcroat" unicode="&#x110;" horiz-adv-x="1377" 
d="M1132 619.5q0 237.5 -140.5 368.5t-408.5 131q-114 0 -244 -9v-449h201v-102h-201v-432q88 -6 257 -6q264 2 400 131.5t136 367zM586 1246q339 0 515 -166t176 -460t-181.5 -458t-514.5 -164q-285 0 -380 6v555h-167v102h167v570q203 15 385 15z" />
    <glyph glyph-name="dcroat" unicode="&#x111;" horiz-adv-x="1139" 
d="M553 102q194 0 289 174v500q-101 84 -254 84t-251.5 -106t-98.5 -286t87.5 -273t227.5 -93zM1132 1186v-102h-149v-1084h-115l-15 132q-115 -155 -332 -154q-188 0 -308 126q-120 128 -120 360t138 375.5t348 143.5q155 0 263 -73v174h-190v102h190v136h141v-136h149z
" />
    <glyph glyph-name="Emacron" unicode="&#x112;" horiz-adv-x="1024" 
d="M326 128h607v-128h-747v1231h723v-129h-583v-404h547v-128h-547v-442zM830 1510v-117h-521v117h521z" />
    <glyph glyph-name="emacron" unicode="&#x113;" horiz-adv-x="1063" 
d="M555 864q-123 0 -207.5 -78.5t-105.5 -217.5h598q-13 140 -87.5 218t-197.5 78zM554 983q198 0 310 -123t113 -342q0 -43 -1 -66h-740q9 -169 116.5 -261t265 -92t300.5 76l5 -2v-117q-136 -80 -336.5 -80t-347 128.5t-146.5 364.5t131.5 375t329.5 139zM814 1262v-106
h-535v106h535z" />
    <glyph glyph-name="Ebreve" unicode="&#x114;" horiz-adv-x="1024" 
d="M326 128h607v-128h-747v1231h723v-129h-583v-404h547v-128h-547v-442zM570 1316q-110 0 -181 66t-71 178l92 10q7 -69 50 -109t114 -40t116 40.5t47 108.5l88 -10q0 -112 -72.5 -178t-182.5 -66z" />
    <glyph glyph-name="ebreve" unicode="&#x115;" horiz-adv-x="1063" 
d="M555 864q-123 0 -207.5 -78.5t-105.5 -217.5h598q-13 140 -87.5 218t-197.5 78zM554 983q198 0 310 -123t113 -342q0 -43 -1 -66h-740q9 -169 116.5 -261t265 -92t300.5 76l5 -2v-117q-136 -80 -336.5 -80t-347 128.5t-146.5 364.5t131.5 375t329.5 139zM545.5 1074
q-109.5 0 -180.5 69t-71 188l95 11l4 -3q4 -71 46.5 -114t109.5 -43t111 43t46 112l3 5l92 -11q0 -117 -73 -187t-182.5 -70z" />
    <glyph glyph-name="Edotaccent" unicode="&#x116;" horiz-adv-x="1024" 
d="M326 128h607v-128h-747v1231h723v-129h-583v-404h547v-128h-547v-442zM569.5 1363q-37.5 0 -63.5 26t-26 63t26 64t63.5 27t64.5 -26t27 -64t-27 -64t-64.5 -26z" />
    <glyph glyph-name="edotaccent" unicode="&#x117;" horiz-adv-x="1063" 
d="M555 864q-123 0 -207.5 -78.5t-105.5 -217.5h598q-13 140 -87.5 218t-197.5 78zM554 983q198 0 310 -123t113 -342q0 -43 -1 -66h-740q9 -169 116.5 -261t265 -92t300.5 76l5 -2v-117q-136 -80 -336.5 -80t-347 128.5t-146.5 364.5t131.5 375t329.5 139zM547 1143
q-39 0 -67.5 29t-28.5 69t28.5 68t67.5 28t68 -28t29 -68t-29 -69t-68 -29z" />
    <glyph glyph-name="Eogonek" unicode="&#x118;" horiz-adv-x="1024" 
d="M851.5 -322q41.5 0 62.5 7l8 -3v-92q-37 -13 -113 -13t-129 39.5t-53 111.5q0 155 192 272h-633v1231h723v-129h-583v-404h547v-128h-547v-442h607v-128q-169 -114 -170 -238q0 -35 23.5 -59.5t65 -24.5z" />
    <glyph glyph-name="eogonek" unicode="&#x119;" horiz-adv-x="1063" 
d="M555 864q-123 0 -207.5 -78.5t-105.5 -217.5h598q-13 140 -87.5 218t-197.5 78zM554 983q198 0 310 -123t113 -342q0 -43 -1 -66h-740q9 -169 116.5 -261t265 -92t300.5 76l5 -2v-117q-56 -34 -106 -49q-169 -114 -169 -238q0 -35 23 -59.5t65 -24.5t63 8l7 -4v-91
q-37 -13 -112.5 -13t-128.5 39t-53 112q0 136 149 242q-22 -2 -63 -2q-212 0 -358.5 128.5t-146.5 364.5t131.5 375t329.5 139z" />
    <glyph glyph-name="Ecaron" unicode="&#x11a;" horiz-adv-x="1024" 
d="M326 128h607v-128h-747v1231h723v-129h-583v-404h547v-128h-547v-442zM605 1305h-63l-231 209l52 67l214 -155l201 155l52 -67z" />
    <glyph glyph-name="ecaron" unicode="&#x11b;" horiz-adv-x="1063" 
d="M555 864q-123 0 -207.5 -78.5t-105.5 -217.5h598q-13 140 -87.5 218t-197.5 78zM554 983q198 0 310 -123t113 -342q0 -43 -1 -66h-740q9 -169 116.5 -261t265 -92t300.5 76l5 -2v-117q-136 -80 -336.5 -80t-347 128.5t-146.5 364.5t131.5 375t329.5 139zM585 1058h-66
l-223 251l61 58l198 -177l186 177l61 -58z" />
    <glyph glyph-name="Gcircumflex" unicode="&#x11c;" horiz-adv-x="1297" 
d="M1184 594v-506q-194 -106 -473 -106t-444.5 168t-165.5 458t182 466.5t484 176.5q205 0 365 -69l-2 -136l-5 -2q-158 80 -378 80t-360.5 -141t-140.5 -372t127.5 -367t365.5 -136q186 0 319 67v300h-326v119h452zM713 1460l-201 -155l-52 69l223 207h65l231 -207l-54 -69
z" />
    <glyph glyph-name="gcircumflex" unicode="&#x11d;" horiz-adv-x="1038" 
d="M842 -56q0 83 -86 113q-69 24 -209 36q-138 17 -175 22q-162 -73 -162 -180q0 -143 316 -143.5t316 152.5zM741 654q0 94 -67 146.5t-174 52.5t-173 -53t-66 -145.5t66 -143.5t174 -52t174 50t66 145zM976 961v-106h-213q112 -80 112 -210.5t-106 -211.5t-270 -81
q-97 0 -171 28q-34 -26 -34 -67t54 -60.5t244 -36.5t285 -72t95 -183q0 -279 -462 -279q-192 0 -311 55.5t-119 186t173 223.5q-89 41 -89 126.5t80 149.5q-119 84 -119 227.5t105 227t271 83.5h475zM488 1244l-186 -179l-62 61l218 250h65l224 -250l-62 -61z" />
    <glyph glyph-name="Gbreve" unicode="&#x11e;" horiz-adv-x="1297" 
d="M1184 594v-506q-194 -106 -473 -106t-444.5 168t-165.5 458t182 466.5t484 176.5q205 0 365 -69l-2 -136l-5 -2q-158 80 -378 80t-360.5 -141t-140.5 -372t127.5 -367t365.5 -136q186 0 319 67v300h-326v119h452zM719 1316q-110 0 -181 66t-71 178l92 10q7 -69 50 -109
t114 -40t116 40.5t47 108.5l88 -10q0 -112 -72.5 -178t-182.5 -66z" />
    <glyph glyph-name="gbreve" unicode="&#x11f;" horiz-adv-x="1038" 
d="M842 -56q0 83 -86 113q-69 24 -209 36q-138 17 -175 22q-162 -73 -162 -180q0 -143 316 -143.5t316 152.5zM741 654q0 94 -67 146.5t-174 52.5t-173 -53t-66 -145.5t66 -143.5t174 -52t174 50t66 145zM976 961v-106h-213q112 -80 112 -210.5t-106 -211.5t-270 -81
q-97 0 -171 28q-34 -26 -34 -67t54 -60.5t244 -36.5t285 -72t95 -183q0 -279 -462 -279q-192 0 -311 55.5t-119 186t173 223.5q-89 41 -89 126.5t80 149.5q-119 84 -119 227.5t105 227t271 83.5h475zM490 1084q-110 0 -181 68.5t-71 188.5l95 11l4 -4q4 -71 46.5 -113.5
t110 -42.5t111 42.5t45.5 111.5l3 6l92 -11q0 -117 -72.5 -187t-182.5 -70z" />
    <glyph glyph-name="Gdotaccent" unicode="&#x120;" horiz-adv-x="1297" 
d="M1184 594v-506q-194 -106 -473 -106t-444.5 168t-165.5 458t182 466.5t484 176.5q205 0 365 -69l-2 -136l-5 -2q-158 80 -378 80t-360.5 -141t-140.5 -372t127.5 -367t365.5 -136q186 0 319 67v300h-326v119h452zM718.5 1363q-37.5 0 -63.5 26t-26 63t26 64t63.5 27
t64.5 -26t27 -64t-27 -64t-64.5 -26z" />
    <glyph glyph-name="gdotaccent" unicode="&#x121;" horiz-adv-x="1038" 
d="M842 -56q0 83 -86 113q-69 24 -209 36q-138 17 -175 22q-162 -73 -162 -180q0 -143 316 -143.5t316 152.5zM741 654q0 94 -67 146.5t-174 52.5t-173 -53t-66 -145.5t66 -143.5t174 -52t174 50t66 145zM976 961v-106h-213q112 -80 112 -210.5t-106 -211.5t-270 -81
q-97 0 -171 28q-34 -26 -34 -67t54 -60.5t244 -36.5t285 -72t95 -183q0 -279 -462 -279q-192 0 -311 55.5t-119 186t173 223.5q-89 41 -89 126.5t80 149.5q-119 84 -119 227.5t105 227t271 83.5h475zM491.5 1152q-39.5 0 -68 29t-28.5 69t28.5 68t68 28t68 -28t28.5 -68
t-28.5 -69t-68 -29z" />
    <glyph glyph-name="Gcommaaccent" unicode="&#x122;" horiz-adv-x="1297" 
d="M659 -171l-2 74l131 11l13 -16q0 -166 -80 -315h-95q34 112 33 246zM1184 594v-506q-194 -106 -473 -106.5t-444.5 168t-165.5 458.5t182 466.5t484 176.5q205 0 365 -69l-2 -136l-5 -2q-158 80 -378 80.5t-360.5 -141t-140.5 -372.5t127.5 -367t365.5 -136q186 0 319 67
v300h-326v119h452z" />
    <glyph glyph-name="gcommaaccent" unicode="&#x123;" horiz-adv-x="1038" 
d="M842 -56q0 83 -86 113q-69 24 -209 36q-138 17 -175 22q-162 -73 -162 -180q0 -143 316 -143.5t316 152.5zM741 654q0 94 -67 146.5t-174 52.5t-173 -53t-66 -145.5t66 -143.5t174 -52t174 50t66 145zM976 961v-106h-213q112 -80 112 -210.5t-106 -211.5t-270 -81
q-97 0 -171 28q-34 -26 -34 -67t54 -60.5t244 -36.5t285 -72t95 -183q0 -279 -462 -279q-192 0 -311 55.5t-119 186t173 223.5q-89 41 -89 126.5t80 149.5q-119 84 -119 227.5t105 227t271 83.5h475zM572 1141l1 -74l-130 -11l-13 16q0 166 80 315h95q-34 -112 -33 -246z
" />
    <glyph glyph-name="Hcircumflex" unicode="&#x124;" horiz-adv-x="1385" 
d="M1059 1231h140v-1231h-140v562h-733v-562h-140v1231h140v-544h733v544zM685 1460l-201 -155l-52 69l223 207h66l230 -207l-54 -69z" />
    <glyph glyph-name="hcircumflex" unicode="&#x125;" horiz-adv-x="1141" 
d="M620 983q169 0 273.5 -107t104.5 -308v-568h-140v536q0 162 -76 236t-186 74.5t-186.5 -51.5t-111.5 -145v-650h-142v1322h142v-495q106 156 322 156zM443 1370l-212 155l-201 -155l-52 69l223 207h65l231 -207z" />
    <glyph glyph-name="Hbar" unicode="&#x126;" horiz-adv-x="1435" 
d="M1085 687v201h-735v-201h735zM1376 996v-108h-153v-888h-138v562h-735v-562h-140v888h-150v108h150v235h140v-235h735v235h138v-235h153z" />
    <glyph glyph-name="hbar" unicode="&#x127;" horiz-adv-x="1141" 
d="M620 983q169 0 273.5 -107t104.5 -308v-568h-140v536q0 162 -76 236t-186 74.5t-186.5 -51.5t-111.5 -145v-650h-142v1084h-156v102h156v136h142v-136h208v-102h-208v-257q106 156 322 156z" />
    <glyph glyph-name="Itilde" unicode="&#x128;" horiz-adv-x="510" 
d="M186 0v1231h140v-1231h-140zM121 1532q61 0 142 -34.5t115 -34.5t57 21.5t23 58.5l4 4l95 -30q-4 -78 -50.5 -125.5t-104.5 -47.5t-140.5 35.5t-119 35.5t-59.5 -22.5t-23 -59.5l-4 -2l-95 26q4 76 51.5 125.5t108.5 49.5z" />
    <glyph glyph-name="itilde" unicode="&#x129;" horiz-adv-x="454" 
d="M156 0v961h142v-961h-142zM79.5 1318q62.5 0 151.5 -36t125.5 -36t59 20.5t22.5 57.5l5 3l91 -20q0 -82 -46.5 -129.5t-107.5 -48.5t-150 37.5t-126 38.5t-58.5 -21.5t-21.5 -58.5l-4 -4l-93 20q0 74 45 125.5t107.5 51.5z" />
    <glyph glyph-name="Imacron" unicode="&#x12a;" horiz-adv-x="510" 
d="M186 0v1231h140v-1231h-140zM47 1395v119h417v-119h-417z" />
    <glyph glyph-name="imacron" unicode="&#x12b;" horiz-adv-x="454" 
d="M156 0v961h142v-961h-142zM-6 1156v106h466v-106h-466z" />
    <glyph glyph-name="Ibreve" unicode="&#x12c;" horiz-adv-x="510" 
d="M186 0v1231h140v-1231h-140zM255 1316q-110 0 -180.5 66t-70.5 178l91 10q7 -69 50 -109t114 -40t116.5 40.5t47.5 108.5l87 -10q0 -112 -72.5 -178t-182.5 -66z" />
    <glyph glyph-name="ibreve" unicode="&#x12d;" horiz-adv-x="454" 
d="M156 0v961h142v-961h-142zM225 1074q-110 0 -180.5 69t-70.5 188l95 11l4 -3q4 -71 46.5 -114t109.5 -43t111 43t45 112l4 5l91 -11q0 -117 -72.5 -187t-182.5 -70z" />
    <glyph glyph-name="Iogonek" unicode="&#x12e;" horiz-adv-x="510" 
d="M149 -231q0 -35 23 -59.5t65 -24.5t63 8l7 -4v-91q-37 -13 -112.5 -13t-128.5 39t-53 112q0 147 181 264h-8v1231h140v-1231h-19q-158 -112 -158 -231z" />
    <glyph glyph-name="iogonek" unicode="&#x12f;" horiz-adv-x="454" 
d="M156 0v961h142v-961h-13q-169 -114 -170 -238q0 -35 23.5 -59.5t65.5 -24.5t62 7l8 -3v-92q-37 -13 -113 -13t-128.5 39.5t-52.5 111.5q0 155 191 272h-15zM227 1143q-39 0 -68 29t-29 69t29 68t68 28t68 -28t29 -68t-29 -69t-68 -29z" />
    <glyph glyph-name="Idotaccent" unicode="&#x130;" horiz-adv-x="510" 
d="M186 0v1231h140v-1231h-140zM255 1363q-37 0 -63 26t-26 63t27 64t63 27t63 -26t27 -64t-27 -64t-64 -26z" />
    <glyph glyph-name="dotlessi" unicode="&#x131;" horiz-adv-x="454" 
d="M156 0v961h142v-961h-142z" />
    <glyph glyph-name="IJ" unicode="&#x132;" horiz-adv-x="1172" 
d="M631 -6q-43 0 -95 6v119l6 2q32 -6 74 -6q246 0 246 293v823h140v-812q0 -425 -371 -425zM186 0v1231h140v-1231h-140z" />
    <glyph glyph-name="ij" unicode="&#x133;" horiz-adv-x="916" 
d="M417 -315q-97 0 -199 30v121l4 2q88 -26 197 -26t155 78t46 276v795h140v-825q0 -242 -86 -346t-257 -105zM156 56v905h142v-905h-142zM691 1143q-39 0 -68 29t-29 69t29 68t68 28t68 -28t29 -68t-29 -69t-68 -29zM227 1143q-39 0 -68 29t-29 69t29 68t68 28t68 -28
t29 -68t-29 -69t-68 -29z" />
    <glyph glyph-name="Jcircumflex" unicode="&#x134;" horiz-adv-x="662" 
d="M121 -6q-43 0 -95 6v119l6 2q32 -6 74 -6q246 0 246 293v823h140v-812q0 -425 -371 -425zM212 1305l-52 69l224 207h65l231 -207l-54 -69l-213 155z" />
    <glyph glyph-name="jcircumflex" unicode="&#x135;" horiz-adv-x="485" 
d="M19 -315q-35 0 -92 10v121l6 2q28 -6 60 -6q197 0 197 240v909h140v-939q0 -337 -311 -337zM69 1056l-62 61l218 250h65l224 -250l-62 -61l-197 178z" />
    <glyph glyph-name="Kcommaaccent" unicode="&#x136;" horiz-adv-x="1146" 
d="M521 -171l-2 74l131 11l13 -16q0 -166 -80 -315h-95q34 112 33 246zM326 0h-140v1231h140v-563l620 563h166l1 -6l-662 -598l698 -621l-2 -6h-181l-640 566v-566z" />
    <glyph glyph-name="kcommaaccent" unicode="&#x137;" horiz-adv-x="979" 
d="M441 -171l-2 74l131 11l13 -16q0 -166 -80 -315h-95q34 112 33 246zM298 0h-142v1322h142v-786l469 425h166l2 -6l-503 -454l527 -495l-2 -6h-175l-484 451v-451z" />
    <glyph glyph-name="kgreenlandic" unicode="&#x138;" horiz-adv-x="979" 
d="M298 0h-142v961h142v-427l475 427h165l2 -6l-508 -454l527 -495l-2 -6h-175l-484 451v-451z" />
    <glyph glyph-name="Lacute" unicode="&#x139;" horiz-adv-x="930" 
d="M326 117h583v-117h-723v1231h140v-1114zM484 1484l-9 -21l-371 -158l-30 78l336 211z" />
    <glyph glyph-name="lacute" unicode="&#x13a;" horiz-adv-x="459" 
d="M162 0v1322h140v-1322h-140zM112 1409l-51 73l285 266l97 -100l-5 -21z" />
    <glyph glyph-name="Lcommaaccent" unicode="&#x13b;" horiz-adv-x="930" 
d="M488 -171l-2 74l130 11l13 -16q0 -166 -80 -315h-95q34 112 34 246zM326 117h583v-117h-723v1231h140v-1114z" />
    <glyph glyph-name="lcommaaccent" unicode="&#x13c;" horiz-adv-x="459" 
d="M162 -171l-2 74l130 11l13 -16q0 -166 -80 -315h-95q34 112 34 246zM162 0v1322h140v-1322h-140z" />
    <glyph glyph-name="Lcaron" unicode="&#x13d;" horiz-adv-x="938" 
d="M326 117h583v-117h-723v1231h140v-1114zM775 1249l-51 -376h-89l15 393h110z" />
    <glyph glyph-name="lcaron" unicode="&#x13e;" horiz-adv-x="512" 
d="M162 0v1322h140v-1322h-140zM432 935l15 394h112l14 -16l-50 -378h-91z" />
    <glyph glyph-name="Ldot" unicode="&#x13f;" horiz-adv-x="951" 
d="M721 622q-41 0 -63.5 22.5t-22.5 57.5t22.5 58.5t63 23.5t63 -23.5t22.5 -58.5q1 -80 -85 -80zM326 117h583v-117h-723v1231h140v-1114z" />
    <glyph glyph-name="ldot" unicode="&#x140;" horiz-adv-x="575" 
d="M521 600q-41 0 -64 22t-23 58t23 59.5t64 23.5t63.5 -23t22.5 -59t-22.5 -58.5t-63.5 -22.5zM162 0v1322h140v-1322h-140z" />
    <glyph glyph-name="Lslash" unicode="&#x141;" horiz-adv-x="943" 
d="M339 117h583v-117h-723v508l-136 -84l-5 4v123l141 88v592h140v-505l138 86h5v-129l-143 -89v-477z" />
    <glyph glyph-name="lslash" unicode="&#x142;" horiz-adv-x="560" 
d="M495 858v-119l-145 -91v-648h-141v559l-133 -84h-5v121l138 85v641h141v-551l140 87h5z" />
    <glyph glyph-name="Nacute" unicode="&#x143;" horiz-adv-x="1375" 
d="M186 0v1234h58l806 -951h6v948h134v-1237h-56l-810 956h-4v-950h-134zM521 1305l-29 78l335 211l74 -110l-9 -21z" />
    <glyph glyph-name="nacute" unicode="&#x144;" horiz-adv-x="1143" 
d="M620 983q168 0 274 -107t106 -317v-559h-140v523q0 168 -77 246t-188 78t-187.5 -54t-109.5 -147v-646h-142v961h116l17 -146q108 168 331 168zM763 1266l-325 -218l-51 73l285 266l97 -100z" />
    <glyph glyph-name="Ncommaaccent" unicode="&#x145;" horiz-adv-x="1375" 
d="M626 -171l-2 74l130 11l13 -16q0 -166 -80 -315h-95q34 112 34 246zM186 0v1234h58l806 -951h6v948h134v-1237h-56l-810 956h-4v-950h-134z" />
    <glyph glyph-name="ncommaaccent" unicode="&#x146;" horiz-adv-x="1143" 
d="M486 -171l-2 74l130 11l13 -16q0 -166 -80 -315h-95q34 112 34 246zM620 983q168 0 274 -107t106 -317v-559h-140v523q0 168 -77 246t-188 78t-187.5 -54t-109.5 -147v-646h-142v961h116l17 -146q108 168 331 168z" />
    <glyph glyph-name="Ncaron" unicode="&#x147;" horiz-adv-x="1375" 
d="M186 0v1234h58l806 -951h6v948h134v-1237h-56l-810 956h-4v-950h-134zM665 1305l-231 209l52 67l214 -155l201 155l52 -67l-225 -209h-63z" />
    <glyph glyph-name="ncaron" unicode="&#x148;" horiz-adv-x="1143" 
d="M620 983q168 0 274 -107t106 -317v-559h-140v523q0 168 -77 246t-188 78t-187.5 -54t-109.5 -147v-646h-142v961h116l17 -146q108 168 331 168zM600 1058h-66l-223 251l61 58l198 -177l186 177l61 -58z" />
    <glyph glyph-name="napostrophe" unicode="&#x149;" horiz-adv-x="1262" 
d="M737 983q168 0 274 -107t106 -317v-559h-138v523q0 168 -77 246t-189 78t-188 -54t-110 -147v-646h-139v961h113l17 -146q48 76 133.5 122t197.5 46zM15 884q31 221 22 386l125 22l19 -22q-2 -171 -79 -386h-87z" />
    <glyph glyph-name="Eng" unicode="&#x14a;" horiz-adv-x="1374" 
d="M1056 1231h134v-1164q0 -426 -369 -426q-52 0 -95 7v116l2 1q34 -6 76 -5q127 0 189 79t63 219v30l-732 860h-4v-948h-134v1234h58l806 -953h6v950z" />
    <glyph glyph-name="eng" unicode="&#x14b;" horiz-adv-x="1131" 
d="M622 983q166 0 266.5 -103.5t100.5 -306.5v-620q0 -322 -295 -322q-15 0 -59 4v116l4 1q11 -2 26 -1q97 0 140.5 52t43.5 173v560q0 158 -75.5 234.5t-184.5 76.5t-183.5 -53t-107.5 -144v-650h-142v961h116l18 -166q47 82 132.5 135t199.5 53z" />
    <glyph glyph-name="Omacron" unicode="&#x14c;" horiz-adv-x="1467" 
d="M734 99q216 0 351.5 138.5t135.5 377t-135.5 377t-351.5 138.5t-352 -138.5t-136 -377t136 -377t352 -138.5zM736 -26q-272 0 -453.5 171.5t-181.5 467t179.5 469t451.5 173.5t453.5 -171.5t181.5 -466.5t-179.5 -469t-451.5 -174zM471 1393v117h521v-117h-521z" />
    <glyph glyph-name="omacron" unicode="&#x14d;" horiz-adv-x="1174" 
d="M585.5 99q155.5 0 253 104t97.5 278t-97.5 276.5t-253 102.5t-252.5 -102.5t-97 -276.5t97 -278t252.5 -104zM584 -24q-211 0 -351 134t-140 366.5t142.5 369.5t354 137t352 -133t140.5 -366t-143.5 -370.5t-354.5 -137.5zM320 1156v106h535v-106h-535z" />
    <glyph glyph-name="Obreve" unicode="&#x14e;" horiz-adv-x="1467" 
d="M734 99q216 0 351.5 138.5t135.5 377t-135.5 377t-351.5 138.5t-352 -138.5t-136 -377t136 -377t352 -138.5zM736 -26q-272 0 -453.5 171.5t-181.5 467t179.5 469t451.5 173.5t453.5 -171.5t181.5 -466.5t-179.5 -469t-451.5 -174zM732 1316q-110 0 -181 66t-71 178
l92 10q7 -69 50 -109t114 -40t116 40.5t47 108.5l88 -10q0 -112 -72.5 -178t-182.5 -66z" />
    <glyph glyph-name="obreve" unicode="&#x14f;" horiz-adv-x="1174" 
d="M585.5 99q155.5 0 253 104t97.5 278t-97.5 276.5t-253 102.5t-252.5 -102.5t-97 -276.5t97 -278t252.5 -104zM584 -24q-211 0 -351 134t-140 366.5t142.5 369.5t354 137t352 -133t140.5 -366t-143.5 -370.5t-354.5 -137.5zM586.5 1074q-109.5 0 -180.5 69t-71 188l95 11
l4 -3q4 -71 46.5 -114t109.5 -43t111 43t46 112l3 5l92 -11q0 -117 -73 -187t-182.5 -70z" />
    <glyph glyph-name="Ohungarumlaut" unicode="&#x150;" horiz-adv-x="1467" 
d="M734 99q216 0 351.5 138.5t135.5 377t-135.5 377t-351.5 138.5t-352 -138.5t-136 -377t136 -377t352 -138.5zM736 -26q-272 0 -453.5 171.5t-181.5 467t179.5 469t451.5 173.5t453.5 -171.5t181.5 -466.5t-179.5 -469t-451.5 -174zM907 1324l-78 35l132 276l115 -28
l4 -23zM572 1324l-79 33l131 278l117 -28l4 -23z" />
    <glyph glyph-name="ohungarumlaut" unicode="&#x151;" horiz-adv-x="1174" 
d="M585.5 99q155.5 0 253 104t97.5 278t-97.5 276.5t-253 102.5t-252.5 -102.5t-97 -276.5t97 -278t252.5 -104zM584 -24q-211 0 -351 134t-140 366.5t142.5 369.5t354 137t352 -133t140.5 -366t-143.5 -370.5t-354.5 -137.5zM745 1052l-71 37l160 294l106 -39l2 -20z
M436 1052l-71 37l160 294l108 -39l2 -20z" />
    <glyph glyph-name="OE" unicode="&#x152;" horiz-adv-x="1714" 
d="M938 581v-440q119 54 191 168t79 272h-270zM938 707h265q-19 138 -88 237t-177 147v-384zM246 617q0 -239 135 -378.5t349 -139.5q26 0 71 3v1028q-45 4 -71 4q-214 0 -349 -139t-135 -378zM1622 128v-128h-700q-93 -26 -192 -26q-266 0 -447.5 172t-181.5 468
t178.5 470.5t450.5 174.5q97 0 190 -26h677v-127h-443q166 -149 194 -399h214v-126h-208q-13 -287 -198 -453h466z" />
    <glyph glyph-name="oe" unicode="&#x153;" horiz-adv-x="1841" 
d="M572 97q147 0 238 104t91 280t-91 278.5t-237 102.5t-240.5 -105t-94.5 -279.5t93.5 -277.5t240.5 -103zM1349 869q-120 0 -201 -80t-100 -225h576q-9 145 -82 225t-193 80zM1344 983q192 0 301 -124t109 -345v-63h-711q9 -171 108.5 -261.5t253 -90.5t293.5 76l4 -2
v-117q-134 -80 -290 -80q-319 0 -438 242q-56 -115 -162 -178.5t-246 -63.5q-209 0 -341 135t-132 362t136 368.5t337 141.5q136 0 243 -61.5t165 -176.5q54 114 151.5 176t218.5 62z" />
    <glyph glyph-name="Racute" unicode="&#x154;" horiz-adv-x="1081" 
d="M324 596h166q140 0 229 68t89 193.5t-73.5 194.5t-206.5 69t-204 -8v-517zM324 484v-484h-138v1231q182 11 315 11q210 0 329.5 -92t119.5 -282q0 -141 -72 -232t-189 -128l320 -502l-2 -6h-151l-303 484h-229zM724 1463l-370 -158l-30 78l335 211l75 -110z" />
    <glyph glyph-name="racute" unicode="&#x155;" horiz-adv-x="707" 
d="M560 981q61 0 112 -18v-127l-5 -2q-41 19 -107 19q-220 0 -262 -259v-594h-142v961h116l15 -140q79 160 273 160zM613 1266l-326 -218l-51 73l285 266l97 -100z" />
    <glyph glyph-name="Rcommaaccent" unicode="&#x156;" horiz-adv-x="1081" 
d="M484 -171l-2 74l131 11l13 -16q0 -166 -80 -315h-95q34 112 33 246zM324 596h166q140 0 229 68t89 193.5t-73.5 194.5t-206.5 69t-204 -8v-517zM324 484v-484h-138v1231q182 11 315 11q210 0 329.5 -92t119.5 -282q0 -141 -72 -232t-189 -128l320 -502l-2 -6h-151
l-303 484h-229z" />
    <glyph glyph-name="rcommaaccent" unicode="&#x157;" horiz-adv-x="707" 
d="M160 -171l-2 74l131 11l13 -16q0 -166 -80 -315h-95q34 112 33 246zM560 981q61 0 112 -18v-127l-5 -2q-41 19 -107 19q-220 0 -262 -259v-594h-142v961h116l15 -140q79 160 273 160z" />
    <glyph glyph-name="Rcaron" unicode="&#x158;" horiz-adv-x="1081" 
d="M324 596h166q140 0 229 68t89 193.5t-73.5 194.5t-206.5 69t-204 -8v-517zM324 484v-484h-138v1231q182 11 315 11q210 0 329.5 -92t119.5 -282q0 -141 -72 -232t-189 -128l320 -502l-2 -6h-151l-303 484h-229zM560 1305h-63l-231 209l52 67l214 -155l202 155l52 -67z
" />
    <glyph glyph-name="rcaron" unicode="&#x159;" horiz-adv-x="707" 
d="M560 981q61 0 112 -18v-127l-5 -2q-41 19 -107 19q-220 0 -262 -259v-594h-142v961h116l15 -140q79 160 273 160zM449 1058h-65l-224 251l62 58l197 -177l186 177l62 -58z" />
    <glyph glyph-name="Sacute" unicode="&#x15a;" horiz-adv-x="947" 
d="M437 -26q-189 0 -335 86v141l6 4q143 -108 328 -108q123 0 196.5 56.5t73.5 154t-64.5 158.5t-208.5 127t-228 144t-84 201q0 156 111 241t282 85t300 -59v-133l-6 -1q-112 69 -289 72q-114 0 -185 -47.5t-71 -138t70.5 -142.5t169.5 -97.5t146 -74.5t97 -75
q98 -90 97.5 -247t-109 -252t-297.5 -95zM315 1314l-30 79l335 210l74 -110l-9 -20z" />
    <glyph glyph-name="sacute" unicode="&#x15b;" horiz-adv-x="888" 
d="M404 -24q-188 0 -316 72v136l5 2q134 -89 311 -89q264 0 264 152q0 73 -55.5 109.5t-206.5 76.5t-227.5 99.5t-76.5 179.5t106.5 194.5t273 74.5t274.5 -48v-125l-6 -2q-117 54 -246.5 54t-196.5 -38t-67 -102t56 -98t206.5 -72t227 -103t76.5 -194.5t-107 -204
t-295 -74.5zM320 1058l-50 72l285 266l97 -100l-6 -21z" />
    <glyph glyph-name="Scircumflex" unicode="&#x15c;" horiz-adv-x="947" 
d="M437 -26q-189 0 -335 86v141l6 4q143 -108 328 -108q123 0 196.5 56.5t73.5 154t-64.5 158.5t-208.5 127t-228 144t-84 201q0 156 111 241t282 85t300 -59v-133l-6 -1q-112 69 -289 72q-114 0 -185 -47.5t-71 -138t70.5 -142.5t169.5 -97.5t146 -74.5t97 -75
q98 -90 97.5 -247t-109 -252t-297.5 -95zM279 1314l-52 69l224 207h65l231 -207l-54 -69l-213 155z" />
    <glyph glyph-name="scircumflex" unicode="&#x15d;" horiz-adv-x="888" 
d="M404 -24q-188 0 -316 72v136l5 2q134 -89 311 -89q264 0 264 152q0 73 -55.5 109.5t-206.5 76.5t-227.5 99.5t-76.5 179.5t106.5 194.5t273 74.5t274.5 -48v-125l-6 -2q-117 54 -246.5 54t-196.5 -38t-67 -102t56 -98t206.5 -72t227 -103t76.5 -194.5t-107 -204
t-295 -74.5zM255 1065l-61 61l217 250h66l223 -250l-61 -61l-198 179z" />
    <glyph glyph-name="Scedilla" unicode="&#x15e;" horiz-adv-x="947" 
d="M514 -91q67 0 112.5 -36.5t45.5 -123t-64 -132t-145 -45.5t-133 18v84l3 2q39 -15 94 -15t87.5 23.5t32.5 67.5q0 76 -89 77q-47 0 -86 -15l-1 4v68l53 88q-186 4 -322 86v141l6 4q143 -108 328 -108q123 0 196.5 56.5t73.5 154t-64.5 158.5t-208.5 127t-228 144t-84 201
q0 156 111 241t282 85t300 -59v-133l-6 -1q-112 69 -289 72q-114 0 -185 -47.5t-71 -138t70.5 -142.5t169.5 -97.5t146 -74.5t97 -75q98 -90 97.5 -238.5t-88.5 -241t-236 -110.5l-44 -75q13 6 39 6z" />
    <glyph glyph-name="scedilla" unicode="&#x15f;" horiz-adv-x="888" 
d="M806 262.5q0 -121.5 -83.5 -195t-230.5 -87.5l-47 -77q15 6 39 6q67 0 112.5 -36.5t45.5 -122.5t-64 -132t-145 -46t-133 18v84l3 2q39 -15 95 -15t88 23.5t32 67.5q0 76 -90 77q-47 0 -85 -15l-2 4v68l54 90q-181 2 -307 72v136l5 2q134 -89 311 -89q264 0 264 152
q0 73 -55.5 109.5t-206.5 76.5t-227.5 99.5t-76.5 179.5t106 194q108 74 274 74.5t274 -47.5v-125l-6 -2q-116 54 -246 54t-197 -38t-67 -102t56 -98t206 -72t227 -103t77 -186.5z" />
    <glyph glyph-name="Scaron" unicode="&#x160;" horiz-adv-x="947" 
d="M437 -26q-189 0 -335 86v141l6 4q143 -108 328 -108q123 0 196.5 56.5t73.5 154t-64.5 158.5t-208.5 127t-228 144t-84 201q0 156 111 241t282 85t300 -59v-133l-6 -1q-112 69 -289 72q-114 0 -185 -47.5t-71 -138t70.5 -142.5t169.5 -97.5t146 -74.5t97 -75
q98 -90 97.5 -247t-109 -252t-297.5 -95zM458 1314l-231 209l52 67l214 -155l201 155l53 -67l-226 -209h-63z" />
    <glyph glyph-name="scaron" unicode="&#x161;" horiz-adv-x="888" 
d="M404 -24q-188 0 -316 72v136l5 2q134 -89 311 -89q264 0 264 152q0 73 -55.5 109.5t-206.5 76.5t-227.5 99.5t-76.5 179.5t106.5 194.5t273 74.5t274.5 -48v-125l-6 -2q-117 54 -246.5 54t-196.5 -38t-67 -102t56 -98t206.5 -72t227 -103t76.5 -194.5t-107 -204
t-295 -74.5zM417 1067l-223 251l61 58l197 -177l187 177l61 -58l-218 -251h-65z" />
    <glyph glyph-name="uni0162" unicode="&#x162;" horiz-adv-x="1031" 
d="M588 0h-20l-58 -97q15 6 39 6q67 0 112.5 -36.5t45.5 -122.5t-64 -132t-145 -46t-133 18v84l4 2q39 -15 94 -15t87.5 23.5t32.5 67.5q0 76 -90 77q-47 0 -85 -15l-2 4v68l69 114h-24v1106h-423v125h974v-125h-414v-1106z" />
    <glyph glyph-name="uni0163" unicode="&#x163;" horiz-adv-x="726" 
d="M538 -91q47 0 92.5 -36.5t45.5 -123t-64.5 -132t-145 -45.5t-133.5 18v84l4 2q39 -15 94 -15t87.5 23.5t32.5 67.5q0 76 -89 77q-47 0 -86 -15l-2 4v68l67 110q-214 32 -214 281v566h-184v118h184v236l136 26l6 -4v-258h338v-118h-338v-540q0 -188 173 -188q89 0 164 43
l5 -2v-119q-65 -39 -180 -46l-53 -88q13 6 60 6z" />
    <glyph glyph-name="Tcaron" unicode="&#x164;" horiz-adv-x="1031" 
d="M1002 1231v-125h-414v-1106h-137v1106h-423v125h974zM549 1305h-63l-231 209l52 67l214 -155l201 155l53 -67z" />
    <glyph glyph-name="tcaron" unicode="&#x165;" horiz-adv-x="696" 
d="M227 277v566h-184v118h184v236l136 26l6 -4v-258h338v-118h-338v-540q0 -188 173 -188q90 0 164 43l5 -2v-119q-78 -47 -209 -46.5t-203 73t-72 213.5zM655 1452l-52 -324h-74l15 341h96z" />
    <glyph glyph-name="Tbar" unicode="&#x166;" horiz-adv-x="1044" 
d="M1009 1106h-413v-471h179v-104h-179v-531h-138v531h-190v104h190v471h-423v125h974v-125z" />
    <glyph glyph-name="tbar" unicode="&#x167;" horiz-adv-x="726" 
d="M227 277v200h-169v102h169v264h-184v118h184v236l136 26l6 -4v-258h338v-118h-338v-264h195v-102h-195v-174q0 -188 173 -188q90 0 164 43l5 -2v-119q-78 -47 -209 -46.5t-203 73t-72 213.5z" />
    <glyph glyph-name="Utilde" unicode="&#x168;" horiz-adv-x="1327" 
d="M663.5 -26q-236.5 0 -365.5 129.5t-129 367.5v760h138v-741q0 -194 93 -294.5t265.5 -100.5t265.5 101.5t93 293.5v741h136v-760q0 -236 -130 -366.5t-366.5 -130.5zM528.5 1532q61.5 0 142.5 -34.5t115 -34.5t57 21.5t23 58.5l3 4l95 -30q-4 -78 -50 -125.5t-104 -47.5
t-141 35.5t-119.5 35.5t-59.5 -22.5t-23 -59.5l-3 -2l-95 26q4 76 51 125.5t108.5 49.5z" />
    <glyph glyph-name="utilde" unicode="&#x169;" horiz-adv-x="1117" 
d="M819 961h142v-961h-116l-15 130q-101 -153 -325 -152q-171 0 -265.5 97.5t-94.5 291.5v594h142v-570q0 -292 255 -292q93 0 169.5 50t107.5 145v667zM413.5 1318q63.5 0 151.5 -36t125 -36t59 20.5t22 57.5l5 3l92 -20q0 -82 -46.5 -129.5t-108 -48.5t-150 37.5
t-126 38.5t-59 -21.5t-21.5 -58.5l-3 -4l-93 20q0 74 44.5 125.5t108 51.5z" />
    <glyph glyph-name="Umacron" unicode="&#x16a;" horiz-adv-x="1327" 
d="M663.5 -26q-236.5 0 -365.5 129.5t-129 367.5v760h138v-741q0 -194 93 -294.5t265.5 -100.5t265.5 101.5t93 293.5v741h136v-760q0 -236 -130 -366.5t-366.5 -130.5zM402 1393v117h521v-117h-521z" />
    <glyph glyph-name="umacron" unicode="&#x16b;" horiz-adv-x="1117" 
d="M819 961h142v-961h-116l-15 130q-101 -153 -325 -152q-171 0 -265.5 97.5t-94.5 291.5v594h142v-570q0 -292 255 -292q93 0 169.5 50t107.5 145v667zM827 1262v-106h-535v106h535z" />
    <glyph glyph-name="Ubreve" unicode="&#x16c;" horiz-adv-x="1327" 
d="M663.5 -26q-236.5 0 -365.5 129.5t-129 367.5v760h138v-741q0 -194 93 -294.5t265.5 -100.5t265.5 101.5t93 293.5v741h136v-760q0 -236 -130 -366.5t-366.5 -130.5zM663 1316q-110 0 -181 66t-71 178l92 10q7 -69 50 -109t114 -40t116.5 40.5t46.5 108.5l88 -10
q0 -112 -72.5 -178t-182.5 -66z" />
    <glyph glyph-name="ubreve" unicode="&#x16d;" horiz-adv-x="1117" 
d="M819 961h142v-961h-116l-15 130q-101 -153 -325 -152q-171 0 -265.5 97.5t-94.5 291.5v594h142v-570q0 -292 255 -292q93 0 169.5 50t107.5 145v667zM558.5 1074q-109.5 0 -180.5 69t-71 188l95 11l4 -3q4 -71 46.5 -114t109.5 -43t111 43t46 112l3 5l92 -11
q0 -117 -73 -187t-182.5 -70z" />
    <glyph glyph-name="Uring" unicode="&#x16e;" horiz-adv-x="1327" 
d="M663.5 -26q-236.5 0 -365.5 129.5t-129 367.5v760h138v-741q0 -194 93 -294.5t265.5 -100.5t265.5 101.5t93 293.5v741h136v-760q0 -236 -130 -366.5t-366.5 -130.5zM664.5 1346q37.5 0 61.5 25t24 60.5t-24 60.5t-61.5 25t-61.5 -25t-24 -60.5t24 -60.5t61.5 -25z
M664 1270q-75 0 -123 45.5t-48 116t47.5 116.5t123 46t123 -46t47.5 -116.5t-47.5 -116t-122.5 -45.5z" />
    <glyph glyph-name="uring" unicode="&#x16f;" horiz-adv-x="1117" 
d="M819 961h142v-961h-116l-15 130q-101 -153 -325 -152q-171 0 -265.5 97.5t-94.5 291.5v594h142v-570q0 -292 255 -292q93 0 169.5 50t107.5 145v667zM561 1311q-40 0 -67 -27t-27 -66t27 -66t67 -27t67 27t27 66t-27 66t-67 27zM561 1046q-77 0 -126.5 49.5t-49.5 122
t49.5 121t126.5 48.5t125.5 -47.5t48.5 -122t-48.5 -123t-125.5 -48.5z" />
    <glyph glyph-name="Uhungarumlaut" unicode="&#x170;" horiz-adv-x="1327" 
d="M663.5 -26q-236.5 0 -365.5 129.5t-129 367.5v760h138v-741q0 -194 93 -294.5t265.5 -100.5t265.5 101.5t93 293.5v741h136v-760q0 -236 -130 -366.5t-366.5 -130.5zM838 1324l-78 35l132 276l115 -28l4 -23zM503 1324l-79 33l131 278l117 -28l4 -23z" />
    <glyph glyph-name="uhungarumlaut" unicode="&#x171;" horiz-adv-x="1117" 
d="M819 961h142v-961h-116l-15 130q-101 -153 -325 -152q-171 0 -265.5 97.5t-94.5 291.5v594h142v-570q0 -292 255 -292q93 0 169.5 50t107.5 145v667zM914 1324l-197 -272l-71 37l160 294l106 -39zM607 1324l-199 -272l-71 37l160 294l108 -39z" />
    <glyph glyph-name="Uogonek" unicode="&#x172;" horiz-adv-x="1327" 
d="M1024 1231h136v-760q0 -186 -82 -308t-235 -165q-155 -112 -154 -229q0 -35 23 -59.5t65 -24.5t63 8l7 -4v-91q-37 -13 -113 -13t-128.5 39t-52.5 112q0 130 143 238h-31q-238 0 -367 129.5t-129 367.5v760h138v-741q0 -194 93 -294q94 -100 266 -100.5t265 101t93 293.5
v741z" />
    <glyph glyph-name="uogonek" unicode="&#x173;" horiz-adv-x="1117" 
d="M819 961h142v-961h-2q-168 -114 -168 -236q0 -35 23.5 -59.5t65.5 -24.5t62 7l8 -4v-91q-37 -13 -113 -13t-129 39t-53 112q0 151 190 270l-15 130q-101 -153 -325 -152q-171 0 -265.5 97.5t-94.5 291.5v594h142v-570q0 -292 255 -292q93 0 169.5 50t107.5 145v667z" />
    <glyph glyph-name="Wcircumflex" unicode="&#x174;" horiz-adv-x="1794" 
d="M1756 1231l2 -6l-408 -1247h-103l-335 981l-11 45l-13 -45l-335 -981h-104l-417 1247l2 6h147l311 -987l14 -69l17 69l328 981h100l332 -970l17 -71l14 71l308 976h134zM890 1462l-201 -155l-52 69l223 207h65l231 -207l-54 -69z" />
    <glyph glyph-name="wcircumflex" unicode="&#x175;" horiz-adv-x="1493" 
d="M1448 961l2 -6l-320 -955h-104l-265 750l-11 39l-9 -39l-272 -750h-106l-322 955l2 6h141l231 -741l8 -41l9 41l262 741h116l259 -739l9 -41l7 42l235 738h128zM745 1244l-186 -179l-62 61l218 250h65l224 -250l-62 -61z" />
    <glyph glyph-name="Ycircumflex" unicode="&#x176;" horiz-adv-x="1096" 
d="M480 0v514l-452 711l2 6h147l376 -589l372 589h140l2 -6l-449 -713v-512h-138zM341 1305l-52 69l223 207h65l231 -207l-54 -69l-212 155z" />
    <glyph glyph-name="ycircumflex" unicode="&#x177;" horiz-adv-x="981" 
d="M203 -315q-37 0 -108 12v119l6 2q41 -11 78 -12q101 0 156 49t108 180l-408 920l2 6h151l324 -767l294 767h142l2 -6l-388 -951q-69 -177 -143.5 -248t-215.5 -71zM499 1234l-186 -178l-62 61l218 250h65l224 -250l-62 -61z" />
    <glyph glyph-name="Ydieresis" unicode="&#x178;" horiz-adv-x="1096" 
d="M480 0v514l-452 711l2 6h147l376 -589l372 589h140l2 -6l-449 -713v-512h-138zM741 1361q-35 0 -59.5 24t-24.5 59.5t24.5 60t59.5 24.5t59.5 -24.5t24.5 -60t-24.5 -59.5t-59.5 -24zM363 1361q-35 0 -59.5 24t-24.5 59.5t24.5 60t59.5 24.5t59.5 -24.5t24.5 -60
t-24.5 -59.5t-59.5 -24z" />
    <glyph glyph-name="Zacute" unicode="&#x179;" horiz-adv-x="1083" 
d="M67 0v48l748 1067h-742v116h936v-49l-756 -1067h765v-115h-951zM367 1305l-30 78l335 211l75 -110l-10 -21z" />
    <glyph glyph-name="zacute" unicode="&#x17a;" horiz-adv-x="951" 
d="M886 121v-121h-815v63l607 777h-604v121h797v-67l-608 -773h623zM674 1266l-326 -218l-50 73l285 266l97 -100z" />
    <glyph glyph-name="Zdotaccent" unicode="&#x17b;" horiz-adv-x="1083" 
d="M67 0v48l748 1067h-742v116h936v-49l-756 -1067h765v-115h-951zM538 1363q-37 0 -63 26t-26 63t27 64t63 27t63 -26t27 -64t-27 -64t-64 -26z" />
    <glyph glyph-name="zdotaccent" unicode="&#x17c;" horiz-adv-x="951" 
d="M886 121v-121h-815v63l607 777h-604v121h797v-67l-608 -773h623zM473 1143q-39 0 -68 29t-29 69t29 68t68 28t68 -28t29 -68t-29 -69t-68 -29z" />
    <glyph glyph-name="Zcaron" unicode="&#x17d;" horiz-adv-x="1083" 
d="M67 0v48l748 1067h-742v116h936v-49l-756 -1067h765v-115h-951zM510 1305l-231 209l52 67l215 -155l201 155l52 -67l-226 -209h-63z" />
    <glyph glyph-name="zcaron" unicode="&#x17e;" horiz-adv-x="951" 
d="M886 121v-121h-815v63l607 777h-604v121h797v-67l-608 -773h623zM510 1058h-65l-223 251l61 58l197 -177l187 177l61 -58z" />
    <glyph glyph-name="uni018F" unicode="&#x18f;" horiz-adv-x="1439" 
d="M716.5 99q178.5 0 287 110.5t128.5 319.5h-825q7 -201 119 -315.5t290.5 -114.5zM705 1255q256 0 416 -163t160 -463.5t-157.5 -476.5t-408.5 -176t-402 160t-151 430q0 60 2 84h972q-7 229 -120 353.5t-323.5 124.5t-422.5 -141l-6 5v118q185 145 441 145z" />
    <glyph glyph-name="uni019D" unicode="&#x19d;" horiz-adv-x="1375" 
d="M1056 1231h134v-1237h-56l-810 956h-4v-883q0 -426 -361 -426q-50 0 -95 7v116l2 1q34 -6 76 -5q244 0 244 298v1176h58l806 -951h6v948z" />
    <glyph glyph-name="Gcaron" unicode="&#x1e6;" horiz-adv-x="1297" 
d="M1184 594v-506q-194 -106 -473 -106t-444.5 168t-165.5 458t182 466.5t484 176.5q205 0 365 -69l-2 -136l-5 -2q-158 80 -378 80t-360.5 -141t-140.5 -372t127.5 -367t365.5 -136q186 0 319 67v300h-326v119h452zM754 1305h-63l-231 209l52 67l214 -155l201 155l52 -67z
" />
    <glyph glyph-name="gcaron" unicode="&#x1e7;" horiz-adv-x="1038" 
d="M842 -56q0 83 -86 113q-69 24 -209 36q-138 17 -175 22q-162 -73 -162 -180q0 -143 316 -143.5t316 152.5zM741 654q0 94 -67 146.5t-174 52.5t-173 -53t-66 -145.5t66 -143.5t174 -52t174 50t66 145zM976 961v-106h-213q112 -80 112 -210.5t-106 -211.5t-270 -81
q-97 0 -171 28q-34 -26 -34 -67t54 -60.5t244 -36.5t285 -72t95 -183q0 -279 -462 -279q-192 0 -311 55.5t-119 186t173 223.5q-89 41 -89 126.5t80 149.5q-119 84 -119 227.5t105 227t271 83.5h475zM529 1067h-65l-224 251l62 58l197 -177l186 177l62 -58z" />
    <glyph glyph-name="uni01EA" unicode="&#x1ea;" horiz-adv-x="1467" 
d="M246 614.5q0 -238.5 136 -377t352 -138.5t351.5 138.5t135.5 377t-135.5 377t-351.5 138.5t-352 -138.5t-136 -377zM730 -242q0 -35 23 -59.5t65 -24.5t63 8l7 -4v-91q-37 -13 -112.5 -13t-128.5 39t-53 111q0 138 158 250h-18q-270 0 -451.5 171.5t-181.5 467t179.5 469
t451.5 173.5t453.5 -171.5t181.5 -469.5q0 -248 -130.5 -411.5t-344.5 -211.5q-162 -112 -162 -233z" />
    <glyph glyph-name="uni01EB" unicode="&#x1eb;" horiz-adv-x="1174" 
d="M236 481q0 -174 97 -278t252.5 -104t253 104t97.5 278t-97.5 276.5t-253 102.5t-252.5 -102.5t-97 -276.5zM674.5 -315q41.5 0 62.5 8l8 -4v-91q-37 -13 -113 -13t-128.5 39t-52.5 112q0 134 145 240h-11q-212 0 -352 134t-140 366.5t142.5 369.5t354 137t352 -133
t140.5 -370q0 -182 -93 -308.5t-246 -173.5q-156 -110 -157 -229q0 -35 23.5 -59.5t65 -24.5z" />
    <glyph glyph-name="Aringacute" unicode="&#x1fa;" horiz-adv-x="1178" 
d="M343 436h486l-229 528l-19 54l-19 -54zM1018 0l-141 326h-579l-136 -326h-138l533 1249h56l551 -1249h-146zM583 1517q-37 0 -61.5 -25t-24.5 -60.5t24.5 -60.5t61.5 -25t61 25t24 60.5t-24 60.5t-61 25zM582 1270q-75 0 -123 45.5t-48 116t47.5 116.5t122.5 46t125 -47
l281 175l74 -110l-9 -20l-302 -129q2 -11 2 -31q0 -71 -47.5 -116.5t-122.5 -45.5z" />
    <glyph glyph-name="aringacute" unicode="&#x1fb;" horiz-adv-x="1050" 
d="M410 95q210 0 318 177v132q-97 41 -229 41t-207.5 -45.5t-75.5 -132t56 -129.5t138 -43zM728 577q0 287 -310 287q-154 0 -250 -65l-4 2v113q101 69 296 69t300.5 -102.5t105.5 -297.5v-363q0 -101 76 -101q41 0 65 22l6 -1v-121q-48 -30 -117 -30q-153 0 -159 158
q-130 -169 -353 -169q-134 0 -222 73.5t-88 214t113 215t274 74.5t267 -41v63zM479 1311q-40 0 -67 -27t-27 -66t27 -66t67 -27t67 27t27 66t-27 66t-67 27zM479 1046q-77 0 -126.5 49.5t-49.5 122t49.5 121t113.5 48.5t104 -22l242 227l97 -101l-6 -20l-266 -177
q17 -34 16 -76q0 -74 -48.5 -123t-125.5 -49z" />
    <glyph glyph-name="AEacute" unicode="&#x1fc;" horiz-adv-x="1524" 
d="M763 477v599l-87 -158l-276 -441h363zM903 117h529v-117h-669v376h-426l-235 -376h-143l767 1231h682v-116h-505v-419h469v-115h-469v-464zM1125 1471l-371 -158l-30 78l335 210l75 -110z" />
    <glyph glyph-name="aeacute" unicode="&#x1fd;" horiz-adv-x="1673" 
d="M413 97q96 0 187 51t143 142q-20 74 -26 159q-379 0 -469 -94q-38 -40 -38 -108t53.5 -109t149.5 -41zM1157.5 869q-121.5 0 -202 -82.5t-99.5 -229.5h578q-9 151 -82 231.5t-194.5 80.5zM713 577q1 287 -303 287q-152 0 -252 -65l-5 3v112q91 69 296 69q264 0 352 -195
q60 91 151 143t199 52q195 0 307 -124t113 -345v-65h-716q9 -166 107.5 -257t256 -91t293.5 83l5 -3v-123q-140 -82 -324 -82q-128 0 -235 53t-169 159q-155 -210 -413 -210q-138 0 -220.5 69.5t-82.5 200.5q0 184 188 249q163 56 452 60v20zM1026 1266l-326 -218l-50 73
l285 266l96 -100z" />
    <glyph glyph-name="Oslashacute" unicode="&#x1fe;" horiz-adv-x="1467" 
d="M1221 600q0 224 -109 361l-676 -771q123 -91 298 -91q216 0 351.5 138.5t135.5 362.5zM246 629.5q0 -222.5 108 -359.5l674 771q-125 89 -294 89q-216 0 -352 -139t-136 -361.5zM1367 1262v-11l-164 -186q164 -177 164 -460t-180 -457t-453 -174q-223 0 -386 117
l-108 -123h-139v15l160 183q-160 175 -160 458.5t179.5 457t453.5 173.5q220 0 383 -114l106 121h144zM936 1463l-370 -158l-30 78l335 211l75 -110z" />
    <glyph glyph-name="oslashacute" unicode="&#x1ff;" horiz-adv-x="1178" 
d="M586 99q156 0 254 104t98 266t-72 261l-481 -570q84 -61 201 -61zM238 495q0 -160 71 -260l479 569q-88 56 -202 56q-155 0 -251.5 -102.5t-96.5 -262.5zM586 -24q-166 0 -286 82l-75 -88h-124v15l119 142q-125 134 -125 358t142.5 361t348.5 137q164 0 287 -78l69 84
h132v-12l-119 -139q128 -138 128.5 -362.5t-143 -362t-354.5 -137.5zM791 1266l-326 -218l-50 73l285 266l97 -100z" />
    <glyph glyph-name="Scommaaccent" unicode="&#x218;" horiz-adv-x="947" 
d="M408 -171l-2 74l130 11l13 -16q0 -166 -80 -315h-95q34 112 34 246zM437 -26q-189 0 -335 86v141l6 4q143 -108 328 -108q123 0 196.5 56.5t73.5 154t-64.5 158.5t-208.5 127t-228 144t-84 201q0 156 111 241t282 85t300 -59v-133l-6 -1q-112 69 -289 72
q-114 0 -185 -47.5t-71 -138t70.5 -142.5t169.5 -97.5t146 -74.5t97 -75q98 -90 97.5 -247t-109 -252t-297.5 -95z" />
    <glyph glyph-name="scommaaccent" unicode="&#x219;" horiz-adv-x="888" 
d="M378 -171l-2 74l130 11l13 -16q0 -166 -80 -315h-95q34 112 34 246zM404 -24q-188 0 -316 72v136l5 2q134 -89 311 -89q264 0 264 152q0 73 -55.5 109.5t-206.5 76.5t-227.5 99.5t-76.5 179.5t106.5 194.5t273 74.5t274.5 -48v-125l-6 -2q-117 54 -246.5 54t-196.5 -38
t-67 -102t56 -98t206.5 -72t227 -103t76.5 -194.5t-107 -204t-295 -74.5z" />
    <glyph glyph-name="uni021A" unicode="&#x21a;" horiz-adv-x="1031" 
d="M443 -171l-2 74l131 11l13 -16q0 -166 -80 -315h-95q34 112 33 246zM1002 1231v-125h-414v-1106h-137v1106h-423v125h974z" />
    <glyph glyph-name="uni021B" unicode="&#x21b;" horiz-adv-x="726" 
d="M411 -171l-1 74l130 11l13 -16q0 -166 -80 -315h-95q34 112 33 246zM227 277v566h-184v118h184v236l136 26l6 -4v-258h338v-118h-338v-540q0 -188 173 -188q90 0 164 43l5 -2v-119q-78 -47 -209 -46.5t-203 73t-72 213.5z" />
    <glyph glyph-name="uni0232" unicode="&#x232;" horiz-adv-x="1096" 
d="M480 0v514l-452 711l2 6h147l376 -589l372 589h140l2 -6l-449 -713v-512h-138zM287 1393v117h521v-117h-521z" />
    <glyph glyph-name="uni0233" unicode="&#x233;" horiz-adv-x="981" 
d="M203 -315q-37 0 -108 12v119l6 2q41 -11 78 -12q101 0 156 49t108 180l-408 920l2 6h151l324 -767l294 767h142l2 -6l-388 -951q-69 -177 -143.5 -248t-215.5 -71zM769 1262v-106h-534v106h534z" />
    <glyph glyph-name="uni0237" unicode="&#x237;" horiz-adv-x="485" 
d="M19 -315q-35 0 -92 10v121l6 2q28 -6 60 -6q197 0 197 240v909h140v-939q0 -337 -311 -337z" />
    <glyph glyph-name="uni0259" unicode="&#x259;" horiz-adv-x="1059" 
d="M505 97q120 0 206 75t106 221h-594q13 -141 87 -219t195 -77zM500 985q202 -1 333 -129t131 -368t-129 -376q-129 -134 -327 -134t-310 119q-111 119 -112 346q0 43 2 65h735q-7 168 -97 260t-216 92q-125 0 -204 -27t-159 -92l-6 2v126q157 116 359 116z" />
    <glyph glyph-name="uni0272" unicode="&#x272;" horiz-adv-x="1143" 
d="M620 983q168 0 274 -107t106 -317v-559h-140v523q0 168 -77 246t-188 78t-187 -54t-110 -147v-693q0 -322 -294 -322q-15 0 -60 4v116l4 1q11 -2 26 -1q95 0 139 52t43 173v985h116l17 -146q108 168 331 168z" />
    <glyph glyph-name="circumflex" unicode="&#x2c6;" horiz-adv-x="619" 
d="M119 1056l-61 61l218 250h65l223 -250l-61 -61l-198 178z" />
    <glyph glyph-name="caron" unicode="&#x2c7;" horiz-adv-x="619" 
d="M289 979l-226 261l47 48l203 -193l201 193l46 -48l-225 -261h-46z" />
    <glyph glyph-name="breve" unicode="&#x2d8;" horiz-adv-x="590" 
d="M294 1074q-110 0 -180.5 69t-70.5 188l95 11l3 -3q4 -71 47 -114t110 -43t110.5 43t45.5 112l4 5l91 -11q0 -117 -72.5 -187t-182.5 -70z" />
    <glyph glyph-name="dotaccent" unicode="&#x2d9;" horiz-adv-x="508" 
d="M253 1143q-39 0 -68 29t-29 69t29 68t68 28t68 -28t29 -68t-29 -69t-68 -29z" />
    <glyph glyph-name="ring" unicode="&#x2da;" horiz-adv-x="610" 
d="M265 1125q40 0 67 27t27 66t-27 66t-67 27t-67 -27t-27 -66t27 -66t67 -27zM265 1046q-77 0 -126.5 49.5t-49.5 122t49.5 121t126.5 48.5t125.5 -47.5t48.5 -122t-48.5 -123t-125.5 -48.5z" />
    <glyph glyph-name="ogonek" unicode="&#x2db;" horiz-adv-x="351" 
d="M208 -415q-76 0 -129 39t-53 112q0 160 205 279l100 -8q-169 -114 -169 -238q0 -35 23 -59t65 -24t63 7l7 -4v-91q-36 -13 -112 -13z" />
    <glyph glyph-name="tilde" unicode="&#x2dc;" horiz-adv-x="649" 
d="M176 1318q62 0 151.5 -36t126 -36t58.5 20.5t22 57.5l6 3l91 -20q0 -82 -46.5 -129.5t-108 -48.5t-150 37.5t-126 38.5t-58.5 -21.5t-21 -58.5l-4 -4l-93 20q0 74 45 125.5t107 51.5z" />
    <glyph glyph-name="hungarumlaut" unicode="&#x2dd;" horiz-adv-x="659" 
d="M421 1052l-71 37l160 294l106 -39l2 -20zM112 1052l-71 37l160 294l108 -39l2 -20z" />
    <glyph glyph-name="gravecomb" unicode="&#x300;" 
d="M-80 1048l-328 218l-3 21l96 100l285 -266z" />
    <glyph glyph-name="acutecomb" unicode="&#x301;" 
d="M-361 1048l-50 73l284 266l97 -100l-5 -21z" />
    <glyph glyph-name="uni0302" unicode="&#x302;" 
d="M-501 1056l-61 61l218 250h65l223 -250l-61 -61l-198 178z" />
    <glyph glyph-name="tildecomb" unicode="&#x303;" 
d="M-473.5 1318q62.5 0 150.5 -36t125.5 -36t60 20.5t22.5 57.5l5 3l91 -20q0 -82 -46.5 -129.5t-107.5 -48.5t-149.5 37.5t-126 38.5t-59 -21.5t-21.5 -58.5l-3 -4l-94 20q0 74 45 125.5t107.5 51.5z" />
    <glyph glyph-name="uni0304" unicode="&#x304;" 
d="M-577 1156v106h534v-106h-534z" />
    <glyph glyph-name="uni0306" unicode="&#x306;" 
d="M-296 1074q-110 0 -180.5 69t-70.5 188l95 11l3 -3q4 -71 47 -114t110 -43t110.5 43t45.5 112l4 5l91 -11q0 -117 -72.5 -187t-182.5 -70z" />
    <glyph glyph-name="uni0307" unicode="&#x307;" 
d="M-255 1143q-39 0 -68 29t-29 69t29 68t68 28t68 -28t29 -68t-29 -69t-68 -29z" />
    <glyph glyph-name="uni0308" unicode="&#x308;" 
d="M-103 1147q-38 0 -65 27t-27 65t27 65t65 27t66 -28t28 -65t-28 -64t-66 -27zM-461 1147q-38 0 -65 27t-27 65t27 65t65 27t66 -27t28 -65t-28 -65t-66 -27z" />
    <glyph glyph-name="uni030A" unicode="&#x30a;" 
d="M-263 1125q40 0 67 27t27 66t-27 66t-67 27t-67 -27t-27 -66t27 -66t67 -27zM-263 1046q-77 0 -126.5 49.5t-49.5 122t49 121t126.5 48.5t126 -47.5t48.5 -122t-48.5 -123t-125.5 -48.5z" />
    <glyph glyph-name="uni030B" unicode="&#x30b;" 
d="M-238 1052l-71 37l160 294l106 -39l2 -20zM-547 1052l-71 37l160 294l108 -39l2 -20z" />
    <glyph glyph-name="uni030C" unicode="&#x30c;" 
d="M-339 1058l-223 251l61 58l198 -177l186 177l61 -58l-218 -251h-65z" />
    <glyph glyph-name="uni0312" unicode="&#x312;" 
d="M-82 1143l2 -74l-130 -11l-13 16q0 166 80 315h95q-34 -112 -34 -246z" />
    <glyph glyph-name="dotbelowcomb" unicode="&#x323;" 
d="M-255 -341q-39 0 -68 29t-29 69t29 68t68 28t68 -28t29 -68t-29 -69t-68 -29z" />
    <glyph glyph-name="uni0326" unicode="&#x326;" 
d="M-222 -171l-1 74l130 11l13 -16q0 -166 -80 -315h-95q34 112 33 246z" />
    <glyph glyph-name="uni0327" unicode="&#x327;" 
d="M-222 -428q-81 0 -134 18v84l4 2q39 -15 94 -15t87.5 23.5t32.5 67.5q0 76 -89 77q-47 0 -86 -15l-2 4v68l69 114h93l-57 -97q13 6 39 6q67 0 112.5 -36.5t45.5 -123t-64 -132t-145 -45.5z" />
    <glyph glyph-name="uni0328" unicode="&#x328;" 
d="M-159.5 -415q-75.5 0 -128.5 39t-53 112q0 160 205 279l101 -8q-169 -114 -170 -238q0 -35 23.5 -59.5t65 -24.5t62.5 8l7 -4v-91q-37 -13 -112.5 -13z" />
    <glyph glyph-name="uni0335" unicode="&#x335;" 
d="M-559 354v102h507v-102h-507z" />
    <glyph glyph-name="uni0336" unicode="&#x336;" 
d="M-1059 607v108h1012v-108h-1012z" />
    <glyph glyph-name="uni0337" unicode="&#x337;" 
d="M-462 475v121l419 262h6v-119l-417 -264h-8z" />
    <glyph glyph-name="uni0338" unicode="&#x338;" 
d="M-1050 -24v15l841 1001h131v-11l-849 -1005h-123z" />
    <glyph glyph-name="Wgrave" unicode="&#x1e80;" horiz-adv-x="1794" 
d="M1756 1231l2 -6l-408 -1247h-103l-335 981l-11 45l-13 -45l-335 -981h-104l-417 1247l2 6h147l311 -987l14 -69l17 69l328 981h100l332 -970l17 -71l14 71l308 976h134zM1056 1307l-373 158l-9 21l74 110l336 -209z" />
    <glyph glyph-name="wgrave" unicode="&#x1e81;" horiz-adv-x="1493" 
d="M1448 961l2 -6l-320 -955h-104l-265 750l-11 39l-9 -39l-272 -750h-106l-322 955l2 6h141l231 -741l8 -41l9 41l262 741h116l259 -739l9 -41l7 42l235 738h128zM864 1058l-328 217l-4 21l97 100l285 -266z" />
    <glyph glyph-name="Wacute" unicode="&#x1e82;" horiz-adv-x="1794" 
d="M1756 1231l2 -6l-408 -1247h-103l-335 981l-11 45l-13 -45l-335 -981h-104l-417 1247l2 6h147l311 -987l14 -69l17 69l328 981h100l332 -970l17 -71l14 71l308 976h134zM1095 1465l-371 -158l-30 78l336 211l74 -110z" />
    <glyph glyph-name="wacute" unicode="&#x1e83;" horiz-adv-x="1493" 
d="M1448 961l2 -6l-320 -955h-104l-265 750l-11 39l-9 -39l-272 -750h-106l-322 955l2 6h141l231 -741l8 -41l9 41l262 741h116l259 -739l9 -41l7 42l235 738h128zM950 1275l-326 -217l-51 72l285 266l97 -100z" />
    <glyph glyph-name="Wdieresis" unicode="&#x1e84;" horiz-adv-x="1794" 
d="M1756 1231l2 -6l-408 -1247h-103l-335 981l-11 45l-13 -45l-335 -981h-104l-417 1247l2 6h147l311 -987l14 -69l17 69l328 981h100l332 -970l17 -71l14 71l308 976h134zM1089.5 1363q-35.5 0 -60 24t-24.5 59.5t24.5 59.5t60 24t59.5 -24t24 -59.5t-24 -59.5t-59.5 -24z
M711.5 1363q-35.5 0 -60 24t-24.5 59.5t24.5 59.5t60 24t59.5 -24t24 -59.5t-24 -59.5t-59.5 -24z" />
    <glyph glyph-name="wdieresis" unicode="&#x1e85;" horiz-adv-x="1493" 
d="M1448 961l2 -6l-320 -955h-104l-265 750l-11 39l-9 -39l-272 -750h-106l-322 955l2 6h141l231 -741l8 -41l9 41l262 741h116l259 -739l9 -41l7 42l235 738h128zM934 1156q-38 0 -65 27t-27 65t27 65.5t65 27.5t66 -28t28 -65.5t-28 -64.5t-66 -27zM576 1156q-38 0 -65 27
t-27 65t27 65.5t65 27.5t66 -27t28 -65.5t-28 -65.5t-66 -27z" />
    <glyph glyph-name="uni1E9E" unicode="&#x1e9e;" horiz-adv-x="1357" 
d="M886 -28q-181 0 -313 67v125l4 4q134 -78 275.5 -78.5t212.5 70.5t71 183q0 197 -207 242q-82 20 -225 15v42l281 462q-89 26 -208.5 26t-195 -21.5t-140.5 -70.5q-138 -104 -138 -362v-676h-137v685q0 132 36 234.5t93 164.5q157 172 498 173q219 0 363 -75v-41
l-272 -428q168 -6 279.5 -90.5t111.5 -265t-104 -283t-285 -102.5z" />
    <glyph glyph-name="uni1EA0" unicode="&#x1ea0;" horiz-adv-x="1178" 
d="M588 -147q39 0 68 -28t29 -68t-29 -69t-68 -29t-67.5 29t-28.5 69t28.5 68t67.5 28zM343 436h486l-229 528l-19 54l-19 -54zM1164 0h-146l-141 326h-579l-136 -326h-138l533 1249h56z" />
    <glyph glyph-name="uni1EA1" unicode="&#x1ea1;" horiz-adv-x="1050" 
d="M517.5 -147q39.5 0 68 -28t28.5 -68t-28.5 -69t-68 -29t-68 29t-28.5 69t28.5 68t68 28zM410 95q210 0 318 177v132q-97 41 -229 41t-207.5 -45.5t-75.5 -132t56 -129.5t138 -43zM728 577q0 287 -310 287q-154 0 -250 -65l-4 2v113q101 69 296 69t300.5 -102.5
t105.5 -297.5v-363q0 -101 76 -101q41 0 65 22l6 -1v-121q-48 -30 -117 -30q-153 0 -159 158q-130 -169 -353 -169q-134 0 -222 73.5t-88 214t113 215t274 74.5t267 -41v63z" />
    <glyph glyph-name="uni1EB8" unicode="&#x1eb8;" horiz-adv-x="1024" 
d="M592 -147q39 0 68 -28t29 -68t-29 -69t-68 -29t-68 29t-29 69t29 68t68 28zM326 128h607v-128h-747v1231h723v-129h-583v-404h547v-128h-547v-442z" />
    <glyph glyph-name="uni1EB9" unicode="&#x1eb9;" horiz-adv-x="1063" 
d="M603 -147q39 0 68 -28t29 -68t-29 -69t-68 -29t-68 29t-29 69t29 68t68 28zM555 864q-123 0 -207.5 -78.5t-105.5 -217.5h598q-13 140 -87.5 218t-197.5 78zM554 983q198 0 310 -123t113 -342q0 -43 -1 -66h-740q9 -169 116.5 -261t265 -92t300.5 76l5 -2v-117
q-136 -80 -336.5 -80t-347 128.5t-146.5 364.5t131.5 375t329.5 139z" />
    <glyph glyph-name="uni1EBC" unicode="&#x1ebc;" horiz-adv-x="1024" 
d="M326 128h607v-128h-747v1231h723v-129h-583v-404h547v-128h-547v-442zM435.5 1532q61.5 0 142.5 -34.5t114.5 -34.5t57 21.5t23.5 58.5l3 4l95 -30q-4 -78 -50 -125.5t-104 -47.5t-141 35.5t-119.5 35.5t-59.5 -22.5t-23 -59.5l-3 -2l-95 26q4 76 51 125.5t108.5 49.5z
" />
    <glyph glyph-name="uni1EBD" unicode="&#x1ebd;" horiz-adv-x="1063" 
d="M555 864q-123 0 -207.5 -78.5t-105.5 -217.5h598q-13 140 -87.5 218t-197.5 78zM554 983q198 0 310 -123t113 -342q0 -43 -1 -66h-740q9 -169 116.5 -261t265 -92t300.5 76l5 -2v-117q-136 -80 -336.5 -80t-347 128.5t-146.5 364.5t131.5 375t329.5 139zM399.5 1318
q62.5 0 151.5 -36t126 -36t59 20.5t22 57.5l5 3l92 -20q0 -82 -47 -129.5t-108 -48.5t-149.5 37.5t-126 38.5t-59 -21.5t-21.5 -58.5l-3 -4l-93 20q0 74 44.5 125.5t107 51.5z" />
    <glyph glyph-name="uni1ECA" unicode="&#x1eca;" horiz-adv-x="510" 
d="M257 -341q-39 0 -68 29t-29 69t29 68t68 28t68 -28t29 -68t-29 -69t-68 -29zM186 0v1231h140v-1231h-140z" />
    <glyph glyph-name="uni1ECB" unicode="&#x1ecb;" horiz-adv-x="454" 
d="M227 -341q-39 0 -68 29t-29 69t29 68t68 28t68 -28t29 -68t-29 -69t-68 -29zM156 0v961h142v-961h-142zM227 1143q-39 0 -68 29t-29 69t29 68t68 28t68 -28t29 -68t-29 -69t-68 -29z" />
    <glyph glyph-name="uni1ECC" unicode="&#x1ecc;" horiz-adv-x="1467" 
d="M733.5 -341q-39.5 0 -68 29t-28.5 69t28.5 68t68 28t68 -28t28.5 -68t-28.5 -69t-68 -29zM734 99q216 0 351.5 138.5t135.5 377t-135.5 377t-351.5 138.5t-352 -138.5t-136 -377t136 -377t352 -138.5zM736 -26q-272 0 -453.5 171.5t-181.5 467t179.5 469t451.5 173.5
t453.5 -171.5t181.5 -466.5t-179.5 -469t-451.5 -174z" />
    <glyph glyph-name="uni1ECD" unicode="&#x1ecd;" horiz-adv-x="1174" 
d="M588 -341q-39 0 -67.5 29t-28.5 69t28.5 68t67.5 28t68 -28t29 -68t-29 -69t-68 -29zM585.5 99q155.5 0 253 104t97.5 278t-97.5 276.5t-253 102.5t-252.5 -102.5t-97 -276.5t97 -278t252.5 -104zM584 -24q-211 0 -351 134t-140 366.5t142.5 369.5t354 137t352 -133
t140.5 -366t-143.5 -370.5t-354.5 -137.5z" />
    <glyph glyph-name="uni1EE4" unicode="&#x1ee4;" horiz-adv-x="1327" 
d="M665 -341q-39 0 -68 29t-29 69t29 68t68 28t67.5 -28t28.5 -68t-28.5 -69t-67.5 -29zM663.5 -26q-236.5 0 -365.5 129.5t-129 367.5v760h138v-741q0 -194 93 -294.5t265.5 -100.5t265.5 101.5t93 293.5v741h136v-760q0 -236 -130 -366.5t-366.5 -130.5z" />
    <glyph glyph-name="uni1EE5" unicode="&#x1ee5;" horiz-adv-x="1117" 
d="M560.5 -147q39.5 0 68 -28t28.5 -68t-28.5 -69t-68 -29t-68 29t-28.5 69t28.5 68t68 28zM819 961h142v-961h-116l-15 130q-101 -153 -325 -152q-171 0 -265.5 97.5t-94.5 291.5v594h142v-570q0 -292 255 -292q93 0 169.5 50t107.5 145v667z" />
    <glyph glyph-name="Ygrave" unicode="&#x1ef2;" horiz-adv-x="1096" 
d="M480 0v514l-452 711l2 6h147l376 -589l372 589h140l2 -6l-449 -713v-512h-138zM707 1305l-372 158l-9 21l74 110l335 -209z" />
    <glyph glyph-name="ygrave" unicode="&#x1ef3;" horiz-adv-x="981" 
d="M203 -315q-37 0 -108 12v119l6 2q41 -11 78 -12q101 0 156 49t108 180l-408 920l2 6h151l324 -767l294 767h142l2 -6l-388 -951q-69 -177 -143.5 -248t-215.5 -71zM618 1048l-328 218l-3 21l97 100l284 -266z" />
    <glyph glyph-name="uni1EF8" unicode="&#x1ef8;" horiz-adv-x="1096" 
d="M480 0v514l-452 711l2 6h147l376 -589l372 589h140l2 -6l-449 -713v-512h-138zM413.5 1532q61.5 0 142.5 -34.5t114.5 -34.5t56.5 21.5t23 58.5l4 4l95 -30q-4 -78 -50.5 -125.5t-104 -47.5t-140.5 35.5t-119.5 35.5t-59.5 -22.5t-23 -59.5l-4 -2l-95 26q4 76 51.5 125.5
t109 49.5z" />
    <glyph glyph-name="uni1EF9" unicode="&#x1ef9;" horiz-adv-x="981" 
d="M203 -315q-37 0 -108 12v119l6 2q41 -11 78 -12q101 0 156.5 49.5t107.5 179.5l-408 920l2 6h151l324 -767l294 767h142l2 -6l-388 -951q-69 -177 -143.5 -248t-215.5 -71zM354.5 1318q62.5 0 152 -36t126 -36t58.5 20.5t22 57.5l6 3l91 -20q0 -82 -46.5 -129.5
t-108 -48.5t-150 37.5t-126 38.5t-58.5 -21.5t-21 -58.5l-4 -4l-93 20q0 74 44.5 125.5t107 51.5z" />
    <glyph glyph-name="endash" unicode="&#x2013;" horiz-adv-x="962" 
d="M136 462v115h689v-115h-689z" />
    <glyph glyph-name="emdash" unicode="&#x2014;" horiz-adv-x="1599" 
d="M136 462v115h1329v-115h-1329z" />
    <glyph glyph-name="quoteleft" unicode="&#x2018;" horiz-adv-x="377" 
d="M290 1290q-35 -236 -20 -385l-127 -22l-18 22q2 171 78 385h87z" />
    <glyph glyph-name="quoteright" unicode="&#x2019;" horiz-adv-x="353" 
d="M95 884q35 236 20 386l127 22l19 -22q-2 -171 -79 -386h-87z" />
    <glyph glyph-name="quotesinglbase" unicode="&#x201a;" horiz-adv-x="366" 
d="M74 -270q35 240 21 385l127 23l18 -23q-2 -171 -78 -385h-88z" />
    <glyph glyph-name="quotedblleft" unicode="&#x201c;" horiz-adv-x="642" 
d="M553 1290q-34 -230 -21 -385l-126 -22l-19 22q2 171 78 385h88zM290 1290q-35 -236 -20 -385l-127 -22l-18 22q2 171 78 385h87z" />
    <glyph glyph-name="quotedblright" unicode="&#x201d;" horiz-adv-x="634" 
d="M357 884q36 240 21 386l127 22l18 -22q-2 -171 -78 -386h-88zM95 884q35 236 20 386l127 22l19 -22q-2 -171 -79 -386h-87z" />
    <glyph glyph-name="quotedblbase" unicode="&#x201e;" horiz-adv-x="625" 
d="M337 -270q35 236 20 385l127 23l19 -23q-2 -171 -79 -385h-87zM74 -270q35 240 21 385l127 23l18 -23q-2 -171 -78 -385h-88z" />
    <glyph glyph-name="dagger" unicode="&#x2020;" horiz-adv-x="960" 
d="M525 944l322 20v-130l-303 17l-17 -957h-95l-19 957l-301 -17v130l320 -20l-19 337h133z" />
    <glyph glyph-name="daggerdbl" unicode="&#x2021;" horiz-adv-x="960" 
d="M413 -102l19 329l-320 -18v132l305 -19l17 268l-19 266l-301 -16v132l318 -21l-19 330h133l-21 -328l322 19v-132l-303 16l-15 -266l15 -266l303 17v-132l-320 20l19 -331h-133z" />
    <glyph glyph-name="bullet" unicode="&#x2022;" horiz-adv-x="700" 
d="M350 322q-76 0 -130 54t-54 130t54 130t130 55q76 0 130 -54q54 -55 54 -131t-54 -130t-130 -54z" />
    <glyph glyph-name="ellipsis" unicode="&#x2026;" horiz-adv-x="1055" 
d="M877 -9q-45 0 -70 26t-25 65t26 66t70 27t70 -27t26 -66t-26 -65t-71 -26zM540 -9q-45 0 -70 26t-25 65t26 66t70 27t70 -27t26 -66t-26 -65t-71 -26zM201 -9q-45 0 -70 26t-25 65t26 66t70 27t70 -27t26 -66t-26 -65t-71 -26z" />
    <glyph glyph-name="perthousand" unicode="&#x2030;" horiz-adv-x="2021" 
d="M1662 89q83 -1 132 51t49 148t-49 150t-132 55q-84 0 -132 -54q-48 -55 -48 -151t48 -148t132 -51zM1015 89q84 -1 132 51t48 149t-48 151t-132 53q-84 0 -132 -54q-49 -55 -49 -151t48 -148t133 -51zM1661 -9q-134 0 -216 77q-82 76 -82 220t83 224t217 80t215 -80
t81 -223t-82 -221t-216 -77zM1313 289q0 -143 -82 -221t-215 -77q-133 0 -216 77q-83 78 -83 220t83 223t216 81t215 -80t82 -223zM194 935q0 -97 48 -149t131 -52t133 53t50 149t-50 149q-50 54 -133 54t-131 -54t-48 -150zM216 20l830 1194h123l-832 -1194h-121zM674 935
q0 -143 -83 -221t-217 -77q-134 0 -216 77q-82 76 -82 220t82 224t216 80t217 -80t83 -223z" />
    <glyph glyph-name="guilsinglleft" unicode="&#x2039;" horiz-adv-x="623" 
d="M521 853v-15l-296 -320l296 -332v-11h-145l-309 341l311 337h143z" />
    <glyph glyph-name="guilsinglright" unicode="&#x203a;" horiz-adv-x="623" 
d="M104 171v15l296 320l-296 332v11h145l310 -341l-311 -337h-144z" />
    <glyph glyph-name="fraction" unicode="&#x2044;" horiz-adv-x="210" 
d="M-335 -22l800 1253h116l-801 -1253h-115z" />
    <glyph glyph-name="uni20A8" unicode="&#x20a8;" horiz-adv-x="817" 
d="M739 0h-166l-456 490v113h90q127 0 211.5 52t102.5 153h-435l29 121h404q-37 181 -288 181h-145l29 121h678l-30 -121h-219q99 -63 117 -181h147l-30 -121h-119q-20 -141 -126.5 -221.5t-242.5 -94.5l449 -485v-7z" />
    <glyph glyph-name="Euro" unicode="&#x20ac;" horiz-adv-x="1290" 
d="M862 -6q-222 0 -382 118t-214 322h-199l17 104h164q-4 52 -4 92t5 89h-132l19 104h136q58 199 217 315t355 115q196 0 329 -48l-24 -120l-6 -1q-113 46 -277 46t-283 -81t-168 -226h501l-19 -104h-506q-6 -45 -6 -91t6 -90h471l-17 -104h-434q47 -151 166 -235
q119 -83 283 -83t309 65l6 -4l-24 -123q-128 -60 -289 -60z" />
    <glyph glyph-name="uni20BD" unicode="&#x20bd;" horiz-adv-x="1027" 
d="M348 622h155q330 0 329 257q0 112 -74.5 179.5t-208.5 68t-201 -3.5v-501zM518 503h-170v-166h250v-119h-250v-218h-138v218h-165v119h165v166h-165v119h165v614q160 11 311 11q223 0 336 -94.5t115 -272.5t-118 -277.5t-336 -99.5z" />
    <glyph glyph-name="trademark" unicode="&#x2122;" horiz-adv-x="1509" 
d="M1318 1219l58 -577h-104l-41 384h-2l-181 -382h-61l-183 389h-2l-41 -391h-106l62 577h106l199 -420l192 420h104zM73 1113v106h525v-106h-205v-471h-110v471h-210z" />
    <glyph glyph-name="oneeighth" unicode="&#x215b;" horiz-adv-x="1305" 
d="M974 67q72 0 114 30q40 29 40 77t-40 80t-131 64l-32 12q-114 -50 -113 -144q0 -58 45 -88t117 -31zM972 614q-60 0 -94 -26t-34 -67t38 -70q39 -29 125 -54q102 50 103 117q0 44 -38 72q-40 28 -100 28zM972 -15q-122 0 -195 49q-72 49 -71 139q0 121 141 190
q-115 61 -115 151t68 138t171 48t173 -45t70 -137t-125 -157q80 -37 114 -79t33 -101q0 -88 -71 -142t-193 -54zM892 1231h115l-800 -1253h-116zM205 559v536l-160 -64v121l260 99h15v-692h-115z" />
    <glyph glyph-name="threeeighths" unicode="&#x215c;" horiz-adv-x="1498" 
d="M1005 186q0 -58 45 -88q46 -30 118 -31q72 0 113 30q41 29 41 77t-40 80t-131 64l-32 12q-114 -50 -114 -144zM1303 514q-1 44 -39 72t-98 28t-95 -26q-34 -26 -34 -67t39 -70t125 -54q102 50 102 117zM1430 181q0 -88 -71 -142t-194 -54t-195 49t-71 139q0 121 142 190
q-115 61 -115 151t67 138t171 48t174 -45t70 -137t-125 -157q79 -37 113 -79t34 -101zM1085 1231h116l-801 -1253h-115zM559 760q0 -99 -74 -158q-75 -58 -201 -58t-211 52v93l1 2q78 -56 205 -56q76 0 125 33q48 34 48 92t-39 88q-39 29 -102 29h-106v80h95q54 0 88 27
t35 74q0 104 -151 104q-112 0 -177 -45h-2v95q82 43 193 43t179 -44q67 -44 67 -137t-94 -149q121 -44 121 -165z" />
    <glyph glyph-name="fiveeighths" unicode="&#x215d;" horiz-adv-x="1506" 
d="M1176 67q72 0 112 30q40 29 41 77q0 48 -40 80t-131 64l-32 12q-114 -50 -113 -144q0 -58 45 -88q46 -30 118 -31zM1174 614q-60 0 -95 -26t-35 -67t37 -68t127 -56q102 50 103 117q-1 44 -39 72t-98 28zM1173 -15q-123 0 -195 49t-71 139q0 121 141 190
q-115 61 -115 151t68 138t171 48t173 -45t70 -137t-125 -157q80 -37 114 -79t33 -101q-1 -88 -71 -142t-193 -54zM1093 1231h115l-800 -1253h-116zM560 764q0 -107 -79 -164q-79 -56 -195 -56t-217 39v98h2q97 -47 190 -47q182 1 182 139q0 53 -42 87t-132 34t-185 -23l-2 4
l26 367h419v-93h-330l-15 -183q61 13 127 13q119 0 185 -54t66 -161z" />
    <glyph glyph-name="seveneighths" unicode="&#x215e;" horiz-adv-x="1411" 
d="M1080 67q72 0 114 30q40 29 40 77t-40 80t-131 64l-32 12q-114 -50 -113 -144q0 -58 45 -88t117 -31zM1078 614q-60 0 -94 -26t-34 -67t36 -68t127 -56q102 50 103 117q0 44 -38 72q-40 28 -100 28zM1078 -15q-123 0 -195 49t-71 139q0 121 141 190q-115 61 -115 151
t68 138t171 48t173 -45t70 -137t-125 -157q80 -37 114 -79t33 -101q0 -88 -70 -142t-194 -54zM998 1231h115l-800 -1253h-116zM48 1134v106h505v-56l-283 -625h-114l-3 1l271 574h-376z" />
    <glyph glyph-name="arrowleft" unicode="&#x2190;" horiz-adv-x="1094" 
d="M1065 532h-801l285 -281l-89 -89l-432 434l432 435l89 -89l-279 -281h793z" />
    <glyph glyph-name="arrowup" unicode="&#x2191;" horiz-adv-x="1094" 
d="M482 41v895l-279 -277l-89 89l435 431l432 -432l-89 -90l-278 281l-1 -897h-131z" />
    <glyph glyph-name="arrowright" unicode="&#x2192;" horiz-adv-x="1094" 
d="M635 1031l432 -435l-432 -434l-89 89l284 281h-800l2 129h793l-279 281z" />
    <glyph glyph-name="arrowdown" unicode="&#x2193;" horiz-adv-x="1094" 
d="M482 1179h131l1 -898l278 281l89 -89l-432 -432l-435 430l89 89l279 -277v896z" />
    <glyph glyph-name="uni2196" unicode="&#x2196;" horiz-adv-x="1094" 
d="M730 931h-395l695 -695l-92 -91l-698 693l2 -395h-127l2 611l613 4v-127z" />
    <glyph glyph-name="uni2197" unicode="&#x2197;" horiz-adv-x="1094" 
d="M372 923v127l613 -4l2 -610h-127l2 394l-698 -692l-91 91l694 694h-395z" />
    <glyph glyph-name="uni2198" unicode="&#x2198;" horiz-adv-x="1094" 
d="M372 272h395l-694 694l91 92l698 -693l-2 395h127l-2 -611l-613 -4v127z" />
    <glyph glyph-name="uni2199" unicode="&#x2199;" horiz-adv-x="1094" 
d="M730 270v-127l-613 4l-2 611h127l-2 -395l698 693l92 -92l-695 -694h395z" />
    <glyph glyph-name="minus" unicode="&#x2212;" horiz-adv-x="1018" 
d="M140 490v111h739v-111h-739z" />
    <glyph glyph-name="approxequal" unicode="&#x2248;" horiz-adv-x="962" 
d="M313 454q77 0 178 -38t153 -38q88 0 90 82l5 4l88 -15q-1 -81 -49 -131t-120 -50t-174 37t-154 38q-91 0 -95 -82l-2 -4l-95 11q0 84 49 135t126 51zM313 808q77 0 178 -37t153 -37q88 0 90 81l5 4l88 -17q-1 -82 -49 -130t-120 -48t-174 37t-154 37q-91 0 -95 -84l-2 -1
l-95 13q0 82 49 132t126 50z" />
    <glyph glyph-name="notequal" unicode="&#x2260;" horiz-adv-x="1040" 
d="M901 681h-227l-136 -288h363v-108h-413l-117 -248h-129l117 248h-219v108h270l136 288h-406v108h458l109 235h129l-110 -235h175v-108z" />
    <glyph glyph-name="uniF8FF" unicode="&#xf8ff;" horiz-adv-x="2701" 
d="M2035 28h13q7 0 7 6t-7 5h-13v-11zM2026 4v43h20q19 0 19 -13t-13 -14l11 -16h-11l-8 16h-9v-16h-9zM2044 -9q34 -1 34 33t-34 34t-33 -34q-1 -33 33 -33zM2044 -19q-45 0 -44 43q0 43 44 43t45 -43q0 -43 -45 -43zM1316 203q0 43 -39 43t-39 -58q0 -26 9 -54q29 0 49 22
t20 47zM1746 203h75q6 50 -32 50q-43 0 -43 -50zM1806 -9q-263 0 -263 227q0 110 61 172q62 62 168 62t163 -56t57 -160q0 -39 -5 -65h-231q20 -33 88 -33t107 22v-140q-43 -29 -145 -29zM1039 -82q0 264 19 525h145q13 -78 13 -141q32 151 149 150q69 0 109 -54t40 -156
q0 -251 -255 -251q2 -28 1 -73h-221zM1009 190q-1 -156 -63 -219q-62 -64 -198 -64t-186 32v154q44 -30 124 -30t101 33q7 10 6 19q-30 -20 -91 -20q-168 0 -168 154v25h-102l6 -121q11 -7 31 -7t30 9v-136q-35 -28 -123 -28q-88 -1 -122 31t-32 103q0 71 5 149h-33v149
l217 54l-1 -34h329v-221q0 -30 6 -40t22 -11q30 0 30 51v221h193q19 -97 19 -253zM2247 694q0 -52 41 -52t41 52t-43 53q-39 -1 -39 -53zM640 694q0 -52 43 -52t43 52t-45 53q-41 -1 -41 -53zM2290 957q225 0 225 -232t-228 -232t-228 232t231 232zM1553 503q0 326 18 445
h149q11 -82 11 -142q5 28 13 56t44 62t103 33q67 0 98 -47t35 -150l5 -257h-212l4 173q0 54 -28 54q-34 0 -34 -54l6 -173h-212zM689 957q231 0 231 -218v-236h-155l-15 113q-22 -123 -139 -123q-171 0 -172 213q0 251 250 251zM938 776v147l222 56l2 -31h331
q19 -119 19 -445h-220q0 171 6 273h-114l6 -121q8 -7 30 -7t31 9v-138q-25 -27 -126 -27q-153 0 -153 122l7 162h-41zM186 503q0 249 17 584h186q19 -372 19 -584h-222zM1400 972q-48 0 -81 34t-33 80q0 47 33 81t81 34t82 -34t34 -82q0 -49 -34 -81t-82 -32z" />
    <glyph glyph-name="Jacute" horiz-adv-x="662" 
d="M121 -6q-43 0 -95 6v119l6 2q32 -6 74 -6q246 0 246 293v823h140v-812q0 -425 -371 -425zM248 1305l-30 78l335 211l74 -110l-9 -21z" />
    <glyph glyph-name="G.002" horiz-adv-x="1297" 
d="M732 -19q-300 0 -465.5 168.5t-165.5 458.5t182 466.5t484 176.5q205 0 365 -69l-2 -136l-5 -2q-160 80 -379 80t-359.5 -141t-140.5 -372t127.5 -367t365.5 -136q186 0 319 67v391h126v-478q-193 -107 -452 -107z" />
    <glyph glyph-name="M.002" horiz-adv-x="1589" 
d="M1339 1231l123 -1231h-133l-87 918h-4l-417 -909h-46l-421 907h-4l-91 -916h-131l125 1231h88l463 -983l451 983h84z" />
    <glyph glyph-name="i.loclTRK" horiz-adv-x="454" 
d="M156 0v961h142v-961h-142zM227 1143q-39 0 -68 29t-29 69t29 68t68 28t68 -28t29 -68t-29 -69t-68 -29z" />
    <glyph glyph-name="jacute" horiz-adv-x="485" 
d="M19 -315q-35 0 -92 10v121l6 2q28 -6 60 -6q197 0 197 240v909h140v-939q0 -337 -311 -337zM134 1048l-50 73l285 266l96 -100l-5 -21z" />
    <glyph glyph-name="germandbls.calt" horiz-adv-x="1357" 
d="M887 -28q-180 0 -314 67v125l6 2q134 -76 274.5 -76.5t211.5 69.5t71 182q0 199 -207 244q-82 20 -225 15v42l281 471q-89 26 -209 26q-118 0 -194 -22q-76 -21 -141 -73q-138 -109 -138 -368v-676h-137v685q0 164 53 283q53 118 143 180q172 118 408.5 118t385.5 -74
v-41l-272 -438q168 -6 279.5 -90.5t111.5 -265t-104 -283t-284 -102.5z" />
    <glyph glyph-name="a.ss01" horiz-adv-x="1172" 
d="M553 102q97 0 172.5 46.5t116.5 128.5v498q-102 86 -254.5 85.5t-250 -108.5t-97.5 -287t86.5 -271t226.5 -92zM981 216q-1 -100 75 -100q38 0 67 22l5 -2v-119q-48 -30 -115 -30q-149 0 -158 147q-115 -156 -339 -156q-188 0 -304.5 126.5t-116.5 358.5t137 376t356 144
q160 0 270 -86l10 64h113v-745z" />
    <glyph glyph-name="aacute.ss01" horiz-adv-x="1172" 
d="M553 102q97 0 172.5 46.5t116.5 128.5v498q-102 86 -254.5 85.5t-250 -108.5t-97.5 -287t86.5 -271t226.5 -92zM981 216q-1 -100 75 -100q38 0 67 22l5 -2v-119q-48 -30 -115 -30q-149 0 -158 147q-115 -156 -339 -156q-188 0 -304.5 126.5t-116.5 358.5t137 376t356 144
q160 0 270 -86l10 64h113v-745zM780 1266l-326 -218l-50 73l285 266l97 -100z" />
    <glyph glyph-name="abreve.ss01" horiz-adv-x="1172" 
d="M553 102q97 0 172.5 46.5t116.5 128.5v498q-102 86 -254.5 85.5t-250 -108.5t-97.5 -287t86.5 -271t226.5 -92zM981 216q-1 -100 75 -100q38 0 67 22l5 -2v-119q-48 -30 -115 -30q-149 0 -158 147q-115 -156 -339 -156q-188 0 -304.5 126.5t-116.5 358.5t137 376t356 144
q160 0 270 -86l10 64h113v-745zM577 1074q-110 0 -180.5 69t-70.5 188l95 11l3 -3q4 -71 47 -114t110 -43t110.5 43t45.5 112l4 5l91 -11q0 -117 -72.5 -187t-182.5 -70z" />
    <glyph glyph-name="acircumflex.ss01" horiz-adv-x="1172" 
d="M553 102q97 0 172.5 46.5t116.5 128.5v498q-102 86 -254.5 85.5t-250 -108.5t-97.5 -287t86.5 -271t226.5 -92zM981 216q-1 -100 75 -100q38 0 67 22l5 -2v-119q-48 -30 -115 -30q-149 0 -158 147q-115 -156 -339 -156q-188 0 -304.5 126.5t-116.5 358.5t137 376t356 144
q160 0 270 -86l10 64h113v-745zM575 1234l-186 -178l-61 61l218 250h65l223 -250l-61 -61z" />
    <glyph glyph-name="adieresis.ss01" horiz-adv-x="1172" 
d="M553 102q97 0 172.5 46.5t116.5 128.5v498q-102 86 -254.5 85.5t-250 -108.5t-97.5 -287t86.5 -271t226.5 -92zM981 216q-1 -100 75 -100q38 0 67 22l5 -2v-119q-48 -30 -115 -30q-149 0 -158 147q-115 -156 -339 -156q-188 0 -304.5 126.5t-116.5 358.5t137 376t356 144
q160 0 270 -86l10 64h113v-745zM764 1147q-38 0 -65 27t-27 65t27 65t65 27t66 -28t28 -65t-28 -64t-66 -27zM407 1147q-38 0 -65 27t-27 65t27 65t65 27t66 -27t28 -65t-28 -65t-66 -27z" />
    <glyph glyph-name="uni1EA1.ss01" horiz-adv-x="1172" 
d="M579 -147q39 0 68 -28t29 -68t-29 -69t-68 -29t-68 29t-29 69t29 68t68 28zM553 102q97 0 172.5 46.5t116.5 128.5v498q-102 86 -254.5 85.5t-250 -108.5t-97.5 -287t86.5 -271t226.5 -92zM981 216q-1 -100 75 -100q38 0 67 22l5 -2v-119q-48 -30 -115 -30
q-149 0 -158 147q-115 -156 -339 -156q-188 0 -304.5 126.5t-116.5 358.5t137 376t356 144q160 0 270 -86l10 64h113v-745z" />
    <glyph glyph-name="agrave.ss01" horiz-adv-x="1172" 
d="M553 102q97 0 172.5 46.5t116.5 128.5v498q-102 86 -254.5 85.5t-250 -108.5t-97.5 -287t86.5 -271t226.5 -92zM981 216q-1 -100 75 -100q38 0 67 22l5 -2v-119q-48 -30 -115 -30q-149 0 -158 147q-115 -156 -339 -156q-188 0 -304.5 126.5t-116.5 358.5t137 376t356 144
q160 0 270 -86l10 64h113v-745zM694 1048l-327 218l-4 21l97 100l285 -266z" />
    <glyph glyph-name="amacron.ss01" horiz-adv-x="1172" 
d="M553 102q97 0 172.5 46.5t116.5 128.5v498q-102 86 -254.5 85.5t-250 -108.5t-97.5 -287t86.5 -271t226.5 -92zM981 216q-1 -100 75 -100q38 0 67 22l5 -2v-119q-48 -30 -115 -30q-149 0 -158 147q-115 -156 -339 -156q-188 0 -304.5 126.5t-116.5 358.5t137 376t356 144
q160 0 270 -86l10 64h113v-745zM845 1262v-106h-534v106h534z" />
    <glyph glyph-name="aogonek.ss01" horiz-adv-x="1172" 
d="M553 102q97 0 172.5 46.5t116.5 128.5v498q-102 86 -254.5 85.5t-250 -108.5t-97.5 -287t86.5 -271t226.5 -92zM981 216q-1 -101 75 -101q38 0 67 23l5 -2v-119q-7 -6 -26 -13q-164 -114 -164 -235q0 -35 23.5 -59.5t65 -24.5t62.5 8l8 -4v-91q-37 -13 -113 -13t-129 39
t-53 112q0 141 166 255q-104 20 -113 143q-115 -156 -339 -156q-188 0 -304.5 126.5t-116.5 358.5t137 376t356 144q160 0 270 -86l10 64h113v-745z" />
    <glyph glyph-name="aring.ss01" horiz-adv-x="1172" 
d="M553 102q97 0 172.5 46.5t116.5 128.5v498q-102 86 -254.5 85.5t-250 -108.5t-97.5 -287t86.5 -271t226.5 -92zM981 216q-1 -100 75 -100q38 0 67 22l5 -2v-119q-48 -30 -115 -30q-149 0 -158 147q-115 -156 -339 -156q-188 0 -304.5 126.5t-116.5 358.5t137 376t356 144
q160 0 270 -86l10 64h113v-745zM580 1311q-40 0 -67 -27t-27 -66t27 -66t67 -27t67 27t27 66t-27 66t-67 27zM580 1046q-77 0 -126.5 49.5t-49.5 122t49.5 121t126.5 48.5t125.5 -47.5t48.5 -122t-48.5 -123t-125.5 -48.5z" />
    <glyph glyph-name="aringacute.ss01" horiz-adv-x="1172" 
d="M553 102q97 0 172.5 46.5t116.5 128.5v498q-102 86 -254.5 85.5t-250 -108.5t-97.5 -287t86.5 -271t226.5 -92zM981 216q-1 -100 75 -100q38 0 67 22l5 -2v-119q-48 -30 -115 -30q-149 0 -158 147q-115 -156 -339 -156q-188 0 -304.5 126.5t-116.5 358.5t137 376t356 144
q160 0 270 -86l10 64h113v-745zM580 1311q-40 0 -67 -27t-27 -66t27 -66t67 -27t67 27t27 66t-27 66t-67 27zM580 1046q-77 0 -126.5 49.5t-49.5 122t49.5 121t113.5 48.5t103 -22l242 227l97 -101l-5 -20l-267 -177q17 -34 17 -92t-48.5 -107t-125.5 -49z" />
    <glyph glyph-name="atilde.ss01" horiz-adv-x="1172" 
d="M553 102q97 0 172.5 46.5t116.5 128.5v498q-102 86 -254.5 85.5t-250 -108.5t-97.5 -287t86.5 -271t226.5 -92zM981 216q-1 -100 75 -100q38 0 67 22l5 -2v-119q-48 -30 -115 -30q-149 0 -158 147q-115 -156 -339 -156q-188 0 -304.5 126.5t-116.5 358.5t137 376t356 144
q160 0 270 -86l10 64h113v-745zM432.5 1318q63.5 0 150.5 -36t124.5 -36t59.5 20.5t22 57.5l6 3l91 -20q0 -82 -46.5 -129.5t-108 -48.5t-150 37.5t-126 38.5t-58.5 -21.5t-21 -58.5l-4 -4l-93 20q0 74 45 125.5t108.5 51.5z" />
    <glyph glyph-name="d.ss01" horiz-adv-x="1182" 
d="M553 102q95 0 171.5 46.5t118.5 127.5v500q-104 84 -255 84t-249.5 -107t-98.5 -285t88.5 -272t224.5 -94zM95 462.5q0 229.5 137 375t347 145.5q160 0 264 -73v412h142v-1106q0 -56 17.5 -78.5t55 -22.5t67.5 28l5 -2l-2 -121q-45 -34 -115 -33q-149 0 -158 145
q-110 -155 -334 -154q-186 0 -306 127.5t-120 357z" />
    <glyph glyph-name="dcaron.ss01" horiz-adv-x="1217" 
d="M553 102q95 0 171.5 46.5t118.5 127.5v500q-104 84 -255 84t-249.5 -107t-98.5 -285t88.5 -272t224.5 -94zM1057.5 115q37.5 0 68.5 28l4 -2l-2 -121q-45 -34 -115 -33q-149 0 -158 145q-110 -155 -334 -154q-186 0 -306 127.5t-120 357t137 375t347 145.5q160 0 264 -73
v412h142v-1106q0 -56 17.5 -78.5t55 -22.5zM1242 1329l15 -16l-51 -378h-91l17 394h110z" />
    <glyph glyph-name="dcroat.ss01" horiz-adv-x="1182" 
d="M588 860q-151 0 -249.5 -107t-98.5 -285t88.5 -272t224.5 -94q95 0 171 47t119 127v500q-104 84 -255 84zM985 1084v-868q0 -56 17.5 -78.5t55 -22.5t67.5 28l5 -2l-2 -121q-45 -34 -115 -33q-149 0 -158 145q-110 -155 -334 -154q-186 0 -306 127.5t-120 357t137 375
t347 145.5q160 0 264 -73v174h-201v102h201v136h142v-136h164v-102h-164z" />
    <glyph glyph-name="g.ss01" horiz-adv-x="1137" 
d="M587 860q-154 0 -251.5 -96.5t-97.5 -263.5t87.5 -258t223.5 -91q198 0 293 175v450q-101 84 -255 84zM983 970v-868q0 -203 -126.5 -310t-340.5 -107t-356 80v140l6 2q140 -97 329 -97q346 0 347 291v68q-115 -141 -313.5 -141t-316 121t-117.5 343.5t139.5 356.5
t332.5 134t299 -91l18 78h99z" />
    <glyph glyph-name="gbreve.ss01" horiz-adv-x="1137" 
d="M587 860q-154 0 -251.5 -96.5t-97.5 -263.5t87.5 -258t223.5 -91q198 0 293 175v450q-101 84 -255 84zM983 970v-868q0 -203 -126.5 -310t-340.5 -107t-356 80v140l6 2q140 -97 329 -97q346 0 347 291v68q-115 -141 -313.5 -141t-316 121t-117.5 343.5t139.5 356.5
t332.5 134t299 -91l18 78h99zM568 1074q-110 0 -180.5 69t-70.5 188l94 11l4 -3q4 -71 47 -114t110 -43t110.5 43t45.5 112l4 5l91 -11q0 -117 -72.5 -187t-182.5 -70z" />
    <glyph glyph-name="gcaron.ss01" horiz-adv-x="1137" 
d="M587 860q-154 0 -251.5 -96.5t-97.5 -263.5t87.5 -258t223.5 -91q198 0 293 175v450q-101 84 -255 84zM983 970v-868q0 -203 -126.5 -310t-340.5 -107t-356 80v140l6 2q140 -97 329 -97q346 0 347 291v68q-115 -141 -313.5 -141t-316 121t-117.5 343.5t139.5 356.5
t332.5 134t299 -91l18 78h99zM607 1058h-65l-224 251l62 58l197 -177l186 177l62 -58z" />
    <glyph glyph-name="gcircumflex.ss01" horiz-adv-x="1137" 
d="M587 860q-154 0 -251.5 -96.5t-97.5 -263.5t87.5 -258t223.5 -91q198 0 293 175v450q-101 84 -255 84zM983 970v-868q0 -203 -126.5 -310t-340.5 -107t-356 80v140l6 2q140 -97 329 -97q346 0 347 291v68q-115 -141 -313.5 -141t-316 121t-117.5 343.5t139.5 356.5
t332.5 134t299 -91l18 78h99zM566 1234l-186 -178l-62 61l218 250h65l224 -250l-62 -61z" />
    <glyph glyph-name="gcommaaccent.ss01" horiz-adv-x="1137" 
d="M587 860q-154 0 -251.5 -96.5t-97.5 -263.5t87.5 -258t223.5 -91q198 0 293 175v450q-101 84 -255 84zM983 970v-868q0 -203 -126.5 -310t-340.5 -107t-356 80v140l6 2q140 -97 329 -97q346 0 347 291v68q-115 -141 -313.5 -141t-316 121t-117.5 343.5t139.5 356.5
t332.5 134t299 -91l18 78h99zM650 1132l2 -74l-131 -12l-13 17q0 166 80 315h95q-34 -112 -33 -246z" />
    <glyph glyph-name="gdotaccent.ss01" horiz-adv-x="1137" 
d="M587 860q-154 0 -251.5 -96.5t-97.5 -263.5t87.5 -258t223.5 -91q198 0 293 175v450q-101 84 -255 84zM983 970v-868q0 -203 -126.5 -310t-340.5 -107t-356 80v140l6 2q140 -97 329 -97q346 0 347 291v68q-115 -141 -313.5 -141t-316 121t-117.5 343.5t139.5 356.5
t332.5 134t299 -91l18 78h99zM570 1143q-39 0 -68 29t-29 69t29 68t68 28t68 -28t29 -68t-29 -69t-68 -29z" />
    <glyph glyph-name="l.ss01" horiz-adv-x="504" 
d="M290 242q0 -132 96 -132q46 0 81 22l6 -2v-123q-52 -24 -106 -24q-214 0 -214 216v1123h137v-1080z" />
    <glyph glyph-name="lacute.ss01" horiz-adv-x="504" 
d="M290 242q0 -132 96 -132q46 0 81 22l6 -2v-123q-52 -24 -106 -24q-214 0 -214 216v1123h137v-1080zM48 1385l-29 78l335 211l74 -110l-9 -21z" />
    <glyph glyph-name="lcaron.ss01" horiz-adv-x="521" 
d="M290 242q0 -132 98 -132q46 0 81 22l4 -2v-123q-52 -24 -106 -24q-214 0 -214 216v1123h137v-1080zM402 935l15 394h112l15 -16l-51 -378h-91z" />
    <glyph glyph-name="lcommaaccent.ss01" horiz-adv-x="504" 
d="M246 -171l-2 74l130 11l13 -16q0 -166 -80 -315h-95q34 112 34 246zM290 242q0 -132 96 -132q46 0 81 22l6 -2v-123q-52 -24 -106 -24q-214 0 -214 216v1123h137v-1080z" />
    <glyph glyph-name="ldot.ss01" horiz-adv-x="586" 
d="M516 585q-41 0 -63.5 22t-22.5 58.5t22.5 59.5t63.5 23t63 -23t22 -59t-22 -58.5t-63 -22.5zM290 242q0 -132 98 -132q46 0 81 22l4 -2v-123q-52 -24 -106 -24q-214 0 -214 216v1123h137v-1080z" />
    <glyph glyph-name="lslash.ss01" horiz-adv-x="592" 
d="M346 242q0 -132 98 -132q46 0 81 22l4 -2v-123q-52 -24 -106 -24q-214 0 -214 216v369l-136 -86h-6v119l142 90v631h137v-544l140 88h6v-121l-146 -92v-411z" />
    <glyph glyph-name="y.ss01" horiz-adv-x="971" 
d="M938 961l2 -6l-532 -1257h-145l-4 6l164 337l-388 914l2 6h151l305 -782l306 782h139z" />
    <glyph glyph-name="yacute.ss01" horiz-adv-x="971" 
d="M938 961l2 -6l-532 -1257h-145l-4 6l164 337l-388 914l2 6h151l305 -782l306 782h139zM698 1266l-326 -218l-50 73l285 266l97 -100z" />
    <glyph glyph-name="ycircumflex.ss01" horiz-adv-x="971" 
d="M938 961l2 -6l-532 -1257h-145l-4 6l164 337l-388 914l2 6h151l305 -782l306 782h139zM493 1234l-186 -178l-61 61l218 250h65l223 -250l-61 -61z" />
    <glyph glyph-name="ydieresis.ss01" horiz-adv-x="971" 
d="M938 961l2 -6l-532 -1257h-145l-4 6l164 337l-388 914l2 6h151l305 -782l306 782h139zM682 1147q-38 0 -65 27t-27 65t27 65t65 27t66 -28t28 -65t-28 -64t-66 -27zM325 1147q-38 0 -65 27t-27 65t27 65t65 27t66 -27t28 -65t-28 -65t-66 -27z" />
    <glyph glyph-name="ygrave.ss01" horiz-adv-x="971" 
d="M938 961l2 -6l-532 -1257h-145l-4 6l164 337l-388 914l2 6h151l305 -782l306 782h139zM613 1048l-328 218l-4 21l97 100l285 -266z" />
    <glyph glyph-name="uni1EF9.ss01" horiz-adv-x="971" 
d="M938 961l2 -6l-532 -1257h-145l-4 6l164 337l-388 914l2 6h151l305 -782l306 782h139zM350.5 1318q63.5 0 150.5 -36t124.5 -36t59.5 20.5t22 57.5l6 3l91 -20q0 -82 -46.5 -129.5t-108 -48.5t-150 37.5t-125.5 38.5t-58.5 -21.5t-21.5 -58.5l-4 -4l-93 20q0 74 45 125.5
t108.5 51.5z" />
    <glyph glyph-name="g.ss02" horiz-adv-x="970" 
d="M470 862q-109 0 -177 -53t-68 -143t68 -142.5t177 -52.5t177 52t68 142.5t-68 143.5t-177 53zM905 -37q0 -281 -451 -281q-233 0 -381 69v126l5 2q171 -74 373 -74q317 0 316 147q0 65 -54 93.5t-231 43t-250.5 52.5t-73.5 126.5t75 143.5q-145 84 -145 256
q0 145 107 230.5t274 85.5q108 0 194 -37l138 175l100 -97l-149 -132q102 -86 102.5 -228t-107.5 -226t-278 -84q-74 0 -136 17q-45 -30 -44.5 -73t54.5 -58.5t226 -29.5t254 -70t82 -177z" />
    <glyph glyph-name="gbreve.ss02" horiz-adv-x="970" 
d="M470 862q-109 0 -177 -53t-68 -143t68 -142.5t177 -52.5t177 52t68 142.5t-68 143.5t-177 53zM905 -37q0 -281 -451 -281q-233 0 -381 69v126l5 2q171 -74 373 -74q317 0 316 147q0 65 -54 93.5t-231 43t-250.5 52.5t-73.5 126.5t75 143.5q-145 84 -145 256
q0 145 107 230.5t274 85.5q108 0 194 -37l138 175l100 -97l-149 -132q102 -86 102.5 -228t-107.5 -226t-278 -84q-74 0 -136 17q-45 -30 -44.5 -73t54.5 -58.5t226 -29.5t254 -70t82 -177zM447 1084q-110 0 -181 68.5t-71 188.5l95 11l4 -4q4 -71 47 -113.5t110 -42.5
t110.5 42.5t45.5 111.5l4 6l91 -11q0 -117 -72.5 -187t-182.5 -70z" />
    <glyph glyph-name="gcaron.ss02" horiz-adv-x="970" 
d="M470 862q-109 0 -177 -53t-68 -143t68 -142.5t177 -52.5t177 52t68 142.5t-68 143.5t-177 53zM905 -37q0 -281 -451 -281q-233 0 -381 69v126l5 2q171 -74 373 -74q317 0 316 147q0 65 -54 93.5t-231 43t-250.5 52.5t-73.5 126.5t75 143.5q-145 84 -145 256
q0 145 107 230.5t274 85.5q108 0 194 -37l138 175l100 -97l-149 -132q102 -86 102.5 -228t-107.5 -226t-278 -84q-74 0 -136 17q-45 -30 -44.5 -73t54.5 -58.5t226 -29.5t254 -70t82 -177zM486 1067h-65l-224 251l62 58l197 -177l186 177l62 -58z" />
    <glyph glyph-name="gcircumflex.ss02" horiz-adv-x="970" 
d="M470 862q-109 0 -177 -53t-68 -143t68 -142.5t177 -52.5t177 52t68 142.5t-68 143.5t-177 53zM905 -37q0 -281 -451 -281q-233 0 -381 69v126l5 2q171 -74 373 -74q317 0 316 147q0 65 -54 93.5t-231 43t-250.5 52.5t-73.5 126.5t75 143.5q-145 84 -145 256
q0 145 107 230.5t274 85.5q108 0 194 -37l138 175l100 -97l-149 -132q102 -86 102.5 -228t-107.5 -226t-278 -84q-74 0 -136 17q-45 -30 -44.5 -73t54.5 -58.5t226 -29.5t254 -70t82 -177zM445 1244l-186 -179l-62 61l218 250h65l224 -250l-62 -61z" />
    <glyph glyph-name="gcommaaccent.ss02" horiz-adv-x="970" 
d="M470 862q-109 0 -177 -53t-68 -143t68 -142.5t177 -52.5t177 52t68 142.5t-68 143.5t-177 53zM905 -37q0 -281 -451 -281q-233 0 -381 69v126l5 2q171 -74 373 -74q317 0 316 147q0 65 -54 93.5t-231 43t-250.5 52.5t-73.5 126.5t75 143.5q-145 84 -145 256
q0 145 107 230.5t274 85.5q108 0 194 -37l138 175l100 -97l-149 -132q102 -86 102.5 -228t-107.5 -226t-278 -84q-74 0 -136 17q-45 -30 -44.5 -73t54.5 -58.5t226 -29.5t254 -70t82 -177zM529 1141l2 -74l-131 -11l-13 16q0 166 80 315h95q-34 -112 -33 -246z" />
    <glyph glyph-name="gdotaccent.ss02" horiz-adv-x="970" 
d="M470 862q-109 0 -177 -53t-68 -143t68 -142.5t177 -52.5t177 52t68 142.5t-68 143.5t-177 53zM905 -37q0 -281 -451 -281q-233 0 -381 69v126l5 2q171 -74 373 -74q317 0 316 147q0 65 -54 93.5t-231 43t-250.5 52.5t-73.5 126.5t75 143.5q-145 84 -145 256
q0 145 107 230.5t274 85.5q108 0 194 -37l138 175l100 -97l-149 -132q102 -86 102.5 -228t-107.5 -226t-278 -84q-74 0 -136 17q-45 -30 -44.5 -73t54.5 -58.5t226 -29.5t254 -70t82 -177zM449 1152q-39 0 -68 29t-29 69t29 68t68 28t68 -28t29 -68t-29 -69t-68 -29z" />
    <glyph glyph-name="f_t" horiz-adv-x="1275" 
d="M776 277v566h-437v-843h-140v843h-134v118h134v22q0 171 86.5 258.5t222.5 87.5q84 0 129 -20v-123l-6 -2q-35 20 -112.5 20.5t-128.5 -50t-51 -156.5v-37h437v236l136 26l6 -4v-258h339v-118h-339v-540q0 -188 173 -188q86 0 164 43l4 -2v-119q-76 -47 -208.5 -46.5
t-203.5 73t-71 213.5z" />
    <glyph glyph-name="f_y" horiz-adv-x="1511" 
d="M734 -315q-37 0 -108 12v119l3 2q41 -11 80 -12q101 0 160.5 52.5t102.5 173.5l2 3l-360 814h-275v-849h-140v849h-134v112h134v22q0 171 86.5 258.5t222.5 87.5q84 0 129 -20v-123l-6 -2q-35 20 -112.5 20.5t-128.5 -50t-51 -156.5v-37h378l326 -767l294 767h141l2 -6
l-385 -946q-71 -181 -145.5 -252.5t-215.5 -71.5z" />
    <glyph glyph-name="t_t" horiz-adv-x="1375" 
d="M877 277v566h-508v-540q0 -188 173 -188q89 0 164 43l5 -2v-119q-78 -47 -209 -47t-203 74q-72 72 -72 213v566h-184v118h184v236l136 26l6 -4v-258h508v236l136 26l5 -4v-258h339v-118h-339v-540q0 -188 174 -188q87 0 165 43l4 -2v-119q-77 -47 -209 -47t-204 74
q-72 72 -71 213z" />
    <glyph glyph-name="L_periodcentered_L.loclCAT" horiz-adv-x="1822" 
d="M713 611q-41 0 -64 23t-23 58q0 34 23 58t63 24t63 -24t23 -58t-22 -58t-63 -23zM1240 117h557v-117h-695v1231h138v-1114zM324 1231v-1114h559v-117h-697v1231h138z" />
    <glyph glyph-name="l_periodcentered_l.loclCAT" horiz-adv-x="1037" 
d="M521 598q-41 0 -64 22t-23 57.5t23 59.5t64 24t63.5 -23t22.5 -59t-22.5 -58.5t-63.5 -22.5zM739 0v1322h142v-1322h-142zM162 0v1322h141v-1322h-141z" />
    <glyph glyph-name="l_periodcentered_l.loclCAT.ss01" horiz-adv-x="1089" 
d="M516 585q-41 0 -63.5 22t-22.5 57.5t22.5 59.5t63.5 24t64 -24t23 -59.5t-23 -57.5t-64 -22zM877 242q-1 -132 95 -132q46 0 82 22l5 -2v-123q-52 -24 -106 -24q-214 0 -214 216v1123h138v-1080zM290 242q0 -132 96 -132q46 0 81 22l6 -2v-123q-52 -24 -106 -24
q-214 0 -214 216v1123h137v-1080z" />
    <glyph glyph-name="germandbls.smcp.calt" horiz-adv-x="1293" 
d="M837.5 -26q-154.5 0 -262.5 58v136h2q112 -71 253 -71q91 0 141.5 48.5t50.5 117.5q0 97 -80 136t-227 40q-45 0 -67 -1l-22 7l230 404q-58 17 -143 17q-350 0 -350 -367v-499h-141v501q0 141 44.5 242.5t121.5 154.5q145 100 335 100t335 -71v-5l-215 -367
q145 1 241 -79q36 -30 60.5 -86.5t24.5 -126.5q0 -121 -88.5 -205t-243 -84z" />
    <glyph glyph-name="a.smcp" horiz-adv-x="1063" 
d="M318 354h419l-210 517l-164 -413zM890 0l-104 240h-514l-103 -240h-139l428 987h140l443 -987h-151z" />
    <glyph glyph-name="aacute.smcp" horiz-adv-x="1063" 
d="M318 354h419l-210 517l-164 -413zM890 0l-104 240h-514l-103 -240h-139l428 987h140l443 -987h-151zM709 1290l-325 -218l-51 73l285 266l97 -100z" />
    <glyph glyph-name="abreve.smcp" horiz-adv-x="1063" 
d="M318 354h419l-210 517l-164 -413zM890 0l-104 240h-514l-103 -240h-139l428 987h140l443 -987h-151zM506.5 1098q-109.5 0 -180.5 69t-71 188l95 12l4 -4q4 -71 46.5 -114t109.5 -43t111 43t46 112l3 6l91 -12q0 -117 -72.5 -187t-182 -70z" />
    <glyph glyph-name="acircumflex.smcp" horiz-adv-x="1063" 
d="M318 354h419l-210 517l-164 -413zM890 0l-104 240h-514l-103 -240h-139l428 987h140l443 -987h-151zM505 1259l-187 -179l-61 61l218 250h65l223 -250l-61 -61z" />
    <glyph glyph-name="adieresis.smcp" horiz-adv-x="1063" 
d="M318 354h419l-210 517l-164 -413zM890 0l-104 240h-514l-103 -240h-139l428 987h140l443 -987h-151zM693 1171q-38 0 -65 27t-27 65t27 65t65 27t66.5 -27.5t28.5 -65t-28.5 -64.5t-66.5 -27zM336 1171q-38 0 -65 27t-27 65t27 65t65 27t66 -27t28 -65t-28 -65t-66 -27z
" />
    <glyph glyph-name="uni1EA1.smcp" horiz-adv-x="1063" 
d="M516 -147q39 0 68 -28t29 -68t-29 -69t-68 -29t-68 29t-29 69t29 68t68 28zM318 354h419l-210 517l-164 -413zM1041 0h-151l-104 240h-514l-103 -240h-139l428 987h140z" />
    <glyph glyph-name="agrave.smcp" horiz-adv-x="1063" 
d="M318 354h419l-210 517l-164 -413zM890 0l-104 240h-514l-103 -240h-139l428 987h140l443 -987h-151zM624 1072l-328 218l-4 21l97 100l285 -266z" />
    <glyph glyph-name="amacron.smcp" horiz-adv-x="1063" 
d="M318 354h419l-210 517l-164 -413zM890 0l-104 240h-514l-103 -240h-139l428 987h140l443 -987h-151zM775 1287v-107h-535v107h535z" />
    <glyph glyph-name="aogonek.smcp" horiz-adv-x="1063" 
d="M318 354h419l-210 517l-164 -413zM905.5 -315q41.5 0 62.5 8l8 -4v-91q-37 -13 -113 -13t-129 39t-53 112q0 158 203 277l-98 227h-514l-103 -240h-139l428 987h140l443 -987h-65q-158 -112 -159 -231q0 -35 23.5 -59.5t65 -24.5z" />
    <glyph glyph-name="aring.smcp" horiz-adv-x="1063" 
d="M318 354h419l-210 517l-164 -413zM890 0l-104 240h-514l-103 -240h-139l428 987h140l443 -987h-151zM509 1335q-40 0 -67 -27t-27 -66t27 -66t67 -27t67 27t27 66t-27 66t-67 27zM509 1071q-77 0 -126.5 49t-49.5 121.5t49.5 121t126.5 48.5t125.5 -47.5t48.5 -122
t-48.5 -122.5t-125.5 -48z" />
    <glyph glyph-name="aringacute.smcp" horiz-adv-x="1063" 
d="M318 354h419l-210 517l-164 -413zM890 0l-104 240h-514l-103 -240h-139l428 987h140l443 -987h-151zM509 1335q-40 0 -67 -27t-27 -66t27 -66t67 -27t67 27t27 66t-27 66t-67 27zM509 1071q-77 0 -126.5 49t-49.5 121.5t49.5 121t118 48.5t110.5 -28l242 227l97 -100
l-6 -21l-272 -182q11 -32 11 -65q0 -74 -48.5 -122.5t-125.5 -48.5z" />
    <glyph glyph-name="atilde.smcp" horiz-adv-x="1063" 
d="M318 354h419l-210 517l-164 -413zM890 0l-104 240h-514l-103 -240h-139l428 987h140l443 -987h-151zM361.5 1342q63.5 0 151 -36t124.5 -36t59.5 20.5t22.5 57.5l5 4l91 -21q0 -82 -46.5 -129.5t-107.5 -48.5t-149.5 37.5t-126 38.5t-59 -21.5t-21.5 -58.5l-3 -4l-93 20
q0 74 44.5 125.5t108 51.5z" />
    <glyph glyph-name="ae.smcp" horiz-adv-x="1282" 
d="M668 367v508h-1l-298 -508h299zM1253 987v-123h-452v-302h422v-119h-422v-328h472v-115h-605v251h-368l-155 -251h-138l589 987h657z" />
    <glyph glyph-name="aeacute.smcp" horiz-adv-x="1282" 
d="M668 367v508h-1l-298 -508h299zM1253 987v-123h-452v-302h422v-119h-422v-328h472v-115h-605v251h-368l-155 -251h-138l589 987h657zM596 1074l-50 73l284 266l97 -100l-5 -21z" />
    <glyph glyph-name="b.smcp" horiz-adv-x="932" 
d="M488 456h-192v-348l182 -2q227 0 228 177q0 80 -58 126.5t-160 46.5zM665 728q0 156 -214 156q-108 0 -155 -5v-309h186q80 0 131.5 41t51.5 117zM451 -4q-110 0 -289 4v983q156 13 262 13q186 0 279.5 -65t93.5 -184q0 -168 -145 -218q88 -26 139 -89.5t51 -154.5
q0 -289 -391 -289z" />
    <glyph glyph-name="c.smcp" horiz-adv-x="981" 
d="M622 -22q-240 0 -386 138q-146 136 -145.5 372t147 377.5t382.5 141.5q158 0 285 -50v-121l-6 -2q-123 52 -262 52q-179 0 -288 -107t-109 -285t106 -286.5t273 -108.5t286 54l4 -2v-119q-114 -54 -287 -54z" />
    <glyph glyph-name="cacute.smcp" horiz-adv-x="981" 
d="M622 -22q-240 0 -386 138q-146 136 -145.5 372t147 377.5t382.5 141.5q158 0 285 -50v-121l-6 -2q-123 52 -262 52q-179 0 -288 -107t-109 -285t106 -286.5t273 -108.5t286 54l4 -2v-119q-114 -54 -287 -54zM467 1072l-50 73l285 266l97 -100l-6 -21z" />
    <glyph glyph-name="ccaron.smcp" horiz-adv-x="981" 
d="M622 -22q-240 0 -386 138q-146 136 -145.5 372t147 377.5t382.5 141.5q158 0 285 -50v-121l-6 -2q-123 52 -262 52q-179 0 -288 -107t-109 -285t106 -286.5t273 -108.5t286 54l4 -2v-119q-114 -54 -287 -54zM564 1082l-223 251l61 58l198 -177l186 177l61 -58l-218 -251
h-65z" />
    <glyph glyph-name="ccedilla.smcp" horiz-adv-x="981" 
d="M663 -91q67 0 112.5 -36.5t45.5 -123t-64 -132t-145 -45.5t-134 18v84l4 2q39 -15 94 -15t87.5 23.5t32.5 67.5q0 76 -89 77q-47 0 -86 -15l-2 4v68l56 94q-222 15 -353 150.5t-131 364.5t146.5 370.5t382.5 141.5q158 0 285 -50v-121l-6 -2q-123 52 -262 52
q-179 0 -288 -107t-109 -285t106 -286.5t273 -108.5t286 54l4 -2v-119q-97 -47 -241 -54l-44 -75q13 6 39 6z" />
    <glyph glyph-name="ccircumflex.smcp" horiz-adv-x="981" 
d="M622 -22q-240 0 -386 138q-146 136 -145.5 372t147 377.5t382.5 141.5q158 0 285 -50v-121l-6 -2q-123 52 -262 52q-179 0 -288 -107t-109 -285t106 -286.5t273 -108.5t286 54l4 -2v-119q-114 -54 -287 -54zM402 1080l-61 61l218 250h65l223 -250l-61 -61l-198 179z" />
    <glyph glyph-name="cdotaccent.smcp" horiz-adv-x="981" 
d="M622 -22q-240 0 -386 138q-146 136 -145.5 372t147 377.5t382.5 141.5q158 0 285 -50v-121l-6 -2q-123 52 -262 52q-179 0 -288 -107t-109 -285t106 -286.5t273 -108.5t286 54l4 -2v-119q-114 -54 -287 -54zM592 1167q-39 0 -68 29t-29 69t29 68t68 28t68 -28t29 -68
t-29 -69t-68 -29z" />
    <glyph glyph-name="d.smcp" horiz-adv-x="1187" 
d="M506 114q218 0 331 98q113 100 113 282t-114.5 282.5t-336.5 100.5q-119 0 -197 -8v-752q76 -3 204 -3zM492 996q298 0 450.5 -131t151.5 -369t-153.5 -369t-418.5 -131t-360 4v981q203 15 330 15z" />
    <glyph glyph-name="eth.smcp" horiz-adv-x="1217" 
d="M536 114q218 0 330 98q112 100 112.5 282t-114 282.5t-335.5 100.5q-119 0 -198 -8v-331h209v-102h-209v-319q77 -3 205 -3zM521 996q298 0 451 -131t152 -369t-154 -369q-154 -131 -420 -131t-358 4v436h-168v102h168v443q202 15 329 15z" />
    <glyph glyph-name="dcaron.smcp" horiz-adv-x="1187" 
d="M506 114q218 0 331 98q113 100 113 282t-114.5 282.5t-336.5 100.5q-119 0 -197 -8v-752q76 -3 204 -3zM492 996q298 0 450.5 -131t151.5 -369t-153.5 -369t-418.5 -131t-360 4v981q203 15 330 15zM607 1082h-65l-224 251l62 58l197 -177l186 177l62 -58z" />
    <glyph glyph-name="dcroat.smcp" horiz-adv-x="1217" 
d="M536 114q218 0 330 98q112 100 112.5 282t-114 282.5t-335.5 100.5q-119 0 -198 -8v-331h209v-102h-209v-319q77 -3 205 -3zM521 996q298 0 451 -131t152 -369t-154 -369q-154 -131 -420 -131t-358 4v436h-168v102h168v443q202 15 329 15z" />
    <glyph glyph-name="e.smcp" horiz-adv-x="891" 
d="M162 0v987h622v-123h-482v-300h452v-121h-452v-326h502v-117h-642z" />
    <glyph glyph-name="eacute.smcp" horiz-adv-x="891" 
d="M162 0v987h622v-123h-482v-300h452v-121h-452v-326h502v-117h-642zM359 1074l-50 73l285 266l97 -100l-6 -21z" />
    <glyph glyph-name="ebreve.smcp" horiz-adv-x="891" 
d="M162 0v987h622v-123h-482v-300h452v-121h-452v-326h502v-117h-642zM482 1100q-110 0 -180.5 69t-70.5 188l95 11l4 -3q4 -71 46.5 -114t109.5 -43t110.5 43t45.5 112l4 5l91 -11q0 -117 -72.5 -187t-182.5 -70z" />
    <glyph glyph-name="ecaron.smcp" horiz-adv-x="891" 
d="M162 0v987h622v-123h-482v-300h452v-121h-452v-326h502v-117h-642zM456 1084l-223 251l61 58l198 -177l186 177l61 -58l-218 -251h-65z" />
    <glyph glyph-name="ecircumflex.smcp" horiz-adv-x="891" 
d="M162 0v987h622v-123h-482v-300h452v-121h-452v-326h502v-117h-642zM294 1082l-61 61l218 250h65l223 -250l-61 -61l-198 178z" />
    <glyph glyph-name="edieresis.smcp" horiz-adv-x="891" 
d="M162 0v987h622v-123h-482v-300h452v-121h-452v-326h502v-117h-642zM669 1173q-38 0 -65 27t-27 65t27 65t65 27t66 -28t28 -65t-28 -64t-66 -27zM312 1173q-38 0 -65 27t-27 65t27 65t65 27t66 -27t28 -65t-28 -65t-66 -27z" />
    <glyph glyph-name="edotaccent.smcp" horiz-adv-x="891" 
d="M162 0v987h622v-123h-482v-300h452v-121h-452v-326h502v-117h-642zM484 1169q-39 0 -68 29t-29 69t29 68t68 28t68 -28t29 -68t-29 -69t-68 -29z" />
    <glyph glyph-name="uni1EB9.smcp" horiz-adv-x="891" 
d="M484 -341q-39 0 -68 29t-29 69t29 68t68 28t68 -28t29 -68t-29 -69t-68 -29zM162 0v987h622v-123h-482v-300h452v-121h-452v-326h502v-117h-642z" />
    <glyph glyph-name="egrave.smcp" horiz-adv-x="891" 
d="M162 0v987h622v-123h-482v-300h452v-121h-452v-326h502v-117h-642zM600 1074l-328 218l-4 21l97 100l285 -266z" />
    <glyph glyph-name="emacron.smcp" horiz-adv-x="891" 
d="M162 0v987h622v-123h-482v-300h452v-121h-452v-326h502v-117h-642zM216 1182v106h534v-106h-534z" />
    <glyph glyph-name="eogonek.smcp" horiz-adv-x="891" 
d="M635 -238q0 -35 23 -59.5t65 -24.5t63 7l7 -3v-92q-37 -13 -112.5 -13t-128.5 39.5t-53 111.5q0 155 192 272h-529v987h622v-123h-482v-300h452v-121h-452v-326h502v-117q-169 -114 -169 -238z" />
    <glyph glyph-name="uni1EBD.smcp" horiz-adv-x="891" 
d="M162 0v987h622v-123h-482v-300h452v-121h-452v-326h502v-117h-642zM336.5 1344q62.5 0 151.5 -36t125.5 -36t58.5 20.5t22 57.5l6 4l91 -21q0 -82 -46.5 -129.5t-108 -48.5t-150 37.5t-126 38.5t-58.5 -21.5t-21 -58.5l-4 -4l-93 20q0 74 45 125.5t107.5 51.5z" />
    <glyph glyph-name="uni0259.smcp" horiz-adv-x="1079" 
d="M514 97q128 0 212 77t106 219h-622q13 -141 95 -219q81 -78 209 -77zM497 1007q216 0 352 -132t136 -378q0 -247 -130 -383t-339 -136t-327 119t-118 346q0 43 2 65h765q-6 184 -100 280t-245 95q-113 0 -193 -29t-166 -98l-6 2v125q153 124 369 124z" />
    <glyph glyph-name="f.smcp" horiz-adv-x="858" 
d="M162 0v987h633v-132h-493v-330h439v-130h-439v-395h-140z" />
    <glyph glyph-name="g.smcp" horiz-adv-x="1120" 
d="M883 480h128v-426q-171 -76 -363 -76q-255 0 -406 135.5t-151 372.5t161 380t420 143q194 0 322 -56v-126l-5 -2q-130 56 -323 56t-311.5 -107t-118.5 -285t109 -282.5t312 -104.5q117 0 226 43v335z" />
    <glyph glyph-name="gbreve.smcp" horiz-adv-x="1120" 
d="M883 480h128v-426q-171 -76 -363 -76q-255 0 -406 135.5t-151 372.5t161 380t420 143q194 0 322 -56v-126l-5 -2q-130 56 -323 56t-311.5 -107t-118.5 -285t109 -282.5t312 -104.5q117 0 226 43v335zM618 1098q-110 0 -180.5 69t-70.5 188l95 12l3 -4q4 -71 47 -114
t110 -43t110.5 43t45.5 112l4 6l91 -12q0 -117 -72.5 -187t-182.5 -70z" />
    <glyph glyph-name="gcaron.smcp" horiz-adv-x="1120" 
d="M883 480h128v-426q-171 -76 -363 -76q-255 0 -406 135.5t-151 372.5t161 380t420 143q194 0 322 -56v-126l-5 -2q-130 56 -323 56t-311.5 -107t-118.5 -285t109 -282.5t312 -104.5q117 0 226 43v335zM657 1082h-65l-223 251l61 58l197 -177l187 177l61 -58z" />
    <glyph glyph-name="gcircumflex.smcp" horiz-adv-x="1120" 
d="M883 480h128v-426q-171 -76 -363 -76q-255 0 -406 135.5t-151 372.5t161 380t420 143q194 0 322 -56v-126l-5 -2q-130 56 -323 56t-311.5 -107t-118.5 -285t109 -282.5t312 -104.5q117 0 226 43v335zM616 1259l-186 -179l-61 61l217 250h66l223 -250l-61 -61z" />
    <glyph glyph-name="gcommaaccent.smcp" horiz-adv-x="1120" 
d="M572 -171l-2 74l130 11l13 -16q0 -166 -80 -315h-95q34 112 34 246zM883 480h128v-426q-171 -76 -363 -76q-255 0 -406 135.5t-151 372.5t161 380t420 143q194 0 322 -56v-126l-5 -2q-130 56 -323 56t-311.5 -107t-118.5 -285t109 -282.5t312 -104.5q117 0 226 43v335z
" />
    <glyph glyph-name="gdotaccent.smcp" horiz-adv-x="1120" 
d="M883 480h128v-426q-171 -76 -363 -76q-255 0 -406 135.5t-151 372.5t161 380t420 143q194 0 322 -56v-126l-5 -2q-130 56 -323 56t-311.5 -107t-118.5 -285t109 -282.5t312 -104.5q117 0 226 43v335zM620 1167q-39 0 -68 29t-29 69t29 68t68 28t68 -28t29 -68t-29 -69
t-68 -29z" />
    <glyph glyph-name="h.smcp" horiz-adv-x="1212" 
d="M909 985h141v-985h-141v436h-607v-436h-140v985h140v-421h607v421z" />
    <glyph glyph-name="hbar.smcp" horiz-adv-x="1212" 
d="M909 564v142h-607v-142h607zM1130 812v-106h-80v-706h-141v436h-607v-436h-140v706h-80v106h80v173h140v-173h607v173h141v-173h80z" />
    <glyph glyph-name="hcircumflex.smcp" horiz-adv-x="1212" 
d="M909 985h141v-985h-141v436h-607v-436h-140v985h140v-421h607v421zM601 1259l-186 -179l-61 61l218 250h65l223 -250l-61 -61z" />
    <glyph glyph-name="i.smcp" horiz-adv-x="465" 
d="M162 0v987h140v-987h-140z" />
    <glyph glyph-name="dotlessi.smcp" horiz-adv-x="465" 
d="M162 0v987h140v-987h-140z" />
    <glyph glyph-name="iacute.smcp" horiz-adv-x="465" 
d="M162 0v987h140v-987h-140zM108 1074l-50 73l285 266l96 -100l-5 -21z" />
    <glyph glyph-name="ibreve.smcp" horiz-adv-x="465" 
d="M162 0v987h140v-987h-140zM231 1098q-110 0 -180.5 69t-70.5 188l94 12l4 -4q4 -71 47 -114t110 -43t110.5 43t45.5 112l4 6l91 -12q0 -117 -72.5 -187t-182.5 -70z" />
    <glyph glyph-name="icircumflex.smcp" horiz-adv-x="465" 
d="M162 0v987h140v-987h-140zM43 1082l-62 61l218 250h65l224 -250l-62 -61l-197 178z" />
    <glyph glyph-name="idieresis.smcp" horiz-adv-x="465" 
d="M162 0v987h140v-987h-140zM418 1173q-38 0 -65 27t-27 65t27 65t65 27t66 -28t28 -65t-28 -64t-66 -27zM60 1173q-38 0 -65 27t-27 65t27 65t65 27t66.5 -27t28.5 -65t-28.5 -65t-66.5 -27z" />
    <glyph glyph-name="i.loclTRK.smcp" horiz-adv-x="465" 
d="M162 0v987h140v-987h-140zM233 1169q-39 0 -68 29t-29 69t29 68t68 28t68 -28t29 -68t-29 -69t-68 -29z" />
    <glyph glyph-name="uni1ECB.smcp" horiz-adv-x="465" 
d="M233 -341q-39 0 -68 29t-29 69t29 68t68 28t68 -28t29 -68t-29 -69t-68 -29zM162 0v987h140v-987h-140z" />
    <glyph glyph-name="igrave.smcp" horiz-adv-x="465" 
d="M162 0v987h140v-987h-140zM348 1074l-328 218l-3 21l97 100l284 -266z" />
    <glyph glyph-name="ij.smcp" horiz-adv-x="1053" 
d="M586 -20q-39 0 -85 5v123l5 2q45 -6 54 -6q203 0 203 240v641h140v-670q0 -335 -317 -335zM162 0v987h140v-987h-140z" />
    <glyph glyph-name="imacron.smcp" horiz-adv-x="465" 
d="M162 0v987h140v-987h-140zM0 1182v106h465v-106h-465z" />
    <glyph glyph-name="iogonek.smcp" horiz-adv-x="465" 
d="M216.5 -315q41.5 0 62.5 8l8 -4v-91q-37 -13 -113 -13t-128.5 39t-52.5 112q0 147 180 264h-11v987h140v-987h-15q-158 -112 -159 -231q0 -35 23.5 -59.5t65 -24.5z" />
    <glyph glyph-name="itilde.smcp" horiz-adv-x="465" 
d="M162 0v987h140v-987h-140zM117.5 1341q54.5 0 119.5 -37.5t95.5 -37.5t49 22.5t18.5 61.5l6 4l76 -21q0 -80 -39 -126.5t-89 -47.5t-118 37t-99 38q-64 0 -68 -83l-2 -4l-78 20q0 73 37 123.5t91.5 50.5z" />
    <glyph glyph-name="j.smcp" horiz-adv-x="588" 
d="M123 -20q-41 0 -88 5v123l6 2q24 -6 54 -6q203 0 203 240v641h138v-670q0 -335 -313 -335z" />
    <glyph glyph-name="jacute.smcp" horiz-adv-x="588" 
d="M123 -20q-41 0 -88 5v123l6 2q24 -6 54 -6q203 0 203 240v641h138v-670q0 -335 -313 -335zM246 1054l-51 72l285 267l97 -101l-5 -20z" />
    <glyph glyph-name="jcircumflex.smcp" horiz-adv-x="588" 
d="M123 -20q-41 0 -88 5v123l6 2q24 -6 54 -6q203 0 203 240v641h138v-670q0 -335 -313 -335zM181 1061l-62 62l218 249h65l224 -249l-62 -62l-197 179z" />
    <glyph glyph-name="k.smcp" horiz-adv-x="971" 
d="M302 0h-140v985h140v-473l480 473h158l2 -6l-491 -480l506 -493l-2 -6h-169l-484 471v-471z" />
    <glyph glyph-name="kcommaaccent.smcp" horiz-adv-x="971" 
d="M452 -171l-1 74l130 11l13 -16q0 -166 -80 -315h-95q34 112 33 246zM302 0h-140v985h140v-473l480 473h158l2 -6l-491 -480l506 -493l-2 -6h-169l-484 471v-471z" />
    <glyph glyph-name="kgreenlandic.smcp" horiz-adv-x="971" 
d="M302 0h-140v985h140v-473l480 473h158l2 -6l-491 -480l506 -493l-2 -6h-169l-484 471v-471z" />
    <glyph glyph-name="l.smcp" horiz-adv-x="815" 
d="M302 123h480v-123h-620v989h140v-866z" />
    <glyph glyph-name="lacute.smcp" horiz-adv-x="815" 
d="M302 123h480v-123h-620v989h140v-866zM439 1287l-5 -21l-326 -218l-50 73l285 266z" />
    <glyph glyph-name="lcaron.smcp" horiz-adv-x="815" 
d="M302 123h480v-123h-620v989h140v-866zM711 981l-50 -378h-89l14 395h110z" />
    <glyph glyph-name="lcommaaccent.smcp" horiz-adv-x="815" 
d="M415 -175l-2 74l131 12l13 -17q0 -166 -80 -315h-95q34 112 33 246zM302 123h480v-123h-620v989h140v-866z" />
    <glyph glyph-name="ldot.smcp" horiz-adv-x="845" 
d="M655 486q-41 0 -63 23t-22 58.5t22 59t63 23.5t63.5 -23.5t22.5 -59.5t-22.5 -58.5t-63.5 -22.5zM302 123h480v-123h-620v989h140v-866z" />
    <glyph glyph-name="l_periodcentered_l.loclCAT.smcp" horiz-adv-x="1657" 
d="M655 486q-41 0 -63 23t-22 58.5t22 59t63 23.5t63.5 -23.5t22.5 -59.5t-22.5 -58.5t-63.5 -22.5zM1141 123h481v-123h-620v989h139v-866zM302 989v-866h480v-123h-620v989h140z" />
    <glyph glyph-name="lslash.smcp" horiz-adv-x="843" 
d="M330 123h480v-123h-622v408l-127 -80h-7v119l134 84v458h142v-369l143 89h5v-119l-148 -93v-374z" />
    <glyph glyph-name="m.smcp" horiz-adv-x="1401" 
d="M110 0l119 987h82l398 -751l371 751h87l125 -987h-128l-90 700h-3l-343 -683h-47l-361 685h-3l-81 -702h-126z" />
    <glyph glyph-name="n.smcp" horiz-adv-x="1199" 
d="M162 0v985h78l663 -719v721h134v-987h-76l-665 726v-726h-134z" />
    <glyph glyph-name="nacute.smcp" horiz-adv-x="1199" 
d="M162 0v985h78l663 -719v721h134v-987h-76l-665 726v-726h-134zM488 1074l-50 73l284 266l97 -100l-5 -21z" />
    <glyph glyph-name="napostrophe.smcp" horiz-adv-x="1321" 
d="M283 0v985h78l663 -728l2 730h134v-987h-75l-668 734l2 -734h-136zM89 1141.5q0 93.5 -3 131.5l115 19l17 -22q0 -166 -71 -386h-86q28 164 28 257.5z" />
    <glyph glyph-name="ncaron.smcp" horiz-adv-x="1199" 
d="M162 0v985h78l663 -719v721h134v-987h-76l-665 726v-726h-134zM585 1084l-224 251l62 58l197 -177l186 177l62 -58l-218 -251h-65z" />
    <glyph glyph-name="ncommaaccent.smcp" horiz-adv-x="1199" 
d="M546 -169l-2 74l130 11l13 -17q0 -166 -80 -314h-95q34 112 34 246zM162 0v985h78l663 -719v721h134v-987h-76l-665 726v-726h-134z" />
    <glyph glyph-name="eng.smcp" horiz-adv-x="1200" 
d="M903 987h134v-1056q0 -169 -84.5 -242.5t-239.5 -75.5l-4 113l2 4q194 4 194 223v108l-609 665v-726h-134v985h78l663 -719v721z" />
    <glyph glyph-name="uni0272.smcp" horiz-adv-x="1199" 
d="M903 987h134v-987h-76l-665 726v-750q2 -199 -83 -279.5t-243 -85.5l-4 113l2 6q194 4 194 223v1032h78l663 -719v721z" />
    <glyph glyph-name="ntilde.smcp" horiz-adv-x="1199" 
d="M162 0v985h78l663 -719v721h134v-987h-76l-665 726v-726h-134zM465.5 1344q63.5 0 151 -36t125 -36t59.5 20.5t22 57.5l6 4l91 -21q0 -82 -46.5 -129.5t-108 -48.5t-150 37.5t-126 38.5t-58.5 -21.5t-21 -58.5l-4 -4l-93 20q0 74 44.5 125.5t108 51.5z" />
    <glyph glyph-name="o.smcp" horiz-adv-x="1232" 
d="M616.5 102q167.5 0 271.5 105.5t104 284t-104 284t-271 105.5t-271 -106.5t-104 -284t103.5 -283t271 -105.5zM615 -24q-224 0 -373 137.5t-149 374.5t150 378t375 141t373 -137.5t148 -374t-150 -378t-374 -141.5z" />
    <glyph glyph-name="oacute.smcp" horiz-adv-x="1232" 
d="M616.5 102q167.5 0 271.5 105.5t104 284t-104 284t-271 105.5t-271 -106.5t-104 -284t103.5 -283t271 -105.5zM615 -24q-224 0 -373 137.5t-149 374.5t150 378t375 141t373 -137.5t148 -374t-150 -378t-374 -141.5zM492 1069l-51 72l285 267l97 -101l-6 -20z" />
    <glyph glyph-name="obreve.smcp" horiz-adv-x="1232" 
d="M616.5 102q167.5 0 271.5 105.5t104 284t-104 284t-271 105.5t-271 -106.5t-104 -284t103.5 -283t271 -105.5zM615 -24q-224 0 -373 137.5t-149 374.5t150 378t375 141t373 -137.5t148 -374t-150 -378t-374 -141.5zM614.5 1095q-109.5 0 -180.5 69t-71 188l95 11l4 -4
q4 -71 46.5 -113.5t109.5 -42.5t111 42.5t46 111.5l3 6l91 -11q0 -117 -72.5 -187t-182 -70z" />
    <glyph glyph-name="ocircumflex.smcp" horiz-adv-x="1232" 
d="M616.5 102q167.5 0 271.5 105.5t104 284t-104 284t-271 105.5t-271 -106.5t-104 -284t103.5 -283t271 -105.5zM615 -24q-224 0 -373 137.5t-149 374.5t150 378t375 141t373 -137.5t148 -374t-150 -378t-374 -141.5zM426 1076l-61 62l218 249h65l223 -249l-61 -62
l-197 179z" />
    <glyph glyph-name="odieresis.smcp" horiz-adv-x="1232" 
d="M616.5 102q167.5 0 271.5 105.5t104 284t-104 284t-271 105.5t-271 -106.5t-104 -284t103.5 -283t271 -105.5zM615 -24q-224 0 -373 137.5t-149 374.5t150 378t375 141t373 -137.5t148 -374t-150 -378t-374 -141.5zM801 1167q-38 0 -65 27t-27 65t27 65.5t65 27.5
t66.5 -28t28.5 -65.5t-28.5 -64.5t-66.5 -27zM444 1167q-38 0 -65 27t-27 65t27 65.5t65 27.5t66 -27t28 -65.5t-28 -65.5t-66 -27z" />
    <glyph glyph-name="uni1ECD.smcp" horiz-adv-x="1232" 
d="M616 -341q-39 0 -68 29t-29 69t29 68t68 28t68 -28t29 -68t-29 -69t-68 -29zM616.5 102q167.5 0 271.5 105.5t104 284t-104 284t-271 105.5t-271 -106.5t-104 -284t103.5 -283t271 -105.5zM615 -24q-224 0 -373 137.5t-149 374.5t150 378t375 141t373 -137.5t148 -374
t-150 -378t-374 -141.5z" />
    <glyph glyph-name="ograve.smcp" horiz-adv-x="1232" 
d="M616.5 102q167.5 0 271.5 105.5t104 284t-104 284t-271 105.5t-271 -106.5t-104 -284t103.5 -283t271 -105.5zM615 -24q-224 0 -373 137.5t-149 374.5t150 378t375 141t373 -137.5t148 -374t-150 -378t-374 -141.5zM732 1069l-328 218l-4 20l97 101l285 -267z" />
    <glyph glyph-name="ohungarumlaut.smcp" horiz-adv-x="1232" 
d="M616.5 102q167.5 0 271.5 105.5t104 284t-104 284t-271 105.5t-271 -106.5t-104 -284t103.5 -283t271 -105.5zM615 -24q-224 0 -373 137.5t-149 374.5t150 378t375 141t373 -137.5t148 -374t-150 -378t-374 -141.5zM773 1072l-71 38l160 294l106 -39l2 -21zM464 1072
l-71 38l160 294l108 -39l2 -21z" />
    <glyph glyph-name="omacron.smcp" horiz-adv-x="1232" 
d="M616.5 102q167.5 0 271.5 105.5t104 284t-104 284t-271 105.5t-271 -106.5t-104 -284t103.5 -283t271 -105.5zM615 -24q-224 0 -373 137.5t-149 374.5t150 378t375 141t373 -137.5t148 -374t-150 -378t-374 -141.5zM348 1177v106h535v-106h-535z" />
    <glyph glyph-name="uni01EB.smcp" horiz-adv-x="1232" 
d="M242 491q0 -178 103.5 -283.5t271 -105.5t271.5 105.5t104 284t-104 284t-271 105.5t-271 -106t-104 -284zM629 -231q0 -35 23.5 -59.5t65 -24.5t62.5 8l8 -4v-91q-37 -13 -113 -13t-129 39t-53 112q0 134 146 240h-23q-225 0 -374 137.5t-149 374.5t150 378t375 141
t373 -137.5t148 -379.5q0 -182 -96 -312t-254 -178q-160 -110 -160 -231z" />
    <glyph glyph-name="oslash.smcp" horiz-adv-x="1232" 
d="M616 102q168 0 272 105.5t104 273t-82 269.5l-500 -594q87 -54 206 -54zM242 498.5q0 -170.5 88 -273.5l500 596q-91 60 -214 60q-166 0 -270 -106t-104 -276.5zM616 -24q-169 0 -294 78l-71 -84h-123v15l110 132q-145 141 -145 374t150 374.5t373 141.5q175 0 302 -82
l52 62h130v-11l-98 -118q138 -141 137.5 -370t-150 -370.5t-373.5 -141.5z" />
    <glyph glyph-name="oslashacute.smcp" horiz-adv-x="1232" 
d="M616 102q168 0 272 105.5t104 273t-82 269.5l-500 -594q87 -54 206 -54zM242 498.5q0 -170.5 88 -273.5l500 596q-91 60 -214 60q-166 0 -270 -106t-104 -276.5zM616 -24q-169 0 -294 78l-71 -84h-123v15l110 132q-145 141 -145 374t150 374.5t373 141.5q175 0 302 -82
l52 62h130v-11l-98 -118q138 -141 137.5 -370t-150 -370.5t-373.5 -141.5zM793 1288l-326 -217l-50 72l285 266l97 -100z" />
    <glyph glyph-name="otilde.smcp" horiz-adv-x="1232" 
d="M616.5 102q167.5 0 271.5 105.5t104 284t-104 284t-271 105.5t-271 -106.5t-104 -284t103.5 -283t271 -105.5zM615 -24q-224 0 -373 137.5t-149 374.5t150 378t375 141t373 -137.5t148 -374t-150 -378t-374 -141.5zM469.5 1339q63.5 0 150.5 -36.5t124.5 -36.5t60 20.5
t22.5 57.5l5 4l91 -21q0 -82 -46.5 -129t-107.5 -48t-149.5 37t-126 38t-59 -21.5t-21.5 -58.5l-3 -4l-93 21q0 74 44.5 125.5t108 51.5z" />
    <glyph glyph-name="oe.smcp" horiz-adv-x="1495" 
d="M763 449v-326q207 78 227 326h-227zM763 560h226q-15 110 -74.5 188.5t-151.5 111.5v-300zM242 491.5q0 -181.5 103.5 -288t270.5 -106.5h15v789h-15q-166 0 -270 -106.5t-104 -288zM1408 108v-112h-632q-78 -20 -160 -20q-223 0 -373 136.5t-150 376t147 379t376 139.5
q84 0 153 -18h618v-116h-400q127 -119 149 -313h221v-111h-219q-11 -209 -153 -341h423z" />
    <glyph glyph-name="p.smcp" horiz-adv-x="925" 
d="M447 454q281 0 281 214q0 99 -64 156t-193 57t-169 -6v-413q104 -8 145 -8zM462 350q-86 0 -160 6v-356h-140v985q199 9 305 9q387 -1 391 -318q2 -160 -103 -243t-293 -83z" />
    <glyph glyph-name="thorn.smcp" horiz-adv-x="930" 
d="M434 281q132 0 206 54q74 53 74 155t-64 159q-62 57 -184 57t-164 -10v-407q93 -8 132 -8zM451 173q-84 0 -149 8v-181h-140v987h140v-175q58 7 152 7q385 -1 389 -318q2 -160 -101 -244t-291 -84z" />
    <glyph glyph-name="q.smcp" horiz-adv-x="1232" 
d="M242 491q0 -178 103.5 -283.5t271 -105.5t271.5 105.5t104 284t-104 284t-271 105.5t-271 -106t-104 -284zM93 488q0 237 150 378t375 141t373 -137.5t148 -379.5q0 -136 -55.5 -245t-152.5 -176q76 -84 161 -133.5t208 -78.5l-41 -108q-147 35 -247 94.5t-195 165.5
q-91 -34 -201 -33q-225 0 -374 137.5t-149 374.5z" />
    <glyph glyph-name="r.smcp" horiz-adv-x="960" 
d="M298 478h179q97 0 167.5 52.5t70.5 145.5q0 205 -253 205q-69 0 -164 -6v-397zM162 0v985q142 9 308 9t274.5 -73.5t108.5 -229.5q0 -119 -66 -196.5t-165 -107.5l246 -387h-162l-226 365h-182v-365h-136z" />
    <glyph glyph-name="racute.smcp" horiz-adv-x="960" 
d="M298 478h179q97 0 167.5 52.5t70.5 145.5q0 205 -253 205q-69 0 -164 -6v-397zM162 0v985q142 9 308 9t274.5 -73.5t108.5 -229.5q0 -119 -66 -196.5t-165 -107.5l246 -387h-162l-226 365h-182v-365h-136zM317 1072l-51 73l285 266l97 -100l-6 -21z" />
    <glyph glyph-name="rcaron.smcp" horiz-adv-x="960" 
d="M298 478h179q97 0 167.5 52.5t70.5 145.5q0 205 -253 205q-69 0 -164 -6v-397zM162 0v985q142 9 308 9t274.5 -73.5t108.5 -229.5q0 -119 -66 -196.5t-165 -107.5l246 -387h-162l-226 365h-182v-365h-136zM413 1082l-223 251l61 58l198 -177l186 177l61 -58l-218 -251
h-65z" />
    <glyph glyph-name="rcommaaccent.smcp" horiz-adv-x="960" 
d="M397 -171l-2 74l130 11l13 -16q0 -166 -80 -315h-95q34 112 34 246zM298 478h179q97 0 167.5 52.5t70.5 145.5q0 205 -253 205q-69 0 -164 -6v-397zM162 0v985q143 9 308.5 9t274 -73.5t108.5 -229.5q0 -119 -66 -196.5t-165 -107.5l246 -387h-162l-226 365h-182v-365
h-136z" />
    <glyph glyph-name="s.smcp" horiz-adv-x="821" 
d="M377 -24q-167 0 -284 65v128l4 4q119 -89 292 -89q209 0 209 164q0 88 -54.5 125t-180 88t-188.5 112.5t-62 177t95 186t239 70.5t251 -44v-121l-5 -2q-99 52 -233 52q-212 4 -216 -142q0 -51 16 -68q16 -16 22 -24q8 -8 22 -18q20 -14 54 -30l31 -14q9 -4 37 -15
q159 -62 228.5 -134.5t69.5 -197t-90 -199t-257 -74.5z" />
    <glyph glyph-name="sacute.smcp" horiz-adv-x="821" 
d="M377 -24q-167 0 -284 65v128l4 4q119 -89 292 -89q209 0 209 164q0 88 -54.5 125t-180 88t-188.5 112.5t-62 177t95 186t239 70.5t251 -44v-121l-5 -2q-99 52 -233 52q-212 4 -216 -142q0 -51 16 -68q16 -16 22 -24q8 -8 22 -18q20 -14 54 -30l31 -14q9 -4 37 -15
q159 -62 228.5 -134.5t69.5 -197t-90 -199t-257 -74.5zM309 1072l-50 73l285 266l96 -100l-5 -21z" />
    <glyph glyph-name="scaron.smcp" horiz-adv-x="821" 
d="M377 -24q-167 0 -284 65v128l4 4q119 -89 292 -89q209 0 209 164q0 88 -54.5 125t-180 88t-188.5 112.5t-62 177t95 186t239 70.5t251 -44v-121l-5 -2q-99 52 -233 52q-212 4 -216 -142q0 -51 16 -68q16 -16 22 -24q8 -8 22 -18q20 -14 54 -30l31 -14q9 -4 37 -15
q159 -62 228.5 -134.5t69.5 -197t-90 -199t-257 -74.5zM406 1082l-224 251l62 58l197 -177l186 177l62 -58l-218 -251h-65z" />
    <glyph glyph-name="scedilla.smcp" horiz-adv-x="821" 
d="M724 257q0 -117 -72.5 -190t-199.5 -87l-44 -77q15 6 39 6q67 0 112.5 -36.5t45.5 -123t-64 -132t-145 -45.5t-133 18v84l3 2q39 -15 94 -15t87.5 23.5t32.5 67.5q0 76 -89 77q-47 0 -86 -15l-2 4v68l54 90q-166 7 -264 65v128l4 4q119 -89 292 -89q209 0 209 164
q0 88 -54.5 125t-180 88t-188.5 112.5t-62 177t95 186t239 70.5t251 -44v-121l-5 -2q-99 52 -233 52q-212 4 -216 -142q0 -51 16 -68q16 -16 22 -24q8 -8 22 -18q20 -14 54 -30l31 -14q9 -4 37 -15q159 -62 228.5 -134.5t69.5 -189.5z" />
    <glyph glyph-name="scircumflex.smcp" horiz-adv-x="821" 
d="M377 -24q-167 0 -284 65v128l4 4q119 -89 292 -89q209 0 209 164q0 88 -54.5 125t-180 88t-188.5 112.5t-62 177t95 186t239 70.5t251 -44v-121l-5 -2q-99 52 -233 52q-212 4 -216 -142q0 -51 16 -68q16 -16 22 -24q8 -8 22 -18q20 -14 54 -30l31 -14q9 -4 37 -15
q159 -62 228.5 -134.5t69.5 -197t-90 -199t-257 -74.5zM244 1080l-62 61l218 250h65l224 -250l-62 -61l-197 179z" />
    <glyph glyph-name="scommaaccent.smcp" horiz-adv-x="821" 
d="M341 -171l-2 74l130 11l13 -16q0 -166 -80 -315h-95q34 112 34 246zM377 -24q-167 0 -284 65v128l4 4q119 -89 292 -89q209 0 209 164q0 88 -54.5 125t-180 88t-188.5 112.5t-62 177t95 186t239 70.5t251 -44v-121l-5 -2q-99 52 -233 52q-212 4 -216 -142q0 -51 16 -68
q16 -16 22 -24q8 -8 22 -18q20 -14 54 -30l31 -14q9 -4 37 -15q159 -62 228.5 -134.5t69.5 -197t-90 -199t-257 -74.5z" />
    <glyph glyph-name="germandbls.smcp" horiz-adv-x="1293" 
d="M837.5 -26q-154.5 0 -262.5 58v136h2q112 -71 253 -71q91 0 141.5 48.5t50.5 117.5q0 97 -80 136t-227 40q-45 0 -67 -1l-22 7l230 404q-58 17 -143 17q-350 0 -350 -369v-497h-141v499q0 323 227 437q125 62 294.5 62t314.5 -71v-5l-215 -367q145 1 241 -79
q36 -30 60.5 -86.5t24.5 -126.5q0 -121 -88.5 -205t-243 -84z" />
    <glyph glyph-name="t.smcp" horiz-adv-x="927" 
d="M892 985v-127h-354v-858h-141v858h-360v127h855z" />
    <glyph glyph-name="tbar.smcp" horiz-adv-x="942" 
d="M899 858h-353v-363h176v-102h-176v-393h-142v393h-190v102h190v363h-359v127h854v-127z" />
    <glyph glyph-name="tcaron.smcp" horiz-adv-x="927" 
d="M892 985v-127h-354v-858h-141v858h-360v127h855zM503 1082h-65l-224 251l62 58l197 -177l186 177l62 -58z" />
    <glyph glyph-name="uni0163.smcp" horiz-adv-x="927" 
d="M538 0h-13l-58 -97q13 6 39 6q67 0 113 -36.5t46 -122.5t-64.5 -132t-144.5 -46t-134 18v84l4 2q39 -15 94 -15t87.5 23.5t32.5 67.5q0 76 -89 77q-47 0 -86 -15l-2 4v68l69 114h-35v858h-360v127h855v-127h-354v-858z" />
    <glyph glyph-name="uni021B.smcp" horiz-adv-x="927" 
d="M400 -171l-2 74l131 11l13 -16q0 -166 -80 -315h-95q34 112 33 246zM37 985h855v-127h-354v-858h-141v858h-360v127z" />
    <glyph glyph-name="u.smcp" horiz-adv-x="1158" 
d="M580 -20q-204 0 -317.5 108.5t-113.5 304.5v594h140v-581q0 -145 77 -224.5t216.5 -79.5t216 79.5t76.5 224.5v581h136v-594q0 -195 -113.5 -304t-317.5 -109z" />
    <glyph glyph-name="uacute.smcp" horiz-adv-x="1158" 
d="M580 -20q-204 0 -317.5 108.5t-113.5 304.5v594h140v-581q0 -145 77 -224.5t216.5 -79.5t216 79.5t76.5 224.5v581h136v-594q0 -195 -113.5 -304t-317.5 -109zM456 1074l-50 73l285 266l97 -100l-6 -21z" />
    <glyph glyph-name="ubreve.smcp" horiz-adv-x="1158" 
d="M580 -20q-204 0 -317.5 108.5t-113.5 304.5v594h140v-581q0 -145 77 -224.5t216.5 -79.5t216 79.5t76.5 224.5v581h136v-594q0 -195 -113.5 -304t-317.5 -109zM579 1100q-110 0 -180.5 69t-70.5 188l95 11l3 -3q4 -71 47 -114t110 -43t110.5 43t45.5 112l4 5l91 -11
q0 -117 -72.5 -187t-182.5 -70z" />
    <glyph glyph-name="ucircumflex.smcp" horiz-adv-x="1158" 
d="M580 -20q-204 0 -317.5 108.5t-113.5 304.5v594h140v-581q0 -145 77 -224.5t216.5 -79.5t216 79.5t76.5 224.5v581h136v-594q0 -195 -113.5 -304t-317.5 -109zM391 1082l-61 61l217 250h66l223 -250l-61 -61l-198 178z" />
    <glyph glyph-name="udieresis.smcp" horiz-adv-x="1158" 
d="M580 -20q-204 0 -317.5 108.5t-113.5 304.5v594h140v-581q0 -145 77 -224.5t216.5 -79.5t216 79.5t76.5 224.5v581h136v-594q0 -195 -113.5 -304t-317.5 -109zM766 1173q-38 0 -65 27t-27 65t27 65t65 27t66 -28t28 -65t-28 -64t-66 -27zM409 1173q-38 0 -65 27t-27 65
t27 65t65 27t66 -27t28 -65t-28 -65t-66 -27z" />
    <glyph glyph-name="uni1EE5.smcp" horiz-adv-x="1158" 
d="M581 -341q-39 0 -68 29t-29 69t29 68t68 28t68 -28t29 -68t-29 -69t-68 -29zM580 -20q-204 0 -317.5 108.5t-113.5 304.5v594h140v-581q0 -145 77 -224.5t216.5 -79.5t216 79.5t76.5 224.5v581h136v-594q0 -195 -113.5 -304t-317.5 -109z" />
    <glyph glyph-name="ugrave.smcp" horiz-adv-x="1158" 
d="M580 -20q-204 0 -317.5 108.5t-113.5 304.5v594h140v-581q0 -145 77 -224.5t216.5 -79.5t216 79.5t76.5 224.5v581h136v-594q0 -195 -113.5 -304t-317.5 -109zM696 1074l-327 218l-4 21l97 100l285 -266z" />
    <glyph glyph-name="uhungarumlaut.smcp" horiz-adv-x="1158" 
d="M580 -20q-204 0 -317.5 108.5t-113.5 304.5v594h140v-581q0 -145 77 -224.5t216.5 -79.5t216 79.5t76.5 224.5v581h136v-594q0 -195 -113.5 -304t-317.5 -109zM737 1078l-70 37l160 294l106 -39l2 -20zM428 1078l-71 37l161 294l108 -39l1 -20z" />
    <glyph glyph-name="umacron.smcp" horiz-adv-x="1158" 
d="M580 -20q-204 0 -317.5 108.5t-113.5 304.5v594h140v-581q0 -145 77 -224.5t216.5 -79.5t216 79.5t76.5 224.5v581h136v-594q0 -195 -113.5 -304t-317.5 -109zM313 1182v106h534v-106h-534z" />
    <glyph glyph-name="uogonek.smcp" horiz-adv-x="1158" 
d="M875 987h136v-594q0 -147 -66 -246.5t-189 -140.5q-166 -114 -166 -237q0 -35 24 -59q22 -24 64 -24.5t63 7.5l7 -4v-91q-36 -13 -112 -13t-129 39t-53 112q0 136 151 244h-24q-205 0 -318.5 108.5t-113.5 304.5v594h140v-581q0 -145 77 -224.5t216.5 -79.5t216 79.5
t76.5 224.5v581z" />
    <glyph glyph-name="uring.smcp" horiz-adv-x="1158" 
d="M580 -20q-204 0 -317.5 108.5t-113.5 304.5v594h140v-581q0 -145 77 -224.5t216.5 -79.5t216 79.5t76.5 224.5v581h136v-594q0 -195 -113.5 -304t-317.5 -109zM582 1151q40 0 67 27t27 66t-27 66t-67 27t-67 -27t-27 -66t27 -66t67 -27zM582 1072q-77 0 -126.5 49.5
t-49.5 122t49.5 121t126.5 48.5t125.5 -47.5t48.5 -122t-48.5 -123t-125.5 -48.5z" />
    <glyph glyph-name="utilde.smcp" horiz-adv-x="1158" 
d="M580 -20q-204 0 -317.5 108.5t-113.5 304.5v594h140v-581q0 -145 77 -224.5t216.5 -79.5t216 79.5t76.5 224.5v581h136v-594q0 -195 -113.5 -304t-317.5 -109zM433 1344q62 0 150.5 -36t126 -36t59.5 20.5t22 57.5l6 4l91 -21q0 -82 -46.5 -129.5t-108 -48.5t-150 37.5
t-126 38.5t-58.5 -21.5t-21 -58.5l-4 -4l-93 20q0 74 45 125.5t107 51.5z" />
    <glyph glyph-name="v.smcp" horiz-adv-x="1016" 
d="M987 985l2 -6l-440 -979h-82l-439 979l2 6h145l337 -791l341 791h134z" />
    <glyph glyph-name="w.smcp" horiz-adv-x="1500" 
d="M1460 985l2 -6l-337 -979h-103l-261 760l-7 31l-270 -791h-104l-343 979l2 6h138l249 -762l8 -39l9 39l259 762h106l261 -760l9 -43l9 45l246 758h127z" />
    <glyph glyph-name="wacute.smcp" horiz-adv-x="1500" 
d="M1460 985l2 -6l-337 -979h-103l-261 760l-7 31l-270 -791h-104l-343 979l2 6h138l249 -762l8 -39l9 39l259 762h106l261 -760l9 -43l9 45l246 758h127zM951 1290l-325 -218l-51 73l285 266l97 -100z" />
    <glyph glyph-name="wcircumflex.smcp" horiz-adv-x="1500" 
d="M1460 985l2 -6l-337 -979h-103l-261 760l-7 31l-270 -791h-104l-343 979l2 6h138l249 -762l8 -39l9 39l259 762h106l261 -760l9 -43l9 45l246 758h127zM747 1259l-187 -179l-61 61l218 250h65l223 -250l-61 -61z" />
    <glyph glyph-name="wdieresis.smcp" horiz-adv-x="1500" 
d="M1460 985l2 -6l-337 -979h-103l-261 760l-7 31l-270 -791h-104l-343 979l2 6h138l249 -762l8 -39l9 39l259 762h106l261 -760l9 -43l9 45l246 758h127zM935 1171q-38 0 -65 27t-27 65t27 65t65 27t66.5 -27.5t28.5 -65t-28.5 -64.5t-66.5 -27zM578 1171q-38 0 -65 27
t-27 65t27 65t65 27t66 -27t28 -65t-28 -65t-66 -27z" />
    <glyph glyph-name="wgrave.smcp" horiz-adv-x="1500" 
d="M1460 985l2 -6l-337 -979h-103l-261 760l-7 31l-270 -791h-104l-343 979l2 6h138l249 -762l8 -39l9 39l259 762h106l261 -760l9 -43l9 45l246 758h127zM866 1072l-328 218l-4 21l97 100l285 -266z" />
    <glyph glyph-name="x.smcp" horiz-adv-x="1007" 
d="M586 505l386 -499l-2 -6h-145l-328 423l-324 -423h-139l-2 6l391 502l-367 471l2 6h147l303 -397l304 397h139l2 -6z" />
    <glyph glyph-name="y.smcp" horiz-adv-x="979" 
d="M424 0v391l-389 588l2 6h140l315 -477l312 477h136l2 -6l-387 -588v-391h-131z" />
    <glyph glyph-name="yacute.smcp" horiz-adv-x="979" 
d="M424 0v391l-389 588l2 6h140l315 -477l312 477h136l2 -6l-387 -588v-391h-131zM359 1072l-50 73l285 266l97 -100l-6 -21z" />
    <glyph glyph-name="ycircumflex.smcp" horiz-adv-x="979" 
d="M424 0v391l-389 588l2 6h140l315 -477l312 477h136l2 -6l-387 -588v-391h-131zM294 1080l-61 61l218 250h65l223 -250l-61 -61l-198 179z" />
    <glyph glyph-name="ydieresis.smcp" horiz-adv-x="979" 
d="M424 0v391l-389 588l2 6h140l315 -477l312 477h136l2 -6l-387 -588v-391h-131zM669 1171q-38 0 -65 27t-27 65t27 65t65 27t66 -27.5t28 -65t-28 -64.5t-66 -27zM312 1171q-38 0 -65 27t-27 65t27 65t65 27t66 -27t28 -65t-28 -65t-66 -27z" />
    <glyph glyph-name="ygrave.smcp" horiz-adv-x="979" 
d="M424 0v391l-389 588l2 6h140l315 -477l312 477h136l2 -6l-387 -588v-391h-131zM600 1072l-328 218l-4 21l97 100l285 -266z" />
    <glyph glyph-name="uni0233.smcp" horiz-adv-x="979" 
d="M424 0v391l-389 588l2 6h140l315 -477l312 477h136l2 -6l-387 -588v-391h-131zM216 1180v107h534v-107h-534z" />
    <glyph glyph-name="uni1EF9.smcp" horiz-adv-x="979" 
d="M424 0v391l-389 588l2 6h140l315 -477l312 477h136l2 -6l-387 -588v-391h-131zM336.5 1342q62.5 0 151.5 -36t125.5 -36t58.5 20.5t22 57.5l6 4l91 -21q0 -82 -46.5 -129.5t-108 -48.5t-150 37.5t-126 38.5t-58.5 -21.5t-21 -58.5l-4 -4l-93 20q0 74 45 125.5t107.5 51.5
z" />
    <glyph glyph-name="z.smcp" horiz-adv-x="960" 
d="M894 121v-121h-825v65l624 806h-617v119h808v-63l-620 -806h630z" />
    <glyph glyph-name="zacute.smcp" horiz-adv-x="960" 
d="M894 121v-121h-825v65l624 806h-617v119h808v-63l-620 -806h630zM678 1290l-326 -218l-50 73l284 266l97 -100z" />
    <glyph glyph-name="zcaron.smcp" horiz-adv-x="960" 
d="M894 121v-121h-825v65l624 806h-617v119h808v-63l-620 -806h630zM514 1082h-65l-224 251l62 58l197 -177l186 177l62 -58z" />
    <glyph glyph-name="zdotaccent.smcp" horiz-adv-x="960" 
d="M894 121v-121h-825v65l624 806h-617v119h808v-63l-620 -806h630zM477 1167q-39 0 -68 29t-29 69t29 68t68 28t67.5 -28t28.5 -68t-28.5 -69t-67.5 -29z" />
    <glyph glyph-name="zero.osf" horiz-adv-x="1171" 
d="M238 492q0 -174 94 -278t256 -104t254 102t92 276t-94 278q-94 105 -256 105t-254 -102t-92 -277zM99 486q0 236 134 378q133 142 353 143q220 -1 353 -141t133 -375t-133 -375t-354 -140t-353 137t-133 373z" />
    <glyph glyph-name="one.osf" horiz-adv-x="597" 
d="M302 0v810l-242 -123v136l350 173h26v-996h-134z" />
    <glyph glyph-name="two.osf" horiz-adv-x="966" 
d="M89 0v95q26 17 100 63q246 155 321 228q122 119 146 178t24 106q-2 212 -256 213q-179 0 -312 -120l-4 2l-2 127q138 115 324 115t288 -84t103 -243q0 -189 -200 -356q-96 -80 -258 -188l-26 -17l2 -2q17 6 24 6h536v-123h-810z" />
    <glyph glyph-name="three.osf" horiz-adv-x="936" 
d="M849 125q0 -188 -114 -293q-114 -106 -308 -106t-341 110v136l9 4q130 -127 335 -127q127 0 207 72t80 209q0 244 -322 248h-84v117l74 2q125 0 197 56q72 55 72 143t-64 138q-63 50 -166 50q-184 0 -299 -100l-6 4v115q123 104 319 104q152 0 252 -75t99 -211
q0 -181 -158 -265q218 -74 218 -331z" />
    <glyph glyph-name="four.osf" horiz-adv-x="1083" 
d="M709 115v654l-484 -654h484zM1028 115v-115h-196v-274h-123v274h-672v54l702 951h93v-890h196z" />
    <glyph glyph-name="five.osf" horiz-adv-x="964" 
d="M881 135q1 -195 -127 -302t-318 -107t-337 82v123l11 6q151 -95 308 -95t245 80q87 80 87 212t-82 206t-243 75q-161 0 -297 -35l27 603h675v-119h-560l-15 -352q76 20 192 20q214 0 324 -101t110 -296z" />
    <glyph glyph-name="six.osf" horiz-adv-x="1051" 
d="M546 95q128 1 207 81t80 204t-70 197q-71 75 -195 75t-212 -78t-103 -194q60 -285 293 -285zM590 778q174 0 276 -104t102 -282t-117 -300q-117 -120 -315 -120t-315 147q-116 147 -115 430q0 346 151 539t396 193q138 0 228 -41v-117l-4 -2q-97 39 -220 39
q-197 0 -305 -156t-114 -429q106 203 352 203z" />
    <glyph glyph-name="seven.osf" horiz-adv-x="889" 
d="M181 -274v6l521 1123h-663v128h823v-65l-544 -1192h-137z" />
    <glyph glyph-name="eight.osf" horiz-adv-x="1014" 
d="M508 84q123 0 195 58t70 155q-3 97 -65 155t-215 127q-30 13 -37 15q-225 -108 -221 -294q0 -104 75 -160t198 -56zM274 960q0 -86 60 -143q60 -58 195 -113q216 110 216 242q0 102 -65 161q-64 59 -170 59t-171 -60t-65 -146zM503 -28q-186 0 -294 83q-107 83 -108 224
q-4 225 253 365q-214 119 -214 311q0 147 104 237t263 89q159 0 265 -84q106 -85 107 -249q0 -164 -240 -295q138 -67 202 -145t66 -214q2 -134 -108 -228t-296 -94z" />
    <glyph glyph-name="nine.osf" horiz-adv-x="1037" 
d="M477 302q121 0 207 76t107 190q-30 154 -109 236t-195 82q-117 0 -193 -83t-76 -211t69 -210q69 -80 190 -80zM505 1007q195 0 313 -158t118 -459q0 -300 -133 -482t-377 -182q-155 0 -264 41v121l4 6q108 -47 255 -47q190 0 282 141t101 381q-114 -188 -340 -188
q-171 0 -277 109q-105 110 -105 294t114 304q115 119 309 119z" />
    <glyph glyph-name="zero.sinf" horiz-adv-x="726" 
d="M364 -205q81 0 128 67q46 67 46 193q0 125 -47 195t-127 70t-128 -70q-46 -70 -46 -196t46 -192q46 -67 128 -67zM363 -294q-132 0 -213 90t-81 258t82 261t212 93t212 -93t82 -261t-81 -258t-213 -90z" />
    <glyph glyph-name="one.sinf" horiz-adv-x="426" 
d="M205 -279v536l-160 -63v121l260 98h15v-692h-115z" />
    <glyph glyph-name="two.sinf" horiz-adv-x="636" 
d="M432 214q0 104 -149 104q-117 0 -201 -76l-2 2v99q99 74 217 74t187 -49q69 -50 69 -130t-43 -134t-139 -124q-141 -102 -151 -166h363v-93h-518q-4 153 199 303q98 72 133 110t35 80z" />
    <glyph glyph-name="three.sinf" horiz-adv-x="619" 
d="M559 -78q0 -99 -74 -158q-73 -58 -199 -58t-213 50v95l1 2q78 -56 205 -56q76 0 125 34q48 35 48 93t-39 86t-102 29h-106v80h95q54 0 88 27t35 74q0 104 -151 104q-112 0 -177 -45h-2v95q82 43 193 43t179 -44q68 -45 68 -137t-95 -148q121 -45 121 -166z" />
    <glyph glyph-name="four.sinf" horiz-adv-x="681" 
d="M408 -65v333l-253 -333h253zM631 -65v-76h-115v-138h-108v138h-378v46l393 514h93v-484h115z" />
    <glyph glyph-name="five.sinf" horiz-adv-x="627" 
d="M286 -294q-116 0 -217 39v99h2q99 -47 191 -47q181 0 181 138q0 52 -42 86q-42 35 -132 35t-185 -22l-2 3l26 367h419v-93h-330l-15 -183q50 13 148 13q98 1 164 -53t66 -161t-79 -164t-195 -57z" />
    <glyph glyph-name="six.sinf" horiz-adv-x="672" 
d="M344 -209q67 -1 110 39t43 96t-37 92q-36 38 -102 38t-114 -37t-63 -88q31 -140 163 -140zM385 149q97 0 159 -61t63 -160q0 -100 -74 -162t-200 -62t-198 80t-72 245t94 274t251 108q89 0 145 -20v-88l-4 -3q-65 22 -136 22q-115 0 -174 -79t-64 -198q72 104 210 104z
" />
    <glyph glyph-name="seven.sinf" horiz-adv-x="579" 
d="M48 296v106h505v-56l-283 -625h-114l-3 2l271 573h-376z" />
    <glyph glyph-name="eight.sinf" horiz-adv-x="668" 
d="M175 -93q0 -59 44 -89q43 -30 115 -30t115 30t43 76t-40 74q-40 30 -132 60l-44 17q-101 -52 -101 -138zM334 335q-60 0 -96 -26t-35 -67q0 -41 28 -61t138 -64q101 48 100 118q0 45 -37 73q-38 28 -98 27zM600 -112q0 -74 -74 -128t-196 -54t-192 49t-69 139
q0 117 132 186q-106 60 -106 152t68 140t171 48t173 -45q70 -46 70 -137t-123 -156q78 -37 112 -78t34 -116z" />
    <glyph glyph-name="nine.sinf" horiz-adv-x="673" 
d="M320 54q115 0 172 93q-20 173 -170 173q-65 0 -108 -38t-43 -98t39 -94q39 -36 110 -36zM330 417q126 0 200 -85t73 -241q0 -382 -327 -381q-97 0 -166 22v97l2 2q71 -32 158 -32q210 0 223 251q-71 -84 -186 -84t-181 56t-66 160t72 170q72 65 198 65z" />
    <glyph glyph-name="zero.tf" horiz-adv-x="1014" 
d="M508 106q138 0 220 132t82 372t-82 375q-82 136 -220 136t-218 -136t-81 -376q1 -239 81 -371t218 -132zM953 610q1 -304 -123 -470t-324 -166t-323 167q-122 167 -122 469t125 472t324 171q199 0 321 -170t122 -473z" />
    <glyph glyph-name="one.tf" horiz-adv-x="1014" 
d="M547 0v1044l-312 -154h-8v140l428 221h30v-1251h-138z" />
    <glyph glyph-name="two.tf" horiz-adv-x="1014" 
d="M504 1132q-118 0 -206 -42t-136 -94l-4 2l-2 123q138 134 360 134q164 1 270 -89t106 -227t-68 -237t-216 -219q-148 -120 -224 -212t-84 -148h623v-123h-795q-7 235 352 544q153 130 214 208q60 78 60 170t-66 150q-66 60 -184 60z" />
    <glyph glyph-name="three.tf" horiz-adv-x="1014" 
d="M482 -28q-200 0 -346 93v136l4 2q128 -114 335 -114q133 0 221 70t88 193q0 231 -358 234l-98 2v119h98q140 2 222 57q82 56 82 156t-71 158t-192 58q-179 0 -292 -92l-2 2v119q137 91 309 91t278 -81q106 -82 106 -229q0 -188 -175 -281q219 -71 225 -317
q4 -168 -115 -272t-319 -104z" />
    <glyph glyph-name="four.tf" horiz-adv-x="1014" 
d="M678 397v631l-438 -631h438zM981 397v-125h-177v-272h-126v272h-628v58l648 919h106v-852h177z" />
    <glyph glyph-name="five.tf" horiz-adv-x="1014" 
d="M488 -28q-110 0 -185 19t-165 63v136h2q168 -93 324 -93q156 -1 240 73t84 198t-81 199t-239 75t-302 -42l-4 3l39 630h674v-121h-557l-18 -365q74 22 192 22q207 0 323 -103q116 -104 116 -294q-1 -190 -131 -295t-312 -105z" />
    <glyph glyph-name="six.tf" horiz-adv-x="1014" 
d="M564 642q-124 0 -208 -78t-95 -193q57 -276 295 -276q116 0 192 79q76 80 76 200t-68 194t-192 74zM590 769q170 0 272 -104q102 -105 102 -279t-116 -295t-310 -121t-314 145t-120 421q0 343 152 530t401 187q138 0 229 -37v-118l-5 -1q-91 35 -220 35q-197 0 -301 -148
t-114 -412q48 91 138 144q91 53 206 53z" />
    <glyph glyph-name="seven.tf" horiz-adv-x="1016" 
d="M112 1102v129h841v-66l-501 -1165h-145l473 1102h-668z" />
    <glyph glyph-name="eight.tf" horiz-adv-x="1014" 
d="M514 95q130 0 203 63t70 161t-73 156t-222 111q-45 17 -84 34q-175 -117 -173 -296q0 -112 75 -170q74 -58 204 -59zM760 944q0 90 -64 138t-178 48t-176 -50t-62 -132t66 -136q67 -54 209 -103l39 -16q166 104 166 251zM509 -28q-196 0 -308 88t-112 249q-4 222 218 361
q-173 106 -173 274q0 140 106 226t276 85q170 0 276 -76t107 -222q0 -184 -205 -311q119 -62 176 -136t59 -188q2 -154 -111 -252t-309 -98z" />
    <glyph glyph-name="nine.tf" horiz-adv-x="1014" 
d="M512 1134q-116 0 -194 -76q-80 -76 -80 -203t76 -203t188 -77q113 0 187 57t110 148q-19 168 -95 261t-192 93zM530 1257q188 0 300 -150t112 -461t-130 -488t-373 -177q-160 0 -270 45v125l6 2q119 -52 251 -52q186 -2 276 130q89 132 100 372q-106 -153 -297 -153
t-299 109q-108 108 -107 287q0 179 122 295t309 116z" />
    <glyph glyph-name="zero.dnom" horiz-adv-x="726" 
d="M364 74q81 0 128 67q46 67 46 193t-47 196t-127 70t-128 -70q-46 -70 -46 -196t46 -193t128 -67zM363 -15q-132 0 -213 90t-81 258t82 261t212 93t212 -93t82 -261t-81 -258t-213 -90z" />
    <glyph glyph-name="one.dnom" horiz-adv-x="426" 
d="M205 0v536l-160 -63v121l260 99h15v-693h-115z" />
    <glyph glyph-name="two.dnom" horiz-adv-x="636" 
d="M432 495q0 43 -36 73t-98 30q-128 0 -216 -77l-2 2v99q99 74 217 74t187 -49t69 -129t-43 -136t-138 -125q-140 -99 -149 -164h360v-93h-518q-2 73 50 152q51 80 149 152t133 110t35 81z" />
    <glyph glyph-name="three.dnom" horiz-adv-x="619" 
d="M559 201q0 -99 -74 -157q-75 -58 -201 -59q-126 0 -211 52v93l1 2q78 -56 205 -56q76 0 125 34q48 34 48 92t-39 88q-39 29 -102 28h-106v80h95q54 0 88 27t35 74q0 104 -151 104q-112 0 -177 -44h-2v94q82 43 193 43t179 -44t68 -136q0 -93 -95 -149q121 -45 121 -166z
" />
    <glyph glyph-name="four.dnom" horiz-adv-x="681" 
d="M408 214v333l-253 -333h253zM631 214v-76h-115v-138h-108v138h-378v46l393 514h93v-484h115z" />
    <glyph glyph-name="five.dnom" horiz-adv-x="627" 
d="M443 208q0 128 -174 128q-90 0 -185 -23l-2 4l26 366h419v-93h-330l-15 -182q61 13 127 13q119 0 185 -54t66 -161t-79 -164t-195 -57t-217 39v99h2q99 -47 191 -47t136 36t45 96z" />
    <glyph glyph-name="six.dnom" horiz-adv-x="672" 
d="M344 71q67 0 110 39t43 95t-37 93q-36 37 -102 37t-114 -37t-63 -88q31 -139 163 -139zM385 417q97 0 159 -57t63 -153q0 -96 -74 -160t-200 -64t-198 80t-72 245t94 274t251 109q88 0 145 -19v-89l-4 -2q-67 20 -136 20q-117 0 -176 -81t-64 -203q72 100 212 100z" />
    <glyph glyph-name="seven.dnom" horiz-adv-x="579" 
d="M48 575v106h505v-55l-283 -626h-114l-3 2l271 573h-376z" />
    <glyph glyph-name="eight.dnom" horiz-adv-x="668" 
d="M175 186q0 -58 45 -88q46 -30 118 -31q72 0 113 30q41 29 41 77t-40 80t-132 64l-31 12q-114 -50 -114 -144zM473 514q-1 44 -39 72t-98 28t-95 -26q-34 -26 -34 -67t38 -69t126 -55q102 50 102 117zM600 181q0 -88 -71 -142t-194 -54t-195 49t-71 139q0 121 141 190
q-115 61 -115 151t68 138t171 48t173 -45t70 -137t-125 -157q80 -37 114 -79t34 -101z" />
    <glyph glyph-name="nine.dnom" horiz-adv-x="673" 
d="M320 333q115 0 172 93q-20 173 -170 174q-65 0 -108 -38t-43 -98t39 -96t110 -35zM330 696q126 0 200 -84t73 -241q0 -382 -327 -382q-97 0 -166 22v97l2 2q71 -32 158 -32q210 0 223 252q-73 -82 -187 -82t-180 55t-66 159t72 169t198 65z" />
    <glyph glyph-name="zero.numr" horiz-adv-x="726" 
d="M364 633q81 0 128 67q46 67 46 193q0 125 -47 195t-127 70t-128 -70q-46 -70 -46 -196t46 -192q46 -67 128 -67zM363 544q-132 0 -213 90t-81 258t82 260t212 94q130 0 212 -94t82 -260q0 -168 -81 -258t-213 -90z" />
    <glyph glyph-name="one.numr" horiz-adv-x="426" 
d="M205 559v536l-160 -64v121l260 99h15v-692h-115z" />
    <glyph glyph-name="two.numr" horiz-adv-x="636" 
d="M432 1054q0 42 -36 72t-98 30q-128 0 -216 -76l-2 2v98q99 74 217 74t187 -48q69 -50 69 -130t-43 -136t-138 -125q-140 -99 -149 -163h360v-93h-518q-4 153 199 303q98 72 133 110t35 82z" />
    <glyph glyph-name="three.numr" horiz-adv-x="619" 
d="M559 760q0 -99 -74 -158q-75 -58 -201 -58t-211 52v93l1 2q78 -56 205 -56q76 0 125 33q48 34 48 92t-39 88q-39 29 -102 29h-106v80h95q54 0 88 27t35 74q0 104 -151 104q-112 0 -177 -45h-2v95q82 43 193 43t179 -44t68 -137t-95 -149q121 -45 121 -165z" />
    <glyph glyph-name="four.numr" horiz-adv-x="681" 
d="M408 773v333l-253 -333h253zM631 773v-77h-115v-137h-108v137h-378v47l393 514h93v-484h115z" />
    <glyph glyph-name="five.numr" horiz-adv-x="627" 
d="M560 764q0 -108 -79 -164t-195 -56t-217 39v98h2q97 -47 190 -47q182 1 182 139q0 53 -42 87t-132 34t-185 -23l-2 4l26 367h419v-93h-330l-15 -183q61 13 127 13q119 0 185 -54t66 -161z" />
    <glyph glyph-name="six.numr" horiz-adv-x="672" 
d="M344 629q67 0 110 39t43 95t-37 93q-36 38 -102 38t-114 -38t-63 -87q31 -140 163 -140zM385 976q97 0 159 -57t63 -153q0 -96 -74 -160t-200 -64t-198 80t-72 245t94 273t251 109q88 0 145 -18v-90l-4 -2q-67 20 -136 21q-117 0 -176 -81t-64 -204q72 101 212 101z" />
    <glyph glyph-name="seven.numr" horiz-adv-x="579" 
d="M48 1134v106h505v-56l-283 -625h-114l-3 1l271 574h-376z" />
    <glyph glyph-name="eight.numr" horiz-adv-x="668" 
d="M175 745q0 -59 45 -89q46 -30 118 -30t113 30t41 76q0 48 -40 81t-132 64l-31 11q-114 -50 -114 -143zM336 1173q-60 0 -95 -26q-34 -26 -34 -67t33 -66t131 -59q102 50 102 117q0 45 -38 73q-39 28 -99 28zM335 544q-123 0 -195 49t-71 139q0 121 141 190
q-115 60 -115 150t68 138t171 48t173 -44q70 -45 70 -137t-125 -157q80 -37 114 -79t34 -116q0 -73 -71 -127t-194 -54z" />
    <glyph glyph-name="nine.numr" horiz-adv-x="673" 
d="M320 892q115 0 172 93q-20 173 -170 173q-65 0 -108 -38t-43 -98t39 -94q39 -36 110 -36zM330 1255q126 0 200 -85t73 -241q0 -382 -327 -382q-97 0 -166 23v97l2 1q71 -32 158 -31q210 0 223 251q-73 -82 -187 -82t-180 55t-66 159t72 170q72 65 198 65z" />
    <glyph glyph-name="zero.sups" horiz-adv-x="726" 
d="M364 912q81 0 128 67q46 67 46 193t-47 196t-127 70t-128 -70q-46 -70 -46 -196t46 -193t128 -67zM363 823q-132 0 -213 90t-81 258t82 261t212 93t212 -93t82 -261t-81 -258t-213 -90z" />
    <glyph glyph-name="one.sups" horiz-adv-x="426" 
d="M205 838v536l-160 -63v121l260 98h15v-692h-115z" />
    <glyph glyph-name="two.sups" horiz-adv-x="636" 
d="M432 1333q0 43 -36 73t-98 29q-128 0 -216 -76l-2 2v99q99 74 217 74t187 -49t69 -129t-43 -137q-43 -56 -138 -124q-140 -99 -149 -164h360v-93h-518q-2 73 50 152q51 79 149 151q98 73 133 111t35 81z" />
    <glyph glyph-name="three.sups" horiz-adv-x="619" 
d="M559 1039q0 -99 -74 -157q-75 -58 -201 -59q-126 0 -211 52v93l1 2q78 -56 205 -56q76 0 125 34q48 34 48 92t-39 88q-39 28 -102 28h-106v80h95q54 0 88 27t35 74q0 104 -151 104q-112 0 -177 -45h-2v95q82 43 193 43t179 -44t68 -136t-95 -149q121 -45 121 -166z" />
    <glyph glyph-name="four.sups" horiz-adv-x="681" 
d="M408 1052v333l-253 -333h253zM631 1052v-76h-115v-138h-108v138h-378v46l393 514h93v-484h115z" />
    <glyph glyph-name="five.sups" horiz-adv-x="627" 
d="M286 823q-116 0 -217 39v99h2q97 -47 190 -47q182 0 182 138q0 54 -42 88t-132 33q-90 0 -185 -22l-2 3l26 367h419v-93h-330l-15 -182q61 13 127 13q119 0 185 -54t66 -161t-79 -164t-195 -57z" />
    <glyph glyph-name="six.sups" horiz-adv-x="672" 
d="M344 909q67 0 110 39q43 38 43 94t-37 94q-36 38 -102 37q-66 0 -114 -37t-63 -88q31 -139 163 -139zM385 1255q97 0 159 -57t63 -153q0 -96 -74 -160t-200 -64t-198 80t-72 245t94 274t251 109q88 0 145 -19v-89l-4 -2q-67 20 -136 20q-117 0 -176 -81t-64 -204
q72 101 212 101z" />
    <glyph glyph-name="seven.sups" horiz-adv-x="579" 
d="M48 1413v106h505v-56l-283 -625h-114l-3 2l271 573h-376z" />
    <glyph glyph-name="eight.sups" horiz-adv-x="668" 
d="M175 1024q0 -58 45 -88q46 -30 118 -31q72 0 113 30q41 29 41 77t-40 80t-132 64l-31 11q-114 -50 -114 -143zM473 1352q-1 44 -39 72t-98 28t-95 -26q-34 -26 -34 -67t33 -66t131 -59q102 50 102 118zM335 823q-123 0 -195 49t-71 139q0 121 141 190q-115 60 -115 150
t68 138q68 49 171 49t173 -45t70 -137t-125 -157q80 -37 114 -79t34 -116t-71 -128t-194 -53z" />
    <glyph glyph-name="nine.sups" horiz-adv-x="673" 
d="M320 1171q115 0 172 93q-20 173 -170 173q-65 0 -108 -38q-43 -37 -43 -97t39 -96t110 -35zM330 1534q126 0 200 -85t73 -241q0 -382 -327 -381q-97 0 -166 22v97l2 2q71 -32 158 -32q210 0 223 251q-73 -82 -187 -82t-180 55q-66 56 -66 160t72 169t198 65z" />
    <glyph glyph-name="zero.smcp" horiz-adv-x="1208" 
d="M606 106q170 0 268 106t98 286t-100 290t-269 111q-169 0 -267 -108q-98 -109 -98 -289t99 -288t269 -108zM1110 502q0 -242 -138 -384t-368 -142t-368 140t-137 381q0 242 139 388q140 146 368 146t366 -144t138 -385z" />
    <glyph glyph-name="one.smcp" horiz-adv-x="597" 
d="M302 0v832l-242 -121v136l350 173h26v-1020h-134z" />
    <glyph glyph-name="two.smcp" horiz-adv-x="966" 
d="M424 1031q184 0 290 -78q107 -78 107 -212q1 -134 -73 -221t-212 -172q-222 -136 -249 -205q-11 -19 -21 -24l2 -2q17 6 24 6h576v-123h-780q-2 128 76 218t231 192q15 9 59 38t62 40q17 11 51 36t48 43q13 18 39 52t26 98q-6 186 -259 190q-186 0 -309 -119l-4 1l-2 127
q134 115 318 115z" />
    <glyph glyph-name="three.smcp" horiz-adv-x="936" 
d="M427 -28q-191 0 -341 106v136l9 4q136 -121 333 -121q130 0 207 49q76 49 76 144q0 190 -301 194h-84v117l74 2q253 6 253 154t-229 148q-184 0 -299 -101l-6 4v117q123 105 299 105t274 -66t97 -188q1 -142 -139 -216q194 -65 193 -273q-1 -149 -113 -232t-303 -83z" />
    <glyph glyph-name="four.smcp" horiz-adv-x="1055" 
d="M681 322v499l-418 -499h418zM998 322v-115h-194v-207h-123v207h-616v54l646 761h93v-700h194z" />
    <glyph glyph-name="five.smcp" horiz-adv-x="964" 
d="M879 322q0 -164 -122 -254q-123 -90 -317 -90t-341 82v121l11 5q155 -93 314 -93t242 62q82 62 82 164q0 103 -77 163t-245 60t-298 -34l27 499h675v-119h-560l-15 -248q84 20 207 21q207 0 312 -88t105 -251z" />
    <glyph glyph-name="six.smcp" horiz-adv-x="1051" 
d="M546 95q130 0 209 63q79 62 79 168t-65 165t-192 59t-216 -71q-89 -70 -98 -181q67 -203 283 -203zM600 674q172 0 270 -92t98 -248t-115 -258q-115 -104 -309 -104t-317 129t-122 381t149 398t392 146q136 0 225 -39v-118l-3 -3q-89 37 -220 37q-198 0 -302 -115
t-108 -310q47 92 141 144t221 52z" />
    <glyph glyph-name="seven.smcp" horiz-adv-x="876" 
d="M39 879v128h808v-65l-463 -942h-138l-2 6l443 873h-648z" />
    <glyph glyph-name="eight.smcp" horiz-adv-x="1014" 
d="M512 84q128 0 196 44t66 121q-2 76 -68 122q-65 46 -161 72t-147 45q-168 -95 -165 -222q2 -90 77 -136q74 -46 202 -46zM508 910q-104 0 -164 -42q-62 -42 -62 -104q0 -64 64 -110q65 -46 216 -88l38 -11q143 91 143 193q0 74 -65 119q-66 43 -170 43zM504 -28
q-187 0 -295 74q-107 74 -108 198q-4 179 189 292q-141 82 -141 212t101 204q102 74 258 74t262 -70t107 -201q0 -131 -164 -243q192 -86 194 -248q2 -130 -107 -211t-296 -81z" />
    <glyph glyph-name="nine.smcp" horiz-adv-x="1037" 
d="M516 901q-122 0 -198 -63q-76 -62 -76 -168t64 -164t192 -59q128 0 217 69t97 180q-69 205 -296 205zM106 662q0 156 116 260t308 104q194 0 317 -131t122 -383t-148 -396t-391 -144q-141 0 -227 37v119l4 2q95 -37 219 -37q197 0 302 111q104 111 108 306
q-95 -188 -361 -188q-171 0 -270 92t-99 248z" />
    <glyph glyph-name="exclam.case" horiz-adv-x="512" 
d="M254 -15q-40 0 -63 24q-23 25 -23 59t22 58t63 23q41 0 63 -22q22 -23 23 -59q0 -36 -22 -60q-23 -23 -63 -23zM195 331l-11 956h142l-11 -956h-120z" />
    <glyph glyph-name="exclamdown.case" horiz-adv-x="512" 
d="M186 -54l9 951h122l9 -951h-140zM257 1080q-41 0 -63 23t-22 59t22 59q22 25 63 25t64 -24t23 -60q0 -34 -23 -58t-64 -24z" />
    <glyph glyph-name="question.case" horiz-adv-x="837" 
d="M324 -9q-41 0 -63 24t-23 59q0 34 22 58t64 24q41 0 63 -23q23 -23 23 -59t-22 -59q-22 -24 -64 -24zM344 1160q-156 0 -256 -93l-4 2v123q98 89 264 89t264 -84t98 -217q0 -132 -50 -206q-49 -74 -154 -160q-123 -91 -122 -262l-123 -2q0 123 33 199q34 77 120 141
t121 118q37 54 37 145t-61 149t-167 58z" />
    <glyph glyph-name="questiondown.case" horiz-adv-x="837" 
d="M493 91q156 0 257 93l4 -2v-122q-98 -90 -264 -90t-264 84t-98 217t50 207q49 74 153 159q123 91 123 262l123 2q1 -123 -33 -199t-120 -140t-121 -119q-37 -54 -37 -145t61 -149t166 -58zM514 1260q41 0 63 -24q23 -24 23 -59t-22 -59t-64 -23q-41 0 -63 23
q-23 22 -23 58t22 60t64 24z" />
    <glyph glyph-name="question.ss01" horiz-adv-x="899" 
d="M335 -11q-41 0 -63 24q-22 23 -22 59t22 58t63 22t64 -22t23 -57t-22 -59q-24 -24 -65 -25zM367 428q-82 0 -147 24v108l3 4q74 -20 144 -20q117 0 206 86t89 224q0 140 -80 219q-81 79 -217 79t-244 -68l-6 3v106q109 71 279 71t286 -107t115 -297q1 -190 -123 -311
t-305 -121z" />
    <glyph glyph-name="questiondown.ss01" horiz-adv-x="852" 
d="M521 557q82 0 147 -25v-108l-3 -3q-74 20 -144 20q-117 1 -206 -85t-89 -226t80 -218q81 -80 217 -80t244 69l6 -3v-107q-109 -71 -279 -71t-285 108q-115 107 -116 297t123 311t305 121zM553 996q41 0 63 -24t22 -60t-22 -57q-22 -23 -63 -23t-64 22t-24 58t23 60t65 24
z" />
    <glyph glyph-name="bullet.ss02" horiz-adv-x="657" 
d="M326 264l-183 254l183 253l190 -253z" />
    <glyph glyph-name="braceleft.case" horiz-adv-x="603" 
d="M477 -190q-125 0 -185 54t-59 183v327q0 80 -53 127t-107 46v123q54 0 108 45t54 121v329q0 127 59 181q60 54 183 54h54v-106h-43q-73 0 -104 -27t-30 -107v-350q0 -93 -61 -147t-118 -54v-8q59 0 119 -53t60 -144v-352q0 -82 32 -109t111 -27h32v-106h-52z" />
    <glyph glyph-name="braceright.case" horiz-adv-x="603" 
d="M372 834q0 -76 53 -121t106 -45v-122q-51 0 -105 -47t-54 -127v-327q0 -127 -60 -181t-184 -54h-54v106h34q76 0 111 26q34 26 34 108v352q0 91 60 145t117 54v6q-58 0 -118 55t-59 146v350q0 80 -32 107q-33 27 -106 27h-41v108h54q125 0 185 -54t59 -182v-330z" />
    <glyph glyph-name="bracketleft.case" horiz-adv-x="582" 
d="M518 1296h-207v-1382h207v-102h-324v1586h324v-102z" />
    <glyph glyph-name="bracketright.case" horiz-adv-x="584" 
d="M67 1398h324v-1588h-324v104h205v1380h-205v104z" />
    <glyph glyph-name="parenleft.case" horiz-adv-x="562" 
d="M106 618q0 465 236 709q57 60 116 90l48 -108q-110 -63 -190 -235t-81 -460q0 -286 82 -467t189 -240l-48 -106q-138 61 -245 271t-107 546z" />
    <glyph glyph-name="parenright.case" horiz-adv-x="562" 
d="M328 614q0 286 -81 458q-81 171 -189 237l46 108q121 -61 229 -243q56 -94 90 -239t33 -317q0 -340 -107 -548t-245 -269l-46 106q106 61 188 241t82 466z" />
    <glyph glyph-name="emdash.case" horiz-adv-x="1595" 
d="M134 566v117h1328v-117h-1328z" />
    <glyph glyph-name="endash.case" horiz-adv-x="958" 
d="M134 566v117h689v-117h-689z" />
    <glyph glyph-name="hyphen.case" horiz-adv-x="776" 
d="M134 566v117h508v-117h-508z" />
    <glyph glyph-name="uni00AD.case" horiz-adv-x="776" 
d="M134 566v115h508v-115h-508z" />
    <glyph glyph-name="guillemotleft.case" horiz-adv-x="996" 
d="M903 963v-15l-296 -321l296 -331v-11h-145l-309 341l311 337h143zM514 963v-15l-296 -321l296 -331v-11h-145l-309 341l311 337h143z" />
    <glyph glyph-name="guillemotright.case" horiz-adv-x="996" 
d="M484 285v15l296 320l-296 331v12h145l309 -341l-311 -337h-143zM93 285v15l296 320l-296 331v12h145l309 -341l-311 -337h-143z" />
    <glyph glyph-name="guilsinglleft.case" horiz-adv-x="605" 
d="M518 968v-15l-295 -318l295 -332v-13h-146l-307 341l311 337h142z" />
    <glyph glyph-name="guilsinglright.case" horiz-adv-x="605" 
d="M93 285v15l296 320l-296 331v12h145l309 -341l-311 -337h-143z" />
    <glyph glyph-name="cent.osf" horiz-adv-x="1066" 
d="M683 -188h-132v173q-210 24 -333 160t-123 352t124 356t334 165v175h132v-173q136 -6 238 -52v-119l-5 -4q-119 56 -265 56q-187 0 -299 -109q-112 -110 -112 -290t110 -290t283 -110t292 67l8 -5v-119q-119 -54 -252 -62v-171z" />
    <glyph glyph-name="currency.osf" horiz-adv-x="1323" 
d="M283 495q0 -156 110 -267t266 -111t266 111t110 267t-109 266t-266 110t-267 -110t-110 -266zM1154 493q0 -166 -100 -298l143 -145l-93 -91l-143 143q-132 -102 -300 -102t-296 97l-140 -138l-93 91l138 138q-108 136 -108 306t104 303l-132 130l93 95l132 -132
q131 100 303 100t304 -107l138 139l93 -95l-139 -139q96 -129 96 -295z" />
    <glyph glyph-name="dollar.osf" horiz-adv-x="901" 
d="M806 275q0 -121 -75 -196t-210 -92v-175h-130v171q-181 7 -290 71v127l3 1q138 -89 320 -89q255 0 256 175q0 56 -36 93t-85 56t-175 55t-198 100q-72 63 -72 183t83 190q84 70 224 83v164h132v-162q128 -7 222 -47v-125l-4 -2q-123 54 -274 54q-242 0 -242 -147
q0 -59 36 -98t198 -85q161 -46 239 -115t78 -190z" />
    <glyph glyph-name="Euro.osf" horiz-adv-x="1029" 
d="M701 101q129 0 235 50l8 -4l-19 -121q-91 -46 -255 -46t-298 91q-132 91 -180 255h-175l17 102h137q-5 66 0 153h-111l18 104h116q50 164 183 254q133 91 299 91t275 -45l-26 -114l-7 -3q-101 41 -220 41t-215 -59t-140 -165h500l-18 -104h-508q-6 -34 -6 -74t6 -79h482
l-17 -102h-438q43 -108 135 -167q93 -58 222 -58z" />
    <glyph glyph-name="uni20BD.osf" horiz-adv-x="925" 
d="M344 482h144q268 0 268 201q0 91 -60.5 144.5t-184.5 53.5t-167 -6v-393zM505 378h-161v-125h224v-106h-224v-147h-139v147h-171l1 106h170v125h-171l1 104h170v503q199 9 303 9q376 -6 380 -303q2 -153 -99.5 -233t-283.5 -80z" />
    <glyph glyph-name="uni20A8.osf" horiz-adv-x="817" 
d="M134 469h95q216 0 257 155h-382l28 111l358 -1q-26 162 -250 162h-136l26 111h676l-28 -111h-247q88 -58 98 -162h177l-28 -110h-154q-24 -108 -108 -177t-214 -86l359 -357l-2 -4h-160l-365 357v112z" />
    <glyph glyph-name="sterling.osf" horiz-adv-x="1003" 
d="M910 117v-117h-767l-3 11q121 128 121 319q0 43 -13 104h-174v115h149q-9 50 -9 95q0 181 117 284t282 103t271 -65v-128l-5 -4q-108 71 -240 71t-206 -63t-74 -183q0 -50 10 -110h404v-115h-384q11 -71 11 -103q0 -128 -56 -214h566z" />
    <glyph glyph-name="yen.osf" horiz-adv-x="988" 
d="M849 478v-111h-290v-132h290v-110h-290v-125h-129v125h-292v110h292v132h-292v111h236l-339 529h146l316 -510l315 510h139l-338 -529h236z" />
    <glyph glyph-name="arrowup.ss01" horiz-adv-x="1094" 
d="M108 331v194l441 439l440 -439v-194l-442 444z" />
    <glyph glyph-name="uni2197.ss01" horiz-adv-x="1094" 
d="M730 147l4 626l-626 -2l138 136h620l2 -622z" />
    <glyph glyph-name="arrowright.ss01" horiz-adv-x="1094" 
d="M445 147h-194l443 439l-443 442h194l439 -442z" />
    <glyph glyph-name="uni2198.ss01" horiz-adv-x="1094" 
d="M726 1048l138 -138l-2 -621h-620l-138 135l626 -1z" />
    <glyph glyph-name="arrowdown.ss01" horiz-adv-x="1094" 
d="M108 907l439 -443l442 443v-194l-440 -439l-441 439v194z" />
    <glyph glyph-name="uni2199.ss01" horiz-adv-x="1094" 
d="M346 1050l-3 -626l625 2l-138 -136h-620l-1 622z" />
    <glyph glyph-name="arrowleft.ss01" horiz-adv-x="1094" 
d="M646 151l-439 439l439 441h194l-443 -441l443 -439h-194z" />
    <glyph glyph-name="uni2196.ss01" horiz-adv-x="1094" 
d="M374 156l-138 138l2 622h620l138 -136l-625 2z" />
    <glyph glyph-name="ampersand.alt" horiz-adv-x="1245" 
d="M1205 735v-102h-159q7 -348 -121 -505t-396 -158q-194 0 -316 96t-122 264q0 123 70 215t193 136q-173 69 -173 269q0 148 103 234q104 86 248 86t226 -49v-117h-4q-86 52 -194 52t-178 -56t-71 -154q0 -98 56 -144q56 -47 177 -67v-100q-151 -19 -234 -93t-83 -194
t87 -188q87 -69 233 -69q194 0 291 126t85 416h-165v102h447z" />
    <glyph glyph-name="at.case" horiz-adv-x="1489" 
d="M653 568h244l-50 121l-67 190l-7 22h-2l-77 -231zM1156 421q130 0 131 279q-2 209 -138 353q-135 144 -373 144t-397 -160t-159 -414q0 -253 156 -411t404 -158t399 145h5l60 -80q-169 -169 -466 -169t-487 184q-189 184 -189 485t192 493t480 192t458 -176
q172 -175 172 -421q0 -195 -67 -297t-186 -103q-86 0 -133 39t-87 146h-309l-71 -174h-125l285 689h125l210 -476q26 -60 48 -85t62 -25z" />
    <glyph glyph-name="ampersand.smcp.alt" horiz-adv-x="1072" 
d="M1015 598v-90h-140q-15 -529 -434 -528q-162 0 -254 74t-92 207q0 199 205 286q-138 58 -138 211q0 121 87 190t207 69t197 -41v-103h-1q-80 43 -172 43t-147 -43q-56 -43 -56 -121q0 -145 196 -154v-95q-123 -17 -190 -78t-67 -153t64 -138q64 -48 174 -48
q155 0 230 103t77 319h-145v90h399z" />
    <glyph glyph-name="at.smcp" horiz-adv-x="1489" 
d="M653 421h244l-50 121l-67 190l-7 22h-2l-77 -231zM1156 274q132 0 131 279q-2 209 -138 353q-135 144 -373 144t-397 -160t-159 -413t156 -411t404 -159q248 0 399 145h5l60 -80q-169 -169 -467 -169t-487 185q-188 185 -188 485q0 299 192 491t480 192t458 -175
q172 -175 172 -421q0 -195 -67 -297t-186 -103q-86 0 -132 38t-88 146h-309l-71 -173h-125l285 689h125l210 -476q26 -60 48 -85t62 -25z" />
    </font>
</defs>
</svg>
