<?xml version="1.0" standalone="no"?>
<!DOCTYPE svg PUBLIC "-//W3C//DTD SVG 1.1//EN" "http://www.w3.org/Graphics/SVG/1.1/DTD/svg11.dtd" >
<svg xmlns="http://www.w3.org/2000/svg">
<metadata>
Created by FontPrep 20130207 at Fri May 26 15:12:37 2017
 By Lizzy Knight
Copyright (c) 2017 by Alfonso Garci'a - Latinotype Team. All rights reserved.
</metadata>
<defs>
<font id="cf5249d7ee7ce167e9a6e4145306a225" horiz-adv-x='1024' >
  <font-face 
    font-family="RawsonPro-RegularIt"
    font-weight="400"
    font-style="italic"
    font-stretch="normal"
    units-per-em="2048"
    panose-1="0 0 5 0 0 0 0 0 0 0"
    ascent="1638"
    descent="-410"
    x-height="964"
    cap-height="1231"
    bbox="-1212 -430 2454 1735"
    underline-thickness="93"
    underline-position="-93"
    slope="-7.5"
    unicode-range="U+0020-FB02"
  />
<missing-glyph horiz-adv-x="893" 
 />
    <glyph glyph-name="fi" unicode="fi" horiz-adv-x="990" 
d="M627 0l138 964h140l-138 -964h-140zM614 1335q60 0 110 -21l-17 -122l-3 -2q-36 20 -102 20t-122 -52t-72 -156l-6 -38h220l-17 -111h-218l-165 -1162h-140l166 1162h-127l17 111h125l5 38q22 162 119 248t227 85zM784 1246q0 42 29 70q29 26 69 26t64 -24t24 -65
t-29 -69t-68 -28t-64 24t-25 66z" />
    <glyph glyph-name="fl" unicode="fl" horiz-adv-x="873" 
d="M814 1326h137l-186 -1326h-139zM614 1335q67 0 110 -21l-17 -122l-3 -2q-40 20 -104 20t-120 -52t-72 -156l-6 -38h220l-17 -113h-218l-164 -1160h-139l164 1160h-127l17 113h125l5 38q22 162 119 248t227 85z" />
    <glyph glyph-name=".notdef" horiz-adv-x="893" 
 />
    <glyph glyph-name=".null" 
 />
    <glyph glyph-name="nonmarkingreturn" horiz-adv-x="681" 
 />
    <glyph glyph-name="space" unicode=" " horiz-adv-x="467" 
 />
    <glyph glyph-name="exclam" unicode="!" horiz-adv-x="465" 
d="M180 143q78 1 79 -77q0 -36 -26 -61t-63 -25t-58 21q-20 21 -20 57t24 60q24 25 64 25zM158 357l118 916h141l-140 -916h-119z" />
    <glyph glyph-name="quotedbl" unicode="&#x22;" horiz-adv-x="592" 
d="M413 819l54 417h116l11 -15l-93 -402h-88zM188 819l52 417h116l13 -15l-93 -402h-88z" />
    <glyph glyph-name="numbersign" unicode="#" horiz-adv-x="1016" 
d="M616 406l86 281h-276l-85 -281h275zM940 687h-141l-86 -281h166l-15 -97h-181l-59 -195h-97l59 195h-275l-60 -195h-96l59 195h-132l15 97h147l86 281h-174l15 97h188l60 197h97l-60 -197h276l59 197h97l-59 -197h124z" />
    <glyph glyph-name="dollar" unicode="$" horiz-adv-x="869" 
d="M576 1026q-264 0 -265 -170q0 -48 30 -78t64 -44q35 -14 135 -44q230 -70 229 -249q0 -137 -86 -221t-231 -103l-24 -177h-130l24 174q-151 7 -264 70l18 125l4 2q123 -88 292 -88q264 0 265 194q0 65 -53 99t-176 70t-184 92t-60 154q0 134 92 214t241 97l24 179h132
l-24 -177q119 -7 203 -47l-18 -124l-2 -2q-108 54 -236 54z" />
    <glyph glyph-name="percent" unicode="%" horiz-adv-x="1346" 
d="M789 249q0 -160 155 -160q80 -1 135 63t55 160q0 185 -144 185q-89 0 -145 -68t-56 -180zM934 -9q-128 0 -194 65t-66 184q0 164 93 260t221 96t194 -67t67 -190q0 -164 -93 -256q-94 -92 -222 -92zM253 899q0 -162 155 -162q78 1 134 65t56 160q0 184 -144 183
q-89 0 -145 -67t-56 -179zM151 20l961 1201h121l-961 -1201h-121zM398 639q-128 0 -194 65t-66 184q0 162 93 259t221 97t195 -68q68 -68 68 -189q0 -164 -94 -256q-95 -92 -223 -92z" />
    <glyph glyph-name="ampersand" unicode="&#x26;" horiz-adv-x="1174" 
d="M441 91q179 0 306 142l-269 340q-4 4 -35 47q-117 -58 -179 -132t-61 -180q0 -106 63 -162q63 -55 175 -55zM421 -30q-158 0 -257 83t-99 228q0 276 317 425q-78 123 -78 251t106 223t248 95t234 -59l-17 -116h-2q-95 60 -197 60t-171 -57t-69 -152q0 -63 36 -130
t116 -171l237 -307q86 151 126 374h121q-58 -290 -175 -469l190 -248h-156l-114 143q-164 -173 -396 -173z" />
    <glyph glyph-name="quotesingle" unicode="'" horiz-adv-x="368" 
d="M188 819l52 417h116l13 -15l-93 -402h-88z" />
    <glyph glyph-name="parenleft" unicode="(" horiz-adv-x="538" 
d="M222 330q0 -206 49 -356t118 -192l-65 -106q-95 45 -166 218q-70 173 -70 417t48 440q48 197 122 327q150 262 310 330l35 -107q-126 -72 -246 -306q-135 -257 -135 -665z" />
    <glyph glyph-name="parenright" unicode=")" horiz-adv-x="538" 
d="M471 780q0 -244 -48 -438q-83 -338 -278 -541q-80 -84 -154 -118l-36 107q125 72 247 306q135 257 135 665q0 205 -50 355t-119 193l67 106q95 -45 165 -218t71 -417z" />
    <glyph glyph-name="asterisk" unicode="*" horiz-adv-x="845" 
d="M506 706l-13 9l6 279l9 10l21 5l9 -5l67 -263l-7 -11zM283 771l-58 65l4 17l236 171l12 -2l15 -13l-2 -13l-196 -223zM780 905l-233 106l-3 11l9 22l9 8l263 -41l5 -9l-33 -90zM452 1035l-249 39l-4 10l32 89l28 6l221 -105l2 -11l-9 -20zM562 1061l-13 2l-11 15l197 236
l15 -1l51 -62l-54 -63zM497 1076l-9 6l-65 260l5 13l91 25l12 -12l-2 -277l-8 -9z" />
    <glyph glyph-name="plus" unicode="+" horiz-adv-x="889" 
d="M825 601l-17 -108h-307l-49 -346h-108l49 346h-305l14 108h308l48 347h108l-48 -347h307z" />
    <glyph glyph-name="comma" unicode="," horiz-adv-x="359" 
d="M-24 -272q73 182 82 309q0 6 5 84l131 13l15 -20q-28 -212 -148 -386h-85z" />
    <glyph glyph-name="hyphen" unicode="-" horiz-adv-x="752" 
d="M134 482l17 118h486l-17 -118h-486z" />
    <glyph glyph-name="period" unicode="." horiz-adv-x="396" 
d="M238 85q0 -40 -28 -67t-71 -27q-44 0 -67 24q-24 24 -24 64t28 68t73 28t67 -25t22 -65z" />
    <glyph glyph-name="slash" unicode="/" horiz-adv-x="811" 
d="M-32 -220l780 1616h127l-780 -1616h-127z" />
    <glyph glyph-name="zero" unicode="0" horiz-adv-x="1128" 
d="M525 95q166 -1 274 181t108 495q0 167 -68 267t-187 100q-171 0 -281 -188t-110 -499q1 -162 69 -259t195 -97zM510 -26q-186 0 -290 125t-105 361q1 367 157 583t391 216q185 0 287 -128t102 -366q0 -367 -154 -579t-388 -212z" />
    <glyph glyph-name="one" unicode="1" horiz-adv-x="672" 
d="M285 0l147 1050l-318 -145l-6 2l20 126l442 224h28l-175 -1257h-138z" />
    <glyph glyph-name="two" unicode="2" horiz-adv-x="960" 
d="M758 944q0 92 -58 142t-166 52q-108 0 -200 -42t-146 -94l-2 2l15 130q141 127 350 126q156 0 252 -78t96 -212q0 -168 -150 -316q-72 -70 -217 -183q-294 -227 -323 -348h614l-19 -123h-785q30 249 417 547q188 145 255 225t67 172z" />
    <glyph glyph-name="three" unicode="3" horiz-adv-x="951" 
d="M836 390q0 -198 -122 -308t-334 -110t-343 95l21 134l5 2q108 -114 308 -114q153 1 242 75t89 196t-69 174t-210 56l-108 2l16 119h108q133 -1 213 63t80 183q0 84 -59 134t-161 50q-173 0 -296 -91l-4 2l15 121q134 89 297 89t254 -72t91 -201q0 -237 -210 -328
q177 -74 177 -271z" />
    <glyph glyph-name="four" unicode="4" horiz-adv-x="1055" 
d="M225 398h423l86 619zM981 398l-17 -124h-204l-39 -274h-129l39 274h-590l-21 57l771 924h106l-121 -857h205z" />
    <glyph glyph-name="five" unicode="5" horiz-adv-x="962" 
d="M387 -28q-107 0 -181 19t-156 63l19 134l5 2q152 -93 310 -93t246 82q88 81 88 209q1 257 -254 258q-162 0 -308 -43l-3 4l130 631h644l-17 -121h-525l-78 -369q76 20 194 21q175 -1 269 -89t94 -246q0 -226 -142 -344t-335 -118z" />
    <glyph glyph-name="six" unicode="6" horiz-adv-x="1037" 
d="M242 374q27 -279 270 -279q123 0 202 87q79 86 79 212q-1 252 -229 252q-116 0 -204 -78t-118 -194zM747 1259q136 0 214 -38l-15 -117l-6 -2q-76 35 -208 36q-207 0 -330 -155t-153 -398q119 186 349 186q149 -1 244 -91q94 -90 94 -269t-124 -310t-312 -131
q-189 0 -293 121t-105 333q0 387 178 611t467 224z" />
    <glyph glyph-name="seven" unicode="7" horiz-adv-x="871" 
d="M160 0l594 1108h-618l19 128h754l18 -67l-622 -1169h-145z" />
    <glyph glyph-name="eight" unicode="8" horiz-adv-x="1051" 
d="M494 95q128 0 209 67q81 66 81 164t-57 150t-149 89q-92 36 -126 55q-222 -112 -221 -315q0 -101 68 -155q67 -54 195 -55zM834 956q0 80 -58 130t-170 50t-178 -57q-67 -57 -67 -137t56 -131t181 -104q7 -1 18 -7t13 -6q110 60 158 121q47 61 47 141zM482 -28
q-195 0 -297 80q-101 80 -101 227q0 242 270 397q-140 96 -140 246t114 244t284 94t266 -72t96 -191q0 -118 -58 -199t-181 -154q101 -56 147 -122t45 -166q0 -166 -125 -275t-320 -109z" />
    <glyph glyph-name="nine" unicode="9" horiz-adv-x="1031" 
d="M506 577q104 0 188 57q83 57 131 148v6q0 173 -68 262t-190 89t-208 -81q-85 -80 -85 -212t64 -200t168 -69zM570 1262q182 0 288 -118t106 -351q0 -371 -162 -591t-445 -221q-153 0 -255 45l19 125l6 2q110 -52 229 -52q120 1 206 47q144 77 213 291q27 84 39 181
q-132 -168 -336 -168q-156 0 -250 97t-94 257q0 210 127 333t309 123z" />
    <glyph glyph-name="colon" unicode=":" horiz-adv-x="431" 
d="M166 155q80 -1 80 -77q0 -36 -26 -61q-26 -26 -67 -26q-83 0 -81 74q0 35 27 63t67 27zM259 741q-41 0 -61 21q-20 22 -20 56t28 62q26 28 66 29t60 -21t20 -58t-26 -62q-26 -27 -67 -27z" />
    <glyph glyph-name="semicolon" unicode=";" horiz-adv-x="465" 
d="M28 -272q93 237 87 393l131 13l15 -20q-26 -197 -147 -386h-86zM203 832q0 40 29 68q28 28 72 29q44 0 66 -25t23 -64t-27 -67t-72 -28t-68 24q-23 23 -23 63z" />
    <glyph glyph-name="less" unicode="&#x3c;" horiz-adv-x="832" 
d="M218 549l24 -11l441 -296l-69 -101l-536 358l15 101l635 353l41 -98l-525 -295z" />
    <glyph glyph-name="equal" unicode="=" horiz-adv-x="1001" 
d="M110 287l15 110h730l-15 -110h-730zM166 683l16 110h728l-14 -110h-730z" />
    <glyph glyph-name="greater" unicode="&#x3e;" horiz-adv-x="832" 
d="M238 953l537 -353l-15 -101l-635 -358l-43 101l525 294l28 11l-24 12l-442 294z" />
    <glyph glyph-name="question" unicode="?" horiz-adv-x="770" 
d="M263 153q40 1 60 -21t20 -56q-1 -34 -27 -60q-26 -25 -64 -25t-58 20q-20 21 -20 55t24 60q25 26 65 27zM424 1165q-145 0 -251 -94l-4 1l19 125q108 89 252 89t230 -73q86 -74 86 -202t-58 -212t-160 -164q-102 -81 -137 -143q-34 -62 -45 -138l-125 -2q17 119 61 194
q45 75 141 148t140 134q43 61 43 150t-50 138t-142 49z" />
    <glyph glyph-name="at" unicode="@" horiz-adv-x="1437" 
d="M683 225q141 0 227 162l21 138h2l17 119q-61 86 -172 86t-185 -85t-74 -201q-1 -116 45 -167q46 -52 119 -52zM1039 136q-74 0 -109 41q-34 41 -25 106q-95 -156 -259 -156q-104 0 -172 77t-68 200q0 188 107 303t247 115t212 -83l18 65h88l-67 -486q-13 -84 56 -83
q86 0 136 106t50 283q0 178 -110 300t-320 122q-261 0 -439 -190t-177 -478q-1 -222 127 -352t349 -130t384 141h5l45 -74q-187 -168 -451 -168q-264 -1 -419 155t-156 415q0 339 214 561t533 221q251 0 392 -151q140 -151 140 -362t-84 -355q-85 -143 -247 -143z" />
    <glyph glyph-name="A" unicode="A" horiz-adv-x="1131" 
d="M333 438h455l-136 528l-10 52l-24 -52zM901 0l-84 328h-541l-177 -328h-140l685 1253h56l348 -1253h-147z" />
    <glyph glyph-name="B" unicode="B" horiz-adv-x="1040" 
d="M434 106q365 0 365 279q0 91 -59.5 146t-179.5 55h-230l-67 -480h171zM577 1130q-104 0 -171 -5l-62 -440h175q132 0 209.5 70t77.5 189q0 186 -229 186zM935 391q0 -173 -122 -282t-383 -109h-316l171 1231q134 13 303.5 13t260.5 -77.5t91 -198.5q1 -229 -193 -309
q188 -61 188 -268z" />
    <glyph glyph-name="C" unicode="C" horiz-adv-x="1131" 
d="M685 -22q-264 0 -418.5 144t-154.5 403q0 330 190 531t491 201q197 0 339 -73l-19 -130l-3 -2q-145 82 -330 82q-233 0 -380 -166.5t-147 -420.5q0 -210 123 -329t328 -119q164 0 300 82l5 -2l-20 -129q-133 -72 -304 -72z" />
    <glyph glyph-name="D" unicode="D" horiz-adv-x="1303" 
d="M508 121q279 0 429 158.5t150 429.5q0 192 -116 301t-336 109q-160 0 -227 -7l-140 -984q112 -7 240 -7zM655 1247q281 0 430 -139.5t149 -385.5q0 -337 -201 -530.5t-556 -193.5q-279 0 -363 6l173 1227q174 16 368 16z" />
    <glyph glyph-name="E" unicode="E" horiz-adv-x="986" 
d="M959 1102h-551l-56 -404h516l-19 -126h-516l-61 -444h571l-16 -128h-713l171 1231h691z" />
    <glyph glyph-name="F" unicode="F" horiz-adv-x="917" 
d="M951 1104h-543l-64 -445h464l-17 -125h-463l-77 -534h-137l171 1231h683z" />
    <glyph glyph-name="G" unicode="G" horiz-adv-x="1241" 
d="M838 1257q199 0 339 -73l-17 -130l-6 -2q-132 82 -339 82q-246 0 -402 -166.5t-156 -436.5q0 -192 112.5 -307.5t311.5 -115.5q156 0 282 67l44 328h-305l13 115h434l-73 -529q-192 -108 -433 -108t-386 143.5t-145 387.5q0 335 202 540t524 205z" />
    <glyph glyph-name="H" unicode="H" horiz-adv-x="1325" 
d="M1112 1231h139l-173 -1231h-138l78 568h-687l-80 -568h-137l171 1231h139l-76 -538h689z" />
    <glyph glyph-name="I" unicode="I" horiz-adv-x="498" 
d="M114 0l171 1231h139l-173 -1231h-137z" />
    <glyph glyph-name="J" unicode="J" horiz-adv-x="644" 
d="M54 -6q-41 0 -91 6l17 119l5 2q24 -6 67 -6q233 0 274 295l117 821h140l-114 -812q-58 -425 -415 -425z" />
    <glyph glyph-name="K" unicode="K" horiz-adv-x="1104" 
d="M1169 1225l-704 -607l570 -612l-2 -6h-173l-529 566l-80 -566h-137l171 1231h139l-80 -563l658 563h165z" />
    <glyph glyph-name="L" unicode="L" horiz-adv-x="897" 
d="M268 117h549l-16 -117h-687l173 1231h139z" />
    <glyph glyph-name="M" unicode="M" horiz-adv-x="1526" 
d="M80 0l242 1231h125l309 -847l542 847h121l-105 -1231h-130l82 964h-4l-499 -770h-67l-292 780h-4l-188 -974h-132z" />
    <glyph glyph-name="N" unicode="N" horiz-adv-x="1316" 
d="M114 0l173 1240h59l624 -963h6l134 954h132l-173 -1240h-56l-628 964h-3l-136 -955h-132z" />
    <glyph glyph-name="O" unicode="O" horiz-adv-x="1398" 
d="M706.5 99q211.5 0 343.5 162.5t132 393.5t-119 356t-329.5 125t-342.5 -163t-132 -396t118 -355.5t329.5 -122.5zM698 -24q-270 0 -426.5 157t-156.5 414q0 317 180 514.5t448 197.5t424.5 -159.5t156.5 -414.5q0 -317 -178 -513t-448 -196z" />
    <glyph glyph-name="P" unicode="P" horiz-adv-x="990" 
d="M477 583q175 0 270 81t95 232q0 102 -65.5 163.5t-197.5 61.5q-76 0 -171 -6l-73 -521q73 -11 142 -11zM586 1242q195 0 296 -85.5t101 -240.5q0 -214 -137 -333t-371 -119q-76 0 -157 9l-67 -473h-137l173 1231q156 11 299 11z" />
    <glyph glyph-name="Q" unicode="Q" horiz-adv-x="1398" 
d="M706.5 99q211.5 0 343.5 162.5t132 393.5t-119 356t-329.5 125t-342.5 -163t-132 -396t118 -355.5t329.5 -122.5zM1324 685q0 -298 -159.5 -490.5t-416.5 -214.5q20 -106 81 -161t175 -76l1 -6l-61 -104q-149 30 -225.5 114.5t-102.5 232.5q-227 20 -364 175.5
t-137 391.5q0 317 180 514.5t448 197.5t424.5 -159.5t156.5 -414.5z" />
    <glyph glyph-name="R" unicode="R" horiz-adv-x="1042" 
d="M486 596q149 0 246.5 79t97.5 228q0 222 -245 222q-106 0 -177 -8l-73 -521h151zM974 923q0 -164 -85 -270t-219 -147l231 -500l-2 -6h-145l-218 484h-218l-67 -484h-137l173 1233q134 11 310 11t276.5 -78.5t100.5 -242.5z" />
    <glyph glyph-name="S" unicode="S" horiz-adv-x="947" 
d="M430 -26q-190 0 -339 86l6 141l5 4q141 -108 326 -108q125 0 199.5 57.5t74.5 155.5t-62.5 157.5t-202.5 124.5t-223.5 143.5t-83.5 199.5q0 158 113 243.5t288 85.5t299 -58l-3 -134l-6 -1q-117 73 -287 72q-115 2 -187.5 -46.5t-72.5 -137t61.5 -138.5t202.5 -117
t221.5 -149t80.5 -235t-110 -249.5t-300 -96.5z" />
    <glyph glyph-name="T" unicode="T" horiz-adv-x="994" 
d="M1069 1231l-17 -125h-393l-154 -1106h-142l158 1106h-398l17 125h929z" />
    <glyph glyph-name="U" unicode="U" horiz-adv-x="1273" 
d="M575 -26q-197 0 -308 103.5t-111 274.5q0 71 8 121l106 758h138l-105 -741q-7 -47 -7 -97q0 -143 79 -219.5t231 -76.5q314 0 371 393l103 741h136l-106 -758q-73 -499 -535 -499z" />
    <glyph glyph-name="V" unicode="V" horiz-adv-x="1115" 
d="M1192 1231l1 -6l-664 -1251h-82l-311 1251l2 6h145l229 -972l9 -65l25 65l508 972h138z" />
    <glyph glyph-name="W" unicode="W" horiz-adv-x="1714" 
d="M1782 1231l2 -6l-565 -1247h-100l-177 964l-6 41l-14 -41l-457 -964h-104l-218 1247l2 6h145l151 -987l4 -67l26 67l451 981h96l175 -970l6 -67l24 67l425 976h134z" />
    <glyph glyph-name="X" unicode="X" horiz-adv-x="1100" 
d="M1136 1225l-479 -590l341 -629l-2 -6h-160l-281 525l-421 -525h-164l-2 6l512 638l-314 581l2 6h160l258 -486l384 486h164z" />
    <glyph glyph-name="Y" unicode="Y" horiz-adv-x="1053" 
d="M391 0l74 521l-324 704l2 6h147l265 -578l424 578h142l2 -6l-520 -706l-74 -519h-138z" />
    <glyph glyph-name="Z" unicode="Z" horiz-adv-x="1040" 
d="M19 0l-10 50l855 1065h-698l15 116h877l7 -49l-860 -1067h722l-15 -115h-893z" />
    <glyph glyph-name="bracketleft" unicode="[" horiz-adv-x="549" 
d="M598 1292h-196l-207 -1486h194l-15 -102h-313l239 1691h313z" />
    <glyph glyph-name="backslash" unicode="\" horiz-adv-x="809" 
d="M650 -220h-127l-328 1616h127z" />
    <glyph glyph-name="bracketright" unicode="]" horiz-adv-x="549" 
d="M195 1395h313l-238 -1691h-315l17 102h192l210 1486h-195z" />
    <glyph glyph-name="asciicircum" unicode="^" horiz-adv-x="886" 
d="M596 1259l225 -606l-99 -42l-178 506l-8 24l-331 -530l-88 42l393 606h86z" />
    <glyph glyph-name="underscore" unicode="_" horiz-adv-x="854" 
d="M-13 -114l17 112h711l-15 -112h-713z" />
    <glyph glyph-name="grave" unicode="`" horiz-adv-x="435" 
d="M449 1065l-309 192l-2 18l97 106l266 -232z" />
    <glyph glyph-name="a" unicode="a" horiz-adv-x="1126" 
d="M600.5 862q-155.5 0 -263.5 -127.5t-108 -352.5q0 -132 69 -206t178 -74t193.5 62.5t114.5 183.5l61 428l2 6q-91 80 -246.5 80zM897 -13q-140 0 -134 141q-108 -151 -311 -150q-168 0 -268 103t-100 278q0 289 148 457.5t371 168.5q175 0 276 -80l17 59h115l-106 -746
q-7 -56 5 -79.5t50 -23t66 22.5l5 -2l-16 -119q-54 -30 -118 -30z" />
    <glyph glyph-name="b" unicode="b" horiz-adv-x="1094" 
d="M498 102q155 0 260.5 127t105.5 341q0 143 -69 215.5t-180.5 72.5t-196.5 -67t-109 -182l-63 -453q97 -54 252 -54zM630 985q180 0 279.5 -102.5t99.5 -288.5q0 -281 -148 -448.5t-381.5 -167.5t-386.5 87l175 1261h140l-67 -481q109 140 289 140z" />
    <glyph glyph-name="c" unicode="c" horiz-adv-x="895" 
d="M505 -22q-186 0 -301.5 114.5t-115.5 315.5q0 264 150.5 421.5t385.5 157.5q143 0 247 -51l-18 -126l-6 -2q-106 54 -234 54q-169 0 -274.5 -121t-105.5 -291t79 -259.5t210 -89.5t243 63l6 -2l-19 -128q-107 -56 -247 -56z" />
    <glyph glyph-name="d" unicode="d" horiz-adv-x="1133" 
d="M478.5 102q111.5 0 197 66.5t110.5 181.5l61 432q-86 80 -238.5 80t-265 -129.5t-112.5 -339.5q0 -140 68 -215.5t179.5 -75.5zM962 115q36 0 68 28l3 -2l-18 -121q-47 -34 -118 -33q-140 0 -134 134q-112 -143 -318 -143q-158 0 -258.5 106t-100.5 288
q0 274 155.5 443.5t378.5 169.5q143 0 246 -69l57 410h140l-154 -1108q-7 -58 5 -80.5t48 -22.5z" />
    <glyph glyph-name="e" unicode="e" horiz-adv-x="1022" 
d="M812 616q0 115 -60.5 180.5t-179 65.5t-204 -78t-119.5 -212h561q2 15 2 44zM564 985q192 0 289 -102.5t97 -256.5q0 -67 -21 -166h-696v-36q0 -156 82.5 -239.5t235 -83.5t285.5 91l6 -2l-19 -132q-119 -80 -307 -80t-308 111.5t-120 323.5q0 255 142 413.5t334 158.5z
" />
    <glyph glyph-name="f" unicode="f" horiz-adv-x="601" 
d="M607 1335q80 0 130 -21l-16 -121l-6 -1q-41 19 -99 18q-179 0 -208 -214l-4 -32h225l-16 -113h-226l-162 -1158h-141l162 1158h-125l17 113h125l1 17q26 181 118.5 267.5t224.5 86.5z" />
    <glyph glyph-name="g" unicode="g" horiz-adv-x="1092" 
d="M497 151q182 0 285 190l61 439q-89 84 -247 84t-259 -121t-101 -307q0 -138 69 -211.5t192 -73.5zM392 -317q-202 0 -338 86l20 134l4 2q123 -97 302 -97q328 0 368 293l10 67q-112 -141 -317 -142q-160 0 -256 102.5t-96 284.5q0 261 148 416.5t347.5 155.5t299.5 -91
l30 80h99l-123 -872q-30 -203 -163 -311t-335 -108z" />
    <glyph glyph-name="h" unicode="h" horiz-adv-x="1094" 
d="M652 985q147 0 235.5 -84t88.5 -234q0 -45 -6 -94l-82 -573h-138l80 564q2 20 2 56q0 122 -60 180t-160 58t-181 -56.5t-116 -172.5l-88 -629h-141l188 1326h139l-67 -481q109 140 306 140z" />
    <glyph glyph-name="i" unicode="i" horiz-adv-x="446" 
d="M86 0l137 964h140l-136 -964h-141zM329.5 1156q-39.5 0 -64.5 24.5t-25 66.5t29 68.5t69 26.5t64 -24t24 -65t-28.5 -69t-68 -28z" />
    <glyph glyph-name="j" unicode="j" horiz-adv-x="474" 
d="M-86 -315q-47 0 -89 8l19 123l5 2q22 -6 56 -6q99 0 150 60.5t68 179.5l130 912h138l-132 -942q-49 -337 -345 -337zM361 1156q-39 0 -64 24.5t-25 66.5t29 68.5t69 26.5t64 -24t24 -65t-29 -69t-68 -28z" />
    <glyph glyph-name="k" unicode="k" horiz-adv-x="949" 
d="M955 959l-525 -458l447 -495l-2 -6h-177l-408 452l-63 -452h-141l188 1326h139l-110 -786l481 424h169z" />
    <glyph glyph-name="l" unicode="l" horiz-adv-x="489" 
d="M289 -17q-212 0 -179 218l160 1125h138l-153 -1084q-9 -72 9 -102t62 -30t80 22l4 -2l-17 -123q-54 -24 -104 -24z" />
    <glyph glyph-name="m" unicode="m" horiz-adv-x="1675" 
d="M581.5 856q-92.5 0 -167.5 -63t-99 -175l-88 -618h-141l137 964h114l-4 -132q102 153 302 153q104 0 181.5 -51t103.5 -161q100 212 335 212q128 0 214 -78t86 -242q0 -61 -8 -105l-78 -560h-140l73 525q7 50 7 142t-56.5 140.5t-152.5 48.5t-174 -72.5t-97 -198.5
l-82 -585h-140l73 525q7 50 7.5 142t-56.5 140.5t-149.5 48.5z" />
    <glyph glyph-name="n" unicode="n" horiz-adv-x="1096" 
d="M653 985q138 0 230.5 -82t92.5 -246q0 -50 -6 -97l-78 -560h-142l73 525q9 61 9 97q0 127 -64 181.5t-164 54.5t-181.5 -65t-107.5 -177l-88 -616h-141l137 964h114l-4 -143q106 164 320 164z" />
    <glyph glyph-name="o" unicode="o" horiz-adv-x="1124" 
d="M546 101q150 0 248 125.5t98 292t-82 255t-232 88.5t-247.5 -127.5t-97.5 -291.5t81.5 -253t231.5 -89zM518 -22q-190 0 -310 116t-120 342.5t145 387.5t354.5 161t329.5 -116.5t120 -342.5t-146 -387t-373 -161z" />
    <glyph glyph-name="p" unicode="p" horiz-adv-x="1096" 
d="M495.5 102q156.5 0 263.5 127t107 343q0 145 -71 217.5t-178 72.5t-196.5 -67t-109.5 -190l-62 -439q90 -64 246.5 -64zM644 985q164 0 265.5 -100.5t101.5 -288.5q0 -283 -149 -450.5t-380 -167.5q-155 0 -251 57l-49 -342h-139l179 1271h115l-4 -113q108 134 311 134z
" />
    <glyph glyph-name="q" unicode="q" horiz-adv-x="1094" 
d="M606.5 864q-154.5 0 -264 -130.5t-109.5 -338.5q0 -143 66 -218t168 -75t182 49.5t127 140.5l67 471l4 13q-86 88 -240.5 88zM428 -22q-156 0 -249 104t-93 290q0 274 156 443.5t372 169.5q179 0 265 -88l18 67h116l-181 -1271h-141l61 428q-117 -143 -324 -143z" />
    <glyph glyph-name="r" unicode="r" horiz-adv-x="685" 
d="M613 985q61 0 98 -19l-17 -126l-5 -2q-34 18 -87 18q-98 -1 -172 -50.5t-125 -237.5l-78 -568h-141l137 964h114l-6 -132q100 153 282 153z" />
    <glyph glyph-name="s" unicode="s" horiz-adv-x="854" 
d="M330 -24q-189 0 -302 72l20 136l4 2q115 -89 304 -89q119 0 185 42t66 114.5t-48.5 108t-174 76.5t-189 98.5t-63.5 156.5q0 136 111 214t281 78t267 -47l-16 -124l-4 -2q-104 52 -233 52t-196.5 -40t-67.5 -104.5t45.5 -96t170.5 -72.5t191 -97.5t66 -155.5
q0 -155 -114 -238.5t-303 -83.5z" />
    <glyph glyph-name="t" unicode="t" horiz-adv-x="675" 
d="M326 249q0 -61 42 -97.5t111.5 -36.5t133.5 30l3 -2l-18 -119q-61 -34 -166.5 -33.5t-177.5 61t-72 164.5q0 28 4 80l80 555h-193l16 113h192l34 228l137 26l2 -4l-35 -250h294l-17 -113h-292l-74 -536q-4 -37 -4 -66z" />
    <glyph glyph-name="u" unicode="u" horiz-adv-x="1072" 
d="M424 -22q-145 0 -224 78t-79 218q0 48 7 102l82 588h142l-82 -573q-6 -41 -6 -91q0 -99 54 -150t147 -51t170.5 52t118.5 145l95 668h141l-137 -964h-114l4 121q-119 -143 -319 -143z" />
    <glyph glyph-name="v" unicode="v" horiz-adv-x="979" 
d="M1011 964l2 -5l-542 -970h-102l-265 970l2 5h151l192 -793l417 793h145z" />
    <glyph glyph-name="w" unicode="w" horiz-adv-x="1428" 
d="M1454 964l2 -5l-438 -959h-128l-117 761l-4 36l-359 -797h-129l-171 959l2 5h139l116 -754v-35l352 789h145l117 -752l4 -39l13 41l326 750h130z" />
    <glyph glyph-name="x" unicode="x" horiz-adv-x="945" 
d="M955 959l-398 -466l273 -487l-1 -6h-148l-219 400l-335 -400h-155l-2 6l421 493l-264 460l1 5h149l207 -376l317 376h152z" />
    <glyph glyph-name="y" unicode="y" horiz-adv-x="955" 
d="M93 -315q-61 0 -106 17l20 114l4 2q45 -15 99 -15q131 0 259 240l-263 916l2 5h149l201 -765l385 765h142l2 -5l-479 -901l-24 -49q-93 -175 -179.5 -249.5t-211.5 -74.5z" />
    <glyph glyph-name="z" unicode="z" horiz-adv-x="914" 
d="M881 897l-676 -778h594l-17 -119h-762l-5 65l668 780h-549l15 119h726z" />
    <glyph glyph-name="braceleft" unicode="{" horiz-adv-x="577" 
d="M588 1408h54l-16 -108h-32q-69 0 -104 -27t-47 -108l-59 -411q-12 -93 -78 -147t-124 -54v-6q56 0 106 -55t38 -148l-58 -413q-11 -82 16 -109t98 -27h31l-13 -106h-54q-119 0 -170 54t-33 183l56 391q13 80 -31 127q-45 47 -95 48l18 122q48 0 106 44t69 120l54 395
q19 127 84 181t184 54z" />
    <glyph glyph-name="bar" unicode="|" horiz-adv-x="467" 
d="M76 -190l218 1545h127l-218 -1545h-127z" />
    <glyph glyph-name="braceright" unicode="}" horiz-adv-x="579" 
d="M11 -311h-56l17 106h32q69 0 105 28t47 108l58 415q13 91 79 146t124 55v6q-58 0 -108 54t-37 147l59 413q11 80 -16 106q-28 26 -99 27h-35l16 108h54q117 0 167 -54t34 -181l-54 -393q-11 -80 33 -126t94 -45l-17 -123q-50 0 -108 -46t-67 -125l-57 -391
q-19 -128 -82 -182t-183 -53z" />
    <glyph glyph-name="asciitilde" unicode="~" horiz-adv-x="947" 
d="M334 642q74 0 166 -39t136 -39t75 22q32 22 39 62l4 4l86 -19q-13 -80 -71 -129q-58 -50 -126 -50t-164 38q-95 38 -141 38q-101 1 -116 -87l-94 15q13 82 72 133q60 51 134 51z" />
    <glyph glyph-name="exclamdown" unicode="&#xa1;" horiz-adv-x="437" 
d="M39 -296l140 914h119l-121 -914h-138zM367 916q0 -36 -26 -60q-26 -26 -63 -26q-38 0 -58 22t-20 56q0 36 24 61q25 25 64 25t59 -21t20 -57z" />
    <glyph glyph-name="cent" unicode="&#xa2;" horiz-adv-x="1022" 
d="M707 1013q-201 0 -327 -127t-125 -327q1 -153 89 -244t242 -91t295 72l5 -4l-17 -119q-132 -65 -279 -72l-22 -172h-132l24 179q-168 26 -261 139t-93 287q0 242 138 402t363 190l28 183h130l-26 -175q134 -6 246 -56l-17 -119l-7 -4q-115 58 -254 58z" />
    <glyph glyph-name="sterling" unicode="&#xa3;" horiz-adv-x="1033" 
d="M395 568q0 -288 -119 -451h616l-17 -117h-806l-2 11q110 127 149 255t39 280v22h-167l16 115h147v43q0 263 136 397t324 134t291 -71l-19 -128l-6 -4q-102 76 -247 76t-231 -80t-99 -229q-6 -69 -5 -138h385l-15 -115h-370z" />
    <glyph glyph-name="currency" unicode="&#xa4;" horiz-adv-x="1267" 
d="M294 588q0 -166 88 -256t252 -90q165 0 271 126t106 290t-88 255q-89 91 -253 91t-270 -125t-106 -291zM1130 685q0 -222 -134 -380l108 -128l-108 -93l-104 126q-126 -86 -292 -86t-282 96l-152 -136l-80 93l152 136q-65 104 -65 249q0 220 134 378l-100 123l106 93
l98 -121q125 88 298 88t291 -106l149 135l80 -93l-155 -141q56 -97 56 -233z" />
    <glyph glyph-name="yen" unicode="&#xa5;" horiz-adv-x="1128" 
d="M1173 1247l-467 -634h253l-15 -110h-307l-24 -170h307l-15 -111h-307l-32 -222h-136l32 222h-304l17 111h302l24 170h-304l15 110h252l-293 634h155l266 -603l436 603h145z" />
    <glyph glyph-name="brokenbar" unicode="&#xa6;" horiz-adv-x="480" 
d="M84 -190l80 581h128l-82 -581h-126zM220 788l82 567h126l-80 -567h-128z" />
    <glyph glyph-name="section" unicode="&#xa7;" horiz-adv-x="940" 
d="M721 424q1 65 -51 114t-177 111t-175 103q-86 -73 -85 -173q0 -65 52 -115q51 -50 179 -114t175 -99q82 74 82 173zM203 953q0 155 118 243t294 89q176 0 273 -66l-17 -119l-2 -2q-95 69 -258 69q-110 0 -189 -51t-79 -150q-1 -46 33 -84t64 -55q90 -52 182 -95t158 -110
t67 -162q0 -151 -151 -259q54 -60 54 -141q0 -153 -121 -244q-121 -92 -301 -92t-283 71l16 121l6 2q108 -78 277 -78q115 0 189 50t74 153q0 61 -50 102t-115 73t-71 35q-6 4 -12 6q-128 67 -191 129q-62 62 -62 156q0 151 155 257q-58 67 -58 152z" />
    <glyph glyph-name="dieresis" unicode="&#xa8;" horiz-adv-x="567" 
d="M556 1158q-38 0 -62.5 23.5t-24.5 64.5t29 67t67 26t61.5 -23.5t23.5 -63.5t-28 -67t-66 -27zM211 1158q-38 0 -62 23.5t-24 64.5t28 67t67 26t62 -23.5t23 -63.5t-28 -67t-66 -27z" />
    <glyph glyph-name="copyright" unicode="&#xa9;" horiz-adv-x="1239" 
d="M602 244q-104 0 -172 64q-69 64 -69 174q0 146 95 236t237 90q89 0 143 -26l-11 -91l-6 -2q-55 28 -141 28t-147 -61t-61 -145t45 -129q46 -45 125 -45t140 35l4 -1l-13 -90q-65 -37 -169 -37zM559 60q220 0 362 152t142 388q0 180 -101 290t-269 110q-211 0 -355 -154
t-144 -386q0 -179 99 -290q100 -110 266 -110zM549 -22q-205 0 -327 133t-123 341q0 268 175 449t432 181q206 0 328 -132t122 -343q0 -265 -176 -447t-431 -182z" />
    <glyph glyph-name="ordfeminine" unicode="&#xaa;" horiz-adv-x="843" 
d="M380.5 726q58.5 0 123 31.5t105.5 85.5l13 99q-73 28 -170 28q-199 0 -199 -136q0 -50 34.5 -79t93 -29zM350 633q-91 0 -150 51t-59 135q0 123 88.5 181.5t209.5 58.5t196 -31l5 43q30 202 -186 202q-106 0 -191 -44l-4 2l13 87q69 48 205 49q311 0 266 -293l-36 -255
q-11 -76 36 -76q29 0 46 15l4 -2l-11 -91q-37 -22 -73 -23q-104 0 -104 108q-108 -117 -255 -117z" />
    <glyph glyph-name="guillemotleft" unicode="&#xab;" horiz-adv-x="979" 
d="M1063 855v-15l-326 -321l224 -333l-2 -13h-132l-241 352l339 330h138zM687 855v-15l-326 -321l224 -333l-2 -13h-132l-241 352l339 330h138z" />
    <glyph glyph-name="uni00AD" unicode="&#xad;" horiz-adv-x="752" 
d="M134 482l17 118h486l-17 -118h-486z" />
    <glyph glyph-name="registered" unicode="&#xae;" horiz-adv-x="1139" 
d="M626 873q104 0 104 95q0 69 -80 69t-95 -2l-23 -162h94zM653 1117q170 0 170 -132t-108 -175l87 -166h-100l-80 149h-103l-20 -149h-86l64 469q82 4 176 4zM566 462q192 0 315 134t123 337q0 155 -88 251t-235 95q-182 0 -308 -134t-125 -335q0 -156 86 -252t232 -96z
M696 1355q181 0 288 -115t107 -300q0 -236 -153 -395t-379 -160q-181 1 -291 117t-110 300q0 236 154 394t384 159z" />
    <glyph glyph-name="macron" unicode="&#xaf;" horiz-adv-x="625" 
d="M140 1160l15 106h517l-15 -106h-517z" />
    <glyph glyph-name="degree" unicode="&#xb0;" horiz-adv-x="640" 
d="M402 873q62 0 102 43t40 105t-39 105t-103 43t-103 -43q-40 -43 -40 -105t41 -105q40 -43 102 -43zM403 793q-100 0 -166 65t-66 163t66 163t166 65t165 -65t65 -163t-65 -163t-165 -65z" />
    <glyph glyph-name="plusminus" unicode="&#xb1;" horiz-adv-x="968" 
d="M849 508h-305l-41 -288h298l-15 -110h-708l17 110h300l41 288h-309l16 106h308l46 334h108l-46 -334h305z" />
    <glyph glyph-name="uni00B2" unicode="&#xb2;" horiz-adv-x="616" 
d="M99 560q0 162 212 304q114 76 152 117t38 88q1 91 -117 91t-213 -75l-2 2l15 99q84 74 224 74q94 0 154 -46t60 -127q0 -80 -48 -141t-180 -145q-134 -84 -148 -146h342l-13 -95h-476z" />
    <glyph glyph-name="uni00B3" unicode="&#xb3;" horiz-adv-x="599" 
d="M581 783q0 -105 -77 -171t-204 -66t-209 52l15 95l2 1q65 -56 197 -55q76 0 124 39q47 39 48 106q0 97 -120 97h-102l13 80h76q69 1 107 31t39 84q0 89 -118 89t-184 -42h-2l11 93q75 44 177 44t164 -41t62 -124q0 -110 -108 -168q89 -39 89 -144z" />
    <glyph glyph-name="acute" unicode="&#xb4;" horiz-adv-x="433" 
d="M197 1058l-56 81l254 246l102 -100l-2 -19z" />
    <glyph glyph-name="paragraph" unicode="&#xb6;" horiz-adv-x="1035" 
d="M603 1121h430l-16 -125h-114l-171 -1203h-43l169 1203h-121l-171 -1203h-132l87 617q-236 0 -339 86q-104 86 -78 262q26 177 151 270t348 93z" />
    <glyph glyph-name="periodcentered" unicode="&#xb7;" horiz-adv-x="424" 
d="M203 371q-83 0 -81 74q0 35 27 63q26 28 71 28q76 0 76 -76q0 -36 -26 -62q-26 -27 -67 -27z" />
    <glyph glyph-name="cedilla" unicode="&#xb8;" horiz-adv-x="370" 
d="M42 -430q-83 0 -133 19l13 85l4 2q35 -17 89 -17t90 25.5t36 66.5q0 78 -78 78q-41 0 -89 -15l-2 2l9 70l82 114h92l-67 -97q22 6 64 6t78 -33.5t36 -102.5q0 -102 -70.5 -152.5t-153.5 -50.5z" />
    <glyph glyph-name="uni00B9" unicode="&#xb9;" horiz-adv-x="415" 
d="M210 562l79 538l-161 -63l17 121l263 99h15l-97 -695h-116z" />
    <glyph glyph-name="ordmasculine" unicode="&#xba;" horiz-adv-x="897" 
d="M763 1034q1 250 -219 251q-108 1 -184 -91t-77 -246q0 -106 56 -166t164 -61q108 0 184 92q76 91 76 221zM888 1039q0 -175 -119 -299t-275 -124t-245 86t-89 264t116 300q116 121 292 121q140 0 230 -86t90 -262z" />
    <glyph glyph-name="guillemotright" unicode="&#xbb;" horiz-adv-x="977" 
d="M438 173v15l325 320l-223 334l2 13h132l240 -352l-339 -330h-137zM63 173v15l326 320l-223 334l2 13h132l240 -352l-339 -330h-138z" />
    <glyph glyph-name="onequarter" unicode="&#xbc;" horiz-adv-x="1299" 
d="M773 214h227l48 333zM1214 214l-11 -76h-108l-21 -138h-104l20 138h-359l6 46l447 518h91l-71 -488h110zM1022 1236h108l-944 -1258h-106zM201 562l78 538l-160 -63l17 121l262 99h15l-96 -695h-116z" />
    <glyph glyph-name="onehalf" unicode="&#xbd;" horiz-adv-x="1318" 
d="M707 0q0 162 213 303q114 75 152 117t38 88q0 92 -118 92t-212 -75l-2 2l15 99q84 74 224 74q93 0 153 -47t61 -127t-47 -140q-48 -62 -182 -146t-147 -145h342l-13 -95h-477zM45 -22l942 1258h108l-944 -1258h-106zM235 562l78 538l-160 -63l16 121l263 99h15l-97 -695
h-115z" />
    <glyph glyph-name="threequarters" unicode="&#xbe;" horiz-adv-x="1381" 
d="M842 214h227l48 333zM1283 214l-11 -76h-108l-21 -138h-104l20 138h-359l6 46l446 518h92l-71 -488h110zM1138 1236h108l-944 -1258h-107zM579 784q0 -106 -77 -172t-204 -66t-209 52l15 95l2 1q65 -56 197 -55q76 0 124 39q47 39 48 106q0 97 -119 97h-103l13 80h77
q69 1 107 31t38 84q0 89 -118 89t-184 -42h-2l11 93q75 44 177 44t164 -41t62 -124q0 -110 -108 -168q89 -37 89 -143z" />
    <glyph glyph-name="questiondown" unicode="&#xbf;" horiz-adv-x="755" 
d="M283 0q0 -88 50 -138t142 -50q145 0 251 95l4 -2l-19 -125q-108 -89 -252 -89q-144 -1 -230 73t-86 202t58 213q59 84 161 164t136 142t46 139l124 2q-18 -118 -62 -194t-140 -149t-139 -133q-44 -60 -44 -150zM647 987q39 -1 59 -21t20 -56t-26 -60q-26 -25 -65 -25
t-59 21q-20 22 -20 56t27 60q26 26 64 25z" />
    <glyph glyph-name="Agrave" unicode="&#xc0;" horiz-adv-x="1131" 
d="M333 438h455l-136 528l-10 52l-24 -52zM901 0l-84 328h-541l-177 -328h-140l685 1253h56l348 -1253h-147zM829 1305l-334 158l-5 21l89 110l289 -211z" />
    <glyph glyph-name="Aacute" unicode="&#xc1;" horiz-adv-x="1131" 
d="M333 438h455l-136 528l-10 52l-24 -52zM901 0l-84 328h-541l-177 -328h-140l685 1253h56l348 -1253h-147zM879 1452l-352 -149l-35 80l316 203l78 -115z" />
    <glyph glyph-name="Acircumflex" unicode="&#xc2;" horiz-adv-x="1131" 
d="M333 438h455l-136 528l-10 52l-24 -52zM901 0l-84 328h-541l-177 -328h-140l685 1253h56l348 -1253h-147zM696 1460l-214 -155l-46 67l245 209h64l190 -209l-58 -67z" />
    <glyph glyph-name="Atilde" unicode="&#xc3;" horiz-adv-x="1131" 
d="M333 438h455l-136 528l-10 52l-24 -52zM901 0l-84 328h-541l-177 -328h-140l685 1253h56l348 -1253h-147zM578.5 1532q59.5 0 131.5 -35t103.5 -35t57.5 21t32 60l4 4l87 -30q-13 -78 -64 -125.5t-107 -47.5t-130.5 35.5t-109 35.5t-58.5 -22.5t-30 -61.5l-3 -2l-90 26
q15 78 66 127.5t110.5 49.5z" />
    <glyph glyph-name="Adieresis" unicode="&#xc4;" horiz-adv-x="1131" 
d="M333 438h455l-136 528l-10 52l-24 -52zM901 0l-84 328h-541l-177 -328h-140l685 1253h56l348 -1253h-147zM878 1363q-36 0 -58.5 20.5t-22.5 58.5t27 62.5t62.5 24.5t56.5 -22.5t21 -60t-25 -60.5t-61 -23zM517 1363q-36 0 -58.5 20.5t-22.5 58.5t27 62.5t62 24.5
t56.5 -22.5t21.5 -60t-25 -60.5t-61 -23z" />
    <glyph glyph-name="Aring" unicode="&#xc5;" horiz-adv-x="1131" 
d="M333 438h455l-136 528l-10 52l-24 -52zM901 0l-84 328h-541l-177 -328h-140l685 1253h56l348 -1253h-147zM693 1517q-38 0 -64 -27t-26 -65t23.5 -60.5t62.5 -22.5t64 26.5t25 65t-23.5 61t-61.5 22.5zM684.5 1266q-75.5 0 -120.5 41t-45 112.5t52.5 123t126 51.5
t118 -41t44.5 -112.5t-50 -123t-125.5 -51.5z" />
    <glyph glyph-name="AE" unicode="&#xc6;" horiz-adv-x="1463" 
d="M389 478h343l83 596l-108 -158zM1437 1115h-476l-60 -419h445l-19 -115h-441l-65 -464h499l-17 -117h-640l54 378h-400l-274 -378h-144l900 1231h655z" />
    <glyph glyph-name="Ccedilla" unicode="&#xc7;" horiz-adv-x="1131" 
d="M793 1257q197 0 339 -73l-19 -130l-3 -2q-145 82 -330 82q-233 0 -380 -166.5t-147 -420.5q0 -210 123 -329t328 -119q164 0 300 82l5 -2l-20 -129q-132 -73 -302 -72l-52 -75q22 6 64 6t78.5 -33.5t36.5 -102.5q0 -102 -71 -152.5t-154 -50.5t-133 19l13 85l4 2
q35 -17 89 -17t90.5 25.5t36.5 66.5q0 78 -78 78q-41 0 -90 -15l-2 2l10 70l69 95q-225 24 -355.5 166t-130.5 378q0 330 189.5 531t491.5 201z" />
    <glyph glyph-name="Egrave" unicode="&#xc8;" horiz-adv-x="986" 
d="M959 1102h-551l-56 -404h516l-19 -126h-516l-61 -444h571l-16 -128h-713l171 1231h691zM799 1305l-334 158l-5 21l89 110l289 -211z" />
    <glyph glyph-name="Eacute" unicode="&#xc9;" horiz-adv-x="986" 
d="M959 1102h-551l-56 -404h516l-19 -126h-516l-61 -444h571l-16 -128h-713l171 1231h691zM849 1452l-352 -149l-35 80l316 203l78 -115z" />
    <glyph glyph-name="Ecircumflex" unicode="&#xca;" horiz-adv-x="986" 
d="M959 1102h-551l-56 -404h516l-19 -126h-516l-61 -444h571l-16 -128h-713l171 1231h691zM667 1460l-215 -155l-46 67l246 209h63l190 -209l-58 -67z" />
    <glyph glyph-name="Edieresis" unicode="&#xcb;" horiz-adv-x="986" 
d="M959 1102h-551l-56 -404h516l-19 -126h-516l-61 -444h571l-16 -128h-713l171 1231h691zM848 1363q-36 0 -58.5 20.5t-22.5 58.5t27 62.5t62.5 24.5t57 -22.5t21.5 -60t-25.5 -60.5t-61.5 -23zM487 1363q-36 0 -58.5 20.5t-22.5 58.5t27 62.5t62.5 24.5t56.5 -22.5t21 -60
t-25 -60.5t-61 -23z" />
    <glyph glyph-name="Igrave" unicode="&#xcc;" horiz-adv-x="498" 
d="M114 0l171 1231h139l-173 -1231h-137zM518 1305l-334 158l-5 21l89 110l289 -211z" />
    <glyph glyph-name="Iacute" unicode="&#xcd;" horiz-adv-x="498" 
d="M114 0l171 1231h139l-173 -1231h-137zM216 1303l-35 80l316 203l78 -115l-7 -19z" />
    <glyph glyph-name="Icircumflex" unicode="&#xce;" horiz-adv-x="498" 
d="M114 0l171 1231h139l-173 -1231h-137zM171 1305l-46 67l246 209h63l190 -209l-58 -67l-181 155z" />
    <glyph glyph-name="Idieresis" unicode="&#xcf;" horiz-adv-x="498" 
d="M114 0l171 1231h139l-173 -1231h-137zM567 1363q-36 0 -58.5 20.5t-22.5 58.5t27 62.5t62.5 24.5t56.5 -22.5t21 -60t-25 -60.5t-61 -23zM206 1363q-36 0 -58.5 20.5t-22.5 58.5t27 62.5t62 24.5t56.5 -22.5t21.5 -60t-25 -60.5t-61 -23z" />
    <glyph glyph-name="Eth" unicode="&#xd0;" horiz-adv-x="1303" 
d="M508 121q279 0 429 158.5t150 429.5q0 192 -116 301t-336 109q-160 0 -227 -7l-64 -447h188l-14 -105h-188l-62 -432q112 -7 240 -7zM655 1247q281 0 430 -139.5t149 -385.5q0 -337 -201 -530.5t-556 -193.5q-279 0 -363 6l78 556h-160l15 105h160l80 566q174 16 368 16z
" />
    <glyph glyph-name="Ntilde" unicode="&#xd1;" horiz-adv-x="1316" 
d="M114 0l173 1240h59l624 -963h6l134 954h132l-173 -1240h-56l-628 964h-3l-136 -955h-132zM683.5 1532q59.5 0 131 -35t103.5 -35t58 21t31 60l4 4l87 -30q-13 -78 -64 -125.5t-107 -47.5t-130.5 35.5t-109 35.5t-58.5 -22.5t-29 -61.5l-4 -2l-90 26q15 78 66.5 127.5
t111 49.5z" />
    <glyph glyph-name="Ograve" unicode="&#xd2;" horiz-adv-x="1398" 
d="M706.5 99q211.5 0 343.5 162.5t132 393.5t-119 356t-329.5 125t-342.5 -163t-132 -396t118 -355.5t329.5 -122.5zM698 -24q-270 0 -426.5 157t-156.5 414q0 317 180 514.5t448 197.5t424.5 -159.5t156.5 -414.5q0 -317 -178 -513t-448 -196zM920 1300l-334 158l-5 20
l89 110l289 -210z" />
    <glyph glyph-name="Oacute" unicode="&#xd3;" horiz-adv-x="1398" 
d="M706.5 99q211.5 0 343.5 162.5t132 393.5t-119 356t-329.5 125t-342.5 -163t-132 -396t118 -355.5t329.5 -122.5zM698 -24q-270 0 -426.5 157t-156.5 414q0 317 180 514.5t448 197.5t424.5 -159.5t156.5 -414.5q0 -317 -178 -513t-448 -196zM618 1298l-35 80l316 203
l78 -116l-7 -18z" />
    <glyph glyph-name="Ocircumflex" unicode="&#xd4;" horiz-adv-x="1398" 
d="M706.5 99q211.5 0 343.5 162.5t132 393.5t-119 356t-329.5 125t-342.5 -163t-132 -396t118 -355.5t329.5 -122.5zM698 -24q-270 0 -426.5 157t-156.5 414q0 317 180 514.5t448 197.5t424.5 -159.5t156.5 -414.5q0 -317 -178 -513t-448 -196zM573 1300l-46 67l246 208h63
l190 -208l-58 -67l-180 154z" />
    <glyph glyph-name="Otilde" unicode="&#xd5;" horiz-adv-x="1398" 
d="M706.5 99q211.5 0 343.5 162.5t132 393.5t-119 356t-329.5 125t-342.5 -163t-132 -396t118 -355.5t329.5 -122.5zM698 -24q-270 0 -426.5 157t-156.5 414q0 317 180 514.5t448 197.5t424.5 -159.5t156.5 -414.5q0 -317 -178 -513t-448 -196zM670.5 1527q59.5 0 131 -35.5
t103.5 -35.5t58 21.5t31 60.5l4 4l87 -30q-13 -78 -64 -125.5t-106 -47.5t-130.5 35t-110 35t-58.5 -22t-30 -61l-3 -2l-90 26q15 78 66.5 127.5t111 49.5z" />
    <glyph glyph-name="Odieresis" unicode="&#xd6;" horiz-adv-x="1398" 
d="M706.5 99q211.5 0 343.5 162.5t132 393.5t-119 356t-329.5 125t-342.5 -163t-132 -396t118 -355.5t329.5 -122.5zM698 -24q-270 0 -426.5 157t-156.5 414q0 317 180 514.5t448 197.5t424.5 -159.5t156.5 -414.5q0 -317 -178 -513t-448 -196zM969 1357q-36 0 -58.5 20.5
t-22.5 59t27 62.5t62.5 24t57 -22.5t21.5 -59.5t-25.5 -60.5t-61.5 -23.5zM608 1357q-36 0 -58.5 20.5t-22.5 59t27 62.5t62.5 24t56.5 -22.5t21 -59.5t-25 -60.5t-61 -23.5z" />
    <glyph glyph-name="multiply" unicode="&#xd7;" horiz-adv-x="916" 
d="M868 821l-317 -281l227 -279l-91 -75l-225 274l-313 -278l-78 90l314 281l-225 276l93 76l222 -272l313 277z" />
    <glyph glyph-name="Oslash" unicode="&#xd8;" horiz-adv-x="1398" 
d="M702 99q216 0 348 162.5t132 388t-106 348.5l-622 -838q101 -61 248 -61zM259 580q0 -230 113 -353l624 840q-110 69 -255 69q-218 0 -350 -163t-132 -393zM1324 685q0 -317 -178 -513t-461 -196q-175 0 -311 78l-117 -158h-121v13l154 208q-175 158 -175 430
q0 317 180 514.5t463 197.5q181 0 316 -84l116 154h124v-11l-156 -210q166 -156 166 -423z" />
    <glyph glyph-name="Ugrave" unicode="&#xd9;" horiz-adv-x="1273" 
d="M575 -26q-197 0 -308 103.5t-111 274.5q0 71 8 121l106 758h138l-105 -741q-7 -47 -7 -97q0 -143 79 -219.5t231 -76.5q314 0 371 393l103 741h136l-106 -758q-73 -499 -535 -499zM897 1305l-333 158l-5 21l89 110l288 -211z" />
    <glyph glyph-name="Uacute" unicode="&#xda;" horiz-adv-x="1273" 
d="M575 -26q-197 0 -308 103.5t-111 274.5q0 71 8 121l106 758h138l-105 -741q-7 -47 -7 -97q0 -143 79 -219.5t231 -76.5q314 0 371 393l103 741h136l-106 -758q-73 -499 -535 -499zM596 1303l-36 80l317 203l78 -115l-7 -19z" />
    <glyph glyph-name="Ucircumflex" unicode="&#xdb;" horiz-adv-x="1273" 
d="M575 -26q-197 0 -308 103.5t-111 274.5q0 71 8 121l106 758h138l-105 -741q-7 -47 -7 -97q0 -143 79 -219.5t231 -76.5q314 0 371 393l103 741h136l-106 -758q-73 -499 -535 -499zM551 1305l-46 67l245 209h64l190 -209l-58 -67l-181 155z" />
    <glyph glyph-name="Udieresis" unicode="&#xdc;" horiz-adv-x="1273" 
d="M575 -26q-197 0 -308 103.5t-111 274.5q0 71 8 121l106 758h138l-105 -741q-7 -47 -7 -97q0 -143 79 -219.5t231 -76.5q314 0 371 393l103 741h136l-106 -758q-73 -499 -535 -499zM947 1363q-36 0 -58.5 20.5t-22.5 58.5t27 62.5t62 24.5t56.5 -22.5t21.5 -60t-25 -60.5
t-61 -23zM586 1363q-36 0 -58.5 20.5t-22.5 58.5t27 62.5t62 24.5t56.5 -22.5t21.5 -60t-25 -60.5t-61 -23z" />
    <glyph glyph-name="Yacute" unicode="&#xdd;" horiz-adv-x="1053" 
d="M391 0l74 521l-324 704l2 6h147l265 -578l424 578h142l2 -6l-520 -706l-74 -519h-138zM497 1303l-35 80l316 203l78 -115l-7 -19z" />
    <glyph glyph-name="Thorn" unicode="&#xde;" horiz-adv-x="1003" 
d="M436 352q177 0 270 81t93 228q0 106 -69 166.5t-207 60.5q-82 0 -149 -7l-72 -522q65 -7 134 -7zM555 1009q181 0 283 -83.5t102 -240.5q0 -209 -135 -329t-371 -120q-84 0 -149 8l-34 -244h-137l171 1231h138l-32 -231q71 9 164 9z" />
    <glyph glyph-name="germandbls" unicode="&#xdf;" horiz-adv-x="1104" 
d="M685.5 -24q-140.5 0 -227.5 69l20 132l4 2q69 -82 203 -82q86 0 137 41t51 106t-29 100.5t-91 79.5t-88 66q-71 61 -71 147q0 56 20.5 102.5t43 71.5t64.5 64q106 95 106.5 176t-53 119t-135.5 38q-246 0 -283 -286l-130 -922h-141l134 936q28 194 144 296.5t269 102.5
t244 -64.5t91 -188.5q0 -88 -36 -147.5t-84 -104t-62 -58.5q-42 -43 -41.5 -91t29 -79.5t99.5 -84t105.5 -104.5t34.5 -139q0 -136 -93.5 -217t-234 -81z" />
    <glyph glyph-name="agrave" unicode="&#xe0;" horiz-adv-x="1126" 
d="M600.5 862q-155.5 0 -263.5 -127.5t-108 -352.5q0 -132 69 -206t178 -74t193.5 62.5t114.5 183.5l61 428l2 6q-91 80 -246.5 80zM897 -13q-140 0 -134 141q-108 -151 -311 -150q-168 0 -268 103t-100 278q0 289 148 457.5t371 168.5q175 0 276 -80l17 59h115l-106 -746
q-7 -56 5 -79.5t50 -23t66 22.5l5 -2l-16 -119q-54 -30 -118 -30zM763 1065l-309 192l-2 18l97 106l266 -232z" />
    <glyph glyph-name="aacute" unicode="&#xe1;" horiz-adv-x="1126" 
d="M600.5 862q-155.5 0 -263.5 -127.5t-108 -352.5q0 -132 69 -206t178 -74t193.5 62.5t114.5 183.5l61 428l2 6q-91 80 -246.5 80zM897 -13q-140 0 -134 141q-108 -151 -311 -150q-168 0 -268 103t-100 278q0 289 148 457.5t371 168.5q175 0 276 -80l17 59h115l-106 -746
q-7 -56 5 -79.5t50 -23t66 22.5l5 -2l-16 -119q-54 -30 -118 -30zM849 1266l-298 -208l-56 81l253 246l103 -100z" />
    <glyph glyph-name="acircumflex" unicode="&#xe2;" horiz-adv-x="1126" 
d="M600.5 862q-155.5 0 -263.5 -127.5t-108 -352.5q0 -132 69 -206t178 -74t193.5 62.5t114.5 183.5l61 428l2 6q-91 80 -246.5 80zM897 -13q-140 0 -134 141q-108 -151 -311 -150q-168 0 -268 103t-100 278q0 289 148 457.5t371 168.5q175 0 276 -80l17 59h115l-106 -746
q-7 -56 5 -79.5t50 -23t66 22.5l5 -2l-16 -119q-54 -30 -118 -30zM667 1240l-211 -179l-54 60l246 251h67l175 -251l-69 -60z" />
    <glyph glyph-name="atilde" unicode="&#xe3;" horiz-adv-x="1126" 
d="M600.5 862q-155.5 0 -263.5 -127.5t-108 -352.5q0 -132 69 -206t178 -74t193.5 62.5t114.5 183.5l61 428l2 6q-91 80 -246.5 80zM897 -13q-140 0 -134 141q-108 -151 -311 -150q-168 0 -268 103t-100 278q0 289 148 457.5t371 168.5q175 0 276 -80l17 59h115l-106 -746
q-7 -56 5 -79.5t50 -23t66 22.5l5 -2l-16 -119q-54 -30 -118 -30zM528.5 1324q59.5 0 131.5 -36.5t109 -36.5q73 0 84 80l5 4l95 -21q-13 -88 -63 -133t-109.5 -45t-133.5 37t-107.5 37t-55.5 -22.5t-28 -59.5l-5 -2l-88 21q11 76 58.5 126.5t107 50.5z" />
    <glyph glyph-name="adieresis" unicode="&#xe4;" horiz-adv-x="1126" 
d="M600.5 862q-155.5 0 -263.5 -127.5t-108 -352.5q0 -132 69 -206t178 -74t193.5 62.5t114.5 183.5l61 428l2 6q-91 80 -246.5 80zM897 -13q-140 0 -134 141q-108 -151 -311 -150q-168 0 -268 103t-100 278q0 289 148 457.5t371 168.5q175 0 276 -80l17 59h115l-106 -746
q-7 -56 5 -79.5t50 -23t66 22.5l5 -2l-16 -119q-54 -30 -118 -30zM828 1158q-38 0 -62.5 23.5t-24.5 64.5t29 67t67 26t61.5 -23.5t23.5 -63.5t-28 -67t-66 -27zM483 1158q-38 0 -62 23.5t-24 64.5t27.5 67t67 26t62.5 -23.5t23 -63.5t-28 -67t-66 -27z" />
    <glyph glyph-name="aring" unicode="&#xe5;" horiz-adv-x="1126" 
d="M600.5 862q-155.5 0 -263.5 -127.5t-108 -352.5q0 -132 69 -206t178 -74t193.5 62.5t114.5 183.5l61 428l2 6q-91 80 -246.5 80zM897 -13q-140 0 -134 141q-108 -151 -311 -150q-168 0 -268 103t-100 278q0 289 148 457.5t371 168.5q175 0 276 -80l17 59h115l-106 -746
q-7 -56 5 -79.5t50 -23t66 22.5l5 -2l-16 -119q-54 -30 -118 -30zM655 1316q-39 0 -66 -28.5t-27 -71.5t23.5 -65.5t63.5 -22.5t66 28t26 71t-23.5 66t-62.5 23zM645.5 1050q-75.5 0 -120.5 44t-45 118t52.5 127.5t127 53.5t119 -43t44.5 -118.5t-51 -128.5t-126.5 -53z" />
    <glyph glyph-name="ae" unicode="&#xe6;" horiz-adv-x="1720" 
d="M1510 616q0 115 -60.5 180.5t-179 65.5t-203.5 -78t-119 -212h560q2 15 2 44zM474.5 102q112.5 0 199 107.5t115.5 283.5q17 149 86 261q-97 108 -262.5 108t-274.5 -126.5t-109 -351.5q0 -132 66.5 -207t179 -75zM1270.5 985q181.5 0 278.5 -101.5t97 -257.5
q0 -80 -21 -166h-694v-36q0 -155 83.5 -239t214.5 -84q173 0 305 91l6 -2l-21 -132q-119 -80 -284.5 -80t-273.5 68t-151 198q-119 -266 -365 -266q-166 0 -263.5 104t-97.5 283q0 285 150 452.5t369 167.5q127 0 207 -32.5t143 -99.5q136 132 317.5 132z" />
    <glyph glyph-name="ccedilla" unicode="&#xe7;" horiz-adv-x="895" 
d="M624 987q143 0 247 -51l-18 -126l-6 -2q-106 54 -234 54q-169 0 -274.5 -121t-105.5 -290.5t79 -259.5t210 -90t243 63l6 -2l-19 -128q-102 -50 -220 -56l-52 -75q22 6 64.5 6t78.5 -33.5t36 -102.5q0 -102 -70.5 -152.5t-154 -50.5t-132.5 19l13 85l3 2q35 -17 89.5 -17
t90.5 25.5t36 66.5q0 78 -78 78q-41 0 -89 -15l-2 2l9 70l69 95q-162 19 -258.5 131.5t-96.5 295.5q0 264 150.5 421.5t385.5 157.5z" />
    <glyph glyph-name="egrave" unicode="&#xe8;" horiz-adv-x="1022" 
d="M812 616q0 115 -60.5 180.5t-179 65.5t-204 -78t-119.5 -212h561q2 15 2 44zM564 985q192 0 289 -102.5t97 -256.5q0 -67 -21 -166h-696v-36q0 -156 82.5 -239.5t235 -83.5t285.5 91l6 -2l-19 -132q-119 -80 -307 -80t-308 111.5t-120 323.5q0 255 142 413.5t334 158.5z
M715 1065l-309 192l-2 18l97 106l266 -232z" />
    <glyph glyph-name="eacute" unicode="&#xe9;" horiz-adv-x="1022" 
d="M812 616q0 115 -60.5 180.5t-179 65.5t-204 -78t-119.5 -212h561q2 15 2 44zM564 985q192 0 289 -102.5t97 -256.5q0 -67 -21 -166h-696v-36q0 -156 82.5 -239.5t235 -83.5t285.5 91l6 -2l-19 -132q-119 -80 -307 -80t-308 111.5t-120 323.5q0 255 142 413.5t334 158.5z
M801 1266l-298 -208l-56 81l253 246l102 -100z" />
    <glyph glyph-name="ecircumflex" unicode="&#xea;" horiz-adv-x="1022" 
d="M812 616q0 115 -60.5 180.5t-179 65.5t-204 -78t-119.5 -212h561q2 15 2 44zM564 985q192 0 289 -102.5t97 -256.5q0 -67 -21 -166h-696v-36q0 -156 82.5 -239.5t235 -83.5t285.5 91l6 -2l-19 -132q-119 -80 -307 -80t-308 111.5t-120 323.5q0 255 142 413.5t334 158.5z
M618 1240l-210 -179l-54 60l246 251h67l175 -251l-69 -60z" />
    <glyph glyph-name="edieresis" unicode="&#xeb;" horiz-adv-x="1022" 
d="M812 616q0 115 -60.5 180.5t-179 65.5t-204 -78t-119.5 -212h561q2 15 2 44zM564 985q192 0 289 -102.5t97 -256.5q0 -67 -21 -166h-696v-36q0 -156 82.5 -239.5t235 -83.5t285.5 91l6 -2l-19 -132q-119 -80 -307 -80t-308 111.5t-120 323.5q0 255 142 413.5t334 158.5z
M779 1158q-38 0 -62 23.5t-24 64.5t28.5 67t67 26t61.5 -23.5t23 -63.5t-28 -67t-66 -27zM435 1158q-38 0 -62.5 23.5t-24.5 64.5t28 67t67 26t62.5 -23.5t23.5 -63.5t-28 -67t-66 -27z" />
    <glyph glyph-name="igrave" unicode="&#xec;" horiz-adv-x="446" 
d="M86 0l136 964h139l-134 -964h-141zM419 1046l-283 220l-2 19l110 98l234 -266z" />
    <glyph glyph-name="iacute" unicode="&#xed;" horiz-adv-x="446" 
d="M86 0l136 964h141l-138 -964h-139zM197 1058l-56 81l254 246l102 -100l-2 -19z" />
    <glyph glyph-name="icircumflex" unicode="&#xee;" horiz-adv-x="446" 
d="M86 0l137 964h140l-136 -964h-141zM132 1054l-52 59l244 254h65l177 -254l-69 -59l-162 179z" />
    <glyph glyph-name="idieresis" unicode="&#xef;" horiz-adv-x="450" 
d="M88 0l135 964h142l-138 -964h-139zM458 1158q-37 0 -62 23t-25 65t28 67q29 26 67 26q38 1 62 -23t23 -64q0 -40 -28 -67t-65 -27zM179 1158q-37 0 -63 23q-25 23 -25 65t29 67q29 26 67 26q37 1 61 -23t24 -64t-28 -67t-65 -27z" />
    <glyph glyph-name="eth" unicode="&#xf0;" horiz-adv-x="1145" 
d="M231 391q-1 -132 73 -212t216 -80q142 1 247 111q106 110 140 322q-7 86 -87 169t-231 83q-152 0 -255 -111t-103 -282zM480 -24q-182 0 -288 104t-106 289q0 236 150 387t367 151t319 -151q-6 283 -133 393l-162 -147l-54 63l144 130q-63 26 -172 26t-223 -46l-2 5
l15 120q109 44 251 44t237 -52l181 166l54 -62l-166 -152q168 -149 168 -504q0 -356 -158 -560q-157 -204 -422 -204z" />
    <glyph glyph-name="ntilde" unicode="&#xf1;" horiz-adv-x="1096" 
d="M653 985q138 0 230.5 -82t92.5 -246q0 -50 -6 -97l-78 -560h-142l73 525q9 61 9 97q0 127 -64 181.5t-163.5 54.5t-181.5 -65t-108 -177l-88 -616h-141l137 964h114l-4 -143q106 164 320 164zM511.5 1324q59.5 0 131.5 -36.5t109 -36.5q73 0 84 80l6 4l94 -21
q-13 -88 -63 -133t-109.5 -45t-133 37t-107.5 37t-56 -22.5t-28 -59.5l-5 -2l-88 21q11 76 58.5 126.5t107 50.5z" />
    <glyph glyph-name="ograve" unicode="&#xf2;" horiz-adv-x="1124" 
d="M546 101q150 0 248 125.5t98 292t-82 255t-232 88.5t-247.5 -127.5t-97.5 -291.5t81.5 -253t231.5 -89zM518 -22q-190 0 -310 116t-120 342.5t145 387.5t354.5 161t329.5 -116.5t120 -342.5t-146 -387t-373 -161zM747 1058l-309 191l-2 19l96 106l267 -233z" />
    <glyph glyph-name="oacute" unicode="&#xf3;" horiz-adv-x="1124" 
d="M546 101q150 0 248 125.5t98 292t-82 255t-232 88.5t-247.5 -127.5t-97.5 -291.5t81.5 -253t231.5 -89zM518 -22q-190 0 -310 116t-120 342.5t145 387.5t354.5 161t329.5 -116.5t120 -342.5t-146 -387t-373 -161zM534 1050l-56 82l254 246l102 -101l-2 -18z" />
    <glyph glyph-name="ocircumflex" unicode="&#xf4;" horiz-adv-x="1124" 
d="M546 101q150 0 248 125.5t98 292t-82 255t-232 88.5t-247.5 -127.5t-97.5 -291.5t81.5 -253t231.5 -89zM518 -22q-190 0 -310 116t-120 342.5t145 387.5t354.5 161t329.5 -116.5t120 -342.5t-146 -387t-373 -161zM439 1054l-54 59l246 252h67l175 -252l-69 -59l-154 179z
" />
    <glyph glyph-name="otilde" unicode="&#xf5;" horiz-adv-x="1124" 
d="M546 101q150 0 248 125.5t98 292t-82 255t-232 88.5t-247.5 -127.5t-97.5 -291.5t81.5 -253t231.5 -89zM518 -22q-190 0 -310 116t-120 342.5t145 387.5t354.5 161t329.5 -116.5t120 -342.5t-146 -387t-373 -161zM511.5 1316q59.5 0 131.5 -36t109 -36q73 0 84 80l6 3
l94 -20q-13 -88 -63 -133.5t-109.5 -45.5t-133 37.5t-107.5 37.5t-56 -22.5t-28 -59.5l-5 -2l-88 20q11 76 58.5 126.5t107 50.5z" />
    <glyph glyph-name="odieresis" unicode="&#xf6;" horiz-adv-x="1124" 
d="M546 101q150 0 248 125.5t98 292t-82 255t-232 88.5t-247.5 -127.5t-97.5 -291.5t81.5 -253t231.5 -89zM518 -22q-190 0 -310 116t-120 342.5t145 387.5t354.5 161t329.5 -116.5t120 -342.5t-146 -387t-373 -161zM811 1151q-38 0 -62.5 23t-24.5 64t29 67t67 26t61.5 -23
t23.5 -63.5t-28 -67t-66 -26.5zM466 1151q-38 0 -62 23t-24 64t28 67t67 26t62 -23t23 -63.5t-28 -67t-66 -26.5z" />
    <glyph glyph-name="divide" unicode="&#xf7;" horiz-adv-x="955" 
d="M438 158q-88 0 -88 84q0 39 30 71q30 31 74 31t66 -23t22 -63t-29 -70t-75 -30zM117 501l13 108h732l-15 -108h-730zM627 856q-1 -40 -31 -70t-74 -30q-88 0 -88 78q0 45 30 75t80 29q83 0 83 -82z" />
    <glyph glyph-name="oslash" unicode="&#xf8;" horiz-adv-x="1124" 
d="M532 101q164 0 262 125.5t98 293t-80 253.5l-419 -643q65 -29 139 -29zM233 443q0 -164 82 -255l417 644q-65 30 -142 30q-162 0 -259.5 -127.5t-97.5 -291.5zM1037 536.5q0 -236.5 -146 -397.5t-373 -161q-114 0 -198 41l-80 -123h-104v15l102 158
q-151 117 -150.5 355.5t145.5 399.5t370 161q114 0 201 -41l73 114h113v-12l-100 -154q147 -119 147 -355.5z" />
    <glyph glyph-name="ugrave" unicode="&#xf9;" horiz-adv-x="1072" 
d="M424 -22q-145 0 -224 78t-79 218q0 48 7 102l82 588h142l-82 -573q-6 -41 -6 -91q0 -99 54 -150t147 -51t170.5 52t118.5 145l95 668h141l-137 -964h-114l4 121q-119 -143 -319 -143zM745 1065l-309 192l-2 18l97 106l266 -232z" />
    <glyph glyph-name="uacute" unicode="&#xfa;" horiz-adv-x="1072" 
d="M424 -22q-145 0 -224 78t-79 218q0 48 7 102l82 588h142l-82 -573q-6 -41 -6 -91q0 -99 54 -150t147 -51t170.5 52t118.5 145l95 668h141l-137 -964h-114l4 121q-119 -143 -319 -143zM830 1266l-298 -208l-55 81l253 246l102 -100z" />
    <glyph glyph-name="ucircumflex" unicode="&#xfb;" horiz-adv-x="1072" 
d="M424 -22q-145 0 -224 78t-79 218q0 48 7 102l82 588h142l-82 -573q-6 -41 -6 -91q0 -99 54 -150t147 -51t170.5 52t118.5 145l95 668h141l-137 -964h-114l4 121q-119 -143 -319 -143zM648 1240l-210 -179l-54 60l245 251h67l175 -251l-69 -60z" />
    <glyph glyph-name="udieresis" unicode="&#xfc;" horiz-adv-x="1072" 
d="M424 -22q-145 0 -224 78t-79 218q0 48 7 102l82 588h142l-82 -573q-6 -41 -6 -91q0 -99 54 -150t147 -51t170.5 52t118.5 145l95 668h141l-137 -964h-114l4 121q-119 -143 -319 -143zM809 1158q-38 0 -62.5 23.5t-24.5 64.5t29 67t67 26t61.5 -23.5t23.5 -63.5t-28 -67
t-66 -27zM465 1158q-38 0 -62.5 23.5t-24.5 64.5t28 67t67 26t62.5 -23.5t23.5 -63.5t-28 -67t-66 -27z" />
    <glyph glyph-name="yacute" unicode="&#xfd;" horiz-adv-x="955" 
d="M93 -315q-61 0 -106 17l20 114l4 2q45 -15 99 -15q131 0 259 240l-263 916l2 5h149l201 -765l385 765h142l2 -5l-479 -901l-24 -49q-93 -175 -179.5 -249.5t-211.5 -74.5zM788 1266l-298 -208l-56 81l253 246l102 -100z" />
    <glyph glyph-name="thorn" unicode="&#xfe;" horiz-adv-x="1096" 
d="M489.5 102q156.5 0 265.5 123t109 343q0 147 -69 220.5t-175 73.5t-191.5 -59.5t-117.5 -180.5l-63 -456q85 -64 241.5 -64zM626.5 985q181.5 0 282 -102.5t100.5 -290.5q0 -283 -151.5 -448.5t-379.5 -165.5q-153 0 -249 57l-48 -342h-140l229 1633h140l-66 -470
q101 129 282.5 129z" />
    <glyph glyph-name="ydieresis" unicode="&#xff;" horiz-adv-x="955" 
d="M93 -315q-61 0 -106 17l20 114l4 2q45 -15 99 -15q131 0 259 240l-263 916l2 5h149l201 -765l385 765h142l2 -5l-479 -901l-24 -49q-93 -175 -179.5 -249.5t-211.5 -74.5zM766 1158q-38 0 -62 23.5t-24 64.5t28.5 67t67 26t61.5 -23.5t23 -63.5t-28 -67t-66 -27z
M422 1158q-38 0 -62.5 23.5t-24.5 64.5t28 67t67 26t62.5 -23.5t23.5 -63.5t-28 -67t-66 -27z" />
    <glyph glyph-name="Amacron" unicode="&#x100;" horiz-adv-x="1131" 
d="M333 438h455l-136 528l-10 52l-24 -52zM901 0l-84 328h-541l-177 -328h-140l685 1253h56l348 -1253h-147zM957 1510l-19 -117h-497l17 117h499z" />
    <glyph glyph-name="amacron" unicode="&#x101;" horiz-adv-x="1126" 
d="M600.5 862q-155.5 0 -263.5 -127.5t-108 -352.5q0 -132 69 -206t178 -74t193.5 62.5t114.5 183.5l61 428l2 6q-91 80 -246.5 80zM897 -13q-140 0 -134 141q-108 -151 -311 -150q-168 0 -268 103t-100 278q0 289 148 457.5t371 168.5q175 0 276 -80l17 59h115l-106 -746
q-7 -56 5 -79.5t50 -23t66 22.5l5 -2l-16 -119q-54 -30 -118 -30zM925 1266l-15 -106h-517l15 106h517z" />
    <glyph glyph-name="Abreve" unicode="&#x102;" horiz-adv-x="1131" 
d="M333 438h455l-136 528l-10 52l-24 -52zM901 0l-84 328h-541l-177 -328h-140l685 1253h56l348 -1253h-147zM682.5 1314q-105.5 0 -167 66.5t-44.5 179.5l93 10q-4 -69 31.5 -110t100.5 -41t114.5 41.5t60.5 109.5l88 -10q-15 -112 -93 -179t-183.5 -67z" />
    <glyph glyph-name="abreve" unicode="&#x103;" horiz-adv-x="1126" 
d="M600.5 862q-155.5 0 -263.5 -127.5t-108 -352.5q0 -132 69 -206t178 -74t193.5 62.5t114.5 183.5l61 428l2 6q-91 80 -246.5 80zM897 -13q-140 0 -134 141q-108 -151 -311 -150q-168 0 -268 103t-100 278q0 289 148 457.5t371 168.5q175 0 276 -80l17 59h115l-106 -746
q-7 -56 5 -79.5t50 -23t66 22.5l5 -2l-16 -119q-54 -30 -118 -30zM647 1078q-105 0 -166.5 70t-44.5 189l95 11l3 -4q-7 -73 26.5 -115.5t97.5 -42.5t110 43t61 113l5 6l88 -11q-17 -121 -93.5 -190t-181.5 -69z" />
    <glyph glyph-name="Aogonek" unicode="&#x104;" horiz-adv-x="1131" 
d="M333 438h455l-136 528l-10 52l-24 -52zM901 -324q34 0 54 7l4 -3l-11 -91q-48 -13 -111.5 -13t-108.5 34t-45 98q0 164 224 292h-6l-84 328h-541l-177 -328h-140l685 1253h56l348 -1253h-31q-195 -128 -196 -253q0 -71 80 -71z" />
    <glyph glyph-name="aogonek" unicode="&#x105;" horiz-adv-x="1126" 
d="M600.5 862q-155.5 0 -263.5 -127.5t-108 -352.5q0 -132 69 -206t178 -74t193.5 62.5t114.5 183.5l61 428l2 6q-91 80 -246.5 80zM797 -246q0 -71 80 -71q34 0 54 8l4 -4l-12 -91q-48 -13 -111 -13t-108 34.5t-45 97.5q0 153 196 276q-97 20 -92 137q-108 -151 -311 -150
q-168 0 -268 103t-100 278q0 289 148 457.5t371 168.5q175 0 276 -80l17 59h115l-106 -746q-7 -56 5 -79.5t50 -23.5t66 23l5 -2l-16 -119q-9 -6 -28 -13q-190 -128 -190 -250z" />
    <glyph glyph-name="Cacute" unicode="&#x106;" horiz-adv-x="1131" 
d="M685 -22q-264 0 -418.5 144t-154.5 403q0 330 190 531t491 201q197 0 339 -73l-19 -130l-3 -2q-145 82 -330 82q-233 0 -380 -166.5t-147 -420.5q0 -210 123 -329t328 -119q164 0 300 82l5 -2l-20 -129q-133 -72 -304 -72zM640 1303l-35 80l317 203l78 -115l-8 -19z" />
    <glyph glyph-name="cacute" unicode="&#x107;" horiz-adv-x="895" 
d="M505 -22q-186 0 -301.5 114.5t-115.5 315.5q0 264 150.5 421.5t385.5 157.5q143 0 247 -51l-18 -126l-6 -2q-106 54 -234 54q-169 0 -274.5 -121t-105.5 -291t79 -259.5t210 -89.5t243 63l6 -2l-19 -128q-107 -56 -247 -56zM523 1065l-56 82l254 246l102 -101l-2 -19z
" />
    <glyph glyph-name="Ccircumflex" unicode="&#x108;" horiz-adv-x="1131" 
d="M685 -22q-264 0 -418.5 144t-154.5 403q0 330 190 531t491 201q197 0 339 -73l-19 -130l-3 -2q-145 82 -330 82q-233 0 -380 -166.5t-147 -420.5q0 -210 123 -329t328 -119q164 0 300 82l5 -2l-20 -129q-133 -72 -304 -72zM596 1305l-47 67l246 209h63l190 -209l-58 -67
l-180 155z" />
    <glyph glyph-name="ccircumflex" unicode="&#x109;" horiz-adv-x="895" 
d="M505 -22q-186 0 -301.5 114.5t-115.5 315.5q0 264 150.5 421.5t385.5 157.5q143 0 247 -51l-18 -126l-6 -2q-106 54 -234 54q-169 0 -274.5 -121t-105.5 -291t79 -259.5t210 -89.5t243 63l6 -2l-19 -128q-107 -56 -247 -56zM428 1069l-54 59l246 252h67l175 -252l-69 -59
l-154 178z" />
    <glyph glyph-name="Cdotaccent" unicode="&#x10a;" horiz-adv-x="1131" 
d="M685 -22q-264 0 -418.5 144t-154.5 403q0 330 190 531t491 201q197 0 339 -73l-19 -130l-3 -2q-145 82 -330 82q-233 0 -380 -166.5t-147 -420.5q0 -210 123 -329t328 -119q164 0 300 82l5 -2l-20 -129q-133 -72 -304 -72zM812 1363q-39 0 -64.5 24t-25.5 66t29 69t69 27
t64 -24q24 -23 24.5 -65t-28.5 -69.5t-68 -27.5z" />
    <glyph glyph-name="cdotaccent" unicode="&#x10b;" horiz-adv-x="895" 
d="M505 -22q-186 0 -301.5 114.5t-115.5 315.5q0 264 150.5 421.5t385.5 157.5q143 0 247 -51l-18 -126l-6 -2q-106 54 -234 54q-169 0 -274.5 -121t-105.5 -291t79 -259.5t210 -89.5t243 63l6 -2l-19 -128q-107 -56 -247 -56zM635 1164q-39 0 -64 24t-25 66t28.5 69
t68.5 27t64.5 -24.5t24.5 -65.5t-29 -68.5t-68 -27.5z" />
    <glyph glyph-name="Ccaron" unicode="&#x10c;" horiz-adv-x="1131" 
d="M685 -22q-264 0 -418.5 144t-154.5 403q0 330 190 531t491 201q197 0 339 -73l-19 -130l-3 -2q-145 82 -330 82q-233 0 -380 -166.5t-147 -420.5q0 -210 123 -329t328 -119q164 0 300 82l5 -2l-20 -129q-133 -72 -304 -72zM769 1305l-197 209l63 67l180 -155l205 155
l51 -67l-237 -209h-65z" />
    <glyph glyph-name="ccaron" unicode="&#x10d;" horiz-adv-x="895" 
d="M505 -22q-186 0 -301.5 114.5t-115.5 315.5q0 264 150.5 421.5t385.5 157.5q143 0 247 -51l-18 -126l-6 -2q-106 54 -234 54q-169 0 -274.5 -121t-105.5 -291t79 -259.5t210 -89.5t243 63l6 -2l-19 -128q-107 -56 -247 -56zM581 1069l-175 253l67 58l158 -179l209 179
l50 -58l-242 -253h-67z" />
    <glyph glyph-name="Dcaron" unicode="&#x10e;" horiz-adv-x="1303" 
d="M508 121q279 0 429 158.5t150 429.5q0 192 -116 301t-336 109q-160 0 -227 -7l-140 -984q112 -7 240 -7zM655 1247q281 0 430 -139.5t149 -385.5q0 -337 -201 -530.5t-556 -193.5q-279 0 -363 6l173 1227q174 16 368 16zM748 1311h-65l-197 208l63 67l181 -154l205 154
l50 -67z" />
    <glyph glyph-name="dcaron" unicode="&#x10f;" horiz-adv-x="1141" 
d="M478.5 102q111.5 0 197 66.5t110.5 181.5l61 432q-86 80 -238.5 80t-265 -129.5t-112.5 -339.5q0 -140 68 -215.5t179.5 -75.5zM1307 1326l13 -15l-102 -380h-90l71 395h108zM961.5 115q36.5 0 68.5 28l3 -2l-18 -121q-47 -34 -118 -33q-140 0 -134 134
q-112 -143 -318 -143q-158 0 -258.5 106t-100.5 288q0 274 155.5 443.5t378.5 169.5q143 0 246 -69l57 410h140l-154 -1108q-7 -58 4.5 -80.5t48 -22.5z" />
    <glyph glyph-name="Dcroat" unicode="&#x110;" horiz-adv-x="1303" 
d="M508 121q279 0 429 158.5t150 429.5q0 192 -116 301t-336 109q-160 0 -227 -7l-64 -447h188l-14 -105h-188l-62 -432q112 -7 240 -7zM655 1247q281 0 430 -139.5t149 -385.5q0 -337 -201 -530.5t-556 -193.5q-279 0 -363 6l78 556h-160l15 105h160l80 566q174 16 368 16z
" />
    <glyph glyph-name="dcroat" unicode="&#x111;" horiz-adv-x="1133" 
d="M478.5 102q111.5 0 197 66.5t110.5 181.5l61 432q-86 80 -238.5 80t-265 -129.5t-112.5 -339.5q0 -140 68 -215.5t179.5 -75.5zM961.5 115q36.5 0 68.5 28l3 -2l-18 -121q-47 -34 -118 -33q-140 0 -134 134q-112 -143 -318 -143q-158 0 -258.5 106t-100.5 288
q0 274 155.5 443.5t378.5 169.5q143 0 246 -69l24 168h-173l13 104h175l18 138h140l-19 -138h144l-13 -104h-145l-121 -866q-7 -58 4.5 -80.5t48 -22.5z" />
    <glyph glyph-name="Emacron" unicode="&#x112;" horiz-adv-x="986" 
d="M959 1102h-551l-56 -404h516l-19 -126h-516l-61 -444h571l-16 -128h-713l171 1231h691zM927 1510l-18 -117h-498l17 117h499z" />
    <glyph glyph-name="emacron" unicode="&#x113;" horiz-adv-x="1022" 
d="M812 616q0 115 -60.5 180.5t-179 65.5t-204 -78t-119.5 -212h561q2 15 2 44zM564 985q192 0 289 -102.5t97 -256.5q0 -67 -21 -166h-696v-36q0 -156 82.5 -239.5t235 -83.5t285.5 91l6 -2l-19 -132q-119 -80 -307 -80t-308 111.5t-120 323.5q0 255 142 413.5t334 158.5z
M877 1266l-15 -106h-518l15 106h518z" />
    <glyph glyph-name="Ebreve" unicode="&#x114;" horiz-adv-x="986" 
d="M959 1102h-551l-56 -404h516l-19 -126h-516l-61 -444h571l-16 -128h-713l171 1231h691zM652.5 1314q-105.5 0 -167 66.5t-44.5 179.5l93 10q-4 -69 31.5 -110t101 -41t114.5 41.5t61 109.5l87 -10q-15 -112 -93 -179t-183.5 -67z" />
    <glyph glyph-name="ebreve" unicode="&#x115;" horiz-adv-x="1022" 
d="M812 616q0 115 -60.5 180.5t-179 65.5t-204 -78t-119.5 -212h561q2 15 2 44zM564 985q192 0 289 -102.5t97 -256.5q0 -67 -21 -166h-696v-36q0 -156 82.5 -239.5t235 -83.5t285.5 91l6 -2l-19 -132q-119 -80 -307 -80t-308 111.5t-120 323.5q0 255 142 413.5t334 158.5z
M599 1078q-105 0 -166.5 70t-45.5 189l95 11l4 -4q-7 -73 26.5 -115.5t97.5 -42.5t109.5 43t60.5 113l6 6l87 -11q-17 -121 -93 -190t-181 -69z" />
    <glyph glyph-name="Edotaccent" unicode="&#x116;" horiz-adv-x="986" 
d="M959 1102h-551l-56 -404h516l-19 -126h-516l-61 -444h571l-16 -128h-713l171 1231h691zM668 1363q-39 0 -64 24t-25 66t29 69t69 27t64 -24q24 -23 24 -65t-29 -69.5t-68 -27.5z" />
    <glyph glyph-name="edotaccent" unicode="&#x117;" horiz-adv-x="1022" 
d="M812 616q0 115 -60.5 180.5t-179 65.5t-204 -78t-119.5 -212h561q2 15 2 44zM564 985q192 0 289 -102.5t97 -256.5q0 -67 -21 -166h-696v-36q0 -156 82.5 -239.5t235 -83.5t285.5 91l6 -2l-19 -132q-119 -80 -307 -80t-308 111.5t-120 323.5q0 255 142 413.5t334 158.5z
M614 1156q-39 0 -64 24.5t-25 66.5t29 68.5t69 26.5t64 -24t24 -65t-29 -69t-68 -28z" />
    <glyph glyph-name="Eogonek" unicode="&#x118;" horiz-adv-x="986" 
d="M709 -324q34 0 54 7l4 -3l-11 -91q-48 -13 -111.5 -13t-108 34t-44.5 98q0 164 223 292h-601l171 1231h691l-17 -129h-551l-56 -404h516l-19 -126h-516l-61 -444h571l-16 -128h-2q-195 -128 -196 -253q0 -71 80 -71z" />
    <glyph glyph-name="eogonek" unicode="&#x119;" horiz-adv-x="1022" 
d="M812 616q0 115 -60.5 180.5t-179 65.5t-204 -78t-119.5 -212h561q2 15 2 44zM564 985q192 0 289 -102.5t97 -256.5q0 -67 -21 -166h-696v-36q0 -156 82.5 -239.5t235 -83.5t285.5 91l6 -2l-19 -132q-47 -32 -114 -56q-188 -125 -188 -248q0 -71 80 -71q34 0 54 8l4 -4
l-11 -91q-48 -13 -111.5 -13t-108 34.5t-44.5 97.5q0 145 176 263h-42q-190 0 -310 111.5t-120 323.5q0 255 142 413.5t334 158.5z" />
    <glyph glyph-name="Ecaron" unicode="&#x11a;" horiz-adv-x="986" 
d="M959 1102h-551l-56 -404h516l-19 -126h-516l-61 -444h571l-16 -128h-713l171 1231h691zM691 1305h-65l-198 209l64 67l180 -155l205 155l50 -67z" />
    <glyph glyph-name="ecaron" unicode="&#x11b;" horiz-adv-x="1022" 
d="M812 616q0 115 -60.5 180.5t-179 65.5t-204 -78t-119.5 -212h561q2 15 2 44zM564 985q192 0 289 -102.5t97 -256.5q0 -67 -21 -166h-696v-36q0 -156 82.5 -239.5t235 -83.5t285.5 91l6 -2l-19 -132q-119 -80 -307 -80t-308 111.5t-120 323.5q0 255 142 413.5t334 158.5z
M627 1061h-67l-175 253l67 58l159 -179l208 179l50 -58z" />
    <glyph glyph-name="Gcircumflex" unicode="&#x11c;" horiz-adv-x="1241" 
d="M838 1257q199 0 339 -73l-17 -130l-6 -2q-132 82 -339 82q-246 0 -402 -166.5t-156 -436.5q0 -192 112.5 -307.5t311.5 -115.5q156 0 282 67l44 328h-305l13 115h434l-73 -529q-192 -108 -433 -108t-386 143.5t-145 387.5q0 335 202 540t524 205zM825 1465l-214 -154
l-47 67l246 208h63l190 -208l-58 -67z" />
    <glyph glyph-name="gcircumflex" unicode="&#x11d;" horiz-adv-x="1092" 
d="M497 151q182 0 285 190l61 439q-89 84 -247 84t-259 -121t-101 -307q0 -138 69 -211.5t192 -73.5zM392 -317q-202 0 -338 86l20 134l4 2q123 -97 302 -97q328 0 368 293l10 67q-112 -141 -317 -142q-160 0 -256 102.5t-96 284.5q0 261 148 416.5t347.5 155.5t299.5 -91
l30 80h99l-123 -872q-30 -203 -163 -311t-335 -108zM650 1240l-211 -179l-54 60l246 251h67l175 -251l-69 -60z" />
    <glyph glyph-name="Gbreve" unicode="&#x11e;" horiz-adv-x="1241" 
d="M838 1257q199 0 339 -73l-17 -130l-6 -2q-132 82 -339 82q-246 0 -402 -166.5t-156 -436.5q0 -192 112.5 -307.5t311.5 -115.5q156 0 282 67l44 328h-305l13 115h434l-73 -529q-192 -108 -433 -108t-386 143.5t-145 387.5q0 335 202 540t524 205zM810.5 1320
q-105.5 0 -166.5 66t-44 180l93 9q-4 -69 31.5 -110t100.5 -41t114.5 42t60.5 109l87 -9q-15 -112 -93 -179t-183.5 -67z" />
    <glyph glyph-name="gbreve" unicode="&#x11f;" horiz-adv-x="1092" 
d="M497 151q182 0 285 190l61 439q-89 84 -247 84t-259 -121t-101 -307q0 -138 69 -211.5t192 -73.5zM392 -317q-202 0 -338 86l20 134l4 2q123 -97 302 -97q328 0 368 293l10 67q-112 -141 -317 -142q-160 0 -256 102.5t-96 284.5q0 261 148 416.5t347.5 155.5t299.5 -91
l30 80h99l-123 -872q-30 -203 -163 -311t-335 -108zM630 1078q-105 0 -166.5 70t-44.5 189l95 11l4 -4q-7 -73 26 -115.5t97 -42.5t110 43t61 113l5 6l88 -11q-17 -121 -93.5 -190t-181.5 -69z" />
    <glyph glyph-name="Gdotaccent" unicode="&#x120;" horiz-adv-x="1241" 
d="M838 1257q199 0 339 -73l-17 -130l-6 -2q-132 82 -339 82q-246 0 -402 -166.5t-156 -436.5q0 -192 112.5 -307.5t311.5 -115.5q156 0 282 67l44 328h-305l13 115h434l-73 -529q-192 -108 -433 -108t-386 143.5t-145 387.5q0 335 202 540t524 205zM827 1368
q-39 0 -64.5 24.5t-25.5 66.5t29 69t69 27t64 -24.5t24 -65.5t-28.5 -69t-67.5 -28z" />
    <glyph glyph-name="gdotaccent" unicode="&#x121;" horiz-adv-x="1092" 
d="M497 151q182 0 285 190l61 439q-89 84 -247 84t-259 -121t-101 -307q0 -138 69 -211.5t192 -73.5zM392 -317q-202 0 -338 86l20 134l4 2q123 -97 302 -97q328 0 368 293l10 67q-112 -141 -317 -142q-160 0 -256 102.5t-96 284.5q0 261 148 416.5t347.5 155.5t299.5 -91
l30 80h99l-123 -872q-30 -203 -163 -311t-335 -108zM646 1156q-39 0 -64 24.5t-25 66.5t28.5 68.5t68.5 26.5t64.5 -24t24.5 -65t-29 -69t-68 -28z" />
    <glyph glyph-name="Gcommaaccent" unicode="&#x122;" horiz-adv-x="1241" 
d="M553 -99l130 11l10 -16q-24 -162 -121 -315h-95q47 104 69 251q2 11 3.5 34.5t3.5 34.5zM838 1257q199 0 339 -73l-17 -130l-6 -2q-132 82 -339 82q-246 0 -402 -166.5t-156 -436.5q0 -192 112.5 -307.5t311.5 -115.5q156 0 282 67l44 328h-305l13 115h434l-73 -529
q-192 -108 -433 -108t-386 143.5t-145 387.5q0 335 202 540t524 205z" />
    <glyph glyph-name="gcommaaccent" unicode="&#x123;" horiz-adv-x="1092" 
d="M497 151q182 0 285 190l61 439q-89 84 -247 84t-259 -121t-101 -307q0 -138 69 -211.5t192 -73.5zM392 -317q-202 0 -338 86l20 134l4 2q123 -97 302 -97q328 0 368 293l10 67q-112 -141 -317 -142q-160 0 -256 102.5t-96 284.5q0 261 148 416.5t347.5 155.5t299.5 -91
l30 80h99l-123 -872q-30 -203 -163 -311t-335 -108zM706 1063l-131 -11l-9 17q24 162 121 314h95q-47 -104 -69 -251q-2 -11 -3.5 -34.5t-3.5 -34.5z" />
    <glyph glyph-name="Hcircumflex" unicode="&#x124;" horiz-adv-x="1325" 
d="M1112 1231h139l-173 -1231h-138l78 568h-687l-80 -568h-137l171 1231h139l-76 -538h689zM801 1460l-215 -155l-46 67l246 209h63l190 -209l-58 -67z" />
    <glyph glyph-name="hcircumflex" unicode="&#x125;" horiz-adv-x="1094" 
d="M652 985q147 0 235.5 -84t88.5 -234q0 -45 -6 -94l-82 -573h-138l80 564q2 20 2 56q0 122 -60 180t-160 58t-181 -56.5t-116 -172.5l-88 -629h-141l188 1326h139l-67 -481q109 140 306 140zM365 1497l-214 -155l-47 67l246 209h63l190 -209l-57 -67z" />
    <glyph glyph-name="Hbar" unicode="&#x126;" horiz-adv-x="1325" 
d="M1037 693l28 204h-687l-30 -204h689zM1324 1005l-17 -108h-102l-127 -897h-138l78 568h-687l-80 -568h-137l124 897h-106l17 108h104l32 226h139l-31 -226h687l32 226h139l-32 -226h105z" />
    <glyph glyph-name="hbar" unicode="&#x127;" horiz-adv-x="1092" 
d="M652 985q147 0 235.5 -84t88.5 -234q0 -45 -6 -94l-82 -573h-138l77 544q6 45 5 76q0 122 -60 180t-160 58t-181 -56.5t-116 -172.5l-88 -629h-141l154 1084h-143l15 104h143l19 138h139l-18 -138h203l-15 -104h-203l-34 -239q109 140 306 140z" />
    <glyph glyph-name="Itilde" unicode="&#x128;" horiz-adv-x="498" 
d="M114 0l171 1231h139l-173 -1231h-137zM268 1532q59 0 131 -35t104 -35t57.5 21t31.5 60l4 4l87 -30q-13 -78 -64 -125.5t-106 -47.5t-129.5 35.5t-110 35.5t-59.5 -22.5t-30 -61.5l-3 -2l-90 26q15 78 66.5 127.5t110.5 49.5z" />
    <glyph glyph-name="itilde" unicode="&#x129;" horiz-adv-x="446" 
d="M86 0l137 964h140l-136 -964h-141zM211.5 1318q60.5 0 138.5 -38t113.5 -38t59.5 21.5t28 58.5l6 4l89 -21q-13 -82 -64 -130.5t-109.5 -48.5t-136.5 38t-114 39q-72 0 -90 -80l-5 -4l-88 20q11 74 61.5 126.5t111 52.5z" />
    <glyph glyph-name="Imacron" unicode="&#x12a;" horiz-adv-x="498" 
d="M114 0l171 1231h139l-173 -1231h-137zM130 1393l17 117h499l-19 -117h-497z" />
    <glyph glyph-name="imacron" unicode="&#x12b;" horiz-adv-x="446" 
d="M86 0l137 964h140l-136 -964h-141zM99 1154l15 105h454l-17 -105h-452z" />
    <glyph glyph-name="Ibreve" unicode="&#x12c;" horiz-adv-x="498" 
d="M114 0l171 1231h139l-173 -1231h-137zM371.5 1314q-105.5 0 -167 66.5t-44.5 179.5l93 10q-4 -69 31.5 -110t101 -41t114.5 41.5t60 109.5l88 -10q-15 -112 -93 -179t-183.5 -67z" />
    <glyph glyph-name="ibreve" unicode="&#x12d;" horiz-adv-x="446" 
d="M86 0l137 964h140l-136 -964h-141zM314 1078q-105 0 -166.5 70t-45.5 189l95 11l4 -4q-7 -73 26.5 -115.5t97.5 -42.5t109.5 43t60.5 113l6 6l87 -11q-17 -121 -93 -190t-181 -69z" />
    <glyph glyph-name="Iogonek" unicode="&#x12e;" horiz-adv-x="498" 
d="M128 -317q34 0 54 8l4 -4l-11 -91q-48 -13 -111.5 -13t-108 34.5t-44.5 97.5q0 158 210 285h-7l171 1231h139l-173 -1231h-18q-184 -123 -185 -246q0 -71 80 -71z" />
    <glyph glyph-name="iogonek" unicode="&#x12f;" horiz-adv-x="444" 
d="M106 -324q34 0 54 7l4 -1l-11 -92q-41 -15 -107 -14.5t-111 34.5t-45 98q0 164 222 292h-28l138 964h139l-134 -964h-5q-195 -128 -196 -251q0 -73 80 -73zM338 1342q40 0 64 -24t24 -65t-28.5 -69t-68 -28t-64.5 24.5t-25 66.5t29 68.5t69 26.5z" />
    <glyph glyph-name="Idotaccent" unicode="&#x130;" horiz-adv-x="498" 
d="M114 0l171 1231h139l-173 -1231h-137zM387 1363q-39 0 -64 24t-25 66t29 69t69 27t64 -24q24 -23 24 -65t-29 -69.5t-68 -27.5z" />
    <glyph glyph-name="dotlessi" unicode="&#x131;" horiz-adv-x="446" 
d="M86 0l137 964h140l-136 -964h-141z" />
    <glyph glyph-name="IJ" unicode="&#x132;" horiz-adv-x="1143" 
d="M553 -6q-41 0 -91 6l16 119l6 2q26 -6 67 -6q233 0 274 295l117 821h140l-114 -812q-58 -425 -415 -425zM114 0l171 1231h139l-173 -1231h-137z" />
    <glyph glyph-name="ij" unicode="&#x133;" horiz-adv-x="921" 
d="M361 -315q-47 0 -89 8l18 123l6 2q22 -6 56 -6q99 0 150 60.5t68 179.5l130 912h138l-132 -942q-49 -337 -345 -337zM86 0l137 964h140l-136 -964h-141zM806 1156q-39 0 -64 24.5t-25 66.5q0 43 29 69q28 26 68 26t64.5 -24t24.5 -65t-29 -69t-68 -28zM329.5 1156
q-39.5 0 -64.5 24.5t-25 66.5t29 68.5t69 26.5t64 -24t24 -65t-28.5 -69t-68 -28z" />
    <glyph glyph-name="Jcircumflex" unicode="&#x134;" horiz-adv-x="644" 
d="M54 -6q-41 0 -91 6l17 119l5 2q24 -6 67 -6q233 0 274 295l117 821h140l-114 -812q-58 -425 -415 -425zM322 1305l-46 67l245 209h64l190 -209l-58 -67l-181 155z" />
    <glyph glyph-name="jcircumflex" unicode="&#x135;" horiz-adv-x="474" 
d="M-86 -315q-47 0 -89 8l19 123l5 2q22 -6 56 -6q99 0 150 60.5t68 179.5l130 912h138l-132 -942q-49 -337 -345 -337zM155 1061l-54 60l245 251h67l175 -251l-69 -60l-154 179z" />
    <glyph glyph-name="Kcommaaccent" unicode="&#x136;" horiz-adv-x="1104" 
d="M423 -99l130 11l9 -16q-24 -162 -121 -315h-95q60 133 73 285q2 24 4 35zM1169 1225l-704 -607l570 -612l-2 -6h-173l-529 566l-80 -566h-137l171 1231h139l-80 -563l658 563h165z" />
    <glyph glyph-name="kcommaaccent" unicode="&#x137;" horiz-adv-x="949" 
d="M337 -99l130 11l10 -16q-24 -162 -121 -315h-95q47 104 69 251q2 11 3.5 34.5t3.5 34.5zM955 959l-525 -458l447 -495l-2 -6h-177l-408 452l-63 -452h-141l188 1326h139l-110 -786l481 424h169z" />
    <glyph glyph-name="kgreenlandic" unicode="&#x138;" horiz-adv-x="949" 
d="M976 964l-544 -465l432 -499h-184l-390 451l-63 -451h-141l136 964h139l-59 -426l502 426h172z" />
    <glyph glyph-name="Lacute" unicode="&#x139;" horiz-adv-x="897" 
d="M268 117h549l-16 -117h-687l173 1231h139zM583 1452l-352 -149l-36 80l317 203l78 -115z" />
    <glyph glyph-name="lacute" unicode="&#x13a;" horiz-adv-x="489" 
d="M289 -17q-212 0 -179 218l160 1125h138l-153 -1084q-9 -72 9 -102t62 -30t80 22l4 -2l-17 -123q-54 -24 -104 -24zM195 1389l-35 80l317 203l78 -116l-8 -18z" />
    <glyph glyph-name="Lcommaaccent" unicode="&#x13b;" horiz-adv-x="897" 
d="M380 -99l130 11l9 -16q-24 -162 -121 -315h-95q60 133 73 285q2 24 4 35zM268 117h549l-16 -117h-687l173 1231h139z" />
    <glyph glyph-name="lcommaaccent" unicode="&#x13c;" horiz-adv-x="489" 
d="M76 -419q60 133 73 285q2 24 4 35l130 11l9 -16q-24 -162 -121 -315h-95zM289 -17q-212 0 -179 218l160 1125h138l-153 -1084q-9 -71 8.5 -101.5t62 -30.5t80.5 22l4 -2l-17 -123q-54 -24 -104 -24z" />
    <glyph glyph-name="Lcaron" unicode="&#x13d;" horiz-adv-x="901" 
d="M424 1231l-156 -1114h549l-16 -117h-687l171 1231h139zM855 1247l-101 -378h-89l70 395h110z" />
    <glyph glyph-name="lcaron" unicode="&#x13e;" horiz-adv-x="489" 
d="M289 -17q-212 0 -179 218l160 1125h138l-153 -1084q-9 -72 9 -102t62 -30t80 22l4 -2l-17 -123q-54 -24 -104 -24zM478 938l71 395h108l13 -17l-102 -378h-90z" />
    <glyph glyph-name="Ldot" unicode="&#x13f;" horiz-adv-x="916" 
d="M718 622q-82 0 -80 75q0 35 27 63q26 28 70 28q74 0 75 -73q0 -39 -26 -66t-66 -27zM268 117h549l-16 -117h-687l173 1231h139z" />
    <glyph glyph-name="ldot" unicode="&#x140;" horiz-adv-x="592" 
d="M549 754q80 0 80 -76q0 -36 -25.5 -63t-66.5 -27q-81 0 -81 74q0 36 26 64t67 28zM289 -17q-212 0 -179 218l160 1125h138l-153 -1084q-9 -71 8.5 -101.5t62 -30.5t80.5 22l4 -2l-17 -123q-54 -24 -104 -24z" />
    <glyph glyph-name="Lslash" unicode="&#x141;" horiz-adv-x="897" 
d="M268 117h549l-16 -117h-687l70 508l-139 -82l-6 4l17 121l147 88l84 592h139l-70 -503l141 84h6l-17 -127l-149 -87z" />
    <glyph glyph-name="lslash" unicode="&#x142;" horiz-adv-x="489" 
d="M325.5 110q44.5 0 80.5 22l4 -2l-17 -123q-54 -24 -104 -24q-212 0 -179 218l52 365l-140 -84h-7l17 119l147 90l91 635h138l-77 -544l142 86h5l-18 -121l-147 -88l-58 -417q-9 -71 8.5 -101.5t62 -30.5z" />
    <glyph glyph-name="Nacute" unicode="&#x143;" horiz-adv-x="1316" 
d="M114 0l173 1240h59l624 -963h6l134 954h132l-173 -1240h-56l-628 964h-3l-136 -955h-132zM631 1303l-35 80l316 203l78 -115l-7 -19z" />
    <glyph glyph-name="nacute" unicode="&#x144;" horiz-adv-x="1096" 
d="M653 985q138 0 230.5 -82t92.5 -246q0 -50 -6 -97l-78 -560h-142l73 525q9 61 9 97q0 127 -64 181.5t-164 54.5t-181.5 -65t-107.5 -177l-88 -616h-141l137 964h114l-4 -143q106 164 320 164zM832 1266l-298 -208l-56 81l254 246l102 -100z" />
    <glyph glyph-name="Ncommaaccent" unicode="&#x145;" horiz-adv-x="1316" 
d="M436 -419q47 104 69 251q2 11 3.5 34.5t3.5 34.5l130 11l10 -16q-24 -162 -121 -315h-95zM114 0l173 1240h59l624 -963h6l134 954h132l-173 -1240h-56l-628 964h-3l-136 -955h-132z" />
    <glyph glyph-name="ncommaaccent" unicode="&#x146;" horiz-adv-x="1096" 
d="M421 -99l130 11l9 -16q-24 -162 -121 -315h-95q60 133 73 285q2 24 4 35zM653 985q138 0 230.5 -82t92.5 -246q0 -50 -6 -97l-78 -560h-142l73 525q9 61 9 97q0 127 -64 181.5t-163.5 54.5t-181.5 -65t-108 -177l-88 -616h-141l137 964h114l-4 -143q106 164 320 164z" />
    <glyph glyph-name="Ncaron" unicode="&#x147;" horiz-adv-x="1316" 
d="M114 0l173 1240h59l624 -963h6l134 954h132l-173 -1240h-56l-628 964h-3l-136 -955h-132zM760 1305l-198 209l64 67l180 -155l205 155l50 -67l-236 -209h-65z" />
    <glyph glyph-name="ncaron" unicode="&#x148;" horiz-adv-x="1096" 
d="M653 985q138 0 230.5 -82t92.5 -246q0 -50 -6 -97l-78 -560h-142l73 525q9 61 9 97q0 127 -64 181.5t-164 54.5t-181.5 -65t-107.5 -177l-88 -616h-141l137 964h114l-4 -143q106 164 320 164zM659 1061h-67l-175 253l67 58l158 -179l209 179l50 -58z" />
    <glyph glyph-name="napostrophe" unicode="&#x149;" horiz-adv-x="1221" 
d="M778 985q138 0 230 -82t92 -246q0 -50 -5 -97l-78 -560h-142l73 525q9 61 9 97q0 127 -64 181.5t-164 54.5t-182 -65t-108 -177l-87 -616h-142l138 964h114l-4 -143q106 164 320 164zM277 1298l15 -23q-28 -175 -130 -387h-86q65 232 75 389z" />
    <glyph glyph-name="Eng" unicode="&#x14a;" horiz-adv-x="1314" 
d="M665 -359q-45 0 -90 5l17 116l2 2q34 -6 71 -6q121 0 191 80t90 220l4 31l-565 864h-3l-136 -953h-132l173 1240h59l626 -959h4l134 950h132l-158 -1147q-61 -443 -419 -443z" />
    <glyph glyph-name="eng" unicode="&#x14b;" horiz-adv-x="1098" 
d="M653 985q140 0 232 -82t92 -246q0 -34 -7 -97l-87 -610q-47 -320 -330 -321q-13 0 -58 4l15 116l4 3q11 -4 28 -3q91 0 139.5 53t65.5 174l76 549q9 61 9 97q0 127 -64 181.5t-166 54.5t-185.5 -69.5t-105.5 -187.5l-84 -601h-141l137 964h114l-7 -149q103 170 323 170z
" />
    <glyph glyph-name="Omacron" unicode="&#x14c;" horiz-adv-x="1398" 
d="M706.5 99q211.5 0 343.5 162.5t132 393.5t-119 356t-329.5 125t-342.5 -163t-132 -396t118 -355.5t329.5 -122.5zM698 -24q-270 0 -426.5 157t-156.5 414q0 317 180 514.5t448 197.5t424.5 -159.5t156.5 -414.5q0 -317 -178 -513t-448 -196zM532 1387l17 117h499
l-18 -117h-498z" />
    <glyph glyph-name="omacron" unicode="&#x14d;" horiz-adv-x="1124" 
d="M546 101q150 0 248 125.5t98 292t-82 255t-232 88.5t-247.5 -127.5t-97.5 -291.5t81.5 -253t231.5 -89zM518 -22q-190 0 -310 116t-120 342.5t145 387.5t354.5 161t329.5 -116.5t120 -342.5t-146 -387t-373 -161zM376 1152l15 107h518l-15 -107h-518z" />
    <glyph glyph-name="Obreve" unicode="&#x14e;" horiz-adv-x="1398" 
d="M706.5 99q211.5 0 343.5 162.5t132 393.5t-119 356t-329.5 125t-342.5 -163t-132 -396t118 -355.5t329.5 -122.5zM698 -24q-270 0 -426.5 157t-156.5 414q0 317 180 514.5t448 197.5t424.5 -159.5t156.5 -414.5q0 -317 -178 -513t-448 -196zM773.5 1309
q-105.5 0 -166.5 66t-45 180l93 9q-4 -69 31.5 -110t101 -41t114.5 42t61 109l87 -9q-15 -112 -93 -179t-183.5 -67z" />
    <glyph glyph-name="obreve" unicode="&#x14f;" horiz-adv-x="1124" 
d="M546 101q150 0 248 125.5t98 292t-82 255t-232 88.5t-247.5 -127.5t-97.5 -291.5t81.5 -253t231.5 -89zM518 -22q-190 0 -310 116t-120 342.5t145 387.5t354.5 161t329.5 -116.5t120 -342.5t-146 -387t-373 -161zM630 1071q-105 0 -166.5 69.5t-44.5 188.5l95 12l4 -4
q-7 -73 26 -115.5t97 -42.5t110 42.5t61 113.5l5 6l88 -12q-17 -121 -93.5 -189.5t-181.5 -68.5z" />
    <glyph glyph-name="Ohungarumlaut" unicode="&#x150;" horiz-adv-x="1398" 
d="M706.5 99q211.5 0 343.5 162.5t132 393.5t-119 356t-329.5 125t-342.5 -163t-132 -396t118 -355.5t329.5 -122.5zM698 -24q-270 0 -426.5 157t-156.5 414q0 317 180 514.5t448 197.5t424.5 -159.5t156.5 -414.5q0 -317 -178 -513t-448 -196zM909 1318l-71 34l143 279
l116 -30v-22zM586 1318l-70 34l141 279l118 -30v-22z" />
    <glyph glyph-name="ohungarumlaut" unicode="&#x151;" horiz-adv-x="1124" 
d="M546 101q150 0 248 125.5t98 292t-82 255t-232 88.5t-247.5 -127.5t-97.5 -291.5t81.5 -253t231.5 -89zM518 -22q-190 0 -310 116t-120 342.5t145 387.5t354.5 161t329.5 -116.5t120 -342.5t-146 -387t-373 -161zM758 1048l-64 37l179 296l99 -37l-2 -22zM464 1048
l-66 37l179 296l101 -37l-2 -22z" />
    <glyph glyph-name="OE" unicode="&#x152;" horiz-adv-x="1636" 
d="M858 128q132 47 216 168t103 287h-265l-63 -455h9zM1182 709q-15 261 -199 369l-52 -369h251zM259 581q0 -233 118 -356t325 -123h4l145 1026q-52 11 -110 11q-218 0 -350 -162.5t-132 -395.5zM685 -20q-257 0 -413.5 157t-156.5 414q0 317 180 514t463 197
q101 0 180 -24h691l-19 -126l-452 1q158 -155 166 -404h197l-19 -126h-184q-34 -290 -221 -455h398l-19 -128h-623q-82 -20 -168 -20z" />
    <glyph glyph-name="oe" unicode="&#x153;" horiz-adv-x="1761" 
d="M1551 620q0 119 -59.5 181.5t-171.5 60.5t-194.5 -80t-116.5 -216h540q2 17 2 54zM528 97q144 0 238 117t94 324q0 147 -71.5 236.5t-213 89.5t-243 -120t-101.5 -327q0 -141 76.5 -230.5t220.5 -89.5zM1326 985q168 0 265.5 -98t97.5 -273q0 -67 -25 -158h-670
q-2 -15 -2 -46q0 -149 75.5 -229t205.5 -80q91 0 155.5 20t146.5 71l4 -2l-19 -132q-132 -82 -307 -82q-264 0 -350 219q-127 -220 -406 -219q-182 0 -296.5 118t-114.5 308q0 264 144 423.5t364 159.5q127 0 221 -58.5t138 -172.5q63 112 160.5 171.5t212.5 59.5z" />
    <glyph glyph-name="Racute" unicode="&#x154;" horiz-adv-x="1042" 
d="M486 596q149 0 246.5 79t97.5 228q0 222 -245 222q-106 0 -177 -8l-73 -521h151zM974 923q0 -164 -85 -270t-219 -147l231 -500l-2 -6h-145l-218 484h-218l-67 -484h-137l173 1233q134 11 310 11t276.5 -78.5t100.5 -242.5zM821 1452l-352 -149l-35 80l316 203l79 -115z
" />
    <glyph glyph-name="racute" unicode="&#x155;" horiz-adv-x="685" 
d="M613 985q61 0 98 -19l-17 -126l-5 -2q-34 18 -87 18q-98 -1 -172 -50.5t-125 -237.5l-78 -568h-141l137 964h114l-6 -132q100 153 282 153zM691 1266l-298 -208l-56 81l253 246l103 -100z" />
    <glyph glyph-name="Rcommaaccent" unicode="&#x156;" horiz-adv-x="1042" 
d="M376 -99l130 11l10 -16q-24 -162 -121 -315h-95q47 104 69 251q2 11 3.5 34.5t3.5 34.5zM486 596q149 0 246.5 79t97.5 228q0 222 -245 222q-106 0 -177 -8l-73 -521h151zM974 923q0 -164 -85 -270t-219 -147l231 -500l-2 -6h-145l-218 484h-218l-67 -484h-137l173 1233
q134 11 310 11t276.5 -78.5t100.5 -242.5z" />
    <glyph glyph-name="rcommaaccent" unicode="&#x157;" horiz-adv-x="685" 
d="M74 -99l131 11l9 -16q-24 -162 -121 -315h-95q47 104 69 251q2 11 3.5 34.5t3.5 34.5zM613 985q61 0 98 -19l-17 -126l-5 -2q-34 18 -87 18q-98 -1 -172 -50.5t-125 -237.5l-78 -568h-141l137 964h114l-6 -132q100 153 282 153z" />
    <glyph glyph-name="Rcaron" unicode="&#x158;" horiz-adv-x="1042" 
d="M486 596q149 0 246.5 79t97.5 228q0 222 -245 222q-106 0 -177 -8l-73 -521h151zM974 923q0 -164 -85 -270t-219 -147l231 -500l-2 -6h-145l-218 484h-218l-67 -484h-137l173 1233q134 11 310 11t276.5 -78.5t100.5 -242.5zM663 1305h-65l-198 209l64 67l180 -155
l205 155l50 -67z" />
    <glyph glyph-name="rcaron" unicode="&#x159;" horiz-adv-x="685" 
d="M613 985q61 0 98 -19l-17 -126l-5 -2q-34 18 -87 18q-98 -1 -172 -50.5t-125 -237.5l-78 -568h-141l137 964h114l-6 -132q99 153 282 153zM518 1061h-67l-175 253l67 58l158 -179l208 179l51 -58z" />
    <glyph glyph-name="Sacute" unicode="&#x15a;" horiz-adv-x="947" 
d="M430 -26q-190 0 -339 86l6 141l5 4q141 -108 326 -108q125 0 199.5 57.5t74.5 155.5t-62.5 157.5t-202.5 124.5t-223.5 143.5t-83.5 199.5q0 158 113 243.5t288 85.5t299 -58l-3 -134l-6 -1q-117 73 -287 72q-115 2 -187.5 -46.5t-72.5 -137t61.5 -138.5t202.5 -117
t221.5 -149t80.5 -235t-110 -249.5t-300 -96.5zM367 1313l-36 80l317 203l78 -116l-7 -18z" />
    <glyph glyph-name="sacute" unicode="&#x15b;" horiz-adv-x="854" 
d="M330 -24q-189 0 -302 72l20 136l4 2q115 -89 304 -89q119 0 185 42t66 114.5t-48.5 108t-174 76.5t-189 98.5t-63.5 156.5q0 136 111 214t281 78t267 -47l-16 -124l-4 -2q-104 52 -233 52t-196.5 -40t-67.5 -104.5t45.5 -96t170.5 -72.5t191 -97.5t66 -155.5
q0 -155 -114 -238.5t-303 -83.5zM424 1065l-55 82l253 246l102 -101l-2 -19z" />
    <glyph glyph-name="Scircumflex" unicode="&#x15c;" horiz-adv-x="947" 
d="M430 -26q-190 0 -339 86l6 141l5 4q141 -108 326 -108q125 0 199.5 57.5t74.5 155.5t-62.5 157.5t-202.5 124.5t-223.5 143.5t-83.5 199.5q0 158 113 243.5t288 85.5t299 -58l-3 -134l-6 -1q-117 73 -287 72q-115 2 -187.5 -46.5t-72.5 -137t61.5 -138.5t202.5 -117
t221.5 -149t80.5 -235t-110 -249.5t-300 -96.5zM322 1314l-46 67l245 209h64l190 -209l-58 -67l-181 155z" />
    <glyph glyph-name="scircumflex" unicode="&#x15d;" horiz-adv-x="854" 
d="M330 -24q-189 0 -302 72l20 136l4 2q115 -89 304 -89q119 0 185 42t66 114.5t-48.5 108t-174 76.5t-189 98.5t-63.5 156.5q0 136 111 214t281 78t267 -47l-16 -124l-4 -2q-104 52 -233 52t-196.5 -40t-67.5 -104.5t45.5 -96t170.5 -72.5t191 -97.5t66 -155.5
q0 -155 -114 -238.5t-303 -83.5zM330 1069l-54 59l245 252h67l175 -252l-69 -59l-154 178z" />
    <glyph glyph-name="Scedilla" unicode="&#x15e;" horiz-adv-x="947" 
d="M840 328q0 -144 -91.5 -239t-243.5 -111l-53 -75q22 6 64.5 6t78.5 -33.5t36 -102.5q0 -102 -70.5 -152.5t-153.5 -50.5t-133 19l13 85l3 2q35 -17 89.5 -17t90.5 25.5t36 66.5q0 78 -78 78q-41 0 -89 -15l-2 2l9 70l64 88q-175 4 -319 86l6 141l5 4q141 -108 326 -108
q125 0 199.5 57.5t74.5 155.5t-62.5 157.5t-202.5 124.5t-223.5 143.5t-83.5 199.5q0 158 113 243.5t288 85.5t299 -58l-3 -134l-6 -1q-117 73 -287 72q-115 2 -187.5 -46.5t-72.5 -137t61.5 -138.5t202.5 -117t221.5 -149.5t80.5 -226.5z" />
    <glyph glyph-name="scedilla" unicode="&#x15f;" horiz-adv-x="854" 
d="M524 985q170 0 267 -47l-16 -124l-4 -2q-104 52 -233 52t-196.5 -40t-67.5 -104.5t45.5 -96t170.5 -72.5t191 -97.5t66 -155.5q0 -140 -92.5 -222t-250.5 -96l-52 -77q22 6 64 6t78.5 -33.5t36.5 -102.5q0 -102 -71 -152.5t-154 -50.5t-133 19l13 85l4 2q35 -17 89 -17
t90.5 25.5t36.5 66.5q0 78 -78 78q-41 0 -90 -15l-2 2l10 70l65 90q-179 6 -283 72l20 136l4 2q115 -89 304 -89q119 0 185 42t66 114.5t-48.5 108t-174 76.5t-189 98.5t-63.5 156.5q0 136 111 214t281 78z" />
    <glyph glyph-name="Scaron" unicode="&#x160;" horiz-adv-x="947" 
d="M430 -26q-190 0 -339 86l6 141l5 4q141 -108 326 -108q125 0 199.5 57.5t74.5 155.5t-62.5 157.5t-202.5 124.5t-223.5 143.5t-83.5 199.5q0 158 113 243.5t288 85.5t299 -58l-3 -134l-6 -1q-117 73 -287 72q-115 2 -187.5 -46.5t-72.5 -137t61.5 -138.5t202.5 -117
t221.5 -149t80.5 -235t-110 -249.5t-300 -96.5zM495 1314l-197 209l63 67l181 -155l205 155l50 -67l-237 -209h-65z" />
    <glyph glyph-name="scaron" unicode="&#x161;" horiz-adv-x="854" 
d="M330 -24q-189 0 -302 72l20 136l4 2q115 -89 304 -89q119 0 185 42t66 114.5t-48.5 108t-174 76.5t-189 98.5t-63.5 156.5q0 136 111 214t281 78t267 -47l-16 -124l-4 -2q-104 52 -233 52t-196.5 -40t-67.5 -104.5t45.5 -96t170.5 -72.5t191 -97.5t66 -155.5
q0 -155 -114 -238.5t-303 -83.5zM482 1069l-175 253l67 58l158 -179l209 179l50 -58l-242 -253h-67z" />
    <glyph glyph-name="uni0162" unicode="&#x162;" horiz-adv-x="994" 
d="M477.5 -91q42.5 0 78.5 -33.5t36 -102.5q0 -102 -70.5 -152.5t-154 -50.5t-132.5 19l13 85l3 2q35 -17 89.5 -17t90.5 25.5t36 66.5q0 78 -78 78q-41 0 -89 -15l-2 2l9 70l82 114h-26l158 1106h-398l17 125h929l-17 -125h-393l-154 -1106h-25l-67 -97q22 6 64.5 6z" />
    <glyph glyph-name="uni0163" unicode="&#x163;" horiz-adv-x="675" 
d="M326 249q0 -61 42 -97.5t111.5 -36.5t133.5 30l3 -2l-18 -119q-61 -34 -151 -33h-11l-62 -88q22 6 64.5 6t78.5 -33.5t36 -102.5q0 -102 -71 -152.5t-154 -50.5t-133 19l14 85l3 2q35 -17 89.5 -17t90.5 25.5t36 66.5q0 78 -78 78q-41 0 -89 -15l-2 2l9 70l82 114h11
q-84 20 -131.5 76t-47.5 140q0 28 4 80l80 555h-193l16 113h192l34 228l137 26l2 -4l-35 -250h294l-17 -113h-292l-74 -536q-4 -37 -4 -66z" />
    <glyph glyph-name="Tcaron" unicode="&#x164;" horiz-adv-x="994" 
d="M1069 1231l-17 -125h-393l-154 -1106h-142l158 1106h-398l17 125h929zM657 1305h-65l-197 209l63 67l181 -155l204 155l51 -67z" />
    <glyph glyph-name="tcaron" unicode="&#x165;" horiz-adv-x="675" 
d="M326 249q0 -61 42 -97.5t111.5 -36.5t133.5 30l3 -2l-18 -119q-61 -34 -166.5 -33.5t-177.5 61t-72 164.5q0 28 4 80l80 555h-193l16 113h192l34 228l137 26l2 -4l-35 -250h294l-17 -113h-292l-74 -536q-4 -37 -4 -66zM767 1462l-102 -378h-90l71 394h108z" />
    <glyph glyph-name="Tbar" unicode="&#x166;" horiz-adv-x="997" 
d="M1054 1106h-393l-67 -475h179l-15 -102h-177l-75 -529h-141l76 529h-171l13 102h173l67 475h-398l16 125h930z" />
    <glyph glyph-name="tbar" unicode="&#x167;" horiz-adv-x="675" 
d="M326 249q0 -61 42 -97.5t111.5 -36.5t133.5 30l3 -2l-18 -119q-61 -34 -166.5 -33.5t-177.5 61t-72 164.5q0 28 4 80l26 181h-162l15 104h162l39 270h-193l16 113h192l34 228l137 26l2 -4l-35 -250h294l-17 -113h-292l-37 -270h184l-15 -104h-184l-22 -162q-4 -37 -4 -66
z" />
    <glyph glyph-name="Utilde" unicode="&#x168;" horiz-adv-x="1273" 
d="M575 -26q-197 0 -308 103.5t-111 274.5q0 71 8 121l106 758h138l-105 -741q-7 -47 -7 -97q0 -143 79 -219.5t231 -76.5q314 0 371 393l103 741h136l-106 -758q-73 -499 -535 -499zM647.5 1532q59.5 0 131.5 -35t103.5 -35t57.5 21t32 60l4 4l87 -30q-13 -78 -64 -125.5
t-106 -47.5t-129.5 35.5t-110 35.5t-59.5 -22.5t-30 -61.5l-4 -2l-89 26q15 78 66 127.5t110.5 49.5z" />
    <glyph glyph-name="utilde" unicode="&#x169;" horiz-adv-x="1072" 
d="M424 -22q-145 0 -224 78t-79 218q0 48 7 102l82 588h142l-82 -573q-6 -41 -6 -91q0 -99 54 -150t147 -51t170.5 52t118.5 145l95 668h141l-137 -964h-114l4 121q-119 -143 -319 -143zM510.5 1324q59.5 0 131 -36.5t108.5 -36.5q73 0 84 80l6 4l95 -21q-13 -88 -63.5 -133
t-110 -45t-133 37t-107 37t-55.5 -22.5t-28 -59.5l-6 -2l-88 21q11 76 59 126.5t107.5 50.5z" />
    <glyph glyph-name="Umacron" unicode="&#x16a;" horiz-adv-x="1273" 
d="M575 -26q-197 0 -308 103.5t-111 274.5q0 71 8 121l106 758h138l-105 -741q-7 -47 -7 -97q0 -143 79 -219.5t231 -76.5q314 0 371 393l103 741h136l-106 -758q-73 -499 -535 -499zM510 1393l17 117h499l-19 -117h-497z" />
    <glyph glyph-name="umacron" unicode="&#x16b;" horiz-adv-x="1072" 
d="M424 -22q-145 0 -224 78t-79 218q0 48 7 102l82 588h142l-82 -573q-6 -41 -6 -91q0 -99 54 -150t147 -51t170.5 52t118.5 145l95 668h141l-137 -964h-114l4 121q-119 -143 -319 -143zM907 1266l-15 -106h-518l15 106h518z" />
    <glyph glyph-name="Ubreve" unicode="&#x16c;" horiz-adv-x="1273" 
d="M575 -26q-197 0 -308 103.5t-111 274.5q0 71 8 121l106 758h138l-105 -741q-7 -47 -7 -97q0 -143 79 -219.5t231 -76.5q314 0 371 393l103 741h136l-106 -758q-73 -499 -535 -499zM751.5 1314q-105.5 0 -167 66.5t-44.5 179.5l93 10q-4 -69 31.5 -110t100.5 -41
t114.5 41.5t60.5 109.5l88 -10q-15 -112 -93 -179t-183.5 -67z" />
    <glyph glyph-name="ubreve" unicode="&#x16d;" horiz-adv-x="1072" 
d="M424 -22q-145 0 -224 78t-79 218q0 48 7 102l82 588h142l-82 -573q-6 -41 -6 -91q0 -99 54 -150t147 -51t170.5 52t118.5 145l95 668h141l-137 -964h-114l4 121q-119 -143 -319 -143zM628 1078q-105 0 -166.5 70t-44.5 189l95 11l4 -4q-7 -73 26 -115.5t97.5 -42.5
t110 43t60.5 113l5 6l88 -11q-17 -121 -93.5 -190t-181.5 -69z" />
    <glyph glyph-name="Uring" unicode="&#x16e;" horiz-adv-x="1273" 
d="M575 -26q-197 0 -308 103.5t-111 274.5q0 71 8 121l106 758h138l-105 -741q-7 -47 -7 -97q0 -143 79 -219.5t231 -76.5q314 0 371 393l103 741h136l-106 -758q-73 -499 -535 -499zM758 1342q39 0 64 26.5t25 65t-23 61t-61.5 22.5t-64.5 -27t-26 -65t23.5 -60.5
t62.5 -22.5zM753.5 1266q-75.5 0 -120.5 41t-45 112.5t52.5 123t126 51.5t118 -41t44.5 -112.5t-50 -123t-125.5 -51.5z" />
    <glyph glyph-name="uring" unicode="&#x16f;" horiz-adv-x="1072" 
d="M424 -22q-145 0 -224 78t-79 218q0 48 7 102l82 588h142l-82 -573q-6 -41 -6 -91q0 -99 54 -150t147 -51t170.5 52t118.5 145l95 668h141l-137 -964h-114l4 121q-119 -143 -319 -143zM637 1316q-39 0 -66 -28.5t-27 -71.5t23 -65.5t63 -22.5t66 28t26 71t-23 66t-62 23z
M626.5 1050q-75.5 0 -120 44t-44.5 118t52 127.5t126.5 53.5t119 -43t44.5 -118.5t-51 -128.5t-126.5 -53z" />
    <glyph glyph-name="Uhungarumlaut" unicode="&#x170;" horiz-adv-x="1273" 
d="M575 -26q-197 0 -308 103.5t-111 274.5q0 71 8 121l106 758h138l-105 -741q-7 -47 -7 -97q0 -143 79 -219.5t231 -76.5q314 0 371 393l103 741h136l-106 -758q-73 -499 -535 -499zM886 1324l-71 33l144 280l115 -30v-23zM564 1324l-71 33l142 280l117 -30v-23z" />
    <glyph glyph-name="uhungarumlaut" unicode="&#x171;" horiz-adv-x="1072" 
d="M424 -22q-145 0 -224 78t-79 218q0 48 7 102l82 588h142l-82 -573q-6 -41 -6 -91q0 -99 54 -150t147 -51t170.5 52t118.5 145l95 668h141l-137 -964h-114l4 121q-119 -143 -319 -143zM968 1329l-212 -273l-63 37l178 296l99 -37zM674 1329l-212 -273l-65 37l178 296
l101 -37z" />
    <glyph glyph-name="Uogonek" unicode="&#x172;" horiz-adv-x="1273" 
d="M562 -246q0 -71 80 -71q34 0 54 8l4 -4l-11 -91q-48 -13 -111.5 -13t-108.5 34.5t-45 97.5q0 143 172 259h-21q-197 0 -308 103.5t-111 274.5q0 71 8 121l106 758h138l-105 -741q-7 -47 -7 -97q0 -143 79 -219.5t231 -76.5q314 0 371 393l103 741h136l-106 -758
q-60 -404 -375 -480q-173 -121 -173 -239z" />
    <glyph glyph-name="uogonek" unicode="&#x173;" horiz-adv-x="1072" 
d="M657 -251q0 -71 80 -71q34 0 54 7l4 -3l-11 -92q-48 -13 -111.5 -13t-108.5 34.5t-45 98.5q0 162 220 290l4 121q-119 -143 -319 -143q-145 0 -224 78t-79 218q0 48 7 102l82 588h142l-82 -573q-6 -41 -6 -91q0 -99 54 -150t147 -51t170.5 52t118.5 145l95 668h141
l-137 -964h-4q-192 -128 -192 -251z" />
    <glyph glyph-name="Wcircumflex" unicode="&#x174;" horiz-adv-x="1714" 
d="M1782 1231l2 -6l-565 -1247h-100l-177 964l-6 41l-14 -41l-457 -964h-104l-218 1247l2 6h145l151 -987l4 -67l26 67l451 981h96l175 -970l6 -67l24 67l425 976h134zM996 1460l-214 -155l-47 67l246 209h63l190 -209l-57 -67z" />
    <glyph glyph-name="wcircumflex" unicode="&#x175;" horiz-adv-x="1428" 
d="M1454 964l2 -5l-438 -959h-128l-117 761l-4 36l-359 -797h-129l-171 959l2 5h139l116 -754v-35l352 789h145l117 -752l4 -39l13 41l326 750h130zM829 1249l-211 -178l-54 59l246 251h67l175 -251l-69 -59z" />
    <glyph glyph-name="Ycircumflex" unicode="&#x176;" horiz-adv-x="1053" 
d="M391 0l74 521l-324 704l2 6h147l265 -578l424 578h142l2 -6l-520 -706l-74 -519h-138zM452 1305l-46 67l246 209h63l190 -209l-58 -67l-180 155z" />
    <glyph glyph-name="ycircumflex" unicode="&#x177;" horiz-adv-x="955" 
d="M93 -315q-61 0 -106 17l20 114l4 2q45 -15 99 -15q131 0 259 240l-263 916l2 5h149l201 -765l385 765h142l2 -5l-479 -901l-24 -49q-93 -175 -179.5 -249.5t-211.5 -74.5zM605 1240l-210 -179l-54 60l245 251h67l176 -251l-69 -60z" />
    <glyph glyph-name="Ydieresis" unicode="&#x178;" horiz-adv-x="1053" 
d="M391 0l74 521l-324 704l2 6h147l265 -578l424 578h142l2 -6l-520 -706l-74 -519h-138zM848 1363q-36 0 -58.5 20.5t-22.5 58.5t27 62.5t62.5 24.5t57 -22.5t21.5 -60t-25.5 -60.5t-61.5 -23zM487 1363q-36 0 -58.5 20.5t-22.5 58.5t27 62.5t62.5 24.5t56.5 -22.5t21 -60
t-25 -60.5t-61 -23z" />
    <glyph glyph-name="Zacute" unicode="&#x179;" horiz-adv-x="1040" 
d="M19 0l-10 50l855 1065h-698l15 116h877l7 -49l-860 -1067h722l-15 -115h-893zM484 1311l-35 80l316 203l78 -116l-7 -18z" />
    <glyph glyph-name="zacute" unicode="&#x17a;" horiz-adv-x="914" 
d="M881 897l-676 -778h594l-17 -119h-762l-5 65l668 780h-549l15 119h726zM747 1266l-298 -208l-56 81l253 246l102 -100z" />
    <glyph glyph-name="Zdotaccent" unicode="&#x17b;" horiz-adv-x="1040" 
d="M19 0l-10 50l855 1065h-698l15 116h877l7 -49l-860 -1067h722l-15 -115h-893zM655 1370q-39 0 -64 24.5t-25 66.5t29 68.5t69 26.5t64 -24t24 -65t-29 -69t-68 -28z" />
    <glyph glyph-name="zdotaccent" unicode="&#x17c;" horiz-adv-x="914" 
d="M881 897l-676 -778h594l-17 -119h-762l-5 65l668 780h-549l15 119h726zM560.5 1156q-39.5 0 -64.5 24.5t-25 66.5t29 68.5t69 26.5t64 -24t24 -65t-28.5 -69t-68 -28z" />
    <glyph glyph-name="Zcaron" unicode="&#x17d;" horiz-adv-x="1040" 
d="M19 0l-10 50l855 1065h-698l15 116h877l7 -49l-860 -1067h722l-15 -115h-893zM613 1313l-198 208l63 67l181 -154l205 154l50 -67l-236 -208h-65z" />
    <glyph glyph-name="zcaron" unicode="&#x17e;" horiz-adv-x="914" 
d="M881 897l-676 -778h594l-17 -119h-762l-5 65l668 780h-549l15 119h726zM573 1061h-67l-175 253l67 58l159 -179l208 179l50 -58z" />
    <glyph glyph-name="uni018F" unicode="&#x18f;" horiz-adv-x="1303" 
d="M620 99q173 0 288.5 108t149.5 314h-795q-2 -20 -2 -59q0 -168 93 -265.5t266 -97.5zM668.5 1259q238.5 0 391 -145.5t152.5 -417.5q0 -344 -169.5 -532t-437.5 -188q-229 0 -356.5 133t-127.5 345q0 95 17 190h933v39q0 216 -117.5 332.5t-325 116.5t-375.5 -121l-7 4
l24 137q160 107 398.5 107z" />
    <glyph glyph-name="uni019D" unicode="&#x19d;" horiz-adv-x="1316" 
d="M-156 -359q-41 0 -90 5l17 116l2 2q34 -6 72 -6q119 0 188 80t88 220l166 1182h59l626 -957h4l134 953h134l-175 -1242h-54l-630 961h-3l-125 -888q-63 -426 -413 -426z" />
    <glyph glyph-name="Gcaron" unicode="&#x1e6;" horiz-adv-x="1241" 
d="M838 1257q199 0 339 -73l-17 -130l-6 -2q-132 82 -339 82q-246 0 -402 -166.5t-156 -436.5q0 -192 112.5 -307.5t311.5 -115.5q156 0 282 67l44 328h-305l13 115h434l-73 -529q-192 -108 -433 -108t-386 143.5t-145 387.5q0 335 202 540t524 205zM849 1311h-65l-198 208
l64 67l180 -154l205 154l50 -67z" />
    <glyph glyph-name="gcaron" unicode="&#x1e7;" horiz-adv-x="1092" 
d="M497 151q182 0 285 190l61 439q-89 84 -247 84t-259 -121t-101 -307q0 -138 69 -211.5t192 -73.5zM392 -317q-202 0 -338 86l20 134l4 2q123 -97 302 -97q328 0 368 293l10 67q-112 -141 -317 -142q-160 0 -256 102.5t-96 284.5q0 261 148 416.5t347.5 155.5t299.5 -91
l30 80h99l-123 -872q-30 -203 -163 -311t-335 -108zM659 1061h-67l-175 253l67 58l158 -179l209 179l50 -58z" />
    <glyph glyph-name="uni01EA" unicode="&#x1ea;" horiz-adv-x="1398" 
d="M259 577q0 -233 118 -355.5t329.5 -122.5t343.5 162.5t132 393.5t-119 356t-329.5 125t-342.5 -163t-132 -396zM644 -249q0 -71 80 -71q34 0 54 7l4 -4l-11 -91q-48 -13 -111.5 -13t-108.5 34.5t-45 97.5q0 143 179 265q-257 0 -413.5 157t-156.5 414q0 317 180 514.5
t448 197.5t424.5 -159.5t156.5 -425.5t-139 -454t-368 -231q-173 -121 -173 -238z" />
    <glyph glyph-name="uni01EB" unicode="&#x1eb;" horiz-adv-x="1124" 
d="M233 443q0 -164 82 -253t231.5 -89t247.5 125.5t98 292t-82 255t-232 88.5t-247.5 -127.5t-97.5 -291.5zM482 -246q0 -71 80 -71q34 0 54 8l4 -4l-11 -91q-48 -13 -111.5 -13t-108.5 34.5t-45 97.5q0 140 175 263h-1q-190 0 -310 116t-120 342.5t145 387.5t354.5 161
t329.5 -116.5t120 -321t-102.5 -353t-271.5 -196.5q-181 -127 -181 -244z" />
    <glyph glyph-name="Aringacute" unicode="&#x1fa;" horiz-adv-x="1131" 
d="M333 438h455l-136 528l-10 52l-24 -52zM644 1253h56l348 -1253h-147l-84 328h-541l-177 -328h-140zM689 1342q39 0 64 26.5t25 65t-23 61t-61.5 22.5t-64.5 -27t-26 -65t23.5 -60.5t62.5 -22.5zM860 1447q0 -78 -50 -129.5t-125.5 -51.5t-120.5 41t-45 112.5t52.5 123
t121.5 51.5t108 -28l264 169l78 -115l-7 -19l-280 -119q4 -22 4 -35z" />
    <glyph glyph-name="aringacute" unicode="&#x1fb;" horiz-adv-x="1126" 
d="M600.5 862q-155.5 0 -263.5 -127.5t-108 -352.5q0 -132 69 -206t178 -74t193.5 62.5t114.5 183.5l61 428l2 6q-91 80 -246.5 80zM960 115q38 0 66 23l5 -2l-16 -119q-54 -30 -118 -30q-140 0 -134 141q-108 -151 -311 -150q-168 0 -268 103t-100 278q0 289 148 457.5
t371 168.5q175 0 276 -80l17 59h115l-106 -746q-7 -56 5 -79.5t50 -23.5zM649 1128q40 0 66 28t26 71t-23.5 66t-62.5 23t-66 -28.5t-27 -71.5t23.5 -65.5t63.5 -22.5zM823 1238q0 -82 -51 -135t-126.5 -53t-120.5 44t-45 118t52.5 127.5t132.5 53.5q43 0 76 -17l212 207
l103 -101l-2 -19l-240 -167q9 -32 9 -58z" />
    <glyph glyph-name="AEacute" unicode="&#x1fc;" horiz-adv-x="1463" 
d="M389 478h343l83 596l-108 -158zM1437 1115h-476l-60 -419h445l-19 -115h-441l-65 -464h499l-17 -117h-640l54 378h-400l-274 -378h-144l900 1231h655zM1206 1452l-351 -149l-36 80l317 203l78 -115z" />
    <glyph glyph-name="aeacute" unicode="&#x1fd;" horiz-adv-x="1720" 
d="M1510 616q0 115 -60.5 180.5t-179 65.5t-203.5 -78t-119 -212h560q2 15 2 44zM474.5 102q112.5 0 199 107.5t115.5 283.5q17 149 86 261q-97 108 -262.5 108t-274.5 -126.5t-109 -351.5q0 -132 66.5 -207t179 -75zM1270.5 985q181.5 0 278.5 -101.5t97 -257.5
q0 -80 -21 -166h-694v-36q0 -155 83.5 -239t214.5 -84q173 0 305 91l6 -2l-21 -132q-119 -80 -284.5 -80t-273.5 68t-151 198q-119 -266 -365 -266q-166 0 -263.5 104t-97.5 283q0 285 150 452.5t369 167.5q127 0 207 -32.5t143 -99.5q136 132 317.5 132zM1177 1266
l-298 -208l-56 81l253 246l103 -100z" />
    <glyph glyph-name="Oslashacute" unicode="&#x1fe;" horiz-adv-x="1398" 
d="M702 99q216 0 348 162.5t132 388t-106 348.5l-622 -838q101 -61 248 -61zM259 580q0 -230 113 -353l624 840q-110 69 -255 69q-218 0 -350 -163t-132 -393zM1324 685q0 -317 -178 -513t-461 -196q-175 0 -311 78l-117 -158h-121v13l154 208q-175 158 -175 430
q0 317 180 514.5t463 197.5q181 0 316 -84l116 154h124v-11l-156 -210q166 -156 166 -423zM1009 1452l-352 -149l-35 80l316 203l79 -115z" />
    <glyph glyph-name="oslashacute" unicode="&#x1ff;" horiz-adv-x="1124" 
d="M532 101q164 0 262 125.5t98 293t-80 253.5l-419 -643q65 -29 139 -29zM233 443q0 -164 82 -255l417 644q-65 30 -142 30q-162 0 -259.5 -127.5t-97.5 -291.5zM1037 536.5q0 -236.5 -146 -397.5t-373 -161q-114 0 -198 41l-80 -123h-104v15l102 158
q-151 117 -150.5 355.5t145.5 399.5t370 161q114 0 201 -41l73 114h113v-12l-100 -154q147 -119 147 -355.5zM829 1266l-298 -208l-56 81l253 246l102 -100z" />
    <glyph glyph-name="Scommaaccent" unicode="&#x218;" horiz-adv-x="947" 
d="M303 -419q60 133 73 285q2 24 4 35l130 11l9 -16q-24 -162 -121 -315h-95zM430 -26q-190 0 -339 86l6 141l5 4q141 -108 326 -108q125 0 199.5 57.5t74.5 155.5t-62.5 157.5t-202.5 124.5t-223.5 143.5t-83.5 199.5q0 158 113 243.5t288 85.5t299 -58l-3 -134l-6 -1
q-117 73 -287 72q-115 2 -187.5 -46.5t-72.5 -137t61.5 -138.5t202.5 -117t221.5 -149t80.5 -235t-110 -249.5t-300 -96.5z" />
    <glyph glyph-name="scommaaccent" unicode="&#x219;" horiz-adv-x="854" 
d="M203 -419q47 104 69 251q2 11 3.5 34.5t3.5 34.5l131 11l9 -16q-24 -162 -121 -315h-95zM330 -24q-189 0 -302 72l20 136l4 2q115 -89 304 -89q119 0 185 42t66 114.5t-48.5 108t-174 76.5t-189 98.5t-63.5 156.5q0 136 111 214t281 78t267 -47l-16 -124l-4 -2
q-104 52 -233 52t-196.5 -40t-67.5 -104.5t45.5 -96t170.5 -72.5t191 -97.5t66 -155.5q0 -155 -114 -238.5t-303 -83.5z" />
    <glyph glyph-name="uni021A" unicode="&#x21a;" horiz-adv-x="994" 
d="M341 -99l130 11l9 -16q-24 -162 -121 -315h-95q60 133 73 285q2 24 4 35zM1069 1231l-17 -125h-393l-154 -1106h-142l158 1106h-398l17 125h929z" />
    <glyph glyph-name="uni021B" unicode="&#x21b;" horiz-adv-x="675" 
d="M302 -99l130 11l9 -16q-24 -162 -121 -315h-95q60 133 73 285q2 24 4 35zM326 249q0 -61 42 -97.5t111.5 -36.5t133.5 30l3 -2l-18 -119q-61 -34 -166.5 -33.5t-177.5 61t-72 164.5q0 28 4 80l80 555h-193l16 113h192l34 228l137 26l2 -4l-35 -250h294l-17 -113h-292
l-74 -536q-4 -37 -4 -66z" />
    <glyph glyph-name="uni0232" unicode="&#x232;" horiz-adv-x="1053" 
d="M391 0l74 521l-324 704l2 6h147l265 -578l424 578h142l2 -6l-520 -706l-74 -519h-138zM411 1393l17 117h499l-18 -117h-498z" />
    <glyph glyph-name="uni0233" unicode="&#x233;" horiz-adv-x="955" 
d="M93 -315q-61 0 -106 17l20 114l4 2q45 -15 99 -15q131 0 259 240l-263 916l2 5h149l201 -765l385 765h142l2 -5l-479 -901l-24 -49q-93 -175 -179.5 -249.5t-211.5 -74.5zM864 1266l-15 -106h-518l15 106h518z" />
    <glyph glyph-name="uni0237" unicode="&#x237;" horiz-adv-x="474" 
d="M-86 -315q-47 0 -89 8l19 123l5 2q22 -6 56 -6q99 0 150 60.5t68 179.5l130 912h138l-132 -942q-49 -337 -345 -337z" />
    <glyph glyph-name="uni0259" unicode="&#x259;" horiz-adv-x="1022" 
d="M210 346q0 -114 66 -179t182 -65t200 76t117 215h-563q-2 -15 -2 -47zM505 985q190 0 310 -114t120 -324q1 -263 -141 -417t-347 -152q-175 0 -274 100t-99 259q0 74 19 168h696v33q-1 154 -83 238t-214 84q-173 0 -308 -91l-5 2l20 132q116 82 306 82z" />
    <glyph glyph-name="uni0272" unicode="&#x272;" horiz-adv-x="1096" 
d="M653 985q138 0 230.5 -82t92.5 -246q0 -50 -6 -97l-78 -560h-142l73 525q9 61 9 97q0 127 -64 181.5t-163.5 54.5t-181.5 -65t-108 -177l-95 -666q-47 -320 -330 -321q-15 0 -59 4l16 116l4 3q11 -4 26 -3q89 0 138.5 54t68.5 177l4 20h-2l137 964h114l-4 -143
q106 164 320 164z" />
    <glyph glyph-name="circumflex" unicode="&#x2c6;" horiz-adv-x="606" 
d="M203 1061l-54 60l246 251h67l175 -251l-69 -60l-155 179z" />
    <glyph glyph-name="caron" unicode="&#x2c7;" horiz-adv-x="606" 
d="M356 1061l-175 253l67 58l158 -179l208 179l51 -58l-242 -253h-67z" />
    <glyph glyph-name="breve" unicode="&#x2d8;" horiz-adv-x="575" 
d="M379 1078q-105 0 -166.5 70t-44.5 189l95 11l3 -4q-7 -73 26.5 -115.5t97.5 -42.5t110 43t60 113l6 6l87 -11q-17 -121 -93 -190t-181 -69z" />
    <glyph glyph-name="dotaccent" unicode="&#x2d9;" horiz-adv-x="495" 
d="M354 1156q-39 0 -64.5 24.5t-25.5 66.5t29 68.5t69 26.5t64.5 -24t24.5 -65t-29 -69t-68 -28z" />
    <glyph glyph-name="ring" unicode="&#x2da;" horiz-adv-x="590" 
d="M349 1128q40 0 66 28t26 71t-23 66t-62.5 23t-66 -28.5t-26.5 -71.5t23 -65.5t63 -22.5zM345.5 1050q-75.5 0 -120 44t-44.5 118t52 127.5t126.5 53.5t119 -43t44.5 -118.5t-51 -128.5t-126.5 -53z" />
    <glyph glyph-name="ogonek" unicode="&#x2db;" horiz-adv-x="350" 
d="M78 -417q-63 0 -108 34t-44 98q0 169 236 300l97 -8q-195 -128 -196 -253q0 -71 80 -71q34 0 54 8l4 -4l-11 -91q-49 -13 -112 -13z" />
    <glyph glyph-name="tilde" unicode="&#x2dc;" horiz-adv-x="631" 
d="M288.5 1324q59.5 0 131.5 -36.5t109 -36.5q73 0 84 80l5 4l95 -21q-13 -88 -63 -133t-110 -45t-133.5 37t-107 37t-55.5 -22.5t-28 -59.5l-6 -2l-87 21q11 76 58.5 126.5t107 50.5z" />
    <glyph glyph-name="hungarumlaut" unicode="&#x2dd;" horiz-adv-x="644" 
d="M493 1056l-63 37l179 296l98 -37l-1 -23zM199 1056l-65 37l179 296l100 -37l-2 -23z" />
    <glyph glyph-name="gravecomb" unicode="&#x300;" 
d="M13 1065l-309 192l-2 18l97 106l266 -232z" />
    <glyph glyph-name="acutecomb" unicode="&#x301;" 
d="M-236 1058l-56 81l253 246l102 -100l-2 -19z" />
    <glyph glyph-name="uni0302" unicode="&#x302;" 
d="M-402 1061l-54 60l246 251h67l175 -251l-69 -60l-155 179z" />
    <glyph glyph-name="tildecomb" unicode="&#x303;" 
d="M-342.5 1324q59.5 0 131 -36.5t109.5 -36.5q73 0 83 80l6 4l95 -21q-13 -88 -63.5 -133t-110 -45t-133 37t-107 37t-56 -22.5t-27.5 -59.5l-6 -2l-87 21q11 76 58.5 126.5t107 50.5z" />
    <glyph glyph-name="uni0304" unicode="&#x304;" 
d="M-465 1160l14 106h518l-15 -106h-517z" />
    <glyph glyph-name="uni0306" unicode="&#x306;" 
d="M-196 1078q-105 0 -166.5 70t-45.5 189l95 11l4 -4q-7 -73 26.5 -115.5t97.5 -42.5t109.5 43t60.5 113l6 6l87 -11q-17 -121 -93 -190t-181 -69z" />
    <glyph glyph-name="uni0307" unicode="&#x307;" 
d="M-141.5 1156q-39.5 0 -64.5 24.5t-25 66.5t29 68.5t69 26.5t64 -24t24 -65t-28.5 -69t-68 -28z" />
    <glyph glyph-name="uni0308" unicode="&#x308;" 
d="M-19 1158q-38 0 -62.5 23.5t-24.5 64.5t29 67t67 26t61 -23.5t23 -63.5t-27.5 -67t-65.5 -27zM-364 1158q-38 0 -62.5 23.5t-24.5 64.5t28 67t67 26t62.5 -23.5t23.5 -63.5t-28 -67t-66 -27z" />
    <glyph glyph-name="uni030A" unicode="&#x30a;" 
d="M-165 1128q40 0 66 28t26 71t-23 66t-62 23t-66 -28.5t-27 -71.5t23 -65.5t63 -22.5zM-168.5 1050q-75.5 0 -120 44t-44.5 118t52 127.5t126.5 53.5t119 -43t44.5 -118.5t-51 -128.5t-126.5 -53z" />
    <glyph glyph-name="uni030B" unicode="&#x30b;" 
d="M-151 1056l-63 37l179 296l98 -37l-2 -23zM-445 1056l-65 37l179 296l100 -37l-2 -23z" />
    <glyph glyph-name="uni030C" unicode="&#x30c;" 
d="M-249 1061l-175 253l67 58l158 -179l208 179l51 -58l-242 -253h-67z" />
    <glyph glyph-name="uni0312" unicode="&#x312;" 
d="M74 1391q-58 -129 -72 -286q-2 -23 -4 -34l-130 -12l-9 17q24 162 121 315h94z" />
    <glyph glyph-name="dotbelowcomb" unicode="&#x323;" 
d="M-383.5 -333q-39.5 0 -64.5 24t-25 66t30 69t69 27t63 -24q24 -23 24 -65t-28.5 -69.5t-68 -27.5z" />
    <glyph glyph-name="uni0326" unicode="&#x326;" 
d="M-380 -419q60 133 73 285q2 24 4 35l130 11l9 -16q-24 -162 -121 -315h-95z" />
    <glyph glyph-name="uni0327" unicode="&#x327;" 
d="M-329 -430q-83 0 -133 19l13 85l4 2q35 -17 89.5 -17t90.5 25.5t36 66.5q0 78 -78 78q-41 0 -90 -15l-1 2l9 70l82 114h91l-67 -97q22 6 64.5 6t78.5 -33.5t36 -102.5q0 -102 -71 -152.5t-154 -50.5z" />
    <glyph glyph-name="uni0328" unicode="&#x328;" 
d="M-287 -417q-63 0 -107.5 34.5t-44.5 97.5q0 169 236 300l97 -8q-195 -128 -196 -253q0 -71 80 -71q34 0 54 8l4 -4l-11 -91q-49 -13 -112 -13z" />
    <glyph glyph-name="uni0335" unicode="&#x335;" 
d="M-560 356l14 104h486l-14 -104h-486z" />
    <glyph glyph-name="uni0336" unicode="&#x336;" 
d="M-1102 609l17 108h1174l-16 -108h-1175z" />
    <glyph glyph-name="uni0337" unicode="&#x337;" 
d="M-447 477l17 119l441 266h6l-19 -121l-437 -264h-8z" />
    <glyph glyph-name="uni0338" unicode="&#x338;" 
d="M-966 -95v15l741 1147h113v-11l-750 -1151h-104z" />
    <glyph glyph-name="Wgrave" unicode="&#x1e80;" horiz-adv-x="1714" 
d="M1782 1231l2 -6l-565 -1247h-100l-177 964l-6 41l-14 -41l-457 -964h-104l-218 1247l2 6h145l151 -987l4 -67l26 67l451 981h96l175 -970l6 -67l24 67l425 976h134zM1128 1305l-333 158l-6 21l90 110l288 -211z" />
    <glyph glyph-name="wgrave" unicode="&#x1e81;" horiz-adv-x="1428" 
d="M1454 964l2 -5l-438 -959h-128l-117 761l-4 36l-359 -797h-129l-171 959l2 5h139l116 -754v-35l352 789h145l117 -752l4 -39l13 41l326 750h130zM925 1074l-309 192l-2 19l97 106l266 -233z" />
    <glyph glyph-name="Wacute" unicode="&#x1e82;" horiz-adv-x="1714" 
d="M1782 1231l2 -6l-565 -1247h-100l-177 964l-6 41l-14 -41l-457 -964h-104l-218 1247l2 6h145l151 -987l4 -67l26 67l451 981h96l175 -970l6 -67l24 67l425 976h134zM1179 1452l-352 -149l-36 80l317 203l78 -115z" />
    <glyph glyph-name="wacute" unicode="&#x1e83;" horiz-adv-x="1428" 
d="M1454 964l2 -5l-438 -959h-128l-117 761l-4 36l-359 -797h-129l-171 959l2 5h139l116 -754v-35l352 789h145l117 -752l4 -39l13 41l326 750h130zM1011 1275l-298 -208l-56 82l253 246l103 -101z" />
    <glyph glyph-name="Wdieresis" unicode="&#x1e84;" horiz-adv-x="1714" 
d="M1782 1231l2 -6l-565 -1247h-100l-177 964l-6 41l-14 -41l-457 -964h-104l-218 1247l2 6h145l151 -987l4 -67l26 67l451 981h96l175 -970l6 -67l24 67l425 976h134zM1178 1363q-36 0 -58.5 20.5t-22.5 58.5t27 62.5t62 24.5t56.5 -22.5t21.5 -60t-25 -60.5t-61 -23z
M816 1363q-36 0 -58.5 20.5t-22.5 58.5t27 62.5t62.5 24.5t57 -22.5t21.5 -60t-25.5 -60.5t-61.5 -23z" />
    <glyph glyph-name="wdieresis" unicode="&#x1e85;" horiz-adv-x="1428" 
d="M1454 964l2 -5l-438 -959h-128l-117 761l-4 36l-359 -797h-129l-171 959l2 5h139l116 -754v-35l352 789h145l117 -752l4 -39l13 41l326 750h130zM990 1167q-38 0 -62.5 23.5t-24.5 64.5t29 67t67 26t61.5 -23.5t23.5 -63.5t-28 -67t-66 -27zM645 1167q-38 0 -62 23.5
t-24 64.5t27.5 67t67 26t62.5 -23.5t23 -63.5t-28 -67t-66 -27z" />
    <glyph glyph-name="uni1E9E" unicode="&#x1e9e;" horiz-adv-x="1301" 
d="M767 -28q-158 0 -277 67l18 125l4 4q117 -78 257 -78.5t218 82.5t78 212q0 162 -164 204q-86 20 -210 15l7 43l330 458q-80 26 -216 26q-182 0 -315.5 -105t-168.5 -347l-95 -678h-140l97 689q19 127 68 229q163 338 617 339q208 0 333 -75l-5 -41l-317 -424
q140 -6 230 -77.5t90 -248t-115 -298t-324 -121.5z" />
    <glyph glyph-name="uni1EA0" unicode="&#x1ea0;" horiz-adv-x="1131" 
d="M471 -147q39 0 63 -24q24 -23 24.5 -65t-28.5 -69.5t-68 -27.5t-64.5 24t-25.5 66t30 69t69 27zM333 438h455l-136 528l-10 52l-24 -52zM1048 0h-147l-84 328h-541l-177 -328h-140l685 1253h56z" />
    <glyph glyph-name="uni1EA1" unicode="&#x1ea1;" horiz-adv-x="1126" 
d="M462 -147q39 0 63 -24t24 -65.5t-28.5 -69t-68 -27.5t-64.5 24t-25 66t30 69t69 27zM600.5 862q-155.5 0 -263.5 -127.5t-108 -352.5q0 -132 69 -206t178 -74t193.5 62.5t114.5 183.5l61 428l2 6q-91 80 -246.5 80zM897 -13q-140 0 -134 141q-108 -151 -311 -150
q-168 0 -268 103t-100 278q0 289 148 457.5t371 168.5q175 0 276 -80l17 59h115l-106 -746q-7 -56 5 -79.5t50 -23t66 22.5l5 -2l-16 -119q-54 -30 -118 -30z" />
    <glyph glyph-name="uni1EB8" unicode="&#x1eb8;" horiz-adv-x="986" 
d="M473 -147q39 0 63 -24q24 -23 24 -65t-28.5 -69.5t-68 -27.5t-64.5 24t-25 66t30 69t69 27zM959 1102h-551l-56 -404h516l-19 -126h-516l-61 -444h571l-16 -128h-713l171 1231h691z" />
    <glyph glyph-name="uni1EB9" unicode="&#x1eb9;" horiz-adv-x="1022" 
d="M482 -147q39 0 63.5 -24t24.5 -65.5t-29 -69t-68 -27.5t-64 24t-25 66t29.5 69t68.5 27zM812 616q0 115 -60.5 180.5t-179 65.5t-204 -78t-119.5 -212h561q2 15 2 44zM564 985q192 0 289 -102.5t97 -256.5q0 -67 -21 -166h-696v-36q0 -156 82.5 -239.5t235 -83.5
t285.5 91l6 -2l-19 -132q-119 -80 -307 -80t-308 111.5t-120 323.5q0 255 142 413.5t334 158.5z" />
    <glyph glyph-name="uni1EBC" unicode="&#x1ebc;" horiz-adv-x="986" 
d="M959 1102h-551l-56 -404h516l-19 -126h-516l-61 -444h571l-16 -128h-713l171 1231h691zM549.5 1532q59.5 0 131 -35t103.5 -35t58 21t31 60l4 4l87 -30q-13 -78 -64 -125.5t-106 -47.5t-130.5 35.5t-110 35.5t-58.5 -22.5t-30 -61.5l-3 -2l-90 26q15 78 66.5 127.5
t111 49.5z" />
    <glyph glyph-name="uni1EBD" unicode="&#x1ebd;" horiz-adv-x="1022" 
d="M812 616q0 115 -60.5 180.5t-179 65.5t-204 -78t-119.5 -212h561q2 15 2 44zM564 985q192 0 289 -102.5t97 -256.5q0 -67 -21 -166h-696v-36q0 -156 82.5 -239.5t235 -83.5t285.5 91l6 -2l-19 -132q-119 -80 -307 -80t-308 111.5t-120 323.5q0 255 142 413.5t334 158.5z
M480.5 1324q59.5 0 131 -36.5t109.5 -36.5q73 0 83 80l6 4l95 -21q-13 -88 -63.5 -133t-110 -45t-133 37t-107 37t-55.5 -22.5t-28 -59.5l-6 -2l-87 21q11 76 58.5 126.5t107 50.5z" />
    <glyph glyph-name="uni1ECA" unicode="&#x1eca;" horiz-adv-x="498" 
d="M147 -333q-39 0 -64 24t-25 66t29.5 69t68.5 27q40 0 64 -24q24 -23 24 -65t-29 -69.5t-68 -27.5zM114 0l171 1231h139l-173 -1231h-137z" />
    <glyph glyph-name="uni1ECB" unicode="&#x1ecb;" horiz-adv-x="446" 
d="M117 -333q-39 0 -64 24t-25 66t30 69t69 27t63 -24q24 -23 24 -65t-29 -69.5t-68 -27.5zM86 0l137 964h140l-136 -964h-141zM329.5 1156q-39.5 0 -64.5 24.5t-25 66.5t29 68.5t69 26.5t64 -24t24 -65t-28.5 -69t-68 -28z" />
    <glyph glyph-name="uni1ECC" unicode="&#x1ecc;" horiz-adv-x="1398" 
d="M547 -330q-39 0 -64 24.5t-25 66.5t30 69t69 27t63 -24.5t24 -65.5t-29 -69t-68 -28zM706.5 99q211.5 0 343.5 162.5t132 393.5t-119 356t-329.5 125t-342.5 -163t-132 -396t118 -355.5t329.5 -122.5zM698 -24q-270 0 -426.5 157t-156.5 414q0 317 180 514.5t448 197.5
t424.5 -159.5t156.5 -414.5q0 -317 -178 -513t-448 -196z" />
    <glyph glyph-name="uni1ECD" unicode="&#x1ecd;" horiz-adv-x="1124" 
d="M469 -333q-39 0 -64 24t-25 66t29.5 69t69 27t63.5 -24t24 -65.5t-29 -69t-68 -27.5zM546 101q150 0 248 125.5t98 292t-82 255t-232 88.5t-247.5 -127.5t-97.5 -291.5t81.5 -253t231.5 -89zM518 -22q-190 0 -310 116t-120 342.5t145 387.5t354.5 161t329.5 -116.5
t120 -342.5t-146 -387t-373 -161z" />
    <glyph glyph-name="uni1EE4" unicode="&#x1ee4;" horiz-adv-x="1273" 
d="M532.5 -333q-39.5 0 -64.5 24t-25 66t30 69t69 27t63 -24t24 -65.5t-28.5 -69t-68 -27.5zM575 -26q-197 0 -308 103.5t-111 274.5q0 71 8 121l106 758h138l-105 -741q-7 -47 -7 -97q0 -143 79 -219.5t231 -76.5q314 0 371 393l103 741h136l-106 -758q-73 -499 -535 -499z
" />
    <glyph glyph-name="uni1EE5" unicode="&#x1ee5;" horiz-adv-x="1072" 
d="M443 -147q39 0 63.5 -24t24.5 -65.5t-29 -69t-68 -27.5t-64.5 24t-25.5 66t30 69t69 27zM424 -22q-145 0 -224 78t-79 218q0 48 7 102l82 588h142l-82 -573q-6 -41 -6 -91q0 -99 54 -150t147 -51t170.5 52t118.5 145l95 668h141l-137 -964h-114l4 121
q-119 -143 -319 -143z" />
    <glyph glyph-name="Ygrave" unicode="&#x1ef2;" horiz-adv-x="1053" 
d="M391 0l74 521l-324 704l2 6h147l265 -578l424 578h142l2 -6l-520 -706l-74 -519h-138zM799 1305l-334 158l-5 21l89 110l289 -211z" />
    <glyph glyph-name="ygrave" unicode="&#x1ef3;" horiz-adv-x="955" 
d="M93 -315q-61 0 -106 17l20 114l4 2q45 -15 99 -15q131 0 259 240l-263 916l2 5h149l201 -765l385 765h142l2 -5l-479 -901l-24 -49q-93 -175 -179.5 -249.5t-211.5 -74.5zM702 1065l-309 192l-2 18l97 106l266 -232z" />
    <glyph glyph-name="uni1EF8" unicode="&#x1ef8;" horiz-adv-x="1053" 
d="M391 0l74 521l-324 704l2 6h147l265 -578l424 578h142l2 -6l-520 -706l-74 -519h-138zM549.5 1532q59.5 0 131 -35t103.5 -35t58 21t31 60l4 4l87 -30q-13 -78 -64 -125.5t-106 -47.5t-130.5 35.5t-110 35.5t-58.5 -22.5t-30 -61.5l-3 -2l-90 26q15 78 66.5 127.5
t111 49.5z" />
    <glyph glyph-name="uni1EF9" unicode="&#x1ef9;" horiz-adv-x="955" 
d="M93 -315q-61 0 -106 17l20 114l4 2q45 -15 99 -15q131 0 259 240l-263 916l2 5h149l201 -765l385 765h142l2 -5l-479 -901l-24 -49q-93 -175 -179.5 -249.5t-211.5 -74.5zM467.5 1324q59.5 0 131 -36.5t108.5 -36.5q73 0 84 80l6 4l95 -21q-13 -88 -63.5 -133t-110 -45
t-133 37t-107 37t-55.5 -22.5t-28 -59.5l-6 -2l-87 21q11 76 58.5 126.5t107 50.5z" />
    <glyph glyph-name="endash" unicode="&#x2013;" horiz-adv-x="929" 
d="M132 464l15 117h661l-17 -117h-659z" />
    <glyph glyph-name="emdash" unicode="&#x2014;" horiz-adv-x="1532" 
d="M132 464l15 117h1266l-15 -117h-1266z" />
    <glyph glyph-name="quoteleft" unicode="&#x2018;" horiz-adv-x="374" 
d="M400 1296q-62 -218 -74 -389l-127 -21l-15 21q26 171 131 389h85z" />
    <glyph glyph-name="quoteright" unicode="&#x2019;" horiz-adv-x="351" 
d="M155 888q67 239 74 389l127 21l15 -23q-28 -175 -131 -387h-85z" />
    <glyph glyph-name="quotesinglbase" unicode="&#x201a;" horiz-adv-x="364" 
d="M-30 -270q16 54 42 176t35 211l126 21l15 -23q-28 -177 -130 -385h-88z" />
    <glyph glyph-name="quotedblleft" unicode="&#x201c;" horiz-adv-x="627" 
d="M653 1296q-61 -212 -74 -389l-127 -21l-14 21q26 171 130 389h85zM400 1296q-62 -218 -74 -389l-127 -21l-15 21q26 171 131 389h85z" />
    <glyph glyph-name="quotedblright" unicode="&#x201d;" horiz-adv-x="619" 
d="M406 888q61 197 74 389l127 21l17 -23q-26 -164 -131 -387h-87zM155 888q67 239 74 389l127 21l15 -23q-28 -175 -131 -387h-85z" />
    <glyph glyph-name="quotedblbase" unicode="&#x201e;" horiz-adv-x="612" 
d="M223 -270q64 211 75 387l128 21l15 -23q-26 -166 -130 -385h-88zM-30 -270q16 54 42 176t35 211l126 21l15 -23q-28 -177 -130 -385h-88z" />
    <glyph glyph-name="dagger" unicode="&#x2020;" horiz-adv-x="929" 
d="M577 946l309 22l-18 -128l-287 11l-151 -948h-95l116 950l-287 -17l18 132l302 -18l30 335l132 -2z" />
    <glyph glyph-name="daggerdbl" unicode="&#x2021;" horiz-adv-x="930" 
d="M317 -102l67 329l-311 -18l18 132l289 -19l54 270l22 268l-292 -18l20 132l302 -21l28 334h134l-67 -334l309 21l-21 -132l-286 18l-54 -268l-21 -268l291 17l-19 -132l-303 20l-26 -331h-134z" />
    <glyph glyph-name="bullet" unicode="&#x2022;" horiz-adv-x="677" 
d="M326 324q-76 0 -120 47t-44 123t61 137t137 61t120 -46q44 -48 45 -124q0 -76 -61 -137q-62 -61 -138 -61z" />
    <glyph glyph-name="ellipsis" unicode="&#x2026;" horiz-adv-x="1025" 
d="M800 175q44 0 68 -25q22 -25 22 -65t-28 -67t-71 -27q-44 0 -68 24q-23 24 -23 64t28 68t72 28zM476 175q44 0 68 -25q22 -25 22 -65t-28 -67t-71 -27q-44 0 -68 24q-23 24 -23 64t28 68t72 28zM238 85q0 -40 -28 -67t-71 -27q-44 0 -67 24q-24 24 -24 64t28 68t73 28
t67 -25t22 -65z" />
    <glyph glyph-name="perthousand" unicode="&#x2030;" horiz-adv-x="1938" 
d="M1548 89q79 -1 134 63t55 160q0 185 -143 185q-90 0 -146 -67t-55 -179q0 -162 155 -162zM930 89q79 -1 135 63t56 160q0 185 -144 185q-91 0 -147 -67t-55 -181q0 -160 155 -160zM1592 596q128 0 194 -67t66 -211t-92 -235q-94 -92 -224 -92t-195 65q-66 65 -66 184
q0 164 94 260t223 96zM922 -9q-128 0 -196 65q-67 65 -67 184q0 164 94 260q95 96 223 96t194 -67t66 -190q0 -164 -93 -256t-221 -92zM255 903q0 -166 154 -166q79 1 136 65t57 158t-40 140q-39 45 -117 45t-134 -66t-56 -176zM145 20l961 1201h121l-961 -1201h-121z
M400 639q-130 0 -196 65t-66 186q0 162 94 258t222 96t195 -67q68 -67 68 -188q0 -166 -94 -258q-93 -92 -223 -92z" />
    <glyph glyph-name="guilsinglleft" unicode="&#x2039;" horiz-adv-x="606" 
d="M687 855v-15l-326 -321l224 -333l-2 -13h-132l-241 352l339 330h138z" />
    <glyph glyph-name="guilsinglright" unicode="&#x203a;" horiz-adv-x="605" 
d="M65 173v15l326 320l-223 334l1 13h133l240 -352l-339 -330h-138z" />
    <glyph glyph-name="fraction" unicode="&#x2044;" horiz-adv-x="245" 
d="M-376 -22l942 1258h108l-944 -1258h-106z" />
    <glyph glyph-name="uni20A8" unicode="&#x20a8;" horiz-adv-x="826" 
d="M225 603q125 0 217 52t124 153h-436l47 121h400q-19 181 -262 181h-146l47 121h678l-47 -121h-221q89 -63 95 -181h147l-45 -121h-114q-34 -141 -146 -222t-261 -94l385 -485l-2 -7h-173l-391 490l15 113h89z" />
    <glyph glyph-name="Euro" unicode="&#x20ac;" horiz-adv-x="1232" 
d="M927 1257q169 0 294 -51l-18 -128l-6 -2q-112 58 -273 58q-160 0 -286 -82t-189 -227h458l-34 -103h-460q-20 -88 -20 -182h422l-31 -102h-382q26 -153 132 -241q106 -87 254 -87t286 61l2 -3l-15 -123q-138 -61 -272 -62q-225 0 -366 123t-166 332h-214l31 102h177
q2 89 21 182h-140l34 103h136q74 203 240 317t385 115z" />
    <glyph glyph-name="uni20BD" unicode="&#x20bd;" horiz-adv-x="997" 
d="M506 618q169 0 259.5 75.5t90.5 218.5q0 97 -62 155t-189.5 58t-174.5 -6l-69 -501h145zM508 501h-162l-22 -164h236l-14 -119h-239l-30 -218h-137l29 218h-158l15 119h160l23 164h-159l15 117h158l84 616q160 11 329 11.5t266.5 -81.5t97.5 -231q0 -203 -132.5 -317.5
t-359.5 -114.5z" />
    <glyph glyph-name="trademark" unicode="&#x2122;" horiz-adv-x="1450" 
d="M1266 1223h104l-26 -579h-104l15 386h-2l-222 -382h-63l-113 391h-2l-92 -395h-106l138 579h108l125 -422zM668 1117h-193l-67 -473h-110l65 473h-197l15 106h502z" />
    <glyph glyph-name="oneeighth" unicode="&#x215b;" horiz-adv-x="1306" 
d="M931 67q71 0 115 33t43 79q0 77 -103 118q-40 16 -51 21t-25 10q-115 -60 -115 -155q0 -106 136 -106zM1119 529q1 39 -31 64t-90 25t-92 -27q-36 -27 -36 -67t28 -69q29 -28 113 -57q108 58 108 131zM1195 200q0 -98 -76 -156q-77 -58 -195 -59q-118 0 -178 43t-59 121
q0 134 158 214q-84 57 -84 145t71 141q72 53 172 53t161 -40t62 -116q-1 -112 -142 -185q110 -63 110 -161zM981 1236h108l-944 -1258h-106zM210 562l79 538l-161 -63l17 121l263 99h15l-97 -695h-116z" />
    <glyph glyph-name="threeeighths" unicode="&#x215c;" horiz-adv-x="1491" 
d="M1115 67q71 0 115 33t44 79q-1 77 -104 118q-40 16 -48 20q-8 5 -15 7t-12 4q-115 -60 -116 -155q0 -106 136 -106zM1182 618q-58 0 -92 -27q-36 -27 -36 -67t28 -68q28 -27 113 -58q108 58 108 131q0 39 -31 64q-32 25 -90 25zM1380 200q0 -98 -76 -156t-196 -59
q-118 0 -178 43t-59 121q0 134 159 214q-84 57 -84 145t71 141t171 53t162 -40t61 -116q0 -112 -141 -185q110 -63 110 -161zM1165 1236h108l-943 -1258h-107zM577 784q0 -106 -77 -172t-204 -66t-208 52l14 95l2 1q65 -56 198 -55q76 0 123 39t48 106q0 97 -119 97h-103
l13 80h77q69 1 107 31t38 84q0 89 -118 89t-184 -42h-2l12 93q74 44 176 44t164 -41q61 -41 62 -124q0 -110 -108 -168q89 -37 89 -143z" />
    <glyph glyph-name="fiveeighths" unicode="&#x215d;" horiz-adv-x="1500" 
d="M1125 67q71 0 115 33t43 79q0 46 -32 74t-108 58l-39 17q-115 -60 -115 -155q0 -106 136 -106zM1192 618q-58 0 -94 -27t-35 -67q0 -40 29 -69q29 -28 113 -57q108 58 108 131q0 39 -32 64q-31 25 -89 25zM1389 200q0 -98 -76 -156q-77 -58 -195 -59q-118 0 -178 43
t-59 121q0 134 158 214q-84 57 -84 145t71 141q72 53 172 53t161 -40t62 -116q-1 -112 -142 -185q110 -63 110 -161zM1175 1236h108l-944 -1258h-106zM586 804q0 -130 -84 -194t-202 -64q-116 0 -212 40l14 99h2q86 -48 178 -48t140 41q47 41 47 108q0 112 -139 111
q-104 0 -189 -22l-1 4l76 368h402l-13 -95h-311l-41 -180q41 11 129 11q88 -1 146 -47t58 -132z" />
    <glyph glyph-name="seveneighths" unicode="&#x215e;" horiz-adv-x="1407" 
d="M1031 67q71 0 115 33t44 79t-32 74t-108 58l-39 17q-115 -60 -115 -155q-1 -106 135 -106zM1098 618q-58 0 -92 -27q-36 -27 -36 -67t29 -69q29 -28 113 -57q108 58 107 131q0 39 -31 64q-32 25 -90 25zM1296 200q0 -98 -76 -156t-196 -59q-118 0 -178 43t-58 121
q0 134 158 214q-84 57 -84 145t71 141t171 53t162 -40q61 -40 61 -116q0 -112 -141 -185q110 -63 110 -161zM1082 1236h108l-944 -1258h-106zM162 564l337 575h-354l15 107h480l-7 -56l-359 -628h-110z" />
    <glyph glyph-name="arrowleft" unicode="&#x2190;" horiz-adv-x="1104" 
d="M1136 532h-799l285 -281l-90 -89l-433 434l432 435l89 -89l-279 -281h793z" />
    <glyph glyph-name="arrowup" unicode="&#x2191;" horiz-adv-x="1104" 
d="M421 41v895l-280 -277l-89 89l434 431l434 -432l-90 -90l-277 281l-4 -897h-128z" />
    <glyph glyph-name="arrowright" unicode="&#x2192;" horiz-adv-x="1104" 
d="M573 1031l432 -435l-433 -434l-90 89l285 281h-799l2 129h793l-279 281z" />
    <glyph glyph-name="arrowdown" unicode="&#x2193;" horiz-adv-x="1104" 
d="M421 1179h128l4 -898l277 281l90 -89l-434 -432l-434 430l89 89l280 -277v896z" />
    <glyph glyph-name="uni2196" unicode="&#x2196;" horiz-adv-x="1104" 
d="M188 443v611l613 4v-127h-395l694 -695l-91 -91l-696 693l2 -395h-127z" />
    <glyph glyph-name="uni2197" unicode="&#x2197;" horiz-adv-x="1104" 
d="M923 436h-126l2 394l-697 -692l-91 91l695 694h-395v127l612 -4v-610z" />
    <glyph glyph-name="uni2198" unicode="&#x2198;" horiz-adv-x="1104" 
d="M923 760v-611l-612 -4v127h395l-695 694l91 92l697 -693l-2 395h126z" />
    <glyph glyph-name="uni2199" unicode="&#x2199;" horiz-adv-x="1104" 
d="M801 270v-127l-613 4v611h127l-2 -395l696 693l91 -92l-694 -694h395z" />
    <glyph glyph-name="minus" unicode="&#x2212;" horiz-adv-x="979" 
d="M138 493l17 110h707l-17 -110h-707z" />
    <glyph glyph-name="approxequal" unicode="&#x2248;" horiz-adv-x="925" 
d="M298 456q74 0 166 -38t141 -38q80 0 93 80l8 5l83 -16q-9 -79 -63 -129t-123 -50t-160 36t-141 37q-89 0 -101 -82l-4 -2l-91 11q13 84 66 135q52 51 126 51zM350 810q74 0 164 -36q91 -36 141 -37q82 0 93 82l8 2l84 -15q-10 -82 -64 -132t-123 -50t-161 39t-142 39
q-86 0 -101 -86l-1 -3l-92 14q12 83 66 133t128 50z" />
    <glyph glyph-name="notequal" unicode="&#x2260;" horiz-adv-x="1001" 
d="M896 683h-216l-172 -290h348l-16 -108h-395l-145 -248h-127l145 248h-208l17 108h255l171 290h-387l16 108h434l138 237h129l-140 -237h169z" />
    <glyph glyph-name="uniF8FF" unicode="&#xf8ff;" horiz-adv-x="2710" 
d="M1974 28h13q7 0 7 6t-7 5h-13v-11zM1964 4v43h21q19 0 18 -13q0 -13 -13 -14l11 -16h-11l-7 16h-9v-16h-10zM1983 -9q33 -1 33 33t-34 34t-33 -34q0 -34 34 -33zM1983 -19q-45 0 -45 43t45 43t45 -43t-45 -43zM1255 201q0 43 -39 43t-39 -56q0 -26 9 -54q26 0 48 20
q21 20 21 47zM1685 201h74q6 50 -31 50q-43 0 -43 -50zM1745 -9q-263 0 -263 227q0 108 61 170t167 62t164 -55q57 -56 57 -160q0 -41 -6 -64h-231q20 -33 88 -33t108 22v-140q-43 -29 -145 -29zM977 -82q0 263 19 523h145q13 -78 13 -141q32 151 149 151q69 0 109 -54
t40 -157q0 -249 -255 -249q2 -28 2 -73h-222zM948 188q0 -154 -62 -217q-62 -64 -199 -64q-136 0 -186 32v154q45 -30 124 -30t100 33q7 10 7 19q-32 -20 -92 -20q-168 0 -167 153v24h-102l5 -119q12 -7 32 -7t30 9v-136q-35 -28 -123 -28q-87 -1 -121 31t-34 102t6 148h-34
v149l218 54l-2 -34h330v-221q0 -30 6 -39t22 -10q30 0 29 49v221h194q19 -99 19 -253zM2186 691q0 -52 41 -52q41 -1 41 51t-43 53q-39 0 -39 -52zM579 691q0 -52 43 -52q43 -1 43 51t-45 53q-41 0 -41 -52zM2454 722q0 -230 -228 -230t-228 231t231 230q225 -1 225 -231z
M1491 501q0 324 19 443h149q11 -82 11 -142q4 28 12 56t44 62t104 34q67 0 98 -48q31 -46 34 -150l6 -255h-212l3 171q0 54 -28 54q-34 0 -33 -54l6 -171h-213zM549 492q-171 0 -171 210q0 251 249 251q231 0 231 -218v-234h-154l-15 112q-25 -121 -140 -121zM877 773v147
l221 56l2 -32h332q19 -119 18 -443h-219q0 169 5 272h-113l5 -121q8 -8 30 -8t32 9v-135q-26 -28 -127 -28q-153 0 -153 121l8 162h-41zM125 501q0 248 16 583h187q19 -372 18 -583h-221zM1340 968q-48 0 -82 34t-33 81q0 47 33 81t81 34t82 -34q33 -34 33 -82t-34 -81
q-32 -33 -80 -33z" />
    <glyph glyph-name="Jacute" horiz-adv-x="644" 
d="M54 -6q-41 0 -91 6l17 119l5 2q24 -6 67 -6q233 0 274 295l117 821h140l-114 -812q-58 -425 -415 -425zM367 1303l-36 80l317 203l78 -115l-7 -19z" />
    <glyph glyph-name="G.alt" horiz-adv-x="1241" 
d="M641 -19q-239 0 -384 141.5t-145 385.5q0 335 202 542t524 207q205 0 339 -73l-19 -136l-6 -2q-134 86 -337 86q-248 0 -403 -166.5t-155 -436.5q0 -192 112.5 -306.5t311.5 -114.5q151 0 276 67l54 371h130l-65 -457q-196 -108 -435 -108z" />
    <glyph glyph-name="M.ss01" horiz-adv-x="1521" 
d="M1301 1236h84l-58 -1236h-132l49 923h-4l-518 -914h-46l-268 913h-4l-214 -922h-130l294 1236h84l299 -985z" />
    <glyph glyph-name="Q.ss01" horiz-adv-x="1381" 
d="M1156 678q0 216 -117 336t-314 120t-321.5 -131.5t-124.5 -335.5q0 -164 94 -258t282 -92q45 0 99 11l4 -2l-8 -123q-58 -13 -123 -13q-235 2 -364 126.5t-129 336.5q0 268 169.5 437.5t426.5 169.5t414 -150.5t157 -435.5t-175.5 -479.5t-494.5 -241.5q95 -35 206 -86
t175 -80q166 -75 414 -79l2 -6l-26 -108q-188 7 -337 48q-149 40 -233 88q-267 151 -426 192l18 126q376 28 554 183.5t178 446.5z" />
    <glyph glyph-name="i.loclTRK" horiz-adv-x="446" 
d="M86 0l137 964h140l-136 -964h-141zM329.5 1156q-39.5 0 -64.5 24.5t-25 66.5t29 68.5t69 26.5t64 -24t24 -65t-28.5 -69t-68 -28z" />
    <glyph glyph-name="jacute" horiz-adv-x="474" 
d="M-86 -315q-47 0 -89 8l19 123l5 2q22 -6 56 -6q99 0 150 60.5t68 179.5l130 912h138l-132 -942q-49 -337 -345 -337zM249 1058l-55 81l253 246l102 -100l-2 -19z" />
    <glyph glyph-name="germandbls.calt" horiz-adv-x="1301" 
d="M767 -28q-158 0 -277 67l18 125l6 2q112 -76 253.5 -76.5t219.5 82.5t78 212q0 162 -164 204q-86 20 -203 15v43l330 471q-78 28 -216 28q-182 0 -315.5 -109t-168.5 -358l-95 -678h-140l97 689q52 369 328 509q145 74 356 74t334 -77l-5 -39l-317 -439q136 -6 228 -80.5
t92 -226.5q0 -194 -115 -316t-324 -122z" />
    <glyph glyph-name="a.ss01" horiz-adv-x="1009" 
d="M361 95q181 0 304 175l18 136q-82 41 -212 41t-208.5 -47.5t-78.5 -150.5q0 -73 49.5 -113.5t127.5 -40.5zM788 -11q-136 0 -136 125q0 17 1 26q-136 -162 -331 -162q-125 0 -202 69.5t-77 188.5q0 164 118 243.5t283 79.5t254 -45l9 65q6 34 6 65q0 222 -251 222
q-153 0 -278 -97l-5 2l16 126q39 35 123 61.5t181 26.5q175 0 265.5 -79t90.5 -232q0 -47 -8 -89l-52 -363q-2 -13 -2 -32q-2 -71 60 -71q41 0 65 22l5 -1l-18 -121q-50 -30 -117 -30z" />
    <glyph glyph-name="aacute.ss01" horiz-adv-x="1009" 
d="M361 95q181 0 304 175l18 136q-82 41 -212 41t-208.5 -47.5t-78.5 -150.5q0 -73 49.5 -113.5t127.5 -40.5zM788 -11q-136 0 -136 125q0 17 1 26q-136 -162 -331 -162q-125 0 -202 69.5t-77 188.5q0 164 118 243.5t283 79.5t254 -45l9 65q6 34 6 65q0 222 -251 222
q-153 0 -278 -97l-5 2l16 126q39 35 123 61.5t181 26.5q175 0 265.5 -79t90.5 -232q0 -47 -8 -89l-52 -363q-2 -13 -2 -32q-2 -71 60 -71q41 0 65 22l5 -1l-18 -121q-50 -30 -117 -30zM754 1266l-298 -208l-56 81l253 246l103 -100z" />
    <glyph glyph-name="abreve.ss01" horiz-adv-x="1009" 
d="M361 95q181 0 304 175l18 136q-82 41 -212 41t-208.5 -47.5t-78.5 -150.5q0 -73 49.5 -113.5t127.5 -40.5zM788 -11q-136 0 -136 125q0 17 1 26q-136 -162 -331 -162q-125 0 -202 69.5t-77 188.5q0 164 118 243.5t283 79.5t254 -45l9 65q6 34 6 65q0 222 -251 222
q-153 0 -278 -97l-5 2l16 126q39 35 123 61.5t181 26.5q175 0 265.5 -79t90.5 -232q0 -47 -8 -89l-52 -363q-2 -13 -2 -32q-2 -71 60 -71q41 0 65 22l5 -1l-18 -121q-50 -30 -117 -30zM552 1078q-105 0 -166.5 70t-44.5 189l95 11l3 -4q-7 -73 26.5 -115.5t97.5 -42.5
t110 43t61 113l5 6l88 -11q-17 -121 -93.5 -190t-181.5 -69z" />
    <glyph glyph-name="acircumflex.ss01" horiz-adv-x="1009" 
d="M361 95q181 0 304 175l18 136q-82 41 -212 41t-208.5 -47.5t-78.5 -150.5q0 -73 49.5 -113.5t127.5 -40.5zM788 -11q-136 0 -136 125q0 17 1 26q-136 -162 -331 -162q-125 0 -202 69.5t-77 188.5q0 164 118 243.5t283 79.5t254 -45l9 65q6 34 6 65q0 222 -251 222
q-153 0 -278 -97l-5 2l16 126q39 35 123 61.5t181 26.5q175 0 265.5 -79t90.5 -232q0 -47 -8 -89l-52 -363q-2 -13 -2 -32q-2 -71 60 -71q41 0 65 22l5 -1l-18 -121q-50 -30 -117 -30zM572 1240l-211 -179l-54 60l246 251h67l175 -251l-69 -60z" />
    <glyph glyph-name="adieresis.ss01" horiz-adv-x="1009" 
d="M361 95q181 0 304 175l18 136q-82 41 -212 41t-208.5 -47.5t-78.5 -150.5q0 -73 49.5 -113.5t127.5 -40.5zM788 -11q-136 0 -136 125q0 17 1 26q-136 -162 -331 -162q-125 0 -202 69.5t-77 188.5q0 164 118 243.5t283 79.5t254 -45l9 65q6 34 6 65q0 222 -251 222
q-153 0 -278 -97l-5 2l16 126q39 35 123 61.5t181 26.5q175 0 265.5 -79t90.5 -232q0 -47 -8 -89l-52 -363q-2 -13 -2 -32q-2 -71 60 -71q41 0 65 22l5 -1l-18 -121q-50 -30 -117 -30zM733 1158q-38 0 -62.5 23.5t-24.5 64.5t29 67t67 26t61.5 -23.5t23.5 -63.5t-28 -67
t-66 -27zM388 1158q-38 0 -62 23.5t-24 64.5t27.5 67t67 26t62.5 -23.5t23 -63.5t-28 -67t-66 -27z" />
    <glyph glyph-name="uni1EA1.ss01" horiz-adv-x="1009" 
d="M404 -147q39 0 63.5 -24t24.5 -65.5t-29 -69t-68 -27.5t-64.5 24t-25.5 66t30 69t69 27zM361 95q181 0 304 175l18 136q-82 41 -212 41t-208.5 -47.5t-78.5 -150.5q0 -73 49.5 -113.5t127.5 -40.5zM788 -11q-136 0 -136 125q0 17 1 26q-136 -162 -331 -162
q-125 0 -202 69.5t-77 188.5q0 164 118 243.5t283 79.5t254 -45l9 65q6 34 6 65q0 222 -251 222q-153 0 -278 -97l-5 2l16 126q39 35 123 61.5t181 26.5q175 0 265.5 -79t90.5 -232q0 -47 -8 -89l-52 -363q-2 -13 -2 -32q-2 -71 60 -71q41 0 65 22l5 -1l-18 -121
q-50 -30 -117 -30z" />
    <glyph glyph-name="agrave.ss01" horiz-adv-x="1009" 
d="M361 95q181 0 304 175l18 136q-82 41 -212 41t-208.5 -47.5t-78.5 -150.5q0 -73 49.5 -113.5t127.5 -40.5zM788 -11q-136 0 -136 125q0 17 1 26q-136 -162 -331 -162q-125 0 -202 69.5t-77 188.5q0 164 118 243.5t283 79.5t254 -45l9 65q6 34 6 65q0 222 -251 222
q-153 0 -278 -97l-5 2l16 126q39 35 123 61.5t181 26.5q175 0 265.5 -79t90.5 -232q0 -47 -8 -89l-52 -363q-2 -13 -2 -32q-2 -71 60 -71q41 0 65 22l5 -1l-18 -121q-50 -30 -117 -30zM668 1065l-309 192l-2 18l97 106l267 -232z" />
    <glyph glyph-name="amacron.ss01" horiz-adv-x="1009" 
d="M361 95q181 0 304 175l18 136q-82 41 -212 41t-208.5 -47.5t-78.5 -150.5q0 -73 49.5 -113.5t127.5 -40.5zM788 -11q-136 0 -136 125q0 17 1 26q-136 -162 -331 -162q-125 0 -202 69.5t-77 188.5q0 164 118 243.5t283 79.5t254 -45l9 65q6 34 6 65q0 222 -251 222
q-153 0 -278 -97l-5 2l16 126q39 35 123 61.5t181 26.5q175 0 265.5 -79t90.5 -232q0 -47 -8 -89l-52 -363q-2 -13 -2 -32q-2 -71 60 -71q41 0 65 22l5 -1l-18 -121q-50 -30 -117 -30zM830 1266l-15 -106h-517l15 106h517z" />
    <glyph glyph-name="aogonek.ss01" horiz-adv-x="1009" 
d="M361 95q181 0 304 175l18 136q-82 41 -212 41t-208.5 -47.5t-78.5 -150.5q0 -73 49.5 -113.5t127.5 -40.5zM683 -246q0 -71 80 -71q34 0 54 8l4 -4l-11 -91q-48 -13 -111.5 -13t-108 34.5t-44.5 97.5q0 155 199 278q-93 19 -93 121q0 17 1 26q-136 -162 -331 -162
q-125 0 -202 69.5t-77 188.5q0 164 118 243.5t283 79.5t254 -45l9 65q6 34 6 65q0 222 -251 222q-153 0 -278 -97l-5 2l16 126q39 35 123 61.5t181 26.5q175 0 265.5 -79t90.5 -232q0 -47 -8 -89l-52 -363q-2 -13 -2 -32q-2 -71 60 -71q41 0 65 22l5 -1l-18 -121
q-17 -9 -32 -15q-190 -128 -190 -250z" />
    <glyph glyph-name="aring.ss01" horiz-adv-x="1009" 
d="M361 95q181 0 304 175l18 136q-82 41 -212 41t-208.5 -47.5t-78.5 -150.5q0 -73 49.5 -113.5t127.5 -40.5zM788 -11q-136 0 -136 125q0 17 1 26q-136 -162 -331 -162q-125 0 -202 69.5t-77 188.5q0 164 118 243.5t283 79.5t254 -45l9 65q6 34 6 65q0 222 -251 222
q-153 0 -278 -97l-5 2l16 126q39 35 123 61.5t181 26.5q175 0 265.5 -79t90.5 -232q0 -47 -8 -89l-52 -363q-2 -13 -2 -32q-2 -71 60 -71q41 0 65 22l5 -1l-18 -121q-50 -30 -117 -30zM560 1316q-39 0 -66 -28.5t-27 -71.5t23.5 -65.5t63.5 -22.5t66 28t26 71t-23.5 66
t-62.5 23zM550.5 1050q-75.5 0 -120.5 44t-45 118t52.5 127.5t127 53.5t119 -43t44.5 -118.5t-51 -128.5t-126.5 -53z" />
    <glyph glyph-name="aringacute.ss01" horiz-adv-x="1009" 
d="M361 95q181 0 304 175l18 136q-82 41 -212 41t-208.5 -47.5t-78.5 -150.5q0 -73 49.5 -113.5t127.5 -40.5zM853 119q41 0 65 22l5 -1l-18 -121q-50 -30 -117 -30q-136 0 -136 125q0 17 1 26q-136 -162 -331 -162q-125 0 -202 69.5t-77 188.5q0 164 118 243.5t283 79.5
t254 -45l9 65q6 34 6 65q0 222 -251 222q-153 0 -278 -97l-5 2l16 126q39 35 123 61.5t181 26.5q175 0 265.5 -79t90.5 -232q0 -47 -8 -89l-52 -363q-2 -13 -2 -32q-1 -71 60 -71zM554 1128q40 0 66 28t26 71t-23 66t-62.5 23t-66.5 -28.5t-27 -71.5t23.5 -65.5t63.5 -22.5z
M728 1238q0 -82 -51 -135t-126.5 -53t-120.5 44t-45 118t52.5 127.5t132.5 53.5q43 0 76 -17l212 207l103 -101l-2 -19l-240 -167q9 -32 9 -58z" />
    <glyph glyph-name="atilde.ss01" horiz-adv-x="1009" 
d="M361 95q181 0 304 175l18 136q-82 41 -212 41t-208.5 -47.5t-78.5 -150.5q0 -73 49.5 -113.5t127.5 -40.5zM788 -11q-136 0 -136 125q0 17 1 26q-136 -162 -331 -162q-125 0 -202 69.5t-77 188.5q0 164 118 243.5t283 79.5t254 -45l9 65q6 34 6 65q0 222 -251 222
q-153 0 -278 -97l-5 2l16 126q39 35 123 61.5t181 26.5q175 0 265.5 -79t90.5 -232q0 -47 -8 -89l-52 -363q-2 -13 -2 -32q-2 -71 60 -71q41 0 65 22l5 -1l-18 -121q-50 -30 -117 -30zM433.5 1324q59.5 0 131.5 -36.5t109 -36.5q73 0 84 80l5 4l95 -21q-13 -88 -63 -133
t-109.5 -45t-133.5 37t-107.5 37t-55.5 -22.5t-28 -59.5l-5 -2l-88 21q11 76 58.5 126.5t107 50.5z" />
    <glyph glyph-name="d.ss01" horiz-adv-x="1092" 
d="M473 102q108 0 191.5 60.5t113.5 165.5l65 456q-86 78 -239.5 78t-264 -126.5t-110.5 -338.5q0 -141 68 -218t176 -77zM443 -22q-158 0 -258.5 107t-100.5 291q0 276 154.5 442.5t379.5 166.5q140 0 244 -67l58 408h141l-186 -1326h-115l1 123q-112 -145 -318 -145z" />
    <glyph glyph-name="dcaron.ss01" horiz-adv-x="1141" 
d="M473 102q108 0 191.5 60.5t113.5 165.5l65 456q-86 78 -239.5 78t-264 -126.5t-110.5 -338.5q0 -141 68 -218t176 -77zM1281 1326l13 -17l-102 -378h-90l71 395h108zM443 -22q-158 0 -258.5 107t-100.5 291q0 276 154.5 442.5t379.5 166.5q140 0 244 -67l58 408h141
l-186 -1326h-115l1 123q-112 -145 -318 -145z" />
    <glyph glyph-name="dcroat.ss01" horiz-adv-x="1092" 
d="M473 102q108 0 191.5 60.5t113.5 165.5l65 456q-86 78 -239.5 78t-264 -126.5t-110.5 -338.5q0 -141 68 -218t176 -77zM443 -22q-158 0 -258.5 107t-100.5 291q0 276 154.5 442.5t379.5 166.5q140 0 244 -67l24 177h-192l15 104h192l19 127h141l-18 -127h152l-15 -104
h-150l-155 -1095h-115l1 123q-112 -145 -318 -145z" />
    <glyph glyph-name="g.ss01" horiz-adv-x="1016" 
d="M737 -43q0 63 -56.5 92t-179.5 43t-175 25q-184 -80 -185 -195q0 -132 276 -132q320 -1 320 167zM756 665.5q0 90.5 -56 139t-162 48.5t-176 -59t-70 -149t57 -137.5t165.5 -48.5t175 57.5t66.5 149zM892 680q0 -149 -109 -241.5t-288 -92.5q-104 0 -178 34
q-39 -30 -39.5 -70t53 -61.5t218 -40t243.5 -70.5t79 -157q0 -145 -127.5 -222t-352.5 -77q-382 0 -382 208q0 160 209 261q-78 41 -78 123t102 152q-89 74 -89 214.5t111.5 232t288.5 91.5h469l-15 -106h-197q82 -73 82 -178z" />
    <glyph glyph-name="gbreve.ss01" horiz-adv-x="1016" 
d="M737 -43q0 63 -56.5 92t-179.5 43t-175 25q-184 -80 -185 -195q0 -132 276 -132q320 -1 320 167zM756 665.5q0 90.5 -56 139t-162 48.5t-176 -59t-70 -149t57 -137.5t165.5 -48.5t175 57.5t66.5 149zM892 680q0 -149 -109 -241.5t-288 -92.5q-104 0 -178 34
q-39 -30 -39.5 -70t53 -61.5t218 -40t243.5 -70.5t79 -157q0 -145 -127.5 -222t-352.5 -77q-382 0 -382 208q0 160 209 261q-78 41 -78 123t102 152q-89 74 -89 214.5t111.5 232t288.5 91.5h469l-15 -106h-197q82 -73 82 -178zM567 1085q-105 0 -166.5 70t-44.5 189l95 11
l3 -3q-7 -73 26.5 -116t97.5 -43t110 43t60 114l6 5l88 -11q-17 -121 -93.5 -190t-181.5 -69z" />
    <glyph glyph-name="gcaron.ss01" horiz-adv-x="1016" 
d="M737 -43q0 63 -56.5 92t-179.5 43t-175 25q-184 -80 -185 -195q0 -132 276 -132q320 -1 320 167zM756 665.5q0 90.5 -56 139t-162 48.5t-176 -59t-70 -149t57 -137.5t165.5 -48.5t175 57.5t66.5 149zM892 680q0 -149 -109 -241.5t-288 -92.5q-104 0 -178 34
q-39 -30 -39.5 -70t53 -61.5t218 -40t243.5 -70.5t79 -157q0 -145 -127.5 -222t-352.5 -77q-382 0 -382 208q0 160 209 261q-78 41 -78 123t102 152q-89 74 -89 214.5t111.5 232t288.5 91.5h469l-15 -106h-197q82 -73 82 -178zM596 1069h-67l-175 253l67 58l158 -179
l209 179l50 -58z" />
    <glyph glyph-name="gcircumflex.ss01" horiz-adv-x="1016" 
d="M737 -43q0 63 -56.5 92t-179.5 43t-175 25q-184 -80 -185 -195q0 -132 276 -132q320 -1 320 167zM756 665.5q0 90.5 -56 139t-162 48.5t-176 -59t-70 -149t57 -137.5t165.5 -48.5t175 57.5t66.5 149zM892 680q0 -149 -109 -241.5t-288 -92.5q-104 0 -178 34
q-39 -30 -39.5 -70t53 -61.5t218 -40t243.5 -70.5t79 -157q0 -145 -127.5 -222t-352.5 -77q-382 0 -382 208q0 160 209 261q-78 41 -78 123t102 152q-89 74 -89 214.5t111.5 232t288.5 91.5h469l-15 -106h-197q82 -73 82 -178zM586 1247l-210 -178l-54 59l246 252h67
l175 -252l-69 -59z" />
    <glyph glyph-name="gcommaaccent.ss01" horiz-adv-x="1016" 
d="M737 -43q0 63 -56.5 92t-179.5 43t-175 25q-184 -80 -185 -195q0 -132 276 -132q320 -1 320 167zM756 665.5q0 90.5 -56 139t-162 48.5t-176 -59t-70 -149t57 -137.5t165.5 -48.5t175 57.5t66.5 149zM892 680q0 -149 -109 -241.5t-288 -92.5q-104 0 -178 34
q-39 -30 -39.5 -70t53 -61.5t218 -40t243.5 -70.5t79 -157q0 -145 -127.5 -222t-352.5 -77q-382 0 -382 208q0 160 209 261q-78 41 -78 123t102 152q-89 74 -89 214.5t111.5 232t288.5 91.5h469l-15 -106h-197q82 -73 82 -178zM642 1071l-130 -12l-9 17q24 162 121 315h95
q-60 -132 -73 -286q-2 -23 -4 -34z" />
    <glyph glyph-name="gdotaccent.ss01" horiz-adv-x="1016" 
d="M737 -43q0 63 -56.5 92t-179.5 43t-175 25q-184 -80 -185 -195q0 -132 276 -132q320 -1 320 167zM756 665.5q0 90.5 -56 139t-162 48.5t-176 -59t-70 -149t57 -137.5t165.5 -48.5t175 57.5t66.5 149zM892 680q0 -149 -109 -241.5t-288 -92.5q-104 0 -178 34
q-39 -30 -39.5 -70t53 -61.5t218 -40t243.5 -70.5t79 -157q0 -145 -127.5 -222t-352.5 -77q-382 0 -382 208q0 160 209 261q-78 41 -78 123t102 152q-89 74 -89 214.5t111.5 232t288.5 91.5h469l-15 -106h-197q82 -73 82 -178zM583 1164q-39 0 -64.5 24t-25.5 66t29 69
t69 27t64.5 -24.5t24.5 -65.5t-29 -68.5t-68 -27.5z" />
    <glyph glyph-name="l.ss01" horiz-adv-x="450" 
d="M91 0l186 1326h142l-188 -1326h-140z" />
    <glyph glyph-name="lacute.ss01" horiz-adv-x="450" 
d="M91 0l186 1326h142l-188 -1326h-140zM210 1398l-35 80l317 203l78 -115l-8 -19z" />
    <glyph glyph-name="lcaron.ss01" horiz-adv-x="450" 
d="M91 0l186 1326h142l-188 -1326h-140zM484 938l71 395h108l13 -17l-103 -378h-89z" />
    <glyph glyph-name="lcommaaccent.ss01" horiz-adv-x="450" 
d="M0 -419q47 104 69 251q2 11 3.5 34.5t3.5 34.5l131 11l9 -16q-24 -162 -121 -315h-95zM91 0l186 1326h142l-188 -1326h-140z" />
    <glyph glyph-name="ldot.ss01" horiz-adv-x="560" 
d="M544 752q80 0 80 -76q0 -35 -26 -62.5t-67 -27.5q-80 0 -80 75q0 35 26.5 63t66.5 28zM91 0l186 1326h142l-188 -1326h-140z" />
    <glyph glyph-name="lslash.ss01" horiz-adv-x="541" 
d="M525 862l-19 -121l-145 -88l-93 -653h-140l79 560l-138 -83h-8l17 119l147 87l90 643h141l-78 -550l141 86h6z" />
    <glyph glyph-name="y.ss01" horiz-adv-x="934" 
d="M970 964l2 -5l-687 -1261h-145l-2 4l206 341l-234 916l2 5h147l171 -783l400 783h140z" />
    <glyph glyph-name="yacute.ss01" horiz-adv-x="934" 
d="M970 964l2 -5l-687 -1261h-145l-2 4l206 341l-234 916l2 5h147l171 -783l400 783h140zM767 1266l-298 -208l-56 81l254 246l102 -100z" />
    <glyph glyph-name="ycircumflex.ss01" horiz-adv-x="934" 
d="M970 964l2 -5l-687 -1261h-145l-2 4l206 341l-234 916l2 5h147l171 -783l400 783h140zM585 1240l-211 -179l-54 60l246 251h67l175 -251l-69 -60z" />
    <glyph glyph-name="ydieresis.ss01" horiz-adv-x="934" 
d="M970 964l2 -5l-687 -1261h-145l-2 4l206 341l-234 916l2 5h147l171 -783l400 783h140zM746 1158q-38 0 -62.5 23.5t-24.5 64.5t29 67t67 26t61.5 -23.5t23.5 -63.5t-28 -67t-66 -27zM401 1158q-38 0 -62 23.5t-24 64.5t28 67t67 26t62 -23.5t23 -63.5t-28 -67t-66 -27z
" />
    <glyph glyph-name="ygrave.ss01" horiz-adv-x="934" 
d="M970 964l2 -5l-687 -1261h-145l-2 4l206 341l-234 916l2 5h147l171 -783l400 783h140zM681 1065l-309 192l-1 18l96 106l267 -232z" />
    <glyph glyph-name="uni1EF9.ss01" horiz-adv-x="934" 
d="M970 964l2 -5l-687 -1261h-145l-2 4l206 341l-234 916l2 5h147l171 -783l400 783h140zM446.5 1324q59.5 0 131.5 -36.5t109 -36.5q73 0 84 80l5 4l95 -21q-13 -88 -63 -133t-109.5 -45t-133 37t-107.5 37t-56 -22.5t-28 -59.5l-5 -2l-88 21q11 76 58.5 126.5t107 50.5z
" />
    <glyph glyph-name="g.ss02" horiz-adv-x="932" 
d="M494.5 866q-101.5 0 -173.5 -60q-72 -58 -72 -150q0 -182 213 -183q117 0 182 56.5t65 149t-56.5 140t-158 47.5zM257 301.5q0 -40.5 54 -57.5t208 -32q279 -24 280 -214q0 -317 -473 -316q-223 0 -356 69l17 124l6 2q156 -74 348 -74q317 0 316 165q0 58 -50 85t-199 39
t-217 46.5t-68 122t95 154.5q-106 73 -106 225.5t116 248.5t290 96q95 0 176 -39l164 179l86 -95l-171 -140q76 -80 76 -188q0 -162 -111 -254t-293 -92q-76 -1 -134 16q-54 -30 -54 -70.5z" />
    <glyph glyph-name="gbreve.ss02" horiz-adv-x="932" 
d="M494.5 866q-101.5 0 -173.5 -60q-72 -58 -72 -150q0 -182 213 -183q117 0 182 56.5t65 149t-56.5 140t-158 47.5zM257 301.5q0 -40.5 54 -57.5t208 -32q279 -24 280 -214q0 -317 -473 -316q-223 0 -356 69l17 124l6 2q156 -74 348 -74q317 0 316 165q0 58 -50 85t-199 39
t-217 46.5t-68 122t95 154.5q-106 73 -106 225.5t116 248.5t290 96q95 0 176 -39l164 179l86 -95l-171 -140q76 -80 76 -188q0 -162 -111 -254t-293 -92q-76 -1 -134 16q-54 -30 -54 -70.5zM519 1085q-105 0 -167 70t-45 189l95 11l4 -3q-7 -73 26 -116t97.5 -43t110 43
t60.5 114l6 5l87 -11q-17 -121 -93 -190t-181 -69z" />
    <glyph glyph-name="gcaron.ss02" horiz-adv-x="932" 
d="M494.5 866q-101.5 0 -173.5 -60q-72 -58 -72 -150q0 -182 213 -183q117 0 182 56.5t65 149t-56.5 140t-158 47.5zM257 301.5q0 -40.5 54 -57.5t208 -32q279 -24 280 -214q0 -317 -473 -316q-223 0 -356 69l17 124l6 2q156 -74 348 -74q317 0 316 165q0 58 -50 85t-199 39
t-217 46.5t-68 122t95 154.5q-106 73 -106 225.5t116 248.5t290 96q95 0 176 -39l164 179l86 -95l-171 -140q76 -80 76 -188q0 -162 -111 -254t-293 -92q-76 -1 -134 16q-54 -30 -54 -70.5zM547 1069h-67l-175 253l67 58l159 -179l208 179l50 -58z" />
    <glyph glyph-name="gcircumflex.ss02" horiz-adv-x="932" 
d="M494.5 866q-101.5 0 -173.5 -60q-72 -58 -72 -150q0 -182 213 -183q117 0 182 56.5t65 149t-56.5 140t-158 47.5zM257 301.5q0 -40.5 54 -57.5t208 -32q279 -24 280 -214q0 -317 -473 -316q-223 0 -356 69l17 124l6 2q156 -74 348 -74q317 0 316 165q0 58 -50 85t-199 39
t-217 46.5t-68 122t95 154.5q-106 73 -106 225.5t116 248.5t290 96q95 0 176 -39l164 179l86 -95l-171 -140q76 -80 76 -188q0 -162 -111 -254t-293 -92q-76 -1 -134 16q-54 -30 -54 -70.5zM538 1247l-210 -178l-54 59l245 252h67l175 -252l-68 -59z" />
    <glyph glyph-name="gcommaaccent.ss02" horiz-adv-x="932" 
d="M709 683q1 183 -211 183q-104 0 -176 -60q-72 -62 -73 -152q0 -182 213 -181q103 0 175 59.5t72 150.5zM257 296q0 -41 50 -54t200 -26t221 -63.5t71 -152.5q0 -160 -123 -239t-348 -79t-358 69l17 124l7 2q155 -74 347 -74q317 0 316 167q0 58 -49 86t-199 40t-218 46.5
t-68 120t95 152.5q-106 74 -106 225t116 248t295 97q104 0 175 -35l160 175l86 -95l-166 -136q71 -74 71 -187q0 -160 -118 -255.5t-297 -95.5q-67 -1 -123 16q-54 -35 -54 -76zM586 1071l-128 -12l-9 17q19 164 119 315h93q-46 -105 -70 -286q-3 -23 -5 -34z" />
    <glyph glyph-name="gdotaccent.ss02" horiz-adv-x="932" 
d="M494.5 866q-101.5 0 -173.5 -60q-72 -58 -72 -150q0 -182 213 -183q117 0 182 56.5t65 149t-56.5 140t-158 47.5zM257 301.5q0 -40.5 54 -57.5t208 -32q279 -24 280 -214q0 -317 -473 -316q-223 0 -356 69l17 124l6 2q156 -74 348 -74q317 0 316 165q0 58 -50 85t-199 39
t-217 46.5t-68 122t95 154.5q-106 73 -106 225.5t116 248.5t290 96q95 0 176 -39l164 179l86 -95l-171 -140q76 -80 76 -188q0 -162 -111 -254t-293 -92q-76 -1 -134 16q-54 -30 -54 -70.5zM534 1164q-39 0 -64 24t-25 66t29 69t69 27t64 -24.5t24 -65.5t-29 -68.5
t-68 -27.5z" />
    <glyph glyph-name="f_t" horiz-adv-x="1197" 
d="M845 249q0 -60 42 -97t113.5 -37t131.5 30l4 -2l-17 -119q-65 -34 -168.5 -33.5t-176 62t-72.5 163.5q0 41 5 80l79 555h-399l-162 -1158h-141l162 1158h-125l17 113h125l1 17q26 181 118.5 267.5t224.5 86.5q80 0 130 -21l-16 -122h-4q-43 19 -101 18q-179 0 -208 -214
l-4 -32h398l32 228l136 26l6 -2l-36 -252h294l-16 -113h-295l-74 -536q-4 -37 -4 -66z" />
    <glyph glyph-name="f_y" horiz-adv-x="1474" 
d="M614 -315q-61 0 -106 17l19 114l5 2q50 -15 99 -15q130 0 252 225l7 15l-231 808h-272l-162 -1158h-141l162 1158h-125l17 113h125l1 17q26 181 118.5 267.5t224.5 86.5q80 0 130 -21l-16 -122h-4q-43 19 -101 18q-179 0 -208 -214l-4 -32h378l195 -765l388 765h141l2 -5
l-473 -890l-30 -60q-93 -175 -179.5 -249.5t-211.5 -74.5z" />
    <glyph glyph-name="t_t" horiz-adv-x="1269" 
d="M776 216q0 28 4 80l80 555h-456l-74 -536q-4 -37 -4 -66q0 -61 42 -97t112 -36t133 29l3 -2l-18 -119q-60 -34 -166 -34t-178 62q-72 60 -72 164q0 28 4 80l80 555h-193l16 113h192l34 228l137 26l2 -4l-35 -250h456l34 228l137 26l2 -4l-35 -250h294l-17 -113h-292
l-75 -536q-4 -37 -3 -66q0 -61 42 -97t112 -36t132 29l4 -2l-18 -119q-60 -34 -166 -34t-178 62q-72 61 -72 164z" />
    <glyph glyph-name="L_periodcentered_L.loclCAT" horiz-adv-x="1744" 
d="M719 773q78 -1 78 -77q0 -36 -25 -61q-25 -26 -66 -26q-82 -1 -80 73q0 34 26 63q26 28 67 28zM1139 117h527l-16 -117h-663l173 1236h138zM424 1236l-156 -1119h527l-17 -117h-664l173 1236h137z" />
    <glyph glyph-name="l_periodcentered_l.loclCAT" horiz-adv-x="1081" 
d="M548 752q79 0 79 -76q0 -35 -26.5 -63t-65.5 -28t-60 20.5t-21 54.5t27 63t67 29zM877 -17q-209 0 -179 218l160 1125h136l-152 -1084q-17 -132 73 -132q44 0 79 22l4 -2l-17 -123q-54 -24 -104 -24zM289 -17q-212 0 -179 218l160 1125h138l-153 -1084q-9 -71 8.5 -101.5
t62 -30.5t80.5 22l4 -2l-17 -123q-54 -24 -104 -24z" />
    <glyph glyph-name="l_periodcentered_l.loclCAT.ss01" horiz-adv-x="1050" 
d="M561 747q78 1 78 -75q0 -34 -26 -61.5t-66 -27.5q-80 0 -80 74q0 35 27 62.5t67 27.5zM691 0l186 1326h141l-188 -1326h-139zM91 0l186 1326h142l-188 -1326h-140z" />
    <glyph glyph-name="germandbls.smcp.calt" horiz-adv-x="1191" 
d="M720 -24q-161 0 -266 56l15 124l2 2q102 -69 226 -69t182.5 57t58.5 144q0 164 -266 164q-28 0 -72 -3v35l269 361q-67 24 -160 24q-162 0 -274.5 -86.5t-138.5 -283.5l-67 -501h-141l68 510q42 316 289 432q130 60 310 60t308 -73v-15l-266 -352q97 -4 181 -49
q102 -55 102 -201t-99.5 -241t-260.5 -95z" />
    <glyph glyph-name="a.smcp" horiz-adv-x="1061" 
d="M305 363h404l-136 499zM817 0l-74 251h-499l-138 -251h-138l553 987h142l303 -987h-149z" />
    <glyph glyph-name="aacute.smcp" horiz-adv-x="1061" 
d="M305 363h404l-136 499zM817 0l-74 251h-499l-138 -251h-138l553 987h142l303 -987h-149zM802 1288l-297 -208l-56 82l253 246l102 -101z" />
    <glyph glyph-name="abreve.smcp" horiz-adv-x="1061" 
d="M305 363h404l-136 499zM817 0l-74 251h-499l-138 -251h-138l553 987h142l303 -987h-149zM601 1100q-105 0 -167 70t-45 189l95 11l4 -3q-7 -73 26 -116t97.5 -43t110 43t60.5 114l6 5l87 -11q-17 -121 -93 -190t-181 -69z" />
    <glyph glyph-name="acircumflex.smcp" horiz-adv-x="1061" 
d="M305 363h404l-136 499zM817 0l-74 251h-499l-138 -251h-138l553 987h142l303 -987h-149zM620 1262l-210 -178l-54 59l245 252h67l175 -252l-68 -59z" />
    <glyph glyph-name="adieresis.smcp" horiz-adv-x="1061" 
d="M305 363h404l-136 499zM817 0l-74 251h-499l-138 -251h-138l553 987h142l303 -987h-149zM781 1180q-38 0 -62.5 23.5t-24.5 64.5t29 67t67 26t61.5 -23.5t23.5 -63.5t-28 -67t-66 -27zM437 1180q-38 0 -62.5 23.5t-24.5 64.5t28 67t67 26t62.5 -23.5t23.5 -63.5t-28 -67
t-66 -27z" />
    <glyph glyph-name="uni1EA1.smcp" horiz-adv-x="1061" 
d="M426 -147q39 0 63.5 -24t24.5 -65.5t-29 -69t-68 -27.5t-64 24t-25 66t29.5 69t68.5 27zM305 363h404l-136 499zM966 0h-149l-74 251h-499l-138 -251h-138l553 987h142z" />
    <glyph glyph-name="agrave.smcp" horiz-adv-x="1061" 
d="M305 363h404l-136 499zM817 0l-74 251h-499l-138 -251h-138l553 987h142l303 -987h-149zM717 1087l-309 192l-2 19l97 106l266 -233z" />
    <glyph glyph-name="amacron.smcp" horiz-adv-x="1061" 
d="M305 363h404l-136 499zM817 0l-74 251h-499l-138 -251h-138l553 987h142l303 -987h-149zM879 1288l-15 -106h-518l15 106h518z" />
    <glyph glyph-name="aogonek.smcp" horiz-adv-x="1061" 
d="M305 363h404l-136 499zM838 -318q34 0 54 7l4 -4l-12 -91q-48 -13 -111 -13t-108 34.5t-45 97.5q0 160 214 287h-17l-74 251h-499l-138 -251h-138l553 987h142l303 -987h-22q-186 -128 -186 -248q0 -70 80 -70z" />
    <glyph glyph-name="aring.smcp" horiz-adv-x="1061" 
d="M305 363h404l-136 499zM817 0l-74 251h-499l-138 -251h-138l553 987h142l303 -987h-149zM609 1339q-39 0 -66 -29t-27 -72t23 -65t63 -22t66 27.5t26 70.5t-23 66.5t-62 23.5zM598.5 1072q-75.5 0 -120 44t-44.5 118.5t52 127.5t126.5 53t119 -43t44.5 -118.5t-51 -128.5
t-126.5 -53z" />
    <glyph glyph-name="aringacute.smcp" horiz-adv-x="1061" 
d="M709 363l-136 499l-268 -499h404zM521 987h142l303 -987h-149l-74 251h-499l-138 -251h-138zM602 1151q40 0 66 27.5t26 70.5t-23 66.5t-62 23.5t-66 -29t-27 -72t23 -65t63 -22zM776 1260q0 -82 -51 -135t-126.5 -53t-120 44t-44.5 118.5t52 127.5t132 53q34 0 69 -13
l212 205l103 -101l-2 -18l-235 -164q11 -32 11 -64z" />
    <glyph glyph-name="atilde.smcp" horiz-adv-x="1061" 
d="M305 363h404l-136 499zM817 0l-74 251h-499l-138 -251h-138l553 987h142l303 -987h-149zM482.5 1346q59.5 0 131 -36.5t108.5 -36.5q73 0 84 81l6 3l95 -20q-13 -88 -63.5 -133.5t-110 -45.5t-133 37.5t-107 37.5t-55.5 -22.5t-28 -59.5l-6 -2l-87 20q11 76 58.5 126.5
t107 50.5z" />
    <glyph glyph-name="ae.smcp" horiz-adv-x="1305" 
d="M350 367h296l69 510h-2l-76 -110zM-58 0l715 987h652l-15 -116h-449l-41 -318h417l-13 -112h-419l-44 -329h467l-15 -112h-599l35 257h-359l-190 -257h-142z" />
    <glyph glyph-name="aeacute.smcp" horiz-adv-x="1305" 
d="M350 367h296l69 510h-2l-76 -110zM-58 0l715 987h652l-15 -116h-449l-41 -318h417l-13 -112h-419l-44 -329h467l-15 -112h-599l35 257h-359l-190 -257h-142zM732 1080l-56 82l253 246l102 -101l-1 -19z" />
    <glyph glyph-name="b.smcp" horiz-adv-x="940" 
d="M429.5 99q130.5 0 193 56.5t62.5 138.5t-52 126t-145 44h-194l-48 -363q53 -2 183.5 -2zM492 562q88 0 149 50.5t61 137.5q0 141 -212 142q-91 0 -138 -6l-43 -324h183zM398.5 -4q-206.5 0 -301.5 4l132 983q121 13 266 13q337 0 337 -218q0 -188 -179 -253
q78 -20 123 -76t45 -136q0 -149 -108 -233t-314.5 -84z" />
    <glyph glyph-name="c.smcp" horiz-adv-x="942" 
d="M531 -22q-205 0 -325 121t-120 320q0 266 162 428t413 162q155 0 272 -48l-17 -123l-6 -2q-110 52 -251 52q-184 0 -303.5 -124.5t-119.5 -324.5q0 -153 85 -246.5t229 -93.5t265 56l6 -2l-17 -121q-117 -54 -273 -54z" />
    <glyph glyph-name="cacute.smcp" horiz-adv-x="942" 
d="M531 -22q-205 0 -325 121t-120 320q0 266 162 428t413 162q155 0 272 -48l-17 -123l-6 -2q-110 52 -251 52q-184 0 -303.5 -124.5t-119.5 -324.5q0 -153 85 -246.5t229 -93.5t265 56l6 -2l-17 -121q-117 -54 -273 -54zM547 1082l-55 82l253 245l102 -100l-2 -19z" />
    <glyph glyph-name="ccaron.smcp" horiz-adv-x="942" 
d="M531 -22q-205 0 -325 121t-120 320q0 266 162 428t413 162q155 0 272 -48l-17 -123l-6 -2q-110 52 -251 52q-184 0 -303.5 -124.5t-119.5 -324.5q0 -153 85 -246.5t229 -93.5t265 56l6 -2l-17 -121q-117 -54 -273 -54zM605 1085l-175 254l67 57l158 -178l209 178l50 -57
l-242 -254h-67z" />
    <glyph glyph-name="ccedilla.smcp" horiz-adv-x="942" 
d="M661 1009q155 0 272 -48l-17 -123l-6 -2q-110 52 -251 52q-184 0 -303.5 -124.5t-119.5 -324.5q0 -153 85 -246.5t229.5 -93.5t264.5 56l6 -2l-17 -121q-108 -48 -236 -54l-52 -75q22 6 64 6t78 -33.5t36 -102.5q0 -102 -70.5 -152.5t-153.5 -50.5t-133 19l13 85l4 2
q35 -17 89 -17t90.5 25.5t36.5 66.5q0 78 -78 78q-41 0 -90 -15l-2 2l10 70l67 94q-182 17 -286.5 135t-104.5 304q0 266 162 428t413 162z" />
    <glyph glyph-name="ccircumflex.smcp" horiz-adv-x="942" 
d="M531 -22q-205 0 -325 121t-120 320q0 266 162 428t413 162q155 0 272 -48l-17 -123l-6 -2q-110 52 -251 52q-184 0 -303.5 -124.5t-119.5 -324.5q0 -153 85 -246.5t229 -93.5t265 56l6 -2l-17 -121q-117 -54 -273 -54zM452 1085l-54 60l246 251h67l175 -251l-69 -60
l-154 179z" />
    <glyph glyph-name="cdotaccent.smcp" horiz-adv-x="942" 
d="M531 -22q-205 0 -325 121t-120 320q0 266 162 428t413 162q155 0 272 -48l-17 -123l-6 -2q-110 52 -251 52q-184 0 -303.5 -124.5t-119.5 -324.5q0 -153 85 -246.5t229 -93.5t265 56l6 -2l-17 -121q-117 -54 -273 -54zM659 1180q-39 0 -64 24.5t-25 66.5t28.5 69t68.5 27
t64.5 -24.5t24.5 -65.5t-29 -69t-68 -28z" />
    <glyph glyph-name="d.smcp" horiz-adv-x="1139" 
d="M436 114q233 0 356.5 118t123.5 327q0 151 -96 236.5t-280 85.5q-93 0 -186 -10l-106 -754q69 -3 188 -3zM547 998q251 0 380 -112.5t129 -310.5q0 -276 -167.5 -427.5t-471.5 -151.5q-240 0 -326 4l138 985q156 13 318 13z" />
    <glyph glyph-name="eth.smcp" horiz-adv-x="1139" 
d="M436 114q233 0 356.5 118t123.5 327q0 151 -96 236.5t-280 85.5q-93 0 -186 -10l-47 -329h186l-15 -104h-186l-44 -321q69 -3 188 -3zM547 998q251 0 380 -112.5t129 -310.5q0 -276 -167.5 -427.5t-471.5 -151.5q-240 0 -326 4l62 438h-160l14 104h161l61 443
q156 13 318 13z" />
    <glyph glyph-name="dcaron.smcp" horiz-adv-x="1139" 
d="M436 114q233 0 356.5 118t123.5 327q0 151 -96 236.5t-280 85.5q-93 0 -186 -10l-106 -754q69 -3 188 -3zM547 998q251 0 380 -112.5t129 -310.5q0 -276 -167.5 -427.5t-471.5 -151.5q-240 0 -326 4l138 985q156 13 318 13zM646 1085h-67l-175 254l67 57l158 -178
l209 178l50 -57z" />
    <glyph glyph-name="dcroat.smcp" horiz-adv-x="1139" 
d="M436 114q233 0 356.5 118t123.5 327q0 151 -96 236.5t-280 85.5q-93 0 -186 -10l-47 -329h186l-15 -104h-186l-44 -321q69 -3 188 -3zM547 998q251 0 380 -112.5t129 -310.5q0 -276 -167.5 -427.5t-471.5 -151.5q-240 0 -326 4l62 438h-160l14 104h161l61 443
q156 13 318 13z" />
    <glyph glyph-name="e.smcp" horiz-adv-x="891" 
d="M97 0l132 987h616l-16 -123h-475l-41 -300h447l-17 -121h-445l-45 -326h495l-14 -117h-637z" />
    <glyph glyph-name="eacute.smcp" horiz-adv-x="891" 
d="M97 0l132 987h616l-16 -123h-475l-41 -300h447l-17 -121h-445l-45 -326h495l-14 -117h-637zM477 1080l-56 82l253 246l102 -101l-1 -19z" />
    <glyph glyph-name="ebreve.smcp" horiz-adv-x="891" 
d="M97 0l132 987h616l-16 -123h-475l-41 -300h447l-17 -121h-445l-45 -326h495l-14 -117h-637zM573 1100q-105 0 -167 70t-45 189l95 11l4 -3q-7 -73 26 -116t97.5 -43t110 43t60.5 114l6 5l87 -11q-17 -121 -93 -190t-181 -69z" />
    <glyph glyph-name="ecaron.smcp" horiz-adv-x="891" 
d="M97 0l132 987h616l-16 -123h-475l-41 -300h447l-17 -121h-445l-45 -326h495l-14 -117h-637zM534 1084l-175 253l67 58l159 -179l208 179l50 -58l-242 -253h-67z" />
    <glyph glyph-name="ecircumflex.smcp" horiz-adv-x="891" 
d="M97 0l132 987h616l-16 -123h-475l-41 -300h447l-17 -121h-445l-45 -326h495l-14 -117h-637zM382 1084l-54 59l245 252h67l175 -252l-68 -59l-155 178z" />
    <glyph glyph-name="edieresis.smcp" horiz-adv-x="891" 
d="M97 0l132 987h616l-16 -123h-475l-41 -300h447l-17 -121h-445l-45 -326h495l-14 -117h-637zM753 1180q-38 0 -62 23.5t-24 64.5t28.5 67t66.5 26t61.5 -23.5t23.5 -63.5t-28 -67t-66 -27zM409 1180q-38 0 -62.5 23.5t-24.5 64.5t28 67t67 26t62.5 -23.5t23.5 -63.5
t-28 -67t-66 -27z" />
    <glyph glyph-name="edotaccent.smcp" horiz-adv-x="891" 
d="M97 0l132 987h616l-16 -123h-475l-41 -300h447l-17 -121h-445l-45 -326h495l-14 -117h-637zM588 1179q-39 0 -64 24t-25 66t29 69t69 27t64 -24.5t24 -65.5t-29 -68.5t-68 -27.5z" />
    <glyph glyph-name="uni1EB9.smcp" horiz-adv-x="891" 
d="M389 -333q-39 0 -64 24t-25 66t29.5 69t69 27t63.5 -24q24 -23 24 -65t-29 -69.5t-68 -27.5zM97 0l132 987h616l-16 -123h-475l-41 -300h447l-17 -121h-445l-45 -326h495l-14 -117h-637z" />
    <glyph glyph-name="egrave.smcp" horiz-adv-x="891" 
d="M97 0l132 987h616l-16 -123h-475l-41 -300h447l-17 -121h-445l-45 -326h495l-14 -117h-637zM689 1087l-309 192l-2 19l97 106l266 -233z" />
    <glyph glyph-name="emacron.smcp" horiz-adv-x="891" 
d="M97 0l132 987h616l-16 -123h-475l-41 -300h447l-17 -121h-445l-45 -326h495l-14 -117h-637zM318 1182l15 106h518l-15 -106h-518z" />
    <glyph glyph-name="eogonek.smcp" horiz-adv-x="891" 
d="M616 -324q34 0 54 7l4 -3l-11 -91q-48 -13 -111.5 -13t-108.5 34t-45 98q0 164 224 292h-525l132 987h616l-16 -123h-475l-41 -300h447l-17 -121h-445l-45 -326h495l-14 -117h-2q-195 -128 -196 -253q0 -71 80 -71z" />
    <glyph glyph-name="uni1EBD.smcp" horiz-adv-x="891" 
d="M97 0l132 987h616l-16 -123h-475l-41 -300h447l-17 -121h-445l-45 -326h495l-14 -117h-637zM454.5 1346q59.5 0 131 -36.5t108.5 -36.5q73 0 84 81l6 3l95 -20q-13 -88 -63.5 -133.5t-110 -45.5t-133 37.5t-107 37.5t-56 -22.5t-27.5 -59.5l-6 -2l-87 20
q11 76 58.5 126.5t107 50.5z" />
    <glyph glyph-name="uni0259.smcp" horiz-adv-x="1042" 
d="M468 104q124 0 210.5 76.5t118.5 219.5h-590v-18q0 -130 68.5 -204t192.5 -74zM519.5 1007q195.5 0 318.5 -116t123 -332q0 -272 -143.5 -426.5t-342.5 -154.5t-301.5 105t-102.5 276q0 61 13 153h728v39q0 158 -83 243t-217 85q-179 0 -331 -99l-6 2l19 132
q130 93 325.5 93z" />
    <glyph glyph-name="f.smcp" horiz-adv-x="856" 
d="M97 0l132 987h627l-16 -125h-486l-47 -344h432l-17 -123h-432l-52 -395h-141z" />
    <glyph glyph-name="g.smcp" horiz-adv-x="1074" 
d="M696 1011q186 0 308 -56l-17 -125l-6 -1q-132 60 -300 59q-207 0 -326 -124t-119 -326q0 -156 86 -246.5t230 -90.5t245 44l48 335h121l-61 -426q-171 -76 -371 -76t-324 117t-124 328q0 266 165.5 427t444.5 161z" />
    <glyph glyph-name="gbreve.smcp" horiz-adv-x="1074" 
d="M696 1011q186 0 308 -56l-17 -125l-6 -1q-132 60 -300 59q-207 0 -326 -124t-119 -326q0 -156 86 -246.5t230 -90.5t245 44l48 335h121l-61 -426q-171 -76 -371.5 -76t-324 117t-123.5 328q0 266 165.5 427t444.5 161zM690 1102q-105 0 -166.5 70t-45.5 189l95 11l4 -4
q-7 -73 26.5 -115.5t97.5 -42.5t109.5 43t60.5 114l6 5l87 -11q-17 -121 -93 -190t-181 -69z" />
    <glyph glyph-name="gcaron.smcp" horiz-adv-x="1074" 
d="M696 1011q186 0 308 -56l-17 -125l-6 -1q-132 60 -300 59q-207 0 -326 -124t-119 -326q0 -156 86 -246.5t230 -90.5t245 44l48 335h121l-61 -426q-171 -76 -371 -76t-324 117t-124 328q0 266 165.5 427t444.5 161zM719 1085h-67l-175 254l67 57l158 -178l208 178l51 -57z
" />
    <glyph glyph-name="gcircumflex.smcp" horiz-adv-x="1074" 
d="M696 1011q186 0 308 -56l-17 -125l-6 -1q-132 60 -300 59q-207 0 -326 -124t-119 -326q0 -156 86 -246.5t230 -90.5t245 44l48 335h121l-61 -426q-171 -76 -371 -76t-324 117t-124 328q0 266 165.5 427t444.5 161zM709 1264l-210 -179l-54 60l246 251h67l175 -251
l-69 -60z" />
    <glyph glyph-name="gcommaaccent.smcp" horiz-adv-x="1074" 
d="M460 -99l130 11l10 -16q-24 -162 -122 -315h-94q59 129 72 285q2 24 4 35zM696 1011q186 0 308 -56l-17 -125l-6 -1q-132 60 -300 59q-207 0 -326 -124t-119 -326q0 -156 86 -246.5t230 -90.5t245 44l48 335h121l-61 -426q-171 -76 -371.5 -76t-324 117t-123.5 328
q0 266 165.5 427t444.5 161z" />
    <glyph glyph-name="gdotaccent.smcp" horiz-adv-x="1074" 
d="M696 1011q186 0 308 -56l-17 -125l-6 -1q-132 60 -300 59q-207 0 -326 -124t-119 -326q0 -156 86 -246.5t230 -90.5t245 44l48 335h121l-61 -426q-171 -76 -371 -76t-324 117t-124 328q0 266 165.5 427t444.5 161zM706 1180q-39 0 -64.5 24.5t-25.5 66.5t29 69t69 27
t64 -24.5t24 -65.5t-28.5 -69t-67.5 -28z" />
    <glyph glyph-name="h.smcp" horiz-adv-x="1161" 
d="M935 987h141l-140 -987h-139l61 439h-566l-61 -439h-140l138 987h140l-60 -421h566z" />
    <glyph glyph-name="hbar.smcp" horiz-adv-x="1161" 
d="M875 566l21 143h-566l-21 -143h566zM1171 817l-15 -108h-119l-101 -709h-139l61 439h-566l-61 -439h-140l99 709h-121l17 108h119l24 170h140l-25 -170h566l25 170h141l-24 -170h119z" />
    <glyph glyph-name="hcircumflex.smcp" horiz-adv-x="1161" 
d="M935 987h141l-140 -987h-139l61 439h-566l-61 -439h-140l138 987h140l-60 -421h566zM694 1264l-210 -179l-54 60l246 251h67l175 -251l-69 -60z" />
    <glyph glyph-name="i.smcp" horiz-adv-x="458" 
d="M91 0l138 987h140l-138 -987h-140z" />
    <glyph glyph-name="dotlessi.smcp" horiz-adv-x="458" 
d="M91 0l138 987h140l-138 -987h-140z" />
    <glyph glyph-name="iacute.smcp" horiz-adv-x="458" 
d="M91 0l138 987h140l-138 -987h-140zM227 1082l-56 82l253 245l103 -100l-2 -19z" />
    <glyph glyph-name="ibreve.smcp" horiz-adv-x="458" 
d="M91 0l138 987h140l-138 -987h-140zM316 1106q-105 0 -166.5 70t-45.5 189l95 11l4 -4q-7 -73 26.5 -115.5t97.5 -42.5t109.5 43t60.5 113l6 6l87 -11q-17 -121 -93 -190t-181 -69z" />
    <glyph glyph-name="icircumflex.smcp" horiz-adv-x="458" 
d="M91 0l138 987h140l-138 -987h-140zM132 1085l-54 60l246 251h67l175 -251l-69 -60l-154 179z" />
    <glyph glyph-name="idieresis.smcp" horiz-adv-x="458" 
d="M91 0l138 987h140l-138 -987h-140zM504 1182q-38 0 -62.5 23.5t-24.5 64.5t29 67t67 26t61.5 -23.5t23.5 -63.5t-28 -67t-66 -27zM159 1182q-38 0 -62 23.5t-24 64.5t27.5 67t67 26t62.5 -23.5t23 -63.5t-28 -67t-66 -27z" />
    <glyph glyph-name="i.loclTRK.smcp" horiz-adv-x="458" 
d="M91 0l138 987h140l-138 -987h-140zM339 1180q-39 0 -64.5 24.5t-25.5 66.5t29 69t69 27t64.5 -24.5t24.5 -65.5t-29 -69t-68 -28z" />
    <glyph glyph-name="uni1ECB.smcp" horiz-adv-x="458" 
d="M113.5 -333q-39.5 0 -64.5 24t-25 66t30 69t69 27t63 -24q24 -23 24 -65t-28.5 -69.5t-68 -27.5zM91 0l138 987h140l-138 -987h-140z" />
    <glyph glyph-name="igrave.smcp" horiz-adv-x="458" 
d="M91 0l138 987h140l-138 -987h-140zM432 1093l-309 192l-2 18l97 106l266 -232z" />
    <glyph glyph-name="ij.smcp" horiz-adv-x="1029" 
d="M512 -20q-43 0 -86 7l19 121l6 2q61 -6 65 -6q175 0 210 240l89 643h138l-93 -672q-45 -335 -348 -335zM91 0l138 987h140l-138 -987h-140z" />
    <glyph glyph-name="imacron.smcp" horiz-adv-x="456" 
d="M89 0l140 987h140l-138 -987h-142zM108 1180l17 107h452l-15 -107h-454z" />
    <glyph glyph-name="iogonek.smcp" horiz-adv-x="458" 
d="M28 -246q0 -71 80 -71q34 0 54 8l4 -4l-11 -91q-48 -13 -111.5 -13t-108.5 34.5t-45 97.5q0 158 211 285h-10l138 987h140l-138 -987h-19q-184 -123 -184 -246z" />
    <glyph glyph-name="itilde.smcp" horiz-adv-x="456" 
d="M91 0l138 987h140l-138 -987h-140zM235 1346q50 0 101 -37t87 -37t52.5 19.5t21.5 63.5l6 4l74 -20q-11 -80 -51 -127t-93 -47t-109 37.5t-89 37.5q-63 0 -79 -86l-1 -2l-77 21q28 173 157 173z" />
    <glyph glyph-name="j.smcp" horiz-adv-x="571" 
d="M54 -20q-43 0 -86 7l19 121l6 2q61 -6 65 -6q175 0 210 240l89 643h138l-93 -672q-45 -335 -348 -335z" />
    <glyph glyph-name="jacute.smcp" horiz-adv-x="571" 
d="M54 -20q-43 0 -86 7l19 121l6 2q61 -6 65 -6q175 0 210 240l89 643h138l-93 -672q-45 -335 -348 -335zM344 1080l-55 82l253 246l102 -101l-2 -19z" />
    <glyph glyph-name="jcircumflex.smcp" horiz-adv-x="571" 
d="M54 -20q-43 0 -86 7l19 121l6 2q61 -6 65 -6q175 0 210 240l89 643h138l-93 -672q-45 -335 -348 -335zM249 1084l-54 59l246 252h67l175 -252l-69 -59l-154 178z" />
    <glyph glyph-name="k.smcp" horiz-adv-x="930" 
d="M964 981l-512 -482l391 -493l-1 -6h-162l-382 478l-67 -478h-140l138 987h142l-66 -464l503 464h155z" />
    <glyph glyph-name="kcommaaccent.smcp" horiz-adv-x="930" 
d="M350 -99l130 11l10 -16q-24 -162 -121 -315h-95q47 104 69 251q2 11 3.5 34.5t3.5 34.5zM964 981l-512 -482l391 -493l-1 -6h-162l-382 478l-67 -478h-140l138 987h142l-66 -464l503 464h155z" />
    <glyph glyph-name="kgreenlandic.smcp" horiz-adv-x="930" 
d="M964 981l-512 -482l391 -493l-1 -6h-162l-382 478l-67 -478h-140l138 987h142l-66 -464l503 464h155z" />
    <glyph glyph-name="l.smcp" horiz-adv-x="787" 
d="M249 123h453l-19 -123h-592l142 987h141z" />
    <glyph glyph-name="lacute.smcp" horiz-adv-x="787" 
d="M249 123h453l-19 -123h-592l142 987h141zM527 1288l-298 -208l-56 82l253 246l103 -101z" />
    <glyph glyph-name="lcaron.smcp" horiz-adv-x="787" 
d="M249 123h453l-19 -123h-592l142 987h141zM354 1084h-67l-175 253l67 58l158 -179l209 179l50 -58z" />
    <glyph glyph-name="lcommaaccent.smcp" horiz-adv-x="787" 
d="M313 -102l130 11l9 -17q-24 -162 -121 -315h-95q60 133 73 287q2 24 4 34zM249 123h453l-19 -123h-592l142 987h141z" />
    <glyph glyph-name="ldot.smcp" horiz-adv-x="822" 
d="M553 548q0 42 29 66q29 26 67 26t61 -23q24 -23 24 -64t-28 -67t-66 -26t-63 23q-24 23 -24 65zM371 987l-122 -864h453l-19 -123h-592l138 987h142z" />
    <glyph glyph-name="l_periodcentered_l.loclCAT.smcp" horiz-adv-x="1589" 
d="M649 640q38 0 61.5 -23t23.5 -64t-28 -67t-66 -26t-62.5 23t-24.5 64.5t29 67t67 25.5zM1052 123h452l-18 -123h-592l141 987h142zM371 987l-122 -864h453l-19 -123h-592l138 987h142z" />
    <glyph glyph-name="lslash.smcp" horiz-adv-x="787" 
d="M249 123h453l-19 -123h-592l58 397l-127 -75h-7l17 119l134 80l67 466h141l-54 -374l153 91h5l-16 -119l-160 -95z" />
    <glyph glyph-name="m.smcp" horiz-adv-x="1362" 
d="M48 0l241 987h83l278 -747l456 747h91l-9 -987h-132l9 691h-4l-421 -674h-46l-246 690h-4l-167 -707h-129z" />
    <glyph glyph-name="n.smcp" horiz-adv-x="1195" 
d="M97 0l132 985h78l557 -736l99 738h134l-133 -987h-74l-560 741l-97 -741h-136z" />
    <glyph glyph-name="nacute.smcp" horiz-adv-x="1195" 
d="M97 0l132 985h78l557 -736l99 738h134l-133 -987h-74l-560 741l-97 -741h-136zM579 1080l-56 82l253 246l103 -101l-2 -19z" />
    <glyph glyph-name="napostrophe.smcp" horiz-adv-x="1305" 
d="M207 0l132 985h78l557 -736l98 738h134l-132 -987h-74l-561 741l-96 -741h-136zM93 888q76 259 76 391l118 19l16 -23q-24 -151 -126 -387h-84z" />
    <glyph glyph-name="ncaron.smcp" horiz-adv-x="1195" 
d="M97 0l132 985h78l557 -736l99 738h134l-133 -987h-74l-560 741l-97 -741h-136zM637 1084l-175 253l67 58l158 -179l209 179l50 -58l-242 -253h-67z" />
    <glyph glyph-name="ncommaaccent.smcp" horiz-adv-x="1195" 
d="M384 -417q59 129 72 285q2 24 4 35l130 11l10 -16q-24 -162 -122 -315h-94zM97 0l132 985h78l557 -736l99 738h134l-133 -987h-74l-560 741l-97 -741h-136z" />
    <glyph glyph-name="eng.smcp" horiz-adv-x="1197" 
d="M1098 987l-141 -1056q-43 -320 -363 -320l15 117q186 6 216 225l15 114l-510 674l-97 -741h-136l134 985h78l555 -736l100 738h134z" />
    <glyph glyph-name="uni0272.smcp" horiz-adv-x="1195" 
d="M963 987h134l-133 -987h-74l-560 741l-97 -741l-10 -69q-20 -168 -118 -244t-245 -76l13 117q188 6 218 227l138 1030h78l557 -736z" />
    <glyph glyph-name="ntilde.smcp" horiz-adv-x="1195" 
d="M97 0l132 985h78l557 -736l99 738h134l-133 -987h-74l-560 741l-97 -741h-136zM556.5 1346q59.5 0 131.5 -36.5t109 -36.5q73 0 84 81l5 3l95 -20q-13 -88 -63 -133.5t-109.5 -45.5t-133.5 37.5t-107.5 37.5t-55.5 -22.5t-28 -59.5l-6 -2l-87 20q11 76 58.5 126.5
t107 50.5z" />
    <glyph glyph-name="o.smcp" horiz-adv-x="1178" 
d="M576 104q161 0 264.5 124t103.5 295t-89.5 264.5t-250.5 93.5t-264.5 -124t-103.5 -295t89.5 -264.5t250.5 -93.5zM570 -22q-220 0 -351 123.5t-131 354t152.5 391t371.5 160.5t350 -122t131 -332q0 -249 -151.5 -412t-371.5 -163z" />
    <glyph glyph-name="oacute.smcp" horiz-adv-x="1178" 
d="M576 104q161 0 264.5 124t103.5 295t-89.5 264.5t-250.5 93.5t-264.5 -124t-103.5 -295t89.5 -264.5t250.5 -93.5zM570 -22q-220 0 -351 123.5t-131 354t152.5 391t371.5 160.5t350 -122t131 -332q0 -249 -151.5 -412t-371.5 -163zM562 1080l-56 82l254 246l102 -101
l-2 -19z" />
    <glyph glyph-name="obreve.smcp" horiz-adv-x="1178" 
d="M576 104q161 0 264.5 124t103.5 295t-89.5 264.5t-250.5 93.5t-264.5 -124t-103.5 -295t89.5 -264.5t250.5 -93.5zM570 -22q-220 0 -351 123.5t-131 354t152.5 391t371.5 160.5t350 -122t131 -332q0 -249 -151.5 -412t-371.5 -163zM658 1100q-105 0 -166.5 70t-44.5 189
l95 11l4 -3q-7 -73 26 -116t97 -43t110 43t61 114l5 5l88 -11q-17 -121 -93.5 -190t-181.5 -69z" />
    <glyph glyph-name="ocircumflex.smcp" horiz-adv-x="1178" 
d="M576 104q161 0 264.5 124t103.5 295t-89.5 264.5t-250.5 93.5t-264.5 -124t-103.5 -295t89.5 -264.5t250.5 -93.5zM570 -22q-220 0 -351 123.5t-131 354t152.5 391t371.5 160.5t350 -122t131 -332q0 -249 -151.5 -412t-371.5 -163zM467 1084l-54 59l246 252h67l175 -252
l-69 -59l-154 178z" />
    <glyph glyph-name="odieresis.smcp" horiz-adv-x="1178" 
d="M576 104q161 0 264.5 124t103.5 295t-89.5 264.5t-250.5 93.5t-264.5 -124t-103.5 -295t89.5 -264.5t250.5 -93.5zM570 -22q-220 0 -351 123.5t-131 354t152.5 391t371.5 160.5t350 -122t131 -332q0 -249 -151.5 -412t-371.5 -163zM839 1180q-38 0 -62.5 23.5t-24.5 64.5
t29 67t67 26t61.5 -23.5t23.5 -63.5t-28 -67t-66 -27zM494 1180q-38 0 -62 23.5t-24 64.5t28 67t67 26t62 -23.5t23 -63.5t-28 -67t-66 -27z" />
    <glyph glyph-name="uni1ECD.smcp" horiz-adv-x="1178" 
d="M488 -331q-39 0 -64.5 24t-25.5 66t30 69t69 27t63.5 -24.5t24.5 -65.5t-29 -68.5t-68 -27.5zM576 104q161 0 264.5 124t103.5 295t-89.5 264.5t-250.5 93.5t-264.5 -124t-103.5 -295t89.5 -264.5t250.5 -93.5zM570 -22q-220 0 -351 123.5t-131 354t152.5 391
t371.5 160.5t350 -122t131 -332q0 -249 -151.5 -412t-371.5 -163z" />
    <glyph glyph-name="ograve.smcp" horiz-adv-x="1178" 
d="M576 104q161 0 264.5 124t103.5 295t-89.5 264.5t-250.5 93.5t-264.5 -124t-103.5 -295t89.5 -264.5t250.5 -93.5zM570 -22q-220 0 -351 123.5t-131 354t152.5 391t371.5 160.5t350 -122t131 -332q0 -249 -151.5 -412t-371.5 -163zM775 1087l-310 192l-1 19l96 106
l267 -233z" />
    <glyph glyph-name="ohungarumlaut.smcp" horiz-adv-x="1178" 
d="M576 104q161 0 264.5 124t103.5 295t-89.5 264.5t-250.5 93.5t-264.5 -124t-103.5 -295t89.5 -264.5t250.5 -93.5zM570 -22q-220 0 -351 123.5t-131 354t152.5 391t371.5 160.5t350 -122t131 -332q0 -249 -151.5 -412t-371.5 -163zM786 1078l-64 37l179 296l99 -37
l-2 -22zM492 1078l-66 37l179 296l101 -37l-2 -22z" />
    <glyph glyph-name="omacron.smcp" horiz-adv-x="1178" 
d="M576 104q161 0 264.5 124t103.5 295t-89.5 264.5t-250.5 93.5t-264.5 -124t-103.5 -295t89.5 -264.5t250.5 -93.5zM570 -22q-220 0 -351 123.5t-131 354t152.5 391t371.5 160.5t350 -122t131 -332q0 -249 -151.5 -412t-371.5 -163zM404 1182l15 106h517l-14 -106h-518z
" />
    <glyph glyph-name="uni01EB.smcp" horiz-adv-x="1178" 
d="M236 462q0 -171 89.5 -264.5t250.5 -93.5t264.5 124t103.5 295t-89.5 264.5t-250.5 93.5t-264.5 -124t-103.5 -295zM499 -251q0 -71 80 -71q34 0 54 7l4 -3l-11 -92q-48 -13 -111.5 -13t-108.5 34.5t-45 98.5q0 147 185 268q-201 4 -329.5 126.5t-128.5 352t152.5 390
t371.5 160.5t350 -122t131 -334t-114.5 -364.5t-300.5 -195.5q-179 -121 -179 -242z" />
    <glyph glyph-name="oslash.smcp" horiz-adv-x="1178" 
d="M564 104q173 0 276.5 124t103.5 296t-95 271l-432 -661q61 -30 147 -30zM236 458q0 -175 101 -272l428 665q-69 30 -149 30q-173 0 -276.5 -124t-103.5 -299zM1093 547.5q0 -243.5 -152 -406.5t-386 -163q-114 0 -212 41l-77 -118h-104v15l97 151q-171 127 -171 373
t152.5 406.5t385.5 160.5q115 0 214 -41l63 97h114v-11l-90 -138q166 -123 166 -366.5z" />
    <glyph glyph-name="oslashacute.smcp" horiz-adv-x="1178" 
d="M564 104q173 0 276.5 124t103.5 296t-95 271l-432 -661q61 -30 147 -30zM236 458q0 -175 101 -272l428 665q-69 30 -149 30q-173 0 -276.5 -124t-103.5 -299zM1093 547.5q0 -243.5 -152 -406.5t-386 -163q-114 0 -212 41l-77 -118h-104v15l97 151q-171 127 -171 373
t152.5 406.5t385.5 160.5q115 0 214 -41l63 97h114v-11l-90 -138q166 -123 166 -366.5zM909 1287l-298 -209l-56 82l253 246l102 -101z" />
    <glyph glyph-name="otilde.smcp" horiz-adv-x="1178" 
d="M576 104q161 0 264.5 124t103.5 295t-89.5 264.5t-250.5 93.5t-264.5 -124t-103.5 -295t89.5 -264.5t250.5 -93.5zM570 -22q-220 0 -351 123.5t-131 354t152.5 391t371.5 160.5t350 -122t131 -332q0 -249 -151.5 -412t-371.5 -163zM539.5 1346q59.5 0 131.5 -36.5
t109 -36.5q73 0 84 81l5 3l95 -20q-13 -88 -63 -133.5t-109.5 -45.5t-133 37.5t-107.5 37.5t-56 -22.5t-28 -59.5l-5 -2l-88 20q11 76 58.5 126.5t107 50.5z" />
    <glyph glyph-name="oe.smcp" horiz-adv-x="1448" 
d="M681 121q104 34 171.5 122t85.5 208h-210zM745 562h199q-11 199 -160 280zM236 464.5q0 -168.5 85 -261.5t225 -99l109 775q-13 2 -39 2q-173 0 -276.5 -124t-103.5 -292.5zM88 455.5q0 230.5 152.5 391t385.5 160.5q80 0 147 -18h635l-17 -116h-417q117 -119 119 -311
h225l-15 -111h-218q-32 -210 -176 -343h394l-16 -112h-587q-67 -19 -145 -18q-205 0 -336 123.5t-131 354z" />
    <glyph glyph-name="p.smcp" horiz-adv-x="893" 
d="M434 456q136 0 213 64.5t77 185.5q0 179 -214 178q-99 0 -154 -7l-60 -413q97 -8 138 -8zM858 726q0 -181 -115.5 -278.5t-312.5 -97.5q-52 0 -149 7l-50 -357h-140l138 985q149 13 294 11q335 -2 335 -270z" />
    <glyph glyph-name="thorn.smcp" horiz-adv-x="899" 
d="M393 281q296 0 296 248q0 84 -53 131q-52 47 -154 47t-154 -9l-56 -409q58 -8 121 -8zM475 821q346 0 346 -285q-1 -173 -115 -268t-311 -95q-73 0 -140 6l-24 -179h-140l138 987h140l-25 -172q57 6 131 6z" />
    <glyph glyph-name="q.smcp" horiz-adv-x="1180" 
d="M236 462q0 -171 89.5 -264.5t250.5 -93.5t264.5 124t103.5 295t-89.5 264.5t-250.5 93.5t-264.5 -124t-103.5 -295zM555 -22q-205 0 -336 123.5t-131 354t152.5 391t371.5 160.5t350 -122t131 -332q0 -162 -67 -292.5t-186 -204.5q61 -80 132.5 -125.5t179.5 -73.5
l-57 -108q-132 34 -218 92t-160 159q-76 -22 -162 -22z" />
    <glyph glyph-name="r.smcp" horiz-adv-x="960" 
d="M473 475q108 0 186 55.5t78 173.5q0 173 -227 173q-112 0 -158 -6l-54 -396h175zM528 994q156 0 252.5 -68t96.5 -205t-73.5 -219.5t-198.5 -112.5l196 -383l-2 -6h-144l-180 363h-192l-48 -363h-138l132 985q143 9 299 9z" />
    <glyph glyph-name="racute.smcp" horiz-adv-x="960" 
d="M473 475q108 0 186 55.5t78 173.5q0 173 -227 173q-112 0 -158 -6l-54 -396h175zM528 994q156 0 252.5 -68t96.5 -205t-73.5 -219.5t-198.5 -112.5l196 -383l-2 -6h-144l-180 363h-192l-48 -363h-138l132 985q143 9 299 9zM441 1078l-56 82l254 246l102 -101l-2 -18z" />
    <glyph glyph-name="rcaron.smcp" horiz-adv-x="960" 
d="M473 475q108 0 186 55.5t78 173.5q0 173 -227 173q-112 0 -158 -6l-54 -396h175zM528 994q156 0 252.5 -68t96.5 -205t-73.5 -219.5t-198.5 -112.5l196 -383l-2 -6h-144l-180 363h-192l-48 -363h-138l132 985q143 9 299 9zM499 1082l-175 253l67 58l158 -179l209 179
l50 -58l-242 -253h-67z" />
    <glyph glyph-name="rcommaaccent.smcp" horiz-adv-x="960" 
d="M240 -419q60 133 73 285q2 24 4 35l130 11l9 -16q-24 -162 -121 -315h-95zM473 475q108 0 186 55.5t78 173.5q0 173 -227 173q-112 0 -158 -6l-54 -396h175zM528 994q156 0 252.5 -68t96.5 -205t-73.5 -219.5t-198.5 -112.5l196 -383l-2 -6h-144l-180 363h-192l-48 -363
h-138l132 985q143 9 299 9z" />
    <glyph glyph-name="s.smcp" horiz-adv-x="832" 
d="M329 -24q-178 0 -294 71l19 137l6 2q110 -89 281 -89q112 0 174 44.5t62 122t-47.5 114.5t-160 82t-169.5 101.5t-57 155.5q0 134 104.5 212t260.5 78t259 -46l-17 -125l-3 -2q-99 52 -221 52t-184.5 -42t-62.5 -108t42 -95.5t94.5 -52t61.5 -26.5q114 -47 173 -107
t59 -159q0 -151 -101 -235.5t-279 -84.5z" />
    <glyph glyph-name="sacute.smcp" horiz-adv-x="832" 
d="M329 -24q-178 0 -294 71l19 137l6 2q110 -89 281 -89q112 0 174 44.5t62 122t-47.5 114.5t-160 82t-169.5 101.5t-57 155.5q0 134 104.5 212t260.5 78t259 -46l-17 -125l-3 -2q-99 52 -221 52t-184.5 -42t-62.5 -108t42 -95.5t94.5 -52t61.5 -26.5q114 -47 173 -107
t59 -159q0 -151 -101 -235.5t-279 -84.5zM423 1078l-56 82l253 246l102 -101l-1 -18z" />
    <glyph glyph-name="scaron.smcp" horiz-adv-x="832" 
d="M329 -24q-178 0 -294 71l19 137l6 2q110 -89 281 -89q112 0 174 44.5t62 122t-47.5 114.5t-160 82t-169.5 101.5t-57 155.5q0 134 104.5 212t260.5 78t259 -46l-17 -125l-3 -2q-99 52 -221 52t-184.5 -42t-62.5 -108t42 -95.5t94.5 -52t61.5 -26.5q114 -47 173 -107
t59 -159q0 -151 -101 -235.5t-279 -84.5zM480 1082l-175 253l67 58l159 -179l208 179l50 -58l-242 -253h-67z" />
    <glyph glyph-name="scedilla.smcp" horiz-adv-x="832" 
d="M508 1007q156 0 259 -46l-17 -125l-3 -2q-99 52 -221 52t-184.5 -42t-62.5 -108t42 -95.5t94.5 -52t61.5 -26.5q114 -47 173 -107t59 -159q0 -140 -86.5 -222.5t-231.5 -95.5l-52 -75q22 6 64 6t78.5 -33.5t36.5 -102.5q0 -102 -71 -152.5t-154 -50.5t-133 19l13 85l4 2
q35 -17 89 -17t90.5 25.5t36.5 66.5q0 78 -78 78q-41 0 -90 -15l-2 2l10 70l65 92q-166 7 -263 69l19 137l6 2q110 -89 281 -89q112 0 174 44.5t62 122t-47.5 114.5t-160 82t-169.5 101.5t-57 155.5q0 134 104.5 212t260.5 78z" />
    <glyph glyph-name="scircumflex.smcp" horiz-adv-x="832" 
d="M329 -24q-178 0 -294 71l19 137l6 2q110 -89 281 -89q112 0 174 44.5t62 122t-47.5 114.5t-160 82t-169.5 101.5t-57 155.5q0 134 104.5 212t260.5 78t259 -46l-17 -125l-3 -2q-99 52 -221 52t-184.5 -42t-62.5 -108t42 -95.5t94.5 -52t61.5 -26.5q114 -47 173 -107
t59 -159q0 -151 -101 -235.5t-279 -84.5zM328 1082l-54 59l245 252h67l175 -252l-68 -59l-155 178z" />
    <glyph glyph-name="scommaaccent.smcp" horiz-adv-x="832" 
d="M190 -419q47 104 69 251q2 11 3.5 34.5t3.5 34.5l131 11l9 -16q-24 -162 -121 -315h-95zM329 -24q-178 0 -294 71l19 137l6 2q110 -89 281 -89q112 0 174 44.5t62 122t-47.5 114.5t-160 82t-169.5 101.5t-57 155.5q0 134 104.5 212t260.5 78t259 -46l-17 -125l-3 -2
q-99 52 -221 52t-184.5 -42t-62.5 -108t42 -95.5t94.5 -52t61.5 -26.5q114 -47 173 -107t59 -159q0 -151 -101 -235.5t-279 -84.5z" />
    <glyph glyph-name="germandbls.smcp" horiz-adv-x="1191" 
d="M727.5 -24q-168.5 0 -273.5 56l15 124l6 2q101 -69 227.5 -69t181 56t54.5 145q0 164 -266 164q-28 0 -72 -3v35l269 363q-71 22 -160 22q-365 0 -413 -370l-67 -501h-141l68 510q63 492 587 492q88 0 176 -21.5t140 -55.5v-16l-262 -347q95 -4 181 -52q46 -26 74 -78
t28 -123q0 -149 -92 -241t-260.5 -92z" />
    <glyph glyph-name="t.smcp" horiz-adv-x="893" 
d="M925 987l-16 -127h-334l-121 -860h-141l121 860h-341l19 127h813z" />
    <glyph glyph-name="tbar.smcp" horiz-adv-x="893" 
d="M910 860h-333l-52 -365h173l-15 -104h-173l-56 -391h-141l56 391h-174l15 104h174l52 365h-341l17 127h815z" />
    <glyph glyph-name="tcaron.smcp" horiz-adv-x="893" 
d="M927 987l-17 -127h-333l-123 -860h-141l123 860h-341l17 127h815zM579 1084h-65l-177 253l69 58l162 -177l203 177l54 -58z" />
    <glyph glyph-name="uni0163.smcp" horiz-adv-x="893" 
d="M411 -91q58 0 96 -31t39 -98q0 -104 -73 -157t-155 -53t-128 19l11 85l4 2q35 -17 90 -17t90 28t36 78q0 63 -77 64q-43 0 -91 -15l-2 2l12 70l80 114h-30l123 860h-341l17 127h815l-17 -127h-333l-123 -860h-18l-69 -97q28 6 44 6z" />
    <glyph glyph-name="uni021B.smcp" horiz-adv-x="893" 
d="M233 -419q59 135 74 320l131 11l9 -16q-22 -162 -121 -315h-93zM927 987l-17 -127h-333l-123 -860h-141l123 860h-341l17 127h815z" />
    <glyph glyph-name="u.smcp" horiz-adv-x="1111" 
d="M506 -20q-185 0 -281.5 85.5t-96.5 245.5q0 39 6 84l84 592h141l-83 -579q-6 -35 -6 -71q0 -235 253 -235q121 0 200 79.5t100 226.5l82 579h136l-84 -592q-28 -197 -147 -306t-304 -109z" />
    <glyph glyph-name="uacute.smcp" horiz-adv-x="1111" 
d="M506 -20q-185 0 -281.5 85.5t-96.5 245.5q0 39 6 84l84 592h141l-83 -579q-6 -35 -6 -71q0 -235 253 -235q121 0 200 79.5t100 226.5l82 579h136l-84 -592q-28 -197 -147 -306t-304 -109zM555 1080l-56 82l253 246l103 -101l-2 -19z" />
    <glyph glyph-name="ubreve.smcp" horiz-adv-x="1111" 
d="M506 -20q-185 0 -281.5 85.5t-96.5 245.5q0 39 6 84l84 592h141l-83 -579q-6 -35 -6 -71q0 -235 253 -235q121 0 200 79.5t100 226.5l82 579h136l-84 -592q-28 -197 -147 -306t-304 -109zM651 1100q-105 0 -166.5 70t-45.5 189l95 11l4 -3q-7 -73 26.5 -116t97.5 -43
t109.5 43t60.5 114l6 5l87 -11q-17 -121 -93 -190t-181 -69z" />
    <glyph glyph-name="ucircumflex.smcp" horiz-adv-x="1111" 
d="M506 -20q-185 0 -281.5 85.5t-96.5 245.5q0 39 6 84l84 592h141l-83 -579q-6 -35 -6 -71q0 -235 253 -235q121 0 200 79.5t100 226.5l82 579h136l-84 -592q-28 -197 -147 -306t-304 -109zM460 1084l-54 59l246 252h67l175 -252l-69 -59l-155 178z" />
    <glyph glyph-name="udieresis.smcp" horiz-adv-x="1111" 
d="M506 -20q-185 0 -281.5 85.5t-96.5 245.5q0 39 6 84l84 592h141l-83 -579q-6 -35 -6 -71q0 -235 253 -235q121 0 200 79.5t100 226.5l82 579h136l-84 -592q-28 -197 -147 -306t-304 -109zM831 1180q-38 0 -62 23.5t-24 64.5t28.5 67t67 26t61.5 -23.5t23 -63.5t-28 -67
t-66 -27zM487 1180q-38 0 -62.5 23.5t-24.5 64.5t28 67t67 26t62.5 -23.5t23.5 -63.5t-28 -67t-66 -27z" />
    <glyph glyph-name="uni1EE5.smcp" horiz-adv-x="1111" 
d="M452.5 -333q-39.5 0 -64.5 24t-25 66t30 69t69 27t63 -24t24 -65.5t-28.5 -69t-68 -27.5zM506 -20q-185 0 -281.5 85.5t-96.5 245.5q0 39 6 84l84 592h141l-83 -579q-6 -35 -6 -71q0 -235 253 -235q121 0 200 79.5t100 226.5l82 579h136l-84 -592q-28 -197 -147 -306
t-304 -109z" />
    <glyph glyph-name="ugrave.smcp" horiz-adv-x="1111" 
d="M506 -20q-185 0 -281.5 85.5t-96.5 245.5q0 39 6 84l84 592h141l-83 -579q-6 -35 -6 -71q0 -235 253 -235q121 0 200 79.5t100 226.5l82 579h136l-84 -592q-28 -197 -147 -306t-304 -109zM767 1087l-309 192l-2 19l97 106l266 -233z" />
    <glyph glyph-name="uhungarumlaut.smcp" horiz-adv-x="1111" 
d="M506 -20q-185 0 -281.5 85.5t-96.5 245.5q0 39 6 84l84 592h141l-83 -579q-6 -35 -6 -71q0 -235 253 -235q121 0 200 79.5t100 226.5l82 579h136l-84 -592q-28 -197 -147 -306t-304 -109zM778 1078l-63 37l179 296l98 -37l-2 -22zM484 1078l-65 37l179 296l100 -37
l-2 -22z" />
    <glyph glyph-name="umacron.smcp" horiz-adv-x="1111" 
d="M506 -20q-185 0 -281.5 85.5t-96.5 245.5q0 39 6 84l84 592h141l-83 -579q-6 -35 -6 -71q0 -235 253 -235q121 0 200 79.5t100 226.5l82 579h136l-84 -592q-28 -197 -147 -306t-304 -109zM397 1182l14 106h518l-15 -106h-517z" />
    <glyph glyph-name="uogonek.smcp" horiz-adv-x="1111" 
d="M547 -317q34 0 54 8l4 -4l-11 -91q-48 -13 -111.5 -13t-108 34.5t-44.5 97.5q0 143 178 265h-3q-184 0 -280.5 85.5t-96.5 245.5q0 39 6 84l84 592h141l-83 -579q-6 -35 -6 -71q0 -235 253 -235q121 0 200 79.5t100 226.5l82 579h136l-84 -592q-22 -155 -101.5 -256.5
t-203.5 -138.5q-184 -123 -185 -246q0 -71 80 -71z" />
    <glyph glyph-name="uring.smcp" horiz-adv-x="1111" 
d="M506 -20q-185 0 -281.5 85.5t-96.5 245.5q0 39 6 84l84 592h141l-83 -579q-6 -35 -6 -71q0 -235 253 -235q121 0 200 79.5t100 226.5l82 579h136l-84 -592q-28 -197 -147 -306t-304 -109zM653 1151q40 0 66 27.5t26 70.5t-23.5 66.5t-62.5 23.5t-66 -29t-27 -72t23.5 -65
t63.5 -22zM648.5 1072q-75.5 0 -120 44t-44.5 118.5t52 127.5t126.5 53t119.5 -43t45 -118.5t-51.5 -128.5t-127 -53z" />
    <glyph glyph-name="utilde.smcp" horiz-adv-x="1111" 
d="M506 -20q-185 0 -281.5 85.5t-96.5 245.5q0 39 6 84l84 592h141l-83 -579q-6 -35 -6 -71q0 -235 253 -235q121 0 200 79.5t100 226.5l82 579h136l-84 -592q-28 -197 -147 -306t-304 -109zM532.5 1346q59.5 0 131 -36.5t109.5 -36.5q73 0 83 81l6 3l95 -20
q-13 -88 -63.5 -133.5t-110 -45.5t-133 37.5t-107 37.5t-56 -22.5t-27.5 -59.5l-6 -2l-87 20q11 76 58.5 126.5t107 50.5z" />
    <glyph glyph-name="v.smcp" horiz-adv-x="979" 
d="M884 987h136l-556 -987h-84l-278 987h146l204 -793z" />
    <glyph glyph-name="w.smcp" horiz-adv-x="1437" 
d="M1467 987l2 -6l-462 -981h-100l-138 761l-4 32l-11 -32l-352 -761h-106l-186 981l2 6h137l127 -764l2 -39l15 39l350 764h106l134 -760l4 -46l17 46l335 760h128z" />
    <glyph glyph-name="wacute.smcp" horiz-adv-x="1437" 
d="M1467 987l2 -6l-462 -981h-100l-138 761l-4 32l-11 -32l-352 -761h-106l-186 981l2 6h137l127 -764l2 -39l15 39l350 764h106l134 -760l4 -46l17 46l335 760h128zM1017 1288l-298 -208l-56 82l253 246l102 -101z" />
    <glyph glyph-name="wcircumflex.smcp" horiz-adv-x="1437" 
d="M1467 987l2 -6l-462 -981h-100l-138 761l-4 32l-11 -32l-352 -761h-106l-186 981l2 6h137l127 -764l2 -39l15 39l350 764h106l134 -760l4 -46l17 46l335 760h128zM834 1262l-210 -178l-54 59l245 252h68l175 -252l-69 -59z" />
    <glyph glyph-name="wdieresis.smcp" horiz-adv-x="1437" 
d="M1467 987l2 -6l-462 -981h-100l-138 761l-4 32l-11 -32l-352 -761h-106l-186 981l2 6h137l127 -764l2 -39l15 39l350 764h106l134 -760l4 -46l17 46l335 760h128zM995 1180q-38 0 -62 23.5t-24 64.5t28.5 67t67 26t61.5 -23.5t23 -63.5t-28 -67t-66 -27zM651 1180
q-38 0 -62.5 23.5t-24.5 64.5t28 67t67 26t62.5 -23.5t23.5 -63.5t-28 -67t-66 -27z" />
    <glyph glyph-name="wgrave.smcp" horiz-adv-x="1437" 
d="M1467 987l2 -6l-462 -981h-100l-138 761l-4 32l-11 -32l-352 -761h-106l-186 981l2 6h137l127 -764l2 -39l15 39l350 764h106l134 -760l4 -46l17 46l335 760h128zM931 1087l-309 192l-2 19l97 106l266 -233z" />
    <glyph glyph-name="x.smcp" horiz-adv-x="971" 
d="M992 987l-424 -484l301 -503h-150l-244 410l-365 -410h-153l456 508l-288 479h152l226 -387l333 387h156z" />
    <glyph glyph-name="y.smcp" horiz-adv-x="940" 
d="M339 0l56 393l-287 588l2 6h141l224 -471l350 471h132l2 -6l-436 -594l-54 -387h-130z" />
    <glyph glyph-name="yacute.smcp" horiz-adv-x="940" 
d="M339 0l56 393l-287 588l2 6h141l224 -471l350 471h132l2 -6l-436 -594l-54 -387h-130zM460 1080l-56 82l253 246l103 -101l-2 -19z" />
    <glyph glyph-name="ycircumflex.smcp" horiz-adv-x="940" 
d="M339 0l56 393l-287 588l2 6h141l224 -471l350 471h132l2 -6l-436 -594l-54 -387h-130zM365 1084l-54 59l246 252h67l175 -252l-69 -59l-155 178z" />
    <glyph glyph-name="ydieresis.smcp" horiz-adv-x="940" 
d="M339 0l56 393l-287 588l2 6h141l224 -471l350 471h132l2 -6l-436 -594l-54 -387h-130zM736 1180q-38 0 -62 23.5t-24 64.5t28.5 67t67 26t61.5 -23.5t23 -63.5t-28 -67t-66 -27zM392 1180q-38 0 -62.5 23.5t-24.5 64.5t28 67t67 26t62.5 -23.5t23.5 -63.5t-28 -67
t-66 -27z" />
    <glyph glyph-name="ygrave.smcp" horiz-adv-x="940" 
d="M339 0l56 393l-287 588l2 6h141l224 -471l350 471h132l2 -6l-436 -594l-54 -387h-130zM672 1087l-309 192l-2 19l97 106l266 -233z" />
    <glyph glyph-name="uni0233.smcp" horiz-adv-x="940" 
d="M339 0l56 393l-287 588l2 6h141l224 -471l350 471h132l2 -6l-436 -594l-54 -387h-130zM302 1182l15 106h517l-15 -106h-517z" />
    <glyph glyph-name="uni1EF9.smcp" horiz-adv-x="940" 
d="M339 0l56 393l-287 588l2 6h141l224 -471l350 471h132l2 -6l-436 -594l-54 -387h-130zM437.5 1346q59.5 0 131 -36.5t109.5 -36.5q73 0 83 81l6 3l95 -20q-13 -88 -63.5 -133.5t-110 -45.5t-133 37.5t-107 37.5t-55.5 -22.5t-28 -59.5l-6 -2l-87 20q11 76 58.5 126.5
t107 50.5z" />
    <glyph glyph-name="z.smcp" horiz-adv-x="925" 
d="M910 920l-696 -799h594l-19 -121h-769l-9 63l696 801h-579l19 123h750z" />
    <glyph glyph-name="zacute.smcp" horiz-adv-x="925" 
d="M910 920l-696 -799h594l-19 -121h-769l-9 63l696 801h-579l19 123h750zM750 1290l-298 -208l-55 82l253 245l102 -100z" />
    <glyph glyph-name="zcaron.smcp" horiz-adv-x="925" 
d="M910 920l-696 -799h594l-19 -121h-769l-9 63l696 801h-579l19 123h750zM577 1085h-67l-175 254l67 57l158 -178l209 178l50 -57z" />
    <glyph glyph-name="zdotaccent.smcp" horiz-adv-x="925" 
d="M910 920l-696 -799h594l-19 -121h-769l-9 63l696 801h-579l19 123h750zM564 1180q-39 0 -64 24.5t-25 66.5t28.5 69t68.5 27t64.5 -24.5t24.5 -65.5t-29 -69t-68 -28z" />
    <glyph glyph-name="zero.osf" horiz-adv-x="1122" 
d="M236 434q0 -148 78 -236t230 -88t253 128t100 334q0 149 -80 239t-216 90q-165 0 -265 -131t-100 -336zM514 -24q-194 0 -308 119t-113 322q0 274 148 445t377 171q194 0 306 -119t113 -324q0 -278 -146 -446t-377 -168z" />
    <glyph glyph-name="one.osf" horiz-adv-x="582" 
d="M223 0l120 836l-242 -121l-6 2l20 132l362 173h28l-146 -1022h-136z" />
    <glyph glyph-name="two.osf" horiz-adv-x="929" 
d="M683 747q0 162 -216 162q-181 0 -311 -118l-5 2l17 129q141 112 333 111q145 0 236 -68t91 -204t-100 -238q-52 -52 -100 -87t-129 -86q-225 -143 -257 -207l-24 -24v-2q22 6 26 6h551l-17 -123h-759q18 138 112 228t240 183q125 72 189 125t80 76q43 62 43 135z" />
    <glyph glyph-name="three.osf" horiz-adv-x="899" 
d="M771 228q0 -194 -126 -304t-314 -110q-121 0 -190 27t-132 79l19 136l6 2q108 -121 303 -121q130 -1 216 71t86 204q0 197 -241 198h-108l15 119h99q110 3 182 61t73 144q0 86 -52 131q-52 44 -142 44q-177 0 -296 -101l-5 6l17 115q130 102 316 102q132 0 217 -65
t85 -188q0 -203 -190 -292q162 -65 162 -258z" />
    <glyph glyph-name="four.osf" horiz-adv-x="1042" 
d="M181 140h448l92 644zM936 140l-16 -116h-183l-30 -208h-122l29 208h-620l-9 56l797 944h95l-125 -884h184z" />
    <glyph glyph-name="five.osf" horiz-adv-x="929" 
d="M344 -190q-194 0 -325 84l22 125l6 1q78 -54 145 -74t162 -20q145 0 233 80t89 216q0 100 -68 158t-212 58t-279 -36l110 607h644l-18 -119h-529l-63 -358q71 24 219 24t240 -81q90 -82 90 -227q0 -212 -136 -325t-330 -113z" />
    <glyph glyph-name="six.osf" horiz-adv-x="1010" 
d="M786 394q0 252 -230 252q-116 0 -203 -78q-88 -78 -118 -194q27 -279 269 -279q122 0 203 87q79 86 79 212zM739 1259q136 0 214 -38l-15 -117l-5 -2q-76 35 -209 36q-208 0 -330 -155t-152 -398q119 186 348 186q149 -1 244 -91t95 -269t-124 -310t-313 -131t-293 121
t-104 333q-1 387 177 611t467 224z" />
    <glyph glyph-name="seven.osf" horiz-adv-x="858" 
d="M112 -181l-2 4l612 1060h-623l18 126h760l11 -65l-640 -1125h-136z" />
    <glyph glyph-name="eight.osf" horiz-adv-x="973" 
d="M205 276q0 -90 67 -142q68 -52 182 -52t192 69t78 163t-55 152t-177 111l-36 17q-251 -119 -251 -318zM566 1145q-104 0 -166 -58q-62 -59 -61 -147q0 -88 50 -142t168 -109q113 63 165 127t53 148q0 84 -53 132q-52 48 -156 49zM851 352q0 -172 -115 -276
q-114 -104 -292 -104t-276 74t-98 198t72 231q72 106 219 175q-158 110 -158 266t107 250q108 94 260 94t245 -72t94 -201q-1 -225 -252 -350q194 -112 194 -285z" />
    <glyph glyph-name="nine.osf" horiz-adv-x="996" 
d="M464 363q110 0 192 66t113 171q-17 313 -253 312q-121 0 -199 -84q-79 -84 -79 -209q0 -124 58 -190t168 -66zM97 577q0 205 122 331q123 126 305 125q182 0 282 -118t99 -336q1 -350 -155 -558t-432 -207q-147 0 -247 33l17 125l5 2q107 -41 223 -41q219 0 322 142
t125 340q-117 -173 -337 -173q-151 0 -240 90t-89 245z" />
    <glyph glyph-name="zero.sinf" horiz-adv-x="700" 
d="M261 -207q91 0 146 87t55 245q0 93 -36 145t-102 52q-89 0 -145 -93t-56 -244q1 -88 37 -140t101 -52zM268 -296q-128 0 -195 77t-67 210q0 195 92 307t220 112t193 -74q66 -74 66 -217q0 -195 -91 -305q-90 -110 -218 -110z" />
    <glyph glyph-name="one.sinf" horiz-adv-x="417" 
d="M93 -281l76 538l-152 -60l-6 2l17 118l262 98l12 -4l-95 -692h-114z" />
    <glyph glyph-name="two.sinf" horiz-adv-x="616" 
d="M-22 -281q0 162 212 303q114 76 152 118t38 87q0 91 -118 91t-212 -74l-2 2l15 98q84 74 224 75q93 0 153 -47q60 -46 61 -126t-47 -142t-182 -145q-134 -84 -147 -145h342l-13 -95h-476z" />
    <glyph glyph-name="three.sinf" horiz-adv-x="599" 
d="M180 -296q-126 0 -208 52l15 95l2 2q65 -56 197 -56q76 0 124 39q47 39 47 106q0 97 -119 97h-102l13 80h76q69 0 107 31t39 85q-1 89 -119 89t-183 -43h-2l11 93q74 45 176 45t164 -41t62 -125q0 -109 -108 -167q90 -38 90 -144t-78 -172t-204 -66z" />
    <glyph glyph-name="four.sinf" horiz-adv-x="659" 
d="M88 -67h227l48 333zM529 -67l-11 -76h-108l-21 -138h-104l20 138h-359l6 46l446 518h92l-71 -488h110z" />
    <glyph glyph-name="five.sinf" horiz-adv-x="608" 
d="M182 -296q-116 0 -214 41l15 99h2q86 -48 178 -48t140 40q47 41 47 108q0 112 -140 112q-104 0 -188 -22l-2 3l77 369h402l-13 -95h-311l-41 -181q42 11 130 11q88 -1 146 -47t57 -131q0 -130 -84 -195q-85 -64 -201 -64z" />
    <glyph glyph-name="six.sinf" horiz-adv-x="647" 
d="M251 -209q69 0 109 42q40 43 40 103q0 122 -117 122q-61 0 -109 -36t-70 -89q11 -142 147 -142zM311 153q89 0 143 -52t54 -153q0 -102 -75 -174t-192 -72t-183 69t-65 192q0 192 110 321q111 129 282 129q86 0 134 -20l-13 -90l-3 -1q-50 20 -125 20q-116 0 -182 -77
t-86 -191q76 99 201 99z" />
    <glyph glyph-name="seven.sinf" horiz-adv-x="562" 
d="M45 -281l-2 4l337 575h-354l15 106h480l-5 -56l-360 -629h-111z" />
    <glyph glyph-name="eight.sinf" horiz-adv-x="644" 
d="M229 -214q71 0 115 32t44 80q0 46 -34 75q-33 29 -145 74q-115 -60 -116 -155q0 -106 136 -106zM417 248q1 39 -31 64t-90 25t-92 -27q-36 -27 -36 -68t29 -68t112 -57q108 58 108 131zM222 -296q-118 0 -178 43t-59 121q0 134 158 214q-83 56 -83 144t70 142
q72 53 172 53t162 -40t61 -117q0 -111 -141 -184q110 -63 110 -161q0 -99 -77 -157t-195 -58z" />
    <glyph glyph-name="nine.sinf" horiz-adv-x="649" 
d="M255 54q106 0 171 86v15q0 79 -39 123t-107 44t-110 -42t-42 -102t34 -92t93 -32zM238 -35q-218 -1 -218 205q0 104 75 176t192 73q117 0 180 -71t64 -192q0 -218 -95 -333t-276 -115q-97 0 -156 24l13 97l5 2q61 -32 146 -32q214 0 251 246q-75 -80 -181 -80z" />
    <glyph glyph-name="zero.tf" horiz-adv-x="1025" 
d="M404 95q158 0 261 181q102 182 102 495q0 167 -62 267t-176 100q-160 0 -266 -188t-107 -499q0 -164 64 -260t184 -96zM397 -26q-181 0 -284 125t-104 361q0 367 151 583t378 216q180 0 278 -128t98 -366q0 -369 -147 -580t-370 -211z" />
    <glyph glyph-name="one.tf" horiz-adv-x="1025" 
d="M410 0l149 1050l-319 -158h-7l20 141l441 224h30l-177 -1257h-137z" />
    <glyph glyph-name="two.tf" horiz-adv-x="1025" 
d="M743 938q0 95 -59 147q-60 53 -170 53t-202 -43t-146 -95l-4 2l17 136q149 123 353 122q158 0 256 -79t96 -217q0 -138 -75 -236t-284 -257q-302 -225 -333 -348h620l-17 -123h-793q30 249 426 547q182 136 249 216q66 80 66 175z" />
    <glyph glyph-name="three.tf" horiz-adv-x="1025" 
d="M814 398q0 -194 -124 -310t-332 -116t-339 95l18 134l4 2q117 -114 328 -114q143 1 228 77t84 205q0 216 -277 219l-123 2l17 119h121q127 0 211 64t83 182q0 84 -59 134t-161 50q-169 0 -299 -93l-2 2l17 119q130 93 295 93t256 -74t91 -216q0 -210 -205 -309
q168 -71 168 -265z" />
    <glyph glyph-name="four.tf" horiz-adv-x="1025" 
d="M160 391h425l89 635zM916 391l-15 -117h-207l-39 -274h-126l39 274h-605l7 57l756 924h108l-123 -864h205z" />
    <glyph glyph-name="five.tf" horiz-adv-x="1025" 
d="M365 -28q-108 0 -181 19t-156 63l20 136h2q156 -93 318 -93t253 79q90 80 90 208q0 262 -273 262q-160 0 -304 -43l-4 4l118 631h657l-17 -121h-538l-63 -369q74 20 188 21q186 0 285 -89t98 -254q0 -222 -144 -338t-349 -116z" />
    <glyph glyph-name="six.tf" horiz-adv-x="1025" 
d="M730 389q0 259 -226 259q-112 0 -199 -72q-86 -72 -117 -183q8 -141 74 -219t188 -79q122 0 202 84q78 84 78 210zM687 1259q136 0 214 -38l-15 -117l-5 -4q-80 37 -209 38q-194 0 -316 -150t-159 -388q119 173 335 173q149 0 244 -93t95 -273t-122 -308
q-122 -129 -307 -129t-289 122t-105 332q0 384 180 610t459 225z" />
    <glyph glyph-name="seven.tf" horiz-adv-x="1025" 
d="M162 0l601 1108h-653l18 128h818l-10 -65l-629 -1171h-145z" />
    <glyph glyph-name="eight.tf" horiz-adv-x="1025" 
d="M719 323q0 98 -56 153t-196 118q-32 11 -72 32q-231 -112 -231 -319q0 -102 68 -156t198 -55t209 64q80 65 80 163zM765 956q0 80 -56 130t-176 50t-183 -52t-63 -132t61 -138t199 -113q11 -5 17 -7q106 58 154 120t47 142zM853 350q0 -166 -119 -272t-314 -106t-299 81
t-104 228q0 244 277 400q-147 99 -147 249t112 240t281 90t267 -74t98 -194t-57 -201q-57 -80 -178 -149q95 -56 139 -124t44 -168z" />
    <glyph glyph-name="nine.tf" horiz-adv-x="1025" 
d="M454 577q104 0 186 57t131 148v6q0 173 -68 262t-190 89t-208 -81q-85 -80 -85 -212t65 -200t169 -69zM514 1262q182 0 289 -118t107 -351q0 -371 -162 -591t-445 -221q-153 0 -255 45l19 125l4 2q109 -52 221 -52q201 0 312 115q133 141 157 406q-130 -169 -327 -170
q-160 0 -258 98t-98 256q0 210 127 333t309 123z" />
    <glyph glyph-name="zero.dnom" horiz-adv-x="700" 
d="M300 74q91 0 146 87t55 245q0 93 -36 145t-102 52q-89 0 -145 -93t-56 -244q0 -88 36 -140t102 -52zM306 -15q-128 0 -194 77q-67 77 -67 210q0 194 92 306q91 112 219 113q128 -1 194 -75t66 -216q0 -195 -91 -305t-219 -110z" />
    <glyph glyph-name="one.dnom" horiz-adv-x="417" 
d="M132 0l77 538l-161 -61l17 119l265 100h14l-98 -696h-114z" />
    <glyph glyph-name="two.dnom" horiz-adv-x="616" 
d="M11 0q0 162 212 303q114 75 152 117t38 88q0 92 -117 92t-212 -75l-2 2l15 99q84 74 223 74q93 0 154 -47q60 -47 60 -127t-47 -140q-47 -62 -181 -146t-148 -145h343l-13 -95h-477z" />
    <glyph glyph-name="three.dnom" horiz-adv-x="599" 
d="M220 -13q-127 0 -209 52l15 95l2 2q65 -56 197 -56q76 0 124 39q47 39 48 106q0 97 -120 97h-102l13 80h76q69 0 107 31t39 85q0 89 -118 89t-184 -43h-2l11 93q75 45 177 45t164 -41t61 -125q0 -109 -108 -167q89 -39 89 -145t-76 -171q-77 -66 -204 -66z" />
    <glyph glyph-name="four.dnom" horiz-adv-x="659" 
d="M130 214h227l49 333zM572 214l-12 -76h-108l-20 -138h-104l20 138h-359l5 46l447 518h91l-70 -488h110z" />
    <glyph glyph-name="five.dnom" horiz-adv-x="608" 
d="M505 244q0 -130 -85 -194q-86 -64 -202 -65q-116 0 -212 41l14 99h2q86 -49 178 -49t140 41q47 41 47 108q0 112 -139 112q-104 0 -188 -22l-2 3l76 369h402l-13 -95h-311l-41 -181q41 11 129 11t147 -46q58 -47 58 -132z" />
    <glyph glyph-name="six.dnom" horiz-adv-x="647" 
d="M292 73q69 0 109 42q40 43 40 103q0 122 -117 121q-62 0 -110 -36t-69 -89q11 -141 147 -141zM352 434q89 0 143 -52t54 -153t-75 -173t-192 -73q-116 0 -182 69t-66 192q0 192 110 321q111 129 282 129q86 0 134 -20l-13 -89l-3 -2q-50 20 -125 20q-115 0 -181 -77
t-87 -191q76 99 201 99z" />
    <glyph glyph-name="seven.dnom" horiz-adv-x="562" 
d="M84 0l-2 2l337 577h-354l15 104h480l-5 -56l-360 -627h-111z" />
    <glyph glyph-name="eight.dnom" horiz-adv-x="646" 
d="M270 67q70 0 114 33t44 79q0 77 -103 118q-40 16 -51 21t-25 10q-115 -60 -115 -155q0 -106 136 -106zM458 529q0 39 -32 64t-88 25q-58 0 -94 -27t-35 -67q0 -40 29 -69q29 -28 112 -57q108 58 108 131zM534 200q0 -98 -76 -156t-194 -59q-118 0 -178 43t-60 121
q0 134 158 214q-84 57 -84 145t71 141t171 53t162 -40t62 -116q-1 -112 -142 -185q110 -63 110 -161z" />
    <glyph glyph-name="nine.dnom" horiz-adv-x="649" 
d="M294 335q106 0 171 86v15q0 80 -39 124q-38 44 -106 43q-68 0 -110 -42q-42 -43 -42 -103t34 -92t92 -31zM278 246q-218 0 -218 206q0 104 74 176t192 72q117 0 180 -71t64 -191q0 -218 -95 -334t-276 -115q-97 0 -156 24l13 97l5 2q61 -32 146 -32q214 0 251 246
q-74 -80 -180 -80z" />
    <glyph glyph-name="zero.numr" horiz-adv-x="700" 
d="M378 635q91 1 146 87t55 244q0 94 -36 146t-102 52q-89 0 -145 -93t-56 -244q0 -88 36 -140t102 -52zM694 961q0 -195 -91 -305t-219 -110t-194 77q-67 77 -67 209q0 194 92 307q91 113 219 113t194 -75q66 -74 66 -216z" />
    <glyph glyph-name="one.numr" horiz-adv-x="415" 
d="M210 562l79 538l-161 -63l17 121l263 99h15l-97 -695h-116z" />
    <glyph glyph-name="two.numr" horiz-adv-x="616" 
d="M95 560q0 162 212 304q114 76 152 117t38 88q0 91 -117 91t-212 -75l-2 2l15 99q84 74 223 74q93 0 154 -46q60 -46 60 -127q0 -80 -47 -141t-181 -145t-148 -146h343l-13 -95h-477z" />
    <glyph glyph-name="three.numr" horiz-adv-x="599" 
d="M577 783q0 -105 -77 -171t-204 -66t-208 52l14 95l2 1q65 -56 198 -55q76 0 123 39t48 106q0 97 -119 97h-103l13 80h77q69 1 107 31t38 84q0 89 -118 89t-184 -42h-2l12 93q74 44 176 44t164 -41q61 -41 62 -124q0 -110 -108 -168q89 -39 89 -144z" />
    <glyph glyph-name="four.numr" horiz-adv-x="659" 
d="M207 775h227l48 333zM648 775l-11 -77h-108l-21 -138h-104l20 138h-359l6 47l447 517h91l-71 -487h110z" />
    <glyph glyph-name="five.numr" horiz-adv-x="608" 
d="M300 546q-116 0 -212 40l14 99h2q86 -48 178 -48t140 41q47 41 47 108q0 112 -139 111q-104 0 -189 -22l-1 4l76 368h402l-13 -95h-311l-41 -180q41 11 129 11t147 -47q58 -47 57 -132q0 -130 -84 -194q-86 -64 -202 -64z" />
    <glyph glyph-name="six.numr" horiz-adv-x="647" 
d="M518 778q0 124 -120 122q-58 0 -108 -37q-48 -36 -68 -88q11 -142 147 -142q69 0 109 42q40 43 40 103zM428 994q90 0 144 -52t54 -153t-76 -173t-192 -72t-182 69t-66 191q0 192 111 321t282 130q86 0 134 -21l-13 -89l-4 -2q-50 20 -125 21q-115 0 -181 -78t-87 -190
q76 98 201 98z" />
    <glyph glyph-name="seven.numr" horiz-adv-x="562" 
d="M164 562l-2 2l337 575h-354l15 107h480l-7 -56l-359 -628h-110z" />
    <glyph glyph-name="eight.numr" horiz-adv-x="646" 
d="M348 627q71 0 115 33q43 34 43 80q-1 78 -103 118q-40 16 -48 19q-8 5 -15 7t-12 4q-115 -60 -116 -154q0 -107 136 -107zM536 1089q0 39 -32 65t-88 25q-58 0 -94 -27t-35 -68q0 -84 141 -125q108 58 108 130zM613 760q-1 -98 -77 -156t-194 -58t-178 42t-60 121
q0 134 159 214q-84 57 -84 145t70 141q71 53 171 53t162 -40t62 -116q0 -111 -141 -184q110 -64 110 -162z" />
    <glyph glyph-name="nine.numr" horiz-adv-x="649" 
d="M376 896q106 0 171 85v15q0 80 -39 124t-107 44t-110 -42t-42 -102q1 -60 35 -92t92 -32zM360 806q-218 0 -219 206q0 104 75 176t192 72t180 -70t64 -192q0 -218 -95 -333t-276 -116q-97 0 -156 24l13 97l5 2q61 -32 146 -32q214 0 251 246q-74 -80 -180 -80z" />
    <glyph glyph-name="zero.sups" horiz-adv-x="701" 
d="M419 914q91 0 146 87t55 245q0 93 -36 145t-102 52q-89 0 -145 -93t-56 -244q1 -88 37 -140t101 -52zM426 825q-128 0 -195 77t-67 210q0 194 92 306t220 112t193 -74q66 -74 66 -216q0 -195 -91 -305q-90 -110 -218 -110z" />
    <glyph glyph-name="one.sups" horiz-adv-x="417" 
d="M251 842l77 538l-160 -64l16 121l263 99h15l-97 -694h-114z" />
    <glyph glyph-name="two.sups" horiz-adv-x="616" 
d="M138 842q0 162 212 303q114 76 152 117t38 88q0 91 -118 91t-212 -74l-1 1l14 99q84 74 224 75q93 0 153 -47t61 -127t-47 -141t-182 -145t-147 -146h342l-13 -94h-476z" />
    <glyph glyph-name="three.sups" horiz-adv-x="601" 
d="M620 1062q0 -105 -77 -171t-204 -66t-209 52l15 95l2 2q65 -56 197 -56q76 0 124 39q47 39 48 106q0 97 -119 97h-103l13 80h77q69 0 107 31t38 84q-1 89 -119 89t-183 -42h-2l11 93q74 45 176 45t164 -41t63 -125q0 -110 -108 -168q89 -39 89 -144z" />
    <glyph glyph-name="four.sups" horiz-adv-x="657" 
d="M246 1056h227l48 333zM687 1056l-11 -77h-108l-21 -137h-104l21 137h-360l6 47l447 517h91l-71 -487h110z" />
    <glyph glyph-name="five.sups" horiz-adv-x="606" 
d="M626 1084q0 -130 -85 -194t-201 -65q-116 0 -213 41l14 98h2q84 -48 177 -48t141 41q47 41 47 108q0 112 -139 112q-104 0 -188 -23l-2 4l76 369h402l-13 -95h-311l-41 -181q42 11 130 11t146 -46t58 -132z" />
    <glyph glyph-name="six.sups" horiz-adv-x="649" 
d="M411 912q69 0 109 42t40 102q0 122 -117 123q-61 -1 -109 -37t-70 -88q11 -142 147 -142zM471 1273q89 0 143 -52q54 -53 54 -153t-75 -172t-191 -73q-116 0 -183 69q-66 69 -66 192q0 192 110 321q111 129 283 129q86 0 134 -20l-13 -90l-4 -2q-50 20 -125 21
q-115 0 -181 -77t-87 -191q76 98 201 98z" />
    <glyph glyph-name="seven.sups" horiz-adv-x="564" 
d="M205 842l-4 1l339 576h-356l15 106h481l-8 -56l-357 -627h-110z" />
    <glyph glyph-name="eight.sups" horiz-adv-x="646" 
d="M389 907q71 1 115 33t44 78t-30 73q-29 26 -87 50q-57 25 -62 26q-115 -60 -116 -154q0 -106 136 -106zM456 1458q-58 0 -92 -27q-36 -27 -36 -68t30 -69t111 -56q108 58 108 130q0 39 -31 65q-32 25 -90 25zM145 989q0 134 158 214q-83 57 -83 145t70 141q72 53 172 53
t162 -40t61 -117q0 -111 -141 -184q110 -63 110 -161t-77 -157t-195 -59t-178 44q-60 43 -59 121z" />
    <glyph glyph-name="nine.sups" horiz-adv-x="651" 
d="M415 1175q106 0 171 85v15q0 80 -39 124t-107 44t-110 -42q-42 -43 -42 -103t35 -92q34 -32 92 -31zM398 1085q-220 1 -218 207q0 104 76 176q74 72 191 72t180 -71t64 -192q0 -218 -95 -333t-276 -115q-97 0 -156 24l13 97l5 1q61 -32 146 -31q214 0 251 245
q-75 -80 -181 -80z" />
    <glyph glyph-name="zero.smcp" horiz-adv-x="1167" 
d="M240 436q0 -150 83 -238t241 -88t263 129q104 129 104 305t-82 266t-240 89q-157 0 -263 -130t-106 -333zM531 -24q-195 0 -317 119q-121 119 -121 320q0 274 155 445t392 171q202 0 320 -121t118 -324q0 -276 -152 -443t-395 -167z" />
    <glyph glyph-name="one.smcp" horiz-adv-x="586" 
d="M227 0l112 815l-246 -104l19 136l363 173h26l-138 -1020h-136z" />
    <glyph glyph-name="two.smcp" horiz-adv-x="938" 
d="M685 741q0 166 -220 166q-175 0 -312 -119l-2 1l15 127q141 115 333 115q149 -1 240 -69t91 -200t-82 -223t-268 -205t-240 -191l-22 -22l2 -2q6 4 22 4h547l-18 -123h-751q17 128 113 226t286 214q189 116 228 176q38 59 38 125z" />
    </font>
</defs>
</svg>
