<?xml version="1.0" standalone="no"?>
<!DOCTYPE svg PUBLIC "-//W3C//DTD SVG 1.1//EN" "http://www.w3.org/Graphics/SVG/1.1/DTD/svg11.dtd" >
<svg xmlns="http://www.w3.org/2000/svg">
<metadata>
Created by FontPrep 20130207 at Fri May 26 15:12:35 2017
 By Lizzy Knight
Copyright (c) 2017 by Alfonso Garci'a - Latinotype Team. All rights reserved.
</metadata>
<defs>
<font id="9cb90a439f5307af79e6bc3280942111" horiz-adv-x='1024' >
  <font-face 
    font-family="RawsonPro-MediumIt"
    font-weight="500"
    font-style="italic"
    font-stretch="normal"
    units-per-em="2048"
    panose-1="0 0 6 0 0 0 0 0 0 0"
    ascent="1638"
    descent="-410"
    x-height="964"
    cap-height="1231"
    bbox="-1214 -439 2452 1761"
    underline-thickness="93"
    underline-position="-93"
    slope="-7.5"
    unicode-range="U+0020-FB02"
  />
<missing-glyph horiz-adv-x="891" 
 />
    <glyph glyph-name="fi" unicode="fi" horiz-adv-x="1031" 
d="M642 0l138 964h175l-138 -964h-175zM717 1164q-32 16 -96 16t-118 -49t-67 -165h204l-20 -139h-205l-162 -1136h-177l162 1136h-124l20 139h125q19 184 124 277q104 93 246 94q63 0 114 -17l-22 -155zM916 1365q48 0 77 -29q29 -30 29 -80t-34 -82t-82 -33q-48 0 -79 29
q-30 30 -30 80q-1 50 35 82t84 33z" />
    <glyph glyph-name="fl" unicode="fl" horiz-adv-x="921" 
d="M829 1327h175l-189 -1327h-175zM640 964l-20 -139h-205l-160 -1134h-177l160 1134h-124l20 139h123l4 21q24 171 125 261t243 91q71 0 114 -17l-22 -155l-4 -1q-41 17 -84 16q-76 0 -129 -48t-66 -147l-4 -21h206z" />
    <glyph glyph-name=".notdef" horiz-adv-x="891" 
 />
    <glyph glyph-name=".null" 
 />
    <glyph glyph-name="nonmarkingreturn" horiz-adv-x="681" 
 />
    <glyph glyph-name="space" unicode=" " horiz-adv-x="452" 
 />
    <glyph glyph-name="exclam" unicode="!" horiz-adv-x="480" 
d="M285 80q0 -40 -30 -70q-31 -30 -77 -30t-70 25t-24 66t30 71t78 31q48 0 70 -26q23 -26 23 -67zM153 374l115 907h175l-141 -907h-149z" />
    <glyph glyph-name="quotedbl" unicode="&#x22;" horiz-adv-x="619" 
d="M424 806l54 432h144l13 -17l-103 -415h-108zM181 806l54 432h143l15 -17l-103 -415h-109z" />
    <glyph glyph-name="numbersign" unicode="#" horiz-adv-x="1037" 
d="M624 419l78 261h-259l-78 -261h259zM964 680h-143l-78 -261h166l-17 -119h-186l-60 -198h-119l59 198h-258l-60 -198h-119l60 198h-133l19 119h151l78 261h-177l19 119h195l60 197h119l-60 -197h259l60 197h119l-60 -197h123z" />
    <glyph glyph-name="dollar" unicode="$" horiz-adv-x="876" 
d="M564 998q-223 0 -223 -145q0 -81 103 -114q46 -15 98 -32q240 -76 240 -256q0 -138 -83 -224t-226 -108l-24 -179h-164l24 174q-140 11 -255 70l22 155l4 2q127 -89 296 -90q244 0 244 166q0 59 -48 89t-172 66t-184 95q-60 58 -60 156q0 134 90 217t238 103l26 181h166
l-24 -177q123 -11 193 -47l-22 -154l-2 -2q-104 54 -257 54z" />
    <glyph glyph-name="percent" unicode="%" horiz-adv-x="1385" 
d="M968 114q84 0 133 58t49 146q1 170 -128 170q-82 0 -131 -62t-49 -167q-1 -145 126 -145zM1294 348q0 -169 -96 -263t-230 -94q-133 0 -202 66q-68 66 -68 189q0 169 97 267t229 98t201 -69t69 -194zM400 747q84 1 133 59t49 148q1 170 -128 169q-82 1 -131 -61t-49 -168
q-1 -147 126 -147zM155 20l968 1201h149l-969 -1201h-148zM728 981q0 -169 -96 -262t-230 -93q-133 0 -203 66q-69 66 -69 189q0 169 97 267t228 98t202 -70t71 -195z" />
    <glyph glyph-name="ampersand" unicode="&#x26;" horiz-adv-x="1191" 
d="M447 119q158 0 277 123l-249 322q-13 15 -26 36q-108 -52 -163 -120t-55 -164t56 -146t160 -51zM421 -30q-162 0 -262 84t-99 231q0 276 312 421q-76 119 -76 249t108 227t256 97t239 -58l-20 -145h-4q-91 58 -191 58t-161 -48t-61 -120q0 -71 34 -134t115 -171l210 -281
q78 145 112 367h151q-48 -296 -172 -488l194 -259h-196l-100 130q-164 -160 -389 -160z" />
    <glyph glyph-name="quotesingle" unicode="'" horiz-adv-x="379" 
d="M181 806l54 432h143l15 -17l-103 -415h-109z" />
    <glyph glyph-name="parenleft" unicode="(" horiz-adv-x="558" 
d="M80 322q0 246 50 442t128 326q159 265 321 329l45 -132q-136 -78 -256 -326t-120 -604q0 -214 49 -362t116 -190l-82 -133q-101 45 -176 224q-75 180 -75 426z" />
    <glyph glyph-name="parenright" unicode=")" horiz-adv-x="558" 
d="M333 758q0 199 -49 347t-118 191l83 132q101 -46 176 -224t75 -424t-49 -442q-51 -196 -129 -326q-158 -263 -320 -330l-45 132q60 35 122 111q254 307 254 833z" />
    <glyph glyph-name="asterisk" unicode="*" horiz-adv-x="858" 
d="M501 681l-15 12l13 281l13 11l24 7l11 -7l77 -263l-10 -13zM283 745l-69 80l4 20l242 166l15 -2l17 -17l-2 -15l-192 -230zM788 881l-229 113l-4 13l9 26l13 10l266 -34l8 -11l-43 -110zM443 1024l-251 30l-4 11l41 110l34 7l215 -111l2 -13l-11 -27zM577 1054l-15 2
l-15 18l2 17l192 231l15 2l65 -80l-4 -23zM499 1072l-11 8l-75 259l8 15l111 29l15 -13l-11 -279l-9 -11z" />
    <glyph glyph-name="plus" unicode="+" horiz-adv-x="912" 
d="M856 614l-20 -134h-311l-48 -346h-136l48 346h-311l21 134h311l48 349h136l-48 -349h310z" />
    <glyph glyph-name="comma" unicode="," horiz-adv-x="381" 
d="M-28 -272q67 177 82 311q4 45 7 106l162 15l19 -24q-30 -218 -164 -408h-106z" />
    <glyph glyph-name="hyphen" unicode="-" horiz-adv-x="752" 
d="M125 469l22 145h497l-20 -145h-499z" />
    <glyph glyph-name="period" unicode="." horiz-adv-x="422" 
d="M43 93q0 49 34 83q33 34 87 34t81 -30t27 -78t-32 -82t-87 -33q-54 0 -82 29t-28 77z" />
    <glyph glyph-name="slash" unicode="/" horiz-adv-x="834" 
d="M-37 -222l782 1620h158l-782 -1620h-158z" />
    <glyph glyph-name="zero" unicode="0" horiz-adv-x="1139" 
d="M534 123q153 0 254 175t100 477q0 153 -62 245t-174 92q-155 0 -257 -181t-103 -482q0 -149 64 -237t178 -89zM516 -26q-194 0 -301 123t-107 365q0 368 161 584t396 216q195 0 301 -126t106 -371q0 -371 -160 -581t-396 -210z" />
    <glyph glyph-name="one" unicode="1" horiz-adv-x="687" 
d="M274 0l141 1000l-305 -121l-6 2l24 156l460 222h36l-177 -1259h-173z" />
    <glyph glyph-name="two" unicode="2" horiz-adv-x="975" 
d="M559 1264q158 0 259 -78q102 -78 102 -217t-74 -235t-318 -289q-244 -192 -275 -290h589l-23 -155h-806q32 261 425 564q180 140 242 214t63 162q0 169 -211 170q-108 0 -202 -41t-148 -90l-3 2l20 164q149 119 360 119z" />
    <glyph glyph-name="three" unicode="3" horiz-adv-x="956" 
d="M849 390q0 -194 -126 -306q-127 -112 -339 -112t-350 88l24 165l5 2q108 -108 302 -108q147 0 232 66q85 67 85 179t-63 159q-62 47 -200 50l-110 2l21 149h109q125 0 198 57t72 165q0 78 -54 124t-152 45q-169 0 -294 -84l-6 2l20 151q136 82 303 82t262 -72t95 -205
q-1 -235 -198 -328q164 -77 164 -271z" />
    <glyph glyph-name="four" unicode="4" horiz-adv-x="1064" 
d="M272 417h367l76 542zM994 417l-20 -156h-196l-37 -261h-160l37 261h-573l-28 74l767 920h136l-119 -838h193z" />
    <glyph glyph-name="five" unicode="5" horiz-adv-x="971" 
d="M696 392q0 237 -236 235q-164 0 -311 -42l-6 3l133 654h662l-20 -151h-514l-67 -326q69 17 171 17q179 0 276 -88t97 -253q0 -121 -44 -215q-43 -94 -117 -147q-148 -107 -335 -107q-186 0 -340 76l24 168l5 2q154 -90 308 -90t234 73t80 191z" />
    <glyph glyph-name="six" unicode="6" horiz-adv-x="1050" 
d="M270 384q22 -259 248 -259q114 0 187 76q72 76 71 207q0 220 -201 219q-111 0 -193 -68t-112 -175zM613 784q149 0 245 -91t97 -275q0 -184 -129 -316t-322 -132t-301 125t-108 339q0 382 183 605t480 223q136 0 214 -37l-21 -147l-5 -2q-78 35 -207 36q-191 0 -305 -135
t-149 -344q121 151 328 151z" />
    <glyph glyph-name="seven" unicode="7" horiz-adv-x="884" 
d="M143 0l583 1078h-594l23 160h763l22 -84l-614 -1154h-183z" />
    <glyph glyph-name="eight" unicode="8" horiz-adv-x="1057" 
d="M264 317q0 -91 62 -141t174 -49q114 -1 187 59t73 146t-52 132q-52 47 -144 85q-91 38 -108 47q-192 -99 -192 -279zM812 944q0 72 -50 118t-150 46t-161 -51t-61 -123t54 -119q53 -47 172 -96l13 -6q99 54 141 107t42 124zM940 365q0 -169 -128 -281t-326 -112
q-199 0 -303 82q-103 82 -103 229q0 231 255 384q-128 97 -128 249t118 250t291 98t273 -74t100 -194t-57 -198q-57 -77 -172 -148q96 -54 138 -120t42 -165z" />
    <glyph glyph-name="nine" unicode="9" horiz-adv-x="1044" 
d="M810 775q0 165 -62 251t-174 86q-114 0 -192 -73t-78 -199t56 -184q57 -60 150 -60t170 47t130 126v6zM576 1266q189 0 299 -122t110 -364q0 -369 -166 -585t-450 -215q-166 0 -270 46l22 156l6 4q108 -58 229 -58t202 41q132 67 201 256q25 72 38 158
q-134 -143 -306 -143t-269 96q-96 97 -95 261q0 217 130 343t319 126z" />
    <glyph glyph-name="colon" unicode=":" horiz-adv-x="452" 
d="M162 -13q-96 0 -95 84q0 47 32 79t80 32t72 -25q25 -25 25 -66t-32 -73t-82 -31zM173 818q0 42 32 74t80 32q47 0 71 -26q24 -25 24 -67q0 -41 -32 -73t-80 -32t-72 25q-23 25 -23 67z" />
    <glyph glyph-name="semicolon" unicode=";" horiz-adv-x="476" 
d="M19 -272q67 177 82 311q4 45 7 106l162 15l19 -24q-30 -218 -164 -408h-106zM190 836q0 48 34 82t88 35q54 -1 80 -31q27 -30 27 -78q-1 -48 -33 -80q-32 -34 -86 -34t-82 29t-28 77z" />
    <glyph glyph-name="less" unicode="&#x3c;" horiz-adv-x="845" 
d="M244 553l28 -13l437 -294l-85 -125l-553 369l18 124l656 367l50 -123l-519 -292z" />
    <glyph glyph-name="equal" unicode="=" horiz-adv-x="1025" 
d="M99 270l20 138h769l-20 -138h-769zM156 674l21 136h769l-21 -136h-769z" />
    <glyph glyph-name="greater" unicode="&#x3e;" horiz-adv-x="845" 
d="M244 981l553 -367l-19 -124l-655 -369l-52 123l519 294l32 13l-28 13l-436 292z" />
    <glyph glyph-name="question" unicode="?" horiz-adv-x="776" 
d="M359 89q0 -41 -30 -71q-31 -30 -77 -29q-46 0 -70 25t-24 66t30 72q30 30 78 30t70 -26q23 -26 23 -67zM592 968q0 82 -45 128t-128 45q-140 0 -250 -87l-3 2l22 152q110 84 258 84t236 -74t87 -205q0 -132 -56 -216q-56 -85 -188 -189t-153 -243l-154 -2q17 121 61 196
q45 75 140 146t134 126t39 137z" />
    <glyph glyph-name="at" unicode="@" horiz-adv-x="1448" 
d="M694 248q128 0 203 141l36 248q-54 74 -154 74q-101 0 -167 -78q-66 -77 -66 -183t40 -154t108 -48zM1039 136q-76 0 -114 36q-37 36 -33 98q-86 -143 -244 -143q-104 0 -173 78t-69 199q0 190 107 305t245 115t208 -74l17 56h106l-45 -316l-20 -159q-11 -74 48 -74
q76 0 123 98q47 97 47 271t-106 290t-313 115q-253 0 -423 -185t-171 -466q0 -214 121 -340t337 -126t369 133h5l54 -95q-183 -164 -451 -164t-424 157t-156 418q0 343 216 568t542 225q259 0 403 -149t144 -374q0 -285 -151 -423q-82 -74 -199 -74z" />
    <glyph glyph-name="A" unicode="A" horiz-adv-x="1135" 
d="M354 426h415l-121 477l-11 60l-28 -60zM877 0l-73 289h-525l-154 -289h-173l685 1253h74l348 -1253h-182z" />
    <glyph glyph-name="B" unicode="B" horiz-adv-x="1050" 
d="M451 132q330 0 329 257q0 86 -54 135t-164 49h-208l-64 -441h161zM583 1104q-93 0 -155 -6l-57 -402h150q128 0 198 62.5t70 174.5q1 171 -206 171zM951 397q0 -175 -126.5 -286t-377.5 -111h-345l174 1231q130 13 311.5 13t275.5 -79.5t94 -201.5q0 -224 -181 -302
q175 -65 175 -264z" />
    <glyph glyph-name="C" unicode="C" horiz-adv-x="1118" 
d="M687 -22q-268 0 -425.5 144t-157.5 410q0 324 191 526t494 202q194 0 332 -67l-23 -163l-5 -2q-143 78 -318 78q-220 0 -356 -158.5t-136 -376.5t117.5 -330.5t290.5 -112.5t303 79l6 -2l-24 -162q-127 -65 -289 -65z" />
    <glyph glyph-name="D" unicode="D" horiz-adv-x="1301" 
d="M519 153q261 0 399 149t138 411q0 179 -106.5 277.5t-307.5 98.5q-147 0 -212 -7l-132 -924q81 -5 221 -5zM668 1249q279 0 425.5 -138.5t146.5 -382.5q0 -341 -202 -535.5t-560 -194.5q-292 0 -376 6l175 1227q177 18 391 18z" />
    <glyph glyph-name="E" unicode="E" horiz-adv-x="990" 
d="M963 1071h-535l-50 -358h501l-24 -160h-499l-54 -391h553l-23 -162h-730l174 1231h709z" />
    <glyph glyph-name="F" unicode="F" horiz-adv-x="923" 
d="M953 1072h-525l-56 -405h447l-22 -155h-447l-73 -512h-175l174 1231h700z" />
    <glyph glyph-name="G" unicode="G" horiz-adv-x="1232" 
d="M853 1260q190 0 327 -67l-22 -163l-6 -2q-127 78 -346 78t-368 -157.5t-149 -410.5q0 -182 103 -290t289 -108q134 0 248 54l41 298h-277l14 143h442l-77 -551q-197 -102 -438 -102t-385.5 142t-144.5 390q0 333 209 539.5t540 206.5z" />
    <glyph glyph-name="H" unicode="H" horiz-adv-x="1325" 
d="M1087 1231h175l-173 -1231h-175l78 551h-636l-79 -551h-175l174 1231h175l-73 -522h637z" />
    <glyph glyph-name="I" unicode="I" horiz-adv-x="513" 
d="M102 0l174 1231h175l-174 -1231h-175z" />
    <glyph glyph-name="J" unicode="J" horiz-adv-x="655" 
d="M56 -6q-41 0 -95 6l22 149l6 2q26 -6 65 -6q220 0 261 285l113 801h177l-110 -786q-63 -451 -439 -451z" />
    <glyph glyph-name="K" unicode="K" horiz-adv-x="1126" 
d="M1197 1225l-676 -609l544 -610l-2 -6h-216l-493 549l-77 -549h-175l174 1231h175l-77 -548l615 548h206z" />
    <glyph glyph-name="L" unicode="L" horiz-adv-x="897" 
d="M300 147h525l-21 -147h-702l175 1231h175z" />
    <glyph glyph-name="M" unicode="M" horiz-adv-x="1526" 
d="M69 0l242 1231h158l291 -807l517 807h153l-106 -1231h-164l78 899h-4l-465 -713h-84l-270 726h-4l-175 -912h-167z" />
    <glyph glyph-name="N" unicode="N" horiz-adv-x="1314" 
d="M102 0l175 1238h75l601 -890h6l125 883h167l-175 -1237h-72l-604 892h-3l-127 -886h-168z" />
    <glyph glyph-name="O" unicode="O" horiz-adv-x="1398" 
d="M710.5 128q200.5 0 321 156.5t120.5 371t-111.5 333.5t-311 119t-320 -156.5t-120.5 -371.5t110.5 -333.5t311 -118.5zM699 -26q-273 0 -431 162t-158 417q0 313 180.5 511t452.5 198t430 -162t158 -417q0 -313 -179.5 -511t-452.5 -198z" />
    <glyph glyph-name="P" unicode="P" horiz-adv-x="1007" 
d="M492 588q162 0 249.5 75.5t87.5 217.5q0 97 -61.5 153.5t-169.5 56.5t-168 -4l-69 -487q71 -12 131 -12zM596 1242q199 0 304 -86.5t105 -246.5q0 -222 -140.5 -345t-374.5 -123q-71 0 -151 10l-63 -451h-174l174 1231q179 11 320 11z" />
    <glyph glyph-name="Q" unicode="Q" horiz-adv-x="1398" 
d="M710.5 128q200.5 0 321 156.5t120.5 371t-111.5 333.5t-311 119t-320 -156.5t-120.5 -371.5t110.5 -333.5t311 -118.5zM1331 666q0 -272 -154.5 -464.5t-409.5 -221.5q20 -91 80 -144.5t166 -79.5l2 -5l-79 -131q-153 35 -231 124.5t-102 233.5q-223 26 -358 183
t-135 392q0 313 180.5 511t452.5 198t430 -162t158 -434z" />
    <glyph glyph-name="R" unicode="R" horiz-adv-x="1061" 
d="M505 603q136 0 224 73.5t88 209.5q0 207 -225 207q-112 0 -162 -6l-69 -484h144zM998 916.5q0 -167.5 -82 -275t-214 -151.5l223 -484l-2 -6h-182l-207 462h-193l-65 -462h-174l174 1231q141 13 324.5 13t290.5 -80t107 -247.5z" />
    <glyph glyph-name="S" unicode="S" horiz-adv-x="994" 
d="M394 -24q-211 0 -344 82l24 178l6 2q132 -104 309 -104q134 0 214 54t80 140.5t-43.5 135t-175 110t-205 135t-73.5 187.5q0 175 126.5 270.5t314.5 95.5t304 -57l-22 -168l-6 -2q-109 71 -249 71q-288 0 -287 -175q0 -37 11 -63t56.5 -58.5t168.5 -94t189 -141
t66 -202.5q0 -182 -126.5 -289t-337.5 -107z" />
    <glyph glyph-name="T" unicode="T" horiz-adv-x="1009" 
d="M1087 1231l-22 -157h-382l-152 -1074h-177l154 1074h-391l23 157h947z" />
    <glyph glyph-name="U" unicode="U" horiz-adv-x="1273" 
d="M573 -26q-199 0 -311.5 104t-112.5 274q0 88 6 126l106 753h173l-103 -730q-7 -47 -7 -97q0 -134 72.5 -205.5t193.5 -71.5q162 0 249.5 89t115.5 285l103 730h169l-106 -753q-73 -504 -548 -504z" />
    <glyph glyph-name="V" unicode="V" horiz-adv-x="1118" 
d="M1205 1231l1 -6l-664 -1247h-106l-306 1247l2 6h185l204 -909l10 -76l28 76l474 909h172z" />
    <glyph glyph-name="W" unicode="W" horiz-adv-x="1712" 
d="M1789 1231l2 -6l-562 -1244h-131l-162 898l-5 48l-19 -48l-426 -898h-134l-218 1244l2 6h184l134 -928l4 -76l30 76l422 922h121l162 -907l6 -82l30 82l391 913h169z" />
    <glyph glyph-name="X" unicode="X" horiz-adv-x="1120" 
d="M1162 1225l-473 -590l333 -629l-2 -6h-203l-258 492l-386 -492h-208l-2 6l502 636l-309 583l2 6h205l235 -455l353 455h209z" />
    <glyph glyph-name="Y" unicode="Y" horiz-adv-x="1064" 
d="M380 0l74 516l-318 709l2 6h186l242 -550l395 550h178l2 -6l-515 -711l-73 -514h-173z" />
    <glyph glyph-name="Z" unicode="Z" horiz-adv-x="1048" 
d="M20 0l-11 61l812 1026h-661l19 144h884l9 -60l-817 -1026h681l-18 -145h-898z" />
    <glyph glyph-name="bracketleft" unicode="[" horiz-adv-x="567" 
d="M616 1273h-195l-201 -1441h193l-18 -128h-343l240 1698h343z" />
    <glyph glyph-name="backslash" unicode="\" horiz-adv-x="832" 
d="M676 -222h-158l-326 1620h158z" />
    <glyph glyph-name="bracketright" unicode="]" horiz-adv-x="567" 
d="M195 1402h343l-240 -1698h-343l19 128h192l205 1441h-194z" />
    <glyph glyph-name="asciicircum" unicode="^" horiz-adv-x="904" 
d="M618 1268l229 -624l-123 -52l-171 501l-7 28l-328 -529l-110 52l402 624h108z" />
    <glyph glyph-name="underscore" unicode="_" horiz-adv-x="876" 
d="M-13 -141l20 139h728l-18 -139h-730z" />
    <glyph glyph-name="grave" unicode="`" horiz-adv-x="446" 
d="M460 1063l-324 190l-2 22l121 133l268 -241z" />
    <glyph glyph-name="a" unicode="a" horiz-adv-x="1133" 
d="M483.5 132q97.5 0 175.5 58t104 171l60 406q-88 65 -228.5 65t-238 -116t-97.5 -325q0 -125 63.5 -192t161 -67zM894 -13q-141 0 -147 125q-110 -134 -287.5 -134t-280.5 104t-103 281q0 287 148 455.5t376 168.5q169 0 268 -71l15 48h143l-103 -724q-13 -93 51 -93
q35 0 63 19l6 -2l-21 -147q-56 -30 -128 -30z" />
    <glyph glyph-name="b" unicode="b" horiz-adv-x="1100" 
d="M505 132q143 0 240 116.5t97 313.5q0 132 -63.5 198.5t-169.5 66.5t-184.5 -68.5t-93.5 -177.5l-55 -402q86 -47 229 -47zM651 987q172 0 272.5 -104.5t100.5 -292.5q0 -277 -150 -444.5t-392.5 -167.5t-397.5 87l175 1262h177l-64 -458q107 118 279 118z" />
    <glyph glyph-name="c" unicode="c" horiz-adv-x="889" 
d="M503 -22q-186 0 -304.5 115.5t-118.5 316.5q0 261 150 419t388 158q149 0 255 -49l-24 -158l-6 -2q-117 54 -238 54q-156 0 -249 -111.5t-93 -266.5t73.5 -239.5t195.5 -84.5t233 64l6 -2l-23 -162q-107 -52 -245 -52z" />
    <glyph glyph-name="d" unicode="d" horiz-adv-x="1141" 
d="M487.5 132q102.5 0 181.5 63.5t96 163.5l58 408q-78 65 -216 65t-242 -118t-104 -314q0 -130 62 -199t164.5 -69zM977.5 147q33.5 0 63.5 26l3 -2l-22 -151q-54 -34 -128 -33q-138 0 -147 119q-110 -128 -304 -128q-158 0 -261.5 107t-103.5 289q0 274 158.5 443.5
t383.5 169.5q136 0 227 -56l56 396h177l-153 -1087q-7 -50 5 -71.5t45.5 -21.5z" />
    <glyph glyph-name="e" unicode="e" horiz-adv-x="1022" 
d="M784 585v28q0 220 -222 219q-97 0 -172 -66t-107 -181h501zM579 987q173 0 274.5 -101.5t101.5 -259.5q0 -84 -22 -179h-670v-17q0 -141 76 -219.5t197 -78.5q169 0 307 93l6 -2l-24 -165q-121 -80 -311 -80t-312 110.5t-122 346t144.5 394t354.5 158.5z" />
    <glyph glyph-name="f" unicode="f" horiz-adv-x="619" 
d="M620 1337q78 0 134 -19l-22 -153l-6 -1q-34 17 -93 16q-168 0 -195 -195l-4 -21h216l-21 -139h-214l-158 -1132h-179l160 1132h-124l20 139h125v2q26 186 123.5 278.5t237.5 92.5z" />
    <glyph glyph-name="g" unicode="g" horiz-adv-x="1098" 
d="M491 186q99 0 158.5 38.5t113.5 118.5l58 418q-84 73 -229 73t-235.5 -110.5t-90.5 -257t63 -213.5t162 -67zM391.5 -318q-206.5 0 -346.5 82l24 167l5 2q125 -95 296.5 -95t256 68t103.5 204l5 35q-112 -117 -285.5 -117t-269.5 104t-96 289q0 259 149 412.5t347 153.5
t295 -86l32 76h123l-123 -863q-30 -209 -169.5 -320.5t-346 -111.5z" />
    <glyph glyph-name="h" unicode="h" horiz-adv-x="1100" 
d="M648 987q164 0 253 -86.5t89 -232.5q0 -43 -5 -87l-82 -581h-175l80 566q2 15 2 43q0 218 -203 218q-86 0 -157.5 -50.5t-108.5 -158.5l-88 -618h-177l188 1327h177l-65 -459q108 119 272 119z" />
    <glyph glyph-name="i" unicode="i" horiz-adv-x="463" 
d="M76 0l138 964h177l-138 -964h-177zM337 1141q-48 0 -78 29q-30 30 -30 80t35.5 82.5t83.5 32.5q50 0 78 -29q28 -30 28 -80t-34.5 -82.5t-82.5 -32.5z" />
    <glyph glyph-name="j" unicode="j" horiz-adv-x="493" 
d="M-78 -317q-39 0 -99 10l22 152l6 2q26 -6 58 -5q95 0 143.5 57.5t64.5 171.5l129 893h173l-132 -932q-50 -349 -365 -349zM368.5 1141q-48.5 0 -78.5 29q-30 30 -29.5 80t35.5 82.5t83.5 32.5t77.5 -29q29 -30 29 -80t-34.5 -82.5t-83 -32.5z" />
    <glyph glyph-name="k" unicode="k" horiz-adv-x="973" 
d="M989 959l-499 -456l419 -497l-2 -6h-220l-372 438l-62 -438h-177l188 1327h177l-110 -770l444 407h212z" />
    <glyph glyph-name="l" unicode="l" horiz-adv-x="510" 
d="M303 -17q-232 0 -201 242l159 1102h173l-149 -1053q-17 -133 69 -133q44 0 78 19l6 -2l-23 -152q-56 -23 -112 -23z" />
    <glyph glyph-name="m" unicode="m" horiz-adv-x="1679" 
d="M1266 987q130 0 216 -80t86 -246q0 -50 -6 -91l-80 -570h-177l73 521q7 52 7 136t-51 126q-52 42 -140 42t-159 -69t-87 -186l-80 -570h-177l72 521q7 52 7 136t-51 126t-137 42t-155.5 -63.5t-89.5 -171.5l-84 -590h-177l138 964h143v-117q102 140 295 140
q99 0 175 -47.5t108 -146.5q109 194 331 194z" />
    <glyph glyph-name="n" unicode="n" horiz-adv-x="1102" 
d="M665 987q141 0 233 -83t92 -251q0 -43 -5 -83l-80 -570h-177l73 521q7 52 7 88q0 121 -58 169t-150 48.5t-167.5 -64t-95.5 -172.5l-84 -590h-177l138 964h143l-1 -126q108 149 309 149z" />
    <glyph glyph-name="o" unicode="o" horiz-adv-x="1124" 
d="M547 132q138 0 226.5 115.5t88.5 269.5t-73.5 234.5t-211.5 80.5t-226 -118t-88 -268t73 -232t211 -82zM516 -22q-192 0 -314 116t-122 323q0 248 148 409t359 161t334 -116.5t123 -343.5t-149.5 -388t-378.5 -161z" />
    <glyph glyph-name="p" unicode="p" horiz-adv-x="1102" 
d="M502.5 132q143.5 0 241.5 116.5t98 317.5q0 134 -63.5 200t-159.5 66t-177 -56.5t-103 -155.5l-60 -430q80 -58 223.5 -58zM642 987q176 0 279 -101.5t103 -289.5q0 -283 -151 -450.5t-381 -167.5q-145 0 -237 50l-46 -335h-177l180 1271h145v-91q109 114 285 114z" />
    <glyph glyph-name="q" unicode="q" horiz-adv-x="1100" 
d="M607 834q-140 0 -242 -119t-102 -311q0 -134 60.5 -203t151.5 -69t163.5 43t117.5 117l67 471q-76 71 -216 71zM435.5 -22q-171.5 0 -264.5 105t-93 295q0 270 160 439.5t376 169.5q169 0 254 -78l16 55h146l-181 -1271h-179l58 406q-121 -121 -292.5 -121z" />
    <glyph glyph-name="r" unicode="r" horiz-adv-x="700" 
d="M631 985q60 0 99 -17l-23 -158l-5 -2q-38 17 -88 17q-91 0 -165.5 -50.5t-118.5 -236.5l-77 -538h-177l138 964h143l-1 -119q98 140 275 140z" />
    <glyph glyph-name="s" unicode="s" horiz-adv-x="860" 
d="M333.5 -24q-192.5 0 -309.5 71l24 169l6 2q117 -91 307 -91q222 0 222 136q0 56 -44 86.5t-168.5 73.5t-185 102.5t-60.5 161.5q0 140 113.5 220t290.5 80t273 -47l-20 -154l-4 -2q-108 52 -232 52q-244 0 -244 -127q0 -47 41 -75.5t162 -68.5t187 -98.5t66 -159.5
q0 -160 -116 -245.5t-308.5 -85.5z" />
    <glyph glyph-name="t" unicode="t" horiz-adv-x="694" 
d="M498 147q66 0 131 26l4 -2l-22 -149q-63 -32 -174 -31.5t-187.5 63.5t-76.5 171q0 37 4 75l76 525h-182l20 139h181l33 228l175 33l2 -4l-35 -257h285l-21 -139h-285l-69 -499q-4 -30 -3.5 -72t39.5 -74.5t105 -32.5z" />
    <glyph glyph-name="u" unicode="u" horiz-adv-x="1079" 
d="M726 0v110q-110 -132 -307 -132q-147 0 -227 79t-80 217q0 41 7 98l84 592h177l-82 -571q-6 -39 -6 -88q0 -88 48.5 -132.5t134 -44.5t157.5 50.5t107 143.5l91 642h177l-138 -964h-143z" />
    <glyph glyph-name="v" unicode="v" horiz-adv-x="984" 
d="M1026 964l2 -5l-542 -968h-129l-258 968l2 5h189l168 -744l385 744h183z" />
    <glyph glyph-name="w" unicode="w" horiz-adv-x="1429" 
d="M1465 964l2 -5l-439 -959h-160l-99 722l-4 36l-331 -758h-160l-172 959l2 5h177l99 -707v-41l322 748h184l97 -705l4 -39l13 41l301 703h164z" />
    <glyph glyph-name="x" unicode="x" horiz-adv-x="960" 
d="M976 959l-395 -466l266 -487l-2 -6h-184l-197 374l-304 -374h-195l-2 6l415 491l-259 462l2 5h188l184 -351l287 351h194z" />
    <glyph glyph-name="y" unicode="y" horiz-adv-x="956" 
d="M95 -317q-61 0 -112 19l24 142l6 1q39 -15 102 -14q121 0 233 212l8 15l-257 901l2 5h188l178 -711l350 711h179l2 -5l-475 -899l-20 -40q-95 -181 -186.5 -259t-221.5 -78z" />
    <glyph glyph-name="z" unicode="z" horiz-adv-x="923" 
d="M884 879l-631 -730h559l-21 -149h-769l-7 82l624 733h-509l19 149h728z" />
    <glyph glyph-name="braceleft" unicode="{" horiz-adv-x="601" 
d="M605 1419h65l-20 -132h-39q-65 1 -98 -25t-44 -100l-58 -397q-13 -95 -79 -151t-125 -55l-2 -8q60 0 110 -57t37 -153l-56 -399q-11 -74 15 -99t91 -25h39l-17 -133h-65q-127 0 -183 60t-36 192l54 368q13 81 -32 129t-93 48l22 151q48 0 105 44t68 122l53 372
q19 130 90 189t198 59z" />
    <glyph glyph-name="bar" unicode="|" horiz-adv-x="480" 
d="M67 -188l218 1545h160l-218 -1545h-160z" />
    <glyph glyph-name="braceright" unicode="}" horiz-adv-x="603" 
d="M20 -315h-65l19 133h39q63 0 97 26t45 98l55 401q13 95 81 151t128 57l2 8q-60 -1 -111 55t-38 151l58 399q11 74 -17 98t-93 25h-41l20 132h64q127 0 181 -59t36 -187l-50 -372q-11 -83 33 -129t92 -46l-21 -151q-48 0 -106 -45t-69 -127l-54 -370q-19 -130 -89 -189
t-196 -59z" />
    <glyph glyph-name="asciitilde" unicode="~" horiz-adv-x="958" 
d="M643 583q93 0 107 78l6 4l106 -23q-15 -88 -76 -142t-133 -55q-72 0 -169 36q-96 37 -140 37t-73 -20t-36 -59l-2 -5l-114 17q13 91 76 148t141 57t171 -37q92 -36 136 -36z" />
    <glyph glyph-name="exclamdown" unicode="&#xa1;" horiz-adv-x="454" 
d="M28 -303l141 904h151l-119 -904h-173zM391 901q0 -41 -30 -71q-31 -30 -77 -29q-46 0 -70 25t-24 66q0 42 30 72t78 30t70 -26q23 -26 23 -67z" />
    <glyph glyph-name="cent" unicode="&#xa2;" horiz-adv-x="1005" 
d="M706 985q-186 0 -302 -116t-117 -305q0 -141 81 -226t227 -85t276 67l6 -5l-21 -149q-115 -56 -255 -64l-24 -175h-166l25 185q-160 32 -248 142t-87 278q0 238 132 398t350 196l28 185h165l-26 -177q125 -6 226 -52l-21 -147l-7 -6q-117 56 -242 56z" />
    <glyph glyph-name="sterling" unicode="&#xa3;" horiz-adv-x="1033" 
d="M248 694v23q0 271 141 407t348 136q168 0 274 -67l-24 -160l-6 -3q-104 72 -238 72t-212 -67t-95 -193q-9 -63 -10 -148h363l-18 -143h-347q-16 -245 -109 -404h584l-20 -147h-816l-3 11q181 229 188 540h-164l20 143h144z" />
    <glyph glyph-name="currency" unicode="&#xa4;" horiz-adv-x="1267" 
d="M668 974q-152 0 -246 -118t-94 -266q0 -150 79 -232t215 -82q166 0 261 118t95 268t-80 230q-79 82 -230 82zM1128 687q0 -205 -123 -363l112 -134l-134 -116l-108 131q-123 -77 -279 -77t-265 86l-156 -140l-101 116l159 140q-56 102 -56 234q0 203 123 361l-103 125
l134 117l101 -123q119 78 281 78t272 -94l154 139l101 -117l-160 -145q48 -93 48 -218z" />
    <glyph glyph-name="yen" unicode="&#xa5;" horiz-adv-x="1148" 
d="M1199 1249l-452 -623h227l-19 -136h-292l-21 -144h293l-19 -137h-292l-30 -209h-171l29 209h-284l18 137h287l20 144h-286l18 136h222l-279 623h193l246 -582l410 582h182z" />
    <glyph glyph-name="brokenbar" unicode="&#xa6;" horiz-adv-x="493" 
d="M74 -188l82 579h161l-82 -579h-161zM212 788l80 569h160l-80 -569h-160z" />
    <glyph glyph-name="section" unicode="&#xa7;" horiz-adv-x="951" 
d="M659 539q-49 45 -153 95t-176 98q-74 -69 -74 -144q0 -76 47 -122q48 -46 163 -98t173 -94q69 71 68 160q0 60 -48 105zM624 1290q182 0 273 -61l-18 -149l-4 -2q-91 67 -255 67q-102 0 -174 -46t-72 -135q0 -61 50 -97t180 -97t196 -127t66 -165q0 -153 -155 -266
q54 -60 54 -143q0 -157 -125 -251t-310 -94t-289 69l22 149l6 4q108 -78 279 -78q104 0 171 44q66 44 66 135q0 59 -68 107t-167 92q-128 62 -190 124t-61 159q0 155 158 264q-60 69 -60 157q0 158 122 249q123 91 305 91z" />
    <glyph glyph-name="dieresis" unicode="&#xa8;" horiz-adv-x="612" 
d="M588.5 1145q-46.5 0 -75.5 28q-29 27 -29 77t34.5 80.5t81 30.5t74.5 -28q28 -29 28 -77t-33.5 -79.5t-80 -31.5zM223.5 1145q-46.5 0 -75.5 28q-29 27 -29 77t34.5 80.5t81 30.5t74.5 -28q28 -29 28 -77t-33.5 -79.5t-80 -31.5z" />
    <glyph glyph-name="copyright" unicode="&#xa9;" horiz-adv-x="1234" 
d="M604 244q-104 0 -175 64q-70 64 -70 174q0 148 96 238t239 90q86 0 140 -26l-15 -110l-5 -2q-52 26 -131 26t-135 -54t-56 -130t42 -117t112 -41q71 0 132 33l4 -2l-17 -110q-57 -33 -161 -33zM559 74q215 0 351 149t136 377q0 175 -96 281q-97 106 -261 106
q-207 0 -345 -150t-137 -375q0 -172 95 -280t257 -108zM547 -24q-209 0 -333 133t-123 343q0 268 176 450t439 183q208 0 330 -133t122 -343q0 -269 -176 -451t-435 -182z" />
    <glyph glyph-name="ordfeminine" unicode="&#xaa;" horiz-adv-x="843" 
d="M387 747q53 0 112.5 29.5t96.5 76.5l11 80q-65 26 -153 26q-179 0 -178 -119q0 -43 29 -68t82 -25zM346 633q-93 0 -151.5 52t-58.5 138q0 125 90.5 185.5t209.5 60.5t186 -30l4 26q26 190 -170 190q-112 0 -201 -45l-4 4l17 106q69 48 209 48q322 0 275 -297l-33 -235
q-11 -71 35 -71q28 0 43 13l4 -2l-15 -111q-39 -22 -77 -23q-112 0 -117 101q-110 -110 -246 -110z" />
    <glyph glyph-name="guillemotleft" unicode="&#xab;" horiz-adv-x="994" 
d="M821 179l-227 353l326 326h175l-2 -16l-311 -317l208 -331l-1 -15h-168zM432 179l-227 353l326 326h175l-2 -16l-311 -317l208 -331l-1 -15h-168z" />
    <glyph glyph-name="uni00AD" unicode="&#xad;" horiz-adv-x="752" 
d="M125 469l22 145h497l-20 -145h-499z" />
    <glyph glyph-name="registered" unicode="&#xae;" horiz-adv-x="1143" 
d="M618 879q102 0 103 84q0 61 -71 61t-86 -2l-20 -143h74zM834 979q0 -132 -110 -177l84 -160h-121l-74 142h-82l-21 -142h-106l65 475q97 4 184 4q181 -1 181 -142zM570 471q190 0 308 131t118 331q0 151 -84 245t-229 94q-181 0 -303 -132t-121 -328q0 -151 84 -246
t227 -95zM700 1365q186 1 295 -117t109 -306q0 -240 -155 -402t-389 -162q-188 0 -298 118t-111 306q0 238 157 400t392 163z" />
    <glyph glyph-name="macron" unicode="&#xaf;" horiz-adv-x="629" 
d="M140 1156l18 131h525l-18 -131h-525z" />
    <glyph glyph-name="degree" unicode="&#xb0;" horiz-adv-x="647" 
d="M407 871q59 0 96 41t37 100t-37 100q-37 40 -96 40t-97 -40t-38 -101q0 -60 38 -100t97 -40zM407 773q-103 0 -173 68t-70 170t70 170t174 68t172 -68t68 -170t-69 -170t-172 -68z" />
    <glyph glyph-name="plusminus" unicode="&#xb1;" horiz-adv-x="981" 
d="M873 501h-311l-39 -279h302l-21 -136h-737l21 136h299l41 279h-313l19 132h313l46 330h134l-46 -330h311z" />
    <glyph glyph-name="uni00B2" unicode="&#xb2;" horiz-adv-x="627" 
d="M99 562q0 169 206 313q111 75 145 111t34 77q0 76 -114 76t-204 -72l-2 2l18 121q86 73 229 72q95 0 160 -45q64 -46 64 -129t-47 -145q-46 -61 -168 -139t-139 -124h322l-17 -118h-487z" />
    <glyph glyph-name="uni00B3" unicode="&#xb3;" horiz-adv-x="605" 
d="M592 784q0 -106 -80 -171q-80 -66 -210 -66t-214 49l18 115l2 2q61 -52 197 -52q71 0 115 34t44 94q0 82 -107 82h-115l15 99h84q134 0 134 97q-1 80 -115 80t-179 -39h-2l15 115q74 39 180 39t171 -43q66 -43 66 -139t-101 -151q82 -39 82 -145z" />
    <glyph glyph-name="acute" unicode="&#xb4;" horiz-adv-x="444" 
d="M205 1056l-69 102l255 253l128 -126l-1 -23z" />
    <glyph glyph-name="paragraph" unicode="&#xb6;" horiz-adv-x="1053" 
d="M601 1123h453l-23 -157h-111l-168 -1173h-50l166 1173h-118l-165 -1173h-168l88 605q-225 0 -328 88q-101 88 -75 268t154 274t345 95z" />
    <glyph glyph-name="periodcentered" unicode="&#xb7;" horiz-adv-x="439" 
d="M320 460q0 -42 -30 -73t-80 -31q-96 0 -96 82q0 46 32 80t80 34t71 -25t23 -67z" />
    <glyph glyph-name="cedilla" unicode="&#xb8;" horiz-adv-x="376" 
d="M15 -439q-60 0 -110 18l15 104l4 2q38 -15 86 -15t81.5 22.5t33.5 63.5q0 60 -71 60q-41 0 -84 -13l-2 2l13 85l79 110h113l-65 -91q11 3 55 3t80 -34t36 -103q0 -110 -75 -162t-189 -52z" />
    <glyph glyph-name="uni00B9" unicode="&#xb9;" horiz-adv-x="430" 
d="M207 562l72 503l-156 -56l20 149l285 101h17l-97 -697h-141z" />
    <glyph glyph-name="ordmasculine" unicode="&#xba;" horiz-adv-x="895" 
d="M739 1034q0 226 -199 226q-99 0 -166 -84t-67 -228q-1 -95 51 -149t150 -54q98 -1 165 85q66 86 66 204zM566 1389q140 0 234 -85t94 -263q0 -177 -120 -301t-278 -124t-250 85q-91 85 -91 265t115 302q115 121 296 121z" />
    <glyph glyph-name="guillemotright" unicode="&#xbb;" horiz-adv-x="992" 
d="M711 858l227 -353l-325 -326h-175l1 16l311 317l-208 331l2 15h167zM324 858l227 -353l-326 -326h-175l2 16l311 317l-208 331l1 15h168z" />
    <glyph glyph-name="onequarter" unicode="&#xbc;" horiz-adv-x="1321" 
d="M810 222h194l42 296zM1231 222l-15 -95h-97l-19 -127h-130l19 127h-350l7 59l438 514h117l-69 -478h99zM1004 1238h132l-933 -1260h-130zM207 562l72 503l-156 -56l20 149l285 101h17l-97 -697h-141z" />
    <glyph glyph-name="onehalf" unicode="&#xbd;" horiz-adv-x="1329" 
d="M713 0q0 169 207 313q110 75 144 111t34 77q0 76 -114 76t-204 -72l-2 1l19 121q86 73 229 73q95 0 159 -46t64 -128q-1 -82 -47 -145q-46 -62 -168 -140t-138 -124h322l-17 -117h-488zM34 -22l930 1260h133l-933 -1260h-130zM229 562l73 503l-157 -56l21 149l285 101h16
l-96 -697h-142z" />
    <glyph glyph-name="threequarters" unicode="&#xbe;" horiz-adv-x="1381" 
d="M868 222h193l43 296zM1288 222l-15 -95h-96l-19 -127h-130l18 127h-350l8 59l437 514h118l-69 -478h98zM1108 1238h132l-933 -1260h-130zM592 784q0 -106 -80 -171q-80 -66 -210 -66t-214 49l18 115l2 2q61 -52 197 -52q71 0 115 34t44 94q0 82 -107 82h-115l15 99h84
q134 0 134 97q-1 80 -115 80t-179 -39h-2l15 115q74 39 180 39t171 -43q66 -43 66 -139t-101 -151q82 -39 82 -145z" />
    <glyph glyph-name="questiondown" unicode="&#xbf;" horiz-adv-x="763" 
d="M315 8q1 -82 45 -127t128 -45q140 0 249 88l4 -2l-22 -153q-110 -84 -258 -84t-236 74q-87 74 -87 206t56 216t188 188t152 244l155 1q-17 -121 -62 -196t-140 -146t-133 -126q-38 -56 -39 -138zM654 989q46 1 70 -25t24 -67t-30 -71t-77 -31q-49 0 -71 26t-22 67t29 71
q31 30 77 30z" />
    <glyph glyph-name="Agrave" unicode="&#xc0;" horiz-adv-x="1135" 
d="M354 426h415l-121 477l-11 60l-28 -60zM877 0l-73 289h-525l-154 -289h-173l685 1253h74l348 -1253h-182zM836 1303l-350 155l-8 22l114 140l292 -218z" />
    <glyph glyph-name="Aacute" unicode="&#xc1;" horiz-adv-x="1135" 
d="M354 426h415l-121 477l-11 60l-28 -60zM877 0l-73 289h-525l-154 -289h-173l685 1253h74l348 -1253h-182zM888 1441l-361 -140l-45 101l311 207l103 -146z" />
    <glyph glyph-name="Acircumflex" unicode="&#xc2;" horiz-adv-x="1135" 
d="M354 426h415l-121 477l-11 60l-28 -60zM877 0l-73 289h-525l-154 -289h-173l685 1253h74l348 -1253h-182zM698 1450l-212 -145l-56 84l248 212h80l192 -212l-73 -84z" />
    <glyph glyph-name="Atilde" unicode="&#xc3;" horiz-adv-x="1135" 
d="M354 426h415l-121 477l-11 60l-28 -60zM877 0l-73 289h-525l-154 -289h-173l685 1253h74l348 -1253h-182zM583 1553q65 0 135 -33.5t100.5 -33.5t55.5 21.5t31 56.5l4 4l109 -38q-15 -86 -71.5 -138.5t-134.5 -52.5q-41 0 -115.5 33.5t-108.5 33.5t-57.5 -22.5
t-27.5 -57.5l-4 -2l-112 33q15 86 73 141t123 55z" />
    <glyph glyph-name="Adieresis" unicode="&#xc4;" horiz-adv-x="1135" 
d="M354 426h415l-121 477l-11 60l-28 -60zM877 0l-73 289h-525l-154 -289h-173l685 1253h74l348 -1253h-182zM888 1354q-43 0 -69 25t-26 69t31.5 73.5t74.5 29.5t68 -26q25 -25 25 -69t-30.5 -73t-73.5 -29zM510 1354q-43 0 -69 25t-26 69t31.5 73.5t74.5 29.5t68 -26
q25 -25 25 -69t-30.5 -73t-73.5 -29z" />
    <glyph glyph-name="Aring" unicode="&#xc5;" horiz-adv-x="1135" 
d="M354 426h415l-121 477l-11 60l-28 -60zM877 0l-73 289h-525l-154 -289h-173l685 1253h74l348 -1253h-182zM695 1523q-36 0 -61 -24t-25 -61t22 -57t58.5 -20t61.5 24t25 60.5t-22.5 57t-58.5 20.5zM685.5 1268q-80.5 0 -129 44.5t-48.5 121t56 129.5t136 53t128.5 -43.5
t48.5 -120t-55.5 -130.5t-136 -54z" />
    <glyph glyph-name="AE" unicode="&#xc6;" horiz-adv-x="1470" 
d="M410 478h311l78 557l-121 -180zM1447 1087h-466l-52 -376h432l-22 -143h-430l-58 -423h482l-19 -145h-662l50 354h-382l-253 -354h-179l888 1231h691z" />
    <glyph glyph-name="Ccedilla" unicode="&#xc7;" horiz-adv-x="1118" 
d="M789 1260q194 0 332 -67l-23 -163l-5 -2q-143 78 -318 78q-220 0 -356 -158.5t-136 -376.5t117.5 -330.5t290.5 -112.5t303 79l6 -2l-24 -162q-125 -65 -285 -65l-49 -69q11 3 55 3t80.5 -34t36.5 -103q0 -110 -75.5 -162t-189.5 -52q-60 0 -110 18l15 104l4 2
q38 -15 86 -15t81.5 22.5t33.5 63.5q0 60 -71 60q-41 0 -83 -13l-2 2l13 85l67 93q-223 28 -351 168.5t-128 380.5q0 324 191 526t494 202z" />
    <glyph glyph-name="Egrave" unicode="&#xc8;" horiz-adv-x="990" 
d="M963 1071h-535l-50 -358h501l-24 -160h-499l-54 -391h553l-23 -162h-730l174 1231h709zM804 1303l-350 155l-7 22l113 140l293 -218z" />
    <glyph glyph-name="Eacute" unicode="&#xc9;" horiz-adv-x="990" 
d="M963 1071h-535l-50 -358h501l-24 -160h-499l-54 -391h553l-23 -162h-730l174 1231h709zM856 1441l-361 -140l-44 101l310 207l103 -146z" />
    <glyph glyph-name="Ecircumflex" unicode="&#xca;" horiz-adv-x="990" 
d="M963 1071h-535l-50 -358h501l-24 -160h-499l-54 -391h553l-23 -162h-730l174 1231h709zM667 1450l-213 -145l-56 84l248 212h80l192 -212l-73 -84z" />
    <glyph glyph-name="Edieresis" unicode="&#xcb;" horiz-adv-x="990" 
d="M963 1071h-535l-50 -358h501l-24 -160h-499l-54 -391h553l-23 -162h-730l174 1231h709zM856.5 1354q-42.5 0 -69 25t-26.5 69t32 73.5t74.5 29.5t68.5 -26q26 -25 25.5 -69t-31.5 -73t-73.5 -29zM478.5 1354q-42.5 0 -68.5 25t-26 69t31.5 73.5t74 29.5t68.5 -26
q26 -25 25.5 -69t-31.5 -73t-73.5 -29z" />
    <glyph glyph-name="Igrave" unicode="&#xcc;" horiz-adv-x="513" 
d="M102 0l174 1231h175l-174 -1231h-175zM532 1303l-350 155l-7 22l114 140l292 -218z" />
    <glyph glyph-name="Iacute" unicode="&#xcd;" horiz-adv-x="513" 
d="M102 0l174 1231h175l-174 -1231h-175zM223 1301l-44 101l311 207l102 -146l-7 -22z" />
    <glyph glyph-name="Icircumflex" unicode="&#xce;" horiz-adv-x="513" 
d="M102 0l174 1231h175l-174 -1231h-175zM182 1305l-55 84l247 212h80l192 -212l-73 -84l-178 145z" />
    <glyph glyph-name="Idieresis" unicode="&#xcf;" horiz-adv-x="513" 
d="M102 0l174 1231h175l-174 -1231h-175zM584.5 1354q-42.5 0 -68.5 25t-26 69t31.5 73.5t74.5 29.5t68 -26q25 -25 25 -69t-31 -73t-73.5 -29zM206.5 1354q-42.5 0 -68.5 25t-26 69t31.5 73.5t74.5 29.5t68 -26q25 -25 25 -69t-31 -73t-73.5 -29z" />
    <glyph glyph-name="Eth" unicode="&#xd0;" horiz-adv-x="1301" 
d="M519 153q261 0 399 149t138 411q0 179 -106.5 277.5t-307.5 98.5q-147 0 -212 -7l-58 -408h183l-19 -128h-182l-56 -388q81 -5 221 -5zM668 1249q279 0 425.5 -138.5t146.5 -382.5q0 -341 -202 -535.5t-560 -194.5q-292 0 -376 6l79 542h-159l19 128h156l80 557
q177 18 391 18z" />
    <glyph glyph-name="Ntilde" unicode="&#xd1;" horiz-adv-x="1314" 
d="M102 0l175 1238h75l601 -890h6l125 883h167l-175 -1237h-72l-604 892h-3l-127 -886h-168zM683 1553q65 0 135 -33.5t101 -33.5t56 21.5t30 56.5l4 4l110 -38q-15 -86 -72 -138.5t-135 -52.5q-41 0 -115.5 33.5t-108 33.5t-57.5 -22.5t-28 -57.5l-3 -2l-112 33
q15 86 72.5 141t122.5 55z" />
    <glyph glyph-name="Ograve" unicode="&#xd2;" horiz-adv-x="1398" 
d="M710.5 128q200.5 0 321 156.5t120.5 371t-111.5 333.5t-311 119t-320 -156.5t-120.5 -371.5t110.5 -333.5t311 -118.5zM699 -26q-273 0 -431 162t-158 417q0 313 180.5 511t452.5 198t430 -162t158 -417q0 -313 -179.5 -511t-452.5 -198zM912 1298l-350 154l-7 23
l113 139l293 -218z" />
    <glyph glyph-name="Oacute" unicode="&#xd3;" horiz-adv-x="1398" 
d="M710.5 128q200.5 0 321 156.5t120.5 371t-111.5 333.5t-311 119t-320 -156.5t-120.5 -371.5t110.5 -333.5t311 -118.5zM699 -26q-273 0 -431 162t-158 417q0 313 180.5 511t452.5 198t430 -162t158 -417q0 -313 -179.5 -511t-452.5 -198zM603 1296l-44 100l310 207
l103 -145l-8 -23z" />
    <glyph glyph-name="Ocircumflex" unicode="&#xd4;" horiz-adv-x="1398" 
d="M710.5 128q200.5 0 321 156.5t120.5 371t-111.5 333.5t-311 119t-320 -156.5t-120.5 -371.5t110.5 -333.5t311 -118.5zM699 -26q-273 0 -431 162t-158 417q0 313 180.5 511t452.5 198t430 -162t158 -417q0 -313 -179.5 -511t-452.5 -198zM562 1300l-56 83l248 213h80
l192 -213l-73 -83l-178 145z" />
    <glyph glyph-name="Otilde" unicode="&#xd5;" horiz-adv-x="1398" 
d="M710.5 128q200.5 0 321 156.5t120.5 371t-111.5 333.5t-311 119t-320 -156.5t-120.5 -371.5t110.5 -333.5t311 -118.5zM699 -26q-273 0 -431 162t-158 417q0 313 180.5 511t452.5 198t430 -162t158 -417q0 -313 -179.5 -511t-452.5 -198zM659 1547q65 0 135 -33.5
t100.5 -33.5t56 21.5t30.5 56.5l4 4l110 -37q-15 -86 -72 -139t-135 -53q-43 0 -115.5 33.5t-107 33.5t-58.5 -22.5t-28 -57.5l-4 -2l-111 34q15 86 72.5 140.5t122.5 54.5z" />
    <glyph glyph-name="Odieresis" unicode="&#xd6;" horiz-adv-x="1398" 
d="M710.5 128q200.5 0 321 156.5t120.5 371t-111.5 333.5t-311 119t-320 -156.5t-120.5 -371.5t110.5 -333.5t311 -118.5zM699 -26q-273 0 -431 162t-158 417q0 313 180.5 511t452.5 198t430 -162t158 -417q0 -313 -179.5 -511t-452.5 -198zM964.5 1348q-42.5 0 -69 25
t-26.5 69.5t32 73.5t74.5 29t68 -26t25.5 -69.5t-31 -72.5t-73.5 -29zM586.5 1348q-42.5 0 -68.5 25t-26 69.5t31.5 73.5t74 29t68 -26t25.5 -69.5t-31 -72.5t-73.5 -29z" />
    <glyph glyph-name="multiply" unicode="&#xd7;" horiz-adv-x="923" 
d="M883 814l-310 -276l220 -270l-115 -93l-214 266l-304 -270l-99 112l308 274l-216 266l115 93l212 -261l304 270z" />
    <glyph glyph-name="Oslash" unicode="&#xd8;" horiz-adv-x="1398" 
d="M704 128q207 0 327.5 156.5t120.5 361.5t-91 318l-571 -787q91 -49 214 -49zM289 588.5q0 -206.5 96 -327.5l576 791q-93 56 -224 56q-207 0 -327.5 -156.5t-120.5 -363zM1331 683q0 -313 -179.5 -511t-468.5 -198q-164 0 -292 69l-104 -144h-151v17l149 205
q-175 160 -175 432q0 313 180.5 511t467.5 198q169 0 301 -74l101 139h156v-13l-151 -206q166 -162 166 -425z" />
    <glyph glyph-name="Ugrave" unicode="&#xd9;" horiz-adv-x="1273" 
d="M573 -26q-199 0 -311.5 104t-112.5 274q0 88 6 126l106 753h173l-103 -730q-7 -47 -7 -97q0 -134 72.5 -205.5t193.5 -71.5q162 0 249.5 89t115.5 285l103 730h169l-106 -753q-73 -504 -548 -504zM901 1303l-350 155l-7 22l113 140l293 -218z" />
    <glyph glyph-name="Uacute" unicode="&#xda;" horiz-adv-x="1273" 
d="M573 -26q-199 0 -311.5 104t-112.5 274q0 88 6 126l106 753h173l-103 -730q-7 -47 -7 -97q0 -134 72.5 -205.5t193.5 -71.5q162 0 249.5 89t115.5 285l103 730h169l-106 -753q-73 -504 -548 -504zM592 1301l-45 101l311 207l103 -146l-8 -22z" />
    <glyph glyph-name="Ucircumflex" unicode="&#xdb;" horiz-adv-x="1273" 
d="M573 -26q-199 0 -311.5 104t-112.5 274q0 88 6 126l106 753h173l-103 -730q-7 -47 -7 -97q0 -134 72.5 -205.5t193.5 -71.5q162 0 249.5 89t115.5 285l103 730h169l-106 -753q-73 -504 -548 -504zM551 1305l-56 84l248 212h80l192 -212l-73 -84l-179 145z" />
    <glyph glyph-name="Udieresis" unicode="&#xdc;" horiz-adv-x="1273" 
d="M573 -26q-199 0 -311.5 104t-112.5 274q0 88 6 126l106 753h173l-103 -730q-7 -47 -7 -97q0 -134 72.5 -205.5t193.5 -71.5q162 0 249.5 89t115.5 285l103 730h169l-106 -753q-73 -504 -548 -504zM953 1354q-43 0 -69 25t-26 69t32 73.5t74 29.5t68 -26q26 -25 26 -69
t-31 -73t-74 -29zM575 1354q-43 0 -69 25t-26 69t32 73.5t74 29.5t68 -26q26 -25 26 -69t-31 -73t-74 -29z" />
    <glyph glyph-name="Yacute" unicode="&#xdd;" horiz-adv-x="1064" 
d="M380 0l74 516l-318 709l2 6h186l242 -550l395 550h178l2 -6l-515 -711l-73 -514h-173zM501 1301l-45 101l311 207l102 -146l-7 -22z" />
    <glyph glyph-name="Thorn" unicode="&#xde;" horiz-adv-x="1018" 
d="M449 371q164 0 249.5 75t85.5 217q0 97 -62.5 151.5t-185.5 54.5q-73 0 -139 -7l-69 -486q71 -5 121 -5zM577 1020q177 0 281.5 -82t104.5 -242q0 -222 -139 -346.5t-375 -124.5q-80 0 -140 8l-33 -233h-174l174 1231h173l-32 -218q89 7 160 7z" />
    <glyph glyph-name="germandbls" unicode="&#xdf;" horiz-adv-x="1115" 
d="M699.5 -24q-139.5 0 -234.5 65l25 166l3 2q69 -82 200 -82q78 0 121.5 34t43.5 88.5t-27 88t-99 86.5t-107 97.5t-35 107t21.5 112.5t42 73.5t58.5 59.5q38 34 54 54q48 57 48 121t-46 97.5t-124 33.5q-225 0 -262 -273l-129 -907h-177l133 925q28 197 149.5 304.5
t281.5 107.5t255 -66t95 -195q0 -65 -25 -122t-46.5 -81t-80 -83t-58.5 -102.5t26 -73t94 -84.5t100.5 -108t32.5 -141q0 -138 -97 -221.5t-236.5 -83.5z" />
    <glyph glyph-name="agrave" unicode="&#xe0;" horiz-adv-x="1133" 
d="M483.5 132q97.5 0 175.5 58t104 171l60 406q-88 65 -228.5 65t-238 -116t-97.5 -325q0 -125 63.5 -192t161 -67zM894 -13q-141 0 -147 125q-110 -134 -287.5 -134t-280.5 104t-103 281q0 287 148 455.5t376 168.5q169 0 268 -71l15 48h143l-103 -724q-13 -93 51 -93
q35 0 63 19l6 -2l-21 -147q-56 -30 -128 -30zM769 1063l-324 190l-2 22l121 133l268 -241z" />
    <glyph glyph-name="aacute" unicode="&#xe1;" horiz-adv-x="1133" 
d="M483.5 132q97.5 0 175.5 58t104 171l60 406q-88 65 -228.5 65t-238 -116t-97.5 -325q0 -125 63.5 -192t161 -67zM894 -13q-141 0 -147 125q-110 -134 -287.5 -134t-280.5 104t-103 281q0 287 148 455.5t376 168.5q169 0 268 -71l15 48h143l-103 -724q-13 -93 51 -93
q35 0 63 19l6 -2l-21 -147q-56 -30 -128 -30zM864 1262l-313 -206l-69 102l255 253l129 -126z" />
    <glyph glyph-name="acircumflex" unicode="&#xe2;" horiz-adv-x="1133" 
d="M483.5 132q97.5 0 175.5 58t104 171l60 406q-88 65 -228.5 65t-238 -116t-97.5 -325q0 -125 63.5 -192t161 -67zM894 -13q-141 0 -147 125q-110 -134 -287.5 -134t-280.5 104t-103 281q0 287 148 455.5t376 168.5q169 0 268 -71l15 48h143l-103 -724q-13 -93 51 -93
q35 0 63 19l6 -2l-21 -147q-56 -30 -128 -30zM668 1229l-206 -168l-67 75l251 255h82l181 -255l-88 -75z" />
    <glyph glyph-name="atilde" unicode="&#xe3;" horiz-adv-x="1133" 
d="M483.5 132q97.5 0 175.5 58t104 171l60 406q-88 65 -228.5 65t-238 -116t-97.5 -325q0 -125 63.5 -192t161 -67zM894 -13q-141 0 -147 125q-110 -134 -287.5 -134t-280.5 104t-103 281q0 287 148 455.5t376 168.5q169 0 268 -71l15 48h143l-103 -724q-13 -93 51 -93
q35 0 63 19l6 -2l-21 -147q-56 -30 -128 -30zM532.5 1346q63.5 0 130.5 -35.5t102 -35.5q69 0 80 77l6 3l119 -26q-15 -97 -71 -147t-119 -50t-133 35.5t-100.5 35.5t-52 -21t-27.5 -56l-5 -3l-108 26q11 86 63 141.5t115.5 55.5z" />
    <glyph glyph-name="adieresis" unicode="&#xe4;" horiz-adv-x="1133" 
d="M483.5 132q97.5 0 175.5 58t104 171l60 406q-88 65 -228.5 65t-238 -116t-97.5 -325q0 -125 63.5 -192t161 -67zM894 -13q-141 0 -147 125q-110 -134 -287.5 -134t-280.5 104t-103 281q0 287 148 455.5t376 168.5q169 0 268 -71l15 48h143l-103 -724q-13 -93 51 -93
q35 0 63 19l6 -2l-21 -147q-56 -30 -128 -30zM839.5 1145q-46.5 0 -75.5 28t-29 77.5t34.5 80t81 30.5t74.5 -28t28 -76.5t-33.5 -80t-80 -31.5zM474.5 1145q-46.5 0 -75 28t-28.5 77.5t34 80t80.5 30.5t74.5 -28t28 -76.5t-33.5 -80t-80 -31.5z" />
    <glyph glyph-name="aring" unicode="&#xe5;" horiz-adv-x="1133" 
d="M483.5 132q97.5 0 175.5 58t104 171l60 406q-88 65 -228.5 65t-238 -116t-97.5 -325q0 -125 63.5 -192t161 -67zM894 -13q-141 0 -147 125q-110 -134 -287.5 -134t-280.5 104t-103 281q0 287 148 455.5t376 168.5q169 0 268 -71l15 48h143l-103 -724q-13 -93 51 -93
q35 0 63 19l6 -2l-21 -147q-56 -30 -128 -30zM653 1322q-37 0 -62 -27t-25 -68t23.5 -63.5t60.5 -22.5t62 27t25 68t-23.5 63.5t-60.5 22.5zM644.5 1048q-81.5 0 -130.5 46.5t-49 128t56 137t137.5 55.5t130.5 -46.5t49 -127t-56 -137t-137.5 -56.5z" />
    <glyph glyph-name="ae" unicode="&#xe6;" horiz-adv-x="1716" 
d="M1478 585v28q0 220 -221 219q-97 0 -172.5 -66t-107.5 -181h501zM484.5 132q98.5 0 182 93t111.5 263q13 141 77 249q-89 95 -243 95t-253.5 -115.5t-99.5 -321.5q0 -127 63.5 -195t162 -68zM1264.5 987q181.5 0 283.5 -101.5t102 -259.5q0 -84 -23 -179h-670v-17
q0 -141 77.5 -219.5t194.5 -78.5q171 0 309 93l5 -3l-24 -164q-121 -80 -284 -80q-326 0 -423 236q-119 -236 -361 -236q-169 0 -272 105t-103 288q0 281 150 448.5t374 167.5q125 0 204.5 -30t146.5 -97q132 127 313.5 127z" />
    <glyph glyph-name="ccedilla" unicode="&#xe7;" horiz-adv-x="889" 
d="M618 987q149 0 255 -49l-24 -158l-6 -2q-117 54 -238 54q-156 0 -249 -111.5t-93 -266.5t73.5 -239.5t195.5 -84.5t233 64l6 -2l-23 -162q-97 -47 -210 -52l-50 -69q11 3 55 3t80 -34t36 -103q0 -110 -75.5 -162t-188.5 -52q-60 0 -110 18l15 104l3 2q37 -15 85 -15
t82.5 22.5t34.5 63.5q0 60 -71 60q-41 0 -84 -13l-2 2l13 85l65 93q-156 22 -251 134t-95 293q0 261 150 419t388 158z" />
    <glyph glyph-name="egrave" unicode="&#xe8;" horiz-adv-x="1022" 
d="M784 585v28q0 220 -222 219q-97 0 -172 -66t-107 -181h501zM579 987q173 0 274.5 -101.5t101.5 -259.5q0 -84 -22 -179h-670v-17q0 -141 76 -219.5t197 -78.5q169 0 307 93l6 -2l-24 -165q-121 -80 -311 -80t-312 110.5t-122 346t144.5 394t354.5 158.5zM715 1063
l-324 190l-2 22l121 133l268 -241z" />
    <glyph glyph-name="eacute" unicode="&#xe9;" horiz-adv-x="1022" 
d="M784 585v28q0 220 -222 219q-97 0 -172 -66t-107 -181h501zM579 987q173 0 274.5 -101.5t101.5 -259.5q0 -84 -22 -179h-670v-17q0 -141 76 -219.5t197 -78.5q169 0 307 93l6 -2l-24 -165q-121 -80 -311 -80t-312 110.5t-122 346t144.5 394t354.5 158.5zM810 1262
l-313 -206l-69 102l255 253l129 -126z" />
    <glyph glyph-name="ecircumflex" unicode="&#xea;" horiz-adv-x="1022" 
d="M784 585v28q0 220 -222 219q-97 0 -172 -66t-107 -181h501zM579 987q173 0 274.5 -101.5t101.5 -259.5q0 -84 -22 -179h-670v-17q0 -141 76 -219.5t197 -78.5q169 0 307 93l6 -2l-24 -165q-121 -80 -311 -80t-312 110.5t-122 346t144.5 394t354.5 158.5zM614 1229
l-206 -168l-67 75l251 255h82l181 -255l-88 -75z" />
    <glyph glyph-name="edieresis" unicode="&#xeb;" horiz-adv-x="1022" 
d="M784 585v28q0 220 -222 219q-97 0 -172 -66t-107 -181h501zM579 987q173 0 274.5 -101.5t101.5 -259.5q0 -84 -22 -179h-670v-17q0 -141 76 -219.5t197 -78.5q169 0 307 93l6 -2l-24 -165q-121 -80 -311 -80t-312 110.5t-122 346t144.5 394t354.5 158.5zM785.5 1145
q-46.5 0 -75.5 28t-29 77.5t34.5 80t81 30.5t74.5 -28t28 -76.5t-33.5 -80t-80 -31.5zM420.5 1145q-46.5 0 -75 28t-28.5 77.5t34 80t80.5 30.5t74.5 -28t28 -76.5t-33.5 -80t-80 -31.5z" />
    <glyph glyph-name="igrave" unicode="&#xec;" horiz-adv-x="463" 
d="M76 0l136 964h177l-136 -964h-177zM432 1043l-298 216l-2 22l138 125l236 -274z" />
    <glyph glyph-name="iacute" unicode="&#xed;" horiz-adv-x="463" 
d="M76 0l138 964h177l-138 -964h-177zM205 1056l-69 102l255 253l128 -126l-1 -23z" />
    <glyph glyph-name="icircumflex" unicode="&#xee;" horiz-adv-x="463" 
d="M76 0l138 964h177l-138 -964h-177zM147 1052l-65 74l248 257h81l181 -257l-86 -74l-160 167z" />
    <glyph glyph-name="idieresis" unicode="&#xef;" horiz-adv-x="463" 
d="M76 0l138 964h177l-138 -964h-177zM471 1145q-47 0 -75 28q-28 27 -29 77q0 50 34 80t81 31q47 0 75 -28q28 -29 28 -77q1 -48 -33 -80t-81 -31zM181 1145q-47 0 -76 28q-29 27 -29 77t34 80t82 31q46 0 74 -28q28 -29 28 -77t-33 -80t-80 -31z" />
    <glyph glyph-name="eth" unicode="&#xf0;" horiz-adv-x="1145" 
d="M520 128q128 0 226 102t133 293q-9 83 -82 157t-209 74t-232 -102q-95 -102 -95 -239t66 -211q65 -74 193 -74zM78 367q0 236 154 388t360 152t302 -123q-9 240 -123 339l-145 -133l-66 77l118 108q-48 17 -150 17t-211 -43l-4 5l20 151q104 41 244 41t238 -46l179 165
l67 -76l-160 -145q169 -151 169 -503t-160 -559q-162 -207 -433 -206q-182 0 -291 102q-108 102 -108 289z" />
    <glyph glyph-name="ntilde" unicode="&#xf1;" horiz-adv-x="1102" 
d="M665 987q141 0 233 -83t92 -251q0 -43 -5 -83l-80 -570h-177l73 521q7 52 7 88q0 121 -57.5 169.5t-150 48.5t-168 -64.5t-95.5 -172.5l-84 -590h-177l138 964h143l-1 -126q108 149 309 149zM517.5 1346q63.5 0 130.5 -35.5t102 -35.5q69 0 80 77l6 3l119 -26
q-15 -97 -70.5 -147t-119 -50t-133.5 35.5t-100.5 35.5t-52 -21t-27.5 -56l-5 -3l-108 26q11 86 63 141.5t115.5 55.5z" />
    <glyph glyph-name="ograve" unicode="&#xf2;" horiz-adv-x="1124" 
d="M547 132q138 0 226.5 115.5t88.5 269.5t-73.5 234.5t-211.5 80.5t-226 -118t-88 -268t73 -232t211 -82zM516 -22q-192 0 -314 116t-122 323q0 248 148 409t359 161t334 -116.5t123 -343.5t-149.5 -388t-378.5 -161zM754 1054l-324 190l-2 22l121 132l268 -240z" />
    <glyph glyph-name="oacute" unicode="&#xf3;" horiz-adv-x="1124" 
d="M547 132q138 0 226.5 115.5t88.5 269.5t-73.5 234.5t-211.5 80.5t-226 -118t-88 -268t73 -232t211 -82zM516 -22q-192 0 -314 116t-122 323q0 248 148 409t359 161t334 -116.5t123 -343.5t-149.5 -388t-378.5 -161zM536 1046l-69 103l255 253l129 -127l-2 -22z" />
    <glyph glyph-name="ocircumflex" unicode="&#xf4;" horiz-adv-x="1124" 
d="M547 132q138 0 226.5 115.5t88.5 269.5t-73.5 234.5t-211.5 80.5t-226 -118t-88 -268t73 -232t211 -82zM516 -22q-192 0 -314 116t-122 323q0 248 148 409t359 161t334 -116.5t123 -343.5t-149.5 -388t-378.5 -161zM447 1052l-67 74l251 255h82l181 -255l-88 -74
l-153 167z" />
    <glyph glyph-name="otilde" unicode="&#xf5;" horiz-adv-x="1124" 
d="M547 132q138 0 226.5 115.5t88.5 269.5t-73.5 234.5t-211.5 80.5t-226 -118t-88 -268t73 -232t211 -82zM516 -22q-192 0 -314 116t-122 323q0 248 148 409t359 161t334 -116.5t123 -343.5t-149.5 -388t-378.5 -161zM517.5 1337q63.5 0 130.5 -35.5t102 -35.5q69 0 80 76
l6 4l119 -26q-15 -97 -70.5 -147t-119 -50t-133.5 35t-100.5 35t-52 -20.5t-27.5 -55.5l-5 -4l-108 26q11 86 63 142t115.5 56z" />
    <glyph glyph-name="odieresis" unicode="&#xf6;" horiz-adv-x="1124" 
d="M547 132q138 0 226.5 115.5t88.5 269.5t-73.5 234.5t-211.5 80.5t-226 -118t-88 -268t73 -232t211 -82zM516 -22q-192 0 -314 116t-122 323q0 248 148 409t359 161t334 -116.5t123 -343.5t-149.5 -388t-378.5 -161zM824.5 1136q-46.5 0 -75 28t-28.5 76t34 80t81 32
t74.5 -28t27.5 -76.5t-33.5 -80t-80 -31.5zM459.5 1136q-46.5 0 -75 28t-28.5 76t34 80t81 32t74.5 -28t27.5 -76.5t-33.5 -80t-80 -31.5z" />
    <glyph glyph-name="divide" unicode="&#xf7;" horiz-adv-x="964" 
d="M440 134q-106 0 -105 98q-1 46 35 85t89 39t80 -28t27 -74t-35 -84q-37 -36 -91 -36zM101 490l18 136h769l-19 -136h-768zM546 970q107 0 107 -100q1 -48 -35 -84t-92 -36q-106 0 -105 98q0 46 35 84t90 38z" />
    <glyph glyph-name="oslash" unicode="&#xf8;" horiz-adv-x="1124" 
d="M534 132q151 0 239.5 115.5t88.5 263.5t-63 228l-376 -586q51 -21 111 -21zM263 451q0 -145 63 -226l374 587q-52 20 -112 20q-149 0 -237 -118t-88 -263zM1044 536.5q0 -236.5 -149.5 -397.5t-378.5 -161q-101 0 -185 33l-76 -119l-130 2v17l102 160
q-147 119 -147 356.5t148 398.5t375 161q102 0 186 -34l67 105h140v-14l-99 -152q147 -119 147 -355.5z" />
    <glyph glyph-name="ugrave" unicode="&#xf9;" horiz-adv-x="1079" 
d="M726 0v110q-110 -132 -307 -132q-147 0 -227 79t-80 217q0 41 7 98l84 592h177l-82 -571q-6 -39 -6 -88q0 -88 48.5 -132.5t134 -44.5t157.5 50.5t107 143.5l91 642h177l-138 -964h-143zM754 1063l-324 190l-2 22l121 133l268 -241z" />
    <glyph glyph-name="uacute" unicode="&#xfa;" horiz-adv-x="1079" 
d="M726 0v110q-110 -132 -307 -132q-147 0 -227 79t-80 217q0 41 7 98l84 592h177l-82 -571q-6 -39 -6 -88q0 -88 48.5 -132.5t134 -44.5t157.5 50.5t107 143.5l91 642h177l-138 -964h-143zM849 1262l-313 -206l-69 102l255 253l129 -126z" />
    <glyph glyph-name="ucircumflex" unicode="&#xfb;" horiz-adv-x="1079" 
d="M726 0v110q-110 -132 -307 -132q-147 0 -227 79t-80 217q0 41 7 98l84 592h177l-82 -571q-6 -39 -6 -88q0 -88 48.5 -132.5t134 -44.5t157.5 50.5t107 143.5l91 642h177l-138 -964h-143zM653 1229l-206 -168l-67 75l251 255h82l181 -255l-88 -75z" />
    <glyph glyph-name="udieresis" unicode="&#xfc;" horiz-adv-x="1079" 
d="M726 0v110q-110 -132 -307 -132q-147 0 -227 79t-80 217q0 41 7 98l84 592h177l-82 -571q-6 -39 -6 -88q0 -88 48.5 -132.5t134 -44.5t157.5 50.5t107 143.5l91 642h177l-138 -964h-143zM824.5 1145q-46.5 0 -75 28t-28.5 77.5t34 80t81 30.5t74.5 -28t27.5 -76.5
t-33.5 -80t-80 -31.5zM459.5 1145q-46.5 0 -75 28t-28.5 77.5t34 80t81 30.5t74.5 -28t27.5 -76.5t-33.5 -80t-80 -31.5z" />
    <glyph glyph-name="yacute" unicode="&#xfd;" horiz-adv-x="956" 
d="M95 -317q-61 0 -112 19l24 142l6 1q39 -15 102 -14q121 0 233 212l8 15l-257 901l2 5h188l178 -711l350 711h179l2 -5l-475 -899l-20 -40q-95 -181 -186.5 -259t-221.5 -78zM801 1262l-313 -206l-69 102l255 253l128 -126z" />
    <glyph glyph-name="thorn" unicode="&#xfe;" horiz-adv-x="1102" 
d="M500.5 132q140.5 0 240 114.5t99.5 312.5q0 140 -61.5 206.5t-159.5 66.5t-175 -53t-107 -161l-61 -428q84 -58 224.5 -58zM646 987q173 0 274.5 -104.5t101.5 -292.5q0 -279 -153.5 -445.5t-380.5 -166.5q-149 0 -235 50l-46 -335h-177l231 1634h175l-62 -443
q99 103 272 103z" />
    <glyph glyph-name="ydieresis" unicode="&#xff;" horiz-adv-x="956" 
d="M95 -317q-61 0 -112 19l24 142l6 1q39 -15 102 -14q121 0 233 212l8 15l-257 901l2 5h188l178 -711l350 711h179l2 -5l-475 -899l-20 -40q-95 -181 -186.5 -259t-221.5 -78zM776.5 1145q-46.5 0 -75.5 28t-29 77.5t34.5 80t81 30.5t74.5 -28t28 -76.5t-33.5 -80
t-80 -31.5zM411.5 1145q-46.5 0 -75.5 28t-29 77.5t34.5 80t81 30.5t74.5 -28t28 -76.5t-33.5 -80t-80 -31.5z" />
    <glyph glyph-name="Amacron" unicode="&#x100;" horiz-adv-x="1135" 
d="M354 426h415l-121 477l-11 60l-28 -60zM877 0l-73 289h-525l-154 -289h-173l685 1253h74l348 -1253h-182zM972 1534l-22 -145h-518l22 145h518z" />
    <glyph glyph-name="amacron" unicode="&#x101;" horiz-adv-x="1133" 
d="M483.5 132q97.5 0 175.5 58t104 171l60 406q-88 65 -228.5 65t-238 -116t-97.5 -325q0 -125 63.5 -192t161 -67zM894 -13q-141 0 -147 125q-110 -134 -287.5 -134t-280.5 104t-103 281q0 287 148 455.5t376 168.5q169 0 268 -71l15 48h143l-103 -724q-13 -93 51 -93
q35 0 63 19l6 -2l-21 -147q-56 -30 -128 -30zM933 1287l-19 -131h-525l19 131h525z" />
    <glyph glyph-name="Abreve" unicode="&#x102;" horiz-adv-x="1135" 
d="M354 426h415l-121 477l-11 60l-28 -60zM877 0l-73 289h-525l-154 -289h-173l685 1253h74l348 -1253h-182zM685.5 1316q-109.5 0 -176 70t-47.5 189l117 11q-4 -65 28 -103t95 -38t108.5 39t57.5 102l108 -11q-15 -117 -98 -188t-192.5 -71z" />
    <glyph glyph-name="abreve" unicode="&#x103;" horiz-adv-x="1133" 
d="M483.5 132q97.5 0 175.5 58t104 171l60 406q-88 65 -228.5 65t-238 -116t-97.5 -325q0 -125 63.5 -192t161 -67zM894 -13q-141 0 -147 125q-110 -134 -287.5 -134t-280.5 104t-103 281q0 287 148 455.5t376 168.5q169 0 268 -71l15 48h143l-103 -724q-13 -93 51 -93
q35 0 63 19l6 -2l-21 -147q-56 -30 -128 -30zM650 1078q-110 0 -175 72.5t-49 197.5l120 13l3 -4q-6 -67 25 -106t90.5 -39t101.5 39t57 104l6 6l109 -13q-19 -125 -98.5 -197.5t-189.5 -72.5z" />
    <glyph glyph-name="Aogonek" unicode="&#x104;" horiz-adv-x="1135" 
d="M354 426h415l-121 477l-11 60l-28 -60zM836 -244q0 -63 71 -63q34 0 54 7l5 -3l-15 -114q-48 -15 -119.5 -15t-120 35.5t-48.5 111t61.5 151.5t163.5 134h-11l-73 289h-525l-154 -289h-173l685 1253h74l348 -1253h-37q-186 -123 -186 -244z" />
    <glyph glyph-name="aogonek" unicode="&#x105;" horiz-adv-x="1133" 
d="M483.5 132q97.5 0 175.5 58t104 171l60 406q-88 65 -228.5 65t-238 -116t-97.5 -325q0 -125 63.5 -192t161 -67zM890 -298q34 0 54 8l6 -4l-15 -114q-48 -15 -120 -15t-120.5 35.5t-48.5 102.5q0 156 197 278q-93 22 -96 119q-110 -134 -287.5 -134t-280.5 104t-103 281
q0 287 148 455.5t376 168.5q169 0 268 -71l15 48h143l-103 -724q-13 -93 51 -93q35 0 63 19l6 -2l-21 -147q-2 -2 -9 -5t-9 -5q-184 -121 -185 -242q0 -63 71 -63z" />
    <glyph glyph-name="Cacute" unicode="&#x106;" horiz-adv-x="1118" 
d="M687 -22q-268 0 -425.5 144t-157.5 410q0 324 191 526t494 202q194 0 332 -67l-23 -163l-5 -2q-143 78 -318 78q-220 0 -356 -158.5t-136 -376.5t117.5 -330.5t290.5 -112.5t303 79l6 -2l-24 -162q-127 -65 -289 -65zM637 1301l-45 101l311 207l102 -146l-7 -22z" />
    <glyph glyph-name="cacute" unicode="&#x107;" horiz-adv-x="889" 
d="M503 -22q-186 0 -304.5 115.5t-118.5 316.5q0 261 150 419t388 158q149 0 255 -49l-24 -158l-6 -2q-117 54 -238 54q-156 0 -249 -111.5t-93 -266.5t73.5 -239.5t195.5 -84.5t233 64l6 -2l-23 -162q-107 -52 -245 -52zM521 1067l-69 102l255 253l129 -126l-2 -23z" />
    <glyph glyph-name="Ccircumflex" unicode="&#x108;" horiz-adv-x="1118" 
d="M687 -22q-268 0 -425.5 144t-157.5 410q0 324 191 526t494 202q194 0 332 -67l-23 -163l-5 -2q-143 78 -318 78q-220 0 -356 -158.5t-136 -376.5t117.5 -330.5t290.5 -112.5t303 79l6 -2l-24 -162q-127 -65 -289 -65zM596 1305l-56 84l248 212h80l191 -212l-72 -84
l-179 145z" />
    <glyph glyph-name="ccircumflex" unicode="&#x109;" horiz-adv-x="889" 
d="M503 -22q-186 0 -304.5 115.5t-118.5 316.5q0 261 150 419t388 158q149 0 255 -49l-24 -158l-6 -2q-117 54 -238 54q-156 0 -249 -111.5t-93 -266.5t73.5 -239.5t195.5 -84.5t233 64l6 -2l-23 -162q-107 -52 -245 -52zM432 1072l-67 75l251 255h82l181 -255l-88 -75
l-152 168z" />
    <glyph glyph-name="Cdotaccent" unicode="&#x10a;" horiz-adv-x="1118" 
d="M687 -22q-268 0 -425.5 144t-157.5 410q0 324 191 526t494 202q194 0 332 -67l-23 -163l-5 -2q-143 78 -318 78q-220 0 -356 -158.5t-136 -376.5t117.5 -330.5t290.5 -112.5t303 79l6 -2l-24 -162q-127 -65 -289 -65zM812 1354q-48 0 -78 28q-30 30 -30 80t35.5 82.5
t83.5 32.5t77 -29t29 -79t-34.5 -82.5t-82.5 -32.5z" />
    <glyph glyph-name="cdotaccent" unicode="&#x10b;" horiz-adv-x="889" 
d="M503 -22q-186 0 -304.5 115.5t-118.5 316.5q0 261 150 419t388 158q149 0 255 -49l-24 -158l-6 -2q-117 54 -238 54q-156 0 -249 -111.5t-93 -266.5t73.5 -239.5t195.5 -84.5t233 64l6 -2l-23 -162q-107 -52 -245 -52zM633 1152q-48 0 -78 29t-30 79t35.5 83t84 33
t77 -29t28.5 -79t-34.5 -83t-82.5 -33z" />
    <glyph glyph-name="Ccaron" unicode="&#x10c;" horiz-adv-x="1118" 
d="M687 -22q-268 0 -425.5 144t-157.5 410q0 324 191 526t494 202q194 0 332 -67l-23 -163l-5 -2q-143 78 -318 78q-220 0 -356 -158.5t-136 -376.5t117.5 -330.5t290.5 -112.5t303 79l6 -2l-24 -162q-127 -65 -289 -65zM761 1305l-201 211l79 85l178 -147l200 147l61 -84
l-236 -212h-81z" />
    <glyph glyph-name="ccaron" unicode="&#x10d;" horiz-adv-x="889" 
d="M503 -22q-186 0 -304.5 115.5t-118.5 316.5q0 261 150 419t388 158q149 0 255 -49l-24 -158l-6 -2q-117 54 -238 54q-156 0 -249 -111.5t-93 -266.5t73.5 -239.5t195.5 -84.5t233 64l6 -2l-23 -162q-107 -52 -245 -52zM573 1072l-180 257l85 73l157 -166l205 166l63 -73
l-248 -257h-82z" />
    <glyph glyph-name="Dcaron" unicode="&#x10e;" horiz-adv-x="1301" 
d="M519 153q261 0 399 149t138 411q0 179 -106.5 277.5t-307.5 98.5q-147 0 -212 -7l-132 -924q81 -5 221 -5zM668 1249q279 0 425.5 -138.5t146.5 -382.5q0 -341 -202 -535.5t-560 -194.5q-292 0 -376 6l175 1227q177 18 391 18zM760 1313h-80l-202 210l79 86l178 -147
l200 147l61 -84z" />
    <glyph glyph-name="dcaron" unicode="&#x10f;" horiz-adv-x="1163" 
d="M487.5 132q102.5 0 181.5 63.5t96 163.5l58 408q-78 65 -216 65t-242 -118t-104 -314q0 -130 62 -199t164.5 -69zM1342 1326l13 -17l-111 -393h-112l73 410h137zM977.5 147q33.5 0 63.5 26l3 -2l-22 -151q-54 -34 -128 -33q-138 0 -147 119q-110 -128 -304 -128
q-158 0 -261.5 107t-103.5 289q0 274 158.5 443.5t383.5 169.5q136 0 227 -56l56 396h177l-153 -1087q-7 -50 5 -71.5t45.5 -21.5z" />
    <glyph glyph-name="Dcroat" unicode="&#x110;" horiz-adv-x="1301" 
d="M519 153q261 0 399 149t138 411q0 179 -106.5 277.5t-307.5 98.5q-147 0 -212 -7l-58 -408h183l-19 -128h-182l-56 -388q81 -5 221 -5zM668 1249q279 0 425.5 -138.5t146.5 -382.5q0 -341 -202 -535.5t-560 -194.5q-292 0 -376 6l79 542h-159l19 128h156l80 557
q177 18 391 18z" />
    <glyph glyph-name="dcroat" unicode="&#x111;" horiz-adv-x="1141" 
d="M487.5 132q102.5 0 181.5 63.5t96 163.5l58 408q-78 65 -216 65t-242 -118t-104 -314q0 -130 62 -199t164.5 -69zM977.5 147q33.5 0 63.5 26l3 -2l-22 -151q-54 -34 -128 -33q-138 0 -147 119q-110 -128 -304 -128q-158 0 -261.5 107t-103.5 289q0 274 158.5 443.5
t383.5 169.5q136 0 227 -56l19 140h-162l17 128h163l19 128h177l-19 -128h136l-18 -128h-135l-117 -831q-7 -50 5 -71.5t45.5 -21.5z" />
    <glyph glyph-name="Emacron" unicode="&#x112;" horiz-adv-x="990" 
d="M963 1071h-535l-50 -358h501l-24 -160h-499l-54 -391h553l-23 -162h-730l174 1231h709zM940 1534l-22 -145h-518l23 145h517z" />
    <glyph glyph-name="emacron" unicode="&#x113;" horiz-adv-x="1022" 
d="M784 585v28q0 220 -222 219q-97 0 -172 -66t-107 -181h501zM579 987q173 0 274.5 -101.5t101.5 -259.5q0 -84 -22 -179h-670v-17q0 -141 76 -219.5t197 -78.5q169 0 307 93l6 -2l-24 -165q-121 -80 -311 -80t-312 110.5t-122 346t144.5 394t354.5 158.5zM879 1287
l-19 -131h-525l19 131h525z" />
    <glyph glyph-name="Ebreve" unicode="&#x114;" horiz-adv-x="990" 
d="M963 1071h-535l-50 -358h501l-24 -160h-499l-54 -391h553l-23 -162h-730l174 1231h709zM653.5 1316q-109.5 0 -176 70t-47.5 189l117 11q-4 -65 28 -103t95 -38t109 39t57 102l108 -11q-15 -117 -98 -188t-192.5 -71z" />
    <glyph glyph-name="ebreve" unicode="&#x115;" horiz-adv-x="1022" 
d="M784 585v28q0 220 -222 219q-97 0 -172 -66t-107 -181h501zM579 987q173 0 274.5 -101.5t101.5 -259.5q0 -84 -22 -179h-670v-17q0 -141 76 -219.5t197 -78.5q169 0 307 93l6 -2l-24 -165q-121 -80 -311 -80t-312 110.5t-122 346t144.5 394t354.5 158.5zM596 1078
q-110 0 -175 72.5t-49 197.5l120 13l3 -4q-6 -67 25 -106t90.5 -39t101.5 39t57 104l6 6l109 -13q-19 -125 -98.5 -197.5t-189.5 -72.5z" />
    <glyph glyph-name="Edotaccent" unicode="&#x116;" horiz-adv-x="990" 
d="M963 1071h-535l-50 -358h501l-24 -160h-499l-54 -391h553l-23 -162h-730l174 1231h709zM670.5 1354q-48.5 0 -78.5 28q-30 30 -30 80t35.5 82.5t84 32.5t77.5 -29t29 -79t-34.5 -82.5t-83 -32.5z" />
    <glyph glyph-name="edotaccent" unicode="&#x117;" horiz-adv-x="1022" 
d="M784 585v28q0 220 -222 219q-97 0 -172 -66t-107 -181h501zM579 987q173 0 274.5 -101.5t101.5 -259.5q0 -84 -22 -179h-670v-17q0 -141 76 -219.5t197 -78.5q169 0 307 93l6 -2l-24 -165q-121 -80 -311 -80t-312 110.5t-122 346t144.5 394t354.5 158.5zM608.5 1141
q-48.5 0 -78 29t-29.5 79.5t35.5 83t83.5 32.5t77 -29t29 -79.5t-34.5 -83t-83 -32.5z" />
    <glyph glyph-name="Eogonek" unicode="&#x118;" horiz-adv-x="990" 
d="M646 -244q0 -63 71 -63q34 0 54 7l5 -3l-15 -114q-48 -15 -119.5 -15t-120 35.5t-48.5 111t61.5 151.5t163.5 134h-596l174 1231h709l-22 -160h-535l-50 -358h501l-24 -160h-499l-54 -391h553l-23 -162q-186 -123 -186 -244z" />
    <glyph glyph-name="eogonek" unicode="&#x119;" horiz-adv-x="1022" 
d="M784 585v28q0 220 -222 219q-97 0 -172 -66t-107 -181h501zM579 987q173 0 274.5 -101.5t101.5 -259.5q0 -84 -22 -179h-670v-17q0 -141 76 -219.5t197 -78.5q169 0 307 93l6 -2l-24 -165q-43 -28 -99 -51q-184 -121 -184 -242q0 -63 71 -63q34 0 54 8l5 -4l-15 -114
q-48 -15 -119.5 -15t-120 35.5t-48.5 102.5q0 147 175 263h-26q-194 0 -316 110.5t-122 346t144.5 394t354.5 158.5z" />
    <glyph glyph-name="Ecaron" unicode="&#x11a;" horiz-adv-x="990" 
d="M963 1071h-535l-50 -358h501l-24 -160h-499l-54 -391h553l-23 -162h-730l174 1231h709zM700 1305h-80l-201 211l78 85l179 -147l199 147l61 -84z" />
    <glyph glyph-name="ecaron" unicode="&#x11b;" horiz-adv-x="1022" 
d="M784 585v28q0 220 -222 219q-97 0 -172 -66t-107 -181h501zM579 987q173 0 274.5 -101.5t101.5 -259.5q0 -84 -22 -179h-670v-17q0 -141 76 -219.5t197 -78.5q169 0 307 93l6 -2l-24 -165q-121 -80 -311 -80t-312 110.5t-122 346t144.5 394t354.5 158.5zM631 1061h-82
l-180 257l85 73l157 -166l204 166l64 -73z" />
    <glyph glyph-name="Gcircumflex" unicode="&#x11c;" horiz-adv-x="1232" 
d="M853 1260q190 0 327 -67l-22 -163l-6 -2q-127 78 -346 78t-368 -157.5t-149 -410.5q0 -182 103 -290t289 -108q134 0 248 54l41 298h-277l14 143h442l-77 -551q-197 -102 -438 -102t-385.5 142t-144.5 390q0 333 209 539.5t540 206.5zM829 1458l-213 -145l-56 83l248 213
h80l192 -213l-73 -83z" />
    <glyph glyph-name="gcircumflex" unicode="&#x11d;" horiz-adv-x="1098" 
d="M491 186q99 0 158.5 38.5t113.5 118.5l58 418q-84 73 -229 73t-235.5 -110.5t-90.5 -257t63 -213.5t162 -67zM391.5 -318q-206.5 0 -346.5 82l24 167l5 2q125 -95 296.5 -95t256 68t103.5 204l5 35q-112 -117 -285.5 -117t-269.5 104t-96 289q0 259 149 412.5t347 153.5
t295 -86l32 76h123l-123 -863q-30 -209 -169.5 -320.5t-346 -111.5zM653 1229l-206 -168l-67 75l251 255h82l181 -255l-88 -75z" />
    <glyph glyph-name="Gbreve" unicode="&#x11e;" horiz-adv-x="1232" 
d="M853 1260q190 0 327 -67l-22 -163l-6 -2q-127 78 -346 78t-368 -157.5t-149 -410.5q0 -182 103 -290t289 -108q134 0 248 54l41 298h-277l14 143h442l-77 -551q-197 -102 -438 -102.5t-385.5 142t-144.5 390.5q0 333 209 539.5t540 206.5zM815.5 1324q-109.5 0 -176 69.5
t-47.5 189.5l117 11q-4 -65 28 -103.5t95 -38.5t109 39t57 103l108 -11q-15 -117 -98 -188t-192.5 -71z" />
    <glyph glyph-name="gbreve" unicode="&#x11f;" horiz-adv-x="1098" 
d="M491 186q99 0 158.5 38.5t113.5 118.5l58 418q-84 73 -229 73t-235.5 -110.5t-90.5 -257t63 -213.5t162 -67zM391.5 -318q-206.5 0 -346.5 82l24 167l5 2q125 -95 296.5 -95t256 68t103.5 204l5 35q-112 -117 -285.5 -117t-269.5 104t-96 289q0 259 149 412.5t347 153.5
t295 -86l32 76h123l-123 -863q-30 -209 -169.5 -320.5t-346 -111.5zM635 1078q-110 0 -175 72.5t-49 197.5l120 13l3 -4q-6 -67 25 -106t90.5 -39t101.5 39t57 104l6 6l109 -13q-19 -125 -98.5 -197.5t-189.5 -72.5z" />
    <glyph glyph-name="Gdotaccent" unicode="&#x120;" horiz-adv-x="1232" 
d="M853 1260q190 0 327 -67l-22 -163l-6 -2q-127 78 -346 78t-368 -157.5t-149 -410.5q0 -182 103 -290t289 -108q134 0 248 54l41 298h-277l14 143h442l-77 -551q-197 -102 -438 -102t-385.5 142t-144.5 390q0 333 209 539.5t540 206.5zM832.5 1361q-48.5 0 -78.5 29
t-30 79t35.5 82.5t84 32.5t77.5 -28q29 -30 29 -80t-34.5 -82.5t-83 -32.5z" />
    <glyph glyph-name="gdotaccent" unicode="&#x121;" horiz-adv-x="1098" 
d="M491 186q99 0 158.5 38.5t113.5 118.5l58 418q-84 73 -229 73t-235.5 -110.5t-90.5 -257t63 -213.5t162 -67zM391.5 -318q-206.5 0 -346.5 82l24 167l5 2q125 -95 296.5 -95t256 68t103.5 204l5 35q-112 -117 -285.5 -117t-269.5 104t-96 289q0 259 149 412.5t347 153.5
t295 -86l32 76h123l-123 -863q-30 -209 -169.5 -320.5t-346 -111.5zM648 1141q-48 0 -78 29t-30 79.5t35.5 83t83.5 32.5t77 -29t29 -79.5t-34.5 -83t-82.5 -32.5z" />
    <glyph glyph-name="Gcommaaccent" unicode="&#x122;" horiz-adv-x="1232" 
d="M527 -99l162 13l11 -20q-24 -168 -130 -324h-119q55 126 71 292q2 26 5 39zM853 1260q190 0 327 -67l-22 -163l-6 -2q-127 78 -346 78t-368 -157.5t-149 -410.5q0 -182 103 -290t289 -108q134 0 248 54l41 298h-277l14 143h442l-77 -551q-197 -102 -438 -102.5
t-385.5 142t-144.5 390.5q0 333 209 539.5t540 206.5z" />
    <glyph glyph-name="gcommaaccent" unicode="&#x123;" horiz-adv-x="1098" 
d="M491 186q99 0 158.5 38.5t113.5 118.5l58 418q-84 73 -229 73t-235.5 -110.5t-90.5 -257t63 -213.5t162 -67zM391.5 -318q-206.5 0 -346.5 82l24 167l5 2q125 -95 296.5 -95t256 68t103.5 204l5 35q-112 -117 -285.5 -117t-269.5 104t-96 289q0 259 149 412.5t347 153.5
t295 -86l32 76h123l-123 -863q-30 -209 -169.5 -320.5t-346 -111.5zM724 1063l-162 -13l-11 21q24 168 130 324h120q-52 -117 -72 -293q-3 -26 -5 -39z" />
    <glyph glyph-name="Hcircumflex" unicode="&#x124;" horiz-adv-x="1325" 
d="M1087 1231h175l-173 -1231h-175l78 551h-636l-79 -551h-175l174 1231h175l-73 -522h637zM801 1450l-213 -145l-56 84l248 212h80l192 -212l-73 -84z" />
    <glyph glyph-name="hcircumflex" unicode="&#x125;" horiz-adv-x="1100" 
d="M648 987q164 0 253 -86.5t89 -232.5q0 -43 -5 -87l-82 -581h-175l80 566q2 15 2 43q0 218 -203 218q-86 0 -157.5 -50.5t-108.5 -158.5l-88 -618h-177l188 1327h177l-65 -459q108 119 272 119zM374 1488l-212 -146l-56 84l248 212h80l192 -212l-73 -84z" />
    <glyph glyph-name="Hbar" unicode="&#x126;" horiz-adv-x="1325" 
d="M1015 709l24 183h-637l-24 -183h637zM1346 1026l-20 -134h-112l-125 -892h-175l78 551h-636l-79 -551h-175l125 892h-113l20 134h114l28 205h175l-28 -205h636l28 205h175l-28 -205h112z" />
    <glyph glyph-name="hbar" unicode="&#x127;" horiz-adv-x="1098" 
d="M648 987q164 0 253 -86.5t89 -232.5q0 -43 -5 -87l-82 -581h-175l76 540q6 43 6 69q0 218 -203 218q-86 0 -157.5 -50.5t-108.5 -158.5l-88 -618h-177l151 1071h-136l19 128h136l18 128h177l-18 -128h201l-19 -128h-201l-28 -203q108 119 272 119z" />
    <glyph glyph-name="Itilde" unicode="&#x128;" horiz-adv-x="513" 
d="M102 0l174 1231h175l-174 -1231h-175zM279 1553q65 0 135 -33.5t101 -33.5t56 21.5t30 56.5l4 4l110 -38q-15 -86 -72 -138.5t-135 -52.5q-43 0 -115.5 33.5t-107 33.5t-58.5 -22.5t-28 -57.5l-4 -2l-111 33q15 86 72.5 141t122.5 55z" />
    <glyph glyph-name="itilde" unicode="&#x129;" horiz-adv-x="463" 
d="M76 0l138 964h177l-138 -964h-177zM224.5 1337q66.5 0 141.5 -36.5t109.5 -36.5t58 20.5t26.5 56.5l6 3l110 -26q-13 -91 -70 -144t-119 -53t-139.5 36t-110 36t-55 -20.5t-29.5 -55.5l-6 -4l-108 26q11 82 65 140t120.5 58z" />
    <glyph glyph-name="Imacron" unicode="&#x12a;" horiz-adv-x="513" 
d="M102 0l174 1231h175l-174 -1231h-175zM128 1389l23 145h517l-22 -145h-518z" />
    <glyph glyph-name="imacron" unicode="&#x12b;" horiz-adv-x="463" 
d="M76 0l138 964h177l-138 -964h-177zM99 1147l20 130h473l-20 -130h-473z" />
    <glyph glyph-name="Ibreve" unicode="&#x12c;" horiz-adv-x="513" 
d="M102 0l174 1231h175l-174 -1231h-175zM381.5 1316q-109.5 0 -175.5 70t-48 189l118 11q-4 -65 27.5 -103t95 -38t109 39t56.5 102l108 -11q-15 -117 -98 -188t-192.5 -71z" />
    <glyph glyph-name="ibreve" unicode="&#x12d;" horiz-adv-x="463" 
d="M76 0l138 964h177l-138 -964h-177zM324 1078q-110 0 -175 72.5t-48 197.5l119 13l3 -4q-6 -67 25 -106q30 -39 90 -39t102 39t57 104l6 6l110 -13q-19 -125 -99 -197.5t-190 -72.5z" />
    <glyph glyph-name="Iogonek" unicode="&#x12e;" horiz-adv-x="513" 
d="M84 -235q0 -63 71 -63q34 0 54 8l5 -4l-15 -114q-48 -15 -119.5 -15t-120 35.5t-48.5 102.5q0 160 210 285h-19l174 1231h175l-174 -1231h-20q-173 -117 -173 -235z" />
    <glyph glyph-name="iogonek" unicode="&#x12f;" horiz-adv-x="463" 
d="M132 -307q34 0 56 7l4 -3l-15 -114q-45 -15 -117.5 -15t-121 35.5t-48.5 102.5q0 169 224 294h-40l138 964h177l-136 -964h-5q-186 -123 -187 -244q0 -63 71 -63zM348.5 1365q48.5 0 77 -29t28.5 -79.5t-34.5 -83t-82.5 -32.5t-78 29t-30 79.5t35.5 83t84 32.5z" />
    <glyph glyph-name="Idotaccent" unicode="&#x130;" horiz-adv-x="513" 
d="M102 0l174 1231h175l-174 -1231h-175zM398.5 1354q-48.5 0 -78.5 28q-30 30 -30 80t35.5 82.5t84 32.5t77.5 -29t29 -79t-34.5 -82.5t-83 -32.5z" />
    <glyph glyph-name="dotlessi" unicode="&#x131;" horiz-adv-x="463" 
d="M76 0l138 964h177l-138 -964h-177z" />
    <glyph glyph-name="IJ" unicode="&#x132;" horiz-adv-x="1169" 
d="M570 -6q-41 0 -95 6l22 149l6 2q26 -6 65 -6q220 0 261 285l113 801h177l-110 -786q-63 -451 -439 -451zM102 0l174 1231h175l-174 -1231h-175z" />
    <glyph glyph-name="ij" unicode="&#x133;" horiz-adv-x="956" 
d="M385 -317q-39 0 -98 10l22 152l6 2q24 -6 57 -5q95 0 143.5 57.5t65.5 171.5l128 893h174l-133 -932q-50 -349 -365 -349zM76 0l138 964h177l-138 -964h-177zM832.5 1141q-48.5 0 -78.5 29q-30 30 -30 80t35.5 82.5t84 32.5t77.5 -29q29 -30 29 -80t-34.5 -82.5
t-83 -32.5zM337 1141q-48 0 -78 29q-30 30 -30 80t35.5 82.5t83.5 32.5q50 0 78 -29q28 -30 28 -80t-34.5 -82.5t-82.5 -32.5z" />
    <glyph glyph-name="Jcircumflex" unicode="&#x134;" horiz-adv-x="655" 
d="M56 -6q-41 0 -95 6l22 149l6 2q26 -6 65 -6q220 0 261 285l113 801h177l-110 -786q-63 -451 -439 -451zM328 1305l-56 84l247 212h81l191 -212l-72 -84l-179 145z" />
    <glyph glyph-name="jcircumflex" unicode="&#x135;" horiz-adv-x="493" 
d="M-78 -317q-39 0 -99 10l22 152l6 2q26 -6 58 -5q95 0 143.5 57.5t64.5 171.5l129 893h173l-132 -932q-50 -349 -365 -349zM168 1061l-67 75l251 255h82l180 -255l-87 -75l-153 168z" />
    <glyph glyph-name="Kcommaaccent" unicode="&#x136;" horiz-adv-x="1126" 
d="M408 -99l162 13l11 -20q-24 -168 -130 -324h-120q52 118 72 292q3 26 5 39zM1197 1225l-676 -609l544 -610l-2 -6h-216l-493 549l-77 -549h-175l174 1231h175l-77 -548l615 548h206z" />
    <glyph glyph-name="kcommaaccent" unicode="&#x137;" horiz-adv-x="973" 
d="M331 -99l162 13l12 -20q-24 -168 -131 -324h-119q55 126 71 292q2 26 5 39zM989 959l-499 -456l419 -497l-2 -6h-220l-372 438l-62 -438h-177l188 1327h177l-110 -770l444 407h212z" />
    <glyph glyph-name="kgreenlandic" unicode="&#x138;" horiz-adv-x="973" 
d="M1007 964l-515 -465l404 -499h-228l-353 436l-62 -436h-177l136 964h177l-58 -411l464 411h212z" />
    <glyph glyph-name="Lacute" unicode="&#x139;" horiz-adv-x="897" 
d="M300 147h525l-21 -147h-702l175 1231h175zM600 1441l-362 -140l-44 101l311 207l102 -146z" />
    <glyph glyph-name="lacute" unicode="&#x13a;" horiz-adv-x="510" 
d="M303 -17q-232 0 -201 242l159 1102h173l-149 -1053q-17 -133 69 -133q44 0 78 19l6 -2l-23 -152q-56 -23 -112 -23zM203 1391l-45 100l311 207l103 -145l-8 -23z" />
    <glyph glyph-name="Lcommaaccent" unicode="&#x13b;" horiz-adv-x="897" 
d="M357 -99l162 13l12 -20q-24 -168 -131 -324h-119q55 126 71 292q2 26 5 39zM300 147h525l-21 -147h-702l175 1231h175z" />
    <glyph glyph-name="lcommaaccent" unicode="&#x13c;" horiz-adv-x="510" 
d="M67 -430q55 126 71 292q2 26 5 39l162 13l12 -20q-24 -168 -131 -324h-119zM303 -17q-232 0 -201 242l159 1102h173l-149 -1053q-17 -133 69 -133q44 0 78 19l6 -2l-23 -152q-56 -23 -112 -23z" />
    <glyph glyph-name="Lcaron" unicode="&#x13d;" horiz-adv-x="902" 
d="M451 1231l-151 -1084h525l-21 -147h-702l174 1231h175zM884 1244l-109 -391h-112l72 409h138z" />
    <glyph glyph-name="lcaron" unicode="&#x13e;" horiz-adv-x="525" 
d="M303 -17q-232 0 -201 242l159 1102h173l-149 -1053q-17 -133 69 -133q44 0 78 19l6 -2l-23 -152q-56 -23 -112 -23zM490 925l72 410h136l15 -19l-112 -391h-111z" />
    <glyph glyph-name="Ldot" unicode="&#x13f;" horiz-adv-x="923" 
d="M840 728q0 -46 -31 -78t-79 -32q-94 0 -95 82q0 46 32 80t85 34q88 0 88 -86zM452 1231l-152 -1084h525l-21 -147h-702l175 1231h175z" />
    <glyph glyph-name="ldot" unicode="&#x140;" horiz-adv-x="612" 
d="M570 769q96 -1 95 -91q0 -42 -31 -74q-30 -32 -80 -31q-96 0 -96 82q0 47 32 80.5t80 33.5zM303 -17q-232 0 -201 242l159 1102h173l-149 -1053q-17 -133 69 -133q44 0 78 19l6 -2l-23 -152q-56 -23 -112 -23z" />
    <glyph glyph-name="Lslash" unicode="&#x141;" horiz-adv-x="897" 
d="M300 147h525l-21 -147h-702l69 480l-136 -80l-7 4l22 155l144 85l83 587h175l-67 -473l138 82h8l-23 -160l-145 -86z" />
    <glyph glyph-name="lslash" unicode="&#x142;" horiz-adv-x="592" 
d="M333 274q-17 -133 70 -133q44 0 77 19l6 -2l-22 -152q-56 -22 -112 -23q-112 0 -165 59.5t-36 182.5l44 315l-134 -82h-7l22 151l142 85l91 633h173l-72 -517l139 86h6l-23 -151l-145 -88z" />
    <glyph glyph-name="Nacute" unicode="&#x143;" horiz-adv-x="1314" 
d="M102 0l175 1238h75l601 -890h6l125 883h167l-175 -1237h-72l-604 892h-3l-127 -886h-168zM627 1301l-44 101l311 207l102 -146l-7 -22z" />
    <glyph glyph-name="nacute" unicode="&#x144;" horiz-adv-x="1102" 
d="M665 987q141 0 233 -83t92 -251q0 -43 -5 -83l-80 -570h-177l73 521q7 52 7 88q0 121 -58 169t-150 48.5t-167.5 -64t-95.5 -172.5l-84 -590h-177l138 964h143l-1 -126q108 149 309 149zM849 1262l-313 -206l-69 102l255 253l129 -126z" />
    <glyph glyph-name="Ncommaaccent" unicode="&#x145;" horiz-adv-x="1314" 
d="M419 -430q55 126 71 292q2 26 5 39l162 13l11 -20q-24 -168 -130 -324h-119zM102 0l175 1238h75l601 -890h6l125 883h167l-175 -1237h-72l-604 892h-3l-127 -886h-168z" />
    <glyph glyph-name="ncommaaccent" unicode="&#x146;" horiz-adv-x="1102" 
d="M410 -99l162 13l11 -20q-24 -168 -131 -324h-119q52 118 72 292q3 26 5 39zM665 987q141 0 233 -83t92 -251q0 -43 -5 -83l-80 -570h-177l73 521q7 52 7 88q0 121 -57.5 169.5t-150 48.5t-168 -64.5t-95.5 -172.5l-84 -590h-177l138 964h143l-1 -126q108 149 309 149z
" />
    <glyph glyph-name="Ncaron" unicode="&#x147;" horiz-adv-x="1314" 
d="M102 0l175 1238h75l601 -890h6l125 883h167l-175 -1237h-72l-604 892h-3l-127 -886h-168zM752 1305l-201 211l78 85l179 -147l199 147l62 -84l-237 -212h-80z" />
    <glyph glyph-name="ncaron" unicode="&#x148;" horiz-adv-x="1102" 
d="M665 987q141 0 233 -83t92 -251q0 -43 -5 -83l-80 -570h-177l73 521q7 52 7 88q0 121 -58 169t-150 48.5t-167.5 -64t-95.5 -172.5l-84 -590h-177l138 964h143l-1 -126q108 149 309 149zM670 1061h-82l-180 257l85 73l157 -166l205 166l63 -73z" />
    <glyph glyph-name="napostrophe" unicode="&#x149;" horiz-adv-x="1251" 
d="M815 987q141 0 233.5 -83t92.5 -251q0 -43 -5 -83l-80 -570h-177l72 521q7 52 8 88q0 121 -58 169.5t-150 48.5t-167.5 -64.5t-95.5 -172.5l-84 -590h-177l138 964h143l-2 -126q108 149 309 149zM309 1303l19 -26q-28 -182 -147 -411h-108q63 225 78 411z" />
    <glyph glyph-name="Eng" unicode="&#x14a;" horiz-adv-x="1312" 
d="M653 -363q-50 0 -93 7l21 144l2 2q34 -6 70 -6q227 0 269 292l5 38l-527 772h-3l-127 -886h-168l175 1238h75l603 -884h6l123 877h167l-156 -1119q-65 -475 -442 -475z" />
    <glyph glyph-name="eng" unicode="&#x14b;" horiz-adv-x="1102" 
d="M665 987q141 0 233 -83t92 -251q0 -43 -5 -83l-91 -633q-24 -168 -114.5 -247t-230.5 -79q-15 0 -59 4l20 143l4 4q9 -2 18 -2q84 0 129 46.5t61 163.5l79 551q7 52 7 88q0 121 -58 169t-150 48.5t-167.5 -64t-95.5 -172.5l-84 -590h-177l138 964h143l-1 -126
q108 149 309 149z" />
    <glyph glyph-name="Omacron" unicode="&#x14c;" horiz-adv-x="1398" 
d="M710.5 128q200.5 0 321 156.5t120.5 371t-111.5 333.5t-311 119t-320 -156.5t-120.5 -371.5t110.5 -333.5t311 -118.5zM699 -26q-273 0 -431 162t-158 417q0 313 180.5 511t452.5 198t430 -162t158 -417q0 -313 -179.5 -511t-452.5 -198zM508 1383l23 146h517l-22 -146
h-518z" />
    <glyph glyph-name="omacron" unicode="&#x14d;" horiz-adv-x="1124" 
d="M547 132q138 0 226.5 115.5t88.5 269.5t-73.5 234.5t-211.5 80.5t-226 -118t-88 -268t73 -232t211 -82zM516 -22q-192 0 -314 116t-122 323q0 248 148 409t359 161t334 -116.5t123 -343.5t-149.5 -388t-378.5 -161zM374 1147l19 130h525l-19 -130h-525z" />
    <glyph glyph-name="Obreve" unicode="&#x14e;" horiz-adv-x="1398" 
d="M710.5 128q200.5 0 321 156.5t120.5 371t-111.5 333.5t-311 119t-320 -156.5t-120.5 -371.5t110.5 -333.5t311 -118.5zM699 -26q-273 0 -431 162t-158 417q0 313 180.5 511t452.5 198t430 -162t158 -417q0 -313 -179.5 -511t-452.5 -198zM761.5 1311q-109.5 0 -176 69.5
t-47.5 189.5l117 11q-4 -65 28 -103.5t95 -38.5t109 39t57 103l108 -11q-15 -117 -98 -188t-192.5 -71z" />
    <glyph glyph-name="obreve" unicode="&#x14f;" horiz-adv-x="1124" 
d="M547 132q138 0 226.5 115.5t88.5 269.5t-73.5 234.5t-211.5 80.5t-226 -118t-88 -268t73 -232t211 -82zM516 -22q-192 0 -314 116t-122 323q0 248 148 409t359 161t334 -116.5t123 -343.5t-149.5 -388t-378.5 -161zM635 1069q-110 0 -175 72.5t-49 197.5l120 13l3 -4
q-6 -67 25 -106t90.5 -39t101.5 39t57 104l6 6l109 -13q-19 -125 -98.5 -197.5t-189.5 -72.5z" />
    <glyph glyph-name="Ohungarumlaut" unicode="&#x150;" horiz-adv-x="1398" 
d="M710.5 128q200.5 0 321 156.5t120.5 371t-111.5 333.5t-311 119t-320 -156.5t-120.5 -371.5t110.5 -333.5t311 -118.5zM699 -26q-273 0 -431 162t-158 417q0 313 180.5 511t452.5 198t430 -162t158 -417q0 -313 -179.5 -511t-452.5 -198zM907 1313l-90 41l140 294
l147 -34v-26zM573 1313l-89 41l138 294l149 -34v-26z" />
    <glyph glyph-name="ohungarumlaut" unicode="&#x151;" horiz-adv-x="1124" 
d="M547 132q138 0 226.5 115.5t88.5 269.5t-73.5 234.5t-211.5 80.5t-226 -118t-88 -268t73 -232t211 -82zM516 -22q-192 0 -314 116t-122 323q0 248 148 409t359 161t334 -116.5t123 -343.5t-149.5 -388t-378.5 -161zM775 1046l-81 45l168 307l127 -44l-2 -27zM469 1046
l-82 45l170 307l126 -44l-2 -27z" />
    <glyph glyph-name="OE" unicode="&#x152;" horiz-adv-x="1653" 
d="M875 162q112 48 182.5 158t89.5 250h-214zM955 728h194q-17 195 -151 300zM289 581q0 -214 108.5 -331.5t298.5 -121.5l136 970q-50 9 -95 10q-207 0 -327.5 -156.5t-120.5 -370.5zM683 -26q-257 0 -415 162t-158 417q0 313 180.5 511t467.5 198q91 0 178 -24h714
l-23 -160h-434q125 -141 136 -350h216l-22 -158h-199q-28 -246 -181 -408h374l-22 -162h-620q-93 -26 -192 -26z" />
    <glyph glyph-name="oe" unicode="&#x153;" horiz-adv-x="1740" 
d="M1502 583v35q0 216 -219 214q-89 -2 -161 -68t-104 -181h484zM528 127q132 0 218 108.5t86 295.5q0 138 -63 220.5t-194.5 82.5t-223.5 -111.5t-92 -303.5q0 -127 68.5 -209.5t200.5 -82.5zM1298 987q173 0 274.5 -100.5t101.5 -279.5q0 -74 -24 -160h-652v-34
q0 -136 70 -208.5t178 -72.5t169 20.5t149 72.5l4 -3l-25 -166q-134 -80 -310 -80q-251 0 -343 193q-128 -194 -393 -193q-188 0 -303.5 118t-115.5 308q0 264 145.5 424.5t368.5 160.5q259 0 352 -201q63 97 155.5 149t198.5 52z" />
    <glyph glyph-name="Racute" unicode="&#x154;" horiz-adv-x="1061" 
d="M505 603q136 0 224 73.5t88 209.5q0 207 -225 207q-112 0 -162 -6l-69 -484h144zM998 916.5q0 -167.5 -82 -275t-214 -151.5l223 -484l-2 -6h-182l-207 462h-193l-65 -462h-174l174 1231q141 13 324.5 13t290.5 -80t107 -247.5zM838 1441l-361 -140l-45 101l311 207
l102 -146z" />
    <glyph glyph-name="racute" unicode="&#x155;" horiz-adv-x="700" 
d="M631 985q60 0 99 -17l-23 -158l-5 -2q-38 17 -88 17q-91 0 -165.5 -50.5t-118.5 -236.5l-77 -538h-177l138 964h143l-1 -119q98 140 275 140zM711 1262l-313 -206l-68 102l255 253l128 -126z" />
    <glyph glyph-name="Rcommaaccent" unicode="&#x156;" horiz-adv-x="1061" 
d="M365 -99l162 13l11 -20q-24 -168 -130 -324h-119q55 126 71 292q2 26 5 39zM505 603q136 0 224 73.5t88 209.5q0 207 -225 207q-112 0 -162 -6l-69 -484h144zM998 916.5q0 -167.5 -82 -275t-214 -151.5l223 -484l-2 -6h-182l-207 462h-193l-65 -462h-174l174 1231
q141 13 324.5 13t290.5 -80t107 -247.5z" />
    <glyph glyph-name="rcommaaccent" unicode="&#x157;" horiz-adv-x="700" 
d="M65 -99l162 13l11 -20q-24 -168 -130 -324h-119q55 126 71 292q2 26 5 39zM631 985q60 0 99 -17l-23 -158l-5 -2q-38 17 -88 17q-91 0 -165.5 -50.5t-118.5 -236.5l-77 -538h-177l138 964h143l-1 -119q98 140 275 140z" />
    <glyph glyph-name="Rcaron" unicode="&#x158;" horiz-adv-x="1061" 
d="M505 603q136 0 224 73.5t88 209.5q0 207 -225 207q-112 0 -162 -6l-69 -484h144zM998 916.5q0 -167.5 -82 -275t-214 -151.5l223 -484l-2 -6h-182l-207 462h-193l-65 -462h-174l174 1231q141 13 324.5 13t290.5 -80t107 -247.5zM681 1305h-80l-201 211l78 85l179 -147
l199 147l62 -84z" />
    <glyph glyph-name="rcaron" unicode="&#x159;" horiz-adv-x="700" 
d="M631 985q60 0 99 -17l-23 -158l-5 -2q-38 17 -88 17q-91 0 -165.5 -50.5t-118.5 -236.5l-77 -538h-177l138 964h143l-1 -119q99 140 275 140zM532 1061h-81l-181 257l86 73l156 -166l205 166l63 -73z" />
    <glyph glyph-name="Sacute" unicode="&#x15a;" horiz-adv-x="994" 
d="M394 -24q-211 0 -344 82l24 178l6 2q132 -104 309 -104q134 0 214 54t80 140.5t-43.5 135t-175 110t-205 135t-73.5 187.5q0 175 126.5 270.5t314.5 95.5t304 -57l-22 -168l-6 -2q-109 71 -249 71q-288 0 -287 -175q0 -37 11 -63t56.5 -58.5t168.5 -94t189 -141
t66 -202.5q0 -182 -126.5 -289t-337.5 -107zM488 1301l-45 101l311 207l102 -146l-7 -22z" />
    <glyph glyph-name="sacute" unicode="&#x15b;" horiz-adv-x="860" 
d="M333.5 -24q-192.5 0 -309.5 71l24 169l6 2q117 -91 307 -91q222 0 222 136q0 56 -44 86.5t-168.5 73.5t-185 102.5t-60.5 161.5q0 140 113.5 220t290.5 80t273 -47l-20 -154l-4 -2q-108 52 -232 52q-244 0 -244 -127q0 -47 41 -75.5t162 -68.5t187 -98.5t66 -159.5
q0 -160 -116 -245.5t-308.5 -85.5zM426 1067l-69 102l256 253l128 -126l-2 -23z" />
    <glyph glyph-name="Scircumflex" unicode="&#x15c;" horiz-adv-x="994" 
d="M394 -24q-211 0 -344 82l24 178l6 2q132 -104 309 -104q134 0 214 54t80 140.5t-43.5 135t-175 110t-205 135t-73.5 187.5q0 175 126.5 270.5t314.5 95.5t304 -57l-22 -168l-6 -2q-109 71 -249 71q-288 0 -287 -175q0 -37 11 -63t56.5 -58.5t168.5 -94t189 -141
t66 -202.5q0 -182 -126.5 -289t-337.5 -107zM447 1305l-56 84l248 212h80l191 -212l-72 -84l-179 145z" />
    <glyph glyph-name="scircumflex" unicode="&#x15d;" horiz-adv-x="860" 
d="M333.5 -24q-192.5 0 -309.5 71l24 169l6 2q117 -91 307 -91q222 0 222 136q0 56 -44 86.5t-168.5 73.5t-185 102.5t-60.5 161.5q0 140 113.5 220t290.5 80t273 -47l-20 -154l-4 -2q-108 52 -232 52q-244 0 -244 -127q0 -47 41 -75.5t162 -68.5t187 -98.5t66 -159.5
q0 -160 -116 -245.5t-308.5 -85.5zM337 1072l-67 75l251 255h82l181 -255l-88 -75l-152 168z" />
    <glyph glyph-name="Scedilla" unicode="&#x15e;" horiz-adv-x="994" 
d="M627 1262q188 0 304 -57l-22 -168l-6 -2q-109 71 -249 71q-288 0 -287 -175q0 -37 11 -63t56.5 -58.5t168.5 -94t189 -141t66 -202.5q0 -162 -100.5 -265t-271.5 -126l-52 -72q11 4 55 3.5t80 -34.5t36 -103q0 -110 -75.5 -162t-188.5 -52q-60 0 -110 18l15 104l3 2
q37 -15 85.5 -15t82.5 22.5t34 63.5q0 60 -71 60q-41 0 -84 -13l-2 2l13 85l62 86q-195 4 -319 82l24 178l6 2q132 -104 309 -104q134 0 214 54t80 140.5t-43.5 135t-175 110t-205 135t-73.5 187.5q0 175 126.5 270.5t314.5 95.5z" />
    <glyph glyph-name="scedilla" unicode="&#x15f;" horiz-adv-x="860" 
d="M529 987q177 0 273 -47l-20 -154l-4 -2q-108 52 -232 52q-244 0 -244 -127q0 -47 41 -75.5t162 -68.5t187 -98.5t66 -159.5q0 -141 -89.5 -224t-247.5 -102l-52 -72q11 4 55 3.5t80 -34.5t36 -103q0 -110 -75.5 -162t-188.5 -52q-60 0 -110 18l15 104l3 2
q37 -15 85.5 -15t82 22.5t33.5 63.5q0 60 -70 60q-41 0 -84 -13l-2 2l13 85l61 86q-171 6 -279 71l24 169l6 2q117 -91 307 -91q222 0 222 136q0 56 -44 86.5t-168.5 73.5t-185 102.5t-60.5 161.5q0 140 113.5 220t290.5 80z" />
    <glyph glyph-name="Scaron" unicode="&#x160;" horiz-adv-x="994" 
d="M394 -24q-211 0 -344 82l24 178l6 2q132 -104 309 -104q134 0 214 54t80 140.5t-43.5 135t-175 110t-205 135t-73.5 187.5q0 175 126.5 270.5t314.5 95.5t304 -57l-22 -168l-6 -2q-109 71 -249 71q-288 0 -287 -175q0 -37 11 -63t56.5 -58.5t168.5 -94t189 -141
t66 -202.5q0 -182 -126.5 -289t-337.5 -107zM613 1305l-202 211l79 85l178 -147l200 147l61 -84l-236 -212h-80z" />
    <glyph glyph-name="scaron" unicode="&#x161;" horiz-adv-x="860" 
d="M333.5 -24q-192.5 0 -309.5 71l24 169l6 2q117 -91 307 -91q222 0 222 136q0 56 -44 86.5t-168.5 73.5t-185 102.5t-60.5 161.5q0 140 113.5 220t290.5 80t273 -47l-20 -154l-4 -2q-108 52 -232 52q-244 0 -244 -127q0 -47 41 -75.5t162 -68.5t187 -98.5t66 -159.5
q0 -160 -116 -245.5t-308.5 -85.5zM478 1072l-180 257l86 73l156 -166l205 166l63 -73l-248 -257h-82z" />
    <glyph glyph-name="uni0162" unicode="&#x162;" horiz-adv-x="1009" 
d="M607 -225q0 -110 -75.5 -162t-188.5 -52q-60 0 -110 18l15 104l3 2q37 -15 85.5 -15t82 22.5t33.5 63.5q0 60 -70 60q-41 0 -84 -13l-2 2l13 85l78 110h-33l154 1074h-391l23 157h947l-22 -157h-382l-152 -1074h-30l-65 -91q11 4 55 3.5t80 -34.5t36 -103z" />
    <glyph glyph-name="uni0163" unicode="&#x163;" horiz-adv-x="694" 
d="M498 147q66 0 131 26l4 -2l-22 -149q-63 -32 -157 -31l-57 -82q11 4 55 3.5t80 -34.5t36 -103q0 -110 -75.5 -162t-189.5 -52q-60 0 -109 18l15 104l3 2q37 -15 85.5 -15t82 22.5t33.5 63.5q0 60 -70 60q-41 0 -84 -13l-2 2l13 85l78 110h17q-89 20 -140.5 79t-51.5 146
q0 37 4 75l76 525h-182l20 139h181l33 228l175 33l2 -4l-35 -257h285l-21 -139h-285l-69 -499q-4 -30 -3.5 -72t39.5 -74.5t105 -32.5z" />
    <glyph glyph-name="Tcaron" unicode="&#x164;" horiz-adv-x="1009" 
d="M1087 1231l-22 -157h-382l-152 -1074h-177l154 1074h-391l23 157h947zM676 1305h-80l-201 211l78 85l179 -147l199 147l61 -84z" />
    <glyph glyph-name="tcaron" unicode="&#x165;" horiz-adv-x="694" 
d="M498 147q66 0 131 26l4 -2l-22 -149q-63 -32 -174 -31.5t-187.5 63.5t-76.5 171q0 37 4 75l76 525h-182l20 139h181l33 228l175 33l2 -4l-35 -257h285l-21 -139h-285l-69 -499q-4 -30 -3.5 -72t39.5 -74.5t105 -32.5zM812 1473l-112 -391h-112l73 409h136z" />
    <glyph glyph-name="Tbar" unicode="&#x166;" horiz-adv-x="1014" 
d="M1067 1074h-382l-63 -441h175l-19 -128h-175l-71 -505h-176l72 505h-164l17 128h166l63 441h-391l22 157h948z" />
    <glyph glyph-name="tbar" unicode="&#x167;" horiz-adv-x="694" 
d="M498 147q66 0 131 26l4 -2l-22 -149q-63 -32 -174 -31.5t-187.5 63.5t-76.5 171q0 37 4 75l22 156h-158l19 129h158l35 240h-182l20 139h181l33 228l175 33l2 -4l-35 -257h285l-21 -139h-285l-33 -240h180l-18 -129h-179l-19 -130q-4 -30 -3.5 -72t39.5 -74.5t105 -32.5z
" />
    <glyph glyph-name="Utilde" unicode="&#x168;" horiz-adv-x="1273" 
d="M573 -26q-199 0 -311.5 104t-112.5 274q0 88 6 126l106 753h173l-103 -730q-7 -47 -7 -97q0 -134 72.5 -205.5t193.5 -71.5q162 0 249.5 89t115.5 285l103 730h169l-106 -753q-73 -504 -548 -504zM648 1553q65 0 135 -33.5t100.5 -33.5t55.5 21.5t31 56.5l4 4l110 -38
q-15 -86 -72 -138.5t-135 -52.5q-43 0 -115.5 33.5t-107 33.5t-58.5 -22.5t-28 -57.5l-4 -2l-112 33q15 86 73 141t123 55z" />
    <glyph glyph-name="utilde" unicode="&#x169;" horiz-adv-x="1079" 
d="M726 0v110q-110 -132 -307 -132q-147 0 -227 79t-80 217q0 41 7 98l84 592h177l-82 -571q-6 -39 -6 -88q0 -88 48.5 -132.5t134 -44.5t157.5 50.5t107 143.5l91 642h177l-138 -964h-143zM517.5 1346q63.5 0 130.5 -35.5t102 -35.5q69 0 80 77l6 3l119 -26
q-15 -97 -70.5 -147t-119 -50t-133.5 35.5t-100.5 35.5t-52 -21t-27.5 -56l-5 -3l-108 26q11 86 63 141.5t115.5 55.5z" />
    <glyph glyph-name="Umacron" unicode="&#x16a;" horiz-adv-x="1273" 
d="M573 -26q-199 0 -311.5 104t-112.5 274q0 88 6 126l106 753h173l-103 -730q-7 -47 -7 -97q0 -134 72.5 -205.5t193.5 -71.5q162 0 249.5 89t115.5 285l103 730h169l-106 -753q-73 -504 -548 -504zM497 1389l22 145h518l-22 -145h-518z" />
    <glyph glyph-name="umacron" unicode="&#x16b;" horiz-adv-x="1079" 
d="M726 0v110q-110 -132 -307 -132q-147 0 -227 79t-80 217q0 41 7 98l84 592h177l-82 -571q-6 -39 -6 -88q0 -88 48.5 -132.5t134 -44.5t157.5 50.5t107 143.5l91 642h177l-138 -964h-143zM918 1287l-19 -131h-525l19 131h525z" />
    <glyph glyph-name="Ubreve" unicode="&#x16c;" horiz-adv-x="1273" 
d="M573 -26q-199 0 -311.5 104t-112.5 274q0 88 6 126l106 753h173l-103 -730q-7 -47 -7 -97q0 -134 72.5 -205.5t193.5 -71.5q162 0 249.5 89t115.5 285l103 730h169l-106 -753q-73 -504 -548 -504zM750.5 1316q-109.5 0 -176 70t-47.5 189l117 11q-4 -65 28 -103t95 -38
t109 39t57 102l108 -11q-15 -117 -98 -188t-192.5 -71z" />
    <glyph glyph-name="ubreve" unicode="&#x16d;" horiz-adv-x="1079" 
d="M726 0v110q-110 -132 -307 -132q-147 0 -227 79t-80 217q0 41 7 98l84 592h177l-82 -571q-6 -39 -6 -88q0 -88 48.5 -132.5t134 -44.5t157.5 50.5t107 143.5l91 642h177l-138 -964h-143zM635 1078q-110 0 -175 72.5t-49 197.5l120 13l3 -4q-6 -67 25 -106t90.5 -39
t101.5 39t57 104l6 6l109 -13q-19 -125 -98.5 -197.5t-189.5 -72.5z" />
    <glyph glyph-name="Uring" unicode="&#x16e;" horiz-adv-x="1273" 
d="M573 -26q-199 0 -311.5 104t-112.5 274q0 88 6 126l106 753h173l-103 -730q-7 -47 -7 -97q0 -134 72.5 -205.5t193.5 -71.5q162 0 249.5 89t115.5 285l103 730h169l-106 -753q-73 -504 -548 -504zM755 1361q36 0 61.5 24t25.5 60.5t-22.5 57t-59 20.5t-61.5 -24t-25 -61
t22.5 -57t58.5 -20zM750.5 1268q-80.5 0 -129 44.5t-48.5 121t56 129.5t136.5 53t128.5 -43.5t48 -120t-55.5 -130.5t-136 -54z" />
    <glyph glyph-name="uring" unicode="&#x16f;" horiz-adv-x="1079" 
d="M726 0v110q-110 -132 -307 -132q-147 0 -227 79t-80 217q0 41 7 98l84 592h177l-82 -571q-6 -39 -6 -88q0 -88 48.5 -132.5t134 -44.5t157.5 50.5t107 143.5l91 642h177l-138 -964h-143zM638 1322q-37 0 -62 -27t-25 -68t23.5 -63.5t60.5 -22.5t62 27t25 68t-23.5 63.5
t-60.5 22.5zM629.5 1048q-81.5 0 -130 46.5t-48.5 128t55.5 137t137 55.5t130.5 -46.5t49 -127t-56 -137t-137.5 -56.5z" />
    <glyph glyph-name="Uhungarumlaut" unicode="&#x170;" horiz-adv-x="1273" 
d="M573 -26q-199 0 -311.5 104t-112.5 274q0 88 6 126l106 753h173l-103 -730q-7 -47 -7 -97q0 -134 72.5 -205.5t193.5 -71.5q162 0 249.5 89t115.5 285l103 730h169l-106 -753q-73 -504 -548 -504zM896 1318l-90 41l140 294l147 -33v-26zM562 1318l-89 41l138 294l149 -33
v-26z" />
    <glyph glyph-name="uhungarumlaut" unicode="&#x171;" horiz-adv-x="1079" 
d="M726 0v110q-110 -132 -307 -132q-147 0 -227 79t-80 217q0 41 7 98l84 592h177l-82 -571q-6 -39 -6 -88q0 -88 48.5 -132.5t134 -44.5t157.5 50.5t107 143.5l91 642h177l-138 -964h-143zM987 1337l-212 -281l-81 44l168 308l127 -45zM681 1337l-212 -281l-82 44l170 308
l126 -45z" />
    <glyph glyph-name="Uogonek" unicode="&#x172;" horiz-adv-x="1273" 
d="M581 -235q0 -63 71 -63q34 0 54 8l5 -4l-15 -114q-48 -15 -119.5 -15t-120 35.5t-48.5 102.5q0 143 169 259h-4q-199 0 -311.5 104t-112.5 274q0 88 6 126l106 753h173l-103 -730q-7 -47 -7 -97q0 -134 72.5 -205.5t193.5 -71.5q162 0 249.5 89t115.5 285l103 730h169
l-106 -753q-58 -404 -378 -485q-162 -114 -162 -228z" />
    <glyph glyph-name="uogonek" unicode="&#x173;" horiz-adv-x="1079" 
d="M754 -305q34 0 54 7l6 -4l-15 -113q-48 -15 -120 -15t-120.5 35.5t-48.5 102.5q0 168 224 292h-8v110q-110 -132 -307 -132q-147 0 -227 79t-80 217q0 41 7 98l84 592h177l-82 -571q-6 -39 -6 -88q0 -88 48.5 -132.5t134 -44.5t157.5 50.5t107 143.5l91 642h177
l-138 -964h-3q-182 -123 -183 -242q0 -63 71 -63z" />
    <glyph glyph-name="Wcircumflex" unicode="&#x174;" horiz-adv-x="1712" 
d="M1789 1231l2 -6l-562 -1244h-131l-162 898l-5 48l-19 -48l-426 -898h-134l-218 1244l2 6h184l134 -928l4 -76l30 76l422 922h121l162 -907l6 -82l30 82l391 913h169zM996 1450l-212 -145l-56 84l248 212h80l191 -212l-72 -84z" />
    <glyph glyph-name="wcircumflex" unicode="&#x175;" horiz-adv-x="1429" 
d="M1465 964l2 -5l-439 -959h-160l-99 722l-4 36l-331 -758h-160l-172 959l2 5h177l99 -707v-41l322 748h184l97 -705l4 -39l13 41l301 703h164zM830 1242l-206 -168l-67 75l251 255h82l181 -255l-88 -75z" />
    <glyph glyph-name="Ycircumflex" unicode="&#x176;" horiz-adv-x="1064" 
d="M380 0l74 516l-318 709l2 6h186l242 -550l395 550h178l2 -6l-515 -711l-73 -514h-173zM460 1305l-56 84l248 212h80l191 -212l-72 -84l-179 145z" />
    <glyph glyph-name="ycircumflex" unicode="&#x177;" horiz-adv-x="956" 
d="M95 -317q-61 0 -112 19l24 142l6 1q39 -15 102 -14q121 0 233 212l8 15l-257 901l2 5h188l178 -711l350 711h179l2 -5l-475 -899l-20 -40q-95 -181 -186.5 -259t-221.5 -78zM605 1229l-207 -168l-67 75l252 255h82l180 -255l-87 -75z" />
    <glyph glyph-name="Ydieresis" unicode="&#x178;" horiz-adv-x="1064" 
d="M380 0l74 516l-318 709l2 6h186l242 -550l395 550h178l2 -6l-515 -711l-73 -514h-173zM862 1354q-43 0 -69 25t-26 69t31.5 73.5t74.5 29.5t68 -26q25 -25 25 -69t-30.5 -73t-73.5 -29zM484 1354q-43 0 -69 25t-26 69t31.5 73.5t74.5 29.5t68 -26q25 -25 25 -69
t-30.5 -73t-73.5 -29z" />
    <glyph glyph-name="Zacute" unicode="&#x179;" horiz-adv-x="1048" 
d="M20 0l-11 61l812 1026h-661l19 144h884l9 -60l-817 -1026h681l-18 -145h-898zM486 1313l-45 100l311 207l103 -145l-8 -23z" />
    <glyph glyph-name="zacute" unicode="&#x17a;" horiz-adv-x="923" 
d="M884 879l-631 -730h559l-21 -149h-769l-7 82l624 733h-509l19 149h728zM763 1262l-312 -206l-69 102l255 253l128 -126z" />
    <glyph glyph-name="Zdotaccent" unicode="&#x17b;" horiz-adv-x="1048" 
d="M20 0l-11 61l812 1026h-661l19 144h884l9 -60l-817 -1026h681l-18 -145h-898zM661 1365q-48 0 -78 28.5t-30 78.5t35.5 83t84 33t77 -29t28.5 -79t-34.5 -82.5t-82.5 -32.5z" />
    <glyph glyph-name="zdotaccent" unicode="&#x17c;" horiz-adv-x="923" 
d="M884 879l-631 -730h559l-21 -149h-769l-7 82l624 733h-509l19 149h728zM562.5 1141q-48.5 0 -78.5 29q-30 30 -30 80t35.5 82.5t84 32.5t77.5 -29q29 -30 29 -80t-34.5 -82.5t-83 -32.5z" />
    <glyph glyph-name="Zcaron" unicode="&#x17d;" horiz-adv-x="1048" 
d="M20 0l-11 61l812 1026h-661l19 144h884l9 -60l-817 -1026h681l-18 -145h-898zM611 1316l-201 211l78 85l179 -147l199 147l61 -83l-236 -213h-80z" />
    <glyph glyph-name="zcaron" unicode="&#x17e;" horiz-adv-x="923" 
d="M884 879l-631 -730h559l-21 -149h-769l-7 82l624 733h-509l19 149h728zM585 1061h-82l-181 257l86 73l156 -166l205 166l63 -73z" />
    <glyph glyph-name="uni018F" unicode="&#x18f;" horiz-adv-x="1305" 
d="M626 128q159 0 265.5 98t139.5 284h-739q-2 -17 -2 -48q0 -158 88.5 -246t247.5 -88zM673.5 1262q237.5 0 393.5 -145t156 -423q0 -341 -171 -530.5t-447 -189.5q-227 0 -358.5 132t-131.5 346q0 110 17 211h912v15q0 209 -111.5 317.5t-310 108.5t-376.5 -121l-8 4
l32 173q166 102 403.5 102z" />
    <glyph glyph-name="uni019D" unicode="&#x19d;" horiz-adv-x="1314" 
d="M-151 -363q-50 0 -93 7l21 144l1 2q34 -6 71 -6q223 0 265 292l163 1162h75l603 -884h6l124 884h168l-175 -1238h-73l-605 886h-3l-114 -797q-65 -452 -434 -452z" />
    <glyph glyph-name="Gcaron" unicode="&#x1e6;" horiz-adv-x="1232" 
d="M853 1260q190 0 327 -67l-22 -163l-6 -2q-127 78 -346 78t-368 -157.5t-149 -410.5q0 -182 103 -290t289 -108q134 0 248 54l41 298h-277l14 143h442l-77 -551q-197 -102 -438 -102t-385.5 142t-144.5 390q0 333 209 539.5t540 206.5zM862 1313h-80l-201 210l78 86
l179 -147l199 147l61 -84z" />
    <glyph glyph-name="gcaron" unicode="&#x1e7;" horiz-adv-x="1098" 
d="M491 186q99 0 158.5 38.5t113.5 118.5l58 418q-84 73 -229 73t-235.5 -110.5t-90.5 -257t63 -213.5t162 -67zM391.5 -318q-206.5 0 -346.5 82l24 167l5 2q125 -95 296.5 -95t256 68t103.5 204l5 35q-112 -117 -285.5 -117t-269.5 104t-96 289q0 259 149 412.5t347 153.5
t295 -86l32 76h123l-123 -863q-30 -209 -169.5 -320.5t-346 -111.5zM670 1061h-82l-180 257l85 73l157 -166l205 166l63 -73z" />
    <glyph glyph-name="uni01EA" unicode="&#x1ea;" horiz-adv-x="1398" 
d="M289 580q0 -215 110.5 -333.5t311 -118.5t321 156.5t120.5 371t-111.5 333.5t-311 119t-320 -156.5t-120.5 -371.5zM761 -298q34 0 54 8l6 -4l-15 -114q-48 -15 -120 -15t-120 35.5t-48 102.5q0 143 169 259h-4q-257 0 -415 162t-158 417q0 313 180.5 511t452.5 198
t430 -162t158 -421t-128.5 -444t-346.5 -241q-166 -114 -165 -229q0 -63 70 -63z" />
    <glyph glyph-name="uni01EB" unicode="&#x1eb;" horiz-adv-x="1124" 
d="M263 446q0 -150 73.5 -232t211 -82t226 115.5t88.5 269.5t-73.5 234.5t-211.5 80.5t-226 -118t-88 -268zM497 -235q0 -63 71 -63q34 0 54 8l5 -4l-14 -114q-48 -15 -120 -15t-120.5 35.5t-48.5 102.5q0 147 175 263q-184 6 -301.5 122t-117.5 317q0 248 148 409t359 161
t334 -116.5t123 -321t-103.5 -353t-272.5 -198.5q-171 -117 -171 -233z" />
    <glyph glyph-name="Aringacute" unicode="&#x1fa;" horiz-adv-x="1135" 
d="M354 426h415l-121 477l-11 60l-28 -60zM637 1253h74l348 -1253h-182l-73 289h-525l-154 -289h-173zM690 1361q36 0 61 24t25 60.5t-22 57t-58.5 20.5t-61.5 -24t-25 -61t22.5 -57t58.5 -20zM877 1458q0 -82 -56 -136t-136 -54t-128.5 44.5t-48.5 121t56 129.5t125.5 53
t109.5 -22l251 167l102 -145l-7 -22l-272 -105q4 -22 4 -31z" />
    <glyph glyph-name="aringacute" unicode="&#x1fb;" horiz-adv-x="1133" 
d="M483.5 132q97.5 0 175.5 58t104 171l60 406q-88 65 -228.5 65t-238 -116t-97.5 -325q0 -125 63.5 -192t161 -67zM974 147q35 0 63 19l6 -2l-21 -147q-56 -30 -128 -30q-141 0 -147 125q-110 -134 -287.5 -134t-280.5 104t-103 281q0 287 148 455.5t376 168.5
q169 0 268 -71l15 48h143l-103 -724q-12 -93 51 -93zM650 1141q37 0 62 27t25 68t-23 63.5t-60.5 22.5t-62.5 -27t-25 -68t23.5 -63.5t60.5 -22.5zM644.5 1048q-81.5 0 -130.5 46.5t-49 128t56 137t146 55.5q43 0 70 -13l209 207l128 -127l-2 -22l-242 -160q7 -20 8 -51
q0 -88 -56 -144.5t-137.5 -56.5z" />
    <glyph glyph-name="AEacute" unicode="&#x1fc;" horiz-adv-x="1470" 
d="M410 478h311l78 557l-121 -180zM1447 1087h-466l-52 -376h432l-22 -143h-430l-58 -423h482l-19 -145h-662l50 354h-382l-253 -354h-179l888 1231h691zM1214 1441l-361 -140l-45 101l311 207l102 -146z" />
    <glyph glyph-name="aeacute" unicode="&#x1fd;" horiz-adv-x="1716" 
d="M1478 585v28q0 220 -221 219q-97 0 -172.5 -66t-107.5 -181h501zM484.5 132q98.5 0 182 93t111.5 263q13 141 77 249q-89 95 -243 95t-253.5 -115.5t-99.5 -321.5q0 -127 63.5 -195t162 -68zM1264.5 987q181.5 0 283.5 -101.5t102 -259.5q0 -84 -23 -179h-670v-17
q0 -141 77.5 -219.5t194.5 -78.5q171 0 309 93l5 -3l-24 -164q-121 -80 -284 -80q-326 0 -423 236q-119 -236 -361 -236q-169 0 -272 105t-103 288q0 281 150 448.5t374 167.5q125 0 204.5 -30t146.5 -97q132 127 313.5 127zM1184 1262l-313 -206l-69 102l256 253l128 -126z
" />
    <glyph glyph-name="Oslashacute" unicode="&#x1fe;" horiz-adv-x="1398" 
d="M704 128q207 0 327.5 156.5t120.5 361.5t-91 318l-571 -787q91 -49 214 -49zM289 588.5q0 -206.5 96 -327.5l576 791q-93 56 -224 56q-207 0 -327.5 -156.5t-120.5 -363zM1331 683q0 -313 -179.5 -511t-468.5 -198q-164 0 -292 69l-104 -144h-151v17l149 205
q-175 160 -175 432q0 313 180.5 511t467.5 198q169 0 301 -74l101 139h156v-13l-151 -206q166 -162 166 -425zM1017 1441l-362 -140l-44 101l311 207l102 -146z" />
    <glyph glyph-name="oslashacute" unicode="&#x1ff;" horiz-adv-x="1124" 
d="M534 132q151 0 239.5 115.5t88.5 263.5t-63 228l-376 -586q51 -21 111 -21zM263 451q0 -145 63 -226l374 587q-52 20 -112 20q-149 0 -237 -118t-88 -263zM1044 536.5q0 -236.5 -149.5 -397.5t-378.5 -161q-101 0 -185 33l-76 -119l-130 2v17l102 160
q-147 119 -147 356.5t148 398.5t375 161q102 0 186 -34l67 105h140v-14l-99 -152q147 -119 147 -355.5zM858 1262l-312 -206l-69 102l255 253l128 -126z" />
    <glyph glyph-name="Scommaaccent" unicode="&#x218;" horiz-adv-x="994" 
d="M253 -430q52 118 72 292q3 26 5 39l162 13l11 -20q-24 -168 -131 -324h-119zM394 -24q-211 0 -344 82l24 178l6 2q132 -104 309 -104q134 0 214 54t80 140.5t-43.5 135t-175 110t-205 135t-73.5 187.5q0 175 126.5 270.5t314.5 95.5t304 -57l-22 -168l-6 -2
q-109 71 -249 71q-288 0 -287 -175q0 -37 11 -63t56.5 -58.5t168.5 -94t189 -141t66 -202.5q0 -182 -126.5 -289t-337.5 -107z" />
    <glyph glyph-name="scommaaccent" unicode="&#x219;" horiz-adv-x="860" 
d="M188 -430q61 139 76 331l162 13l12 -20q-24 -168 -131 -324h-119zM333.5 -24q-192.5 0 -309.5 71l24 169l6 2q117 -91 307 -91q222 0 222 136q0 56 -44 86.5t-168.5 73.5t-185 102.5t-60.5 161.5q0 140 113.5 220t290.5 80t273 -47l-20 -154l-4 -2q-108 52 -232 52
q-244 0 -244 -127q0 -47 41 -75.5t162 -68.5t187 -98.5t66 -159.5q0 -160 -116 -245.5t-308.5 -85.5z" />
    <glyph glyph-name="uni021A" unicode="&#x21a;" horiz-adv-x="1009" 
d="M331 -99l162 13l12 -20q-24 -168 -131 -324h-119q55 126 71 292q2 26 5 39zM1087 1231l-22 -157h-382l-152 -1074h-177l154 1074h-391l23 157h947z" />
    <glyph glyph-name="uni021B" unicode="&#x21b;" horiz-adv-x="694" 
d="M292 -99l162 13l11 -20q-24 -168 -130 -324h-119q56 126 72 292q2 26 4 39zM498 147q66 0 131 26l4 -2l-22 -149q-63 -32 -174 -31.5t-187.5 63.5t-76.5 171q0 37 4 75l76 525h-182l20 139h181l33 228l175 33l2 -4l-35 -257h285l-21 -139h-285l-69 -499q-4 -30 -3.5 -72
t39.5 -74.5t105 -32.5z" />
    <glyph glyph-name="uni0232" unicode="&#x232;" horiz-adv-x="1064" 
d="M380 0l74 516l-318 709l2 6h186l242 -550l395 550h178l2 -6l-515 -711l-73 -514h-173zM406 1389l22 145h518l-23 -145h-517z" />
    <glyph glyph-name="uni0233" unicode="&#x233;" horiz-adv-x="956" 
d="M95 -317q-61 0 -112 19l24 142l6 1q39 -15 102 -14q121 0 233 212l8 15l-257 901l2 5h188l178 -711l350 711h179l2 -5l-475 -899l-20 -40q-95 -181 -186.5 -259t-221.5 -78zM869 1287l-18 -131h-525l18 131h525z" />
    <glyph glyph-name="uni0237" unicode="&#x237;" horiz-adv-x="493" 
d="M-78 -317q-39 0 -99 10l22 152l6 2q26 -6 58 -5q95 0 143.5 57.5t64.5 171.5l129 893h173l-132 -932q-50 -349 -365 -349z" />
    <glyph glyph-name="uni0259" unicode="&#x259;" horiz-adv-x="1022" 
d="M238 352q0 -108 60 -164t161 -56q100 0 176 64t106 184h-503v-28zM508 987q190 0 312 -113t122 -327q0 -266 -144 -418t-355 -151q-173 0 -275 100q-101 101 -101 261q0 84 22 179h671v14q0 146 -76 222t-196 76q-169 0 -309 -91l-6 2l24 166q120 80 311 80z" />
    <glyph glyph-name="uni0272" unicode="&#x272;" horiz-adv-x="1102" 
d="M665 987q141 0 233 -83t92 -251q0 -43 -5 -83l-80 -570h-177l73 521q7 52 7 88q0 121 -57.5 169.5t-150 48.5t-168 -64.5t-95.5 -172.5l-93 -655q-45 -324 -345 -324q-15 0 -59 4l20 143l4 4q9 -2 19 -2q84 0 128.5 48.5t61.5 165.5l141 990h143l-1 -126q108 149 309 149
z" />
    <glyph glyph-name="circumflex" unicode="&#x2c6;" horiz-adv-x="636" 
d="M222 1061l-67 75l251 255h82l180 -255l-87 -75l-153 168z" />
    <glyph glyph-name="caron" unicode="&#x2c7;" horiz-adv-x="636" 
d="M365 1061l-181 257l86 73l156 -166l205 166l63 -73l-247 -257h-82z" />
    <glyph glyph-name="breve" unicode="&#x2d8;" horiz-adv-x="595" 
d="M391 1078q-110 0 -175 72.5t-48 197.5l119 13l3 -4q-6 -67 25 -106t91 -39t101.5 39t56.5 104l6 6l110 -13q-19 -125 -99 -197.5t-190 -72.5z" />
    <glyph glyph-name="dotaccent" unicode="&#x2d9;" horiz-adv-x="506" 
d="M359.5 1141q-48.5 0 -78.5 29q-30 30 -30 80t35.5 82.5t84 32.5t77.5 -29q29 -30 29 -80t-34.5 -82.5t-83 -32.5z" />
    <glyph glyph-name="ring" unicode="&#x2da;" horiz-adv-x="586" 
d="M352 1141q37 0 62 27t25 68t-23 63.5t-60.5 22.5t-62.5 -27t-25 -68t23.5 -63.5t60.5 -22.5zM346.5 1048q-81.5 0 -130 46.5t-48.5 128t55.5 137t137 55.5t130.5 -46.5t49 -127t-56 -137t-137.5 -56.5z" />
    <glyph glyph-name="ogonek" unicode="&#x2db;" horiz-adv-x="361" 
d="M88 -423q-72 -1 -120 35t-48 114t64 154q64 77 172 135l123 -6q-186 -123 -186 -244q0 -63 71 -63q34 0 54 8l5 -4l-14 -114q-49 -15 -121 -15z" />
    <glyph glyph-name="tilde" unicode="&#x2dc;" horiz-adv-x="655" 
d="M301.5 1346q63.5 0 129.5 -35.5t103 -35.5q69 0 80 77l6 3l119 -26q-15 -97 -70.5 -147t-119 -50t-133.5 35.5t-100.5 35.5t-52 -20.5t-27.5 -56.5l-5 -3l-108 26q11 86 63 141.5t115.5 55.5z" />
    <glyph glyph-name="hungarumlaut" unicode="&#x2dd;" horiz-adv-x="675" 
d="M523 1056l-80 44l168 308l126 -45l-2 -26zM218 1056l-82 44l169 308l127 -45l-2 -26z" />
    <glyph glyph-name="gravecomb" unicode="&#x300;" 
d="M13 1063l-324 190l-2 22l121 133l268 -241z" />
    <glyph glyph-name="acutecomb" unicode="&#x301;" 
d="M-240 1056l-69 102l255 253l128 -126l-1 -23z" />
    <glyph glyph-name="uni0302" unicode="&#x302;" 
d="M-413 1061l-67 75l251 255h82l181 -255l-88 -75l-153 168z" />
    <glyph glyph-name="tildecomb" unicode="&#x303;" 
d="M-353.5 1346q63.5 0 130.5 -35.5t102 -35.5q69 0 80 77l6 3l119 -26q-15 -97 -71 -147t-119 -50t-133 35.5t-101 35.5t-52 -20.5t-27 -56.5l-5 -3l-108 26q11 86 63 141.5t115.5 55.5z" />
    <glyph glyph-name="uni0304" unicode="&#x304;" 
d="M-473 1156l19 131h525l-19 -131h-525z" />
    <glyph glyph-name="uni0306" unicode="&#x306;" 
d="M-207 1078q-110 0 -175 72.5t-48 197.5l119 13l4 -4q-6 -67 25 -106t90 -39t101.5 39t56.5 104l6 6l110 -13q-19 -125 -99 -197.5t-190 -72.5z" />
    <glyph glyph-name="uni0307" unicode="&#x307;" 
d="M-147 1141q-48 0 -78 29q-30 30 -30 80t35.5 82.5t83.5 32.5t77 -29q29 -30 29 -80t-34.5 -82.5t-82.5 -32.5z" />
    <glyph glyph-name="uni0308" unicode="&#x308;" 
d="M-24 1145q-48 0 -76 28q-28 27 -28 77t34 80.5t81 30.5t75 -28q28 -29 27.5 -77t-34 -79.5t-79.5 -31.5zM-389.5 1145q-46.5 0 -74.5 28q-28 27 -28.5 77t34 80.5t80.5 30.5t74 -28q28 -29 28 -77t-33.5 -79.5t-80 -31.5z" />
    <glyph glyph-name="uni030A" unicode="&#x30a;" 
d="M-167 1141q37 0 62 27t25 68t-23.5 63.5t-60.5 22.5t-62 -27t-25 -68t23.5 -63.5t60.5 -22.5zM-173.5 1048q-81.5 0 -130 46.5t-48.5 128t56 137t137 55.5t130 -46.5t49 -127t-56 -137t-137.5 -56.5z" />
    <glyph glyph-name="uni030B" unicode="&#x30b;" 
d="M-153 1056l-80 44l168 308l126 -45l-1 -26zM-458 1056l-82 44l169 308l127 -45l-2 -26z" />
    <glyph glyph-name="uni030C" unicode="&#x30c;" 
d="M-272 1061l-180 257l85 73l157 -166l204 166l64 -73l-248 -257h-82z" />
    <glyph glyph-name="uni0312" unicode="&#x312;" 
d="M86 1404q-52 -118 -72 -292q-3 -26 -5 -40l-162 -13l-11 21q24 168 130 324h120z" />
    <glyph glyph-name="dotbelowcomb" unicode="&#x323;" 
d="M-389.5 -361q-48.5 0 -78 29t-29.5 79t35.5 82.5t83.5 32.5t77 -28q29 -30 29 -80t-34.5 -82.5t-83 -32.5z" />
    <glyph glyph-name="uni0326" unicode="&#x326;" 
d="M-402 -430q56 126 72 292q2 26 4 39l162 13l11 -20q-24 -168 -130 -324h-119z" />
    <glyph glyph-name="uni0327" unicode="&#x327;" 
d="M-361 -439q-60 0 -110 18l15 104l4 2q37 -15 85 -15t82 22.5t34 63.5q0 60 -71 60q-41 0 -84 -13l-2 2l13 85l78 110h114l-65 -91q11 3 55 3t80 -34t36 -103q0 -110 -75 -162t-189 -52z" />
    <glyph glyph-name="uni0328" unicode="&#x328;" 
d="M-293.5 -423q-71.5 0 -120 35.5t-48.5 113t64.5 154.5t172.5 135l123 -6q-186 -123 -187 -244q0 -63 71 -63q34 0 54 8l6 -4l-15 -114q-49 -15 -120.5 -15z" />
    <glyph glyph-name="uni0335" unicode="&#x335;" 
d="M-592 328l19 128h513l-18 -128h-514z" />
    <glyph glyph-name="uni0336" unicode="&#x336;" 
d="M-1130 607l20 134h1212l-20 -134h-1212z" />
    <glyph glyph-name="uni0337" unicode="&#x337;" 
d="M-477 451l23 150l473 287h5l-22 -151l-471 -286h-8z" />
    <glyph glyph-name="uni0338" unicode="&#x338;" 
d="M-102 1071v-13l-741 -1153l-131 2v17l732 1147h140z" />
    <glyph glyph-name="Wgrave" unicode="&#x1e80;" horiz-adv-x="1712" 
d="M1789 1231l2 -6l-562 -1244h-131l-162 898l-5 48l-19 -48l-426 -898h-134l-218 1244l2 6h184l134 -928l4 -76l30 76l422 922h121l162 -907l6 -82l30 82l391 913h169zM1134 1303l-350 155l-8 22l114 140l292 -218z" />
    <glyph glyph-name="wgrave" unicode="&#x1e81;" horiz-adv-x="1429" 
d="M1465 964l2 -5l-439 -959h-160l-99 722l-4 36l-331 -758h-160l-172 959l2 5h177l99 -707v-41l322 748h184l97 -705l4 -39l13 41l301 703h164zM931 1076l-324 190l-2 22l121 133l268 -241z" />
    <glyph glyph-name="Wacute" unicode="&#x1e82;" horiz-adv-x="1712" 
d="M1789 1231l2 -6l-562 -1244h-131l-162 898l-5 48l-19 -48l-426 -898h-134l-218 1244l2 6h184l134 -928l4 -76l30 76l422 922h121l162 -907l6 -82l30 82l391 913h169zM1186 1441l-361 -140l-45 101l311 207l102 -146z" />
    <glyph glyph-name="wacute" unicode="&#x1e83;" horiz-adv-x="1429" 
d="M1465 964l2 -5l-439 -959h-160l-99 722l-4 36l-331 -758h-160l-172 959l2 5h177l99 -707v-41l322 748h184l97 -705l4 -39l13 41l301 703h164zM1026 1275l-313 -206l-69 102l255 253l129 -126z" />
    <glyph glyph-name="Wdieresis" unicode="&#x1e84;" horiz-adv-x="1712" 
d="M1789 1231l2 -6l-562 -1244h-131l-162 898l-5 48l-19 -48l-426 -898h-134l-218 1244l2 6h184l134 -928l4 -76l30 76l422 922h121l162 -907l6 -82l30 82l391 913h169zM1186 1354q-43 0 -69 25t-26 69t31.5 73.5t74.5 29.5t68 -26q25 -25 25 -69t-30.5 -73t-73.5 -29z
M808 1354q-43 0 -69 25t-26 69t31.5 73.5t74.5 29.5t68 -26q25 -25 25 -69t-30.5 -73t-73.5 -29z" />
    <glyph glyph-name="wdieresis" unicode="&#x1e85;" horiz-adv-x="1429" 
d="M1465 964l2 -5l-439 -959h-160l-99 722l-4 36l-331 -758h-160l-172 959l2 5h177l99 -707v-41l322 748h184l97 -705l4 -39l13 41l301 703h164zM1001.5 1158q-46.5 0 -75.5 28t-29 76.5t34.5 80t81 31.5t74.5 -28t28 -76.5t-33.5 -80t-80 -31.5zM636.5 1158
q-46.5 0 -75.5 28t-29 76.5t34.5 80t81 31.5t74.5 -28t28 -76.5t-33.5 -80t-80 -31.5z" />
    <glyph glyph-name="uni1E9E" unicode="&#x1e9e;" horiz-adv-x="1312" 
d="M1044 384q0 225 -363 195l10 56l313 447q-63 20 -192 20q-175 0 -300 -98.5t-158 -327.5l-95 -676h-177l99 689q19 130 70 232.5t117 164.5q183 174 519 174q215 0 344 -80l-8 -52l-300 -407q130 -6 215 -78.5t85 -225.5q0 -199 -118 -322t-334 -123q-158 0 -278 63
l23 157l3 3q117 -76 250.5 -76t204 73.5t70.5 191.5z" />
    <glyph glyph-name="uni1EA0" unicode="&#x1ea0;" horiz-adv-x="1135" 
d="M471 -138q48 0 77 -28q29 -30 29 -80t-34.5 -82.5t-83 -32.5t-78 29t-29.5 79t35.5 82.5t83.5 32.5zM354 426h415l-121 477l-11 60l-28 -60zM1059 0h-182l-73 289h-525l-154 -289h-173l685 1253h74z" />
    <glyph glyph-name="uni1EA1" unicode="&#x1ea1;" horiz-adv-x="1133" 
d="M469.5 -138q48.5 0 77 -28.5t28.5 -79t-34.5 -83t-82.5 -32.5t-78 29t-30 79t35.5 82.5t84 32.5zM483.5 132q97.5 0 175.5 58t104 171l60 406q-88 65 -228.5 65t-238 -116t-97.5 -325q0 -125 63.5 -192t161 -67zM894 -13q-141 0 -147 125q-110 -134 -287.5 -134
t-280.5 104t-103 281q0 287 148 455.5t376 168.5q169 0 268 -71l15 48h143l-103 -724q-13 -93 51 -93q35 0 63 19l6 -2l-21 -147q-56 -30 -128 -30z" />
    <glyph glyph-name="uni1EB8" unicode="&#x1eb8;" horiz-adv-x="990" 
d="M472.5 -138q48.5 0 77.5 -28q29 -30 29 -80t-34.5 -82.5t-83 -32.5t-78 29t-29.5 79t35 82.5t83.5 32.5zM963 1071h-535l-50 -358h501l-24 -160h-499l-54 -391h553l-23 -162h-730l174 1231h709z" />
    <glyph glyph-name="uni1EB9" unicode="&#x1eb9;" horiz-adv-x="1022" 
d="M478.5 -138q48.5 0 77.5 -28.5t29 -79t-34.5 -83t-83 -32.5t-78.5 29t-30 79t35.5 82.5t84 32.5zM784 585v28q0 220 -222 219q-97 0 -172 -66t-107 -181h501zM579 987q173 0 274.5 -101.5t101.5 -259.5q0 -84 -22 -179h-670v-17q0 -141 76 -219.5t197 -78.5q169 0 307 93
l6 -2l-24 -165q-121 -80 -311 -80t-312 110.5t-122 346t144.5 394t354.5 158.5z" />
    <glyph glyph-name="uni1EBC" unicode="&#x1ebc;" horiz-adv-x="990" 
d="M102 0l174 1231h709l-22 -160h-535l-50 -358h501l-24 -160h-499l-54 -391h553l-23 -162h-730zM551 1553q65 0 135 -33.5t100.5 -33.5t56 21.5t30.5 56.5l4 4l110 -38q-15 -86 -72 -138.5t-135 -52.5q-43 0 -115.5 33.5t-107 33.5t-58.5 -22.5t-28 -57.5l-4 -2l-111 33
q15 86 72.5 141t122.5 55z" />
    <glyph glyph-name="uni1EBD" unicode="&#x1ebd;" horiz-adv-x="1022" 
d="M784 585v28q0 220 -222 219q-97 0 -172 -66t-107 -181h501zM579 987q173 0 274.5 -101.5t101.5 -259.5q0 -84 -22 -179h-670v-17q0 -141 76 -219.5t197 -78.5q169 0 307 93l6 -2l-24 -165q-121 -80 -311 -80t-312 110.5t-122 346t144.5 394t354.5 158.5zM477.5 1346
q62.5 0 129.5 -35.5t104 -35.5q69 0 80 77l6 3l119 -26q-15 -97 -71 -147t-119 -50t-133 35.5t-100.5 35.5t-52 -21t-27.5 -56l-5 -3l-108 26q11 86 63 141.5t114.5 55.5z" />
    <glyph glyph-name="uni1ECA" unicode="&#x1eca;" horiz-adv-x="513" 
d="M152.5 -361q-48.5 0 -78 29t-29.5 79t35 82.5t83.5 32.5t77.5 -28q29 -30 29 -80t-34.5 -82.5t-83 -32.5zM102 0l174 1231h175l-174 -1231h-175z" />
    <glyph glyph-name="uni1ECB" unicode="&#x1ecb;" horiz-adv-x="463" 
d="M126.5 -361q-48.5 0 -78 29t-29.5 79t35 82.5t83.5 32.5t77.5 -28q29 -30 29 -80t-34.5 -82.5t-83 -32.5zM76 0l138 964h177l-138 -964h-177zM337 1141q-48 0 -78 29q-30 30 -30 80t35.5 82.5t83.5 32.5q50 0 78 -29q28 -30 28 -80t-34.5 -82.5t-82.5 -32.5z" />
    <glyph glyph-name="uni1ECC" unicode="&#x1ecc;" horiz-adv-x="1398" 
d="M530.5 -357q-48.5 0 -78 28.5t-29.5 79t35 83t83.5 32.5t77.5 -29t29 -79t-34.5 -82.5t-83 -32.5zM710.5 128q200.5 0 321 156.5t120.5 371t-111.5 333.5t-311 119t-320 -156.5t-120.5 -371.5t110.5 -333.5t311 -118.5zM699 -26q-273 0 -431 162t-158 417
q0 313 180.5 511t452.5 198t430 -162t158 -417q0 -313 -179.5 -511t-452.5 -198z" />
    <glyph glyph-name="uni1ECD" unicode="&#x1ecd;" horiz-adv-x="1124" 
d="M467.5 -361q-48.5 0 -78.5 29t-30 79t35.5 82.5t84 32.5t77.5 -28.5t29 -79t-34.5 -83t-83 -32.5zM547 132q138 0 226.5 115.5t88.5 269.5t-73.5 234.5t-211.5 80.5t-226 -118t-88 -268t73 -232t211 -82zM516 -22q-192 0 -314 116t-122 323q0 248 148 409t359 161
t334 -116.5t123 -343.5t-149.5 -388t-378.5 -161z" />
    <glyph glyph-name="uni1EE4" unicode="&#x1ee4;" horiz-adv-x="1273" 
d="M530.5 -361q-48.5 0 -78 29t-29.5 79t35 82.5t83.5 32.5t77.5 -28q29 -30 29 -80t-34.5 -82.5t-83 -32.5zM573 -26q-199 0 -311.5 104t-112.5 274q0 88 6 126l106 753h173l-103 -730q-7 -47 -7 -97q0 -134 72.5 -205.5t193.5 -71.5q162 0 249.5 89t115.5 285l103 730h169
l-106 -753q-73 -504 -548 -504z" />
    <glyph glyph-name="uni1EE5" unicode="&#x1ee5;" horiz-adv-x="1079" 
d="M446.5 -138q48.5 0 77.5 -28.5t29 -79t-34.5 -83t-83 -32.5t-78 29t-29.5 79t35 82.5t83.5 32.5zM726 0v110q-110 -132 -307 -132q-147 0 -227 79t-80 217q0 41 7 98l84 592h177l-82 -571q-6 -39 -6 -88q0 -88 48.5 -132.5t134 -44.5t157.5 50.5t107 143.5l91 642h177
l-138 -964h-143z" />
    <glyph glyph-name="Ygrave" unicode="&#x1ef2;" horiz-adv-x="1064" 
d="M380 0l74 516l-318 709l2 6h186l242 -550l395 550h178l2 -6l-515 -711l-73 -514h-173zM810 1303l-350 155l-8 22l114 140l292 -218z" />
    <glyph glyph-name="ygrave" unicode="&#x1ef3;" horiz-adv-x="956" 
d="M95 -317q-61 0 -112 19l24 142l6 1q39 -15 102 -14q121 0 233 212l8 15l-257 901l2 5h188l178 -711l350 711h179l2 -5l-475 -899l-20 -40q-95 -181 -186.5 -259t-221.5 -78zM706 1063l-324 190l-2 22l121 133l268 -241z" />
    <glyph glyph-name="uni1EF8" unicode="&#x1ef8;" horiz-adv-x="1064" 
d="M380 0l74 516l-318 709l2 6h186l242 -550l395 550h178l2 -6l-515 -711l-73 -514h-173zM557 1553q65 0 134.5 -33.5t100.5 -33.5t56 21.5t31 56.5l4 4l109 -38q-15 -86 -71.5 -138.5t-134.5 -52.5q-41 0 -115.5 33.5t-108.5 33.5t-58 -22.5t-27 -57.5l-4 -2l-112 33
q15 86 73 141t123 55z" />
    <glyph glyph-name="uni1EF9" unicode="&#x1ef9;" horiz-adv-x="956" 
d="M95 -317q-61 0 -112 19l24 142l6 1q39 -15 102 -14q121 0 233 212l8 15l-257 901l2 5h188l178 -711l350 711h179l2 -5l-475 -899l-20 -40q-95 -181 -186.5 -259t-221.5 -78zM469 1346q63 0 130.5 -35.5t102.5 -35.5q69 0 80 77l6 3l119 -26q-15 -97 -71 -147t-119 -50
t-133 35.5t-101 35.5t-52 -21t-27 -56l-6 -3l-108 26q11 86 63.5 141.5t115.5 55.5z" />
    <glyph glyph-name="endash" unicode="&#x2013;" horiz-adv-x="940" 
d="M123 451l20 145h686l-21 -145h-685z" />
    <glyph glyph-name="emdash" unicode="&#x2014;" horiz-adv-x="1539" 
d="M123 451l20 145h1287l-19 -145h-1288z" />
    <glyph glyph-name="quoteleft" unicode="&#x2018;" horiz-adv-x="387" 
d="M423 1301q-62 -222 -79 -411l-158 -26l-18 26q28 182 147 411h108z" />
    <glyph glyph-name="quoteright" unicode="&#x2019;" horiz-adv-x="366" 
d="M145 866q67 244 78 411l159 26l18 -26q-28 -182 -147 -411h-108z" />
    <glyph glyph-name="quotesinglbase" unicode="&#x201a;" horiz-adv-x="381" 
d="M-37 -283q11 37 41 178t37 230l158 26l19 -26q-30 -188 -147 -408h-108z" />
    <glyph glyph-name="quotedblleft" unicode="&#x201c;" horiz-adv-x="659" 
d="M693 1301q-74 -266 -79 -411l-158 -26l-18 26q28 182 147 411h108zM423 1301q-62 -222 -79 -411l-158 -26l-18 26q28 182 147 411h108z" />
    <glyph glyph-name="quotedblright" unicode="&#x201d;" horiz-adv-x="651" 
d="M415 866q73 265 77 411l160 26l18 -26q-28 -171 -147 -411h-108zM145 866q67 244 78 411l159 26l18 -26q-28 -182 -147 -411h-108z" />
    <glyph glyph-name="quotedblbase" unicode="&#x201e;" horiz-adv-x="647" 
d="M233 -283q26 89 49 213t27 195l160 26l19 -26q-28 -179 -147 -408h-108zM-37 -283q11 37 41 178t37 230l158 26l19 -26q-30 -188 -147 -408h-108z" />
    <glyph glyph-name="dagger" unicode="&#x2020;" horiz-adv-x="962" 
d="M607 950l318 26l-20 -161l-294 14l-153 -935h-119l110 938l-293 -20l23 164l311 -25l26 345l165 -2z" />
    <glyph glyph-name="daggerdbl" unicode="&#x2021;" horiz-adv-x="964" 
d="M317 -114l72 336l-322 -23l24 164l293 -22l55 251l15 250l-296 -23l24 166l311 -26l25 341h165l-72 -343l318 28l-24 -166l-291 23l-55 -250l-15 -249l294 20l-23 -164l-310 24l-23 -337h-165z" />
    <glyph glyph-name="bullet" unicode="&#x2022;" horiz-adv-x="690" 
d="M328 298q-81 0 -129 51t-48 134t69 151t150 68t129 -52t48 -134t-69 -150t-150 -68z" />
    <glyph glyph-name="ellipsis" unicode="&#x2026;" horiz-adv-x="1081" 
d="M961 102q-1 -48 -33 -82t-86 -33q-54 0 -82 29t-28 77q0 49 34 83t87 34t81 -30q27 -30 27 -78zM499 -13q-54 0 -82 29t-28 77q1 49 35 83t87 34t80 -30t27 -78t-32 -82q-33 -33 -87 -33zM43 93q0 49 34 83q33 34 87 34t81 -30t27 -78t-32 -82t-87 -33q-54 0 -82 29
t-28 77z" />
    <glyph glyph-name="perthousand" unicode="&#x2030;" horiz-adv-x="1990" 
d="M1458 259q0 -145 138 -145q72 0 122 57q49 58 49 147q0 170 -127 170q-82 0 -132 -62t-50 -167zM823 259q1 -145 139 -145q72 0 121 57q49 58 49 147q0 170 -127 170q-82 0 -132 -62t-50 -167zM1566 -9q-115 0 -185 66q-69 66 -68 189q0 169 97 267q98 98 230 98t201 -68
t69 -195q0 -169 -96 -263t-248 -94zM1277 348q-1 -169 -97 -263t-229 -94t-203 66q-69 66 -68 189q0 169 96 267q97 98 230 98t202 -68t69 -195zM414 747q72 -1 122 59t50 148q0 168 -130 169q-80 1 -129 -61t-50 -165q0 -150 137 -150zM147 20l966 1201h151l-968 -1201
h-149zM730 983q0 -169 -98 -263t-230 -94q-133 0 -202 66q-68 66 -68 191q0 167 98 265t229 98t201 -69t70 -194z" />
    <glyph glyph-name="guilsinglleft" unicode="&#x2039;" horiz-adv-x="608" 
d="M432 179l-227 353l326 326h175l-2 -16l-311 -317l208 -331l-1 -15h-168z" />
    <glyph glyph-name="guilsinglright" unicode="&#x203a;" horiz-adv-x="606" 
d="M326 858l227 -353l-326 -326h-175l2 16l311 317l-209 331l2 15h168z" />
    <glyph glyph-name="fraction" unicode="&#x2044;" horiz-adv-x="240" 
d="M-385 -22l931 1260h132l-933 -1260h-130z" />
    <glyph glyph-name="uni20A8" unicode="&#x20a8;" horiz-adv-x="830" 
d="M223 613q110 0 193 42.5t116 122.5h-413l58 151h372q-30 151 -244 151h-147l58 151h674l-58 -151h-177q67 -58 75 -151h139l-57 -151h-97q-35 -128 -136.5 -204.5t-237.5 -95.5l363 -471l-2 -7h-220l-367 471l19 142h89z" />
    <glyph glyph-name="Euro" unicode="&#x20ac;" horiz-adv-x="1219" 
d="M925 1260q166 0 289 -46l-22 -162l-6 -2q-108 56 -258 56t-264 -70t-176 -196h422l-41 -129h-426q-19 -80 -19 -158h395l-39 -129h-342q32 -134 132 -210t235 -76q136 0 264 57l2 -3l-19 -155q-127 -58 -251 -57q-227 0 -374 119q-146 119 -174 325h-214l39 129h168
q4 88 18 158h-136l41 129h133q76 200 242 310t381 110z" />
    <glyph glyph-name="uni20BD" unicode="&#x20bd;" horiz-adv-x="1018" 
d="M531 637q155 0 236.5 68t81.5 198q0 88 -57 141t-164.5 53t-167.5 -4l-62 -456h133zM532 490h-154l-21 -151h226l-19 -147h-227l-26 -192h-173l26 192h-149l19 147h150l21 151h-149l18 147h149l82 599q179 11 348 11t272 -81t103 -235q0 -210 -134.5 -325.5
t-361.5 -115.5z" />
    <glyph glyph-name="trademark" unicode="&#x2122;" horiz-adv-x="1470" 
d="M1268 1227h132l-28 -585h-128l16 354h-1l-203 -352h-79l-100 360h-2l-84 -362h-130l138 585h136l113 -397zM681 1097h-189l-64 -455h-136l62 455h-192l19 130h519z" />
    <glyph glyph-name="oneeighth" unicode="&#x215b;" horiz-adv-x="1325" 
d="M946 86q63 0 103 28t40 66t-30 64t-98 52l-41 17q-93 -54 -93 -134q0 -93 119 -93zM1119 521q1 35 -27 57t-80 22t-82 -22q-31 -22 -31 -60q0 -68 127 -110q93 52 93 113zM938 -15q-124 0 -185 43t-60 121q0 127 149 208q-76 53 -76 145t74 147t178 55t170 -41
q65 -41 65 -121q0 -112 -132 -181q99 -60 99 -158t-80 -158q-78 -60 -202 -60zM976 1238h132l-933 -1260h-130zM207 562l72 503l-156 -56l20 149l285 101h17l-97 -697h-141z" />
    <glyph glyph-name="threeeighths" unicode="&#x215c;" horiz-adv-x="1500" 
d="M1121 86q63 0 103 28t40 66t-30 64t-98 52l-41 17q-93 -54 -93 -134q0 -93 119 -93zM1294 521q0 35 -28 57t-78 22q-52 0 -83 -22t-31 -60q0 -68 127 -110q93 52 93 113zM1395 203q1 -98 -79 -158t-204 -60t-184 43q-61 43 -60 121q0 127 149 208q-77 53 -77 145t74 147
t180 55q104 0 169 -41t65 -121q0 -112 -132 -181q99 -60 99 -158zM1151 1238h132l-933 -1260h-130zM588 784q0 -106 -80 -171q-80 -66 -210 -66t-214 49l18 115l2 2q61 -52 198 -52q70 0 114 34t44 94q0 82 -106 82h-116l15 99h84q134 0 134 97q-1 80 -115 80t-179 -39h-2
l15 115q74 39 180 39t171 -43q66 -43 66 -139t-101 -151q82 -39 82 -145z" />
    <glyph glyph-name="fiveeighths" unicode="&#x215d;" horiz-adv-x="1509" 
d="M1130 86q63 0 103 28t40 66t-29 64q-30 26 -99 52l-41 17q-93 -54 -93 -134q0 -93 119 -93zM1303 521q1 35 -27 57t-80 22t-82 -22t-30 -60q1 -69 126 -110q93 52 93 113zM1404 203q0 -98 -79 -158t-203 -60t-185 43t-60 121q0 127 149 208q-76 53 -76 145t74 147t178 55
t170 -41q65 -41 65 -121q0 -112 -132 -181q99 -60 99 -158zM1160 1238h132l-933 -1260h-130zM331 886q-101 0 -195 -22l-2 4l78 381h415l-16 -115h-304l-35 -153q38 9 124 9t144 -46t58 -134q0 -138 -88 -200t-209 -62q-120 0 -215 37l16 119h2q84 -45 173 -45q89 1 133 35
t42 94q0 98 -121 98z" />
    <glyph glyph-name="seveneighths" unicode="&#x215e;" horiz-adv-x="1414" 
d="M1035 86q63 0 104 28q40 28 40 66t-30 64t-99 52l-41 17q-93 -54 -93 -134q0 -93 119 -93zM1208 521q0 35 -28 57t-78 22q-52 0 -83 -22t-31 -60q1 -69 127 -110q93 52 93 113zM1309 203q0 -98 -79 -158t-203 -60t-185 43t-60 121q0 127 149 208q-76 53 -76 145t74 147
q75 55 179 55t169 -41t65 -121q0 -112 -132 -181q99 -60 99 -158zM1065 1238h132l-933 -1260h-130zM149 564l328 553h-337l20 130h492l-10 -70l-353 -615h-138z" />
    <glyph glyph-name="arrowleft" unicode="&#x2190;" horiz-adv-x="1124" 
d="M1156 505h-758l259 -256l-111 -111l-445 445l443 448l111 -111l-251 -253h750z" />
    <glyph glyph-name="arrowup" unicode="&#x2191;" horiz-adv-x="1124" 
d="M413 39v844l-253 -252l-112 112l449 443l445 -445l-112 -112l-251 255l-4 -845h-162z" />
    <glyph glyph-name="arrowright" unicode="&#x2192;" horiz-adv-x="1124" 
d="M579 1031l443 -448l-445 -445l-112 111l259 256h-758l2 162h751l-252 253z" />
    <glyph glyph-name="arrowdown" unicode="&#x2193;" horiz-adv-x="1124" 
d="M413 1184h162l4 -845l251 255l112 -112l-445 -445l-449 443l112 112l253 -251v843z" />
    <glyph glyph-name="uni2196" unicode="&#x2196;" horiz-adv-x="1124" 
d="M203 428v630l631 3v-158l-356 -2l652 -652l-113 -115l-658 652l2 -358h-158z" />
    <glyph glyph-name="uni2197" unicode="&#x2197;" horiz-adv-x="1124" 
d="M940 428h-158l2 358l-657 -652l-114 115l652 652l-356 2v158l631 -3v-630z" />
    <glyph glyph-name="uni2198" unicode="&#x2198;" horiz-adv-x="1124" 
d="M940 767v-629l-631 -4v158l356 2l-652 652l114 115l657 -651l-2 357h158z" />
    <glyph glyph-name="uni2199" unicode="&#x2199;" horiz-adv-x="1124" 
d="M203 767h158l-2 -357l658 651l113 -115l-652 -652l356 -2v-158l-631 4v629z" />
    <glyph glyph-name="minus" unicode="&#x2212;" horiz-adv-x="996" 
d="M128 480l21 136h739l-20 -136h-740z" />
    <glyph glyph-name="approxequal" unicode="&#x2248;" horiz-adv-x="934" 
d="M306 464q76 0 164 -36t137 -37q76 0 89 76l8 6l104 -21q-11 -89 -71 -144q-61 -55 -131 -55q-70 -1 -160 35t-137 36q-86 0 -97 -78l-3 -4l-114 15q15 93 74 150q61 57 137 57zM356 829q76 1 165 -35t138 -36q78 0 89 78l8 4l104 -21q-11 -89 -71 -145q-61 -56 -131 -56
t-160 37t-139 38q-82 0 -96 -82l-2 -4l-114 17q13 93 73 149t136 56z" />
    <glyph glyph-name="notequal" unicode="&#x2260;" horiz-adv-x="1025" 
d="M925 676h-223l-158 -272h344l-20 -134h-404l-136 -233h-159l136 233h-206l20 134h266l159 272h-388l21 134h447l128 220h158l-128 -220h164z" />
    <glyph glyph-name="uniF8FF" unicode="&#xf8ff;" horiz-adv-x="2708" 
d="M1972 28h13q7 0 7 6t-7 5h-13v-11zM1962 4v43h21q19 0 18 -13q0 -13 -13 -14l12 -16h-12l-7 16h-9v-16h-10zM1981 -9q33 -1 33 33t-34 34t-33 -34q0 -34 34 -33zM1981 -19q-45 0 -45 43t45 43t45 -43t-45 -43zM1253 201q0 43 -39 43t-39 -56q0 -26 9 -54q26 0 48 20
q21 20 21 47zM1683 201h75q6 50 -32 50q-43 0 -43 -50zM1743 -9q-263 0 -263 227q0 108 62 170t167 62q106 0 163 -55q57 -56 57 -160q0 -41 -6 -64h-231q20 -33 88 -33t108 22v-140q-43 -29 -145 -29zM976 -82q0 263 18 523h145q13 -78 13 -141q32 151 149 151
q69 0 109 -54t40 -157q0 -249 -255 -249q2 -28 2 -73h-221zM946 188q0 -154 -62 -217q-62 -64 -199 -64q-136 0 -186 32v154q45 -30 125 -30t99 33q7 10 7 19q-30 -20 -91 -20q-168 0 -168 153v24h-102l5 -119q12 -7 32 -7t30 9v-136q-35 -28 -123 -28q-87 -1 -121 31
t-34 102t6 148h-34v149l218 54l-2 -34h330v-221q0 -30 6 -39t22 -10q30 0 30 49v221h193q19 -99 19 -253zM2184 691q0 -52 41 -52q41 -1 41 51t-43 53q-39 0 -39 -52zM577 691q0 -52 43 -52q43 -1 43 51t-45 53q-41 0 -41 -52zM2452 722q0 -230 -228 -230t-228 230t231 229
q225 1 225 -229zM1489 501q0 324 19 441h149q11 -78 11 -140q4 28 12 55t44 61t105 34q68 0 98 -46t33 -150l6 -255h-212l4 171q0 54 -28 54q-34 0 -34 -54l6 -171h-213zM547 492q-171 0 -171 210q0 249 250 249q231 0 230 -216v-234h-154l-15 112q-25 -121 -140 -121z
M875 773v147l222 54l1 -32h332q19 -117 18 -441h-219q0 169 5 272h-113l5 -121q8 -8 30 -8t32 9v-135q-26 -28 -127 -28q-153 0 -152 121l7 162h-41zM123 501q0 246 17 581h186q19 -372 18 -581h-221zM1337 966q-48 0 -81 33t-33 81t33 82t81 34t82 -34q33 -34 33 -82
t-34 -81t-81 -33z" />
    <glyph glyph-name="Jacute" horiz-adv-x="655" 
d="M56 -6q-41 0 -95 6l22 149l6 2q26 -6 65 -6q220 0 261 285l113 801h177l-110 -786q-63 -451 -439 -451zM369 1301l-45 101l311 207l102 -146l-7 -22z" />
    <glyph glyph-name="G.alt" horiz-adv-x="1232" 
d="M634 -19q-241 0 -385.5 141t-144.5 388q0 333 208.5 541.5t540.5 208.5q190 0 327 -67l-24 -169l-5 -2q-132 80 -328 80q-238 0 -386 -158t-148 -410q0 -182 103 -288t289 -106q128 0 242 52l51 348h164l-66 -456q-197 -103 -438 -103z" />
    <glyph glyph-name="M.ss01" horiz-adv-x="1513" 
d="M1288 1238h103l-62 -1238h-165l52 849h-6l-486 -840h-57l-257 836h-4l-192 -845h-164l293 1238h104l296 -935z" />
    <glyph glyph-name="Q.ss01" horiz-adv-x="1368" 
d="M1119 674q0 209 -110 320.5t-293.5 111.5t-296 -122t-112.5 -306q0 -326 356 -324q39 0 84 11l5 -2l-11 -156q-56 -11 -114 -12q-242 2 -373 125t-131 341q0 266 170.5 434.5t429.5 168.5t418.5 -150t159.5 -434.5t-169 -479t-479 -245.5q82 -34 191 -85.5t168 -75.5
q159 -66 405 -70l2 -5l-34 -138q-201 7 -356.5 50t-237.5 91.5t-190.5 108t-207.5 87.5l22 158q372 32 538 177t166 421z" />
    <glyph glyph-name="i.loclTRK" horiz-adv-x="463" 
d="M76 0l138 964h177l-138 -964h-177zM337 1141q-48 0 -78 29q-30 30 -30 80t35.5 82.5t83.5 32.5q50 0 78 -29q28 -30 28 -80t-34.5 -82.5t-82.5 -32.5z" />
    <glyph glyph-name="jacute" horiz-adv-x="493" 
d="M-78 -317q-39 0 -99 10l22 152l6 2q26 -6 58 -5q95 0 143.5 57.5t64.5 171.5l129 893h173l-132 -932q-50 -349 -365 -349zM257 1056l-69 102l255 253l129 -126l-2 -23z" />
    <glyph glyph-name="germandbls.calt" horiz-adv-x="1312" 
d="M771 -28q-158 0 -278 63l23 157l5 2q112 -74 247 -74.5t205.5 73t70.5 191.5q0 151 -160 186q-84 19 -193 9v56l313 460q-63 20 -183.5 20t-210 -37t-162 -138.5t-94.5 -263.5l-95 -676h-177l99 689q19 134 70 238q170 346 635 346q216 0 345 -80l-8 -52l-300 -420
q128 -4 214 -81.5t86 -222.5q0 -199 -118 -322t-334 -123z" />
    <glyph glyph-name="a.ss01" horiz-adv-x="1016" 
d="M367 123q160 0 277 158l17 116q-76 35 -191 35t-184.5 -42t-69.5 -133q0 -63 41 -98.5t110 -35.5zM784 -11q-149 0 -149 134v4q-134 -149 -320 -149q-125 0 -201.5 71.5t-76.5 192.5q0 166 120 247t276 81t247 -39l5 39q6 34 6 63q0 205 -235 205q-140 0 -272 -97l-5 2
l20 158q43 34 126 60t180 26q365 0 364 -315q0 -50 -7 -95l-48 -333q-2 -11 -2 -30q0 -63 56 -63q39 0 61 20l6 -2l-23 -150q-56 -30 -128 -30z" />
    <glyph glyph-name="aacute.ss01" horiz-adv-x="1016" 
d="M367 123q160 0 277 158l17 116q-76 35 -191 35t-184.5 -42t-69.5 -133q0 -63 41 -98.5t110 -35.5zM784 -11q-149 0 -149 134v4q-134 -149 -320 -149q-125 0 -201.5 71.5t-76.5 192.5q0 166 120 247t276 81t247 -39l5 39q6 34 6 63q0 205 -235 205q-140 0 -272 -97l-5 2
l20 158q43 34 126 60t180 26q365 0 364 -315q0 -50 -7 -95l-48 -333q-2 -11 -2 -30q0 -63 56 -63q39 0 61 20l6 -2l-23 -150q-56 -30 -128 -30zM771 1262l-313 -206l-69 102l255 253l129 -126z" />
    <glyph glyph-name="abreve.ss01" horiz-adv-x="1016" 
d="M367 123q160 0 277 158l17 116q-76 35 -191 35t-184.5 -42t-69.5 -133q0 -63 41 -98.5t110 -35.5zM784 -11q-149 0 -149 134v4q-134 -149 -320 -149q-125 0 -201.5 71.5t-76.5 192.5q0 166 120 247t276 81t247 -39l5 39q6 34 6 63q0 205 -235 205q-140 0 -272 -97l-5 2
l20 158q43 34 126 60t180 26q365 0 364 -315q0 -50 -7 -95l-48 -333q-2 -11 -2 -30q0 -63 56 -63q39 0 61 20l6 -2l-23 -150q-56 -30 -128 -30zM557 1078q-110 0 -175 72.5t-49 197.5l119 13l4 -4q-6 -67 25 -106t90.5 -39t101.5 39t57 104l5 6l110 -13
q-19 -125 -98.5 -197.5t-189.5 -72.5z" />
    <glyph glyph-name="acircumflex.ss01" horiz-adv-x="1016" 
d="M367 123q160 0 277 158l17 116q-76 35 -191 35t-184.5 -42t-69.5 -133q0 -63 41 -98.5t110 -35.5zM784 -11q-149 0 -149 134v4q-134 -149 -320 -149q-125 0 -201.5 71.5t-76.5 192.5q0 166 120 247t276 81t247 -39l5 39q6 34 6 63q0 205 -235 205q-140 0 -272 -97l-5 2
l20 158q43 34 126 60t180 26q365 0 364 -315q0 -50 -7 -95l-48 -333q-2 -11 -2 -30q0 -63 56 -63q39 0 61 20l6 -2l-23 -150q-56 -30 -128 -30zM575 1229l-206 -168l-67 75l251 255h82l180 -255l-87 -75z" />
    <glyph glyph-name="adieresis.ss01" horiz-adv-x="1016" 
d="M367 123q160 0 277 158l17 116q-76 35 -191 35t-184.5 -42t-69.5 -133q0 -63 41 -98.5t110 -35.5zM784 -11q-149 0 -149 134v4q-134 -149 -320 -149q-125 0 -201.5 71.5t-76.5 192.5q0 166 120 247t276 81t247 -39l5 39q6 34 6 63q0 205 -235 205q-140 0 -272 -97l-5 2
l20 158q43 34 126 60t180 26q365 0 364 -315q0 -50 -7 -95l-48 -333q-2 -11 -2 -30q0 -63 56 -63q39 0 61 20l6 -2l-23 -150q-56 -30 -128 -30zM746.5 1145q-46.5 0 -75.5 28t-29 77.5t34.5 80t81 30.5t74.5 -28t28 -76.5t-33.5 -80t-80 -31.5zM381.5 1145q-46.5 0 -75.5 28
t-29 77.5t34.5 80t81 30.5t74.5 -28t28 -76.5t-33.5 -80t-80 -31.5z" />
    <glyph glyph-name="uni1EA1.ss01" horiz-adv-x="1016" 
d="M405.5 -138q48.5 0 77.5 -28.5t29 -79t-34.5 -83t-83 -32.5t-78 29t-29.5 79t35 82.5t83.5 32.5zM367 123q160 0 277 158l17 116q-76 35 -191 35t-184.5 -42t-69.5 -133q0 -63 41 -98.5t110 -35.5zM784 -11q-149 0 -149 134v4q-134 -149 -320 -149q-125 0 -201.5 71.5
t-76.5 192.5q0 166 120 247t276 81t247 -39l5 39q6 34 6 63q0 205 -235 205q-140 0 -272 -97l-5 2l20 158q43 34 126 60t180 26q365 0 364 -315q0 -50 -7 -95l-48 -333q-2 -11 -2 -30q0 -63 56 -63q39 0 61 20l6 -2l-23 -150q-56 -30 -128 -30z" />
    <glyph glyph-name="agrave.ss01" horiz-adv-x="1016" 
d="M367 123q160 0 277 158l17 116q-76 35 -191 35t-184.5 -42t-69.5 -133q0 -63 41 -98.5t110 -35.5zM784 -11q-149 0 -149 134v4q-134 -149 -320 -149q-125 0 -201.5 71.5t-76.5 192.5q0 166 120 247t276 81t247 -39l5 39q6 34 6 63q0 205 -235 205q-140 0 -272 -97l-5 2
l20 158q43 34 126 60t180 26q365 0 364 -315q0 -50 -7 -95l-48 -333q-2 -11 -2 -30q0 -63 56 -63q39 0 61 20l6 -2l-23 -150q-56 -30 -128 -30zM676 1063l-324 190l-2 22l121 133l268 -241z" />
    <glyph glyph-name="amacron.ss01" horiz-adv-x="1016" 
d="M367 123q160 0 277 158l17 116q-76 35 -191 35t-184.5 -42t-69.5 -133q0 -63 41 -98.5t110 -35.5zM784 -11q-149 0 -149 134v4q-134 -149 -320 -149q-125 0 -201.5 71.5t-76.5 192.5q0 166 120 247t276 81t247 -39l5 39q6 34 6 63q0 205 -235 205q-140 0 -272 -97l-5 2
l20 158q43 34 126 60t180 26q365 0 364 -315q0 -50 -7 -95l-48 -333q-2 -11 -2 -30q0 -63 56 -63q39 0 61 20l6 -2l-23 -150q-56 -30 -128 -30zM840 1287l-19 -131h-525l19 131h525z" />
    <glyph glyph-name="aogonek.ss01" horiz-adv-x="1016" 
d="M367 123q160 0 277 158l17 116q-76 35 -191 35t-184.5 -42t-69.5 -133q0 -63 41 -98.5t110 -35.5zM706 -235q0 -63 70 -63q34 0 54 8l6 -4l-15 -114q-48 -15 -120 -15t-120.5 35.5t-48.5 102.5q0 155 200 279q-97 20 -97 129v4q-134 -149 -320 -149q-125 0 -201.5 71.5
t-76.5 192.5q0 166 120 247t276 81t247 -39l5 39q6 34 6 63q0 205 -235 205q-140 0 -272 -97l-5 2l20 158q43 34 126 60t180 26q365 0 364 -315q0 -50 -7 -95l-48 -333q-2 -11 -2 -30q0 -63 56 -63q39 0 61 20l6 -2l-23 -150l-20 -10q-186 -123 -186 -244z" />
    <glyph glyph-name="aring.ss01" horiz-adv-x="1016" 
d="M367 123q160 0 277 158l17 116q-76 35 -191 35t-184.5 -42t-69.5 -133q0 -63 41 -98.5t110 -35.5zM784 -11q-149 0 -149 134v4q-134 -149 -320 -149q-125 0 -201.5 71.5t-76.5 192.5q0 166 120 247t276 81t247 -39l5 39q6 34 6 63q0 205 -235 205q-140 0 -272 -97l-5 2
l20 158q43 34 126 60t180 26q365 0 364 -315q0 -50 -7 -95l-48 -333q-2 -11 -2 -30q0 -63 56 -63q39 0 61 20l6 -2l-23 -150q-56 -30 -128 -30zM560 1322q-37 0 -62 -27t-25 -68t23 -63.5t60.5 -22.5t62.5 27t25 68t-23.5 63.5t-60.5 22.5zM551.5 1048q-81.5 0 -130.5 46.5
t-49 128t56 137t137 55.5t130.5 -46.5t49.5 -127t-56 -137t-137.5 -56.5z" />
    <glyph glyph-name="aringacute.ss01" horiz-adv-x="1016" 
d="M367 123q160 0 277 158l17 116q-76 35 -191 35t-184.5 -42t-69.5 -133q0 -63 41 -98.5t110 -35.5zM868 151q39 0 61 20l6 -2l-23 -150q-56 -30 -128 -30q-149 0 -149 134v4q-134 -149 -320 -149q-125 0 -201.5 71.5t-76.5 192.5q0 166 120 247t276 81t247 -39l5 39
q6 34 6 63q0 205 -235 205q-140 0 -272 -97l-5 2l20 158q43 34 126 60t180 26q365 0 364 -315q0 -50 -7 -95l-48 -333q-2 -11 -2 -30q0 -63 56 -63zM557 1141q37 0 62 27t25 68t-23 63.5t-60.5 22.5t-62.5 -27t-25 -68t23.5 -63.5t60.5 -22.5zM551.5 1048
q-81.5 0 -130.5 46.5t-49 128t56 137t145 55.5q43 0 71 -13l209 207l128 -127l-2 -22l-242 -160q7 -20 8 -51q0 -88 -56 -144.5t-137.5 -56.5z" />
    <glyph glyph-name="atilde.ss01" horiz-adv-x="1016" 
d="M367 123q160 0 277 158l17 116q-76 35 -191 35t-184.5 -42t-69.5 -133q0 -63 41 -98.5t110 -35.5zM784 -11q-149 0 -149 134v4q-134 -149 -320 -149q-125 0 -201.5 71.5t-76.5 192.5q0 166 120 247t276 81t247 -39l5 39q6 34 6 63q0 205 -235 205q-140 0 -272 -97l-5 2
l20 158q43 34 126 60t180 26q365 0 364 -315q0 -50 -7 -95l-48 -333q-2 -11 -2 -30q0 -63 56 -63q39 0 61 20l6 -2l-23 -150q-56 -30 -128 -30zM439.5 1346q63.5 0 130.5 -35.5t102 -35.5q69 0 80 77l6 3l119 -26q-15 -97 -71 -147t-119 -50t-133 35.5t-100.5 35.5t-52 -21
t-27.5 -56l-5 -3l-108 26q11 86 63 141.5t115.5 55.5z" />
    <glyph glyph-name="d.ss01" horiz-adv-x="1100" 
d="M484 132q101 0 178 60.5t99 157.5l60 417q-78 65 -216 65t-242 -116t-104 -310q0 -134 62 -204t163 -70zM747 0v106q-112 -128 -289 -128t-279.5 108t-102.5 294q0 272 157.5 439.5t384.5 167.5q136 0 227 -56l56 396h177l-188 -1327h-143z" />
    <glyph glyph-name="dcaron.ss01" horiz-adv-x="1163" 
d="M484 132q101 0 178 60.5t99 157.5l60 417q-78 65 -216 65t-242 -116t-104 -310q0 -134 62 -204t163 -70zM1320 1326l15 -19l-112 -391h-111l72 410h136zM747 0v106q-112 -128 -289 -128t-279.5 108t-102.5 294q0 272 157.5 439.5t384.5 167.5q136 0 227 -56l56 396h177
l-188 -1327h-143z" />
    <glyph glyph-name="dcroat.ss01" horiz-adv-x="1100" 
d="M484 132q101 0 178 60.5t99 157.5l60 417q-78 65 -216 65t-242 -116t-104 -310q0 -134 62 -204t163 -70zM747 0v106q-112 -128 -289 -128t-279.5 108t-102.5 294q0 272 157.5 439.5t384.5 167.5q136 0 227 -56l23 164h-192l18 128h192l15 104h177l-15 -104h145l-18 -128
h-146l-154 -1095h-143z" />
    <glyph glyph-name="g.ss01" horiz-adv-x="1031" 
d="M719 -45q0 54 -50.5 78.5t-157.5 35.5t-189 28q-149 -65 -149 -168q0 -115 257 -115q143 0 216 32.5t73 108.5zM322 644q0 -168 202 -167q100 0 157.5 50t57.5 132q1 168 -195 168q-96 0 -159 -50.5t-63 -132.5zM909 674q0 -151 -112 -244t-296 -93q-95 0 -173 30
q-28 -22 -28 -57.5t52 -55t214.5 -37t241 -71t78.5 -159.5q0 -147 -127.5 -227t-361.5 -80q-391 0 -391 210q0 147 188 251q-67 37 -67 108q0 97 106 174q-86 76 -86 199q0 158 114.5 250t297.5 92h484l-19 -130h-182q67 -67 67 -160z" />
    <glyph glyph-name="gbreve.ss01" horiz-adv-x="1031" 
d="M719 -45q0 54 -50.5 78.5t-157.5 35.5t-189 28q-149 -65 -149 -168q0 -115 257 -115q143 0 216 32.5t73 108.5zM322 644q0 -168 202 -167q100 0 157.5 50t57.5 132q1 168 -195 168q-96 0 -159 -50.5t-63 -132.5zM909 674q0 -151 -112 -244t-296 -93q-95 0 -173 30
q-28 -22 -28 -57.5t52 -55t214.5 -37t241 -71t78.5 -159.5q0 -147 -127.5 -227t-361.5 -80q-391 0 -391 210q0 147 188 251q-67 37 -67 108q0 97 106 174q-86 76 -86 199q0 158 114.5 250t297.5 92h484l-19 -130h-182q67 -67 67 -160zM573.5 1089q-109.5 0 -175 72.5
t-48.5 197.5l119 13l4 -4q-6 -67 25 -106t90 -39t101.5 39t57.5 105l5 5l110 -13q-19 -125 -99 -197.5t-189.5 -72.5z" />
    <glyph glyph-name="gcaron.ss01" horiz-adv-x="1031" 
d="M719 -45q0 54 -50.5 78.5t-157.5 35.5t-189 28q-149 -65 -149 -168q0 -115 257 -115q143 0 216 32.5t73 108.5zM322 644q0 -168 202 -167q100 0 157.5 50t57.5 132q1 168 -195 168q-96 0 -159 -50.5t-63 -132.5zM909 674q0 -151 -112 -244t-296 -93q-95 0 -173 30
q-28 -22 -28 -57.5t52 -55t214.5 -37t241 -71t78.5 -159.5q0 -147 -127.5 -227t-361.5 -80q-391 0 -391 210q0 147 188 251q-67 37 -67 108q0 97 106 174q-86 76 -86 199q0 158 114.5 250t297.5 92h484l-19 -130h-182q67 -67 67 -160zM609 1072h-82l-181 257l86 73l156 -166
l205 166l63 -73z" />
    <glyph glyph-name="gcircumflex.ss01" horiz-adv-x="1031" 
d="M719 -45q0 54 -50.5 78.5t-157.5 35.5t-189 28q-149 -65 -149 -168q0 -115 257 -115q143 0 216 32.5t73 108.5zM322 644q0 -168 202 -167q100 0 157.5 50t57.5 132q1 168 -195 168q-96 0 -159 -50.5t-63 -132.5zM909 674q0 -151 -112 -244t-296 -93q-95 0 -173 30
q-28 -22 -28 -57.5t52 -55t214.5 -37t241 -71t78.5 -159.5q0 -147 -127.5 -227t-361.5 -80q-391 0 -391 210q0 147 188 251q-67 37 -67 108q0 97 106 174q-86 76 -86 199q0 158 114.5 250t297.5 92h484l-19 -130h-182q67 -67 67 -160zM592 1240l-207 -168l-67 75l252 255h82
l180 -255l-87 -75z" />
    <glyph glyph-name="gcommaaccent.ss01" horiz-adv-x="1031" 
d="M719 -45q0 54 -50.5 78.5t-157.5 35.5t-189 28q-149 -65 -149 -168q0 -115 257 -115q143 0 216 32.5t73 108.5zM322 644q0 -168 202 -167q100 0 157.5 50t57.5 132q1 168 -195 168q-96 0 -159 -50.5t-63 -132.5zM909 674q0 -151 -112 -244t-296 -93q-95 0 -173 30
q-28 -22 -28 -57.5t52 -55t214.5 -37t241 -71t78.5 -159.5q0 -147 -127.5 -227t-361.5 -80q-391 0 -391 210q0 147 188 251q-67 37 -67 108q0 97 106 174q-86 76 -86 199q0 158 114.5 250t297.5 92h484l-19 -130h-182q67 -67 67 -160zM663 1074l-162 -13l-11 21
q24 168 130 324h119q-55 -126 -71 -293q-2 -26 -5 -39z" />
    <glyph glyph-name="gdotaccent.ss01" horiz-adv-x="1031" 
d="M719 -45q0 54 -50.5 78.5t-157.5 35.5t-189 28q-149 -65 -149 -168q0 -115 257 -115q143 0 216 32.5t73 108.5zM322 644q0 -168 202 -167q100 0 157.5 50t57.5 132q1 168 -195 168q-96 0 -159 -50.5t-63 -132.5zM909 674q0 -151 -112 -244t-296 -93q-95 0 -173 30
q-28 -22 -28 -57.5t52 -55t214.5 -37t241 -71t78.5 -159.5q0 -147 -127.5 -227t-361.5 -80q-391 0 -391 210q0 147 188 251q-67 37 -67 108q0 97 106 174q-86 76 -86 199q0 158 114.5 250t297.5 92h484l-19 -130h-182q67 -67 67 -160zM586.5 1152q-48.5 0 -78.5 29t-30 79.5
t35.5 83t84 32.5t77.5 -29t29 -79.5t-34.5 -83t-83 -32.5z" />
    <glyph glyph-name="l.ss01" horiz-adv-x="467" 
d="M80 0l188 1327h177l-188 -1327h-177z" />
    <glyph glyph-name="lacute.ss01" horiz-adv-x="467" 
d="M80 0l188 1327h177l-188 -1327h-177zM216 1398l-45 101l311 206l103 -145l-8 -22z" />
    <glyph glyph-name="lcaron.ss01" horiz-adv-x="526" 
d="M80 0l188 1327h177l-188 -1327h-177zM499 925l73 410h135l15 -19l-111 -391h-112z" />
    <glyph glyph-name="lcommaaccent.ss01" horiz-adv-x="467" 
d="M-9 -430q55 126 71 292q2 26 5 39l162 13l11 -20q-24 -168 -130 -324h-119zM80 0l188 1327h177l-188 -1327h-177z" />
    <glyph glyph-name="ldot.ss01" horiz-adv-x="606" 
d="M580 769q94 -1 94 -91q0 -42 -30 -74t-80 -31q-96 0 -97 87q0 42 32.5 75.5t80.5 33.5zM80 0l188 1327h177l-188 -1327h-177z" />
    <glyph glyph-name="lslash.ss01" horiz-adv-x="564" 
d="M555 888l-23 -151l-145 -87l-91 -650h-177l75 531l-133 -80h-7l22 150l140 86l91 640h177l-74 -523l139 84h6z" />
    <glyph glyph-name="y.ss01" horiz-adv-x="943" 
d="M987 964l2 -5l-687 -1262h-183l-2 5l220 354l-235 903l2 5h186l155 -733l367 733h175z" />
    <glyph glyph-name="yacute.ss01" horiz-adv-x="943" 
d="M987 964l2 -5l-687 -1262h-183l-2 5l220 354l-235 903l2 5h186l155 -733l367 733h175zM789 1262l-312 -206l-69 102l255 253l128 -126z" />
    <glyph glyph-name="ycircumflex.ss01" horiz-adv-x="943" 
d="M987 964l2 -5l-687 -1262h-183l-2 5l220 354l-235 903l2 5h186l155 -733l367 733h175zM594 1229l-207 -168l-67 75l252 255h81l181 -255l-87 -75z" />
    <glyph glyph-name="ydieresis.ss01" horiz-adv-x="943" 
d="M987 964l2 -5l-687 -1262h-183l-2 5l220 354l-235 903l2 5h186l155 -733l367 733h175zM765.5 1145q-46.5 0 -75.5 28t-29 77.5t34.5 80t81 30.5t74.5 -28t28 -76.5t-33.5 -80t-80 -31.5zM400.5 1145q-46.5 0 -75.5 28t-29 77.5t34.5 80t81 30.5t74.5 -28t28 -76.5
t-33.5 -80t-80 -31.5z" />
    <glyph glyph-name="ygrave.ss01" horiz-adv-x="943" 
d="M987 964l2 -5l-687 -1262h-183l-2 5l220 354l-235 903l2 5h186l155 -733l367 733h175zM694 1063l-323 190l-2 22l121 133l268 -241z" />
    <glyph glyph-name="uni1EF9.ss01" horiz-adv-x="943" 
d="M987 964l2 -5l-687 -1262h-183l-2 5l220 354l-235 903l2 5h186l155 -733l367 733h175zM458 1346q63 0 130 -35.5t103 -35.5q69 0 80 77l5 3l120 -26q-15 -97 -71 -147t-119.5 -50t-133 35.5t-100.5 35.5t-52 -21t-27 -56l-6 -3l-108 26q11 86 63.5 141.5t115.5 55.5z" />
    <glyph glyph-name="g.ss02" horiz-adv-x="942" 
d="M495.5 838q-91.5 0 -154 -51.5t-62.5 -138.5q0 -151 192 -151q218 0 218 188q0 71 -51 112t-142.5 41zM281 302q0 -32 51.5 -47t205.5 -30q276 -24 276 -219q0 -326 -481 -326q-236 0 -368 71l22 156l6 2q160 -76 330 -76.5t242 30.5t72 105q0 48 -46.5 71.5t-193 36
t-216 49.5t-69.5 129t97 161q-102 74 -102.5 227t118 249t296.5 96q89 0 170 -34l169 188l106 -119l-175 -139q73 -78 73 -185q0 -162 -112 -254t-301 -92q-75 0 -127 13q-43 -24 -43 -63z" />
    <glyph glyph-name="gbreve.ss02" horiz-adv-x="942" 
d="M495.5 838q-91.5 0 -154 -51.5t-62.5 -138.5q0 -151 192 -151q218 0 218 188q0 71 -51 112t-142.5 41zM281 302q0 -32 51.5 -47t205.5 -30q276 -24 276 -219q0 -326 -481 -326q-236 0 -368 71l22 156l6 2q160 -76 330 -76.5t242 30.5t72 105q0 48 -46.5 71.5t-193 36
t-216 49.5t-69.5 129t97 161q-102 74 -102.5 227t118 249t296.5 96q89 0 170 -34l169 188l106 -119l-175 -139q73 -78 73 -185q0 -162 -112 -254t-301 -92q-75 0 -127 13q-43 -24 -43 -63zM521 1089q-110 0 -175 72.5t-48 197.5l119 13l4 -4q-6 -67 25 -106t90 -39t101.5 39
t56.5 105l6 5l110 -13q-19 -125 -99 -197.5t-190 -72.5z" />
    <glyph glyph-name="gcaron.ss02" horiz-adv-x="942" 
d="M495.5 838q-91.5 0 -154 -51.5t-62.5 -138.5q0 -151 192 -151q218 0 218 188q0 71 -51 112t-142.5 41zM281 302q0 -32 51.5 -47t205.5 -30q276 -24 276 -219q0 -326 -481 -326q-236 0 -368 71l22 156l6 2q160 -76 330 -76.5t242 30.5t72 105q0 48 -46.5 71.5t-193 36
t-216 49.5t-69.5 129t97 161q-102 74 -102.5 227t118 249t296.5 96q89 0 170 -34l169 188l106 -119l-175 -139q73 -78 73 -185q0 -162 -112 -254t-301 -92q-75 0 -127 13q-43 -24 -43 -63zM557 1072h-82l-181 257l86 73l156 -166l205 166l63 -73z" />
    <glyph glyph-name="gcircumflex.ss02" horiz-adv-x="942" 
d="M495.5 838q-91.5 0 -154 -51.5t-62.5 -138.5q0 -151 192 -151q218 0 218 188q0 71 -51 112t-142.5 41zM281 302q0 -32 51.5 -47t205.5 -30q276 -24 276 -219q0 -326 -481 -326q-236 0 -368 71l22 156l6 2q160 -76 330 -76.5t242 30.5t72 105q0 48 -46.5 71.5t-193 36
t-216 49.5t-69.5 129t97 161q-102 74 -102.5 227t118 249t296.5 96q89 0 170 -34l169 188l106 -119l-175 -139q73 -78 73 -185q0 -162 -112 -254t-301 -92q-75 0 -127 13q-43 -24 -43 -63zM540 1240l-207 -168l-67 75l252 255h82l180 -255l-87 -75z" />
    <glyph glyph-name="gcommaaccent.ss02" horiz-adv-x="942" 
d="M689 680q0 158 -190 158q-93 0 -156.5 -52t-63.5 -132q0 -158 189 -157q92 0 156.5 51.5t64.5 131.5zM281 294q0 -30 46.5 -40t210.5 -25q276 -24 276 -220q0 -330 -481 -329q-236 0 -368 71l22 156l7 2q158 -76 328.5 -76.5t242.5 31.5t72 106q0 50 -45.5 74.5
t-193 36.5t-217 48.5t-69.5 128.5t97 157q-102 76 -103 211q0 166 120 263.5t303 97.5q95 0 165 -30l166 184l106 -119l-167 -134q65 -74 65 -181q0 -162 -121 -258.5t-305 -96.5q-64 0 -114 13q-43 -30 -43 -71zM603 1074l-162 -13l-11 21q20 169 129 324h119
q-49 -111 -70 -293q-3 -26 -5 -39z" />
    <glyph glyph-name="gdotaccent.ss02" horiz-adv-x="942" 
d="M495.5 838q-91.5 0 -154 -51.5t-62.5 -138.5q0 -151 192 -151q218 0 218 188q0 71 -51 112t-142.5 41zM281 302q0 -32 51.5 -47t205.5 -30q276 -24 276 -219q0 -326 -481 -326q-236 0 -368 71l22 156l6 2q160 -76 330 -76.5t242 30.5t72 105q0 48 -46.5 71.5t-193 36
t-216 49.5t-69.5 129t97 161q-102 74 -102.5 227t118 249t296.5 96q89 0 170 -34l169 188l106 -119l-175 -139q73 -78 73 -185q0 -162 -112 -254t-301 -92q-75 0 -127 13q-43 -24 -43 -63zM534.5 1152q-48.5 0 -78.5 29t-30 79.5t35.5 83t84 32.5t77.5 -29t29 -79.5
t-34.5 -83t-83 -32.5z" />
    <glyph glyph-name="f_t" horiz-adv-x="1226" 
d="M886 254q0 -42 39 -74.5t105.5 -32.5t131.5 26l3 -2l-22 -149q-63 -32 -173.5 -31.5t-187 63.5t-76.5 171q0 37 3 75l77 525h-371l-158 -1132h-179l160 1132h-124l20 139h125v2q26 186 123.5 278.5t237.5 92.5q78 0 134 -19l-22 -154h-4q-37 17 -95 16q-168 0 -195 -195
l-4 -21h370l34 228l171 33l6 -2l-36 -259h285l-20 -139h-285l-69 -499q-4 -30 -4 -72z" />
    <glyph glyph-name="f_y" horiz-adv-x="1506" 
d="M644 -317q-61 0 -112 19l25 142l5 1q45 -15 103 -14q121 0 232 212l8 15l-220 767h-270l-158 -1132h-179l160 1132h-124l20 139h125v2q26 186 123.5 278.5t237.5 92.5q78 0 134 -19l-22 -154h-4q-37 17 -95 16q-168 0 -195 -195l-4 -21h409l172 -709l352 709h178l2 -5
l-475 -898l-20 -41q-95 -181 -186 -259t-222 -78z" />
    <glyph glyph-name="t_t" horiz-adv-x="1306" 
d="M966 254q0 -42 39 -74t105 -33q66 0 132 26l4 -2l-23 -149q-63 -32 -173 -32t-188 64q-76 63 -76 171q0 37 3 75l77 525h-440l-69 -499q-3 -30 -3 -72t39 -74t105 -33q66 0 131 26l4 -2l-22 -149q-63 -32 -174 -32t-188 64q-76 63 -76 171q0 37 4 75l76 525h-182l20 139
h181l33 228l175 33l2 -4l-35 -257h437l34 228l175 33l2 -4l-36 -257h285l-20 -139h-285l-69 -499q-4 -30 -4 -72z" />
    <glyph glyph-name="L_periodcentered_L.loclCAT" horiz-adv-x="1761" 
d="M740 799q92 -1 92 -91q0 -42 -30 -74t-85 -31q-87 0 -89 87q0 42 31 76q33 34 81 33zM1180 147h509l-21 -147h-681l175 1238h173zM451 1238l-153 -1091h508l-20 -147h-684l175 1238h174z" />
    <glyph glyph-name="l_periodcentered_l.loclCAT" horiz-adv-x="1128" 
d="M572 767q94 -1 93 -91q0 -42 -32 -74q-33 -32 -81 -32q-94 0 -94 88q0 42 33 75.5t81 33.5zM916 -17q-110 0 -163 59.5t-36 182.5l158 1102h171l-149 -1053q-19 -132 77 -133q39 0 72 19l4 -2l-20 -152q-56 -23 -114 -23zM303 -17q-232 0 -201 242l159 1102h173
l-149 -1053q-17 -133 69 -133q44 0 80 19l4 -2l-23 -152q-56 -23 -112 -23z" />
    <glyph glyph-name="l_periodcentered_l.loclCAT.ss01" horiz-adv-x="1081" 
d="M560 572q-96 0 -95 88q0 42 33 74q34 32 82 33q92 0 92 -86q0 -45 -32 -77t-80 -32zM694 0l189 1327h176l-188 -1327h-177zM80 0l188 1327h177l-188 -1327h-177z" />
    <glyph glyph-name="germandbls.smcp.calt" horiz-adv-x="1208" 
d="M731 -24q-163 0 -273 56l20 156h2q104 -71 244 -71q91 0 145 49.5t54 122.5q0 143 -255 143q-30 0 -74 -4v47l238 348q-54 15 -130 15q-147 0 -250.5 -83t-125.5 -254l-65 -501h-177l67 512q19 140 79 240.5t148 151.5q168 98 369 98t329 -73v-20l-240 -343
q84 -4 166 -51q44 -25 71 -77.5t27 -122.5q0 -145 -103 -242t-266 -97z" />
    <glyph glyph-name="a.smcp" horiz-adv-x="1083" 
d="M335 367h365l-22 74l-99 391l-203 -391zM808 0l-67 227h-482l-123 -227h-173l549 987h177l307 -987h-188z" />
    <glyph glyph-name="aacute.smcp" horiz-adv-x="1083" 
d="M335 367h365l-22 74l-99 391l-203 -391zM808 0l-67 227h-482l-123 -227h-173l549 987h177l307 -987h-188zM821 1285l-313 -207l-69 102l255 254l129 -127z" />
    <glyph glyph-name="abreve.smcp" horiz-adv-x="1083" 
d="M335 367h365l-22 74l-99 391l-203 -391zM808 0l-67 227h-482l-123 -227h-173l549 987h177l307 -987h-188zM607 1100q-110 0 -175 73t-48 197l119 13l3 -3q-6 -67 25 -106.5t91 -39.5t101.5 39.5t56.5 104.5l6 5l110 -13q-19 -125 -99 -197.5t-190 -72.5z" />
    <glyph glyph-name="acircumflex.smcp" horiz-adv-x="1083" 
d="M335 367h365l-22 74l-99 391l-203 -391zM808 0l-67 227h-482l-123 -227h-173l549 987h177l307 -987h-188zM626 1251l-207 -167l-67 74l251 255h82l181 -255l-88 -74z" />
    <glyph glyph-name="adieresis.smcp" horiz-adv-x="1083" 
d="M335 367h365l-22 74l-99 391l-203 -391zM808 0l-67 227h-482l-123 -227h-173l549 987h177l307 -987h-188zM796.5 1167q-46.5 0 -74.5 28q-28 27 -28.5 77t33.5 80.5t81 30.5t74.5 -28t27.5 -76t-33.5 -80t-80 -32zM432 1167q-48 0 -76 28q-28 27 -28 77t34.5 80.5
t81 30.5t74.5 -28t28 -76t-34 -80t-80 -32z" />
    <glyph glyph-name="uni1EA1.smcp" horiz-adv-x="1083" 
d="M433.5 -138q48.5 0 77.5 -28q29 -30 29 -80t-34.5 -82.5t-83 -32.5t-78 29t-29.5 79t35 82.5t83.5 32.5zM335 367h365l-22 74l-99 391l-203 -391zM996 0h-188l-67 227h-482l-123 -227h-173l549 987h177z" />
    <glyph glyph-name="agrave.smcp" horiz-adv-x="1083" 
d="M335 367h365l-22 74l-99 391l-203 -391zM808 0l-67 227h-482l-123 -227h-173l549 987h177l307 -987h-188zM726 1085l-324 190l-2 23l121 132l268 -240z" />
    <glyph glyph-name="amacron.smcp" horiz-adv-x="1083" 
d="M335 367h365l-22 74l-99 391l-203 -391zM808 0l-67 227h-482l-123 -227h-173l549 987h177l307 -987h-188zM890 1309l-19 -130h-525l19 130h525z" />
    <glyph glyph-name="aogonek.smcp" horiz-adv-x="1083" 
d="M335 367h365l-22 74l-99 391l-203 -391zM864 -300q34 0 54 8l5 -4l-14 -114q-48 -14 -120 -14t-120.5 35t-48.5 102q0 162 212 287h-24l-67 227h-482l-123 -227h-173l549 987h177l307 -987h-28q-175 -119 -175 -236q0 -64 71 -64z" />
    <glyph glyph-name="aring.smcp" horiz-adv-x="1083" 
d="M335 367h365l-22 74l-99 391l-203 -391zM808 0l-67 227h-482l-123 -227h-173l549 987h177l307 -987h-188zM611 1344q-37 0 -62.5 -27t-25.5 -67.5t23.5 -63t60.5 -22.5t62 27t25 67.5t-23 63t-60 22.5zM601.5 1071q-81.5 0 -130 46.5t-48.5 127.5t55.5 136.5t137 55.5
t130.5 -46.5t49 -126.5t-56 -136.5t-137.5 -56.5z" />
    <glyph glyph-name="aringacute.smcp" horiz-adv-x="1083" 
d="M335 367h365l-22 74l-99 391l-203 -391zM512 987h177l307 -987h-188l-67 227h-482l-123 -227h-173zM607 1164q37 0 62 27t25 67.5t-23 63t-60 22.5t-62.5 -27t-25.5 -67.5t23.5 -63t60.5 -22.5zM795 1272q0 -88 -56 -144.5t-137.5 -56.5t-130 46.5t-48.5 127.5
t55.5 136.5t145.5 55.5q35 0 63 -11l209 207l128 -127l-2 -22l-236 -157q9 -28 9 -55z" />
    <glyph glyph-name="atilde.smcp" horiz-adv-x="1083" 
d="M335 367h365l-22 74l-99 391l-203 -391zM808 0l-67 227h-482l-123 -227h-173l549 987h177l307 -987h-188zM488.5 1368q62.5 0 129.5 -35t104 -35q69 0 80 76l6 4l119 -26q-15 -97 -70.5 -147.5t-119 -50.5t-133.5 35.5t-100.5 35.5t-52 -20.5t-27.5 -55.5l-5 -4l-108 26
q11 86 63 141.5t114.5 55.5z" />
    <glyph glyph-name="ae.smcp" horiz-adv-x="1331" 
d="M382 369h277l65 484h-2zM-61 0l711 987h702l-19 -144h-447l-35 -271h415l-17 -138h-415l-39 -296h464l-19 -138h-629l31 235h-355l-173 -235h-175z" />
    <glyph glyph-name="aeacute.smcp" horiz-adv-x="1331" 
d="M382 369h277l65 484h-2zM-61 0l711 987h702l-19 -144h-447l-35 -271h415l-17 -138h-415l-39 -296h464l-19 -138h-629l31 235h-355l-173 -235h-175zM745 1078l-69 102l255 254l128 -127l-1 -22z" />
    <glyph glyph-name="b.smcp" horiz-adv-x="956" 
d="M439 123q235 0 235 182q0 67 -48.5 106.5t-133.5 39.5h-174l-42 -326q46 -2 163 -2zM501 573q82 0 137 45t55 125q0 127 -196 126q-80 0 -125 -5l-37 -291h166zM393 -6q-158 0 -304 6l131 983q141 15 283 15q354 0 353 -222q0 -186 -171 -251q73 -22 115 -76t42 -132
q0 -155 -112 -239t-337 -84z" />
    <glyph glyph-name="c.smcp" horiz-adv-x="932" 
d="M525 -22q-203 0 -325 121t-122 320q0 268 164 430t421 162q155 0 264 -47l-22 -152l-6 -2q-108 50 -238 50q-175 0 -284 -114.5t-109 -302.5q0 -140 79 -227.5t213 -87.5t252 54l5 -1l-20 -153q-110 -50 -272 -50z" />
    <glyph glyph-name="cacute.smcp" horiz-adv-x="932" 
d="M525 -22q-203 0 -325 121t-122 320q0 268 164 430t421 162q155 0 264 -47l-22 -152l-6 -2q-108 50 -238 50q-175 0 -284 -114.5t-109 -302.5q0 -140 79 -227.5t213 -87.5t252 54l5 -1l-20 -153q-110 -50 -272 -50zM536 1080l-69 102l255 253l129 -126l-2 -22z" />
    <glyph glyph-name="ccaron.smcp" horiz-adv-x="932" 
d="M525 -22q-203 0 -325 121t-122 320q0 268 164 430t421 162q155 0 264 -47l-22 -152l-6 -2q-108 50 -238 50q-175 0 -284 -114.5t-109 -302.5q0 -140 79 -227.5t213 -87.5t252 54l5 -1l-20 -153q-110 -50 -272 -50zM588 1085l-180 257l85 73l157 -166l205 166l63 -73
l-248 -257h-82z" />
    <glyph glyph-name="ccedilla.smcp" horiz-adv-x="932" 
d="M663 1011q155 0 264 -47l-22 -152l-6 -2q-108 50 -238 50q-175 0 -284 -114.5t-109 -302.5q0 -140 79 -227.5t213 -87.5t252 54l5 -1l-20 -153q-93 -43 -222 -48l-50 -71q11 3 55 3t80 -34t36 -103q0 -110 -75 -162t-189 -52q-60 0 -110 18l15 104l4 2q37 -15 85 -15
t82 22.5t34 63.5q0 60 -71 60q-41 0 -84 -13l-2 2l13 85l66 91q-177 19 -281.5 136.5t-104.5 301.5q0 268 164 430t421 162z" />
    <glyph glyph-name="ccircumflex.smcp" horiz-adv-x="932" 
d="M525 -22q-203 0 -325 121t-122 320q0 268 164 430t421 162q155 0 264 -47l-22 -152l-6 -2q-108 50 -238 50q-175 0 -284 -114.5t-109 -302.5q0 -140 79 -227.5t213 -87.5t252 54l5 -1l-20 -153q-110 -50 -272 -50zM447 1085l-67 75l251 255h82l181 -255l-88 -75l-153 168
z" />
    <glyph glyph-name="cdotaccent.smcp" horiz-adv-x="932" 
d="M525 -22q-203 0 -325 121t-122 320q0 268 164 430t421 162q155 0 264 -47l-22 -152l-6 -2q-108 50 -238 50q-175 0 -284 -114.5t-109 -302.5q0 -140 79 -227.5t213 -87.5t252 54l5 -1l-20 -153q-110 -50 -272 -50zM648 1165q-48 0 -78 29q-30 30 -30 80t35.5 82.5
t83.5 32.5t77 -29t29 -79t-34.5 -83t-82.5 -33z" />
    <glyph glyph-name="d.smcp" horiz-adv-x="1135" 
d="M443 141q212 0 326.5 109t114.5 305q0 140 -88.5 219t-253.5 79q-99 0 -166 -8l-99 -700q60 -4 166 -4zM551 1000q249 0 378.5 -112.5t129.5 -312.5q0 -277 -168.5 -428t-471.5 -151q-257 0 -339 4l140 985q163 15 331 15z" />
    <glyph glyph-name="eth.smcp" horiz-adv-x="1135" 
d="M443 141q212 0 326.5 109t114.5 305q0 140 -88.5 219t-253.5 79q-99 0 -166 -8l-41 -294h181l-19 -128h-180l-40 -278q60 -4 166 -4zM551 1000q249 0 378.5 -112.5t129.5 -312.5q0 -277 -168.5 -428t-471.5 -151q-257 0 -339 4l60 423h-157l19 128h156l62 434
q163 15 331 15z" />
    <glyph glyph-name="dcaron.smcp" horiz-adv-x="1135" 
d="M443 141q212 0 326.5 109t114.5 305q0 140 -88.5 219t-253.5 79q-99 0 -166 -8l-99 -700q60 -4 166 -4zM551 1000q249 0 378.5 -112.5t129.5 -312.5q0 -277 -168.5 -428t-471.5 -151q-257 0 -339 4l140 985q163 15 331 15zM644 1085h-82l-180 257l85 73l157 -166l205 166
l63 -73z" />
    <glyph glyph-name="dcroat.smcp" horiz-adv-x="1135" 
d="M443 141q212 0 326.5 109t114.5 305q0 140 -88.5 219t-253.5 79q-99 0 -166 -8l-41 -294h181l-19 -128h-180l-40 -278q60 -4 166 -4zM551 1000q249 0 378.5 -112.5t129.5 -312.5q0 -277 -168.5 -428t-471.5 -151q-257 0 -339 4l60 423h-157l19 128h156l62 434
q163 15 331 15z" />
    <glyph glyph-name="e.smcp" horiz-adv-x="906" 
d="M89 0l131 987h640l-20 -155h-464l-33 -255h433l-20 -151h-434l-37 -279h482l-19 -147h-659z" />
    <glyph glyph-name="eacute.smcp" horiz-adv-x="906" 
d="M89 0l131 987h640l-20 -155h-464l-33 -255h433l-20 -151h-434l-37 -279h482l-19 -147h-659zM478 1078l-68 102l255 254l128 -127l-2 -22z" />
    <glyph glyph-name="ebreve.smcp" horiz-adv-x="906" 
d="M89 0l131 987h640l-20 -155h-464l-33 -255h433l-20 -151h-434l-37 -279h482l-19 -147h-659zM577 1100q-110 0 -175 73t-48 197l119 13l4 -3q-6 -67 24.5 -106.5t90.5 -39.5t101.5 39.5t56.5 104.5l6 5l110 -13q-19 -125 -99 -197.5t-190 -72.5z" />
    <glyph glyph-name="ecaron.smcp" horiz-adv-x="906" 
d="M89 0l131 987h640l-20 -155h-464l-33 -255h433l-20 -151h-434l-37 -279h482l-19 -147h-659zM531 1084l-181 257l86 72l156 -166l205 166l63 -72l-247 -257h-82z" />
    <glyph glyph-name="ecircumflex.smcp" horiz-adv-x="906" 
d="M89 0l131 987h640l-20 -155h-464l-33 -255h433l-20 -151h-434l-37 -279h482l-19 -147h-659zM389 1084l-67 74l251 255h82l181 -255l-88 -74l-152 167z" />
    <glyph glyph-name="edieresis.smcp" horiz-adv-x="906" 
d="M89 0l131 987h640l-20 -155h-464l-33 -255h433l-20 -151h-434l-37 -279h482l-19 -147h-659zM767.5 1167q-46.5 0 -75.5 28q-29 27 -29 77t34.5 80.5t81 30.5t74.5 -28t28 -76t-33.5 -80t-80 -32zM402.5 1167q-46.5 0 -75.5 28q-29 27 -29 77t34.5 80.5t81 30.5t74.5 -28
t28 -76t-33.5 -80t-80 -32z" />
    <glyph glyph-name="edotaccent.smcp" horiz-adv-x="906" 
d="M89 0l131 987h640l-20 -155h-464l-33 -255h433l-20 -151h-434l-37 -279h482l-19 -147h-659zM590.5 1164q-48.5 0 -78.5 28q-30 30 -30 80t35.5 82.5t84 32.5t77 -29t28.5 -79t-34 -82.5t-82.5 -32.5z" />
    <glyph glyph-name="uni1EB9.smcp" horiz-adv-x="906" 
d="M387.5 -361q-48.5 0 -78.5 29t-30 79t35.5 82.5t84 32.5t77.5 -28q29 -30 29 -80t-34.5 -82.5t-83 -32.5zM89 0l131 987h640l-20 -155h-464l-33 -255h433l-20 -151h-434l-37 -279h482l-19 -147h-659z" />
    <glyph glyph-name="egrave.smcp" horiz-adv-x="906" 
d="M89 0l131 987h640l-20 -155h-464l-33 -255h433l-20 -151h-434l-37 -279h482l-19 -147h-659zM696 1085l-324 190l-1 23l121 132l268 -240z" />
    <glyph glyph-name="emacron.smcp" horiz-adv-x="906" 
d="M89 0l131 987h640l-20 -155h-464l-33 -255h433l-20 -151h-434l-37 -279h482l-19 -147h-659zM317 1179l18 130h525l-18 -130h-525z" />
    <glyph glyph-name="eogonek.smcp" horiz-adv-x="906" 
d="M562 -244q0 -63 71 -63q34 0 54 7l6 -3l-15 -114q-48 -15 -120 -15t-120.5 35.5t-48.5 111t61.5 151.5t163.5 134h-525l131 987h640l-20 -155h-464l-33 -255h433l-20 -151h-434l-37 -279h482l-19 -147q-186 -123 -186 -244z" />
    <glyph glyph-name="uni1EBD.smcp" horiz-adv-x="906" 
d="M89 0l131 987h640l-20 -155h-464l-33 -255h433l-20 -151h-434l-37 -279h482l-19 -147h-659zM459 1368q62 0 129 -35t105 -35q69 0 80 76l5 4l119 -26q-15 -97 -70.5 -147.5t-119 -50.5t-133 35.5t-100.5 35.5t-52.5 -20.5t-26.5 -55.5l-6 -4l-108 26q11 86 63.5 141.5
t114.5 55.5z" />
    <glyph glyph-name="uni0259.smcp" horiz-adv-x="1048" 
d="M470 136q107 0 185.5 65t109.5 188h-530q2 -127 65 -190t170 -63zM522 1009q198 0 323 -115.5t125 -333.5q0 -274 -147 -428t-347 -154t-305.5 106t-105.5 283q0 82 15 162h704v20q0 145 -75.5 221.5t-196.5 76.5q-177 0 -341 -97l-5 2l24 166q134 91 332 91z" />
    <glyph glyph-name="f.smcp" horiz-adv-x="873" 
d="M89 0l131 987h651l-20 -157h-475l-41 -307h419l-20 -152h-419l-49 -371h-177z" />
    <glyph glyph-name="g.smcp" horiz-adv-x="1064" 
d="M702 1013q182 0 296 -52l-22 -157l-6 -3q-127 57 -305 57t-287.5 -113.5t-109.5 -303.5q0 -145 78 -228t208 -83t213 36l47 320h150l-63 -438q-168 -70 -368 -70t-327.5 116t-127.5 329q0 270 168.5 430t455.5 160z" />
    <glyph glyph-name="gbreve.smcp" horiz-adv-x="1064" 
d="M702 1013q182 0 296 -52l-22 -157l-6 -3q-127 57 -305 57t-287.5 -113.5t-109.5 -303.5q0 -145 78 -228t208 -83t213 36l47 320h150l-63 -438q-168 -70 -368 -70t-327.5 116t-127.5 329q0 270 168.5 430t455.5 160zM685 1102q-110 0 -175 72.5t-48 197.5l119 13l4 -4
q-6 -67 24.5 -106t90.5 -39t101.5 39t56.5 105l6 5l110 -13q-19 -125 -99 -197.5t-190 -72.5z" />
    <glyph glyph-name="gcaron.smcp" horiz-adv-x="1064" 
d="M702 1013q182 0 296 -52l-22 -157l-6 -3q-127 57 -305 57t-287.5 -113.5t-109.5 -303.5q0 -145 78 -228t208 -83t213 36l47 320h150l-63 -438q-168 -70 -368 -70t-327.5 116t-127.5 329q0 270 168.5 430t455.5 160zM721 1085h-82l-181 257l86 73l156 -166l205 166l63 -73
z" />
    <glyph glyph-name="gcircumflex.smcp" horiz-adv-x="1064" 
d="M702 1013q182 0 296 -52l-22 -157l-6 -3q-127 57 -305 57t-287.5 -113.5t-109.5 -303.5q0 -145 78 -228t208 -83t213 36l47 320h150l-63 -438q-168 -70 -368 -70t-327.5 116t-127.5 329q0 270 168.5 430t455.5 160zM704 1253l-207 -168l-67 75l251 255h82l181 -255
l-88 -75z" />
    <glyph glyph-name="gcommaaccent.smcp" horiz-adv-x="1064" 
d="M438 -99l162 13l11 -20q-24 -168 -131 -324h-119q52 118 72 292q3 26 5 39zM702 1013q182 0 296 -52l-22 -157l-6 -3q-127 58 -305 57.5t-287.5 -114t-109.5 -303.5q0 -145 78 -228t207.5 -83t213.5 36l47 320h150l-63 -438q-168 -71 -368 -70.5t-327.5 116.5t-127.5 329
q0 270 168.5 430t455.5 160z" />
    <glyph glyph-name="gdotaccent.smcp" horiz-adv-x="1064" 
d="M702 1013q182 0 296 -52l-22 -157l-6 -3q-127 57 -305 57t-287.5 -113.5t-109.5 -303.5q0 -145 78 -228t208 -83t213 36l47 320h150l-63 -438q-168 -70 -368 -70t-327.5 116t-127.5 329q0 270 168.5 430t455.5 160zM698.5 1165q-48.5 0 -78.5 29q-30 30 -30 80t35.5 82.5
t84 32.5t77 -29t28.5 -79t-34 -83t-82.5 -33z" />
    <glyph glyph-name="h.smcp" horiz-adv-x="1161" 
d="M909 987h176l-137 -987h-177l59 421h-513l-60 -421h-177l138 987h177l-56 -406h514z" />
    <glyph glyph-name="hbar.smcp" horiz-adv-x="1161" 
d="M853 581l16 123h-513l-17 -123h514zM1177 838l-19 -134h-112l-98 -704h-177l59 421h-513l-60 -421h-177l99 704h-112l19 134h111l21 149h177l-21 -149h514l21 149h176l-20 -149h112z" />
    <glyph glyph-name="hcircumflex.smcp" horiz-adv-x="1161" 
d="M909 987h176l-137 -987h-177l59 421h-513l-60 -421h-177l138 987h177l-56 -406h514zM694 1253l-206 -168l-67 75l251 255h82l181 -255l-88 -75z" />
    <glyph glyph-name="i.smcp" horiz-adv-x="472" 
d="M80 0l138 987h177l-138 -987h-177z" />
    <glyph glyph-name="dotlessi.smcp" horiz-adv-x="472" 
d="M80 0l138 987h177l-138 -987h-177z" />
    <glyph glyph-name="iacute.smcp" horiz-adv-x="472" 
d="M80 0l138 987h177l-138 -987h-177zM233 1082l-69 102l255 253l128 -126l-1 -23z" />
    <glyph glyph-name="ibreve.smcp" horiz-adv-x="472" 
d="M80 0l138 987h177l-138 -987h-177zM326 1106q-110 0 -175 72.5t-49 197.5l120 13l3 -4q-6 -67 25 -106q30 -39 90 -39t102 39t57 104l6 6l109 -13q-19 -125 -98.5 -197.5t-189.5 -72.5z" />
    <glyph glyph-name="icircumflex.smcp" horiz-adv-x="472" 
d="M80 0l138 987h177l-138 -987h-177zM143 1087l-67 75l252 255h82l180 -255l-87 -75l-153 168z" />
    <glyph glyph-name="idieresis.smcp" horiz-adv-x="472" 
d="M80 0l138 987h177l-138 -987h-177zM521.5 1171q-46.5 0 -75.5 28q-29 27 -29 77t34.5 80.5t81 30.5t74.5 -28q28 -29 28 -77t-33.5 -79.5t-80 -31.5zM156.5 1171q-46.5 0 -75.5 28q-29 27 -29 77t34.5 80.5t81 30.5t74.5 -28q28 -29 28 -77t-33.5 -79.5t-80 -31.5z" />
    <glyph glyph-name="i.loclTRK.smcp" horiz-adv-x="472" 
d="M80 0l138 987h177l-138 -987h-177zM344.5 1167q-48.5 0 -78.5 29q-30 30 -30 80t35.5 82.5t84 32.5t77.5 -29q29 -30 29 -80t-34.5 -82.5t-83 -32.5z" />
    <glyph glyph-name="uni1ECB.smcp" horiz-adv-x="472" 
d="M119.5 -361q-48.5 0 -78.5 29t-30 79t35.5 82.5t83.5 32.5q50 0 78 -28q28 -30 28 -80t-34 -82.5t-82.5 -32.5zM80 0l138 987h177l-138 -987h-177z" />
    <glyph glyph-name="igrave.smcp" horiz-adv-x="472" 
d="M80 0l138 987h177l-138 -987h-177zM445 1091l-324 190l-2 22l121 132l268 -240z" />
    <glyph glyph-name="ij.smcp" horiz-adv-x="1063" 
d="M538 -17q-50 0 -97 8l23 152l5 2l73 -5q160 0 193 227l88 620h173l-91 -659q-47 -345 -367 -345zM80 0l138 987h177l-138 -987h-177z" />
    <glyph glyph-name="imacron.smcp" horiz-adv-x="472" 
d="M80 0l138 987h177l-138 -987h-177zM108 1173l20 132h473l-20 -132h-473z" />
    <glyph glyph-name="iogonek.smcp" horiz-adv-x="472" 
d="M63 -235q0 -63 71 -63q34 0 54 8l6 -4l-15 -114q-48 -15 -120 -15t-120.5 35.5t-48.5 102.5q0 160 211 285h-21l138 987h177l-138 -987h-21q-173 -117 -173 -235z" />
    <glyph glyph-name="itilde.smcp" horiz-adv-x="472" 
d="M80 0l138 987h177l-138 -987h-177zM242 1367q52 0 100.5 -36.5t85.5 -36.5t52 19.5t21 62.5l5 4l92 -26q-13 -89 -57 -140.5t-101.5 -51.5t-110.5 36t-85 36q-63 0 -78 -82l-2 -3l-95 26q32 192 173 192z" />
    <glyph glyph-name="j.smcp" horiz-adv-x="590" 
d="M65 -17q-50 0 -97 8l23 152l5 2l73 -5q160 0 194 227l87 620h173l-91 -659q-47 -345 -367 -345z" />
    <glyph glyph-name="jacute.smcp" horiz-adv-x="590" 
d="M65 -17q-50 0 -97 8l23 152l5 2l73 -5q160 0 194 227l87 620h173l-91 -659q-47 -345 -367 -345zM350 1078l-69 102l255 254l129 -127l-2 -22z" />
    <glyph glyph-name="jcircumflex.smcp" horiz-adv-x="590" 
d="M65 -17q-50 0 -97 8l23 152l5 2l73 -5q160 0 194 227l87 620h173l-91 -659q-47 -345 -367 -345zM261 1084l-67 74l251 255h82l180 -255l-87 -74l-153 167z" />
    <glyph glyph-name="k.smcp" horiz-adv-x="960" 
d="M998 981l-482 -482l363 -493l-2 -6h-203l-350 475l-67 -475h-177l140 987h177l-66 -460l471 460h194z" />
    <glyph glyph-name="kcommaaccent.smcp" horiz-adv-x="960" 
d="M343 -99l162 13l11 -20q-24 -168 -131 -324h-119q52 118 72 292q3 26 5 39zM998 981l-482 -482l363 -493l-2 -6h-203l-350 475l-67 -475h-177l140 987h177l-66 -460l471 460h194z" />
    <glyph glyph-name="kgreenlandic.smcp" horiz-adv-x="960" 
d="M998 981l-482 -482l363 -493l-2 -6h-203l-350 475l-67 -475h-177l140 987h177l-66 -460l471 460h194z" />
    <glyph glyph-name="l.smcp" horiz-adv-x="794" 
d="M281 155h434l-22 -155h-613l143 987h177z" />
    <glyph glyph-name="lacute.smcp" horiz-adv-x="794" 
d="M281 155h434l-22 -155h-613l143 987h177zM551 1285l-313 -207l-69 102l255 254l129 -127z" />
    <glyph glyph-name="lcaron.smcp" horiz-adv-x="794" 
d="M281 155h434l-22 -155h-613l143 987h177zM372 1084h-82l-180 257l85 72l157 -166l205 166l63 -72z" />
    <glyph glyph-name="lcommaaccent.smcp" horiz-adv-x="794" 
d="M292 -102l162 13l11 -21q-24 -168 -130 -324h-119q56 126 72 292q2 26 4 40zM281 155h434l-22 -155h-613l143 987h177z" />
    <glyph glyph-name="ldot.smcp" horiz-adv-x="839" 
d="M668 665q47 0 75 -28q28 -29 28 -77t-34 -80q-35 -32 -81 -32t-74 29q-28 28 -29 77q0 49 34 80t81 31zM397 987l-118 -832h436l-22 -155h-613l140 987h177z" />
    <glyph glyph-name="l_periodcentered_l.loclCAT.smcp" horiz-adv-x="1619" 
d="M668.5 665q46.5 0 74.5 -28q28 -29 28 -77t-33.5 -79.5t-80 -31.5t-75.5 28t-29 77t34.5 80t81 31zM1106 155h434l-23 -155h-612l143 987h177zM397 987l-118 -832h436l-22 -155h-613l140 987h177z" />
    <glyph glyph-name="lslash.smcp" horiz-adv-x="794" 
d="M281 155h434l-22 -155h-613l54 372l-119 -72h-8l23 151l126 76l67 460h177l-50 -343l153 91h5l-20 -150l-160 -97z" />
    <glyph glyph-name="m.smcp" horiz-adv-x="1368" 
d="M41 0l236 987h107l275 -693l434 693h113l-3 -987h-166l4 624h-4l-391 -605h-56l-238 621h-4l-145 -640h-162z" />
    <glyph glyph-name="n.smcp" horiz-adv-x="1206" 
d="M89 0l131 985h97l539 -672l90 674h167l-130 -987h-93l-546 680l-85 -680h-170z" />
    <glyph glyph-name="nacute.smcp" horiz-adv-x="1206" 
d="M89 0l131 985h97l539 -672l90 674h167l-130 -987h-93l-546 680l-85 -680h-170zM575 1078l-69 102l255 254l129 -127l-2 -22z" />
    <glyph glyph-name="napostrophe.smcp" horiz-adv-x="1336" 
d="M220 0l130 985h97l540 -672l89 674h168l-131 -987h-93l-545 680l-86 -680h-169zM82 866q80 279 80 415l147 22l19 -26q-22 -158 -142 -411h-104z" />
    <glyph glyph-name="ncaron.smcp" horiz-adv-x="1206" 
d="M89 0l131 985h97l539 -672l90 674h167l-130 -987h-93l-546 680l-85 -680h-170zM627 1084l-180 257l85 72l157 -166l205 166l63 -72l-248 -257h-82z" />
    <glyph glyph-name="ncommaaccent.smcp" horiz-adv-x="1206" 
d="M376 -428q61 139 76 331l162 13l12 -20q-24 -168 -131 -324h-119zM89 0l131 985h97l539 -672l90 674h167l-130 -987h-93l-546 680l-85 -680h-170z" />
    <glyph glyph-name="eng.smcp" horiz-adv-x="1208" 
d="M1115 987l-138 -1048q-45 -343 -402 -330l19 147q190 -6 220 212l15 112l-483 600l-87 -680h-170l133 985h96l540 -672l90 674h167z" />
    <glyph glyph-name="uni0272.smcp" horiz-adv-x="1206" 
d="M946 987h167l-130 -987h-93l-546 680l-72 -583l-21 -158q-22 -177 -130 -256.5t-274 -73.5l19 147q190 -6 220 214l134 1015h97l539 -672z" />
    <glyph glyph-name="ntilde.smcp" horiz-adv-x="1206" 
d="M89 0l131 985h97l539 -672l90 674h167l-130 -987h-93l-546 680l-85 -680h-170zM555.5 1368q62.5 0 129.5 -35t104 -35q69 0 80 76l6 4l119 -26q-15 -97 -70.5 -147.5t-119 -50.5t-133.5 35.5t-100.5 35.5t-52 -20.5t-26.5 -55.5l-6 -4l-108 26q11 86 63 141.5t114.5 55.5
z" />
    <glyph glyph-name="o.smcp" horiz-adv-x="1174" 
d="M576 136q148 0 241 114.5t93 271t-81 243t-227.5 86.5t-240 -114.5t-93.5 -270t80 -243t228 -87.5zM568 -22q-222 0 -355 123.5t-133 353.5t155.5 392t376.5 162t353 -121t132 -333q0 -251 -153.5 -414t-375.5 -163z" />
    <glyph glyph-name="oacute.smcp" horiz-adv-x="1174" 
d="M576 136q148 0 241 114.5t93 271t-81 243t-227.5 86.5t-240 -114.5t-93.5 -270t80 -243t228 -87.5zM568 -22q-222 0 -355 123.5t-133 353.5t155.5 392t376.5 162t353 -121t132 -333q0 -251 -153.5 -414t-375.5 -163zM560 1078l-68 102l255 254l128 -127l-2 -22z" />
    <glyph glyph-name="obreve.smcp" horiz-adv-x="1174" 
d="M576 136q148 0 241 114.5t93 271t-81 243t-227.5 86.5t-240 -114.5t-93.5 -270t80 -243t228 -87.5zM568 -22q-222 0 -355 123.5t-133 353.5t155.5 392t376.5 162t353 -121t132 -333q0 -251 -153.5 -414t-375.5 -163zM659 1100q-110 0 -175 73t-48 197l119 13l4 -3
q-6 -67 24.5 -106.5t90 -39.5t101.5 39.5t57 104.5l6 5l110 -13q-19 -125 -99 -197.5t-190 -72.5z" />
    <glyph glyph-name="ocircumflex.smcp" horiz-adv-x="1174" 
d="M576 136q148 0 241 114.5t93 271t-81 243t-227.5 86.5t-240 -114.5t-93.5 -270t80 -243t228 -87.5zM568 -22q-222 0 -355 123.5t-133 353.5t155.5 392t376.5 162t353 -121t132 -333q0 -251 -153.5 -414t-375.5 -163zM471 1084l-67 74l251 255h82l181 -255l-88 -74
l-152 167z" />
    <glyph glyph-name="odieresis.smcp" horiz-adv-x="1174" 
d="M576 136q148 0 241 114.5t93 271t-81 243t-227.5 86.5t-240 -114.5t-93.5 -270t80 -243t228 -87.5zM568 -22q-222 0 -355 123.5t-133 353.5t155.5 392t376.5 162t353 -121t132 -333q0 -251 -153.5 -414t-375.5 -163zM849 1167q-47 0 -75.5 28t-28.5 77.5t34.5 80t81 30.5
t74.5 -28t28 -76t-33.5 -80t-80.5 -32zM484.5 1167q-46.5 0 -75.5 28t-29 77.5t34.5 80t81 30.5t74.5 -28t28 -76t-33.5 -80t-80 -32z" />
    <glyph glyph-name="uni1ECD.smcp" horiz-adv-x="1174" 
d="M489.5 -359q-48.5 0 -78 28.5t-29.5 79t35 83t83.5 32.5t77.5 -29t29 -79t-34.5 -82.5t-83 -32.5zM576 136q148 0 241 114.5t93 271t-81 243t-227.5 86.5t-240 -114.5t-93.5 -270t80 -243t228 -87.5zM568 -22q-222 0 -355 123.5t-133 353.5t155.5 392t376.5 162t353 -121
t132 -333q0 -251 -153.5 -414t-375.5 -163z" />
    <glyph glyph-name="ograve.smcp" horiz-adv-x="1174" 
d="M576 136q148 0 241 114.5t93 271t-81 243t-227.5 86.5t-240 -114.5t-93.5 -270t80 -243t228 -87.5zM568 -22q-222 0 -355 123.5t-133 353.5t155.5 392t376.5 162t353 -121t132 -333q0 -251 -153.5 -414t-375.5 -163zM778 1085l-324 190l-2 23l121 132l269 -240z" />
    <glyph glyph-name="ohungarumlaut.smcp" horiz-adv-x="1174" 
d="M576 136q148 0 241 114.5t93 271t-81 243t-227.5 86.5t-240 -114.5t-93.5 -270t80 -243t228 -87.5zM568 -22q-222 0 -355 123.5t-133 353.5t155.5 392t376.5 162t353 -121t132 -333q0 -251 -153.5 -414t-375.5 -163zM799 1078l-80 45l167 307l127 -45l-2 -26zM493 1078
l-82 45l170 307l126 -45l-1 -26z" />
    <glyph glyph-name="omacron.smcp" horiz-adv-x="1174" 
d="M576 136q148 0 241 114.5t93 271t-81 243t-227.5 86.5t-240 -114.5t-93.5 -270t80 -243t228 -87.5zM568 -22q-222 0 -355 123.5t-133 353.5t155.5 392t376.5 162t353 -121t132 -333q0 -251 -153.5 -414t-375.5 -163zM398 1179l19 130h525l-19 -130h-525z" />
    <glyph glyph-name="uni01EB.smcp" horiz-adv-x="1174" 
d="M268 466.5q0 -155.5 80 -243t228 -87.5t241 114.5t93 271t-81 243t-227.5 86.5t-240 -114.5t-93.5 -270zM521 -240q0 -63 71 -63q34 0 54 7l6 -4l-15 -113q-48 -15 -120 -15t-120.5 35.5t-48.5 102.5q0 149 184 268q-199 7 -325.5 131t-126.5 330q0 246 155.5 408
t376.5 162t353 -121t132 -332t-111 -363t-292 -199q-173 -117 -173 -234z" />
    <glyph glyph-name="oslash.smcp" horiz-adv-x="1174" 
d="M566 136q158 0 251 114.5t93 268t-74 239.5l-387 -602q56 -20 117 -20zM268 465.5q0 -156.5 80 -242.5l387 606q-56 22 -122 22q-158 0 -251.5 -114.5t-93.5 -271zM1097 544.5q0 -240.5 -154 -403.5t-388 -163q-110 0 -198 35l-74 -115l-130 1v17l98 155
q-171 127 -171 370.5t155.5 405.5t388.5 162q106 0 203 -35l57 89h140v-13l-89 -138q162 -127 162 -367.5z" />
    <glyph glyph-name="oslashacute.smcp" horiz-adv-x="1174" 
d="M566 136q158 0 251 114.5t93 268t-74 239.5l-387 -602q56 -20 117 -20zM268 465.5q0 -156.5 80 -242.5l387 606q-56 22 -122 22q-158 0 -251.5 -114.5t-93.5 -271zM1097 544.5q0 -240.5 -154 -403.5t-388 -163q-110 0 -198 35l-74 -115l-130 1v17l98 155
q-171 127 -171 370.5t155.5 405.5t388.5 162q106 0 203 -35l57 89h140v-13l-89 -138q162 -127 162 -367.5zM936 1285l-312 -207l-69 102l255 254l128 -127z" />
    <glyph glyph-name="otilde.smcp" horiz-adv-x="1174" 
d="M576 136q148 0 241 114.5t93 271t-81 243t-227.5 86.5t-240 -114.5t-93.5 -270t80 -243t228 -87.5zM568 -22q-222 0 -355 123.5t-133 353.5t155.5 392t376.5 162t353 -121t132 -333q0 -251 -153.5 -414t-375.5 -163zM540.5 1368q62.5 0 129.5 -35t105 -35q69 0 80 76l5 4
l119 -26q-15 -97 -70.5 -147.5t-119 -50.5t-133.5 35.5t-100.5 35.5t-52 -20.5t-26.5 -55.5l-6 -4l-108 26q11 86 63 141.5t114.5 55.5z" />
    <glyph glyph-name="oe.smcp" horiz-adv-x="1448" 
d="M698 162q166 71 205 276h-166zM758 575h151q-17 151 -120 226zM268 472q0 -150 69 -235.5t190 -98.5l100 713h-14q-158 0 -251.5 -114.5t-93.5 -264.5zM555 -22q-209 0 -342 123.5t-133 353.5t155.5 392t388.5 162q82 0 149 -19h638l-20 -145h-387q88 -108 93 -270h227
l-19 -137h-218q-30 -177 -147 -300h369l-21 -138h-575q-73 -22 -158 -22z" />
    <glyph glyph-name="p.smcp" horiz-adv-x="908" 
d="M441 458q127 0 198.5 57.5t71.5 175.5q0 168 -195 167q-102 0 -138 -5l-56 -388q59 -7 119 -7zM441 328q-71 0 -138 5l-46 -333h-177l140 987q165 13 314 11q346 -6 347 -279q0 -190 -119.5 -290.5t-320.5 -100.5z" />
    <glyph glyph-name="thorn.smcp" horiz-adv-x="917" 
d="M408 294q272 0 272 231q0 80 -50 124t-138 44t-140 -8l-54 -385q65 -6 110 -6zM482 834q363 0 363 -300q0 -178 -119 -276t-316 -98q-67 0 -131 6l-22 -166h-177l138 987h177l-23 -157q67 4 110 4z" />
    <glyph glyph-name="q.smcp" horiz-adv-x="1176" 
d="M268 466.5q0 -155.5 80 -243t228 -87.5t241 114.5t93 271t-81 243t-227.5 86.5t-240 -114.5t-93.5 -270zM80 455q0 230 155.5 392t376.5 162t353 -121t132 -333q0 -160 -66.5 -290t-181.5 -204q110 -140 303 -189l-74 -135q-134 34 -220.5 93.5t-163.5 163.5
q-67 -17 -139 -16q-209 0 -342 123.5t-133 353.5z" />
    <glyph glyph-name="r.smcp" horiz-adv-x="990" 
d="M486 482q102 0 175 51.5t73 157.5q0 160 -215 160q-102 0 -147 -6l-48 -363h162zM538 994q160 0 265.5 -69.5t105.5 -207.5q0 -269 -263 -341l188 -370l-2 -6h-180l-168 343h-179l-44 -343h-172l131 985q158 9 318 9z" />
    <glyph glyph-name="racute.smcp" horiz-adv-x="990" 
d="M486 482q102 0 175 51.5t73 157.5q0 160 -215 160q-102 0 -147 -6l-48 -363h162zM538 994q160 0 265.5 -69.5t105.5 -207.5q0 -269 -263 -341l188 -370l-2 -6h-180l-168 343h-179l-44 -343h-172l131 985q158 9 318 9zM445 1076l-69 103l255 253l129 -127l-2 -22z" />
    <glyph glyph-name="rcaron.smcp" horiz-adv-x="990" 
d="M486 482q102 0 175 51.5t73 157.5q0 160 -215 160q-102 0 -147 -6l-48 -363h162zM538 994q160 0 265.5 -69.5t105.5 -207.5q0 -269 -263 -341l188 -370l-2 -6h-180l-168 343h-179l-44 -343h-172l131 985q158 9 318 9zM497 1082l-180 257l85 72l157 -165l204 165l64 -72
l-248 -257h-82z" />
    <glyph glyph-name="rcommaaccent.smcp" horiz-adv-x="990" 
d="M233 -430q55 126 71 292q2 26 5 39l162 13l11 -20q-24 -168 -130 -324h-119zM486 482q102 0 175 51.5t73 157.5q0 160 -215 160q-102 0 -147 -6l-48 -363h162zM538 994q160 0 265.5 -69.5t105.5 -207.5q0 -269 -263 -341l188 -370l-2 -6h-180l-168 343h-179l-44 -343
h-172l131 985q158 9 318 9z" />
    <glyph glyph-name="s.smcp" horiz-adv-x="839" 
d="M335.5 -24q-179.5 0 -303.5 69l24 171l5 2q114 -91 283 -91q212 0 213 147q0 60 -42 91.5t-155.5 78.5t-168.5 106t-55 159q0 136 106 217t268 81t265 -44l-21 -157l-6 -2q-93 52 -214 52q-231 0 -231 -132q0 -51 48 -83t153 -74.5t161.5 -104.5t56.5 -160
q0 -153 -103.5 -239.5t-283 -86.5z" />
    <glyph glyph-name="sacute.smcp" horiz-adv-x="839" 
d="M335.5 -24q-179.5 0 -303.5 69l24 171l5 2q114 -91 283 -91q212 0 213 147q0 60 -42 91.5t-155.5 78.5t-168.5 106t-55 159q0 136 106 217t268 81t265 -44l-21 -157l-6 -2q-93 52 -214 52q-231 0 -231 -132q0 -51 48 -83t153 -74.5t161.5 -104.5t56.5 -160
q0 -153 -103.5 -239.5t-283 -86.5zM426 1076l-69 103l256 253l128 -127l-2 -22z" />
    <glyph glyph-name="scaron.smcp" horiz-adv-x="839" 
d="M335.5 -24q-179.5 0 -303.5 69l24 171l5 2q114 -91 283 -91q212 0 213 147q0 60 -42 91.5t-155.5 78.5t-168.5 106t-55 159q0 136 106 217t268 81t265 -44l-21 -157l-6 -2q-93 52 -214 52q-231 0 -231 -132q0 -51 48 -83t153 -74.5t161.5 -104.5t56.5 -160
q0 -153 -103.5 -239.5t-283 -86.5zM478 1082l-180 257l86 72l156 -165l205 165l63 -72l-248 -257h-82z" />
    <glyph glyph-name="scedilla.smcp" horiz-adv-x="839" 
d="M510 1007q162 0 265 -44l-21 -157l-6 -2q-93 52 -214 52q-231 0 -231 -132q0 -51 48 -83t153 -74.5t161.5 -104.5t56.5 -160q0 -138 -85.5 -223t-230.5 -99l-50 -71q11 4 55 3.5t80 -34.5t36 -103q0 -110 -75.5 -162t-188.5 -52q-60 0 -110 18l15 104l3 2
q37 -15 85.5 -15t82 22.5t33.5 63.5q0 60 -70 60q-41 0 -84 -13l-2 2l13 85l61 88q-149 7 -258 67l24 171l5 2q114 -91 283 -91q212 0 213 147q0 60 -42 91.5t-155.5 78.5t-168.5 106t-55 159q0 136 106 217t268 81z" />
    <glyph glyph-name="scircumflex.smcp" horiz-adv-x="839" 
d="M335.5 -24q-179.5 0 -303.5 69l24 171l5 2q114 -91 283 -91q212 0 213 147q0 60 -42 91.5t-155.5 78.5t-168.5 106t-55 159q0 136 106 217t268 81t265 -44l-21 -157l-6 -2q-93 52 -214 52q-231 0 -231 -132q0 -51 48 -83t153 -74.5t161.5 -104.5t56.5 -160
q0 -153 -103.5 -239.5t-283 -86.5zM337 1082l-67 74l251 255h82l181 -255l-88 -74l-152 167z" />
    <glyph glyph-name="scommaaccent.smcp" horiz-adv-x="839" 
d="M175 -430q55 126 71 292q2 26 5 39l162 13l11 -20q-24 -168 -130 -324h-119zM335.5 -24q-179.5 0 -303.5 69l24 171l5 2q114 -91 283 -91q212 0 213 147q0 60 -42 91.5t-155.5 78.5t-168.5 106t-55 159q0 136 106 217t268 81t265 -44l-21 -157l-6 -2q-93 52 -214 52
q-231 0 -231 -132q0 -51 48 -83t153 -74.5t161.5 -104.5t56.5 -160q0 -153 -103.5 -239.5t-283 -86.5z" />
    <glyph glyph-name="germandbls.smcp" horiz-adv-x="1208" 
d="M715 -24q-147 0 -257 56l20 154l6 2q104 -71 223 -71t167.5 47.5t48.5 124.5q0 143 -255 143q-30 0 -74 -4v45l238 350q-54 15 -130 15q-153 0 -252.5 -74.5t-123.5 -262.5l-65 -501h-177l67 512q63 490 594 490q89 0 181 -22.5t145 -57.5v-23l-235 -333q82 -4 166 -54
q44 -26 71 -78t27 -121q0 -151 -94 -244t-291 -93z" />
    <glyph glyph-name="t.smcp" horiz-adv-x="910" 
d="M944 987l-22 -158h-324l-118 -829h-177l118 829h-333l22 158h834z" />
    <glyph glyph-name="tbar.smcp" horiz-adv-x="910" 
d="M923 829h-323l-49 -339h170l-19 -129h-170l-52 -361h-177l53 361h-168l19 129h167l49 339h-334l23 158h834z" />
    <glyph glyph-name="tcaron.smcp" horiz-adv-x="910" 
d="M946 987l-23 -158h-323l-120 -829h-177l120 829h-334l23 158h834zM600 1084h-82l-181 257l86 72l162 -166l199 166l65 -72z" />
    <glyph glyph-name="uni0163.smcp" horiz-adv-x="910" 
d="M562 -220q0 -110 -77 -164t-187 -55q-60 0 -110 18l13 104l6 2q35 -15 85 -15t82 24t32 68q0 54 -69 54q-45 0 -84 -13l-2 2l13 85l79 110h-40l120 829h-334l23 158h834l-23 -158h-323l-120 -829h-24l-65 -91q11 4 33 3q58 0 98 -32t40 -100z" />
    <glyph glyph-name="uni021B.smcp" horiz-adv-x="910" 
d="M302 -99l162 13l11 -20q-24 -168 -131 -324h-119q52 119 72 292q3 26 5 39zM946 987l-23 -158h-323l-120 -829h-177l120 829h-334l23 158h834z" />
    <glyph glyph-name="u.smcp" horiz-adv-x="1109" 
d="M504 -20q-189 0 -287 87.5t-98 250.5q0 39 6 84l84 585h176l-82 -568q-6 -37 -5 -69q0 -216 231 -216q106 0 178.5 74.5t91.5 210.5l82 568h169l-84 -585q-28 -199 -150.5 -310.5t-311.5 -111.5z" />
    <glyph glyph-name="uacute.smcp" horiz-adv-x="1109" 
d="M504 -20q-189 0 -287 87.5t-98 250.5q0 39 6 84l84 585h176l-82 -568q-6 -37 -5 -69q0 -216 231 -216q106 0 178.5 74.5t91.5 210.5l82 568h169l-84 -585q-28 -199 -150.5 -310.5t-311.5 -111.5zM553 1078l-69 102l255 254l129 -127l-2 -22z" />
    <glyph glyph-name="ubreve.smcp" horiz-adv-x="1109" 
d="M504 -20q-189 0 -287 87.5t-98 250.5q0 39 6 84l84 585h176l-82 -568q-6 -37 -5 -69q0 -216 231 -216q106 0 178.5 74.5t91.5 210.5l82 568h169l-84 -585q-28 -199 -150.5 -310.5t-311.5 -111.5zM651.5 1100q-109.5 0 -175 73t-48.5 197l119 13l4 -3q-6 -67 25 -106.5
t90.5 -39.5t101.5 39.5t57 104.5l5 5l110 -13q-19 -125 -99 -197.5t-189.5 -72.5z" />
    <glyph glyph-name="ucircumflex.smcp" horiz-adv-x="1109" 
d="M504 -20q-189 0 -287 87.5t-98 250.5q0 39 6 84l84 585h176l-82 -568q-6 -37 -5 -69q0 -216 231 -216q106 0 178.5 74.5t91.5 210.5l82 568h169l-84 -585q-28 -199 -150.5 -310.5t-311.5 -111.5zM464 1084l-67 74l251 255h82l180 -255l-87 -74l-153 167z" />
    <glyph glyph-name="udieresis.smcp" horiz-adv-x="1109" 
d="M504 -20q-189 0 -287 87.5t-98 250.5q0 39 6 84l84 585h176l-82 -568q-6 -37 -5 -69q0 -216 231 -216q106 0 178.5 74.5t91.5 210.5l82 568h169l-84 -585q-28 -199 -150.5 -310.5t-311.5 -111.5zM841.5 1167q-46.5 0 -75.5 28t-29 77.5t34.5 80t81 30.5t74.5 -28t28 -76
t-33.5 -80t-80 -32zM476.5 1167q-46.5 0 -75.5 28t-29 77.5t34.5 80t81 30.5t74.5 -28t28 -76t-33.5 -80t-80 -32z" />
    <glyph glyph-name="uni1EE5.smcp" horiz-adv-x="1109" 
d="M450.5 -361q-48.5 0 -78 29t-29.5 79t35 82.5t83.5 32.5t77.5 -28.5t29 -79t-34.5 -83t-83 -32.5zM504 -20q-189 0 -287 87.5t-98 250.5q0 39 6 84l84 585h176l-82 -568q-6 -37 -5 -69q0 -216 231 -216q106 0 178.5 74.5t91.5 210.5l82 568h169l-84 -585
q-28 -199 -150.5 -310.5t-311.5 -111.5z" />
    <glyph glyph-name="ugrave.smcp" horiz-adv-x="1109" 
d="M504 -20q-189 0 -287 87.5t-98 250.5q0 39 6 84l84 585h176l-82 -568q-6 -37 -5 -69q0 -216 231 -216q106 0 178.5 74.5t91.5 210.5l82 568h169l-84 -585q-28 -199 -150.5 -310.5t-311.5 -111.5zM771 1085l-324 190l-2 23l121 132l268 -240z" />
    <glyph glyph-name="uhungarumlaut.smcp" horiz-adv-x="1109" 
d="M504 -20q-189 0 -287 87.5t-98 250.5q0 39 6 84l84 585h176l-82 -568q-6 -37 -5 -69q0 -216 231 -216q106 0 178.5 74.5t91.5 210.5l82 568h169l-84 -585q-28 -199 -150.5 -310.5t-311.5 -111.5zM791 1078l-80 45l168 307l126 -45l-1 -26zM486 1078l-82 45l169 307
l127 -45l-2 -26z" />
    <glyph glyph-name="umacron.smcp" horiz-adv-x="1109" 
d="M504 -20q-189 0 -287 87.5t-98 250.5q0 39 6 84l84 585h176l-82 -568q-6 -37 -5 -69q0 -216 231 -216q106 0 178.5 74.5t91.5 210.5l82 568h169l-84 -585q-28 -199 -150.5 -310.5t-311.5 -111.5zM391 1179l19 130h525l-19 -130h-525z" />
    <glyph glyph-name="uogonek.smcp" horiz-adv-x="1109" 
d="M486 -235q0 -63 71 -63q34 0 54 8l5 -4l-15 -114q-48 -15 -119.5 -15t-120 35.5t-48.5 102.5q0 147 177 265q-182 4 -276.5 91t-94.5 247q0 39 6 84l84 585h176l-82 -568q-6 -37 -5 -69q0 -216 231 -216q106 0 178.5 74.5t91.5 210.5l82 568h169l-84 -585
q-20 -153 -99 -255t-204 -143q-177 -121 -177 -239z" />
    <glyph glyph-name="uring.smcp" horiz-adv-x="1109" 
d="M504 -20q-189 0 -287 87.5t-98 250.5q0 39 6 84l84 585h176l-82 -568q-6 -37 -5 -69q0 -216 231 -216q106 0 178.5 74.5t91.5 210.5l82 568h169l-84 -585q-28 -199 -150.5 -310.5t-311.5 -111.5zM652 1164q37 0 62 27t25 67.5t-23 63t-60.5 22.5t-62.5 -27t-25 -67.5
t23.5 -63t60.5 -22.5zM646.5 1071q-81.5 0 -130.5 46.5t-49 127.5t56 136.5t137 55.5t130.5 -46.5t49.5 -126.5t-56 -136.5t-137.5 -56.5z" />
    <glyph glyph-name="utilde.smcp" horiz-adv-x="1109" 
d="M504 -20q-189 0 -287 87.5t-98 250.5q0 39 6 84l84 585h176l-82 -568q-6 -37 -5 -69q0 -216 231 -216q106 0 178.5 74.5t91.5 210.5l82 568h169l-84 -585q-28 -199 -150.5 -310.5t-311.5 -111.5zM533.5 1368q62.5 0 129.5 -35t104 -35q69 0 80 76l6 4l119 -26
q-15 -97 -71 -147.5t-119 -50.5t-133 35.5t-100.5 35.5t-52 -20.5t-27.5 -55.5l-5 -4l-108 26q11 86 63 141.5t114.5 55.5z" />
    <glyph glyph-name="v.smcp" horiz-adv-x="984" 
d="M864 987h171l-557 -987h-107l-276 987h182l187 -749z" />
    <glyph glyph-name="w.smcp" horiz-adv-x="1437" 
d="M1476 987l2 -6l-465 -981h-125l-125 715l-3 32l-12 -32l-327 -715h-131l-188 981l2 6h173l112 -713l2 -41l15 41l324 713h134l121 -711l4 -49l16 50l309 710h162z" />
    <glyph glyph-name="wacute.smcp" horiz-adv-x="1437" 
d="M1476 987l2 -6l-465 -981h-125l-125 715l-3 32l-12 -32l-327 -715h-131l-188 981l2 6h173l112 -713l2 -41l15 41l324 713h134l121 -711l4 -49l16 50l309 710h162zM1031 1285l-312 -207l-69 102l255 254l128 -127z" />
    <glyph glyph-name="wcircumflex.smcp" horiz-adv-x="1437" 
d="M1476 987l2 -6l-465 -981h-125l-125 715l-3 32l-12 -32l-327 -715h-131l-188 981l2 6h173l112 -713l2 -41l15 41l324 713h134l121 -711l4 -49l16 50l309 710h162zM836 1251l-207 -167l-67 74l252 255h82l180 -255l-87 -74z" />
    <glyph glyph-name="wdieresis.smcp" horiz-adv-x="1437" 
d="M1476 987l2 -6l-465 -981h-125l-125 715l-3 32l-12 -32l-327 -715h-131l-188 981l2 6h173l112 -713l2 -41l15 41l324 713h134l121 -711l4 -49l16 50l309 710h162zM1007.5 1167q-46.5 0 -75.5 28q-29 27 -29 77t34.5 80.5t81 30.5t74.5 -28t28 -76t-33.5 -80t-80 -32z
M642.5 1167q-46.5 0 -75.5 28q-29 27 -29 77t34.5 80.5t81 30.5t74.5 -28t28 -76t-33.5 -80t-80 -32z" />
    <glyph glyph-name="wgrave.smcp" horiz-adv-x="1437" 
d="M1476 987l2 -6l-465 -981h-125l-125 715l-3 32l-12 -32l-327 -715h-131l-188 981l2 6h173l112 -713l2 -41l15 41l324 713h134l121 -711l4 -49l16 50l309 710h162zM936 1085l-323 190l-2 23l121 132l268 -240z" />
    <glyph glyph-name="x.smcp" horiz-adv-x="984" 
d="M1017 987l-425 -484l296 -503h-188l-222 384l-338 -384h-192l454 508l-283 479h188l207 -363l309 363h194z" />
    <glyph glyph-name="y.smcp" horiz-adv-x="949" 
d="M328 0l54 380l-283 601l2 6h178l203 -453l320 453h168l2 -6l-430 -607l-52 -374h-162z" />
    <glyph glyph-name="yacute.smcp" horiz-adv-x="949" 
d="M328 0l54 380l-283 601l2 6h178l203 -453l320 453h168l2 -6l-430 -607l-52 -374h-162zM458 1078l-69 102l255 254l129 -127l-2 -22z" />
    <glyph glyph-name="ycircumflex.smcp" horiz-adv-x="949" 
d="M328 0l54 380l-283 601l2 6h178l203 -453l320 453h168l2 -6l-430 -607l-52 -374h-162zM369 1084l-67 74l251 255h82l180 -255l-87 -74l-153 167z" />
    <glyph glyph-name="ydieresis.smcp" horiz-adv-x="949" 
d="M328 0l54 380l-283 601l2 6h178l203 -453l320 453h168l2 -6l-430 -607l-52 -374h-162zM746.5 1167q-46.5 0 -75.5 28q-29 27 -29 77t34.5 80.5t81 30.5t74.5 -28t28 -76t-33.5 -80t-80 -32zM381.5 1167q-46.5 0 -75.5 28q-29 27 -29 77t34.5 80.5t81 30.5t74.5 -28
t28 -76t-33.5 -80t-80 -32z" />
    <glyph glyph-name="ygrave.smcp" horiz-adv-x="949" 
d="M328 0l54 380l-283 601l2 6h178l203 -453l320 453h168l2 -6l-430 -607l-52 -374h-162zM676 1085l-324 190l-2 23l121 132l268 -240z" />
    <glyph glyph-name="uni0233.smcp" horiz-adv-x="949" 
d="M328 0l54 380l-283 601l2 6h178l203 -453l320 453h168l2 -6l-430 -607l-52 -374h-162zM296 1179l19 130h525l-19 -130h-525z" />
    <glyph glyph-name="uni1EF9.smcp" horiz-adv-x="949" 
d="M328 0l54 380l-283 601l2 6h178l203 -453l320 453h168l2 -6l-430 -607l-52 -374h-162zM439.5 1368q63.5 0 130.5 -35t102 -35q69 0 80 76l6 4l119 -26q-15 -97 -71 -147.5t-119 -50.5t-133 35.5t-100.5 35.5t-52 -20.5t-27.5 -55.5l-5 -4l-108 26q11 86 63 141.5
t115.5 55.5z" />
    <glyph glyph-name="z.smcp" horiz-adv-x="936" 
d="M920 899l-654 -746h559l-23 -153h-778l-13 82l661 752h-547l22 153h758z" />
    <glyph glyph-name="zacute.smcp" horiz-adv-x="936" 
d="M920 899l-654 -746h559l-23 -153h-778l-13 82l661 752h-547l22 153h758zM773 1287l-313 -207l-69 102l255 253l129 -126z" />
    <glyph glyph-name="zcaron.smcp" horiz-adv-x="936" 
d="M920 899l-654 -746h559l-23 -153h-778l-13 82l661 752h-547l22 153h758zM594 1085h-82l-181 257l86 73l156 -166l205 166l64 -73z" />
    <glyph glyph-name="zdotaccent.smcp" horiz-adv-x="936" 
d="M920 899l-654 -746h559l-23 -153h-778l-13 82l661 752h-547l22 153h758zM572 1165q-48 0 -78 29q-30 30 -30 80t35 82.5t83.5 32.5t77.5 -29t29 -79t-34.5 -83t-82.5 -33z" />
    <glyph glyph-name="zero.osf" horiz-adv-x="1122" 
d="M548 143q139 1 229 119t91 304q0 136 -73 220t-195 83q-153 0 -243 -120t-91 -308q0 -132 72 -215t210 -83zM514 -24q-194 0 -311 121t-117 324q0 274 152 445q153 171 382 171q195 0 310 -122t114 -327q0 -276 -150 -444t-380 -168z" />
    <glyph glyph-name="one.osf" horiz-adv-x="603" 
d="M220 0l111 793l-232 -108l-6 2l24 166l384 173h33l-145 -1026h-169z" />
    <glyph glyph-name="two.osf" horiz-adv-x="942" 
d="M486 1037q168 0 262 -69t95 -202q0 -133 -81 -229t-255 -205t-211 -153l-30 -30v-4q19 7 32 8h514l-23 -153h-774q17 138 103 229q87 91 243 192q79 46 147 93q67 48 83 67q55 65 62 95t8 61q0 143 -199 144q-169 0 -311 -108l-6 2l21 156q152 106 320 106z" />
    <glyph glyph-name="three.osf" horiz-adv-x="902" 
d="M782 230q0 -190 -130 -304t-322 -114q-123 0 -191 24t-133 75l24 167l5 2q104 -114 300 -114q119 0 199 66t80 188q0 171 -223 171h-114l19 147l102 2q101 2 168 55t67 130t-47 117t-130 39q-171 0 -294 -90l-6 6l21 143q140 95 298 95t246 -66t89 -189q0 -199 -177 -292
q149 -67 149 -258z" />
    <glyph glyph-name="four.osf" horiz-adv-x="1053" 
d="M225 164h395l80 570zM951 164l-22 -144h-175l-30 -206h-154l30 206h-606l-11 71l788 935h125l-121 -862h176z" />
    <glyph glyph-name="five.osf" horiz-adv-x="932" 
d="M652 220q0 88 -66 142t-208 53q-143 0 -268 -31l112 627h657l-23 -149h-513l-56 -318q60 20 173 20q179 0 269 -82t90 -229q1 -147 -73 -252q-135 -193 -396 -193q-203 0 -337 78l28 155l6 2q86 -54 148 -73t153 -18q136 0 220 72t84 196z" />
    <glyph glyph-name="six.osf" horiz-adv-x="1014" 
d="M767 408q0 220 -201 219q-112 0 -194 -68t-111 -175q23 -259 249 -259q114 0 186 76t71 207zM603 784q149 0 246 -91t97 -275t-130 -316t-322 -132t-300 125t-108 339q0 382 183 605t479 223q136 0 215 -37l-21 -147l-6 -2q-78 35 -206 36q-192 0 -306 -135t-148 -344
q120 151 327 151z" />
    <glyph glyph-name="seven.osf" horiz-adv-x="867" 
d="M99 -184l-2 5l594 1032h-596l22 158h766l14 -84l-627 -1111h-171z" />
    <glyph glyph-name="eight.osf" horiz-adv-x="983" 
d="M235 285q0 -85 62 -131q63 -46 165 -46t174 62t72 147t-50 138q-49 53 -166 107q-22 11 -32 17q-225 -119 -225 -294zM566 1123q-97 -1 -150 -51t-53 -130t46 -129t153 -104q195 108 196 248q0 78 -48 122t-144 44zM866 353q0 -173 -118 -277t-299 -104q-182 0 -283 75
t-101 199t70 227q70 104 209 175q-150 114 -150 272t109 252t269 94t258 -73t97 -206q0 -224 -240 -345q179 -115 179 -289z" />
    <glyph glyph-name="nine.osf" horiz-adv-x="1005" 
d="M270 622q0 -234 204 -235q102 0 173 56q72 56 103 149q-15 294 -231 294q-109 0 -179 -75t-70 -189zM93 575q1 209 125 335t311 127q187 0 289 -120t104 -336q0 -357 -161 -563t-444 -206q-145 0 -252 33l23 157l5 2q106 -41 238 -41q179 0 278 115t130 294
q-114 -136 -311 -136q-153 0 -244 90t-91 249z" />
    <glyph glyph-name="zero.sinf" horiz-adv-x="705" 
d="M145 -15q0 -173 131 -173q68 0 119 81q50 81 50 232q0 179 -121 178q-78 0 -129 -87q-50 -88 -50 -231zM588 117q0 -197 -94 -305t-224 -108t-200 78t-70 211q0 195 95 307t225 112t200 -75q68 -74 68 -220z" />
    <glyph glyph-name="one.sinf" horiz-adv-x="431" 
d="M88 -281l72 503l-149 -53l-5 2l20 146l283 98l15 -4l-95 -692h-141z" />
    <glyph glyph-name="two.sinf" horiz-adv-x="627" 
d="M-22 -281q0 169 206 313q110 74 145 110q34 36 34 78q1 76 -113 76t-205 -73l-2 2l18 121q84 73 229 73q96 0 160 -46q64 -47 64 -129t-47 -144t-150 -130q-140 -88 -157 -134h322l-17 -117h-487z" />
    <glyph glyph-name="three.sinf" horiz-adv-x="605" 
d="M473 -58q0 -106 -80 -172q-81 -66 -211 -66t-214 48l19 116l2 2q61 -52 197 -52q71 0 115 34t43 94q0 82 -106 82h-115l15 99h84q134 0 134 96q0 80 -114 80t-181 -39h-1l14 116q74 39 180 39t171 -43q67 -42 67 -138t-101 -152q82 -38 82 -144z" />
    <glyph glyph-name="four.sinf" horiz-adv-x="660" 
d="M114 -60h193l43 296zM534 -60l-15 -95h-96l-19 -126h-130l18 126h-350l8 60l437 514h118l-69 -479h98z" />
    <glyph glyph-name="five.sinf" horiz-adv-x="614" 
d="M333 -56q0 99 -121 99q-101 0 -195 -23l-2 4l78 382h415l-16 -116h-304l-35 -152q37 9 123 9q86 -1 145 -47q58 -46 57 -134q0 -138 -88 -200t-208 -62t-216 37l17 119h2q84 -44 173 -44q175 0 175 128z" />
    <glyph glyph-name="six.sinf" horiz-adv-x="657" 
d="M255 -190q63 0 99 37q35 37 35 93q0 102 -99 103q-54 0 -98 -31t-65 -75q13 -127 128 -127zM312 158q211 0 211 -206q0 -102 -79 -176q-78 -74 -198 -74t-188 69t-69 197q0 196 115 322t289 125q84 0 139 -20l-16 -110l-4 -4q-52 22 -141 22t-150 -65t-83 -164
q71 84 174 84z" />
    <glyph glyph-name="seven.sinf" horiz-adv-x="569" 
d="M32 -281l-2 4l327 551h-337l21 130h491l-9 -71l-354 -614h-137z" />
    <glyph glyph-name="eight.sinf" horiz-adv-x="653" 
d="M233 -195q63 -1 103 27t40 66t-30 65q-30 26 -98 52l-41 17q-93 -54 -93 -134q0 -93 119 -93zM298 318q-52 0 -82 -22t-30 -58q0 -72 127 -111q93 52 93 113q0 34 -28 56t-80 22zM224 -296q-124 0 -184 43q-61 43 -60 121q0 127 148 208q-76 54 -76 146t74 146
q74 55 180 55q104 0 169 -41t65 -121q0 -112 -132 -181q98 -60 98 -158t-79 -158t-203 -60z" />
    <glyph glyph-name="nine.sinf" horiz-adv-x="659" 
d="M413 153q0 147 -134 147q-58 0 -93 -36t-35 -89q0 -52 29 -79t77 -27q93 0 156 71v13zM290 419q122 0 188 -72t66 -194q0 -218 -97 -333t-283 -114q-101 0 -164 26l17 119l5 2q61 -34 151 -34q188 0 229 205q-69 -65 -171 -65t-159 52q-57 51 -57 155t77 178t198 75z" />
    <glyph glyph-name="zero.tf" horiz-adv-x="1031" 
d="M410 123q143 0 237 175t94 477q0 153 -56 245t-158 92q-143 0 -240 -182t-97 -481q0 -149 57 -237t163 -89zM400 -26q-184 0 -289 124t-105 364q0 368 154 584t378 216q184 0 286 -126q101 -127 101 -371q0 -371 -149 -581t-376 -210z" />
    <glyph glyph-name="one.tf" horiz-adv-x="1031" 
d="M404 0l142 1000l-304 -138h-9l26 175l460 222h35l-177 -1259h-173z" />
    <glyph glyph-name="two.tf" horiz-adv-x="1031" 
d="M724 940q0 169 -210 170q-108 0 -202 -41t-148 -90l-4 2l21 171q158 112 363 112q158 0 258 -78t100 -217t-74 -235t-318 -289q-244 -192 -275 -290h588l-22 -155h-807q32 261 425 564q181 140 243 214t62 162z" />
    <glyph glyph-name="three.tf" horiz-adv-x="1031" 
d="M821 402q0 -196 -128 -312q-127 -118 -337 -118t-349 88l25 165l3 2q117 -108 328 -108q132 0 212 69q80 70 80 180t-65 157t-197 48l-129 2l21 149h126q115 0 194 58q78 58 78 150t-54 138t-151 45q-168 0 -299 -85l-2 1l20 148q131 87 301 87t264 -74t94 -228
q0 -198 -188 -297q153 -69 153 -265z" />
    <glyph glyph-name="four.tf" horiz-adv-x="1031" 
d="M197 408h369l82 566zM920 408l-19 -147h-195l-38 -261h-160l38 261h-593l10 74l748 920h136l-121 -847h194z" />
    <glyph glyph-name="five.tf" horiz-adv-x="1033" 
d="M680 387q0 240 -248 240q-166 0 -313 -42l-4 3l127 654h668l-20 -151h-519l-62 -326q69 17 171 17q184 0 284 -88t100 -256q0 -120 -45 -214t-120 -147q-149 -105 -338 -105q-190 0 -344 76l24 170h4q157 -90 313 -90t239 71t83 188z" />
    <glyph glyph-name="six.tf" horiz-adv-x="1031" 
d="M510 627q-104 0 -183 -61t-113 -162q15 -279 231 -279q123 0 193 75t69 204q0 223 -197 223zM678 1112q-177 0 -290 -130t-153 -334q115 136 309 136q150 0 246 -93t96 -276t-126 -314t-319 -131q-192 0 -296 124t-104 340q0 378 185 603t470 225q136 0 214 -37l-20 -147
l-6 -4q-81 38 -206 38z" />
    <glyph glyph-name="seven.tf" horiz-adv-x="1031" 
d="M145 0l583 1078h-624l23 160h828l-13 -84l-614 -1154h-183z" />
    <glyph glyph-name="eight.tf" horiz-adv-x="1031" 
d="M195 317q-1 -91 61 -141t178 -49t189 59t73 144t-50 134q-70 66 -216 124q-24 10 -32 13q-203 -101 -203 -284zM540 1108q-225 0 -225 -168q0 -69 52 -116t193 -111q99 54 141 107t42 124q0 164 -203 164zM864 363q0 -169 -122 -280t-320 -111t-305 83q-106 83 -106 228
q0 235 266 391q-137 102 -137 252t116 244t290 94t274 -75t100 -197t-54 -201q-54 -78 -173 -145q89 -54 130 -119t41 -164z" />
    <glyph glyph-name="nine.tf" horiz-adv-x="1031" 
d="M244 840q0 -126 58 -184q58 -60 150 -60t169 46t129 127v6q0 165 -61 251t-174 86t-192 -73t-79 -199zM67 797q1 217 131 343t318 126t299 -122t110 -364q-1 -369 -167 -585t-451 -215q-164 0 -268 46l22 156l6 4q108 -58 244 -58q371 0 430 458q-131 -147 -303 -147
t-272 97t-99 261z" />
    <glyph glyph-name="zero.dnom" horiz-adv-x="705" 
d="M315 93q68 0 119 81q50 81 50 232q0 179 -121 179q-78 0 -128 -88t-51 -231q0 -173 131 -173zM310 -15q-130 0 -201 78q-70 78 -70 211q0 195 95 307q96 112 226 112q130 -1 199 -75t68 -220q1 -197 -93 -305t-224 -108z" />
    <glyph glyph-name="one.dnom" horiz-adv-x="430" 
d="M127 0l72 503l-156 -54l20 147l287 100h17l-99 -696h-141z" />
    <glyph glyph-name="two.dnom" horiz-adv-x="627" 
d="M11 0q0 169 207 313q110 75 144 111t35 77q0 76 -114 76t-205 -72l-2 1l19 121q86 73 229 73q95 0 159 -46t64 -128q-1 -82 -47 -145q-46 -62 -168 -140t-138 -124h322l-17 -117h-488z" />
    <glyph glyph-name="three.dnom" horiz-adv-x="605" 
d="M512 224q0 -106 -80 -171q-80 -66 -210 -66t-215 48l19 116l2 2q61 -52 197 -52q71 0 115 34t44 94q0 82 -107 82h-115l15 99h84q134 0 134 96q1 80 -115 80t-179 -39h-2l15 116q74 39 179 39t171 -43t67 -139q0 -96 -101 -151q82 -39 82 -145z" />
    <glyph glyph-name="four.dnom" horiz-adv-x="660" 
d="M156 222h194l43 296zM577 222l-15 -95h-97l-18 -127h-130l18 127h-350l8 59l437 514h117l-69 -478h99z" />
    <glyph glyph-name="five.dnom" horiz-adv-x="614" 
d="M371 225q0 99 -122 99q-101 0 -195 -22l-2 3l78 382h416l-17 -115h-304l-35 -153q38 9 124 9t144 -46t58 -134q0 -138 -88 -200t-209 -63q-120 0 -215 37l16 119h2q84 -45 173 -45q176 0 176 129z" />
    <glyph glyph-name="six.dnom" horiz-adv-x="657" 
d="M296 91q63 0 99 37q35 37 35 94q0 102 -99 102q-53 0 -97 -31t-66 -75q13 -127 128 -127zM353 439q211 -1 211 -207q0 -102 -79 -176t-199 -73q-120 0 -188 69t-68 197q0 194 115 321t289 126q84 0 139 -20l-16 -110l-4 -4q-51 22 -141 22t-150 -64q-60 -66 -83 -164
q71 83 174 83z" />
    <glyph glyph-name="seven.dnom" horiz-adv-x="569" 
d="M71 0l-2 2l328 553h-337l20 130h492l-10 -71l-353 -614h-138z" />
    <glyph glyph-name="eight.dnom" horiz-adv-x="655" 
d="M276 86q63 0 103 28t40 66t-30 64t-99 52l-41 17q-93 -54 -93 -134q1 -93 120 -93zM449 521q0 35 -28 57q-27 22 -79 22t-82 -22t-31 -60q0 -72 127 -110q93 52 93 113zM268 -15q-124 0 -185 43t-61 121q0 127 149 208q-76 53 -76 145t74 147t179 55t170 -41t65 -121
q0 -112 -132 -181q99 -60 99 -158t-80 -158q-78 -60 -202 -60z" />
    <glyph glyph-name="nine.dnom" horiz-adv-x="659" 
d="M452 434q0 147 -134 147q-58 0 -93 -36q-35 -37 -35 -89t29 -79t77 -27q93 0 156 71v13zM330 700q121 0 187 -72t66 -194q0 -218 -97 -333t-283 -114q-101 0 -164 26l17 119l5 2q61 -34 151 -33q188 0 229 204q-69 -65 -171 -65t-159 52t-57 156t77 178q78 74 199 74z
" />
    <glyph glyph-name="zero.numr" horiz-adv-x="705" 
d="M263 829q-1 -78 31 -126t100 -48t118 81t50 232q0 179 -121 179q-78 0 -128 -88t-50 -230zM706 961q0 -197 -94 -305t-224 -109q-130 1 -201 79q-70 78 -70 210q0 195 95 307q96 112 226 112q130 -1 199 -75t69 -219z" />
    <glyph glyph-name="one.numr" horiz-adv-x="430" 
d="M207 562l72 503l-156 -56l20 149l285 101h17l-97 -697h-141z" />
    <glyph glyph-name="two.numr" horiz-adv-x="627" 
d="M95 562q0 169 207 313q110 75 144 111t34 77q0 76 -114 76t-204 -72l-2 2l19 121q84 73 229 72q95 0 159 -46t64 -128q-1 -83 -47 -145q-46 -61 -168 -139t-139 -124h323l-17 -118h-488z" />
    <glyph glyph-name="three.numr" horiz-adv-x="605" 
d="M588 784q0 -106 -80 -171q-80 -66 -210 -66t-214 49l18 115l2 2q61 -52 198 -52q70 0 114 34t44 94q0 82 -106 82h-116l15 99h84q134 0 134 97q-1 80 -115 80t-179 -39h-2l15 115q74 39 180 39t171 -43q66 -43 66 -139t-101 -151q82 -39 82 -145z" />
    <glyph glyph-name="four.numr" horiz-adv-x="662" 
d="M233 784h193l43 296zM653 784l-14 -95h-97l-19 -127h-130l18 127h-350l8 59l437 514h118l-69 -478h98z" />
    <glyph glyph-name="five.numr" horiz-adv-x="614" 
d="M331 886q-101 0 -195 -22l-2 4l78 381h415l-16 -115h-304l-35 -153q38 9 124 9t144 -46t58 -134q0 -138 -88 -200t-209 -63q-120 0 -215 38l16 119h2q84 -45 173 -45q89 1 133 35t42 94q0 98 -121 98z" />
    <glyph glyph-name="six.numr" horiz-adv-x="657" 
d="M372 653q62 -1 98 37t36 94q0 102 -98 102q-54 0 -98 -30t-66 -76q13 -127 128 -127zM429 1002q211 0 211 -206q0 -102 -79 -177q-79 -73 -198 -73t-188 68t-69 198q0 194 116 320t288 127q84 0 140 -21l-17 -110l-4 -3q-52 22 -141 22t-150 -65t-83 -164q71 84 174 84z
" />
    <glyph glyph-name="seven.numr" horiz-adv-x="569" 
d="M151 562l-2 2l328 553h-337l20 130h492l-10 -70l-353 -615h-138z" />
    <glyph glyph-name="eight.numr" horiz-adv-x="655" 
d="M352 648q63 0 103 28t40 66t-30 64t-98 52l-41 17q-93 -54 -93 -134q0 -93 119 -93zM525 1084q1 34 -27 56t-80 22t-82 -22q-31 -22 -31 -60q0 -36 22 -54t105 -56q93 52 93 114zM626 765q0 -98 -80 -158t-202 -60q-124 0 -185 43t-60 121q0 127 149 209q-76 54 -76 146
t74 146t178 54t170 -41q65 -41 65 -121q0 -112 -132 -181q99 -60 99 -158z" />
    <glyph glyph-name="nine.numr" horiz-adv-x="659" 
d="M534 996q0 147 -134 147q-58 0 -93 -36t-35 -88q0 -51 29 -79t77 -28q93 0 156 71v13zM411 1262q121 0 188 -71q66 -72 66 -195q0 -218 -97 -332t-283 -115q-101 0 -164 26l17 119l5 2q61 -34 151 -33q188 0 229 205q-69 -66 -171 -66t-159 52t-57 156t77 178t198 74z
" />
    <glyph glyph-name="zero.sups" horiz-adv-x="707" 
d="M434 935q68 0 119 81q50 81 50 231q0 179 -121 179q-78 0 -128 -88t-51 -230q0 -173 131 -173zM428 827q-130 0 -200 78t-70 210q0 195 95 307t225 112t200 -74q69 -74 69 -220q0 -197 -94 -305q-95 -108 -225 -108z" />
    <glyph glyph-name="one.sups" horiz-adv-x="430" 
d="M246 843l72 501l-156 -54l20 149l285 99h17l-97 -695h-141z" />
    <glyph glyph-name="two.sups" horiz-adv-x="627" 
d="M138 843q0 169 206 313q110 74 144 110t35 78q1 76 -113 76t-205 -72l-2 2l19 121q84 73 229 72q95 1 159 -45t64 -129t-47 -145t-169 -140t-138 -123h322l-16 -118h-488z" />
    <glyph glyph-name="three.sups" horiz-adv-x="605" 
d="M631 1064q0 -106 -80 -172q-81 -66 -211 -65q-130 0 -213 48l18 115l2 2q61 -52 197 -52q71 0 115 34t44 95q0 82 -106 82h-116l15 98h84q134 0 134 97q0 80 -116 80t-178 -39h-2l15 115q73 40 179 40t172 -43t66 -139t-101 -152q82 -38 82 -144z" />
    <glyph glyph-name="four.sups" horiz-adv-x="660" 
d="M274 1065h193l43 296zM694 1065l-14 -95h-97l-19 -127h-130l18 127h-350l8 60l437 513h118l-69 -478h98z" />
    <glyph glyph-name="five.sups" horiz-adv-x="612" 
d="M637 1089q-1 -138 -89 -200t-208 -62t-215 37l16 119h2q84 -45 173 -45q88 0 132 34t44 88q0 104 -121 105q-101 0 -196 -22l-2 4l78 382h416l-17 -116h-304l-35 -153q37 10 123 10t145 -47q58 -47 58 -134z" />
    <glyph glyph-name="six.sups" horiz-adv-x="659" 
d="M415 933q63 0 99 37q35 37 35 93q0 102 -98 102q-54 -1 -98 -31t-66 -75q13 -126 128 -126zM472 1281q211 -1 211 -207q0 -102 -79 -176q-78 -74 -198 -74t-188 70q-68 69 -69 197q0 195 115 321t289 126q84 0 140 -21l-17 -109l-4 -4q-52 22 -141 22t-150 -65t-83 -164
q71 84 174 84z" />
    <glyph glyph-name="seven.sups" horiz-adv-x="571" 
d="M192 843l-2 2l328 551h-337l18 131h492l-10 -71l-351 -613h-138z" />
    <glyph glyph-name="eight.sups" horiz-adv-x="655" 
d="M393 927q63 0 103 28q40 29 40 67t-30 64t-98 52l-41 16q-93 -54 -93 -134q0 -93 119 -93zM566 1363q0 34 -28 56t-78 22q-52 0 -83 -22t-31 -59t22 -55t105 -56q93 52 93 114zM667 1044q1 -98 -79 -158t-204 -60t-184 44q-61 42 -60 120q0 127 149 209q-77 53 -77 145
t74 146t180 55q104 0 169 -41t65 -121q0 -111 -132 -180q99 -61 99 -159z" />
    <glyph glyph-name="nine.sups" horiz-adv-x="660" 
d="M575 1275q0 147 -134 147q-58 0 -93 -36t-35 -88t29 -79t77 -27q93 0 156 70v13zM452 1542q122 0 188 -72t66 -195q0 -219 -97 -333t-283 -113q-101 0 -164 26l17 119l5 2q61 -34 151 -34q188 0 229 205q-69 -65 -171 -65t-159 52t-57 156t77 178t198 74z" />
    <glyph glyph-name="zero.smcp" horiz-adv-x="1171" 
d="M901 544q0 324 -293 324q-146 0 -241 -120t-95 -305q0 -136 76 -218t222 -82q144 0 238 121q94 120 93 280zM532 -24q-195 0 -321 120t-125 321q0 272 157 444t399 172q205 0 325 -122t120 -328q0 -272 -156 -440q-157 -167 -399 -167z" />
    <glyph glyph-name="one.smcp" horiz-adv-x="606" 
d="M223 0l105 767l-239 -87l23 169l387 173h32l-138 -1022h-170z" />
    <glyph glyph-name="two.smcp" horiz-adv-x="953" 
d="M665 730q0 147 -205 147q-171 0 -313 -112l-4 4l19 156q150 108 322 108t268 -69t95 -201q1 -95 -45 -175t-108 -131t-196 -133t-202 -145l-30 -28l2 -2q7 4 30 4h504l-22 -153h-763q17 136 110 234t277 209q183 111 222 170q39 58 39 117z" />
    <glyph glyph-name="three.smcp" horiz-adv-x="912" 
d="M354 -28q-193 0 -326 97l22 167l10 6q110 -115 301 -115q127 0 201 49t73 146q0 149 -250 149h-80l23 145l67 2q141 4 194 40t53 107q0 112 -180 112t-302 -91l-7 5l20 144q134 97 320 96q140 1 231 -59t91 -170q1 -154 -148 -236q135 -64 135 -232t-128 -265t-320 -97z
" />
    <glyph glyph-name="four.smcp" horiz-adv-x="1027" 
d="M279 348h335l58 425zM950 348l-23 -143h-179l-27 -205h-155l28 205h-572l10 71l705 746h123l-91 -674h181z" />
    </font>
</defs>
</svg>
