<?xml version="1.0" standalone="no"?>
<!DOCTYPE svg PUBLIC "-//W3C//DTD SVG 1.1//EN" "http://www.w3.org/Graphics/SVG/1.1/DTD/svg11.dtd" >
<svg xmlns="http://www.w3.org/2000/svg">
<metadata>
Created by FontPrep 20130207 at Fri May 26 15:12:29 2017
 By Lizzy Knight
Copyright (c) 2017 by Alfonso Garci'a - Latinotype Team. All rights reserved.
</metadata>
<defs>
<font id="02f3ec05c16d1bf0c4db969a06d519c0" horiz-adv-x='1024' >
  <font-face 
    font-family="RawsonPro-ExtraLight"
    font-weight="300"
    font-stretch="normal"
    units-per-em="2048"
    panose-1="0 0 4 0 0 0 0 0 0 0"
    ascent="1638"
    descent="-410"
    x-height="961"
    cap-height="1229"
    bbox="-1296 -423 2515 1700"
    underline-thickness="93"
    underline-position="-93"
    unicode-range="U+0020-FB02"
  />
<missing-glyph horiz-adv-x="930" 
 />
    <glyph glyph-name="fi" unicode="fi" horiz-adv-x="929" 
d="M691 0v961h63v-961h-63zM723 1292q21 0 37 -15t16 -36t-16 -37t-36 -16q-22 0 -38 16t-16 37t16 36t37 15zM205 1035q0 143 77 217t193 75q71 0 113 -24v-56l-3 -1q-39 24 -119 24t-138 -59t-58 -174v-76h261v-54h-261v-907h-65v907h-134v54h134v74z" />
    <glyph glyph-name="fl" unicode="fl" horiz-adv-x="925" 
d="M687 1322h63v-1322h-63v1322zM205 1035q0 143 77 217t193 75q71 0 113 -24v-56l-3 -1q-45 24 -103 24q-96 0 -154 -59t-58 -174v-76h261v-54h-261v-907h-65v907h-134v54h134v74z" />
    <glyph glyph-name=".notdef" horiz-adv-x="930" 
 />
    <glyph glyph-name=".null" 
 />
    <glyph glyph-name="nonmarkingreturn" horiz-adv-x="681" 
 />
    <glyph glyph-name="space" unicode=" " horiz-adv-x="515" 
 />
    <glyph glyph-name="exclam" unicode="!" horiz-adv-x="439" 
d="M220 -19q-22 0 -38 15q-14 16 -14 36t14 34q16 14 38 14t36 -14t14 -34t-14 -36t-36 -15zM192 322l-6 933h67l-5 -933h-56z" />
    <glyph glyph-name="quotedbl" unicode="&#x22;" horiz-adv-x="545" 
d="M348 845l-2 388h56l9 -12l-22 -376h-41zM151 845l-2 388h56l9 -12l-22 -376h-41z" />
    <glyph glyph-name="numbersign" unicode="#" horiz-adv-x="1007" 
d="M642 378l54 324h-327l-56 -324h329zM894 702h-147l-56 -324h169v-50h-179l-33 -194h-48l33 194h-330l-33 -194h-50l33 194h-139v50h149l55 324h-171v50h181l33 194h50l-33 -194h328l33 194h50l-33 -194h138v-50z" />
    <glyph glyph-name="dollar" unicode="$" horiz-adv-x="878" 
d="M776 387q0 -121 -81 -193t-218 -82v-172h-62v170q-192 2 -311 76v62l4 1q127 -84 315 -83q136 0 214 55t78 160t-73 153t-223 86q-149 38 -223 92q-74 55 -74 174q0 120 91 184q90 64 232 69v175h61v-175q134 -6 239 -48v-60l-4 -1q-127 52 -260 52t-212 -47t-79 -147
t83 -148q59 -32 196 -70q143 -34 225 -98t82 -185z" />
    <glyph glyph-name="percent" unicode="%" horiz-adv-x="1312" 
d="M954 514q-100 0 -160 -64t-59 -175q0 -111 59 -173q60 -62 160 -63q100 0 160 62q60 61 59 173q0 112 -60 176q-59 64 -159 64zM955 -9q-125 0 -201 75q-76 74 -76 208t76 211t201 77t200 -76t75 -210t-74 -210q-76 -76 -201 -75zM141 951q1 -110 61 -172t160 -62t160 62
t59 172q0 110 -60 174q-59 65 -159 65t-160 -64t-61 -175zM210 19l820 1197h59l-819 -1197h-60zM640 952q0 -134 -76 -208q-76 -76 -202 -76t-202 74t-76 209q0 133 77 211t202 78t201 -77t76 -211z" />
    <glyph glyph-name="ampersand" unicode="&#x26;" horiz-adv-x="1195" 
d="M492 30q236 0 364 199l-364 361q-50 50 -73 75q-121 -63 -186 -145t-65 -212q0 -131 88 -205q89 -73 236 -73zM1199 670h-168q-13 -263 -106 -434l239 -236h-77l-190 188q-145 -216 -411 -216q-169 0 -276 88q-106 88 -106 238t73 243q73 94 205 163q-123 142 -123 274
t91 211q92 79 222 79t234 -63v-58h-2q-106 65 -218 65t-189 -63t-77 -160t54 -177t162 -186l348 -347q74 151 88 391h-190v49h417v-49z" />
    <glyph glyph-name="quotesingle" unicode="'" horiz-adv-x="348" 
d="M151 845l-2 388h56l9 -12l-22 -376h-41z" />
    <glyph glyph-name="parenleft" unicode="(" horiz-adv-x="502" 
d="M173 532q0 -320 88 -531t193 -264l-24 -50q-123 54 -220 275q-96 222 -96 568t96 568t220 283l24 -50q-110 -65 -196 -272t-85 -527z" />
    <glyph glyph-name="parenright" unicode=")" horiz-adv-x="502" 
d="M389 541q0 -347 -97 -569t-219 -283l-25 50q110 65 196 272t86 527t-88 532t-194 263l25 50q123 -55 219 -275t97 -567z" />
    <glyph glyph-name="asterisk" unicode="*" horiz-adv-x="841" 
d="M493 758l-7 5l-54 272l6 6l9 3l5 -5l92 -263l-4 -7zM233 827l-32 33v9l207 183l9 -2l7 -6v-9l-182 -208h-9zM721 957l-263 89l-2 6l2 11l6 4l273 -54l4 -6l-11 -46zM406 1059l-272 54l-6 6l12 46l11 4l260 -89l4 -6l-4 -13zM458 1074l-7 4l-4 9l139 153l49 60l15 -13
l20 -25l-151 -145zM424 1082l-7 5l-89 261l3 7l45 13l8 -5l55 -272l-3 -6z" />
    <glyph glyph-name="plus" unicode="+" horiz-adv-x="867" 
d="M773 572v-54h-311v-343h-54v343h-311v54h311v344h54v-344h311z" />
    <glyph glyph-name="comma" unicode="," horiz-adv-x="312" 
d="M84 -270q45 151 44 285q0 37 -3 58l61 7l9 -11q0 -169 -70 -339h-41z" />
    <glyph glyph-name="hyphen" unicode="-" horiz-adv-x="776" 
d="M147 510v56h482v-56h-482z" />
    <glyph glyph-name="period" unicode="." horiz-adv-x="342" 
d="M171 -4q-24 0 -39 16t-15 37t16 37t39 16t38 -14t15 -38q0 -22 -15 -38t-39 -16z" />
    <glyph glyph-name="slash" unicode="/" horiz-adv-x="787" 
d="M71 -218l584 1609h62l-585 -1609h-61z" />
    <glyph glyph-name="zero" unicode="0" horiz-adv-x="1143" 
d="M186 610q0 -268 105 -422t280 -154t281 153q105 154 105 422t-105 425q-104 158 -280 158t-281 -156t-105 -426zM1022 610q0 -298 -124 -466t-327 -168t-327 168t-123 466q0 298 124 468q125 171 327 171t326 -171t124 -468z" />
    <glyph glyph-name="one" unicode="1" horiz-adv-x="655" 
d="M387 0v1152l-339 -197h-3v67l387 227h19v-1249h-64z" />
    <glyph glyph-name="two" unicode="2" horiz-adv-x="962" 
d="M756 937q0 107 -80 181t-222 75q-210 0 -337 -150l-2 1v64q119 145 345 145q162 0 261 -90t98 -234q0 -108 -77 -209q-77 -102 -238 -234t-245 -246t-90 -182h708v-58h-784q-4 106 89 240q94 134 262 271t240 228t72 198z" />
    <glyph glyph-name="three" unicode="3" horiz-adv-x="971" 
d="M464 -28q-223 0 -363 110v71l1 2q136 -127 356 -127q145 0 240 84t95 223q0 283 -376 289l-106 2v54l106 1q147 4 236 70q88 67 88 187t-82 188q-83 68 -237 69q-154 0 -279 -108l-2 2v60q125 104 295 104t270 -82q98 -82 98 -205q-1 -234 -214 -307q263 -60 265 -324
q2 -163 -109 -263t-282 -100z" />
    <glyph glyph-name="four" unicode="4" horiz-adv-x="1072" 
d="M711 359v782l-575 -782h575zM1013 359v-57h-240v-302h-62v302h-668v20l681 929h49v-892h240z" />
    <glyph glyph-name="five" unicode="5" horiz-adv-x="977" 
d="M467 -28q-104 0 -181 21t-171 72v67h4q171 -100 336 -100t260 88t95 234t-91 237q-91 92 -260 92t-308 -43l-2 2l43 589h637v-58h-581l-34 -460q97 30 248 30q195 0 304 -106t109 -263q-1 -194 -115 -298t-293 -104z" />
    <glyph glyph-name="six" unicode="6" horiz-adv-x="1044" 
d="M548 30q138 0 235 94q96 94 96 236t-86 233q-85 90 -235 90q-150 1 -251 -99t-108 -230q31 -162 121 -243t228 -81zM584 743q156 0 258 -106q100 -105 100 -273t-114 -280t-298 -112q-185 0 -297 140t-112 442t139 498q139 197 377 197q138 0 234 -39v-54l-3 -2
q-101 39 -231 39q-215 0 -333 -185t-118 -485v-46q42 119 142 193t256 73z" />
    <glyph glyph-name="seven" unicode="7" horiz-adv-x="865" 
d="M43 1169v60h786v-23l-494 -1206h-67l480 1169h-705z" />
    <glyph glyph-name="eight" unicode="8" horiz-adv-x="1074" 
d="M544 30q166 0 260 79q93 79 90 204q-2 125 -86 188t-281 132q-76 28 -101 37q-248 -147 -245 -359q2 -136 99 -209q98 -72 264 -72zM860 970q0 102 -81 162t-228 60t-228 -62t-81 -162q0 -102 78 -163t233 -112q47 -17 89 -34q112 67 165 138t53 173zM542 -28
q-196 0 -310 87t-117 246q-2 235 259 389q-199 99 -199 269q0 130 101 209q102 79 274 79t273 -74t100 -211q0 -192 -229 -331q134 -60 199 -131q64 -72 66 -206t-110 -230q-111 -96 -307 -96z" />
    <glyph glyph-name="nine" unicode="9" horiz-adv-x="1038" 
d="M158 868q0 -142 90 -235t234 -93t242 88t118 206q-28 179 -120 270t-230 91q-140 0 -237 -93q-97 -92 -97 -234zM506 1255q182 0 296 -147t114 -454t-128 -488t-371 -181q-128 0 -240 39v58l4 2q117 -43 230 -43q441 0 442 646v37q-47 -110 -144 -177t-231 -67
q-171 0 -277 109t-106 277t115 278q114 111 296 111z" />
    <glyph glyph-name="colon" unicode=":" horiz-adv-x="392" 
d="M196 -4q-23 0 -37 15t-14 35t14 36q14 15 36 15q21 0 37 -15t16 -35t-14 -36q-15 -15 -38 -15zM196 775q-23 -1 -37 13t-14 34t14 36q14 15 37 15q24 0 38 -14t14 -35t-14 -36q-15 -13 -38 -13z" />
    <glyph glyph-name="semicolon" unicode=";" horiz-adv-x="450" 
d="M153 -270q45 151 44 285q0 37 -3 58l61 7l9 -11q0 -169 -70 -339h-41zM238 775q-24 -1 -39 15t-15 38t16 37q16 16 39 16t38 -15t15 -37t-15 -38t-39 -16z" />
    <glyph glyph-name="less" unicode="&#x3c;" horiz-adv-x="826" 
d="M149 540l534 -305l-26 -51l-573 332v48l573 330l26 -51l-519 -296z" />
    <glyph glyph-name="equal" unicode="=" horiz-adv-x="984" 
d="M153 320v56h679v-56h-679zM153 700v54h679v-54h-679z" />
    <glyph glyph-name="greater" unicode="&#x3e;" horiz-adv-x="826" 
d="M169 896l574 -332v-48l-574 -330l-26 50l520 296l15 8l-17 7l-518 298z" />
    <glyph glyph-name="question" unicode="?" horiz-adv-x="778" 
d="M324 -7q-22 1 -36 15t-14 36t14 35q14 14 36 14t36 -14t14 -35t-14 -36t-36 -15zM614 986q0 90 -69 160q-70 70 -188 70q-166 0 -271 -110h-2v63q91 104 279 104q141 1 228 -81t87 -210t-50 -203t-153 -159q-125 -97 -125 -292l-60 -2q0 119 32 195t106 134t104 89
q30 32 56 92t26 150z" />
    <glyph glyph-name="at" unicode="@" horiz-adv-x="1468" 
d="M726 179q186 0 272 205v269q-84 115 -242 116q-121 0 -197 -84q-77 -84 -77 -220t71 -211t173 -75zM1136 138q-67 0 -102 39q-34 39 -34 102v36q-84 -186 -281 -187q-127 0 -209 88t-82 247t92 257t240 98t242 -107l5 86h43v-505q0 -106 88 -106t135 90q46 90 45 258
q0 216 -144 379t-403 163t-430 -171t-171 -443t170 -438q172 -166 438 -166t432 162h4l28 -35q-176 -177 -466 -177t-476 181t-186 474t186 478t471 185q190 0 331 -89q140 -89 206 -221t66 -300t-60 -273t-178 -105z" />
    <glyph glyph-name="A" unicode="A" horiz-adv-x="1165" 
d="M296 464h572l-278 636l-13 34zM1069 0l-179 410h-616l-172 -410h-65l533 1255h18l548 -1255h-67z" />
    <glyph glyph-name="B" unicode="B" horiz-adv-x="1059" 
d="M471 52q229 0 323 76.5t94 205t-86.5 204t-242.5 75.5h-293v-561h205zM484 1186q-114 0 -218 -7v-514h246q134 0 214 71.5t80 196.5q0 253 -322 253zM953 344q0 -344 -478 -344h-270v1229q140 13 275 13q199 0 294 -83t95 -221q0 -219 -201 -286q130 -22 207.5 -106
t77.5 -202z" />
    <glyph glyph-name="C" unicode="C" horiz-adv-x="1206" 
d="M114 608q0 284 178.5 461t467.5 177q205 0 368 -81v-61l-5 -2q-153 86 -358 86q-264 0 -425 -159.5t-161 -419t155.5 -415t426.5 -157.5q190 0 362 91l5 -1v-58q-171 -91 -374 -91q-294 2 -467 174t-173 456z" />
    <glyph glyph-name="D" unicode="D" horiz-adv-x="1362" 
d="M1182 616.5q0 266.5 -159 417t-472 150.5q-171 0 -283 -11v-1110q80 -7 298 -7q303 2 459.5 148t156.5 412.5zM553 1244q348 0 522 -166t174 -460t-177.5 -457t-512.5 -163q-257 0 -354 8v1223q179 15 348 15z" />
    <glyph glyph-name="E" unicode="E" horiz-adv-x="1010" 
d="M268 60h648v-60h-711v1229h683v-60h-620v-501h585v-59h-585v-549z" />
    <glyph glyph-name="F" unicode="F" horiz-adv-x="934" 
d="M884 1169h-616v-529h525v-57h-525v-583h-63v1229h679v-60z" />
    <glyph glyph-name="G" unicode="G" horiz-adv-x="1310" 
d="M1190 573v-472q-194 -119 -475 -119t-441 171t-160 454t176.5 461t465.5 178q214 0 378 -77v-61l-4 -2q-93 45 -176 62.5t-200 17.5q-261 0 -417 -160t-156 -417t141.5 -412.5t391.5 -155.5t416 99v378h-382v55h442z" />
    <glyph glyph-name="H" unicode="H" horiz-adv-x="1379" 
d="M1110 1229h65v-1229h-65v600h-842v-600h-63v1229h63v-572h842v572z" />
    <glyph glyph-name="I" unicode="I" horiz-adv-x="472" 
d="M205 0v1229h63v-1229h-63z" />
    <glyph glyph-name="J" unicode="J" horiz-adv-x="633" 
d="M114 -6q-41 0 -88 6v56l4 2q30 -6 78 -6q136 0 204 83t68 230v864h63v-864q0 -179 -82.5 -275t-246.5 -96z" />
    <glyph glyph-name="K" unicode="K" horiz-adv-x="1092" 
d="M268 0h-63v1229h63v-587l698 587h80l2 -4l-717 -598l753 -623l-2 -4h-86l-728 601v-601z" />
    <glyph glyph-name="L" unicode="L" horiz-adv-x="925" 
d="M268 56h631v-56h-694v1229h63v-1173z" />
    <glyph glyph-name="M" unicode="M" horiz-adv-x="1593" 
d="M169 0l75 1229h56l506 -933l488 933h56l74 -1229h-61l-67 1108h-4l-471 -898h-33l-486 900h-6l-65 -1110h-62z" />
    <glyph glyph-name="N" unicode="N" horiz-adv-x="1374" 
d="M205 0v1240h24l875 -1108h4v1097h61v-1244h-18l-881 1112h-4v-1097h-61z" />
    <glyph glyph-name="O" unicode="O" horiz-adv-x="1474" 
d="M737 30q244 0 400.5 157t156.5 425.5t-156.5 425.5t-400.5 157t-400 -157t-156 -425.5t156 -425.5t400 -157zM738 -28q-269 0 -446.5 172.5t-177.5 467.5t176.5 468t445.5 173t447 -172t178 -466t-177 -468.5t-446 -174.5z" />
    <glyph glyph-name="P" unicode="P" horiz-adv-x="984" 
d="M447 570q194 0 296 80t102 222.5t-88.5 226t-255 83.5t-233.5 -7v-594q101 -11 179 -11zM452 514q-95 0 -184 9v-523h-63v1229q119 11 272 11q222 0 326 -97.5t106 -266t-116.5 -265.5t-340.5 -97z" />
    <glyph glyph-name="Q" unicode="Q" horiz-adv-x="1474" 
d="M737 30q244 0 400.5 157t156.5 425.5t-156.5 425.5t-400.5 157t-400 -157t-156 -425.5t156 -425.5t400 -157zM1361 624q0 -285 -155.5 -455.5t-401.5 -192.5q43 -130 120.5 -187t211.5 -74l2 -4l-19 -46q-151 17 -238.5 87.5t-137.5 219.5h-6q-268 0 -445.5 172.5
t-177.5 467.5t176.5 468t445.5 173t447 -172t178 -457z" />
    <glyph glyph-name="R" unicode="R" horiz-adv-x="1037" 
d="M460 575q160 0 264.5 78.5t104.5 224.5t-85 225t-256 79q-71 0 -220 -7v-600h192zM482 523h-214v-523h-63v1229q141 11 279 11q199 0 303.5 -91t104.5 -247.5t-77 -244t-202 -119.5l338 -534l-1 -4h-67l-334 527q-45 -4 -67 -4z" />
    <glyph glyph-name="S" unicode="S" horiz-adv-x="947" 
d="M435.5 -28q-191.5 0 -338.5 99v69l5 1q149 -110 350 -109q147 0 235.5 70.5t88.5 192t-79 193t-233 132.5q-249 102 -304 215q-26 53 -26 118q0 145 105 224.5t276 79.5t293 -69v-62l-4 -1q-117 74 -273.5 74t-244 -61.5t-87.5 -170t78.5 -170.5t234.5 -126t243 -146
t87 -229t-107.5 -235.5t-299 -88.5z" />
    <glyph glyph-name="T" unicode="T" horiz-adv-x="996" 
d="M964 1229v-58h-433v-1171h-64v1171h-437v58h934z" />
    <glyph glyph-name="U" unicode="U" horiz-adv-x="1321" 
d="M661 -28q-225 0 -350 127.5t-125 362.5v767h63v-760q0 -212 108 -324.5t303.5 -112.5t303.5 112.5t108 324.5v760h64v-767q0 -235 -125 -362.5t-350 -127.5z" />
    <glyph glyph-name="V" unicode="V" horiz-adv-x="1148" 
d="M1104 1229l2 -4l-516 -1260h-28l-525 1260l2 4h63l466 -1119l11 -32l462 1151h63z" />
    <glyph glyph-name="W" unicode="W" horiz-adv-x="1792" 
d="M1741 1229l2 -4l-414 -1257h-42l-390 1145l-389 -1145h-43l-417 1257l2 4h65l363 -1110l12 -48l13 50l372 1106h45l376 -1104l13 -49l11 49l359 1106h62z" />
    <glyph glyph-name="X" unicode="X" horiz-adv-x="1096" 
d="M590 639l471 -635l-2 -4h-72l-441 596l-440 -596h-67l-2 4l469 636l-433 585l1 4h71l408 -549l397 549h68l2 -4z" />
    <glyph glyph-name="Y" unicode="Y" horiz-adv-x="1068" 
d="M503 0v529l-460 696l2 4h65l426 -641l423 641h63l2 -4l-458 -696v-529h-63z" />
    <glyph glyph-name="Z" unicode="Z" horiz-adv-x="1063" 
d="M65 0v24l831 1151h-822v54h916v-23l-835 -1152h839v-54h-929z" />
    <glyph glyph-name="bracketleft" unicode="[" horiz-adv-x="515" 
d="M454 1327h-206v-1575h206v-48h-262v1674h262v-51z" />
    <glyph glyph-name="backslash" unicode="\" horiz-adv-x="787" 
d="M719 -218h-62l-584 1609h61z" />
    <glyph glyph-name="bracketright" unicode="]" horiz-adv-x="515" 
d="M61 1378h265v-1674h-265v48h207v1575h-207v51z" />
    <glyph glyph-name="asciicircum" unicode="^" horiz-adv-x="871" 
d="M458 1238l307 -568l-44 -24l-278 518l-7 18l-283 -536l-47 24l307 568h45z" />
    <glyph glyph-name="underscore" unicode="_" horiz-adv-x="828" 
d="M60 -56v54h709v-54h-709z" />
    <glyph glyph-name="grave" unicode="`" horiz-adv-x="413" 
d="M343 1054l-298 225l-2 13l46 47l278 -252z" />
    <glyph glyph-name="a" unicode="a" horiz-adv-x="1029" 
d="M401.5 35q110.5 0 208 55t159.5 159v177q-115 54 -275.5 54t-251.5 -58.5t-91 -168t70 -164t180.5 -54.5zM894 -9q-120 0 -121 152v38q-134 -201 -388 -201q-130 0 -215.5 67.5t-85.5 204.5t109.5 209.5t283 72.5t292.5 -52v116q0 162 -90.5 244.5t-250.5 82.5t-255 -69
l-4 2v54q88 69 272.5 69t287.5 -95t103 -286v-427q0 -65 19.5 -94t64 -29t74.5 28l4 -2v-57q-36 -28 -100 -28z" />
    <glyph glyph-name="b" unicode="b" horiz-adv-x="1118" 
d="M534.5 37q182.5 0 296 121t113.5 331.5t-103.5 322t-259.5 111.5q-114 0 -206 -55.5t-140 -154.5v-609q117 -67 299.5 -67zM590 981q182 0 301.5 -124.5t119.5 -362t-133 -376t-350 -138.5t-359 85v1257h66v-525q113 184 355 184z" />
    <glyph glyph-name="c" unicode="c" horiz-adv-x="936" 
d="M600 -20q-222 0 -358 137.5t-136 362.5t139.5 364t355.5 139q145 0 250 -43v-54l-4 -3q-104 43 -240 42q-192 0 -314 -122t-122 -321t117.5 -321t316.5 -124q136 0 248 65l5 -3v-56q-113 -63 -258 -63z" />
    <glyph glyph-name="d" unicode="d" horiz-adv-x="1118" 
d="M544 37q212 0 337 207v571q-114 108 -292.5 108t-297 -126.5t-118.5 -330.5t104.5 -316.5t266.5 -112.5zM881 1322h65v-1322h-54l-9 169q-125 -190 -351 -189q-188 0 -307 126q-119 124 -119 356t135 375.5t327 143.5t313 -97v438z" />
    <glyph glyph-name="e" unicode="e" horiz-adv-x="1059" 
d="M556.5 925q-156.5 0 -261.5 -103t-120 -284h726q-6 179 -97 283t-247.5 104zM554 981q193 0 301.5 -124.5t108.5 -340.5v-34h-791q0 -216 122 -332t301 -116t316 83l4 -2v-55q-136 -84 -333 -84t-337 130t-140 365.5t127.5 372.5t320.5 137z" />
    <glyph glyph-name="f" unicode="f" horiz-adv-x="573" 
d="M475 1327q71 0 117 -24v-56l-4 -1q-43 24 -122 24t-137.5 -59t-58.5 -174v-76h262v-54h-262v-907h-65v907h-134v54h134v69q0 147 77.5 222t192.5 75z" />
    <glyph glyph-name="g" unicode="g" horiz-adv-x="1012" 
d="M881 -61.5q0 100.5 -81 140.5t-220 54t-202 27q-225 -97 -225 -238q0 -184 361 -185q164 0 265.5 50.5t101.5 151zM778 663.5q0 114.5 -79 180t-204 65.5t-204 -66.5t-79 -179t78.5 -176t204 -65t204.5 62.5t79 178.5zM942 961v-52l-261 1q160 -80 161 -251
q0 -132 -99 -211t-250 -79q-102 0 -182 37q-61 -32 -61.5 -85.5t57.5 -79t253.5 -46t288.5 -72.5t93 -181.5t-119 -194t-315 -64.5q-415 0 -415 231q0 84 63.5 151t156.5 110q-65 19 -95 48.5t-30 79.5q0 74 82 125q-121 82 -121 226.5t97 225.5t247 81h449z" />
    <glyph glyph-name="h" unicode="h" horiz-adv-x="1124" 
d="M583 981q173 0 277 -103t104 -319v-559h-63v547q0 193 -90 283q-89 90 -221 90q-259 0 -352 -235v-685h-65v1322h65v-540q45 89 135.5 144t209.5 55z" />
    <glyph glyph-name="i" unicode="i" horiz-adv-x="411" 
d="M173 0v961h65v-961h-65zM208 1184q-21 0 -38 17t-17 38t16.5 37t38 16t37.5 -16t16 -38t-16 -38t-37 -16z" />
    <glyph glyph-name="j" unicode="j" horiz-adv-x="443" 
d="M-2 -313q-34 0 -69 8v56l4 1q26 -6 56 -5q216 0 216 268v946h63v-957q0 -317 -270 -317zM237 1184q-21 0 -38 17t-17 38t17 37t38 16t37 -16t16 -38t-16 -38t-37 -16z" />
    <glyph glyph-name="k" unicode="k" horiz-adv-x="917" 
d="M238 0h-65v1322h65v-806l544 445h80l2 -4l-561 -458l583 -495l-2 -4h-83l-563 475v-475z" />
    <glyph glyph-name="l" unicode="l" horiz-adv-x="418" 
d="M181 0v1322h63v-1322h-63z" />
    <glyph glyph-name="m" unicode="m" horiz-adv-x="1737" 
d="M1244 981q140 0 236.5 -100.5t96.5 -305.5v-575h-63v562q0 181 -81 269.5t-201 88.5t-204 -60.5t-129 -166.5q9 -60 10 -118v-575h-66v562q0 181 -81 269.5t-200 88.5t-202 -61.5t-122 -165.5v-693h-65v961h54l9 -175q43 86 127 140.5t197.5 54.5t197.5 -54t123 -164
q43 95 133 156.5t230 61.5z" />
    <glyph glyph-name="n" unicode="n" horiz-adv-x="1126" 
d="M588 981q166 0 273 -107t107 -332v-542h-65v531q0 199 -92 294t-221 95t-219 -65.5t-133 -174.5v-680h-65v961h54l9 -183q48 91 140.5 147t211.5 56z" />
    <glyph glyph-name="o" unicode="o" horiz-adv-x="1169" 
d="M582.5 34q180.5 0 298 121.5t117.5 325.5t-116 323t-298 119t-297.5 -119t-115.5 -323t115.5 -325.5t296 -121.5zM582.5 -24q-206.5 0 -341.5 136t-135 368t136 366.5t343 134.5t343.5 -134t136.5 -366t-138 -368.5t-344.5 -136.5z" />
    <glyph glyph-name="p" unicode="p" horiz-adv-x="1122" 
d="M540.5 37q182.5 0 295 118.5t112.5 328.5t-101.5 324.5t-261.5 114.5q-115 0 -206.5 -56.5t-140.5 -153.5v-575q120 -101 302.5 -101zM594 981q186 0 303.5 -128.5t117.5 -365t-131.5 -372t-328 -135.5t-317.5 91v-376h-65v1266h54l9 -168q114 188 358 188z" />
    <glyph glyph-name="q" unicode="q" horiz-adv-x="1122" 
d="M542 37q115 0 202.5 56t139.5 153v566q-108 112 -292.5 111.5t-300.5 -126t-116 -331.5t102.5 -317.5t264.5 -111.5zM950 961v-1266h-66v471q-112 -186 -353 -186q-188 0 -305.5 126.5t-117.5 359.5t134 374t334.5 141t311.5 -106l8 86h54z" />
    <glyph glyph-name="r" unicode="r" horiz-adv-x="672" 
d="M519 981q74 0 123 -24v-58l-3 -2q-48 25 -134 25t-158.5 -57t-108.5 -210v-655h-65v961h54l8 -177q74 197 284 197z" />
    <glyph glyph-name="s" unicode="s" horiz-adv-x="871" 
d="M390.5 -22q-184.5 0 -297.5 76v65l4 2q121 -86 284.5 -86t249.5 53t86 151t-65.5 143.5t-221 84.5t-235.5 93t-80 167.5t99 183.5t251.5 70t266.5 -48v-60l-6 -2q-117 52 -251 52t-215 -52t-81 -139.5t70.5 -129.5t226 -81t231 -97.5t75.5 -182.5t-103.5 -193.5
t-288 -69.5z" />
    <glyph glyph-name="t" unicode="t" horiz-adv-x="711" 
d="M514 -7q-249 0 -250 255v657h-208v56h208v238l60 13l6 -2v-249h363v-56h-363v-648q0 -207 195 -207q106 1 171 51l6 -2v-56q-74 -50 -188 -50z" />
    <glyph glyph-name="u" unicode="u" horiz-adv-x="1096" 
d="M858 961h65v-961h-54l-9 160q-47 -82 -134 -131t-207 -49q-166 0 -261.5 98.5t-95.5 301.5v581h63v-572q0 -179 83 -265q82 -86 208 -86.5t212.5 56.5t129.5 157v710z" />
    <glyph glyph-name="v" unicode="v" horiz-adv-x="999" 
d="M950 961l1 -4l-428 -974h-43l-435 974l2 4h68l388 -890l381 890h66z" />
    <glyph glyph-name="w" unicode="w" horiz-adv-x="1483" 
d="M1424 961l2 -4l-316 -957h-52l-302 842l-11 37l-10 -37l-307 -842h-52l-322 957l2 4h63l279 -844l8 -33l9 33l304 844h54l301 -842l10 -33l7 35l276 840h57z" />
    <glyph glyph-name="x" unicode="x" horiz-adv-x="945" 
d="M516 495l383 -491l-2 -4h-70l-354 451l-358 -451h-65l-2 4l388 489l-369 464l2 4h71l337 -425l335 425h65l2 -6z" />
    <glyph glyph-name="y" unicode="y" horiz-adv-x="979" 
d="M201 -313q-24 0 -99 11v56l4 2q48 -11 88 -11q104 0 162.5 58.5t121.5 211.5l-430 942l2 4h69l391 -872l358 872h63l2 -4l-404 -970q-67 -164 -134 -232t-194 -68z" />
    <glyph glyph-name="z" unicode="z" horiz-adv-x="927" 
d="M862 56v-56h-793v26l685 879h-678v56h773v-28l-685 -877h698z" />
    <glyph glyph-name="braceleft" unicode="{" horiz-adv-x="534" 
d="M454 1327q-88 -1 -124 -31t-36 -125v-445q0 -88 -60 -136t-113 -48v-4q54 0 114 -49t59 -137v-445q0 -97 36 -127t124 -29h19v-53h-32q-110 0 -158 42t-48 165v434q0 78 -53 124t-108 45v64q54 0 108 45q53 46 53 120v436q0 121 48 164t158 43h32v-53h-19z" />
    <glyph glyph-name="bar" unicode="|" horiz-adv-x="441" 
d="M192 -192v1544h59v-1544h-59z" />
    <glyph glyph-name="braceright" unicode="}" horiz-adv-x="534" 
d="M300 737q0 -76 53 -122t107 -45v-64q-54 0 -107 -46t-53 -121v-434q0 -123 -48 -165t-157 -42h-32v53h19q88 -1 124 29t36 127v445q0 88 60 137t113 49v4q-53 0 -113 48t-60 136v445q0 97 -36 127t-124 29h-19v53h32q108 0 156 -43t49 -164v-436z" />
    <glyph glyph-name="asciitilde" unicode="~" horiz-adv-x="953" 
d="M639 527q49 0 83 23t34 68l4 4l44 -8q0 -65 -46 -104t-112 -39q-64 0 -170 44t-157 44q-52 -1 -86 -25t-34 -69l-2 -1l-46 7q0 63 46 102q94 78 289 -3q104 -43 153 -43z" />
    <glyph glyph-name="exclamdown" unicode="&#xa1;" horiz-adv-x="404" 
d="M169 -281l6 931h54l6 -931h-66zM203 894q-24 0 -38 14t-14 35t14 35t37 14t37 -14t14 -36q0 -48 -50 -48z" />
    <glyph glyph-name="cent" unicode="&#xa2;" horiz-adv-x="1096" 
d="M646 102v-171h-61v173q-222 17 -351 155q-130 138 -130 355q0 218 134 358t352 156v177h62v-175q171 0 309 -63v-58l-4 -4q-139 65 -331 65t-322 -124q-130 -125 -131 -330q0 -206 126 -330q127 -124 329 -124t346 87l5 -3v-56q-147 -88 -333 -88z" />
    <glyph glyph-name="sterling" unicode="&#xa3;" horiz-adv-x="1068" 
d="M283 385q0 74 -32 218h-180v54h169q-22 127 -22 201q0 182 112 286t292 103q180 0 301 -78v-61l-3 -2q-125 84 -289 84t-257 -88t-93 -240q0 -74 22 -205h462v-54h-450q32 -143 31 -218q0 -225 -95 -329h723v-56h-825l-2 9q136 132 136 376z" />
    <glyph glyph-name="currency" unicode="&#xa4;" horiz-adv-x="1318" 
d="M210 619q0 -185 132 -317t316 -132q186 0 316 130q130 132 130 318t-130 318t-316 131q-186 1 -316 -131q-132 -132 -132 -317zM1160 618q0 -188 -127 -333l138 -138l-45 -43l-136 138q-145 -127 -331 -127t-329 120l-131 -131l-43 43l131 130q-136 145 -136 340t126 336
l-121 121l43 45l123 -123q143 128 336 128t340 -134l128 129l45 -45l-130 -128q119 -140 119 -328z" />
    <glyph glyph-name="yen" unicode="&#xa5;" horiz-adv-x="1122" 
d="M953 583v-52h-361v-228h361v-52h-361v-251h-60v251h-359v52h359v228h-359v52h328l-434 657h71l424 -646l425 646h67l-432 -657h331z" />
    <glyph glyph-name="brokenbar" unicode="&#xa6;" horiz-adv-x="456" 
d="M199 -192v579h60v-579h-60zM199 784v568h60v-568h-60z" />
    <glyph glyph-name="section" unicode="&#xa7;" horiz-adv-x="949" 
d="M164 625q0 -98 69 -157t239 -140t230 -123q88 67 88 166t-69 157q-67 58 -247 146t-219 117q-91 -68 -91 -166zM812 11q0 -136 -104 -210q-104 -75 -274 -75q-171 0 -291 75v58l4 1q121 -78 275 -78t240 58q85 58 85 169q0 47 -17 73t-26 40q-10 14 -34 31t-38 27t-93 50
t-120 57q-164 80 -239 147q-76 67 -76 183t119 200q-82 71 -82 173q-1 134 101 207t270 73t285 -71v-60h-4q-115 75 -265 75t-238 -57q-86 -57 -85 -167q0 -60 35 -107t98 -79q71 -36 136 -67q221 -105 298 -174q77 -68 77 -170q0 -130 -115 -214q78 -69 78 -168z" />
    <glyph glyph-name="dieresis" unicode="&#xa8;" horiz-adv-x="476" 
d="M399 1184q-21 0 -37 16t-16 37t16 36t37 15t37 -14.5t16 -36t-16 -37.5t-37 -16zM81 1184q-21 0 -36 16t-15 37t15 36t36 15t37 -14.5t16 -36t-16 -37.5t-37 -16z" />
    <glyph glyph-name="copyright" unicode="&#xa9;" horiz-adv-x="1299" 
d="M650 246q-114 0 -194 75t-80 201t81 204t193 78t184 -29v-51l-4 -2q-76 34 -171 34t-161 -63t-66 -167t64 -168q64 -62 168 -62t176 41l2 -2v-48q-78 -41 -192 -41zM1138 528q0 220 -139 360t-349 140t-350 -140q-138 -140 -138 -360t138 -360t350 -140t350 140t138 360z
M650 -17q-233 0 -386 154t-152 392q0 238 152 391q153 152 386 152q234 0 386 -152t152 -391q0 -238 -152 -392t-386 -154z" />
    <glyph glyph-name="ordfeminine" unicode="&#xaa;" horiz-adv-x="873" 
d="M338 681q77 0 155.5 40t120.5 111v123q-84 37 -205 37q-247 0 -247 -158q0 -74 49.5 -113.5t126.5 -39.5zM778 711v-46q-22 -20 -72 -21q-89 0 -90 112v19q-50 -65 -127.5 -102.5t-167.5 -37.5t-152.5 51t-62.5 150.5t79 151t213.5 51.5t215.5 -37v80q0 114 -68.5 172.5
t-187 58.5t-189.5 -51l-3 2v47q61 50 202 50t220 -70t79 -207v-302q0 -89 55 -89q33 -1 53 18h3z" />
    <glyph glyph-name="guillemotleft" unicode="&#xab;" horiz-adv-x="975" 
d="M853 847v-11l-326 -330l324 -335v-9h-71l-337 344l339 341h71zM490 847v-11l-326 -330l324 -335v-9h-71l-337 344l339 341h71z" />
    <glyph glyph-name="uni00AD" unicode="&#xad;" horiz-adv-x="776" 
d="M147 510v56h482v-56h-482z" />
    <glyph glyph-name="registered" unicode="&#xae;" horiz-adv-x="1171" 
d="M469 858h142q93 0 95 103q0 102 -121 102q-101 0 -116 -2v-203zM756 963q0 -104 -89 -138l128 -175h-58l-123 165q-7 -2 -26 -1h-119v-164h-48v456q48 4 164 4q171 0 171 -147zM586 441q181 0 297 119q117 120 117 308t-117 307t-297 119t-298 -119t-118 -307t117 -308
q118 -120 299 -119zM585 1335q199 0 331 -131t132 -336t-131 -336q-131 -132 -331 -132t-333 132q-132 132 -132 336q0 205 132 336t332 131z" />
    <glyph glyph-name="macron" unicode="&#xaf;" horiz-adv-x="634" 
d="M52 1169v52h497v-52h-497z" />
    <glyph glyph-name="degree" unicode="&#xb0;" horiz-adv-x="638" 
d="M160 1041q0 -69 44 -115t115 -47q70 1 115 47t44 115q0 69 -44 116q-45 47 -115 47q-71 0 -115 -46q-44 -48 -44 -117zM320 836q-89 0 -149 59q-59 59 -59 147t60 146q60 60 148 60q89 0 147 -60q58 -58 58 -146t-58 -148q-58 -58 -147 -58z" />
    <glyph glyph-name="plusminus" unicode="&#xb1;" horiz-adv-x="970" 
d="M823 523h-311v-305h309v-54h-672v54h309v305h-311v54h311v339h54v-339h311v-54z" />
    <glyph glyph-name="uni00B2" unicode="&#xb2;" horiz-adv-x="608" 
d="M462 1074q0 56 -46 92q-46 38 -124 39q-123 0 -204 -82l-2 2v52q82 78 196 78t176 -49q61 -49 61 -123q1 -74 -45 -131t-148 -135q-168 -128 -179 -210h408v-48h-484q-2 61 53 137q54 76 154 150t142 124q42 48 42 104z" />
    <glyph glyph-name="uni00B3" unicode="&#xb3;" horiz-adv-x="603" 
d="M280 544q-120 0 -204 59v52h2q80 -65 211 -65q85 0 139 43t54 117t-51 112t-129 39h-75v41h71q63 0 108 35t45 97t-46 98q-46 34 -138 34t-165 -54h-1v51q73 52 179 52t166 -45t60 -126q1 -111 -109 -159q140 -43 139 -178q0 -91 -68 -147t-188 -56z" />
    <glyph glyph-name="acute" unicode="&#xb4;" horiz-adv-x="413" 
d="M67 1054l-24 33l277 252l47 -47l-4 -13z" />
    <glyph glyph-name="paragraph" unicode="&#xb6;" horiz-adv-x="1029" 
d="M938 1117v-58h-123v-1264h-31v1264h-138v-1264h-61v637q-268 -2 -394 80t-124 268q4 337 471 337h400z" />
    <glyph glyph-name="periodcentered" unicode="&#xb7;" horiz-adv-x="392" 
d="M195 404q-50 0 -50 48q0 22 14 36t37 15q24 0 38 -15q14 -16 14 -36t-14 -34t-39 -14z" />
    <glyph glyph-name="cedilla" unicode="&#xb8;" horiz-adv-x="361" 
d="M142.5 -411q-75.5 0 -122.5 20v45l4 2q37 -19 99 -19q145 0 145 117q0 99 -104 99q-58 0 -97 -19l-2 4v39l71 123h48l-63 -110q34 7 80 7.5t86.5 -35t40.5 -113t-55 -119t-130.5 -41.5z" />
    <glyph glyph-name="uni00B9" unicode="&#xb9;" horiz-adv-x="389" 
d="M214 559v612l-167 -78v61l216 97h7v-692h-56z" />
    <glyph glyph-name="ordmasculine" unicode="&#xba;" horiz-adv-x="932" 
d="M466 1331q-134 0 -220 -89t-86 -241q0 -153 86 -243t220 -90q133 0 220 90t87 243q0 152 -87 241t-220 89zM466 618q-156 0 -260 103t-104 277t104 279q104 104 259 104q157 0 261 -102t104 -277t-103 -280q-105 -104 -261 -104z" />
    <glyph glyph-name="guillemotright" unicode="&#xbb;" horiz-adv-x="977" 
d="M488 160v11l326 330l-324 335v9h70l337 -344l-338 -341h-71zM125 160v11l326 330l-324 335v9h70l337 -344l-339 -341h-70z" />
    <glyph glyph-name="onequarter" unicode="&#xbc;" horiz-adv-x="1362" 
d="M1112 199v417l-328 -417h328zM1301 199v-41h-137v-158h-52v158h-397v21l411 525h38v-505h137zM1017 1229h59l-832 -1251h-62zM214 559v612l-167 -78v61l216 97h7v-692h-56z" />
    <glyph glyph-name="onehalf" unicode="&#xbd;" horiz-adv-x="1346" 
d="M1011 646q-123 0 -205 -82l-2 2v52q82 78 197 78t176 -49t61 -123t-46 -130q-46 -57 -148 -135q-168 -128 -178 -211h407v-48h-484q-2 62 53 138q54 76 154 150t143 123q41 47 41 103t-45 94q-46 38 -124 38zM119 -22l834 1251h60l-832 -1251h-62zM244 559v612l-168 -78
v61l216 97h8v-692h-56z" />
    <glyph glyph-name="threequarters" unicode="&#xbe;" horiz-adv-x="1439" 
d="M1184 199v417l-328 -417h328zM1374 199v-41h-138v-158h-52v158h-396v21l411 525h37v-505h138zM1132 1229h60l-833 -1251h-61zM536 747q0 -91 -68 -147t-188 -56t-204 59v52h2q80 -65 211 -65q85 0 139 43t54 117t-51 112t-129 39h-75v41h71q63 0 108 35t45 97t-46 98
q-46 34 -138 34t-165 -54h-1v51q73 52 179 52t166 -45t60 -126q0 -110 -109 -159q139 -42 139 -178z" />
    <glyph glyph-name="questiondown" unicode="&#xbf;" horiz-adv-x="765" 
d="M155 -10q-1 -90 69 -160t187 -70q166 0 272 110h2v-64q-91 -104 -279 -104q-141 0 -228 82t-87 210t50 202q50 75 153 160q125 97 125 292l59 2q0 -120 -32 -196t-106 -134t-104 -88q-81 -84 -81 -242zM445 983q22 0 36 -15t14 -36q0 -22 -14 -36t-36 -14t-36 14t-14 36
t14 36q14 15 36 15z" />
    <glyph glyph-name="Agrave" unicode="&#xc0;" horiz-adv-x="1165" 
d="M296 464h572l-278 636l-13 34zM1069 0l-179 410h-616l-172 -410h-65l533 1255h18l548 -1255h-67zM722 1307l-337 169l-5 13l30 51l327 -196z" />
    <glyph glyph-name="Aacute" unicode="&#xc1;" horiz-adv-x="1165" 
d="M296 464h572l-278 636l-13 34zM1069 0l-179 410h-616l-172 -410h-65l533 1255h18l548 -1255h-67zM750 1476l-335 -169l-17 37l328 196l30 -51z" />
    <glyph glyph-name="Acircumflex" unicode="&#xc2;" horiz-adv-x="1165" 
d="M296 464h572l-278 636l-13 34zM1069 0l-179 410h-616l-172 -410h-65l533 1255h18l548 -1255h-67zM572 1478l-209 -175l-26 34l222 203h29l227 -203l-26 -34z" />
    <glyph glyph-name="Atilde" unicode="&#xc3;" horiz-adv-x="1165" 
d="M296 464h572l-278 636l-13 34zM1069 0l-179 410h-616l-172 -410h-65l533 1255h18l548 -1255h-67zM448 1489q51 0 135 -39t119 -39t59.5 23.5t24.5 66.5l2 1l46 -11q-2 -63 -38 -100t-84.5 -37t-132.5 40t-122 40t-62 -23.5t-24 -66.5l-4 -2l-47 12q2 60 39.5 97.5
t88.5 37.5z" />
    <glyph glyph-name="Adieresis" unicode="&#xc4;" horiz-adv-x="1165" 
d="M296 464h572l-278 636l-13 34zM1069 0l-179 410h-616l-172 -410h-65l533 1255h18l548 -1255h-67zM752.5 1381q-20.5 0 -34.5 15t-14 35.5t15 34.5t34 14t34 -14t15 -34.5t-14.5 -35.5t-35 -15zM405.5 1381q-20.5 0 -35 15t-14.5 35.5t14.5 34.5t35 14t35.5 -14t15 -34.5
t-15 -35.5t-35.5 -15z" />
    <glyph glyph-name="Aring" unicode="&#xc5;" horiz-adv-x="1165" 
d="M296 464h572l-278 636l-13 34zM1069 0l-179 410h-616l-172 -410h-65l533 1255h18l548 -1255h-67zM578 1504q-44 0 -72 -28.5t-28 -70.5t28 -71t72 -29t72 29t28 71t-28 70.5t-72 28.5zM578 1264q-62 0 -103 40t-41 100.5t40 100.5t103 40t103.5 -40t40.5 -100.5
t-40.5 -100.5t-102.5 -40z" />
    <glyph glyph-name="AE" unicode="&#xc6;" horiz-adv-x="1504" 
d="M784 480v671l-62 -103l-365 -568h427zM849 56h560v-56h-625v430h-458l-278 -430h-68l793 1229h608v-56h-532v-506h497v-56h-497v-555z" />
    <glyph glyph-name="Ccedilla" unicode="&#xc7;" horiz-adv-x="1206" 
d="M765 1188q-264 0 -425 -160q-161 -158 -161 -418t155.5 -415.5t426.5 -157.5q190 0 362 91l5 -1v-58q-164 -86 -350 -91l-50 -88q34 8 80 8t86 -36q40 -34 40.5 -112t-54.5 -120q-54 -42 -130 -41.5t-123 20.5v45l4 2q37 -19 99 -19q145 0 145 117q0 99 -104 99
q-58 0 -97 -19l-2 4v39l58 101q-283 9 -449.5 180.5t-166.5 452.5t178.5 458t467.5 177q205 0 368 -81v-61l-5 -2q-153 86 -358 86z" />
    <glyph glyph-name="Egrave" unicode="&#xc8;" horiz-adv-x="1010" 
d="M268 60h648v-60h-711v1229h683v-60h-620v-501h585v-59h-585v-549zM707 1307l-336 169l-6 13l30 51l327 -196z" />
    <glyph glyph-name="Eacute" unicode="&#xc9;" horiz-adv-x="1010" 
d="M268 60h648v-60h-711v1229h683v-60h-620v-501h585v-59h-585v-549zM735 1476l-335 -169l-16 37l327 196l30 -51z" />
    <glyph glyph-name="Ecircumflex" unicode="&#xca;" horiz-adv-x="1010" 
d="M268 60h648v-60h-711v1229h683v-60h-620v-501h585v-59h-585v-549zM557 1478l-209 -175l-26 34l222 203h29l228 -203l-26 -34z" />
    <glyph glyph-name="Edieresis" unicode="&#xcb;" horiz-adv-x="1010" 
d="M268 60h648v-60h-711v1229h683v-60h-620v-501h585v-59h-585v-549zM737.5 1381q-20.5 0 -34.5 15t-14 35.5t15 34.5t34 14t34.5 -14t15.5 -34.5t-15 -35.5t-35.5 -15zM391 1381q-20 0 -35 15t-15 35.5t15 34.5t35 14t35 -14t15 -34.5t-15 -35.5t-35 -15z" />
    <glyph glyph-name="Igrave" unicode="&#xcc;" horiz-adv-x="472" 
d="M205 0v1229h63v-1229h-63zM382 1307l-337 169l-6 13l30 51l328 -196z" />
    <glyph glyph-name="Iacute" unicode="&#xcd;" horiz-adv-x="472" 
d="M205 0v1229h63v-1229h-63zM74 1307l-16 37l327 196l30 -51l-5 -13z" />
    <glyph glyph-name="Icircumflex" unicode="&#xce;" horiz-adv-x="472" 
d="M205 0v1229h63v-1229h-63zM22 1303l-26 34l222 203h30l227 -203l-26 -34l-218 175z" />
    <glyph glyph-name="Idieresis" unicode="&#xcf;" horiz-adv-x="472" 
d="M205 0v1229h63v-1229h-63zM411.5 1381q-20.5 0 -34.5 15t-14 35.5t14 34.5t34.5 14t35.5 -14t15 -34.5t-15 -35.5t-35.5 -15zM65.5 1381q-20.5 0 -35.5 15t-15 35.5t15 34.5t35.5 14t35 -14t14.5 -34.5t-14.5 -35.5t-35 -15z" />
    <glyph glyph-name="Eth" unicode="&#xd0;" horiz-adv-x="1368" 
d="M1188 616.5q0 266.5 -159.5 417t-471.5 150.5q-171 0 -283 -11v-534h218v-51h-218v-525q80 -7 298 -7q303 2 459.5 148t156.5 412.5zM559 1244q348 0 522 -166t174 -460t-178 -457t-513 -163q-257 0 -354 8v582h-169v51h169v590q180 15 349 15z" />
    <glyph glyph-name="Ntilde" unicode="&#xd1;" horiz-adv-x="1374" 
d="M205 0v1240h24l875 -1108h4v1097h61v-1244h-18l-881 1112h-4v-1097h-61zM567 1489q51 0 135 -39t119 -39t59.5 23.5t24.5 66.5l2 1l46 -11q-2 -63 -38 -100t-84.5 -37t-132.5 40t-122 40t-62 -23.5t-24 -66.5l-4 -2l-47 12q2 60 39.5 97.5t88.5 37.5z" />
    <glyph glyph-name="Ograve" unicode="&#xd2;" horiz-adv-x="1474" 
d="M737 30q244 0 400.5 157t156.5 425.5t-156.5 425.5t-400.5 157t-400 -157t-156 -425.5t156 -425.5t400 -157zM738 -28q-269 0 -446.5 172.5t-177.5 467.5t176.5 468t445.5 173t447 -172t178 -466t-177 -468.5t-446 -174.5zM883 1307l-337 169l-6 13l30 51l327 -196z" />
    <glyph glyph-name="Oacute" unicode="&#xd3;" horiz-adv-x="1474" 
d="M737 30q244 0 400.5 157t156.5 425.5t-156.5 425.5t-400.5 157t-400 -157t-156 -425.5t156 -425.5t400 -157zM738 -28q-269 0 -446.5 172.5t-177.5 467.5t176.5 468t445.5 173t447 -172t178 -466t-177 -468.5t-446 -174.5zM575 1307l-16 37l327 196l30 -51l-6 -13z" />
    <glyph glyph-name="Ocircumflex" unicode="&#xd4;" horiz-adv-x="1474" 
d="M737 30q244 0 400.5 157t156.5 425.5t-156.5 425.5t-400.5 157t-400 -157t-156 -425.5t156 -425.5t400 -157zM738 -28q-269 0 -446.5 172.5t-177.5 467.5t176.5 468t445.5 173t447 -172t178 -466t-177 -468.5t-446 -174.5zM523 1303l-26 34l222 203h29l228 -203l-26 -34
l-218 175z" />
    <glyph glyph-name="Otilde" unicode="&#xd5;" horiz-adv-x="1474" 
d="M737 30q244 0 400.5 157t156.5 425.5t-156.5 425.5t-400.5 157t-400 -157t-156 -425.5t156 -425.5t400 -157zM738 -28q-269 0 -446.5 172.5t-177.5 467.5t176.5 468t445.5 173t447 -172t178 -466t-177 -468.5t-446 -174.5zM608 1489q51 0 135 -39t119 -39t59.5 23.5
t24.5 66.5l2 1l46 -11q-2 -63 -38 -100t-84.5 -37t-132.5 40t-122 40t-62 -23.5t-24 -66.5l-4 -2l-47 12q2 60 39.5 97.5t88.5 37.5z" />
    <glyph glyph-name="Odieresis" unicode="&#xd6;" horiz-adv-x="1474" 
d="M737 30q244 0 400.5 157t156.5 425.5t-156.5 425.5t-400.5 157t-400 -157t-156 -425.5t156 -425.5t400 -157zM738 -28q-269 0 -446.5 172.5t-177.5 467.5t176.5 468t445.5 173t447 -172t178 -466t-177 -468.5t-446 -174.5zM912.5 1381q-20.5 0 -34.5 15t-14 35.5t15 34.5
t34 14t34.5 -14t15.5 -34.5t-15 -35.5t-35.5 -15zM566 1381q-20 0 -35 15t-15 35.5t15 34.5t35 14t35 -14t15 -34.5t-15 -35.5t-35 -15z" />
    <glyph glyph-name="multiply" unicode="&#xd7;" horiz-adv-x="930" 
d="M789 827l-284 -285l284 -287l-37 -37l-287 285l-284 -285l-40 37l287 287l-287 285l40 39l284 -287l287 287z" />
    <glyph glyph-name="Oslash" unicode="&#xd8;" horiz-adv-x="1474" 
d="M1294 603.5q0 258.5 -142 420.5l-791 -860q151 -134 385.5 -134t391 157.5t156.5 416zM181 620.5q0 -260.5 141 -417.5l791 858q-149 134 -384.5 134t-391.5 -157t-156 -417.5zM1363 1260v-7l-170 -184q168 -173 168 -460.5t-177 -462t-436.5 -174.5t-427.5 147
l-139 -153h-67v10l165 180q-166 175 -165.5 463t177 461t436 173t429.5 -147l142 154h65z" />
    <glyph glyph-name="Ugrave" unicode="&#xd9;" horiz-adv-x="1321" 
d="M661 -28q-225 0 -350 127.5t-125 362.5v767h63v-760q0 -212 108 -324.5t303.5 -112.5t303.5 112.5t108 324.5v760h64v-767q0 -235 -125 -362.5t-350 -127.5zM806 1307l-337 169l-5 13l29 51l328 -196z" />
    <glyph glyph-name="Uacute" unicode="&#xda;" horiz-adv-x="1321" 
d="M661 -28q-225 0 -350 127.5t-125 362.5v767h63v-760q0 -212 108 -324.5t303.5 -112.5t303.5 112.5t108 324.5v760h64v-767q0 -235 -125 -362.5t-350 -127.5zM499 1307l-17 37l328 196l30 -51l-6 -13z" />
    <glyph glyph-name="Ucircumflex" unicode="&#xdb;" horiz-adv-x="1321" 
d="M661 -28q-225 0 -350 127.5t-125 362.5v767h63v-760q0 -212 108 -324.5t303.5 -112.5t303.5 112.5t108 324.5v760h64v-767q0 -235 -125 -362.5t-350 -127.5zM447 1303l-26 34l221 203h30l227 -203l-26 -34l-218 175z" />
    <glyph glyph-name="Udieresis" unicode="&#xdc;" horiz-adv-x="1321" 
d="M661 -28q-225 0 -350 127.5t-125 362.5v767h63v-760q0 -212 108 -324.5t303.5 -112.5t303.5 112.5t108 324.5v760h64v-767q0 -235 -125 -362.5t-350 -127.5zM835.5 1381q-20.5 0 -34 15t-13.5 35.5t13.5 34.5t34 14t35.5 -14t15 -34.5t-15 -35.5t-35.5 -15zM489.5 1381
q-20.5 0 -35.5 15t-15 35.5t15 34.5t35.5 14t35.5 -14t15 -34.5t-15 -35.5t-35.5 -15z" />
    <glyph glyph-name="Yacute" unicode="&#xdd;" horiz-adv-x="1068" 
d="M503 0v529l-460 696l2 4h65l426 -641l423 641h63l2 -4l-458 -696v-529h-63zM372 1307l-16 37l327 196l30 -51l-6 -13z" />
    <glyph glyph-name="Thorn" unicode="&#xde;" horiz-adv-x="1005" 
d="M443 315q195 0 296 81t101 225.5t-93.5 224t-288.5 79.5q-119 0 -190 -9v-592q87 -9 175 -9zM449 259q-112 0 -181 7v-266h-63v1229h63v-257q89 11 196 11q222 0 329.5 -94t109.5 -264.5t-114.5 -268t-339.5 -97.5z" />
    <glyph glyph-name="germandbls" unicode="&#xdf;" horiz-adv-x="1117" 
d="M1046 217q0 -109 -81 -174t-219 -65t-225 72v64l4 1q95 -80 233 -80q97 0 161 48.5t64 134.5t-40 130.5t-124.5 89.5t-120 67t-65.5 65t-30 101t32.5 108.5t71 79.5t71 81t32.5 116q0 101 -81 156.5t-204 55.5t-205 -77.5t-82 -235.5v-955h-65v961q0 182 99.5 274
t250.5 92t250.5 -69.5t99.5 -199.5q1 -74 -31 -130q-32 -58 -70 -86q-102 -76 -102 -164q0 -60 43 -98t142.5 -91.5t145 -108t45.5 -163.5z" />
    <glyph glyph-name="agrave" unicode="&#xe0;" horiz-adv-x="1029" 
d="M401.5 35q110.5 0 208 55t159.5 159v177q-115 54 -275.5 54t-251.5 -58.5t-91 -168t70 -164t180.5 -54.5zM894 -9q-120 0 -121 152v38q-134 -201 -388 -201q-130 0 -215.5 67.5t-85.5 204.5t109.5 209.5t283 72.5t292.5 -52v116q0 162 -90.5 244.5t-250.5 82.5t-255 -69
l-4 2v54q88 69 272.5 69t287.5 -95t103 -286v-427q0 -65 19.5 -94t64 -29t74.5 28l4 -2v-57q-36 -28 -100 -28zM581 1054l-298 225l-2 13l47 47l277 -252z" />
    <glyph glyph-name="aacute" unicode="&#xe1;" horiz-adv-x="1029" 
d="M401.5 35q110.5 0 208 55t159.5 159v177q-115 54 -275.5 54t-251.5 -58.5t-91 -168t70 -164t180.5 -54.5zM894 -9q-120 0 -121 152v38q-134 -201 -388 -201q-130 0 -215.5 67.5t-85.5 204.5t109.5 209.5t283 72.5t292.5 -52v116q0 162 -90.5 244.5t-250.5 82.5t-255 -69
l-4 2v54q88 69 272.5 69t287.5 -95t103 -286v-427q0 -65 19.5 -94t64 -29t74.5 28l4 -2v-57q-36 -28 -100 -28zM648 1279l-296 -225l-24 33l277 252l47 -47z" />
    <glyph glyph-name="acircumflex" unicode="&#xe2;" horiz-adv-x="1029" 
d="M401.5 35q110.5 0 208 55t159.5 159v177q-115 54 -275.5 54t-251.5 -58.5t-91 -168t70 -164t180.5 -54.5zM894 -9q-120 0 -121 152v38q-134 -201 -388 -201q-130 0 -215.5 67.5t-85.5 204.5t109.5 209.5t283 72.5t292.5 -52v116q0 162 -90.5 244.5t-250.5 82.5t-255 -69
l-4 2v54q88 69 272.5 69t287.5 -95t103 -286v-427q0 -65 19.5 -94t64 -29t74.5 28l4 -2v-57q-36 -28 -100 -28zM469 1262l-193 -204l-30 29l210 242h30l214 -242l-30 -29z" />
    <glyph glyph-name="atilde" unicode="&#xe3;" horiz-adv-x="1029" 
d="M401.5 35q110.5 0 208 55t159.5 159v177q-115 54 -275.5 54t-251.5 -58.5t-91 -168t70 -164t180.5 -54.5zM894 -9q-120 0 -121 152v38q-134 -201 -388 -201q-130 0 -215.5 67.5t-85.5 204.5t109.5 209.5t283 72.5t292.5 -52v116q0 162 -90.5 244.5t-250.5 82.5t-255 -69
l-4 2v54q88 69 272.5 69t287.5 -95t103 -286v-427q0 -65 19.5 -94t64 -29t74.5 28l4 -2v-57q-36 -28 -100 -28zM329 1277q55 0 149 -40t132 -40t62 22.5t24 65.5l2 3l47 -9q0 -63 -36.5 -100.5t-89.5 -37.5t-146 40t-134 40t-65.5 -23t-24.5 -64l-1 -4l-47 9q0 61 36.5 99.5
t91.5 38.5z" />
    <glyph glyph-name="adieresis" unicode="&#xe4;" horiz-adv-x="1029" 
d="M401.5 35q110.5 0 208 55t159.5 159v177q-115 54 -275.5 54t-251.5 -58.5t-91 -168t70 -164t180.5 -54.5zM894 -9q-120 0 -121 152v38q-134 -201 -388 -201q-130 0 -215.5 67.5t-85.5 204.5t109.5 209.5t283 72.5t292.5 -52v116q0 162 -90.5 244.5t-250.5 82.5t-255 -69
l-4 2v54q88 69 272.5 69t287.5 -95t103 -286v-427q0 -65 19.5 -94t64 -29t74.5 28l4 -2v-57q-36 -28 -100 -28zM632 1184q-21 0 -37 16t-16 37t16 36t37 15t37 -14.5t16 -36t-16 -37.5t-37 -16zM314 1184q-21 0 -36 16t-15 37t14.5 36t36 15t37.5 -14.5t16 -36t-16 -37.5
t-37 -16z" />
    <glyph glyph-name="aring" unicode="&#xe5;" horiz-adv-x="1029" 
d="M401.5 35q110.5 0 208 55t159.5 159v177q-115 54 -275.5 54t-251.5 -58.5t-91 -168t70 -164t180.5 -54.5zM894 -9q-120 0 -121 152v38q-134 -201 -388 -201q-130 0 -215.5 67.5t-85.5 204.5t109.5 209.5t283 72.5t292.5 -52v116q0 162 -90.5 244.5t-250.5 82.5t-255 -69
l-4 2v54q88 69 272.5 69t287.5 -95t103 -286v-427q0 -65 19.5 -94t64 -29t74.5 28l4 -2v-57q-36 -28 -100 -28zM471 1301q-45 0 -72.5 -29.5t-27.5 -72.5t27.5 -72.5t72.5 -29.5t73.5 29.5t28.5 72.5t-28.5 72.5t-73.5 29.5zM473 1056q-63 0 -105 41.5t-42 102t41 101.5
t105 41t104 -41t40 -102t-40 -102t-103 -41z" />
    <glyph glyph-name="ae" unicode="&#xe6;" horiz-adv-x="1690" 
d="M402.5 35q115.5 0 220.5 63.5t163 180.5q-30 93 -30 194q-454 0 -560 -110q-46 -48 -46.5 -135t68.5 -140t184.5 -53zM1188.5 927q-153.5 0 -255 -107t-112.5 -293h704q-4 188 -93.5 294t-243 106zM1184 981q190 0 298 -126.5t108 -346.5v-35h-771q2 -210 118.5 -324
t292 -114t306.5 86l6 -2v-59q-138 -84 -295 -84q-321 0 -439 247q-63 -114 -174 -178.5t-246 -64.5t-219.5 66t-84.5 192t97 188.5t210 76.5q183 24 363 24v71q0 162 -86.5 244.5t-247.5 82.5t-252 -69l-6 4v52q88 69 254 69q329 0 385 -260q52 123 154 191.5t229 68.5z" />
    <glyph glyph-name="ccedilla" unicode="&#xe7;" horiz-adv-x="936" 
d="M771 -250.5q0 -77.5 -55 -119t-130.5 -41.5t-121.5 20v45l3 2q37 -19 99 -19q145 0 145 117q0 99 -104 99q-58 0 -97 -19l-2 4v39l60 103q-210 11 -336 147.5t-126 357t139.5 359.5t355.5 139q145 0 250 -43v-54l-4 -3q-104 43 -240 42q-192 0 -314 -122t-122 -321
t117.5 -321t316.5 -124q136 0 248 65l5 -3v-56q-108 -61 -242 -63l-52 -90q34 7 80.5 7.5t86.5 -35t40 -113z" />
    <glyph glyph-name="egrave" unicode="&#xe8;" horiz-adv-x="1059" 
d="M556.5 925q-156.5 0 -261.5 -103t-120 -284h726q-6 179 -97 283t-247.5 104zM554 981q193 0 301.5 -124.5t108.5 -340.5v-34h-791q0 -216 122 -332t301 -116t316 83l4 -2v-55q-136 -84 -333 -84t-337 130t-140 365.5t127.5 372.5t320.5 137zM655 1054l-298 225l-1 13
l46 47l278 -252z" />
    <glyph glyph-name="eacute" unicode="&#xe9;" horiz-adv-x="1059" 
d="M556.5 925q-156.5 0 -261.5 -103t-120 -284h726q-6 179 -97 283t-247.5 104zM554 981q193 0 301.5 -124.5t108.5 -340.5v-34h-791q0 -216 122 -332t301 -116t316 83l4 -2v-55q-136 -84 -333 -84t-337 130t-140 365.5t127.5 372.5t320.5 137zM722 1279l-296 -225l-24 33
l278 252l46 -47z" />
    <glyph glyph-name="ecircumflex" unicode="&#xea;" horiz-adv-x="1059" 
d="M556.5 925q-156.5 0 -261.5 -103t-120 -284h726q-6 179 -97 283t-247.5 104zM554 981q193 0 301.5 -124.5t108.5 -340.5v-34h-791q0 -216 122 -332t301 -116t316 83l4 -2v-55q-136 -84 -333 -84t-337 130t-140 365.5t127.5 372.5t320.5 137zM544 1262l-194 -204l-30 29
l211 242h29l215 -242l-30 -29z" />
    <glyph glyph-name="edieresis" unicode="&#xeb;" horiz-adv-x="1059" 
d="M556.5 925q-156.5 0 -261.5 -103t-120 -284h726q-6 179 -97 283t-247.5 104zM554 981q193 0 301.5 -124.5t108.5 -340.5v-34h-791q0 -216 122 -332t301 -116t316 83l4 -2v-55q-136 -84 -333 -84t-337 130t-140 365.5t127.5 372.5t320.5 137zM707 1184q-21 0 -37.5 16
t-16.5 37t16 36t37.5 15t37.5 -14.5t16 -36t-16 -37.5t-37 -16zM388 1184q-21 0 -36 16t-15 37t15 36t36 15t37 -14.5t16 -36t-16 -37.5t-37 -16z" />
    <glyph glyph-name="igrave" unicode="&#xec;" horiz-adv-x="411" 
d="M173 0v961h65v-961h-65zM317 1054l-298 225l-2 13l46 47l278 -252z" />
    <glyph glyph-name="iacute" unicode="&#xed;" horiz-adv-x="411" 
d="M173 0v961h65v-961h-65zM88 1054l-25 33l278 252l46 -47l-3 -13z" />
    <glyph glyph-name="icircumflex" unicode="&#xee;" horiz-adv-x="411" 
d="M173 0v961h65v-961h-65zM11 1058l-30 29l211 242h30l214 -242l-30 -29l-201 204z" />
    <glyph glyph-name="idieresis" unicode="&#xef;" horiz-adv-x="411" 
d="M173 0v961h65v-961h-65zM332 1186q-21 0 -36 15t-15 37t15 37t36 15t37 -15t16 -37t-16 -37t-37 -15zM59 1186q-21 0 -37 16t-16 37t15.5 36t37 15t37.5 -15t16 -37t-16 -37t-37 -15z" />
    <glyph glyph-name="eth" unicode="&#xf0;" horiz-adv-x="1185" 
d="M581.5 34q181.5 0 293.5 135.5t112 390.5v28q-34 93 -141 176t-279.5 83t-282 -111.5t-109.5 -292t112.5 -295t294 -114.5zM1052 572q0 -285 -128.5 -440.5t-359.5 -155.5q-195 0 -325.5 128.5t-130.5 336t128.5 336t331.5 128.5q277 0 413 -209q-35 436 -287 550
l-171 -172l-35 38l152 152q-61 19 -137 19q-153 0 -268 -52l-4 2v55q117 52 246.5 52.5t209.5 -27.5l151 150l37 -37l-136 -136q313 -155 313 -718z" />
    <glyph glyph-name="ntilde" unicode="&#xf1;" horiz-adv-x="1126" 
d="M588 981q166 0 273 -107t107 -332v-542h-65v531q0 199 -92 294t-221 95t-219 -65.5t-133 -174.5v-680h-65v961h54l9 -183q48 91 140.5 147t211.5 56zM411 1277q55 0 148.5 -40t131.5 -40t62.5 22.5t24.5 65.5l2 3l47 -9q0 -63 -36.5 -100.5t-89.5 -37.5t-146 40t-134 40
t-65.5 -23t-24.5 -64l-1 -4l-47 9q0 61 36.5 99.5t91.5 38.5z" />
    <glyph glyph-name="ograve" unicode="&#xf2;" horiz-adv-x="1169" 
d="M582.5 34q180.5 0 298 121.5t117.5 325.5t-116 323t-298 119t-297.5 -119t-115.5 -323t115.5 -325.5t296 -121.5zM582.5 -24q-206.5 0 -341.5 136t-135 368t136 366.5t343 134.5t343.5 -134t136.5 -366t-138 -368.5t-344.5 -136.5zM696 1054l-298 225l-1 13l46 47
l278 -252z" />
    <glyph glyph-name="oacute" unicode="&#xf3;" horiz-adv-x="1169" 
d="M582.5 34q180.5 0 298 121.5t117.5 325.5t-116 323t-298 119t-297.5 -119t-115.5 -323t115.5 -325.5t296 -121.5zM582.5 -24q-206.5 0 -341.5 136t-135 368t136 366.5t343 134.5t343.5 -134t136.5 -366t-138 -368.5t-344.5 -136.5zM467 1054l-24 33l278 252l46 -47
l-4 -13z" />
    <glyph glyph-name="ocircumflex" unicode="&#xf4;" horiz-adv-x="1169" 
d="M582.5 34q180.5 0 298 121.5t117.5 325.5t-116 323t-298 119t-297.5 -119t-115.5 -323t115.5 -325.5t296 -121.5zM582.5 -24q-206.5 0 -341.5 136t-135 368t136 366.5t343 134.5t343.5 -134t136.5 -366t-138 -368.5t-344.5 -136.5zM391 1058l-30 29l211 242h29l214 -242
l-29 -29l-201 204z" />
    <glyph glyph-name="otilde" unicode="&#xf5;" horiz-adv-x="1169" 
d="M582.5 34q180.5 0 298 121.5t117.5 325.5t-116.5 323t-298 119t-297 -119t-115.5 -323t115.5 -325.5t296 -121.5zM582.5 -24q-206.5 0 -341.5 136t-135 367.5t136 366.5t343 135t343.5 -134t136.5 -366t-138 -368.5t-344.5 -136.5zM444 1277q55 0 149 -40t132 -40
t62.5 22.5t24.5 65.5l2 3l46 -9q0 -63 -36 -100.5t-89 -37.5t-146.5 40t-134 40t-65 -23t-24.5 -64l-2 -4l-46 9q0 61 36 99.5t91 38.5z" />
    <glyph glyph-name="odieresis" unicode="&#xf6;" horiz-adv-x="1169" 
d="M582.5 34q180.5 0 298 121.5t117.5 325.5t-116.5 323t-298 119t-297 -119t-115.5 -323t115.5 -325.5t296 -121.5zM582.5 -24q-206.5 0 -341.5 136t-135 367.5t136 366.5t343 135t343.5 -134t136.5 -366t-138 -368.5t-344.5 -136.5zM748 1184q-21 0 -37.5 16t-16.5 37
t16 36t37.5 15t37.5 -14.5t16 -36t-16 -37.5t-37 -16zM429 1184q-21 0 -36 16t-15 37t15 36t36 15t37 -14.5t16 -36t-16 -37.5t-37 -16z" />
    <glyph glyph-name="divide" unicode="&#xf7;" horiz-adv-x="966" 
d="M484 212q-24 0 -40 15t-16 37t16 38t40 16t39 -16t15 -38t-15 -37t-39 -15zM143 521v54h680v-54h-680zM484 765q-24 0 -40 16t-16 38t16 37t40 15t39 -15t15 -37t-15 -38t-39 -16z" />
    <glyph glyph-name="oslash" unicode="&#xf8;" horiz-adv-x="1172" 
d="M597.5 34q168.5 0 285.5 121.5t117 321t-108 318.5l-575 -667q112 -94 280.5 -94zM173 487.5q0 -197.5 108 -323.5l574 668q-112 91 -281.5 91t-285 -119t-115.5 -316.5zM1067 477q0 -228 -138 -364.5t-331.5 -136.5t-320.5 104l-91 -104h-61v7l113 132
q-130 143 -130 369.5t136 361.5t329.5 135t322.5 -102l89 104h63v-7l-115 -133q134 -138 134 -366z" />
    <glyph glyph-name="ugrave" unicode="&#xf9;" horiz-adv-x="1096" 
d="M858 961h65v-961h-54l-9 160q-47 -82 -134 -131t-207 -49q-166 0 -261.5 98.5t-95.5 301.5v581h63v-572q0 -179 83 -265q82 -86 208 -86.5t212.5 56.5t129.5 157v710zM657 1054l-298 225l-2 13l47 47l277 -252z" />
    <glyph glyph-name="uacute" unicode="&#xfa;" horiz-adv-x="1096" 
d="M858 961h65v-961h-54l-9 160q-47 -82 -134 -131t-207 -49q-166 0 -261.5 98.5t-95.5 301.5v581h63v-572q0 -179 83 -265q82 -86 208 -86.5t212.5 56.5t129.5 157v710zM724 1279l-296 -225l-24 33l277 252l47 -47z" />
    <glyph glyph-name="ucircumflex" unicode="&#xfb;" horiz-adv-x="1096" 
d="M858 961h65v-961h-54l-9 160q-47 -82 -134 -131t-207 -49q-166 0 -261.5 98.5t-95.5 301.5v581h63v-572q0 -179 83 -265q82 -86 208 -86.5t212.5 56.5t129.5 157v710zM546 1262l-194 -204l-30 29l210 242h30l214 -242l-29 -29z" />
    <glyph glyph-name="udieresis" unicode="&#xfc;" horiz-adv-x="1096" 
d="M858 961h65v-961h-54l-9 160q-47 -82 -134 -131t-207 -49q-166 0 -261.5 98.5t-95.5 301.5v581h63v-572q0 -179 83 -265.5t208.5 -86.5t212 57t129.5 157v710zM708 1184q-21 0 -37 16t-16 37t16 36t37 15t37 -14.5t16 -36t-16 -37.5t-37 -16zM390 1184q-21 0 -36 16
t-15 37t15 36t36 15t37 -14.5t16 -36t-16 -37.5t-37 -16z" />
    <glyph glyph-name="yacute" unicode="&#xfd;" horiz-adv-x="979" 
d="M201 -313q-24 0 -99 11v56l4 2q48 -11 88 -11q104 0 162.5 58.5t121.5 211.5l-430 942l2 4h69l391 -872l358 872h63l2 -4l-404 -970q-67 -164 -134 -232t-194 -68zM685 1279l-296 -225l-24 33l277 252l47 -47z" />
    <glyph glyph-name="thorn" unicode="&#xfe;" horiz-adv-x="1122" 
d="M540 37q186 0 297 120t111 328.5t-102.5 323t-260.5 114.5q-117 0 -206.5 -55.5t-140.5 -154.5v-575q116 -101 302 -101zM598 981q184 0 300.5 -128.5t116.5 -363t-130.5 -372t-329.5 -137.5t-317 91v-376h-65v1627h65v-525q114 184 360 184z" />
    <glyph glyph-name="ydieresis" unicode="&#xff;" horiz-adv-x="979" 
d="M201 -313q-24 0 -99 11v56l4 2q48 -11 88 -11q104 0 162.5 58.5t121.5 211.5l-430 942l2 4h69l391 -872l358 872h63l2 -4l-404 -970q-67 -164 -134 -232t-194 -68zM669 1184q-21 0 -37 16t-16 37t16 36t37 15t37 -14.5t16 -36t-16 -37.5t-37 -16zM351 1184q-21 0 -36 16
t-15 37t15 36t36 15t37 -14.5t16 -36t-16 -37.5t-37 -16z" />
    <glyph glyph-name="Amacron" unicode="&#x100;" horiz-adv-x="1165" 
d="M296 464h572l-278 636l-13 34zM1069 0l-179 410h-616l-172 -410h-65l533 1255h18l548 -1255h-67zM815 1458v-56h-480v56h480z" />
    <glyph glyph-name="amacron" unicode="&#x101;" horiz-adv-x="1029" 
d="M401.5 35q110.5 0 208 55t159.5 159v177q-115 54 -275.5 54t-251.5 -58.5t-91 -168t70 -164t180.5 -54.5zM894 -9q-120 0 -121 152v38q-134 -201 -388 -201q-130 0 -215.5 67.5t-85.5 204.5t109.5 209.5t283 72.5t292.5 -52v116q0 162 -90.5 244.5t-250.5 82.5t-255 -69
l-4 2v54q88 69 272.5 69t287.5 -95t103 -286v-427q0 -65 19.5 -94t64 -29t74.5 28l4 -2v-57q-36 -28 -100 -28zM719 1221v-52h-497v52h497z" />
    <glyph glyph-name="Abreve" unicode="&#x102;" horiz-adv-x="1165" 
d="M296 464h572l-278 636l-13 34zM1069 0l-179 410h-616l-172 -410h-65l533 1255h18l548 -1255h-67zM576 1311q-100 0 -162 58.5t-62 159.5l43 5q7 -78 56.5 -124.5t127.5 -46.5t130 46.5t54 124.5l39 -5q0 -101 -63 -159.5t-163 -58.5z" />
    <glyph glyph-name="abreve" unicode="&#x103;" horiz-adv-x="1029" 
d="M401.5 35q110.5 0 208 55t159.5 159v177q-115 54 -275.5 54t-251.5 -58.5t-91 -168t70 -164t180.5 -54.5zM894 -9q-120 0 -121 152v38q-134 -201 -388 -201q-130 0 -215.5 67.5t-85.5 204.5t109.5 209.5t283 72.5t292.5 -52v116q0 162 -90.5 244.5t-250.5 82.5t-255 -69
l-4 2v54q88 69 272.5 69t287.5 -95t103 -286v-427q0 -65 19.5 -94t64 -29t74.5 28l4 -2v-57q-36 -28 -100 -28zM470 1076q-100 0 -162 63.5t-62 171.5l44 5l2 -2q4 -84 54.5 -134t126.5 -50t126.5 49.5t52.5 133.5l1 3l43 -5q0 -108 -63 -171.5t-163 -63.5z" />
    <glyph glyph-name="Aogonek" unicode="&#x104;" horiz-adv-x="1165" 
d="M296 464h572l-278 636l-13 34zM938 -253q0 -102 116 -103q34 0 56 8l5 -4v-43q-32 -13 -94 -13t-105 38.5t-43 105.5q0 143 194 268l-177 406h-616l-172 -410h-65l533 1255h18l548 -1255h-10q-188 -125 -188 -253z" />
    <glyph glyph-name="aogonek" unicode="&#x105;" horiz-adv-x="1029" 
d="M401.5 35q110.5 0 208 55t159.5 159v177q-115 54 -275.5 54t-251.5 -58.5t-91 -168t70 -164t180.5 -54.5zM776 -251q0 -102 116 -103q34 0 56 8l5 -4v-43q-32 -13 -94 -13t-105 38t-43 105q0 136 172 254q-110 9 -110 152v38q-134 -201 -388 -201q-130 0 -215.5 67.5
t-85.5 204.5t109.5 209.5t283 72.5t292.5 -52v116q0 162 -90.5 244.5t-250.5 82.5t-255 -69l-4 2v54q88 69 272.5 69t287.5 -95t103 -286v-427q0 -65 19.5 -94t64.5 -29t74 28l4 -2v-57q-15 -11 -30 -17q-188 -125 -188 -253z" />
    <glyph glyph-name="Cacute" unicode="&#x106;" horiz-adv-x="1206" 
d="M114 608q0 284 178.5 461t467.5 177q205 0 368 -81v-61l-5 -2q-153 86 -358 86q-264 0 -425 -159.5t-161 -419t155.5 -415t426.5 -157.5q190 0 362 91l5 -1v-58q-171 -91 -374 -91q-294 2 -467 174t-173 456zM555 1307l-17 37l328 196l30 -51l-6 -13z" />
    <glyph glyph-name="cacute" unicode="&#x107;" horiz-adv-x="936" 
d="M600 -20q-222 0 -358 137.5t-136 362.5t139.5 364t355.5 139q145 0 250 -43v-54l-4 -3q-104 43 -240 42q-192 0 -314 -122t-122 -321t117.5 -321t316.5 -124q136 0 248 65l5 -3v-56q-113 -63 -258 -63zM447 1058l-24 33l277 251l47 -46l-4 -13z" />
    <glyph glyph-name="Ccircumflex" unicode="&#x108;" horiz-adv-x="1206" 
d="M114 608q0 284 178.5 461t467.5 177q205 0 368 -81v-61l-5 -2q-153 86 -358 86q-264 0 -425 -159.5t-161 -419t155.5 -415t426.5 -157.5q190 0 362 91l5 -1v-58q-171 -91 -374 -91q-294 2 -467 174t-173 456zM503 1303l-26 34l221 203h30l227 -203l-26 -34l-218 175z" />
    <glyph glyph-name="ccircumflex" unicode="&#x109;" horiz-adv-x="936" 
d="M600 -20q-222 0 -358 137.5t-136 362.5t139.5 364t355.5 139q145 0 250 -43v-54l-4 -3q-104 43 -240 42q-192 0 -314 -122t-122 -321t117.5 -321t316.5 -124q136 0 248 65l5 -3v-56q-113 -63 -258 -63zM371 1061l-30 30l210 242h30l214 -242l-30 -30l-201 205z" />
    <glyph glyph-name="Cdotaccent" unicode="&#x10a;" horiz-adv-x="1206" 
d="M114 608q0 284 178.5 461t467.5 177q205 0 368 -81v-61l-5 -2q-153 86 -358 86q-264 0 -425 -159.5t-161 -419t155.5 -415t426.5 -157.5q190 0 362 91l5 -1v-58q-171 -91 -374 -91q-294 2 -467 174t-173 456zM714.5 1381q-20.5 0 -36 15t-15.5 36.5t15.5 37.5t36 16
t36.5 -16t16 -37t-16 -36.5t-36.5 -15.5z" />
    <glyph glyph-name="cdotaccent" unicode="&#x10b;" horiz-adv-x="936" 
d="M600 -20q-222 0 -358 137.5t-136 362.5t139.5 364t355.5 139q145 0 250 -43v-54l-4 -3q-104 43 -240 42q-192 0 -314 -122t-122 -321t117.5 -321t316.5 -124q136 0 248 65l5 -3v-56q-113 -63 -258 -63zM566 1188q-22 0 -38 16t-16 38t17 38t38 16t37 -16t16 -38t-16 -38
t-38 -16z" />
    <glyph glyph-name="Ccaron" unicode="&#x10c;" horiz-adv-x="1206" 
d="M114 608q0 284 178.5 461t467.5 177q205 0 368 -81v-61l-5 -2q-153 86 -358 86q-264 0 -425 -159.5t-161 -419t155.5 -415t426.5 -157.5q190 0 362 91l5 -1v-58q-171 -91 -374 -91q-294 2 -467 174t-173 456zM704 1305l-227 203l26 32l218 -175l208 175l26 -32l-221 -203
h-30z" />
    <glyph glyph-name="ccaron" unicode="&#x10d;" horiz-adv-x="936" 
d="M600 -20q-222 0 -358 137.5t-136 362.5t139.5 364t355.5 139q145 0 250 -43v-54l-4 -3q-104 43 -240 42q-192 0 -314 -122t-122 -321t117.5 -321t316.5 -124q136 0 248 65l5 -3v-56q-113 -63 -258 -63zM555 1063l-214 244l30 26l201 -203l193 203l30 -26l-210 -244h-30z
" />
    <glyph glyph-name="Dcaron" unicode="&#x10e;" horiz-adv-x="1362" 
d="M1182 616.5q0 266.5 -159 417t-472 150.5q-171 0 -283 -11v-1110q80 -7 298 -7q303 2 459.5 148t156.5 412.5zM553 1244q348 0 522 -166t174 -460t-177.5 -457t-512.5 -163q-257 0 -354 8v1223q179 15 348 15zM626 1305h-30l-227 203l26 32l218 -175l208 175l26 -32z" />
    <glyph glyph-name="dcaron" unicode="&#x10f;" horiz-adv-x="1137" 
d="M544 37q212 0 337 207v571q-114 108 -292.5 108t-297 -126.5t-118.5 -331t104.5 -316.5t266.5 -112zM881 1322h65v-1322h-54l-9 169q-125 -190 -351 -189q-188 0 -307 125.5t-119 357t135 375t327 143.5t313 -97v438zM1164 1329l11 -13l-36 -352h-41l17 365h49z" />
    <glyph glyph-name="Dcroat" unicode="&#x110;" horiz-adv-x="1368" 
d="M1188 616.5q0 266.5 -159.5 417t-471.5 150.5q-171 0 -283 -11v-534h218v-51h-218v-525q80 -7 298 -7q303 2 459.5 148t156.5 412.5zM559 1244q348 0 522 -166t174 -460t-178 -457t-513 -163q-257 0 -354 8v582h-169v51h169v590q180 15 349 15z" />
    <glyph glyph-name="dcroat" unicode="&#x111;" horiz-adv-x="1118" 
d="M544 37q212 0 337 207v571q-114 108 -292.5 108t-297 -126.5t-118.5 -330.5t104.5 -316.5t266.5 -112.5zM1121 1162v-50h-175v-1112h-54l-9 169q-125 -190 -351 -189q-188 0 -307 126q-119 124 -119 356t135 375.5t327 143.5t313 -97v228h-201v50h201v160h65v-160h175z
" />
    <glyph glyph-name="Emacron" unicode="&#x112;" horiz-adv-x="1010" 
d="M268 60h648v-60h-711v1229h683v-60h-620v-501h585v-59h-585v-549zM801 1458v-56h-481v56h481z" />
    <glyph glyph-name="emacron" unicode="&#x113;" horiz-adv-x="1059" 
d="M556.5 925q-156.5 0 -261.5 -103t-120 -284h726q-6 179 -97 283t-247.5 104zM554 981q193 0 301.5 -124.5t108.5 -340.5v-34h-791q0 -216 122 -332t301 -116t316 83l4 -2v-55q-136 -84 -333 -84t-337 130t-140 365.5t127.5 372.5t320.5 137zM793 1221v-52h-497v52h497z
" />
    <glyph glyph-name="Ebreve" unicode="&#x114;" horiz-adv-x="1010" 
d="M268 60h648v-60h-711v1229h683v-60h-620v-501h585v-59h-585v-549zM561 1311q-100 0 -162 58.5t-62 159.5l43 5q7 -78 56.5 -124.5t127.5 -46.5t130.5 46.5t53.5 124.5l40 -5q0 -101 -63.5 -159.5t-163.5 -58.5z" />
    <glyph glyph-name="ebreve" unicode="&#x115;" horiz-adv-x="1059" 
d="M556.5 925q-156.5 0 -261.5 -103t-120 -284h726q-6 179 -97 283t-247.5 104zM554 981q193 0 301.5 -124.5t108.5 -340.5v-34h-791q0 -216 122 -332t301 -116t316 83l4 -2v-55q-136 -84 -333 -84t-337 130t-140 365.5t127.5 372.5t320.5 137zM545 1076q-100 0 -162.5 63.5
t-62.5 171.5l45 5l2 -2q4 -84 54 -134t126.5 -50t126.5 49.5t52 133.5l2 3l43 -5q0 -108 -63 -171.5t-163 -63.5z" />
    <glyph glyph-name="Edotaccent" unicode="&#x116;" horiz-adv-x="1010" 
d="M268 60h648v-60h-711v1229h683v-60h-620v-501h585v-59h-585v-549zM560.5 1381q-20.5 0 -36.5 15q-16 14 -16 36t16 38t36.5 16t36.5 -16t16 -37t-16 -36.5t-36.5 -15.5z" />
    <glyph glyph-name="edotaccent" unicode="&#x117;" horiz-adv-x="1059" 
d="M556.5 925q-156.5 0 -261.5 -103t-120 -284h726q-6 179 -97 283t-247.5 104zM554 981q193 0 301.5 -124.5t108.5 -340.5v-34h-791q0 -216 122 -332t301 -116t316 83l4 -2v-55q-136 -84 -333 -84t-337 130t-140 365.5t127.5 372.5t320.5 137zM547 1184q-21 0 -38 17
t-17 38t16.5 37t38 16t37.5 -16t16 -38t-16 -38t-37 -16z" />
    <glyph glyph-name="Eogonek" unicode="&#x118;" horiz-adv-x="1010" 
d="M728 -253q0 -102 115 -103q34 0 56 8l6 -4v-43q-32 -13 -94.5 -13t-105 38.5t-42.5 105.5q0 143 188 264h-646v1229h683v-60h-620v-501h585v-59h-585v-549h648v-60q-188 -125 -188 -253z" />
    <glyph glyph-name="eogonek" unicode="&#x119;" horiz-adv-x="1059" 
d="M556.5 925q-156.5 0 -261.5 -103t-120 -284h726q-6 179 -97 283t-247.5 104zM554 981q193 0 301.5 -124.5t108.5 -340.5v-34h-791q0 -216 122 -332t301 -116t316 83l4 -2v-55q-62 -39 -125 -58q-188 -125 -188 -253q0 -102 116 -103q34 0 56 8l5 -4v-43q-32 -13 -94 -13
t-105 38t-43 105q0 132 158 244q-48 -6 -96 -5q-214 0 -354 130t-140 365.5t127.5 372.5t320.5 137z" />
    <glyph glyph-name="Ecaron" unicode="&#x11a;" horiz-adv-x="1010" 
d="M268 60h648v-60h-711v1229h683v-60h-620v-501h585v-59h-585v-549zM579 1305h-30l-227 203l26 32l218 -175l209 175l26 -32z" />
    <glyph glyph-name="ecaron" unicode="&#x11b;" horiz-adv-x="1059" 
d="M556.5 925q-156.5 0 -261.5 -103t-120 -284h726q-6 179 -97 283t-247.5 104zM554 981q193 0 301.5 -124.5t108.5 -340.5v-34h-791q0 -216 122 -332t301 -116t316 83l4 -2v-55q-136 -84 -333 -84t-337 130t-140 365.5t127.5 372.5t320.5 137zM564 1059h-30l-214 244l30 26
l201 -203l194 203l30 -26z" />
    <glyph glyph-name="Gcircumflex" unicode="&#x11c;" horiz-adv-x="1310" 
d="M1190 573v-472q-194 -119 -475 -119t-441 171t-160 454t176.5 461t465.5 178q214 0 378 -77v-61l-4 -2q-93 45 -176 62.5t-200 17.5q-261 0 -417 -160t-156 -417t141.5 -412.5t391.5 -155.5t416 99v378h-382v55h442zM721 1478l-209 -175l-26 34l221 203h30l227 -203
l-26 -34z" />
    <glyph glyph-name="gcircumflex" unicode="&#x11d;" horiz-adv-x="1012" 
d="M881 -61.5q0 100.5 -81 140.5t-220 54t-202 27q-225 -97 -225 -238q0 -184 361 -185q164 0 265.5 50.5t101.5 151zM778 663.5q0 114.5 -79 180t-204 65.5t-204 -66.5t-79 -179t78.5 -176t204 -65t204.5 62.5t79 178.5zM942 961v-52l-261 1q160 -80 161 -251
q0 -132 -99 -211t-250 -79q-102 0 -182 37q-61 -32 -61.5 -85.5t57.5 -79t253.5 -46t288.5 -72.5t93 -181.5t-119 -194t-315 -64.5q-415 0 -415 231q0 84 63.5 151t156.5 110q-65 19 -95 48.5t-30 79.5q0 74 82 125q-121 82 -121 226.5t97 225.5t247 81h449zM478 1266
l-193 -205l-30 30l210 242h30l214 -242l-29 -30z" />
    <glyph glyph-name="Gbreve" unicode="&#x11e;" horiz-adv-x="1310" 
d="M1190 573v-472q-194 -119 -475 -119.5t-441 171t-160 454.5t176.5 461t465.5 178q214 0 378 -77v-61l-4 -2q-93 45 -176 62.5t-200 17.5q-261 0 -417 -160t-156 -417t141.5 -412.5t392 -155.5t415.5 99v378h-382v55h442zM725 1311q-100 0 -162 58.5t-62 159.5l43 5
q7 -78 56.5 -124.5t127.5 -46.5t130 46.5t54 124.5l39 -5q0 -101 -63 -159.5t-163 -58.5z" />
    <glyph glyph-name="gbreve" unicode="&#x11f;" horiz-adv-x="1012" 
d="M881 -61.5q0 100.5 -81 140.5t-220 54t-202 27q-225 -97 -225 -238q0 -184 361 -185q164 0 265.5 50.5t101.5 151zM778 663.5q0 114.5 -79 180t-204 65.5t-204 -66.5t-79 -179t78.5 -176t204 -65t204.5 62.5t79 178.5zM942 961v-52l-261 1q160 -80 161 -251
q0 -132 -99 -211t-250 -79q-102 0 -182 37q-61 -32 -61.5 -85.5t57.5 -79t253.5 -46t288.5 -72.5t93 -181.5t-119 -194t-315 -64.5q-415 0 -415 231q0 84 63.5 151t156.5 110q-65 19 -95 48.5t-30 79.5q0 74 82 125q-121 82 -121 226.5t97 225.5t247 81h449zM479 1080
q-100 0 -162 63t-62 171l45 6l2 -2q4 -84 54 -134t126 -50t126.5 49.5t52.5 132.5l2 4l43 -6q0 -108 -63.5 -171t-163.5 -63z" />
    <glyph glyph-name="Gdotaccent" unicode="&#x120;" horiz-adv-x="1310" 
d="M1190 573v-472q-194 -119 -475 -119t-441 171t-160 454t176.5 461t465.5 178q214 0 378 -77v-61l-4 -2q-93 45 -176 62.5t-200 17.5q-261 0 -417 -160t-156 -417t141.5 -412.5t391.5 -155.5t416 99v378h-382v55h442zM724.5 1381q-20.5 0 -36.5 15q-16 14 -16 36t16 38
t36.5 16t36 -16t15.5 -37t-15.5 -36.5t-36 -15.5z" />
    <glyph glyph-name="gdotaccent" unicode="&#x121;" horiz-adv-x="1012" 
d="M881 -61.5q0 100.5 -81 140.5t-220 54t-202 27q-225 -97 -225 -238q0 -184 361 -185q164 0 265.5 50.5t101.5 151zM778 663.5q0 114.5 -79 180t-204 65.5t-204 -66.5t-79 -179t78.5 -176t204 -65t204.5 62.5t79 178.5zM942 961v-52l-261 1q160 -80 161 -251
q0 -132 -99 -211t-250 -79q-102 0 -182 37q-61 -32 -61.5 -85.5t57.5 -79t253.5 -46t288.5 -72.5t93 -181.5t-119 -194t-315 -64.5q-415 0 -415 231q0 84 63.5 151t156.5 110q-65 19 -95 48.5t-30 79.5q0 74 82 125q-121 82 -121 226.5t97 225.5t247 81h449zM480.5 1188
q-22.5 0 -38.5 16.5t-16 38t17 37.5t38 16t37 -16t16 -38t-15.5 -38t-38 -16z" />
    <glyph glyph-name="Gcommaaccent" unicode="&#x122;" horiz-adv-x="1310" 
d="M694 -151l-1 54l61 6l7 -10q0 -151 -61 -296h-43q37 119 37 246zM1190 573v-472q-194 -119 -475 -119.5t-441 171t-160 454.5t176.5 461t465.5 178q214 0 378 -77v-61l-4 -2q-93 45 -176 62.5t-200 17.5q-261 0 -417 -160t-156 -417t141.5 -412.5t392 -155.5t415.5 99
v378h-382v55h442z" />
    <glyph glyph-name="gcommaaccent" unicode="&#x123;" horiz-adv-x="1012" 
d="M881 -61.5q0 100.5 -81 140.5t-220 54t-202 27q-225 -97 -225 -238q0 -184 361 -185q164 0 265.5 50.5t101.5 151zM778 663.5q0 114.5 -79 180t-204 65.5t-204 -66.5t-79 -179t78.5 -176t204 -65t204.5 62.5t79 178.5zM942 961v-52l-261 1q160 -80 161 -251
q0 -132 -99 -211t-250 -79q-102 0 -182 37q-61 -32 -61.5 -85.5t57.5 -79t253.5 -46t288.5 -72.5t93 -181.5t-119 -194t-315 -64.5q-415 0 -415 231q0 84 63.5 151t156.5 110q-65 19 -95 48.5t-30 79.5q0 74 82 125q-121 82 -121 226.5t97 225.5t247 81h449zM527 1115l2 -54
l-62 -5l-7 9q0 151 61 296h43q-37 -119 -37 -246z" />
    <glyph glyph-name="Hcircumflex" unicode="&#x124;" horiz-adv-x="1379" 
d="M1110 1229h65v-1229h-65v600h-842v-600h-63v1229h63v-572h842v572zM685 1478l-208 -175l-26 34l221 203h30l227 -203l-26 -34z" />
    <glyph glyph-name="hcircumflex" unicode="&#x125;" horiz-adv-x="1124" 
d="M583 981q173 0 277 -103t104 -319v-559h-63v547q0 193 -90 283q-89 90 -221 90q-259 0 -352 -235v-685h-65v1322h65v-540q45 89 135.5 144t209.5 55zM423 1363l-218 175l-209 -175l-26 33l222 203h30l227 -203z" />
    <glyph glyph-name="Hbar" unicode="&#x126;" horiz-adv-x="1396" 
d="M1119 657v248h-842v-248h842zM1329 957v-52h-147v-905h-63v600h-842v-600h-65v905h-145v52h145v272h65v-272h842v272h63v-272h147z" />
    <glyph glyph-name="hbar" unicode="&#x127;" horiz-adv-x="1124" 
d="M583 981q173 0 277 -103t104 -319v-559h-63v547q0 193 -90 283q-89 90 -221 90q-259 0 -352 -235v-685h-65v1112h-164v50h164v160h65v-160h222v-50h-222v-330q45 89 135.5 144t209.5 55z" />
    <glyph glyph-name="Itilde" unicode="&#x128;" horiz-adv-x="472" 
d="M205 0v1229h63v-1229h-63zM107 1489q51 0 135 -39t119.5 -39t59.5 23.5t24 66.5l2 1l46 -11q-2 -63 -38 -100t-84.5 -37t-132 40t-121.5 40t-62.5 -23.5t-24.5 -66.5l-4 -2l-46 12q2 60 39 97.5t88 37.5z" />
    <glyph glyph-name="itilde" unicode="&#x129;" horiz-adv-x="411" 
d="M173 0v961h65v-961h-65zM64 1277q55 0 149 -40t132 -40t62.5 22.5t24.5 65.5l2 3l46 -9q0 -63 -36 -100.5t-89 -37.5t-146.5 40t-134 40t-65 -23t-24.5 -64l-2 -4l-46 9q0 61 36 99.5t91 38.5z" />
    <glyph glyph-name="Imacron" unicode="&#x12a;" horiz-adv-x="472" 
d="M205 0v1229h63v-1229h-63zM43 1402v58h383v-58h-383z" />
    <glyph glyph-name="imacron" unicode="&#x12b;" horiz-adv-x="411" 
d="M173 0v961h65v-961h-65zM2 1169v52h409v-52h-409z" />
    <glyph glyph-name="Ibreve" unicode="&#x12c;" horiz-adv-x="472" 
d="M205 0v1229h63v-1229h-63zM235 1311q-100 0 -162 58.5t-62 159.5l43 5q7 -78 56.5 -124.5t127.5 -46.5t130.5 46.5t54.5 124.5l39 -5q0 -101 -63.5 -159.5t-163.5 -58.5z" />
    <glyph glyph-name="ibreve" unicode="&#x12d;" horiz-adv-x="411" 
d="M173 0v961h65v-961h-65zM206 1076q-100 0 -162.5 63.5t-62.5 171.5l45 5l2 -2q4 -84 54 -134t126.5 -50t126.5 49.5t52 133.5l2 3l43 -5q0 -108 -63 -171.5t-163 -63.5z" />
    <glyph glyph-name="Iogonek" unicode="&#x12e;" horiz-adv-x="472" 
d="M161 -406q-62 0 -105 38t-43 105q0 143 192 269v1223h63v-1229h-5q-184 -125 -185 -251q0 -102 116 -103q34 0 55 8l6 -4v-43q-32 -13 -94 -13z" />
    <glyph glyph-name="iogonek" unicode="&#x12f;" horiz-adv-x="411" 
d="M173 961h65v-961h-3q-188 -125 -188 -253q0 -102 115 -103q34 0 56 8l5 -4v-43q-32 -13 -94 -13t-105 38.5t-43 105.5q0 143 192 268v957zM208 1292q21 0 37 -16t16 -38t-16 -38t-37 -16t-38 17t-17 38t17 37t38 16z" />
    <glyph glyph-name="Idotaccent" unicode="&#x130;" horiz-adv-x="472" 
d="M205 0v1229h63v-1229h-63zM234.5 1381q-20.5 0 -36.5 15q-16 14 -16 36t16 38t36.5 16t36.5 -16t16 -37t-16 -36.5t-36.5 -15.5z" />
    <glyph glyph-name="dotlessi" unicode="&#x131;" horiz-adv-x="411" 
d="M173 0v961h65v-961h-65z" />
    <glyph glyph-name="IJ" unicode="&#x132;" horiz-adv-x="1105" 
d="M586 -6q-39 0 -87 6v56l4 2q30 -6 78 -6q136 0 204 83t68 230v864h63v-864q0 -179 -83 -275t-247 -96zM205 0v1229h63v-1229h-63z" />
    <glyph glyph-name="ij" unicode="&#x133;" horiz-adv-x="847" 
d="M376 -313q-86 0 -164 26v58l4 2q78 -26 158 -26q128 0 182 80q53 80 53 262v872h63v-883q0 -207 -72 -299t-224 -92zM173 19v942h65v-942h-65zM641 1292q21 0 39 -16t16 -38q0 -22 -17 -38t-38 -16t-37 16t-16 38t16 38t37 16zM207 1184q-22 0 -39 16q-16 16 -16 38
t16 38t38 16t39 -16q16 -16 16 -38t-16 -38t-38 -16z" />
    <glyph glyph-name="Jcircumflex" unicode="&#x134;" horiz-adv-x="633" 
d="M114 -6q-41 0 -88 6v56l4 2q30 -6 78 -6q136 0 204 83t68 230v864h63v-864q0 -179 -82.5 -275t-246.5 -96zM192 1303l-26 34l221 203h30l227 -203l-26 -34l-218 175z" />
    <glyph glyph-name="jcircumflex" unicode="&#x135;" horiz-adv-x="443" 
d="M-2 -313q-34 0 -69 8v56l4 1q26 -6 56 -5q216 0 216 268v946h63v-957q0 -317 -270 -317zM41 1058l-30 29l211 242h29l214 -242l-29 -29l-201 204z" />
    <glyph glyph-name="Kcommaaccent" unicode="&#x136;" horiz-adv-x="1092" 
d="M536 -151l-2 54l62 6l7 -10q0 -151 -61 -296h-43q37 119 37 246zM268 0h-63v1229h63v-587l698 587h80l2 -4l-717 -598l753 -623l-2 -4h-86l-728 601v-601z" />
    <glyph glyph-name="kcommaaccent" unicode="&#x137;" horiz-adv-x="917" 
d="M458 -151l-2 54l62 6l7 -10q0 -151 -61 -296h-43q37 119 37 246zM238 0h-65v1322h65v-806l544 445h80l2 -4l-561 -458l583 -495l-2 -4h-83l-563 475v-475z" />
    <glyph glyph-name="kgreenlandic" unicode="&#x138;" horiz-adv-x="917" 
d="M238 0h-65v961h65v-445l544 445h80l2 -4l-561 -458l583 -495l-2 -4h-85l-561 475v-475z" />
    <glyph glyph-name="Lacute" unicode="&#x139;" horiz-adv-x="925" 
d="M268 56h631v-56h-694v1229h63v-1173zM432 1489l-6 -13l-335 -169l-17 37l328 196z" />
    <glyph glyph-name="lacute" unicode="&#x13a;" horiz-adv-x="418" 
d="M181 0v1322h63v-1322h-63zM101 1415l-25 33l278 252l46 -47l-3 -13z" />
    <glyph glyph-name="Lcommaaccent" unicode="&#x13b;" horiz-adv-x="925" 
d="M534 -151l-2 54l62 6l7 -10q0 -151 -61 -296h-43q37 119 37 246zM268 56h631v-56h-694v1229h63v-1173z" />
    <glyph glyph-name="lcommaaccent" unicode="&#x13c;" horiz-adv-x="418" 
d="M179 -151l-2 54l61 6l8 -10q0 -151 -62 -296h-43q37 119 38 246zM181 0v1322h63v-1322h-63z" />
    <glyph glyph-name="Lcaron" unicode="&#x13d;" horiz-adv-x="929" 
d="M268 56h631v-56h-694v1229h63v-1173zM709 1259l-35 -352h-41l15 365h50z" />
    <glyph glyph-name="lcaron" unicode="&#x13e;" horiz-adv-x="435" 
d="M181 0v1322h63v-1322h-63zM397 964l16 365h51l11 -13l-36 -352h-42z" />
    <glyph glyph-name="Ldot" unicode="&#x13f;" horiz-adv-x="932" 
d="M694.5 631q-22.5 0 -36.5 14q-14 13 -14 35t14 36t36.5 14t36.5 -14t14 -35t-14 -35.5t-36.5 -14.5zM268 56h631v-56h-694v1229h63v-1173z" />
    <glyph glyph-name="ldot" unicode="&#x140;" horiz-adv-x="458" 
d="M444 624q-23 0 -37 14t-14 34.5t14 35t37 14.5t37 -14.5t14 -35t-14 -34.5t-37 -14zM181 0v1322h63v-1322h-63z" />
    <glyph glyph-name="Lslash" unicode="&#x141;" horiz-adv-x="930" 
d="M274 56h631v-56h-695v566l-141 -88l-6 4v56l147 89v602h64v-562l145 89h5v-60l-150 -93v-547z" />
    <glyph glyph-name="lslash" unicode="&#x142;" horiz-adv-x="504" 
d="M434 804v-56l-149 -91v-657h-63v618l-144 -87h-5v55l149 92v644h63v-605l143 87h6z" />
    <glyph glyph-name="Nacute" unicode="&#x143;" horiz-adv-x="1374" 
d="M205 0v1240h24l875 -1108h4v1097h61v-1244h-18l-881 1112h-4v-1097h-61zM534 1307l-16 37l327 196l30 -51l-6 -13z" />
    <glyph glyph-name="nacute" unicode="&#x144;" horiz-adv-x="1126" 
d="M588 981q166 0 273 -107t107 -332v-542h-65v531q0 199 -92 294t-221 95t-219 -65.5t-133 -174.5v-680h-65v961h54l9 -183q48 91 140.5 147t211.5 56zM730 1279l-296 -225l-24 33l277 252l47 -47z" />
    <glyph glyph-name="Ncommaaccent" unicode="&#x145;" horiz-adv-x="1374" 
d="M659 -151l-2 54l62 6l7 -10q0 -151 -61 -296h-43q37 119 37 246zM205 0v1240h24l875 -1108h4v1097h61v-1244h-18l-881 1112h-4v-1097h-61z" />
    <glyph glyph-name="ncommaaccent" unicode="&#x146;" horiz-adv-x="1126" 
d="M508 -151l-2 54l62 6l7 -10q0 -151 -61 -296h-43q37 119 37 246zM588 981q166 0 273 -107t107 -332v-542h-65v531q0 199 -92 294t-221 95t-219 -65.5t-133 -174.5v-680h-65v961h54l9 -183q48 91 140.5 147t211.5 56z" />
    <glyph glyph-name="Ncaron" unicode="&#x147;" horiz-adv-x="1374" 
d="M205 0v1240h24l875 -1108h4v1097h61v-1244h-18l-881 1112h-4v-1097h-61zM683 1305l-227 203l26 32l218 -175l209 175l26 -32l-222 -203h-30z" />
    <glyph glyph-name="ncaron" unicode="&#x148;" horiz-adv-x="1126" 
d="M588 981q166 0 273 -107t107 -332v-542h-65v531q0 199 -92 294t-221 95t-219 -65.5t-133 -174.5v-680h-65v961h54l9 -183q48 91 140.5 147t211.5 56zM572 1059h-30l-214 244l29 26l202 -203l193 203l30 -26z" />
    <glyph glyph-name="napostrophe" unicode="&#x149;" horiz-adv-x="1232" 
d="M691 981q166 0 273.5 -107t107.5 -332v-542h-63v531q0 199 -93 294t-221.5 95t-219 -65.5t-132.5 -174.5v-680h-64v961h52l10 -185q47 91 139 148t211 57zM76 1169.5q0 85.5 -2 102.5l58 11l9 -11q0 -158 -48 -341h-43q26 153 26 238.5z" />
    <glyph glyph-name="Eng" unicode="&#x14a;" horiz-adv-x="1374" 
d="M1108 1229h61v-1210q0 -181 -83 -277t-244 -96q-48 0 -88 8v54l2 2q34 -6 80 -6q136 0 204 84t68 231v18l-838 1058h-4v-1095h-61v1240h24l875 -1110h4v1099z" />
    <glyph glyph-name="eng" unicode="&#x14b;" horiz-adv-x="1122" 
d="M585 981q171 0 275 -107t104 -328v-565q0 -311 -266 -311q-35 0 -58 4v56l4 2q19 -6 45 -6q110 0 160 65.5t50 197.5v545q0 194 -90 290t-239 96q-110 0 -199.5 -64.5t-132.5 -174.5v-681h-65v961h54l9 -194q47 93 140.5 153.5t208.5 60.5z" />
    <glyph glyph-name="Omacron" unicode="&#x14c;" horiz-adv-x="1474" 
d="M737 30q244 0 400.5 157t156.5 425.5t-156.5 425.5t-400.5 157t-400 -157t-156 -425.5t156 -425.5t400 -157zM738 -28q-269 0 -446.5 172.5t-177.5 467.5t176.5 468t445.5 173t447 -172t178 -466t-177 -468.5t-446 -174.5zM495 1402v56h481v-56h-481z" />
    <glyph glyph-name="omacron" unicode="&#x14d;" horiz-adv-x="1169" 
d="M582.5 34q180.5 0 298 121.5t117.5 325.5t-116 323t-298 119t-297.5 -119t-115.5 -323t115.5 -325.5t296 -121.5zM582.5 -24q-206.5 0 -341.5 136t-135 368t136 366.5t343 134.5t343.5 -134t136.5 -366t-138 -368.5t-344.5 -136.5zM337 1169v52h497v-52h-497z" />
    <glyph glyph-name="Obreve" unicode="&#x14e;" horiz-adv-x="1474" 
d="M737 30q244 0 400.5 157t156.5 425.5t-156.5 425.5t-400.5 157t-400 -157t-156 -425.5t156 -425.5t400 -157zM738 -28q-269 0 -446.5 172.5t-177.5 467.5t176.5 468t445.5 173t447 -172t178 -466t-177 -468.5t-446 -174.5zM736 1311q-100 0 -162 58.5t-62 159.5l43 5
q7 -78 56.5 -124.5t127.5 -46.5t130.5 46.5t53.5 124.5l40 -5q0 -101 -63.5 -159.5t-163.5 -58.5z" />
    <glyph glyph-name="obreve" unicode="&#x14f;" horiz-adv-x="1169" 
d="M582.5 34q180.5 0 298 121.5t117.5 325.5t-116.5 323t-298 119t-297 -119t-115.5 -323t115.5 -325.5t296 -121.5zM582.5 -24q-206.5 0 -341.5 136t-135 367.5t136 366.5t343 135t343.5 -134t136.5 -366t-138 -368.5t-344.5 -136.5zM585 1076q-100 0 -162 63.5t-62 171.5
l45 5l2 -2q4 -84 54 -134t126 -50t126.5 49.5t52.5 133.5l2 3l43 -5q0 -108 -63.5 -171.5t-163.5 -63.5z" />
    <glyph glyph-name="Ohungarumlaut" unicode="&#x150;" horiz-adv-x="1474" 
d="M737 30q244 0 400.5 157t156.5 425.5t-156.5 425.5t-400.5 157t-400 -157t-156 -425.5t156 -425.5t400 -157zM738 -28q-269 0 -446.5 172.5t-177.5 467.5t176.5 468t445.5 173t447 -172t178 -466t-177 -468.5t-446 -174.5zM881 1333l-36 21l129 245l52 -18l2 -13z
M570 1333l-36 19l127 247l54 -18v-13z" />
    <glyph glyph-name="ohungarumlaut" unicode="&#x151;" horiz-adv-x="1169" 
d="M582.5 34q180.5 0 298 121.5t117.5 325.5t-116 323t-298 119t-297.5 -119t-115.5 -323t115.5 -325.5t296 -121.5zM582.5 -24q-206.5 0 -341.5 136t-135 368t136 366.5t343 134.5t343.5 -134t136.5 -366t-138 -368.5t-344.5 -136.5zM713 1056l-33 20l176 270l47 -22l2 -13
zM428 1056l-33 20l175 270l48 -22l2 -13z" />
    <glyph glyph-name="OE" unicode="&#x152;" horiz-adv-x="1712" 
d="M929 611v-544q149 60 236.5 201.5t89.5 342.5h-326zM929 670h324q-11 184 -97.5 313.5t-226.5 185.5v-499zM181 619q0 -271 152.5 -430t390.5 -159q74 0 142 17v1143q-67 17 -142 16q-238 0 -390.5 -158t-152.5 -429zM1620 60v-60h-706q-89 -28 -190 -28
q-261 0 -435.5 175t-174.5 471t174 471t436 175q93 0 183 -26h685v-59h-551q123 -74 196.5 -205t82.5 -304h233v-59h-231q-2 -188 -75.5 -330.5t-202.5 -220.5h576z" />
    <glyph glyph-name="oe" unicode="&#x153;" horiz-adv-x="1871" 
d="M564 34q171 0 281 121t110 325.5t-110 323.5t-281 119t-281 -120t-110 -324t110 -324.5t281 -120.5zM1384 927q-150 0 -248.5 -106t-111.5 -292h689q-4 186 -91.5 292t-237.5 106zM1381 981q184 0 288.5 -126.5t104.5 -346.5v-33h-752q2 -212 116.5 -326.5t286 -114.5
t299.5 83l4 -2v-55q-132 -84 -294 -84t-280.5 79t-164.5 232q-47 -147 -161.5 -229t-267.5 -82q-197 0 -325.5 136t-128.5 365.5t129.5 366.5t324.5 137q151 0 265.5 -81t161.5 -226q47 145 151.5 226t242.5 81z" />
    <glyph glyph-name="Racute" unicode="&#x154;" horiz-adv-x="1037" 
d="M460 575q160 0 264.5 78.5t104.5 224.5t-85 225t-256 79q-71 0 -220 -7v-600h192zM482 523h-214v-523h-63v1229q141 11 279 11q199 0 303.5 -91t104.5 -247.5t-77 -244t-202 -119.5l338 -534l-1 -4h-67l-334 527q-45 -4 -67 -4zM680 1476l-336 -169l-16 37l327 196
l30 -51z" />
    <glyph glyph-name="racute" unicode="&#x155;" horiz-adv-x="672" 
d="M519 981q74 0 123 -24v-58l-3 -2q-48 25 -134 25t-158.5 -57t-108.5 -210v-655h-65v961h54l8 -177q74 197 284 197zM573 1279l-296 -225l-24 33l278 252l46 -47z" />
    <glyph glyph-name="Rcommaaccent" unicode="&#x156;" horiz-adv-x="1037" 
d="M508 -151l-2 54l62 6l7 -10q0 -151 -61 -296h-43q37 119 37 246zM460 575q160 0 264.5 78.5t104.5 224.5t-85 225t-256 79q-71 0 -220 -7v-600h192zM482 523h-214v-523h-63v1229q141 11 279 11q199 0 303.5 -91t104.5 -247.5t-77 -244t-202 -119.5l338 -534l-1 -4h-67
l-334 527q-45 -4 -67 -4z" />
    <glyph glyph-name="rcommaaccent" unicode="&#x157;" horiz-adv-x="672" 
d="M175 -151l-2 54l62 6l7 -10q0 -151 -61 -296h-43q37 119 37 246zM519 981q74 0 123 -24v-58l-3 -2q-48 24 -134 24.5t-158.5 -56.5t-108.5 -210v-655h-65v961h54l8 -177q74 197 284 197z" />
    <glyph glyph-name="Rcaron" unicode="&#x158;" horiz-adv-x="1037" 
d="M460 575q160 0 264.5 78.5t104.5 224.5t-85 225t-256 79q-71 0 -220 -7v-600h192zM482 523h-214v-523h-63v1229q141 11 279 11q199 0 303.5 -91t104.5 -247.5t-77 -244t-202 -119.5l338 -534l-1 -4h-67l-334 527q-45 -4 -67 -4zM523 1305h-30l-227 203l26 32l218 -175
l209 175l26 -32z" />
    <glyph glyph-name="rcaron" unicode="&#x159;" horiz-adv-x="672" 
d="M519 981q74 0 123 -24v-58l-3 -2q-48 25 -134 25t-158.5 -57t-108.5 -210v-655h-65v961h54l8 -177q74 197 284 197zM415 1059h-30l-214 244l30 26l201 -203l194 203l30 -26z" />
    <glyph glyph-name="Sacute" unicode="&#x15a;" horiz-adv-x="947" 
d="M435.5 -28q-191.5 0 -338.5 99v69l5 1q149 -110 350 -109q147 0 235.5 70.5t88.5 192t-79 193t-233 132.5q-249 102 -304 215q-26 53 -26 118q0 145 105 224.5t276 79.5t293 -69v-62l-4 -1q-117 74 -273.5 74t-244 -61.5t-87.5 -170t78.5 -170.5t234.5 -126t243 -146
t87 -229t-107.5 -235.5t-299 -88.5zM331 1313l-16 37l327 195l30 -50l-5 -13z" />
    <glyph glyph-name="sacute" unicode="&#x15b;" horiz-adv-x="871" 
d="M390.5 -22q-184.5 0 -297.5 76v65l4 2q121 -86 284.5 -86t249.5 53t86 151t-65.5 143.5t-221 84.5t-235.5 93t-80 167.5t99 183.5t251.5 70t266.5 -48v-60l-6 -2q-117 52 -251 52t-215 -52t-81 -139.5t70.5 -129.5t226 -81t231 -97.5t75.5 -182.5t-103.5 -193.5
t-288 -69.5zM317 1058l-25 33l278 251l46 -46l-3 -13z" />
    <glyph glyph-name="Scircumflex" unicode="&#x15c;" horiz-adv-x="947" 
d="M435.5 -28q-191.5 0 -338.5 99v69l5 1q149 -110 350 -109q147 0 235.5 70.5t88.5 192t-79 193t-233 132.5q-249 102 -304 215q-26 53 -26 118q0 145 105 224.5t276 79.5t293 -69v-62l-4 -1q-117 74 -273.5 74t-244 -61.5t-87.5 -170t78.5 -170.5t234.5 -126t243 -146
t87 -229t-107.5 -235.5t-299 -88.5zM279 1309l-26 33l222 203h30l227 -203l-26 -33l-218 175z" />
    <glyph glyph-name="scircumflex" unicode="&#x15d;" horiz-adv-x="871" 
d="M390.5 -22q-184.5 0 -297.5 76v65l4 2q121 -86 284.5 -86t249.5 53t86 151t-65.5 143.5t-221 84.5t-235.5 93t-80 167.5t99 183.5t251.5 70t266.5 -48v-60l-6 -2q-117 52 -251 52t-215 -52t-81 -139.5t70.5 -129.5t226 -81t231 -97.5t75.5 -182.5t-103.5 -193.5
t-288 -69.5zM240 1061l-30 30l211 242h30l214 -242l-30 -30l-201 205z" />
    <glyph glyph-name="Scedilla" unicode="&#x15e;" horiz-adv-x="947" 
d="M842 299.5q0 -143.5 -96 -230t-253 -95.5l-48 -84q34 7 80 7.5t86.5 -35t40.5 -113t-55 -119t-130.5 -41.5t-122.5 20v45l4 2q37 -19 99 -19q145 0 145 117q0 99 -104 99q-58 0 -97 -19l-2 4v39l54 95q-201 2 -346 99v69l5 1q149 -110 350 -109q147 0 235.5 70.5
t88.5 192t-79 193t-233 132.5q-249 102 -304 215q-26 53 -26 118q0 145 105 224.5t276 79.5t293 -69v-62l-4 -1q-117 74 -273.5 74t-244 -61.5t-87.5 -170t78.5 -170.5t234.5 -126t243 -146t87 -225.5z" />
    <glyph glyph-name="scedilla" unicode="&#x15f;" horiz-adv-x="871" 
d="M782 246q0 -118 -87.5 -186.5t-238.5 -79.5l-52 -90q34 7 80 7.5t86.5 -35t40.5 -113t-55 -119t-130.5 -41.5t-122.5 20v45l4 2q37 -19 99 -19q145 0 145 117q0 99 -104 99q-58 0 -97 -19l-2 4v39l58 101h-6q-194 0 -307 76v65l4 2q121 -86 284.5 -86t249.5 53t86 151
t-65.5 143.5t-221 84.5t-235.5 93t-80 167.5t99 183.5t251.5 70t266.5 -48v-60l-6 -2q-117 52 -251 52t-215 -52t-81 -139.5t70.5 -129.5t226 -81t231 -98t75.5 -177z" />
    <glyph glyph-name="Scaron" unicode="&#x160;" horiz-adv-x="947" 
d="M435.5 -28q-191.5 0 -338.5 99v69l5 1q149 -110 350 -109q147 0 235.5 70.5t88.5 192t-79 193t-233 132.5q-249 102 -304 215q-26 53 -26 118q0 145 105 224.5t276 79.5t293 -69v-62l-4 -1q-117 74 -273.5 74t-244 -61.5t-87.5 -170t78.5 -170.5t234.5 -126t243 -146
t87 -229t-107.5 -235.5t-299 -88.5zM480 1311l-227 203l26 31l218 -175l209 175l26 -31l-222 -203h-30z" />
    <glyph glyph-name="scaron" unicode="&#x161;" horiz-adv-x="871" 
d="M390.5 -22q-184.5 0 -297.5 76v65l4 2q121 -86 284.5 -86t249.5 53t86 151t-65.5 143.5t-221 84.5t-235.5 93t-80 167.5t99 183.5t251.5 70t266.5 -48v-60l-6 -2q-117 52 -251 52t-215 -52t-81 -139.5t70.5 -129.5t226 -81t231 -97.5t75.5 -182.5t-103.5 -193.5
t-288 -69.5zM424 1063l-214 244l30 26l201 -203l194 203l30 -26l-211 -244h-30z" />
    <glyph glyph-name="uni0162" unicode="&#x162;" horiz-adv-x="996" 
d="M531 0h-6l-63 -110q34 8 80 8t86 -36q40 -34 40 -112t-54 -120t-130 -41.5t-123 20.5v45l4 2q37 -19 99 -19q145 0 145 117q0 99 -104 99q-58 0 -97 -19l-2 4v39l71 123h-10v1171h-437v58h934v-58h-433v-1171z" />
    <glyph glyph-name="uni0163" unicode="&#x163;" horiz-adv-x="711" 
d="M514 -7h-6l-59 -103q34 8 80 8t86 -36q40 -34 40 -112t-54.5 -119.5t-130.5 -41.5t-122 20v45l4 2q37 -19 99 -19q145 0 145 117q0 99 -104 99q-58 0 -97 -19l-2 4v39l69 119q-197 24 -198 252v657h-208v56h208v238l60 13l6 -2v-249h363v-56h-363v-648q0 -207 195 -207
q106 0 171 51l6 -2v-56q-74 -50 -188 -50z" />
    <glyph glyph-name="Tcaron" unicode="&#x164;" horiz-adv-x="996" 
d="M964 1229v-58h-433v-1171h-64v1171h-437v58h934zM516 1305h-30l-227 203l26 32l218 -175l208 175l26 -32z" />
    <glyph glyph-name="tcaron" unicode="&#x165;" horiz-adv-x="634" 
d="M514 -7q-249 0 -250 255v657h-208v56h208v238l60 13l6 -2v-249h363v-56h-363v-648q0 -207 195 -207q106 1 171 51l6 -2v-56q-74 -50 -188 -50zM564 1439l-35 -298h-36l15 311h45z" />
    <glyph glyph-name="Tbar" unicode="&#x166;" horiz-adv-x="1009" 
d="M972 1171h-434v-542h192v-50h-192v-579h-63v579h-196v50h196v542h-438v58h935v-58z" />
    <glyph glyph-name="tbar" unicode="&#x167;" horiz-adv-x="711" 
d="M514 -7q-249 0 -250 255v271h-178v51h178v335h-208v56h208v238l60 13l6 -2v-249h363v-56h-363v-335h206v-51h-206v-262q0 -207 195 -207q106 1 171 51l6 -2v-56q-74 -50 -188 -50z" />
    <glyph glyph-name="Utilde" unicode="&#x168;" horiz-adv-x="1321" 
d="M661 -28q-225 0 -350 127.5t-125 362.5v767h63v-760q0 -212 108 -324.5t303.5 -112.5t303.5 112.5t108 324.5v760h64v-767q0 -235 -125 -362.5t-350 -127.5zM531 1489q51 0 135 -39t119.5 -39t59.5 23.5t24 66.5l2 1l47 -11q-2 -63 -38.5 -100t-85 -37t-132 40t-121.5 40
t-62.5 -23.5t-24.5 -66.5l-3 -2l-47 12q2 60 39 97.5t88 37.5z" />
    <glyph glyph-name="utilde" unicode="&#x169;" horiz-adv-x="1096" 
d="M858 961h65v-961h-54l-9 160q-47 -82 -134 -131t-207 -49q-166 0 -261.5 98.5t-95.5 301.5v581h63v-572q0 -179 83 -265.5t208.5 -86.5t212 57t129.5 157v710zM405 1277q55 0 149 -40t132 -40t62.5 22.5t24.5 65.5l2 3l46 -9q0 -63 -36.5 -100.5t-89 -37.5t-146 40
t-134 40t-65 -23t-24.5 -64l-2 -4l-47 9q0 61 36.5 99.5t91.5 38.5z" />
    <glyph glyph-name="Umacron" unicode="&#x16a;" horiz-adv-x="1321" 
d="M661 -28q-225 0 -350 127.5t-125 362.5v767h63v-760q0 -212 108 -324.5t303.5 -112.5t303.5 112.5t108 324.5v760h64v-767q0 -235 -125 -362.5t-350 -127.5zM419 1402v56h480v-56h-480z" />
    <glyph glyph-name="umacron" unicode="&#x16b;" horiz-adv-x="1096" 
d="M858 961h65v-961h-54l-9 160q-47 -82 -134 -131t-207 -49q-166 0 -261.5 98.5t-95.5 301.5v581h63v-572q0 -179 83 -265q82 -86 208 -86.5t212.5 56.5t129.5 157v710zM795 1221v-52h-497v52h497z" />
    <glyph glyph-name="Ubreve" unicode="&#x16c;" horiz-adv-x="1321" 
d="M661 -28q-225 0 -350 127.5t-125 362.5v767h63v-760q0 -212 108 -324.5t303.5 -112.5t303.5 112.5t108 324.5v760h64v-767q0 -235 -125 -362.5t-350 -127.5zM660 1311q-100 0 -162 58.5t-62 159.5l42 5q7 -78 57 -124.5t128 -46.5t130 46.5t54 124.5l39 -5
q0 -101 -63 -159.5t-163 -58.5z" />
    <glyph glyph-name="ubreve" unicode="&#x16d;" horiz-adv-x="1096" 
d="M858 961h65v-961h-54l-9 160q-47 -82 -134 -131t-207 -49q-166 0 -261.5 98.5t-95.5 301.5v581h63v-572q0 -179 83 -265.5t208.5 -86.5t212 57t129.5 157v710zM546 1076q-100 0 -162 63.5t-62 171.5l45 5l2 -2q4 -84 54 -134t126 -50t126.5 49.5t52.5 133.5l2 3l43 -5
q0 -108 -63.5 -171.5t-163.5 -63.5z" />
    <glyph glyph-name="Uring" unicode="&#x16e;" horiz-adv-x="1321" 
d="M661 -28q-225 0 -350 127.5t-125 362.5v767h63v-760q0 -212 108 -324.5t303.5 -112.5t303.5 112.5t108 324.5v760h64v-767q0 -235 -125 -362.5t-350 -127.5zM662 1305q44 0 71.5 29t27.5 71t-27.5 70.5t-71.5 28.5t-72 -28.5t-28 -70.5t28 -71t72 -29zM662 1264
q-62 0 -103 40t-41 100.5t40 100.5t103 40t103 -40t40 -100.5t-40 -100.5t-102 -40z" />
    <glyph glyph-name="uring" unicode="&#x16f;" horiz-adv-x="1096" 
d="M858 961h65v-961h-54l-9 160q-47 -82 -134 -131t-207 -49q-166 0 -261.5 98.5t-95.5 301.5v581h63v-572q0 -179 83 -265.5t208.5 -86.5t212 57t129.5 157v710zM547.5 1301q-44.5 0 -72.5 -29.5t-28 -72.5t28 -72.5t72.5 -29.5t73.5 29.5t29 72.5t-29 72.5t-73.5 29.5z
M548 1056q-64 0 -105 41.5t-41 102t41 101.5t105 41t104.5 -41t40.5 -102t-40.5 -102t-104.5 -41z" />
    <glyph glyph-name="Uhungarumlaut" unicode="&#x170;" horiz-adv-x="1321" 
d="M661 -28q-225 0 -350 127.5t-125 362.5v767h63v-760q0 -212 108 -324.5t303.5 -112.5t303.5 112.5t108 324.5v760h64v-767q0 -235 -125 -362.5t-350 -127.5zM804 1333l-35 21l128 245l53 -18l1 -13zM493 1333l-35 19l127 247l54 -18v-13z" />
    <glyph glyph-name="uhungarumlaut" unicode="&#x171;" horiz-adv-x="1096" 
d="M858 961h65v-961h-54l-9 160q-47 -82 -134 -131t-207 -49q-166 0 -261.5 98.5t-95.5 301.5v581h63v-572q0 -179 83 -265q82 -86 208 -86.5t212.5 56.5t129.5 157v710zM866 1311l-192 -255l-34 20l177 270l47 -22zM581 1311l-192 -255l-33 20l175 270l48 -22z" />
    <glyph glyph-name="Uogonek" unicode="&#x172;" horiz-adv-x="1321" 
d="M1072 1229h64v-767q0 -184 -79.5 -304.5t-226.5 -163.5q-177 -119 -177 -245q0 -102 116 -103q34 0 56 8l5 -4v-43q-32 -13 -94 -13t-105 38t-43 105q0 127 151 239q-48 -4 -78 -4q-225 0 -350 127.5t-125 362.5v767h63v-760q0 -212 108 -324.5t303.5 -112.5t303.5 112.5
t108 324.5v760z" />
    <glyph glyph-name="uogonek" unicode="&#x173;" horiz-adv-x="1096" 
d="M735 -253q0 -102 116 -103q34 0 56 8l5 -4v-43q-32 -13 -94 -13t-105 38.5t-43 105.5q0 145 199 271l-9 153q-47 -82 -134 -131t-207 -49q-166 0 -261.5 98.5t-95.5 301.5v581h63v-572q0 -179 83 -265.5t208.5 -86.5t212 57t129.5 157v710h65v-961q-188 -125 -188 -253z
" />
    <glyph glyph-name="Wcircumflex" unicode="&#x174;" horiz-adv-x="1792" 
d="M1741 1229l2 -4l-414 -1257h-42l-390 1145l-389 -1145h-43l-417 1257l2 4h65l363 -1110l12 -48l13 50l372 1106h45l376 -1104l13 -49l11 49l359 1106h62zM890 1480l-209 -175l-26 34l222 203h30l227 -203l-26 -34z" />
    <glyph glyph-name="wcircumflex" unicode="&#x175;" horiz-adv-x="1483" 
d="M1424 961l2 -4l-316 -957h-52l-302 842l-11 37l-10 -37l-307 -842h-52l-322 957l2 4h63l279 -844l8 -33l9 33l304 844h54l301 -842l10 -33l7 35l276 840h57zM741 1266l-194 -205l-29 30l210 242h30l214 -242l-30 -30z" />
    <glyph glyph-name="Ycircumflex" unicode="&#x176;" horiz-adv-x="1068" 
d="M503 0v529l-460 696l2 4h65l426 -641l423 641h63l2 -4l-458 -696v-529h-63zM320 1303l-26 34l222 203h30l227 -203l-26 -34l-218 175z" />
    <glyph glyph-name="ycircumflex" unicode="&#x177;" horiz-adv-x="979" 
d="M201 -313q-24 0 -99 11v56l4 2q48 -11 88 -11q104 0 162.5 58.5t121.5 211.5l-430 942l2 4h69l391 -872l358 872h63l2 -4l-404 -970q-67 -164 -134 -232t-194 -68zM506 1262l-193 -204l-30 29l210 242h30l214 -242l-30 -29z" />
    <glyph glyph-name="Ydieresis" unicode="&#x178;" horiz-adv-x="1068" 
d="M503 0v529l-460 696l2 4h65l426 -641l423 641h63l2 -4l-458 -696v-529h-63zM709.5 1381q-20.5 0 -34.5 15t-14 35.5t14 34.5t34.5 14t35.5 -14t15 -34.5t-15 -35.5t-35.5 -15zM363.5 1381q-20.5 0 -35.5 15t-15 35.5t15 34.5t35.5 14t35 -14t14.5 -34.5t-14.5 -35.5
t-35 -15z" />
    <glyph glyph-name="Zacute" unicode="&#x179;" horiz-adv-x="1063" 
d="M65 0v24l831 1151h-822v54h916v-23l-835 -1152h839v-54h-929zM369 1307l-17 37l328 196l29 -51l-5 -13z" />
    <glyph glyph-name="zacute" unicode="&#x17a;" horiz-adv-x="927" 
d="M862 56v-56h-793v26l685 879h-678v56h773v-28l-685 -877h698zM640 1279l-296 -225l-24 33l278 252l46 -47z" />
    <glyph glyph-name="Zdotaccent" unicode="&#x17b;" horiz-adv-x="1063" 
d="M65 0v24l831 1151h-822v54h916v-23l-835 -1152h839v-54h-929zM528.5 1381q-20.5 0 -36.5 15q-16 14 -15.5 36t16 38t36 16t36.5 -16t16 -37t-16 -36.5t-36.5 -15.5z" />
    <glyph glyph-name="zdotaccent" unicode="&#x17c;" horiz-adv-x="927" 
d="M862 56v-56h-793v26l685 879h-678v56h773v-28l-685 -877h698zM465 1184q-21 0 -38 17t-17 38t16.5 37t38 16t37.5 -16t16 -38t-16 -38t-37 -16z" />
    <glyph glyph-name="Zcaron" unicode="&#x17d;" horiz-adv-x="1063" 
d="M65 0v24l831 1151h-822v54h916v-23l-835 -1152h839v-54h-929zM518 1305l-228 203l27 32l217 -175l209 175l26 -32l-222 -203h-29z" />
    <glyph glyph-name="zcaron" unicode="&#x17e;" horiz-adv-x="927" 
d="M862 56v-56h-793v26l685 879h-678v56h773v-28l-685 -877h698zM482 1059h-30l-214 244l30 26l201 -203l194 203l30 -26z" />
    <glyph glyph-name="uni018F" unicode="&#x18f;" horiz-adv-x="1383" 
d="M692.5 32q214.5 0 345.5 141.5t144 381.5h-970q2 -240 134 -381.5t346.5 -141.5zM682.5 1253q265.5 0 417 -171.5t151.5 -463.5t-154.5 -468t-404 -176t-398.5 161t-149 433q0 32 2 45h1037q0 270 -130.5 425t-370.5 155t-434 -156l-5 4v52q173 160 438.5 160z" />
    <glyph glyph-name="uni019D" unicode="&#x19d;" horiz-adv-x="1374" 
d="M1108 1229h61v-1244h-18l-881 1112h-4v-1078q0 -184 -72.5 -278.5t-228.5 -94.5q-45 0 -88 8v54l2 2q34 -6 80 -6q246 0 246 315v1221h24l875 -1108h4v1097z" />
    <glyph glyph-name="Gcaron" unicode="&#x1e6;" horiz-adv-x="1310" 
d="M1190 573v-472q-194 -119 -475 -119t-441 171t-160 454t176.5 461t465.5 178q214 0 378 -77v-61l-4 -2q-93 45 -176 62.5t-200 17.5q-261 0 -417 -160t-156 -417t141.5 -412.5t391.5 -155.5t416 99v378h-382v55h442zM743 1305h-30l-227 203l26 32l218 -175l208 175
l26 -32z" />
    <glyph glyph-name="gcaron" unicode="&#x1e7;" horiz-adv-x="1012" 
d="M881 -61.5q0 100.5 -81 140.5t-220 54t-202 27q-225 -97 -225 -238q0 -184 361 -185q164 0 265.5 50.5t101.5 151zM778 663.5q0 114.5 -79 180t-204 65.5t-204 -66.5t-79 -179t78.5 -176t204 -65t204.5 62.5t79 178.5zM942 961v-52l-261 1q160 -80 161 -251
q0 -132 -99 -211t-250 -79q-102 0 -182 37q-61 -32 -61.5 -85.5t57.5 -79t253.5 -46t288.5 -72.5t93 -181.5t-119 -194t-315 -64.5q-415 0 -415 231q0 84 63.5 151t156.5 110q-65 19 -95 48.5t-30 79.5q0 74 82 125q-121 82 -121 226.5t97 225.5t247 81h449zM499 1063h-30
l-214 244l30 26l201 -203l194 203l29 -26z" />
    <glyph glyph-name="uni01EA" unicode="&#x1ea;" horiz-adv-x="1474" 
d="M181 612.5q0 -268.5 156 -425.5t400 -157t400.5 157t156.5 425.5t-156.5 425.5t-400.5 157t-400 -157t-156 -425.5zM676 -268q0 -102 115 -103q34 0 56 8l6 -4v-43q-32 -13 -94.5 -13t-105 38.5t-42.5 105.5q0 134 169 253q-13 -2 -43 -2q-268 0 -445.5 172.5
t-177.5 467.5t176.5 468t445.5 173t447 -172t178 -468q0 -257 -139 -425t-362 -205q-184 -121 -184 -251z" />
    <glyph glyph-name="uni01EB" unicode="&#x1eb;" horiz-adv-x="1169" 
d="M171 481q0 -204 115.5 -325.5t296 -121.5t298 121.5t117.5 325.5t-116.5 323t-298 119t-297 -119t-115.5 -323zM549 -251q0 -102 116 -103q34 0 56 8l5 -4v-43q-32 -13 -94 -13t-105 38t-43 105q0 128 155 241q-19 -2 -56 -2q-207 0 -342 136t-135 367.5t136 366.5
t343 135t343.5 -134t136.5 -367q0 -186 -93 -313.5t-244 -170.5q-179 -121 -179 -247z" />
    <glyph glyph-name="Aringacute" unicode="&#x1fa;" horiz-adv-x="1165" 
d="M296 464h572l-278 636l-13 34zM1069 0l-179 410h-616l-172 -410h-65l533 1255h18l548 -1255h-67zM578 1504q-44 0 -72 -28.5t-28 -70.5t28 -71t72 -29t72 29t28 71t-28 70.5t-72 28.5zM578 1264q-62 0 -103 40t-41 100.5t40 100.5t108 40t109 -50l296 177l30 -50l-6 -13
l-300 -151q29 -94 -31 -154q-40 -40 -102 -40z" />
    <glyph glyph-name="aringacute" unicode="&#x1fb;" horiz-adv-x="1029" 
d="M401.5 35q110.5 0 208 55t159.5 159v177q-115 54 -275.5 54t-251.5 -58.5t-91 -168t70 -164t180.5 -54.5zM894 -9q-120 0 -121 152v38q-134 -201 -388 -201q-130 0 -215.5 67.5t-85.5 204.5t109.5 209.5t283 72.5t292.5 -52v116q0 162 -90.5 244.5t-250.5 82.5t-255 -69
l-4 2v54q88 69 272.5 69t287.5 -95t103 -286v-427q0 -65 19.5 -94t64 -29t74.5 28l4 -2v-57q-36 -28 -100 -28zM471 1301q-45 0 -72.5 -29.5t-27.5 -72.5t27.5 -72.5t72.5 -29.5t73.5 29.5t28.5 72.5t-28.5 72.5t-73.5 29.5zM473 1056q-63 0 -105 41.5t-42 102t41 101.5
t101.5 41t97.5 -31l251 227l47 -47l-4 -13l-264 -201q20 -35 20 -87t-40 -93t-103 -41z" />
    <glyph glyph-name="AEacute" unicode="&#x1fc;" horiz-adv-x="1504" 
d="M784 480v671l-62 -103l-365 -568h427zM849 56h560v-56h-625v430h-458l-278 -430h-68l793 1229h608v-56h-532v-506h497v-56h-497v-555zM1102 1480l-335 -169l-17 37l328 195l30 -50z" />
    <glyph glyph-name="aeacute" unicode="&#x1fd;" horiz-adv-x="1690" 
d="M402.5 35q115.5 0 220.5 63.5t163 180.5q-30 93 -30 194q-454 0 -560 -110q-46 -48 -46.5 -135t68.5 -140t184.5 -53zM1188.5 927q-153.5 0 -255 -107t-112.5 -293h704q-4 188 -93.5 294t-243 106zM1184 981q190 0 298 -126.5t108 -346.5v-35h-771q2 -210 118.5 -324
t292 -114t306.5 86l6 -2v-59q-138 -84 -295 -84q-321 0 -439 247q-63 -114 -174 -178.5t-246 -64.5t-219.5 66t-84.5 192t97 188.5t210 76.5q183 24 363 24v71q0 162 -86.5 244.5t-247.5 82.5t-252 -69l-6 4v52q88 69 254 69q329 0 385 -260q52 123 154 191.5t229 68.5z
M1007 1279l-296 -225l-24 33l277 252l47 -47z" />
    <glyph glyph-name="Oslashacute" unicode="&#x1fe;" horiz-adv-x="1474" 
d="M1294 603.5q0 258.5 -142 420.5l-791 -860q151 -134 385.5 -134t391 157.5t156.5 416zM181 620.5q0 -260.5 141 -417.5l791 858q-149 134 -384.5 134t-391.5 -157t-156 -417.5zM1363 1260v-7l-170 -184q168 -173 168 -460.5t-177 -462t-436.5 -174.5t-427.5 147
l-139 -153h-67v10l165 180q-166 175 -165.5 463t177 461t436 173t429.5 -147l142 154h65zM916 1476l-335 -169l-17 37l328 196l30 -51z" />
    <glyph glyph-name="oslashacute" unicode="&#x1ff;" horiz-adv-x="1172" 
d="M597.5 34q168.5 0 285.5 121.5t117 321t-108 318.5l-575 -667q112 -94 280.5 -94zM173 487.5q0 -197.5 108 -323.5l574 668q-112 91 -281.5 91t-285 -119t-115.5 -316.5zM1067 477q0 -228 -138 -364.5t-331.5 -136.5t-320.5 104l-91 -104h-61v7l113 132
q-130 143 -130 369.5t136 361.5t329.5 135t322.5 -102l89 104h63v-7l-115 -133q134 -138 134 -366zM765 1279l-296 -225l-24 33l277 252l47 -47z" />
    <glyph glyph-name="Scommaaccent" unicode="&#x218;" horiz-adv-x="947" 
d="M447 -151l-2 54l61 6l8 -10q0 -151 -62 -296h-42q37 119 37 246zM435.5 -28q-191.5 0 -338.5 99v69l5 1q149 -110 350 -109q147 0 235.5 70.5t88.5 192t-79 193t-233 132.5q-249 102 -304 215q-26 53 -26 118q0 145 105 224.5t276 79.5t293 -69v-62l-4 -1
q-117 74 -273.5 74t-244 -61.5t-87.5 -170t78.5 -170.5t234.5 -126t243 -146t87 -229t-107.5 -235.5t-299 -88.5z" />
    <glyph glyph-name="scommaaccent" unicode="&#x219;" horiz-adv-x="871" 
d="M406 -151l-2 54l61 6l8 -10q0 -151 -62 -296h-42q37 119 37 246zM390.5 -22q-184.5 0 -297.5 76v65l4 2q121 -86 284.5 -86t249.5 53t86 151t-65.5 143.5t-221 84.5t-235.5 93t-80 167.5t99 183.5t251.5 70t266.5 -48v-60l-6 -2q-117 52 -251 52t-215 -52t-81 -139.5
t70.5 -129.5t226 -81t231 -97.5t75.5 -182.5t-103.5 -193.5t-288 -69.5z" />
    <glyph glyph-name="uni021A" unicode="&#x21a;" horiz-adv-x="996" 
d="M464 -151l-2 54l61 6l8 -10q0 -151 -62 -296h-43q37 119 38 246zM964 1229v-58h-433v-1171h-64v1171h-437v58h934z" />
    <glyph glyph-name="uni021B" unicode="&#x21b;" horiz-adv-x="711" 
d="M451 -151l-2 54l61 6l8 -10q0 -151 -62 -296h-43q37 119 38 246zM514 -7q-249 0 -250 255v657h-208v56h208v238l60 13l6 -2v-249h363v-56h-363v-648q0 -207 195 -207q106 1 171 51l6 -2v-56q-74 -50 -188 -50z" />
    <glyph glyph-name="uni0232" unicode="&#x232;" horiz-adv-x="1068" 
d="M503 0v529l-460 696l2 4h65l426 -641l423 641h63l2 -4l-458 -696v-529h-63zM292 1402v56h481v-56h-481z" />
    <glyph glyph-name="uni0233" unicode="&#x233;" horiz-adv-x="979" 
d="M201 -313q-24 0 -99 11v56l4 2q48 -11 88 -11q104 0 162.5 58.5t121.5 211.5l-430 942l2 4h69l391 -872l358 872h63l2 -4l-404 -970q-67 -164 -134 -232t-194 -68zM756 1221v-52h-497v52h497z" />
    <glyph glyph-name="uni0237" unicode="&#x237;" horiz-adv-x="443" 
d="M-2 -313q-34 0 -69 8v56l4 1q26 -6 56 -5q216 0 216 268v946h63v-957q0 -317 -270 -317z" />
    <glyph glyph-name="uni0259" unicode="&#x259;" horiz-adv-x="1057" 
d="M498 34q152 0 260 100q108 101 125 289h-725q6 -181 97 -285t243 -104zM496 983q198 0 326 -136q128 -135 129 -369q0 -234 -130 -368t-319 -134t-298 124t-109 345v33h789v8q0 195 -107 316t-291 121t-331 -117l-4 2v60q147 115 345 115z" />
    <glyph glyph-name="uni0272" unicode="&#x272;" horiz-adv-x="1126" 
d="M586 981q166 0 274 -107t108 -332v-542h-65v531q0 199 -93 294t-222 95q-130 0 -218 -65t-132 -175v-699q0 -311 -266 -311q-35 0 -58 4v56l4 2q19 -6 45 -6q110 0 160 65t50 198v972h54l9 -183q48 91 140 147t210 56z" />
    <glyph glyph-name="circumflex" unicode="&#x2c6;" horiz-adv-x="551" 
d="M78 1058l-30 29l211 242h30l214 -242l-30 -29l-201 204z" />
    <glyph glyph-name="caron" unicode="&#x2c7;" horiz-adv-x="551" 
d="M264 985l-212 246l22 24l203 -207l200 207l22 -24l-210 -246h-25z" />
    <glyph glyph-name="breve" unicode="&#x2d8;" horiz-adv-x="539" 
d="M269 1076q-100 0 -162 63.5t-62 171.5l44 5l2 -2q4 -84 54 -134t126.5 -50t127 49.5t52.5 133.5l1 3l43 -5q0 -108 -63 -171.5t-163 -63.5z" />
    <glyph glyph-name="dotaccent" unicode="&#x2d9;" horiz-adv-x="478" 
d="M238.5 1184q-22.5 0 -38.5 17t-16 38t17 37t38 16t37 -16t16 -38t-15.5 -38t-38 -16z" />
    <glyph glyph-name="ring" unicode="&#x2da;" horiz-adv-x="610" 
d="M255 1097q45 0 73.5 29.5t28.5 72.5t-28.5 72.5t-73.5 29.5t-72.5 -29.5t-27.5 -72.5t27.5 -72.5t72.5 -29.5zM257 1056q-63 0 -105 41.5t-42 102t41 101.5t105 41t104 -41t40 -102t-40 -102t-103 -41z" />
    <glyph glyph-name="ogonek" unicode="&#x2db;" horiz-adv-x="320" 
d="M184 -406q-62 0 -106 38q-43 38 -43 105q0 149 205 276l49 -11q-188 -125 -188 -253q0 -102 115 -103q34 0 56 8l5 -4v-43q-31 -13 -93 -13z" />
    <glyph glyph-name="tilde" unicode="&#x2dc;" horiz-adv-x="593" 
d="M154 1277q55 0 149 -40t132 -40t62 22.5t24 65.5l2 3l47 -9q0 -63 -36.5 -100.5t-89.5 -37.5t-146 40t-134 40t-65.5 -23t-24.5 -64l-1 -4l-47 9q0 61 36.5 99.5t91.5 38.5z" />
    <glyph glyph-name="hungarumlaut" unicode="&#x2dd;" horiz-adv-x="586" 
d="M357 1056l-33 20l177 270l46 -22l2 -13zM73 1056l-34 20l175 270l49 -22l1 -13z" />
    <glyph glyph-name="gravecomb" unicode="&#x300;" 
d="M-71 1054l-298 225l-2 13l47 47l277 -252z" />
    <glyph glyph-name="acutecomb" unicode="&#x301;" 
d="M-346 1054l-25 33l278 252l46 -47l-3 -13z" />
    <glyph glyph-name="uni0302" unicode="&#x302;" 
d="M-473 1058l-30 29l211 242h29l215 -242l-30 -29l-201 204z" />
    <glyph glyph-name="tildecomb" unicode="&#x303;" 
d="M-440 1277q55 0 149 -40t132 -40t62 22.5t24 65.5l2 3l47 -9q0 -63 -36.5 -100.5t-89.5 -37.5t-146 40t-134 40t-65 -23t-24 -64l-2 -4l-47 9q0 61 36.5 99.5t91.5 38.5z" />
    <glyph glyph-name="uni0304" unicode="&#x304;" 
d="M-549 1169v52h497v-52h-497z" />
    <glyph glyph-name="uni0306" unicode="&#x306;" 
d="M-271 1076q-100 0 -162 63.5t-62 171.5l44 5l2 -2q4 -84 54.5 -134t126.5 -50t126.5 49.5t52.5 133.5l1 3l43 -5q0 -108 -63 -171.5t-163 -63.5z" />
    <glyph glyph-name="uni0307" unicode="&#x307;" 
d="M-239 1184q-21 0 -38 17t-17 38t16.5 37t38 16t37.5 -16t16 -38t-16 -38t-37 -16z" />
    <glyph glyph-name="uni0308" unicode="&#x308;" 
d="M-77 1184q-21 0 -37 16t-16 37t15.5 36t37 15t37.5 -14.5t16 -36t-16 -37.5t-37 -16zM-396 1184q-21 0 -36 16t-15 37t15 36t36 15t37 -14.5t16 -36t-16 -37.5t-37 -16z" />
    <glyph glyph-name="uni030A" unicode="&#x30a;" 
d="M-253.5 1097q44.5 0 73.5 29.5t29 72.5t-29 72.5t-73.5 29.5t-72.5 -29.5t-28 -72.5t28 -72.5t72.5 -29.5zM-252 1056q-64 0 -105 41.5t-41 102t40.5 101.5t105 41t104.5 -41t40 -102t-40 -102t-104 -41z" />
    <glyph glyph-name="uni030B" unicode="&#x30b;" 
d="M-229 1056l-34 20l177 270l47 -22l2 -13zM-514 1056l-33 20l175 270l48 -22l2 -13z" />
    <glyph glyph-name="uni030C" unicode="&#x30c;" 
d="M-289 1059l-214 244l30 26l201 -203l194 203l30 -26l-211 -244h-30z" />
    <glyph glyph-name="uni0312" unicode="&#x312;" 
d="M-99 1117l2 -54l-61 -5l-8 9q0 151 62 296h43q-37 -119 -38 -246z" />
    <glyph glyph-name="dotbelowcomb" unicode="&#x323;" 
d="M-239 -276q-21 0 -38 16t-17 38.5t16.5 38t38 15.5t37.5 -15.5t16 -38t-16 -38.5t-37 -16z" />
    <glyph glyph-name="uni0326" unicode="&#x326;" 
d="M-169 -151l-2 54l61 6l8 -10q0 -151 -62 -296h-43q37 119 38 246z" />
    <glyph glyph-name="uni0327" unicode="&#x327;" 
d="M-218.5 -411q-75.5 0 -122.5 20v45l4 2q37 -19 99 -19q145 0 145 117q0 99 -104 99q-58 0 -97 -19l-2 4v39l71 123h48l-63 -110q34 7 80 7.5t86 -35t40 -113t-54.5 -119t-130 -41.5z" />
    <glyph glyph-name="uni0328" unicode="&#x328;" 
d="M-142.5 -406q-62.5 0 -105 38t-42.5 105q0 149 204 276l49 -11q-188 -125 -188 -253q0 -102 115 -103q34 0 56 8l6 -4v-43q-32 -13 -94.5 -13z" />
    <glyph glyph-name="uni0335" unicode="&#x335;" 
d="M-499 415v50h451v-50h-451z" />
    <glyph glyph-name="uni0336" unicode="&#x336;" 
d="M-1018 613v52h971v-52h-971z" />
    <glyph glyph-name="uni0337" unicode="&#x337;" 
d="M-406 531v55l356 218h5v-56l-353 -217h-8z" />
    <glyph glyph-name="uni0338" unicode="&#x338;" 
d="M-1020 -24v9l860 998h61v-7l-862 -1000h-59z" />
    <glyph glyph-name="Wgrave" unicode="&#x1e80;" horiz-adv-x="1792" 
d="M1741 1229l2 -4l-414 -1257h-42l-390 1145l-389 -1145h-43l-417 1257l2 4h65l363 -1110l12 -48l13 50l372 1106h45l376 -1104l13 -49l11 49l359 1106h62zM1041 1309l-337 169l-6 13l30 51l328 -196z" />
    <glyph glyph-name="wgrave" unicode="&#x1e81;" horiz-adv-x="1483" 
d="M1424 961l2 -4l-316 -957h-52l-302 842l-11 37l-10 -37l-307 -842h-52l-322 957l2 4h63l279 -844l8 -33l9 33l304 844h54l301 -842l10 -33l7 35l276 840h57zM853 1058l-298 225l-2 13l47 46l277 -251z" />
    <glyph glyph-name="Wacute" unicode="&#x1e82;" horiz-adv-x="1792" 
d="M1741 1229l2 -4l-414 -1257h-42l-390 1145l-389 -1145h-43l-417 1257l2 4h65l363 -1110l12 -48l13 50l372 1106h45l376 -1104l13 -49l11 49l359 1106h62zM1069 1478l-335 -169l-17 37l327 196l30 -51z" />
    <glyph glyph-name="wacute" unicode="&#x1e83;" horiz-adv-x="1483" 
d="M1424 961l2 -4l-316 -957h-52l-302 842l-11 37l-10 -37l-307 -842h-52l-322 957l2 4h63l279 -844l8 -33l9 33l304 844h54l301 -842l10 -33l7 35l276 840h57zM920 1283l-296 -225l-24 33l277 251l46 -46z" />
    <glyph glyph-name="Wdieresis" unicode="&#x1e84;" horiz-adv-x="1792" 
d="M1741 1229l2 -4l-414 -1257h-42l-390 1145l-389 -1145h-43l-417 1257l2 4h65l363 -1110l12 -48l13 50l372 1106h45l376 -1104l13 -49l11 49l359 1106h62zM1070.5 1383q-20.5 0 -34.5 15t-14 35t14 34.5t34.5 14.5t35.5 -14t15 -34.5t-15 -35.5t-35.5 -15zM724.5 1383
q-20.5 0 -35.5 15t-15 35.5t15 34.5t35.5 14t35.5 -14t15 -34.5t-15 -35.5t-35.5 -15z" />
    <glyph glyph-name="wdieresis" unicode="&#x1e85;" horiz-adv-x="1483" 
d="M1424 961l2 -4l-316 -957h-52l-302 842l-11 37l-10 -37l-307 -842h-52l-322 957l2 4h63l279 -844l8 -33l9 33l304 844h54l301 -842l10 -33l7 35l276 840h57zM904 1188q-21 0 -37 15.5t-16 37t16 36.5t37 15t37 -15t16 -36t-16 -37t-37 -16zM585 1188q-21 0 -36 15.5
t-15 37t15 36.5t36 15t37.5 -15t16.5 -36t-16.5 -37t-37.5 -16z" />
    <glyph glyph-name="uni1E9E" unicode="&#x1e9e;" horiz-adv-x="1327" 
d="M1177 335q0 327 -464 315v17l315 484q-123 43 -255.5 42.5t-214.5 -25.5t-156 -80q-156 -116 -156 -407v-681h-64v685q0 158 48.5 273.5t131.5 177.5q159 118 381.5 117.5t364.5 -65.5v-15l-304 -467q436 -11 436 -369q0 -158 -100.5 -261.5t-276.5 -103.5t-299 73v61
l2 4q130 -82 285.5 -82t240.5 87.5t85 219.5z" />
    <glyph glyph-name="uni1EA0" unicode="&#x1ea0;" horiz-adv-x="1165" 
d="M584 -168q21 0 37 -15.5t16 -38t-16 -38.5t-37 -16t-38 16t-17 38.5t17 38t38 15.5zM296 464h572l-278 636l-13 34zM1136 0h-67l-179 410h-616l-172 -410h-65l533 1255h18z" />
    <glyph glyph-name="uni1EA1" unicode="&#x1ea1;" horiz-adv-x="1029" 
d="M509 -168q21 0 37 -15.5t16 -38t-15.5 -38.5t-37 -16t-38.5 16t-17 38.5t17 38t38 15.5zM401.5 35q110.5 0 208 55t159.5 159v177q-115 54 -275.5 54t-251.5 -58.5t-91 -168t70 -164t180.5 -54.5zM894 -9q-120 0 -121 152v38q-134 -201 -388 -201q-130 0 -215.5 67.5
t-85.5 204.5t109.5 209.5t283 72.5t292.5 -52v116q0 162 -90.5 244.5t-250.5 82.5t-255 -69l-4 2v54q88 69 272.5 69t287.5 -95t103 -286v-427q0 -65 19.5 -94t64 -29t74.5 28l4 -2v-57q-36 -28 -100 -28z" />
    <glyph glyph-name="uni1EB8" unicode="&#x1eb8;" horiz-adv-x="1010" 
d="M574 -168q21 0 37 -15.5t16 -38t-15.5 -38.5t-37 -16t-38.5 16t-17 38.5t17 38t38 15.5zM268 60h648v-60h-711v1229h683v-60h-620v-501h585v-59h-585v-549z" />
    <glyph glyph-name="uni1EB9" unicode="&#x1eb9;" horiz-adv-x="1059" 
d="M604 -168q21 0 37 -15.5t16 -38t-15.5 -38.5t-37 -16t-38.5 16t-17 38.5t17 38t38 15.5zM556.5 925q-156.5 0 -261.5 -103t-120 -284h726q-6 179 -97 283t-247.5 104zM554 981q193 0 301.5 -124.5t108.5 -340.5v-34h-791q0 -216 122 -332t301 -116t316 83l4 -2v-55
q-136 -84 -333 -84t-337 130t-140 365.5t127.5 372.5t320.5 137z" />
    <glyph glyph-name="uni1EBC" unicode="&#x1ebc;" horiz-adv-x="1010" 
d="M268 60h648v-60h-711v1229h683v-60h-620v-501h585v-59h-585v-549zM433 1489q51 0 135 -39t119 -39t59.5 23.5t24.5 66.5l2 1l46 -11q-2 -63 -38 -100t-84.5 -37t-132.5 40t-122 40t-62 -23.5t-24 -66.5l-4 -2l-47 12q2 60 39.5 97.5t88.5 37.5z" />
    <glyph glyph-name="uni1EBD" unicode="&#x1ebd;" horiz-adv-x="1059" 
d="M556.5 925q-156.5 0 -261.5 -103t-120 -284h726q-6 179 -97 283t-247.5 104zM554 981q193 0 301.5 -124.5t108.5 -340.5v-34h-791q0 -216 122 -332t301 -116t316 83l4 -2v-55q-136 -84 -333 -84t-337 130t-140 365.5t127.5 372.5t320.5 137zM403 1277q55 0 149 -40
t132 -40t62.5 22.5t24.5 65.5l2 3l46 -9q0 -63 -36 -100.5t-89 -37.5t-146.5 40t-134 40t-65 -23t-24.5 -64l-2 -4l-46 9q0 61 36 99.5t91 38.5z" />
    <glyph glyph-name="uni1ECA" unicode="&#x1eca;" horiz-adv-x="472" 
d="M236 -276q-21 0 -38 16t-17 38.5t16.5 38t38 15.5t37.5 -15.5t16 -38t-16 -38.5t-37 -16zM205 0v1229h63v-1229h-63z" />
    <glyph glyph-name="uni1ECB" unicode="&#x1ecb;" horiz-adv-x="411" 
d="M206 -276q-21 0 -38 16t-17 38.5t16.5 38t38 15.5t37.5 -15.5t16 -38t-16 -38.5t-37 -16zM173 0v961h65v-961h-65zM208 1184q-21 0 -38 17t-17 38t16.5 37t38 16t37.5 -16t16 -38t-16 -38t-37 -16z" />
    <glyph glyph-name="uni1ECC" unicode="&#x1ecc;" horiz-adv-x="1474" 
d="M736 -276q-21 0 -38 16t-17 38.5t17 38t38 15.5t37 -15.5t16 -38t-16 -38.5t-37 -16zM737 30q244 0 400.5 157t156.5 425.5t-156.5 425.5t-400.5 157t-400 -157t-156 -425.5t156 -425.5t400 -157zM738 -28q-269 0 -446.5 172.5t-177.5 467.5t176.5 468t445.5 173
t447 -172t178 -466t-177 -468.5t-446 -174.5z" />
    <glyph glyph-name="uni1ECD" unicode="&#x1ecd;" horiz-adv-x="1169" 
d="M586 -276q-21 0 -38 16t-17 38.5t16.5 38t38 15.5t37.5 -15.5t16 -38t-16 -38.5t-37 -16zM582.5 34q180.5 0 298 121.5t117.5 325.5t-116.5 323t-298 119t-297 -119t-115.5 -323t115.5 -325.5t296 -121.5zM582.5 -24q-206.5 0 -341.5 136t-135 367.5t136 366.5t343 135
t343.5 -134t136.5 -366t-138 -368.5t-344.5 -136.5z" />
    <glyph glyph-name="uni1EE4" unicode="&#x1ee4;" horiz-adv-x="1321" 
d="M660 -276q-21 0 -38 16t-17 38.5t17 38t38 15.5t37 -15.5t16 -38t-16 -38.5t-37 -16zM661 -28q-225 0 -350 127.5t-125 362.5v767h63v-760q0 -212 108 -324.5t303.5 -112.5t303.5 112.5t108 324.5v760h64v-767q0 -235 -125 -362.5t-350 -127.5z" />
    <glyph glyph-name="uni1EE5" unicode="&#x1ee5;" horiz-adv-x="1096" 
d="M547 -168q21 0 37 -15.5t16 -38t-16 -38.5t-37 -16t-38 16t-17 38.5t17 38t38 15.5zM858 961h65v-961h-54l-9 160q-47 -82 -134 -131t-207 -49q-166 0 -261.5 98.5t-95.5 301.5v581h63v-572q0 -179 83 -265.5t208.5 -86.5t212 57t129.5 157v710z" />
    <glyph glyph-name="Ygrave" unicode="&#x1ef2;" horiz-adv-x="1068" 
d="M503 0v529l-460 696l2 4h65l426 -641l423 641h63l2 -4l-458 -696v-529h-63zM680 1307l-337 169l-6 13l30 51l327 -196z" />
    <glyph glyph-name="ygrave" unicode="&#x1ef3;" horiz-adv-x="979" 
d="M201 -313q-24 0 -99 11v56l4 2q48 -11 88 -11q104 0 162.5 58.5t121.5 211.5l-430 942l2 4h69l391 -872l358 872h63l2 -4l-404 -970q-67 -164 -134 -232t-194 -68zM618 1054l-298 225l-2 13l47 47l277 -252z" />
    <glyph glyph-name="uni1EF8" unicode="&#x1ef8;" horiz-adv-x="1068" 
d="M503 0v529l-460 696l2 4h65l426 -641l423 641h63l2 -4l-458 -696v-529h-63zM405 1489q51 0 135 -39t119 -39t59.5 23.5t24.5 66.5l2 1l46 -11q-2 -63 -38 -100t-84.5 -37t-132.5 40t-122 40t-62 -23.5t-24 -66.5l-4 -2l-47 12q2 60 39.5 97.5t88.5 37.5z" />
    <glyph glyph-name="uni1EF9" unicode="&#x1ef9;" horiz-adv-x="979" 
d="M201 -313q-24 0 -99 11v56l4 2q48 -11 88 -11q104 0 162.5 58.5t121.5 211.5l-430 942l2 4h69l391 -872l358 872h63l2 -4l-404 -970q-67 -164 -134 -232t-194 -68zM366 1277q55 0 149 -40t132 -40t62.5 22.5t24.5 65.5l1 3l47 -9q0 -63 -36.5 -100.5t-89.5 -37.5t-146 40
t-133.5 40t-65 -23t-24.5 -64l-2 -4l-47 9q0 61 36.5 99.5t91.5 38.5z" />
    <glyph glyph-name="endash" unicode="&#x2013;" horiz-adv-x="930" 
d="M147 492v55h637v-55h-637z" />
    <glyph glyph-name="emdash" unicode="&#x2014;" horiz-adv-x="1578" 
d="M147 492v55h1285v-55h-1285z" />
    <glyph glyph-name="quoteleft" unicode="&#x2018;" horiz-adv-x="342" 
d="M246 1283q-22 -136 -24 -230t0 -111l-58 -11l-9 11q0 160 48 341h43z" />
    <glyph glyph-name="quoteright" unicode="&#x2019;" horiz-adv-x="314" 
d="M104 931q22 136 24 230t0 111l58 11l9 -11q0 -158 -48 -341h-43z" />
    <glyph glyph-name="quotesinglbase" unicode="&#x201a;" horiz-adv-x="323" 
d="M84 -242q22 136 24 230t0 111l58 11l9 -11q0 -158 -48 -341h-43z" />
    <glyph glyph-name="quotedblleft" unicode="&#x201c;" horiz-adv-x="569" 
d="M473 1283q-22 -136 -24 -230t0 -111l-58 -11l-9 11q0 160 48 341h43zM246 1283q-22 -136 -24 -230t0 -111l-58 -11l-9 11q0 160 48 341h43z" />
    <glyph glyph-name="quotedblright" unicode="&#x201d;" horiz-adv-x="564" 
d="M330 931q22 136 24 230t0 111l57 11l10 -11q0 -158 -49 -341h-42zM104 931q22 136 24 230t0 111l58 11l9 -11q0 -158 -48 -341h-43z" />
    <glyph glyph-name="quotedblbase" unicode="&#x201e;" horiz-adv-x="549" 
d="M311 -242q22 136 24 230t0 111l58 11l9 -11q0 -158 -48 -341h-43zM84 -242q22 136 24 230t0 111l58 11l9 -11q0 -158 -48 -341h-43z" />
    <glyph glyph-name="dagger" unicode="&#x2020;" horiz-adv-x="884" 
d="M464 940l301 10v-62l-292 8l-9 -976h-45l-9 976l-293 -8v62l302 -10l-9 319h63z" />
    <glyph glyph-name="daggerdbl" unicode="&#x2021;" horiz-adv-x="884" 
d="M410 -78l9 316l-302 -9v63l294 -9l10 307l-10 307l-294 -7v61l302 -9l-9 317h63l-9 -315l301 7v-61l-294 7l-7 -307l7 -307l296 9v-63l-302 9l8 -316h-63z" />
    <glyph glyph-name="bullet" unicode="&#x2022;" horiz-adv-x="668" 
d="M334 376q-62 0 -105 44t-43 105t43 105t105 44t105 -44t43 -105t-43 -105t-105 -44z" />
    <glyph glyph-name="ellipsis" unicode="&#x2026;" horiz-adv-x="932" 
d="M769 -4q-24 0 -39 16t-15 37t15 37t39 16t39 -14t15 -38q0 -22 -15 -38t-39 -16zM471 -4q-24 0 -39 16t-15 37t15 37t39 16t39 -14t15 -38q0 -22 -15 -38t-39 -16zM171 -4q-24 0 -39 16t-15 37t16 37t39 16t38 -14t15 -38q0 -22 -15 -38t-39 -16z" />
    <glyph glyph-name="perthousand" unicode="&#x2030;" horiz-adv-x="1902" 
d="M1558 514q-100 0 -160 -64t-60 -175t61 -173q60 -62 160 -63q99 0 159 62q60 61 60 173t-60 176t-160 64zM949 39q99 0 159 62q60 61 60 173t-60 176t-160 64t-159 -64t-59 -175t59 -174q60 -62 160 -62zM1558 -9q-125 0 -201 75q-76 74 -76 208t76 211t202 77t201 -76
q76 -76 76 -210t-76 -210t-202 -75zM950 -9q-125 0 -202 75q-76 74 -76 208t76 211t202 77t200 -76q75 -76 75 -210t-75 -210t-200 -75zM143 953q-1 -110 59 -173t160 -63t160 63t61 172q0 109 -61 173q-60 65 -160 65t-160 -64t-59 -173zM209 19l817 1197h61l-819 -1197
h-59zM363 668q-125 0 -201 76t-76 208t76 210t201 78t201 -77t76 -211t-76 -208q-76 -76 -201 -76z" />
    <glyph glyph-name="guilsinglleft" unicode="&#x2039;" horiz-adv-x="614" 
d="M490 847v-11l-326 -330l324 -335v-9h-71l-337 344l339 341h71z" />
    <glyph glyph-name="guilsinglright" unicode="&#x203a;" horiz-adv-x="614" 
d="M125 160v11l326 330l-324 335v9h70l337 -344l-339 -341h-70z" />
    <glyph glyph-name="fraction" unicode="&#x2044;" horiz-adv-x="230" 
d="M-326 -22l834 1251h60l-832 -1251h-62z" />
    <glyph glyph-name="uni20A8" unicode="&#x20a8;" horiz-adv-x="804" 
d="M222 531h-23l508 -525l-1 -6h-75l-512 531v55h90q162 0 262.5 74t105.5 213h-478l13 58h463q-26 240 -339 240h-137l13 58h685l-13 -58h-322q160 -67 177 -240h163l-14 -58h-148q-7 -166 -129 -254t-289 -88z" />
    <glyph glyph-name="Euro" unicode="&#x20ac;" horiz-adv-x="1310" 
d="M860 -4q-233 0 -390 126t-200 340h-201l9 52h183q-16 110 2 229h-140l7 50h142q48 209 207 332t367 123t340 -56l-11 -53l-4 -1q-125 52 -317 52t-330 -106q-139 -106 -183 -291h569l-9 -50h-571q-19 -129 -2 -229h528l-9 -52h-510q43 -190 180 -299t325 -109t344 69
l4 -4l-13 -58q-147 -65 -317 -65z" />
    <glyph glyph-name="uni20BD" unicode="&#x20bd;" horiz-adv-x="984" 
d="M276 588h180q192 0 292.5 78.5t100.5 219t-86.5 221.5t-274.5 83q-111 0 -212 -6v-596zM460 531h-184v-200h273v-55h-273v-276h-64v276h-186v55h186v200h-186v57h186v650q149 9 272 9q220 0 323 -95.5t105 -262t-114 -262.5t-338 -96z" />
    <glyph glyph-name="trademark" unicode="&#x2122;" horiz-adv-x="1459" 
d="M1253 1214l61 -566h-52l-52 450h-2l-214 -445h-28l-219 457h-2l-49 -462h-54l62 566h46l233 -475l225 475h45zM74 1160v54h488v-54h-214v-512h-56v512h-218z" />
    <glyph glyph-name="oneeighth" unicode="&#x215b;" horiz-adv-x="1262" 
d="M946 28q86 0 138 40t50 102t-49 99q-47 38 -150 74q-6 3 -17 7t-17 6q-153 -65 -153 -179q2 -73 58 -111q54 -38 140 -38zM940 653q-72 1 -116 -33t-44 -87t47 -89t149 -66q132 61 132 149q0 58 -48 92t-120 34zM946 -15q-110 1 -182 49q-70 48 -70 137q0 127 162 203
q-68 32 -100 68t-32 100t62 111q62 45 154 45t156 -44t64 -122q0 -104 -138 -173q88 -39 126 -81t39 -114t-65 -126q-66 -53 -176 -53zM897 1229h60l-832 -1251h-62zM214 559v612l-167 -78v61l216 97h7v-692h-56z" />
    <glyph glyph-name="threeeighths" unicode="&#x215c;" horiz-adv-x="1476" 
d="M1160 28q86 0 138 40t50 102t-49 99q-47 38 -150 74q-6 3 -17 7t-17 6q-153 -65 -152 -179q2 -73 57 -111q54 -38 140 -38zM1154 653q-72 1 -116 -33t-44 -87t47 -89t149 -66q132 61 132 149q0 58 -48 92t-120 34zM1160 -15q-110 1 -182 49q-70 48 -69 137q0 127 162 203
q-69 32 -101 68t-32 100t62 111q62 45 154 45t156 -44t64 -122q0 -104 -138 -173q88 -39 126 -81t39 -114t-65 -126q-66 -53 -176 -53zM1112 1229h59l-832 -1251h-62zM536 747q0 -91 -68 -147t-188 -56t-204 59v52h2q80 -65 211 -65q85 0 139 43t54 117t-51 112t-129 39h-75
v41h71q63 0 108 35t45 97t-46 98q-46 34 -138 34t-165 -54h-1v51q73 52 179 52t166 -45t60 -126q0 -110 -109 -159q139 -42 139 -178z" />
    <glyph glyph-name="fiveeighths" unicode="&#x215d;" horiz-adv-x="1482" 
d="M1166 28q86 0 137 40q53 40 51 102t-50 99q-48 38 -150 74q-6 3 -16 7t-17 6q-153 -65 -153 -179q2 -73 57 -111t141 -38zM1160 653q-72 1 -116 -33t-44 -87t47 -90t148 -65q132 61 132 149q0 58 -47 92t-120 34zM1164 -15q-110 1 -180 49t-70 137q0 127 162 203
q-68 32 -100 68t-32 100t61 111q61 45 155 45t156 -44q63 -44 64 -122q0 -104 -138 -173q88 -39 126 -81t39 -114t-65 -126q-68 -53 -178 -53zM1117 1229h60l-833 -1251h-61zM306 970q102 0 164 -56t62 -154q0 -99 -70 -158q-70 -58 -182 -58q-110 0 -209 48v52h2
q99 -54 196 -54t153 48t55 122t-51 119t-152 45t-185 -23l-1 2l26 339h391v-49h-345l-20 -240q65 17 166 17z" />
    <glyph glyph-name="seveneighths" unicode="&#x215e;" horiz-adv-x="1388" 
d="M1072 28q86 0 138 40t50 102t-49 99q-47 38 -150 74q-6 3 -17 7t-16 6q-153 -65 -153 -179q2 -73 57 -111q54 -38 140 -38zM907 533q0 -53 47 -90t148 -65q132 61 132 149q0 58 -47 92t-120 34t-117 -33q-43 -34 -43 -87zM1072 -15q-110 1 -181 49q-70 48 -70 137
q0 127 162 203q-69 32 -101 68t-31 100q0 64 61 111q60 45 154 45t157 -44t64 -122q0 -104 -138 -173q87 -39 125 -81t39 -114t-65 -126q-66 -53 -176 -53zM1024 1229h60l-833 -1251h-61zM50 1186v52h479v-22l-293 -657h-54l-3 1l285 626h-414z" />
    <glyph glyph-name="arrowleft" unicode="&#x2190;" horiz-adv-x="1048" 
d="M1018 652v-62h-884l337 -333l-43 -43l-406 408l406 408l43 -43l-335 -335h882z" />
    <glyph glyph-name="arrowup" unicode="&#x2191;" horiz-adv-x="1048" 
d="M495 47v1007l-335 -337l-43 41l408 406l406 -406l-41 -43l-333 337l-2 -1005h-60z" />
    <glyph glyph-name="arrowright" unicode="&#x2192;" horiz-adv-x="1048" 
d="M32 590v62h882l-335 335l43 43l406 -408l-406 -408l-43 43l337 333h-884z" />
    <glyph glyph-name="arrowdown" unicode="&#x2193;" horiz-adv-x="1048" 
d="M495 1164h60l2 -1006l333 337l41 -43l-406 -405l-408 405l43 41l335 -337v1008z" />
    <glyph glyph-name="uni2196" unicode="&#x2196;" horiz-adv-x="1048" 
d="M657 1046v-59l-473 2l780 -782l-42 -43l-782 780l1 -473h-59l2 575h573z" />
    <glyph glyph-name="uni2197" unicode="&#x2197;" horiz-adv-x="1048" 
d="M374 1026h574l2 -575h-60l2 472l-782 -780l-43 43l780 782l-473 -2v60z" />
    <glyph glyph-name="uni2198" unicode="&#x2198;" horiz-adv-x="1048" 
d="M374 171v60l473 -2l-780 782l43 43l782 -780l-2 473h60l-2 -576h-574z" />
    <glyph glyph-name="uni2199" unicode="&#x2199;" horiz-adv-x="1048" 
d="M657 162h-573l-2 575h59l-1 -473l782 780l42 -42l-780 -782l473 2v-60z" />
    <glyph glyph-name="minus" unicode="&#x2212;" horiz-adv-x="977" 
d="M153 518v55h672v-55h-672z" />
    <glyph glyph-name="approxequal" unicode="&#x2248;" horiz-adv-x="938" 
d="M639 357q99 0 100 90l2 2l45 -6q0 -65 -39 -102q-77 -73 -277 3q-107 40 -167 40q-101 0 -100 -90l-2 -2l-46 6q0 65 39 102q81 76 284 -3q106 -40 161 -40zM639 691q99 0 100 89l2 4l45 -8q0 -65 -39 -102t-105 -37t-172 41q-107 41 -167 41q-101 0 -100 -92l-2 -1
l-46 7q0 65 39 102q81 76 284 -3q106 -41 161 -41z" />
    <glyph glyph-name="notequal" unicode="&#x2260;" horiz-adv-x="984" 
d="M832 698h-212l-153 -326h365v-54h-391l-132 -281h-63l132 281h-223v54h249l153 326h-402v54h428l128 272h64l-129 -272h186v-54z" />
    <glyph glyph-name="uniF8FF" unicode="&#xf8ff;" horiz-adv-x="2701" 
d="M2035 28h13q7 0 7 6t-7 5h-13v-11zM2026 4v43h20q19 0 19 -13t-13 -14l11 -16h-11l-8 16h-9v-16h-9zM2044 -9q34 -1 34 33t-34 34t-33 -34q-1 -33 33 -33zM2044 -19q-45 0 -44 43q0 43 44 43t45 -43q0 -43 -45 -43zM1316 203q0 43 -39 43t-39 -58q0 -26 9 -54q29 0 49 22
t20 47zM1746 203h75q6 50 -32 50q-43 0 -43 -50zM1806 -9q-263 0 -263 227q0 110 61 172q62 62 168 62t163 -56t57 -160q0 -39 -5 -65h-231q20 -33 88 -33t107 22v-140q-43 -29 -145 -29zM1039 -82q0 264 19 525h145q13 -78 13 -141q32 151 149 150q69 0 109 -54t40 -156
q0 -251 -255 -251q2 -28 1 -73h-221zM1009 190q-1 -156 -63 -219q-62 -64 -198 -64t-186 32v154q44 -30 124 -30t101 33q7 10 6 19q-30 -20 -91 -20q-168 0 -168 154v25h-102l6 -121q11 -7 31 -7t30 9v-136q-35 -28 -123 -28q-88 -1 -122 31t-32 103q0 71 5 149h-33v149
l217 54l-1 -34h329v-221q0 -30 6 -40t22 -11q30 0 30 51v221h193q19 -97 19 -253zM2247 694q0 -52 41 -52t41 52t-43 53q-39 -1 -39 -53zM640 694q0 -52 43 -52t43 52t-45 53q-41 -1 -41 -53zM2290 957q225 0 225 -232t-228 -232t-228 232t231 232zM1553 503q0 326 18 445
h149q11 -82 11 -142q5 28 13 56t44 62t103 33q67 0 98 -47t35 -150l5 -257h-212l4 173q0 54 -28 54q-34 0 -34 -54l6 -173h-212zM689 957q231 0 231 -218v-236h-155l-15 113q-22 -123 -139 -123q-171 0 -172 213q0 251 250 251zM938 776v147l222 56l2 -31h331
q19 -119 19 -445h-220q0 171 6 273h-114l6 -121q8 -7 30 -7t31 9v-138q-25 -27 -126 -27q-153 0 -153 122l7 162h-41zM186 503q0 249 17 584h186q19 -372 19 -584h-222zM1400 972q-48 0 -81 34t-33 80q0 47 33 81t81 34t82 -34t34 -82q0 -49 -34 -81t-82 -32z" />
    <glyph glyph-name="Jacute" horiz-adv-x="633" 
d="M114 -6q-41 0 -88 6v56l4 2q30 -6 78 -6q136 0 204 83t68 230v864h63v-864q0 -179 -82.5 -275t-246.5 -96zM244 1307l-17 37l328 196l30 -51l-6 -13z" />
    <glyph glyph-name="G.002" horiz-adv-x="1310" 
d="M715 -19q-281 0 -441 171.5t-160 454.5t176.5 461t465.5 178q214 0 378 -77v-61l-4 -2q-93 45 -176 62.5t-200 17.5q-261 0 -417 -160t-156 -417t141.5 -412.5t392 -155.5t415.5 99v420h60v-459q-194 -120 -475 -120z" />
    <glyph glyph-name="M.002" horiz-adv-x="1599" 
d="M1326 1229l130 -1229h-61l-116 1080h-4l-463 -1069h-21l-465 1069h-4l-117 -1080h-62l131 1229h46l484 -1093l477 1093h45z" />
    <glyph glyph-name="i.loclTRK" horiz-adv-x="411" 
d="M173 0v961h65v-961h-65zM208 1184q-21 0 -38 17t-17 38t16.5 37t38 16t37.5 -16t16 -38t-16 -38t-37 -16z" />
    <glyph glyph-name="jacute" horiz-adv-x="443" 
d="M-2 -313q-34 0 -69 8v56l4 1q26 -6 56 -5q216 0 216 268v946h63v-957q0 -317 -270 -317zM117 1054l-24 33l278 252l46 -47l-4 -13z" />
    <glyph glyph-name="germandbls.calt" horiz-adv-x="1327" 
d="M870 -28q-175 0 -306 73v61l4 2q136 -80 289.5 -80t236.5 85.5t83 217.5q0 231 -220 295q-89 28 -244 24v17l315 497q-123 43 -255.5 42.5t-215 -26.5t-155 -82.5t-114.5 -162.5t-42 -254v-681h-64v685q0 162 48.5 279.5t131.5 180.5q159 121 379 121t367 -65v-15
l-304 -480q436 -11 436 -373q0 -160 -97.5 -260.5t-272.5 -100.5z" />
    <glyph glyph-name="a.ss01" horiz-adv-x="1148" 
d="M540 37q115 0 202.5 56t140.5 153v564q-108 114 -291 113.5t-300 -128t-117 -334t101.5 -315.5t263.5 -109zM1017 -13q-130 0 -131 151v31q-115 -190 -357 -189q-190 0 -305.5 123.5t-115.5 356.5t134 377t334 144t310 -106l8 86h52v-792q0 -67 19.5 -94.5t63 -28
t75.5 31.5l4 -2v-57q-35 -32 -91 -32z" />
    <glyph glyph-name="aacute.ss01" horiz-adv-x="1148" 
d="M540 37q115 0 202.5 56t140.5 153v564q-108 114 -291 113.5t-300 -128t-117 -334t101.5 -315.5t263.5 -109zM1017 -13q-130 0 -131 151v31q-115 -190 -357 -189q-190 0 -305.5 123.5t-115.5 356.5t134 377t334 144t310 -106l8 86h52v-792q0 -67 19.5 -94.5t63 -28
t75.5 31.5l4 -2v-57q-35 -32 -91 -32zM750 1279l-296 -225l-24 33l277 252l47 -47z" />
    <glyph glyph-name="abreve.ss01" horiz-adv-x="1148" 
d="M540 37q115 0 202.5 56t140.5 153v564q-108 114 -291 113.5t-300 -128t-117 -334t101.5 -315.5t263.5 -109zM1017 -13q-130 0 -131 151v31q-115 -190 -357 -189q-190 0 -305.5 123.5t-115.5 356.5t134 377t334 144t310 -106l8 86h52v-792q0 -67 19.5 -94.5t63 -28
t75.5 31.5l4 -2v-57q-35 -32 -91 -32zM572 1076q-100 0 -162 63.5t-62 171.5l45 5l2 -2q4 -84 54 -134t126 -50t126.5 49.5t52.5 133.5l2 3l43 -5q0 -108 -63.5 -171.5t-163.5 -63.5z" />
    <glyph glyph-name="acircumflex.ss01" horiz-adv-x="1148" 
d="M540 37q115 0 202.5 56t140.5 153v564q-108 114 -291 113.5t-300 -128t-117 -334t101.5 -315.5t263.5 -109zM1017 -13q-130 0 -131 151v31q-115 -190 -357 -189q-190 0 -305.5 123.5t-115.5 356.5t134 377t334 144t310 -106l8 86h52v-792q0 -67 19.5 -94.5t63 -28
t75.5 31.5l4 -2v-57q-35 -32 -91 -32zM572 1262l-194 -204l-30 29l211 242h29l214 -242l-29 -29z" />
    <glyph glyph-name="adieresis.ss01" horiz-adv-x="1148" 
d="M540 37q115 0 202.5 56t140.5 153v564q-108 114 -291 113.5t-300 -128t-117 -334t101.5 -315.5t263.5 -109zM1017 -13q-130 0 -131 151v31q-115 -190 -357 -189q-190 0 -305.5 123.5t-115.5 356.5t134 377t334 144t310 -106l8 86h52v-792q0 -67 19.5 -94.5t63 -28
t75.5 31.5l4 -2v-57q-35 -32 -91 -32zM735 1184q-21 0 -37.5 16t-16.5 37t16 36t37.5 15t37.5 -14.5t16 -36t-16 -37.5t-37 -16zM416 1184q-21 0 -36 16t-15 37t15 36t36 15t37 -14.5t16 -36t-16 -37.5t-37 -16z" />
    <glyph glyph-name="uni1EA1.ss01" horiz-adv-x="1148" 
d="M560 -168q21 0 37 -15.5t16 -38t-16 -38.5t-37 -16t-38 16t-17 38.5t17 38t38 15.5zM540 37q115 0 202.5 56t140.5 153v564q-108 114 -291 113.5t-300 -128t-117 -334t101.5 -315.5t263.5 -109zM1017 -13q-130 0 -131 151v31q-115 -190 -357 -189q-190 0 -305.5 123.5
t-115.5 356.5t134 377t334 144t310 -106l8 86h52v-792q0 -67 19.5 -94.5t63 -28t75.5 31.5l4 -2v-57q-35 -32 -91 -32z" />
    <glyph glyph-name="agrave.ss01" horiz-adv-x="1148" 
d="M540 37q115 0 202.5 56t140.5 153v564q-108 114 -291 113.5t-300 -128t-117 -334t101.5 -315.5t263.5 -109zM1017 -13q-130 0 -131 151v31q-115 -190 -357 -189q-190 0 -305.5 123.5t-115.5 356.5t134 377t334 144t310 -106l8 86h52v-792q0 -67 19.5 -94.5t63 -28
t75.5 31.5l4 -2v-57q-35 -32 -91 -32zM683 1054l-298 225l-1 13l46 47l277 -252z" />
    <glyph glyph-name="amacron.ss01" horiz-adv-x="1148" 
d="M540 37q115 0 202.5 56t140.5 153v564q-108 114 -291 113.5t-300 -128t-117 -334t101.5 -315.5t263.5 -109zM1017 -13q-130 0 -131 151v31q-115 -190 -357 -189q-190 0 -305.5 123.5t-115.5 356.5t134 377t334 144t310 -106l8 86h52v-792q0 -67 19.5 -94.5t63 -28
t75.5 31.5l4 -2v-57q-35 -32 -91 -32zM821 1221v-52h-497v52h497z" />
    <glyph glyph-name="aogonek.ss01" horiz-adv-x="1148" 
d="M540 37q115 0 202.5 56t140.5 153v564q-108 114 -291 113.5t-300 -128t-117 -334t101.5 -315.5t263.5 -109zM894 -251q0 -102 115 -103q34 0 56 8l6 -4v-43q-32 -13 -94.5 -13t-105 38t-42.5 105q0 134 167 252q-110 9 -110 149v31q-115 -190 -357 -189
q-190 0 -305.5 123.5t-115.5 356.5t134 377t334 144t310 -106l8 86h52v-792q0 -67 19.5 -94.5t63 -27.5t75.5 31l4 -2v-57q-11 -11 -26 -17q-188 -125 -188 -253z" />
    <glyph glyph-name="aring.ss01" horiz-adv-x="1148" 
d="M540 37q115 0 202.5 56t140.5 153v564q-108 114 -291 113.5t-300 -128t-117 -334t101.5 -315.5t263.5 -109zM1017 -13q-130 0 -131 151v31q-115 -190 -357 -189q-190 0 -305.5 123.5t-115.5 356.5t134 377t334 144t310 -106l8 86h52v-792q0 -67 19.5 -94.5t63 -28
t75.5 31.5l4 -2v-57q-35 -32 -91 -32zM573.5 1301q-44.5 0 -72.5 -29.5t-28 -72.5t28 -72.5t72.5 -29.5t73.5 29.5t29 72.5t-29 72.5t-73.5 29.5zM574 1056q-64 0 -105 41.5t-41 102t41 101.5t105 41t104.5 -41t40.5 -102t-40.5 -102t-104.5 -41z" />
    <glyph glyph-name="aringacute.ss01" horiz-adv-x="1148" 
d="M540 37q115 0 202.5 56t140.5 153v564q-108 114 -291 113.5t-300 -128t-117 -334t101.5 -315.5t263.5 -109zM1017 -13q-130 0 -131 151v31q-115 -190 -357 -189q-190 0 -305.5 123.5t-115.5 356.5t134 377t334 144t310 -106l8 86h52v-792q0 -67 19.5 -94.5t63 -28
t75.5 31.5l4 -2v-57q-35 -32 -91 -32zM573.5 1301q-44.5 0 -72.5 -29.5t-28 -72.5t28 -72.5t72.5 -29.5t73.5 29.5t29 72.5t-29 72.5t-73.5 29.5zM574 1056q-64 0 -105 41.5t-41 102t41 101.5t101.5 41t97.5 -31l250 227l46 -47l-3 -13l-263 -201q20 -35 20.5 -87t-40 -93
t-104.5 -41z" />
    <glyph glyph-name="atilde.ss01" horiz-adv-x="1148" 
d="M540 37q115 0 202.5 56t140.5 153v564q-108 114 -291 113.5t-300 -128t-117 -334t101.5 -315.5t263.5 -109zM1017 -13q-130 0 -131 151v31q-115 -190 -357 -189q-190 0 -305.5 123.5t-115.5 356.5t134 377t334 144t310 -106l8 86h52v-792q0 -67 19.5 -94.5t63 -28
t75.5 31.5l4 -2v-57q-35 -32 -91 -32zM431 1277q55 0 149 -40t132 -40t62.5 22.5t24.5 65.5l2 3l46 -9q0 -63 -36 -100.5t-89 -37.5t-146.5 40t-134 40t-65 -23t-24.5 -64l-2 -4l-47 9q0 61 36.5 99.5t91.5 38.5z" />
    <glyph glyph-name="d.ss01" horiz-adv-x="1161" 
d="M542 37q231 0 342 207v570q-114 110 -295.5 109.5t-297.5 -126t-116 -331.5t103.5 -317.5t263.5 -111.5zM888 138v31q-112 -190 -357 -189q-188 0 -305.5 126.5t-117.5 358t133 374t332.5 142.5t310.5 -98v439h66v-1153q0 -67 19.5 -94.5t62 -28t74.5 33.5l4 -2v-58
q-37 -34 -101 -33.5t-92.5 38.5t-28.5 113z" />
    <glyph glyph-name="dcaron.ss01" horiz-adv-x="1174" 
d="M542 37q231 0 342 207v570q-114 110 -295.5 109.5t-297.5 -126t-116 -331.5t103.5 -317.5t263.5 -111.5zM1031 47q43 0 75 33l4 -2v-58q-37 -34 -101 -33.5t-92.5 38.5t-28.5 113v31q-112 -190 -357 -189q-188 0 -305.5 126.5t-117.5 358t133 374t332.5 142.5t310.5 -98
v439h66v-1153q0 -67 19 -94.5t62 -27.5zM1167 1329l12 -13l-36 -352h-41l17 365h48z" />
    <glyph glyph-name="dcroat.ss01" horiz-adv-x="1161" 
d="M175 466q0 -206 103.5 -317.5t263.5 -111.5q230 0 342 207v570q-114 110 -295.5 109.5t-297.5 -126t-116 -331.5zM950 1112v-943q0 -67 19.5 -94.5t62 -27.5t74.5 33l4 -2v-58q-37 -34 -101 -33.5t-92.5 38.5t-28.5 113v31q-112 -190 -357 -189q-188 0 -305.5 126.5
t-117.5 358t133 374t332.5 142.5t310.5 -98v229h-206v50h206v160h66v-160h178v-50h-178z" />
    <glyph glyph-name="g.ss01" horiz-adv-x="1118" 
d="M588.5 923q-184.5 0 -300 -118t-115.5 -313.5t102.5 -304.5t262.5 -109q233 0 343 209v528q-108 108 -292.5 108zM946 964v-884q0 -190 -111 -291.5t-320.5 -101.5t-339.5 91v67l4 2q125 -101 329 -100q372 0 373 333v121q-115 -181 -354 -181q-186 0 -302.5 123
t-116.5 345.5t134 357.5t333.5 135t312.5 -104l9 87h49z" />
    <glyph glyph-name="gbreve.ss01" horiz-adv-x="1118" 
d="M588.5 923q-184.5 0 -300 -118t-115.5 -313.5t102.5 -304.5t262.5 -109q233 0 343 209v528q-108 108 -292.5 108zM946 964v-884q0 -190 -111 -291.5t-320.5 -101.5t-339.5 91v67l4 2q125 -101 329 -100q372 0 373 333v121q-115 -181 -354 -181q-186 0 -302.5 123
t-116.5 345.5t134 357.5t333.5 135t312.5 -104l9 87h49zM563 1076q-100 0 -162 63.5t-62 171.5l45 5l1 -2q4 -84 54.5 -134t126.5 -50t126.5 49.5t52.5 133.5l2 3l42 -5q0 -108 -63 -171.5t-163 -63.5z" />
    <glyph glyph-name="gcaron.ss01" horiz-adv-x="1118" 
d="M588.5 923q-184.5 0 -300 -118t-115.5 -313.5t102.5 -304.5t262.5 -109q233 0 343 209v528q-108 108 -292.5 108zM946 964v-884q0 -190 -111 -291.5t-320.5 -101.5t-339.5 91v67l4 2q125 -101 329 -100q372 0 373 333v121q-115 -181 -354 -181q-186 0 -302.5 123
t-116.5 345.5t134 357.5t333.5 135t312.5 -104l9 87h49zM583 1059h-30l-214 244l30 26l201 -203l193 203l30 -26z" />
    <glyph glyph-name="gcircumflex.ss01" horiz-adv-x="1118" 
d="M588.5 923q-184.5 0 -300 -118t-115.5 -313.5t102.5 -304.5t262.5 -109q233 0 343 209v528q-108 108 -292.5 108zM946 964v-884q0 -190 -111 -291.5t-320.5 -101.5t-339.5 91v67l4 2q125 -101 329 -100q372 0 373 333v121q-115 -181 -354 -181q-186 0 -302.5 123
t-116.5 345.5t134 357.5t333.5 135t312.5 -104l9 87h49zM562 1262l-193 -204l-30 29l210 242h30l214 -242l-30 -29z" />
    <glyph glyph-name="gcommaaccent.ss01" horiz-adv-x="1118" 
d="M588.5 923q-184.5 0 -300 -118t-115.5 -313.5t102.5 -304.5t262.5 -109q233 0 343 209v528q-108 108 -292.5 108zM946 964v-884q0 -190 -111 -291.5t-320.5 -101.5t-339.5 91v67l4 2q125 -101 329 -100q372 0 373 333v121q-115 -181 -354 -181q-186 0 -302.5 123
t-116.5 345.5t134 357.5t333.5 135t312.5 -104l9 87h49zM611 1112l2 -54l-62 -6l-7 9q0 151 61 296h43q-37 -119 -37 -245z" />
    <glyph glyph-name="gdotaccent.ss01" horiz-adv-x="1118" 
d="M588.5 923q-184.5 0 -300 -118t-115.5 -313.5t102.5 -304.5t262.5 -109q233 0 343 209v528q-108 108 -292.5 108zM946 964v-884q0 -190 -111 -291.5t-320.5 -101.5t-339.5 91v67l4 2q125 -101 329 -100q372 0 373 333v121q-115 -181 -354 -181q-186 0 -302.5 123
t-116.5 345.5t134 357.5t333.5 135t312.5 -104l9 87h49zM565 1184q-21 0 -38 17t-17 38t17 37t38 16t37 -16t16 -38t-16 -38t-37 -16z" />
    <glyph glyph-name="l.ss01" horiz-adv-x="452" 
d="M233 177q1 -132 99 -132q48 0 85 26l4 -2v-58q-38 -26 -90 -26q-162 0 -162 166v1171h64v-1145z" />
    <glyph glyph-name="lacute.ss01" horiz-adv-x="452" 
d="M233 177q1 -132 99 -132q48 0 85 26l4 -2v-58q-38 -26 -90 -26q-162 0 -162 166v1171h64v-1145zM39 1383l-17 38l328 195l30 -50l-6 -13z" />
    <glyph glyph-name="lcaron.ss01" horiz-adv-x="458" 
d="M331 -15q-162 0 -162 166v1171h64v-1145q0 -71 25 -101q26 -30 76 -30.5t83 25.5l4 -2v-58q-38 -26 -90 -26zM367 964l17 365h50l11 -13l-35 -352h-43z" />
    <glyph glyph-name="lcommaaccent.ss01" horiz-adv-x="452" 
d="M264 -151l-1 54l61 6l7 -10q0 -151 -61 -296h-43q37 119 37 246zM233 177q1 -132 99 -132q48 0 85 26l4 -2v-58q-38 -26 -90 -26q-162 0 -162 166v1171h64v-1145z" />
    <glyph glyph-name="ldot.ss01" horiz-adv-x="491" 
d="M446.5 618q-22.5 0 -36 14t-13.5 36t13.5 35.5t36 13.5t37.5 -14t15 -35t-15 -35.5t-37.5 -14.5zM331 -15q-162 0 -162 166v1171h64v-1145q0 -71 25 -101q26 -30 76 -30.5t83 25.5l4 -2v-58q-38 -26 -90 -26z" />
    <glyph glyph-name="lslash.ss01" horiz-adv-x="543" 
d="M285 177q0 -132 100 -132q50 0 84 26l4 -2v-58q-37 -26 -89 -26q-162 0 -162 166v469l-144 -88h-5v56l149 92v642h63v-603l143 87h6v-56l-149 -91v-482z" />
    <glyph glyph-name="y.ss01" horiz-adv-x="949" 
d="M903 961l2 -4l-538 -1257h-67l-2 6l145 309l-395 942l2 4h69l358 -875l363 875h63z" />
    <glyph glyph-name="yacute.ss01" horiz-adv-x="949" 
d="M903 961l2 -4l-538 -1257h-67l-2 6l145 309l-395 942l2 4h69l358 -875l363 875h63zM661 1279l-296 -225l-24 33l277 252l47 -47z" />
    <glyph glyph-name="ycircumflex.ss01" horiz-adv-x="949" 
d="M903 961l2 -4l-538 -1257h-67l-2 6l145 309l-395 942l2 4h69l358 -875l363 875h63zM482 1262l-193 -204l-30 29l210 242h30l214 -242l-30 -29z" />
    <glyph glyph-name="ydieresis.ss01" horiz-adv-x="949" 
d="M903 961l2 -4l-538 -1257h-67l-2 6l145 309l-395 942l2 4h69l358 -875l363 875h63zM645 1184q-21 0 -37 16t-16 37t16 36t37 15t37 -14.5t16 -36t-16 -37.5t-37 -16zM327 1184q-21 0 -36 16t-15 37t14.5 36t36 15t37.5 -14.5t16 -36t-16 -37.5t-37 -16z" />
    <glyph glyph-name="ygrave.ss01" horiz-adv-x="949" 
d="M903 961l2 -4l-538 -1257h-67l-2 6l145 309l-395 942l2 4h69l358 -875l363 875h63zM594 1054l-298 225l-2 13l47 47l277 -252z" />
    <glyph glyph-name="uni1EF9.ss01" horiz-adv-x="949" 
d="M903 961l2 -4l-538 -1257h-67l-2 6l145 309l-395 942l2 4h69l358 -875l363 875h63zM342 1277q55 0 149 -40t132 -40t62 22.5t24 65.5l2 3l47 -9q0 -63 -36.5 -100.5t-89.5 -37.5t-146 40t-134 40t-65 -23t-24 -64l-2 -4l-47 9q0 61 36.5 99.5t91.5 38.5z" />
    <glyph glyph-name="g.ss02" horiz-adv-x="943" 
d="M160 671q0 -116 83 -184t214 -68t215 68t84 184t-84 184t-215 68t-214 -68t-83 -184zM873 -62.5q0 -125.5 -116.5 -190t-323 -64.5t-353.5 68v61l4 2q158 -71 340 -71q386 0 386 199q0 89 -65 127.5t-248.5 52.5t-252.5 47.5t-69 110.5t74 130q-155 82 -154 260
q0 143 101.5 227t243 84t230.5 -50l132 156l47 -46l-142 -136q114 -84 114 -230.5t-103.5 -229t-261.5 -82.5q-84 0 -158 26q-61 -43 -61.5 -98t59.5 -76t238.5 -35t258.5 -65.5t80 -177z" />
    <glyph glyph-name="gbreve.ss02" horiz-adv-x="943" 
d="M160 671q0 -116 83 -184t214 -68t215 68t84 184t-84 184t-215 68t-214 -68t-83 -184zM873 -62.5q0 -125.5 -116.5 -190t-323 -64.5t-353.5 68v61l4 2q158 -71 340 -71q386 0 386 199q0 89 -65 127.5t-248.5 52.5t-252.5 47.5t-69 110.5t74 130q-155 82 -154 260
q0 143 101.5 227t243 84t230.5 -50l132 156l47 -46l-142 -136q114 -84 114 -230.5t-103.5 -229t-261.5 -82.5q-84 0 -158 26q-61 -43 -61.5 -98t59.5 -76t238.5 -35t258.5 -65.5t80 -177zM437 1080q-100 0 -162.5 63t-62.5 171l45 6l2 -2q4 -84 54 -134t126.5 -50
t126.5 49.5t52 132.5l2 4l43 -6q0 -108 -63 -171t-163 -63z" />
    <glyph glyph-name="gcaron.ss02" horiz-adv-x="943" 
d="M160 671q0 -116 83 -184t214 -68t215 68t84 184t-84 184t-215 68t-214 -68t-83 -184zM873 -62.5q0 -125.5 -116.5 -190t-323 -64.5t-353.5 68v61l4 2q158 -71 340 -71q386 0 386 199q0 89 -65 127.5t-248.5 52.5t-252.5 47.5t-69 110.5t74 130q-155 82 -154 260
q0 143 101.5 227t243 84t230.5 -50l132 156l47 -46l-142 -136q114 -84 114 -230.5t-103.5 -229t-261.5 -82.5q-84 0 -158 26q-61 -43 -61.5 -98t59.5 -76t238.5 -35t258.5 -65.5t80 -177zM456 1063h-30l-214 244l30 26l201 -203l194 203l30 -26z" />
    <glyph glyph-name="gcircumflex.ss02" horiz-adv-x="943" 
d="M160 671q0 -116 83 -184t214 -68t215 68t84 184t-84 184t-215 68t-214 -68t-83 -184zM873 -62.5q0 -125.5 -116.5 -190t-323 -64.5t-353.5 68v61l4 2q158 -71 340 -71q386 0 386 199q0 89 -65 127.5t-248.5 52.5t-252.5 47.5t-69 110.5t74 130q-155 82 -154 260
q0 143 101.5 227t243 84t230.5 -50l132 156l47 -46l-142 -136q114 -84 114 -230.5t-103.5 -229t-261.5 -82.5q-84 0 -158 26q-61 -43 -61.5 -98t59.5 -76t238.5 -35t258.5 -65.5t80 -177zM436 1266l-194 -205l-30 30l211 242h29l215 -242l-30 -30z" />
    <glyph glyph-name="gcommaaccent.ss02" horiz-adv-x="943" 
d="M160 671q0 -116 83 -184t214 -68t215 68t84 184t-84 184t-215 68t-214 -68t-83 -184zM873 -62.5q0 -125.5 -116.5 -190t-323 -64.5t-353.5 68v61l4 2q158 -71 340 -71q386 0 386 199q0 89 -65 127.5t-248.5 52.5t-252.5 47.5t-69 110.5t74 130q-155 82 -154 260
q0 143 101.5 227t243 84t230.5 -50l132 156l47 -46l-142 -136q114 -84 114 -230.5t-103.5 -229t-261.5 -82.5q-84 0 -158 26q-61 -43 -61.5 -98t59.5 -76t238.5 -35t258.5 -65.5t80 -177zM484 1115l2 -54l-62 -5l-7 9q0 151 61 296h43q-37 -119 -37 -246z" />
    <glyph glyph-name="gdotaccent.ss02" horiz-adv-x="943" 
d="M160 671q0 -116 83 -184t214 -68t215 68t84 184t-84 184t-215 68t-214 -68t-83 -184zM873 -62.5q0 -125.5 -116.5 -190t-323 -64.5t-353.5 68v61l4 2q158 -71 340 -71q386 0 386 199q0 89 -65 127.5t-248.5 52.5t-252.5 47.5t-69 110.5t74 130q-155 82 -154 260
q0 143 101.5 227t243 84t230.5 -50l132 156l47 -46l-142 -136q114 -84 114 -230.5t-103.5 -229t-261.5 -82.5q-84 0 -158 26q-61 -43 -61.5 -98t59.5 -76t238.5 -35t258.5 -65.5t80 -177zM439 1188q-21 0 -38 16.5t-17 38t16.5 37.5t38 16t37.5 -16t16 -38t-16 -38t-37 -16z
" />
    <glyph glyph-name="f_t" horiz-adv-x="1225" 
d="M1026 -7q-248 0 -248 255v657h-508v-905h-65v905h-134v56h134v69q0 147 77 222t193 75q71 0 117 -24v-56l-4 -1q-43 24 -122 24t-137.5 -59t-58.5 -174v-76h508v238l60 13l4 -2v-249h364v-56h-364v-648q0 -207 197 -207q102 1 171 51l4 -2v-56q-71 -50 -188 -50z" />
    <glyph glyph-name="f_y" horiz-adv-x="1480" 
d="M704 -313q-28 0 -99 11v56l4 2q48 -11 87 -11q104 0 163 58.5t115 194.5l5 15l-406 894h-303v-907h-65v907h-134v54h134v69q0 147 77 222t193 75q71 0 117 -24v-56l-4 -1q-43 24 -122 24t-137.5 -59t-58.5 -174v-76h352l391 -872l355 872h66l1 -4l-404 -968
q-69 -166 -135 -234t-192 -68z" />
    <glyph glyph-name="t_t" horiz-adv-x="1360" 
d="M1164 -7q-249 0 -250 255v657h-584v-648q0 -207 195 -207q106 0 171 51l6 -2v-56q-74 -50 -188 -50q-249 0 -250 255v657h-208v56h208v238l60 13l6 -2v-249h584v238l60 13l5 -2v-249h363v-56h-363v-648q0 -207 196 -207q104 1 173 51l4 -2v-56q-74 -50 -188 -50z" />
    <glyph glyph-name="L_periodcentered_L.loclCAT" horiz-adv-x="1783" 
d="M683 732q23 0 37 -14t14 -36t-14 -35q-14 -14 -38 -14q-23 0 -37 15t-14 35q0 21 15 35t37 14zM1160 56h596v-56h-659v1229h63v-1173zM268 1229v-1173h596v-56h-659v1229h63z" />
    <glyph glyph-name="l_periodcentered_l.loclCAT" horiz-adv-x="878" 
d="M443 618q-24 0 -38 14t-14 36t15 35.5t37 13.5t36 -14t14 -36q0 -49 -50 -49zM640 0v1322h66v-1322h-66zM181 0v1322h65v-1322h-65z" />
    <glyph glyph-name="l_periodcentered_l.loclCAT.ss01" horiz-adv-x="942" 
d="M446.5 618q-22.5 0 -36 14t-13.5 34.5t13.5 35.5t36 15t37.5 -14t15 -35t-15 -35.5t-37.5 -14.5zM724 177q0 -132 99 -132q48 0 86 26l3 -2v-58q-37 -26 -89 -26q-162 0 -162 166v1171h63v-1145zM233 177q1 -132 99 -132q48 0 85 26l4 -2v-58q-38 -26 -90 -26
q-162 0 -162 166v1171h64v-1145z" />
    <glyph glyph-name="germandbls.smcp.calt" horiz-adv-x="1225" 
d="M788 34q264 0 264 235q0 220 -345 226q-43 0 -65 -2l-7 2l296 406q-89 35 -229 35q-445 0 -445 -452v-484h-65v484q0 149 44 254q46 105 124 159q147 101 341 101t325 -63v-2l-285 -384q380 0 380 -294q0 -125 -82 -203t-236 -78t-261 58v65l2 2q108 -65 244 -65z" />
    <glyph glyph-name="a.smcp" horiz-adv-x="1035" 
d="M263 356h506l-253 569h-4zM931 0l-136 298h-557l-132 -298h-65l441 985h65l453 -985h-69z" />
    <glyph glyph-name="aacute.smcp" horiz-adv-x="1035" 
d="M263 356h506l-253 569h-4zM931 0l-136 298h-557l-132 -298h-65l441 985h65l453 -985h-69zM681 1303l-296 -225l-24 34l278 251l46 -47z" />
    <glyph glyph-name="abreve.smcp" horiz-adv-x="1035" 
d="M263 356h506l-253 569h-4zM931 0l-136 298h-557l-132 -298h-65l441 985h65l453 -985h-69zM504 1100q-100 0 -162.5 63.5t-62.5 171.5l45 6l2 -2q4 -84 54 -134.5t126.5 -50.5t126.5 49.5t52 133.5l2 4l43 -6q0 -108 -63 -171.5t-163 -63.5z" />
    <glyph glyph-name="acircumflex.smcp" horiz-adv-x="1035" 
d="M263 356h506l-253 569h-4zM931 0l-136 298h-557l-132 -298h-65l441 985h65l453 -985h-69zM503 1287l-194 -205l-30 30l211 242h29l215 -242l-30 -30z" />
    <glyph glyph-name="adieresis.smcp" horiz-adv-x="1035" 
d="M263 356h506l-253 569h-4zM931 0l-136 298h-557l-132 -298h-65l441 985h65l453 -985h-69zM666 1208q-21 0 -37 16t-16 37t15.5 36.5t37 15.5t37.5 -15t16 -36.5t-16 -37.5t-37 -16zM347 1208q-21 0 -36 16t-15 37t15 36.5t36 15.5t37 -15t16 -36.5t-16 -37.5t-37 -16z
" />
    <glyph glyph-name="uni1EA1.smcp" horiz-adv-x="1035" 
d="M511 -168q21 0 37 -15.5t16 -38t-16 -38.5t-37 -16t-38 16t-17 38.5t17 38t38 15.5zM263 356h506l-253 569h-4zM1000 0h-69l-136 298h-557l-132 -298h-65l441 985h65z" />
    <glyph glyph-name="agrave.smcp" horiz-adv-x="1035" 
d="M263 356h506l-253 569h-4zM931 0l-136 298h-557l-132 -298h-65l441 985h65l453 -985h-69zM614 1078l-297 225l-2 13l46 47l278 -251z" />
    <glyph glyph-name="amacron.smcp" horiz-adv-x="1035" 
d="M263 356h506l-253 569h-4zM931 0l-136 298h-557l-132 -298h-65l441 985h65l453 -985h-69zM752 1246v-53h-497v53h497z" />
    <glyph glyph-name="aogonek.smcp" horiz-adv-x="1035" 
d="M263 356h506l-253 569h-4zM909 -354q34 0 55 8l6 -4v-43q-32 -13 -94 -13t-105 38t-43 105q0 145 199 272l-132 289h-557l-132 -298h-65l441 985h65l453 -985h-23q-184 -125 -184 -251q1 -103 116 -103z" />
    <glyph glyph-name="aring.smcp" horiz-adv-x="1035" 
d="M263 356h506l-253 569h-4zM931 0l-136 298h-557l-132 -298h-65l441 985h65l453 -985h-69zM504.5 1326q-44.5 0 -72.5 -30t-28 -73t28 -72.5t72.5 -29.5t73.5 29.5t29 72.5t-29 73t-73.5 30zM507 1080q-63 0 -105.5 41t-42.5 102.5t41 102.5t105.5 41t104.5 -41t40 -102.5
t-40 -102.5t-103 -41z" />
    <glyph glyph-name="aringacute.smcp" horiz-adv-x="1035" 
d="M263 356h506l-253 569h-4zM931 0l-136 298h-557l-132 -298h-65l441 985h65l453 -985h-69zM504.5 1326q-44.5 0 -72.5 -30t-28 -73t28 -72.5t72.5 -29.5t73.5 29.5t29 72.5t-29 73t-73.5 30zM507 1080q-63 0 -105.5 41t-42.5 102.5t41 102.5t101 41t100 -32l254 229
l46 -47l-4 -13l-268 -204q20 -32 20.5 -85t-39.5 -94t-103 -41z" />
    <glyph glyph-name="atilde.smcp" horiz-adv-x="1035" 
d="M263 356h506l-253 569h-4zM931 0l-136 298h-557l-132 -298h-65l441 985h65l453 -985h-69zM362 1301q55 0 149 -40t132 -40t62.5 22.5t24.5 65.5l2 4l46 -10q0 -63 -36 -100.5t-89 -37.5t-146.5 40.5t-134 40.5t-65 -23.5t-24.5 -64.5l-2 -4l-46 10q0 61 36 99t91 38z" />
    <glyph glyph-name="ae.smcp" horiz-adv-x="1271" 
d="M653 361v570h-1l-80 -136l-265 -434h346zM1188 987v-60h-473v-409h443v-58h-443v-404h497v-56h-559v303h-381l-192 -303h-63l607 987h564z" />
    <glyph glyph-name="aeacute.smcp" horiz-adv-x="1271" 
d="M653 361v570h-1l-80 -136l-265 -434h346zM1188 987v-60h-473v-409h443v-58h-443v-404h497v-56h-559v303h-381l-192 -303h-63l607 987h564zM592 1080l-24 33l277 252l47 -47l-4 -13z" />
    <glyph glyph-name="b.smcp" horiz-adv-x="917" 
d="M464 54q147 0 217.5 60.5t70.5 159t-70.5 156.5t-193.5 58h-246v-434h222zM242 544h229q93 0 159 52t66 145q0 195 -281 195q-95 0 -173 -7v-385zM413 992q173 0 260 -64t87 -178q0 -166 -166 -225q102 -20 162.5 -86.5t60.5 -161.5q0 -128 -90 -203.5t-271 -75.5l-275 2
v981q127 11 232 11z" />
    <glyph glyph-name="c.smcp" horiz-adv-x="994" 
d="M620 -20q-233 0 -374.5 139.5t-141.5 370.5t145.5 373t372.5 142q160 0 296 -54v-57l-6 -2q-125 56 -285 56q-201 0 -328.5 -126t-127.5 -330t123 -329.5t332 -125.5q168 0 292 60l4 -2v-56q-125 -59 -302 -59z" />
    <glyph glyph-name="cacute.smcp" horiz-adv-x="994" 
d="M620 -20q-233 0 -374.5 139.5t-141.5 370.5t145.5 373t372.5 142q160 0 296 -54v-57l-6 -2q-125 56 -285 56q-201 0 -328.5 -126t-127.5 -330t123 -329.5t332 -125.5q168 0 292 60l4 -2v-56q-125 -59 -302 -59zM484 1078l-24 34l277 251l47 -47l-4 -13z" />
    <glyph glyph-name="ccaron.smcp" horiz-adv-x="994" 
d="M620 -20q-233 0 -374.5 139.5t-141.5 370.5t145.5 373t372.5 142q160 0 296 -54v-57l-6 -2q-125 56 -285 56q-201 0 -328.5 -126t-127.5 -330t123 -329.5t332 -125.5q168 0 292 60l4 -2v-56q-125 -59 -302 -59zM592 1084l-214 243l30 27l201 -203l193 203l30 -27
l-210 -243h-30z" />
    <glyph glyph-name="ccedilla.smcp" horiz-adv-x="994" 
d="M808 -250.5q0 -77.5 -55 -119t-130 -41.5t-122 20v45l4 2q37 -19 98 -19q145 0 145 117q0 99 -104 99q-58 0 -97 -19l-1 4v39l59 103q-227 6 -364 145t-137 367.5t145.5 370.5t372.5 142q160 0 296 -54v-57l-6 -2q-125 56 -285 56q-201 0 -328.5 -126t-127.5 -330
t123 -329.5t332 -125.5q168 0 292 60l4 -2v-56q-119 -56 -269 -59l-52 -90q34 7 80.5 7.5t86.5 -35t40 -113z" />
    <glyph glyph-name="ccircumflex.smcp" horiz-adv-x="994" 
d="M620 -20q-233 0 -374.5 139.5t-141.5 370.5t145.5 373t372.5 142q160 0 296 -54v-57l-6 -2q-125 56 -285 56q-201 0 -328.5 -126t-127.5 -330t123 -329.5t332 -125.5q168 0 292 60l4 -2v-56q-125 -59 -302 -59zM408 1082l-30 30l210 242h30l214 -242l-30 -30l-201 205z
" />
    <glyph glyph-name="cdotaccent.smcp" horiz-adv-x="994" 
d="M620 -20q-233 0 -374.5 139.5t-141.5 370.5t145.5 373t372.5 142q160 0 296 -54v-57l-6 -2q-125 56 -285 56q-201 0 -328.5 -126t-127.5 -330t123 -329.5t332 -125.5q168 0 292 60l4 -2v-56q-125 -59 -302 -59zM603.5 1208q-22.5 0 -38.5 16t-16 38t17 38t38 16t37 -16
t16 -38t-15.5 -38t-38 -16z" />
    <glyph glyph-name="d.smcp" horiz-adv-x="1187" 
d="M497 52q255 0 387 116q132 118 131.5 326t-134 326t-395.5 116q-125 0 -242 -9v-871q95 -4 253 -4zM484 994q300 0 449 -131t148 -369t-151 -368t-437 -130q-212 0 -312 4v983q292 11 303 11z" />
    <glyph glyph-name="eth.smcp" horiz-adv-x="1204" 
d="M514 52q255 0 386 116q131 118 131 326t-133 326t-395 116q-125 0 -242 -9v-408h219v-50h-219v-413q95 -4 253 -4zM501 994q300 0 448.5 -131t148.5 -369t-150.5 -368t-437.5 -130q-212 0 -313 4v469h-171v50h171v464q295 11 304 11z" />
    <glyph glyph-name="dcaron.smcp" horiz-adv-x="1187" 
d="M497 52q255 0 387 116q132 118 131.5 326t-134 326t-395.5 116q-125 0 -242 -9v-871q95 -4 253 -4zM484 994q300 0 449 -131t148 -369t-151 -368t-437 -130q-212 0 -312 4v983q292 11 303 11zM590 1084h-30l-214 243l30 27l201 -203l194 203l30 -27z" />
    <glyph glyph-name="dcroat.smcp" horiz-adv-x="1204" 
d="M514 52q255 0 386 116q131 118 131 326t-133 326t-395 116q-125 0 -242 -9v-408h219v-50h-219v-413q95 -4 253 -4zM501 994q300 0 448.5 -131t148.5 -369t-150.5 -368t-437.5 -130q-212 0 -313 4v469h-171v50h171v464q295 11 304 11z" />
    <glyph glyph-name="e.smcp" horiz-adv-x="878" 
d="M181 0v985h582v-56h-519v-393h490v-58h-490v-422h544v-56h-607z" />
    <glyph glyph-name="eacute.smcp" horiz-adv-x="878" 
d="M181 0v985h582v-56h-519v-393h490v-58h-490v-422h544v-56h-607zM359 1078l-24 34l278 251l46 -47l-4 -13z" />
    <glyph glyph-name="ebreve.smcp" horiz-adv-x="878" 
d="M181 0v985h582v-56h-519v-393h490v-58h-490v-422h544v-56h-607zM477 1100q-100 0 -162 63.5t-62 171.5l45 6l2 -2q4 -84 54 -134.5t126 -50.5t126.5 49.5t52.5 133.5l2 4l43 -6q0 -108 -63.5 -171.5t-163.5 -63.5z" />
    <glyph glyph-name="ecaron.smcp" horiz-adv-x="878" 
d="M181 0v985h582v-56h-519v-393h490v-58h-490v-422h544v-56h-607zM467 1084l-214 243l30 27l201 -203l194 203l29 -27l-210 -243h-30z" />
    <glyph glyph-name="ecircumflex.smcp" horiz-adv-x="878" 
d="M181 0v985h582v-56h-519v-393h490v-58h-490v-422h544v-56h-607zM283 1082l-30 30l211 242h29l214 -242l-29 -30l-201 205z" />
    <glyph glyph-name="edieresis.smcp" horiz-adv-x="878" 
d="M181 0v985h582v-56h-519v-393h490v-58h-490v-422h544v-56h-607zM640 1208q-21 0 -37.5 16t-16.5 37t16 36.5t37.5 15.5t37.5 -15t16 -36.5t-16 -37.5t-37 -16zM321 1208q-21 0 -36 16t-15 37t15 36.5t36 15.5t37 -15t16 -36.5t-16 -37.5t-37 -16z" />
    <glyph glyph-name="edotaccent.smcp" horiz-adv-x="878" 
d="M181 0v985h582v-56h-519v-393h490v-58h-490v-422h544v-56h-607zM479 1208q-21 0 -38 16t-17 38t17 38t38 16t37 -15.5t16 -38t-16 -38.5t-37 -16z" />
    <glyph glyph-name="uni1EB9.smcp" horiz-adv-x="878" 
d="M493 -276q-21 0 -38 16t-17 38.5t16.5 38t38 15.5t37.5 -15.5t16 -38t-16 -38.5t-37 -16zM181 0v985h582v-56h-519v-393h490v-58h-490v-422h544v-56h-607z" />
    <glyph glyph-name="egrave.smcp" horiz-adv-x="878" 
d="M181 0v985h582v-56h-519v-393h490v-58h-490v-422h544v-56h-607zM588 1078l-298 225l-1 13l46 47l278 -251z" />
    <glyph glyph-name="emacron.smcp" horiz-adv-x="878" 
d="M181 0v985h582v-56h-519v-393h490v-58h-490v-422h544v-56h-607zM229 1193v53h497v-53h-497z" />
    <glyph glyph-name="eogonek.smcp" horiz-adv-x="878" 
d="M600 -253q0 -102 115 -103q34 0 56 8l5 -4v-43q-32 -13 -94 -13t-105 38.5t-43 105.5q0 143 188 264h-541v985h582v-56h-519v-393h490v-58h-490v-422h544v-56q-188 -125 -188 -253z" />
    <glyph glyph-name="uni1EBD.smcp" horiz-adv-x="878" 
d="M181 0v985h582v-56h-519v-393h490v-58h-490v-422h544v-56h-607zM336 1301q55 0 149 -40t132 -40t62.5 22.5t24.5 65.5l2 4l46 -10q0 -63 -36 -100.5t-89 -37.5t-146.5 40.5t-134 40.5t-65 -23.5t-24.5 -64.5l-2 -4l-46 10q0 61 36 99t91 38z" />
    <glyph glyph-name="uni0259.smcp" horiz-adv-x="1117" 
d="M538 34q168 0 273 105t122 284h-773q6 -185 108 -287t270 -102zM528 1005q217 1 347 -137t130 -374t-128 -376q-128 -142 -335 -142t-327 124t-120 345v33h841v8q0 216 -109 339q-110 123 -291 123q-117 0 -203 -33t-173 -113l-4 2v58q155 143 372 143z" />
    <glyph glyph-name="f.smcp" horiz-adv-x="837" 
d="M181 0v985h594v-62h-529v-415h476v-61h-476v-447h-65z" />
    <glyph glyph-name="g.smcp" horiz-adv-x="1133" 
d="M953 471h60v-408q-166 -84 -369 -83q-255 0 -397.5 139.5t-142.5 369.5t156.5 374t406.5 144q188 0 333 -63v-60l-6 -1q-132 63 -342 63t-345.5 -126.5t-135.5 -329.5t124 -328t353 -125q162 0 305 69v365z" />
    <glyph glyph-name="gbreve.smcp" horiz-adv-x="1133" 
d="M953 471h60v-408q-166 -84 -369 -83q-255 0 -397.5 139.5t-142.5 369.5t156.5 374t406.5 144q188 0 333 -63v-60l-6 -1q-132 63 -341.5 63t-345.5 -126.5t-136 -329.5t124 -328t353 -125q162 0 305 69v365zM621 1100q-100 0 -162 63.5t-62 171.5l44 6l2 -2
q4 -84 54 -134.5t126.5 -50.5t127 49.5t51.5 133.5l2 4l43 -6q0 -108 -63 -171.5t-163 -63.5z" />
    <glyph glyph-name="gcaron.smcp" horiz-adv-x="1133" 
d="M953 471h60v-408q-166 -84 -369 -83q-255 0 -397.5 139.5t-142.5 369.5t156.5 374t406.5 144q188 0 333 -63v-60l-6 -1q-132 63 -342 63t-345.5 -126.5t-135.5 -329.5t124 -328t353 -125q162 0 305 69v365zM640 1084h-29l-214 243l29 27l201 -203l194 203l30 -27z" />
    <glyph glyph-name="gcircumflex.smcp" horiz-adv-x="1133" 
d="M953 471h60v-408q-166 -84 -369 -83q-255 0 -397.5 139.5t-142.5 369.5t156.5 374t406.5 144q188 0 333 -63v-60l-6 -1q-132 63 -342 63t-345.5 -126.5t-135.5 -329.5t124 -328t353 -125q162 0 305 69v365zM620 1287l-194 -205l-29 30l210 242h30l214 -242l-30 -30z" />
    <glyph glyph-name="gcommaaccent.smcp" horiz-adv-x="1133" 
d="M616 -151l-2 54l62 6l7 -10q0 -151 -61 -296h-43q37 119 37 246zM953 471h60v-408q-166 -84 -369 -83q-255 0 -397.5 139.5t-142.5 369.5t156.5 374t406.5 144q188 0 333 -63v-60l-6 -1q-132 63 -341.5 63t-345.5 -126.5t-136 -329.5t124 -328t353 -125q162 0 305 69v365
z" />
    <glyph glyph-name="gdotaccent.smcp" horiz-adv-x="1133" 
d="M953 471h60v-408q-166 -84 -369 -83q-255 0 -397.5 139.5t-142.5 369.5t156.5 374t406.5 144q188 0 333 -63v-60l-6 -1q-132 63 -342 63t-345.5 -126.5t-135.5 -329.5t124 -328t353 -125q162 0 305 69v365zM622 1208q-22 0 -38 16t-16 38t16 38t38 16t38 -16t16 -38
t-16 -38t-38 -16z" />
    <glyph glyph-name="h.smcp" horiz-adv-x="1206" 
d="M961 985h65v-985h-65v475h-717v-475h-63v985h63v-451h717v451z" />
    <glyph glyph-name="hbar.smcp" horiz-adv-x="1206" 
d="M961 534v185h-717v-185h717zM1108 771v-52h-82v-719h-65v475h-717v-475h-63v719h-82v52h82v214h63v-214h717v214h65v-214h82z" />
    <glyph glyph-name="hcircumflex.smcp" horiz-adv-x="1206" 
d="M961 985h65v-985h-65v475h-717v-475h-63v985h63v-451h717v451zM601 1287l-193 -205l-30 30l210 242h30l214 -242l-30 -30z" />
    <glyph glyph-name="i.smcp" horiz-adv-x="426" 
d="M181 0v987h63v-987h-63z" />
    <glyph glyph-name="dotlessi.smcp" horiz-adv-x="426" 
d="M181 0v987h63v-987h-63z" />
    <glyph glyph-name="iacute.smcp" horiz-adv-x="426" 
d="M181 0v987h63v-987h-63zM95 1080l-24 33l277 252l47 -47l-4 -13z" />
    <glyph glyph-name="ibreve.smcp" horiz-adv-x="426" 
d="M181 0v987h63v-987h-63zM213 1100q-100 0 -162 63.5t-62 171.5l45 6l1 -2q4 -84 54.5 -134.5t126.5 -50.5t126.5 49.5t52.5 133.5l2 4l42 -6q0 -108 -63 -171.5t-163 -63.5z" />
    <glyph glyph-name="icircumflex.smcp" horiz-adv-x="426" 
d="M181 0v987h63v-987h-63zM19 1084l-30 29l210 242h30l214 -242l-30 -29l-201 204z" />
    <glyph glyph-name="idieresis.smcp" horiz-adv-x="426" 
d="M181 0v987h63v-987h-63zM375 1210q-21 0 -37 16t-16 37t16 36t37 15t37 -14.5t16 -36t-16 -37.5t-37 -16zM57 1210q-21 0 -36 16t-15 37t14.5 36t36 15t37.5 -14.5t16 -36t-16 -37.5t-37 -16z" />
    <glyph glyph-name="i.loclTRK.smcp" horiz-adv-x="426" 
d="M181 0v987h63v-987h-63zM215 1210q-21 0 -38 17t-17 38t17 37t38 16t37 -15.5t16 -38t-16 -38.5t-37 -16z" />
    <glyph glyph-name="uni1ECB.smcp" horiz-adv-x="426" 
d="M213 -276q-21 0 -38 16t-17 38.5t17 38t38 15.5t37 -15.5t16 -38t-16 -38.5t-37 -16zM181 0v987h63v-987h-63z" />
    <glyph glyph-name="igrave.smcp" horiz-adv-x="426" 
d="M181 0v987h63v-987h-63zM324 1080l-298 225l-2 13l47 47l277 -252z" />
    <glyph glyph-name="ij.smcp" horiz-adv-x="971" 
d="M523 -26q-37 0 -61 2v59l5 2q34 -6 47 -5q225 0 225 268v683h63v-694q0 -315 -279 -315zM181 0v987h63v-987h-63z" />
    <glyph glyph-name="imacron.smcp" horiz-adv-x="426" 
d="M181 0v987h63v-987h-63zM9 1195v52h410v-52h-410z" />
    <glyph glyph-name="iogonek.smcp" horiz-adv-x="426" 
d="M181 987h63v-987h-4q-184 -125 -184 -251q0 -102 115 -103q34 0 56 8l6 -4v-43q-33 -13 -95 -13t-104.5 38t-42.5 105q0 143 190 267v983z" />
    <glyph glyph-name="itilde.smcp" horiz-adv-x="426" 
d="M181 0v987h63v-987h-63zM105.5 1301q47.5 0 112.5 -41t98.5 -41t54 23.5t20.5 68.5l2 3l39 -9q0 -65 -30 -100.5t-76.5 -36.5t-111.5 41t-104 42q-69 0 -73 -91v-4l-41 9q0 60 31 98t78.5 38z" />
    <glyph glyph-name="j.smcp" horiz-adv-x="545" 
d="M97 -26q-39 0 -62 4v57l4 2q20 -6 49 -5q223 0 223 268v683h63v-694q0 -315 -277 -315z" />
    <glyph glyph-name="jacute.smcp" horiz-adv-x="545" 
d="M97 -26q-39 0 -62 4v57l4 2q20 -6 49 -5q223 0 223 268v683h63v-694q0 -315 -277 -315zM225 1071l-24 33l277 251l47 -46l-4 -13z" />
    <glyph glyph-name="jcircumflex.smcp" horiz-adv-x="545" 
d="M97 -26q-39 0 -62 4v57l4 2q20 -6 49 -5q223 0 223 268v683h63v-694q0 -315 -277 -315zM149 1074l-30 30l211 242h29l214 -242l-29 -30l-201 205z" />
    <glyph glyph-name="k.smcp" horiz-adv-x="923" 
d="M244 0h-63v985h63v-475l575 475h77l1 -4l-582 -480l595 -497l-1 -4h-82l-583 488v-488z" />
    <glyph glyph-name="kcommaaccent.smcp" horiz-adv-x="923" 
d="M467 -151l-2 54l62 6l7 -10q0 -151 -61 -296h-43q37 119 37 246zM244 0h-63v985h63v-475l575 475h77l1 -4l-582 -480l595 -497l-1 -4h-82l-583 488v-488z" />
    <glyph glyph-name="kgreenlandic.smcp" horiz-adv-x="923" 
d="M244 0h-63v985h63v-475l575 475h77l1 -4l-582 -480l595 -497l-1 -4h-82l-583 488v-488z" />
    <glyph glyph-name="l.smcp" horiz-adv-x="794" 
d="M244 58h514v-58h-577v987h63v-929z" />
    <glyph glyph-name="lacute.smcp" horiz-adv-x="794" 
d="M244 58h514v-58h-577v987h63v-929zM397 1292l-4 -13l-296 -225l-24 33l277 252z" />
    <glyph glyph-name="lcaron.smcp" horiz-adv-x="794" 
d="M244 58h514v-58h-577v987h63v-929zM648 983l-35 -352h-41l14 365h51z" />
    <glyph glyph-name="lcommaaccent.smcp" horiz-adv-x="794" 
d="M458 -156l-2 54l62 5l7 -9q0 -151 -61 -296h-43q37 119 37 246zM244 58h514v-58h-577v987h63v-929z" />
    <glyph glyph-name="ldot.smcp" horiz-adv-x="806" 
d="M617 492q-23 0 -37 14.5t-14 35t14 35.5t37 15t37 -15t14 -35.5t-14 -35t-37 -14.5zM244 58h514v-58h-577v987h63v-929z" />
    <glyph glyph-name="l_periodcentered_l.loclCAT.smcp" horiz-adv-x="1586" 
d="M617 492q-23 0 -37 14.5t-14 35t14 35.5t37 15t37 -15t14 -35.5t-14 -35t-37 -14.5zM1035 58h514v-58h-577v987h63v-929zM244 987v-929h514v-58h-577v987h63z" />
    <glyph glyph-name="lslash.smcp" horiz-adv-x="808" 
d="M259 58h514v-58h-579v451l-134 -82h-8v54l142 87v477h65v-438l149 91h5v-54l-154 -94v-434z" />
    <glyph glyph-name="m.smcp" horiz-adv-x="1400" 
d="M127 0l119 985h41l420 -858l406 858h39l121 -985h-61l-104 840h-4l-389 -823h-22l-401 825h-3l-103 -842h-59z" />
    <glyph glyph-name="n.smcp" horiz-adv-x="1200" 
d="M181 0v987h37l739 -862v862h63v-987h-35l-743 864v-864h-61z" />
    <glyph glyph-name="nacute.smcp" horiz-adv-x="1200" 
d="M181 0v987h37l739 -862v862h63v-987h-35l-743 864v-864h-61zM493 1080l-24 33l278 252l46 -47l-4 -13z" />
    <glyph glyph-name="napostrophe.smcp" horiz-adv-x="1271" 
d="M251 0v987h38l741 -866v866h61v-987h-33l-743 866v-866h-64zM84 1169.5q0 85.5 -2 103.5l54 10l9 -11q0 -155 -46 -341h-41q26 153 26 238.5z" />
    <glyph glyph-name="ncaron.smcp" horiz-adv-x="1200" 
d="M181 0v987h37l739 -862v862h63v-987h-35l-743 864v-864h-61zM601 1085l-214 244l30 26l201 -203l194 203l30 -26l-211 -244h-30z" />
    <glyph glyph-name="ncommaaccent.smcp" horiz-adv-x="1200" 
d="M579 -149l-2 54l62 6l7 -10q0 -151 -61 -296h-43q37 119 37 246zM181 0v987h37l739 -862v862h63v-987h-35l-743 864v-864h-61z" />
    <glyph glyph-name="eng.smcp" horiz-adv-x="1200" 
d="M957 987h63v-1076q0 -145 -64 -212.5t-181 -82.5l-4 53l2 3q186 26 186 248v110l-717 834v-864h-61v987h37l739 -862v862z" />
    <glyph glyph-name="uni0272.smcp" horiz-adv-x="1200" 
d="M957 987h63v-987h-35l-743 864v-938q2 -155 -61.5 -224t-182.5 -89l-4 54l2 3q184 30 185 250v1067h37l739 -862v862z" />
    <glyph glyph-name="ntilde.smcp" horiz-adv-x="1200" 
d="M181 0v987h37l739 -862v862h63v-987h-35l-743 864v-864h-61zM470 1303q55 0 149 -40t132 -40t62.5 22.5t24.5 65.5l2 3l46 -9q0 -63 -36 -100.5t-89 -37.5t-146.5 40t-134 40t-65 -23t-24.5 -64l-2 -4l-46 9q0 61 36 99.5t91 38.5z" />
    <glyph glyph-name="o.smcp" horiz-adv-x="1234" 
d="M617.5 35q194.5 0 319 123t124.5 333t-124.5 332.5t-319 122.5t-319.5 -123t-125 -332t125 -332.5t319.5 -123.5zM617 -24q-221 0 -366 138.5t-145 375.5t145.5 376t367 139t366.5 -138.5t145 -374t-146 -376t-367 -140.5z" />
    <glyph glyph-name="oacute.smcp" horiz-adv-x="1234" 
d="M617.5 35q194.5 0 319 123t124.5 333t-124.5 332.5t-319 122.5t-319.5 -123t-125 -332t125 -332.5t319.5 -123.5zM617 -24q-221 0 -366 138.5t-145 375.5t145.5 376t367 139t366.5 -138.5t145 -374t-146 -376t-367 -140.5zM499 1061l-24 34l277 251l47 -46l-4 -13z" />
    <glyph glyph-name="obreve.smcp" horiz-adv-x="1234" 
d="M617.5 35q194.5 0 319 123t124.5 333t-124.5 332.5t-319 122.5t-319.5 -123t-125 -332t125 -332.5t319.5 -123.5zM617 -24q-221 0 -366 138.5t-145 375.5t145.5 376t367 139t366.5 -138.5t145 -374t-146 -376t-367 -140.5zM617 1084q-100 0 -162 63t-62 171l45 6l1 -2
q4 -84 54.5 -134t126.5 -50t126.5 49t52.5 133l2 4l42 -6q0 -108 -63 -171t-163 -63z" />
    <glyph glyph-name="ocircumflex.smcp" horiz-adv-x="1234" 
d="M617.5 35q194.5 0 319 123t124.5 333t-124.5 332.5t-319 122.5t-319.5 -123t-125 -332t125 -332.5t319.5 -123.5zM617 -24q-221 0 -366 138.5t-145 375.5t145.5 376t367 139t366.5 -138.5t145 -374t-146 -376t-367 -140.5zM423 1065l-30 30l210 242h30l214 -242l-30 -30
l-201 205z" />
    <glyph glyph-name="odieresis.smcp" horiz-adv-x="1234" 
d="M617.5 35q194.5 0 319 123t124.5 333t-124.5 332.5t-319 122.5t-319.5 -123t-125 -332t125 -332.5t319.5 -123.5zM617 -24q-221 0 -366 138.5t-145 375.5t145.5 376t367 139t366.5 -138.5t145 -374t-146 -376t-367 -140.5zM779 1192q-21 0 -37 15.5t-16 37t16 36.5t37 15
t37 -15t16 -36t-16 -37t-37 -16zM461 1192q-21 0 -36 15.5t-15 37t14.5 36.5t36 15t37.5 -15t16 -36t-16 -37t-37 -16z" />
    <glyph glyph-name="uni1ECD.smcp" horiz-adv-x="1234" 
d="M617 -276q-21 0 -38 16t-17 38.5t17 38t38 15.5t37 -15.5t16 -38t-16 -38.5t-37 -16zM617.5 35q194.5 0 319 123t124.5 333t-124.5 332.5t-319 122.5t-319.5 -123t-125 -332t125 -332.5t319.5 -123.5zM617 -24q-221 0 -366 138.5t-145 375.5t145.5 376t367 139
t366.5 -138.5t145 -374t-146 -376t-367 -140.5z" />
    <glyph glyph-name="ograve.smcp" horiz-adv-x="1234" 
d="M617.5 35q194.5 0 319 123t124.5 333t-124.5 332.5t-319 122.5t-319.5 -123t-125 -332t125 -332.5t319.5 -123.5zM617 -24q-221 0 -366 138.5t-145 375.5t145.5 376t367 139t366.5 -138.5t145 -374t-146 -376t-367 -140.5zM728 1061l-298 226l-2 13l47 46l277 -251z" />
    <glyph glyph-name="ohungarumlaut.smcp" horiz-adv-x="1234" 
d="M617.5 35q194.5 0 319 123t124.5 333t-124.5 332.5t-319 122.5t-319.5 -123t-125 -332t125 -332.5t319.5 -123.5zM617 -24q-221 0 -366 138.5t-145 375.5t145.5 376t367 139t366.5 -138.5t145 -374t-146 -376t-367 -140.5zM745 1063l-34 21l177 270l47 -23l1 -13z
M460 1063l-34 21l175 270l49 -23l2 -13z" />
    <glyph glyph-name="omacron.smcp" horiz-adv-x="1234" 
d="M617.5 35q194.5 0 319 123t124.5 333t-124.5 332.5t-319 122.5t-319.5 -123t-125 -332t125 -332.5t319.5 -123.5zM617 -24q-221 0 -366 138.5t-145 375.5t145.5 376t367 139t366.5 -138.5t145 -374t-146 -376t-367 -140.5zM369 1177v52h497v-52h-497z" />
    <glyph glyph-name="uni01EB.smcp" horiz-adv-x="1234" 
d="M173 491.5q0 -209.5 125 -333t319.5 -123.5t319 123t124.5 333t-124.5 332.5t-319 122.5t-319.5 -122.5t-125 -332zM592 -251q0 -102 115 -103q34 0 56 8l6 -4v-43q-32 -13 -94.5 -13t-105 38t-42.5 105q0 130 154 243q-41 -4 -63 -4q-222 0 -367 138.5t-145 375.5
t145.5 376t367 139t366.5 -138.5t145 -376.5q0 -188 -98.5 -318.5t-260.5 -175.5q-179 -121 -179 -247z" />
    <glyph glyph-name="oslash.smcp" horiz-adv-x="1234" 
d="M635 35q177 0 301.5 123t124.5 330t-119 329l-601 -696q117 -86 294 -86zM173 490.5q0 -210.5 129 -335.5l603 698q-119 93 -300.5 93t-306.5 -122.5t-125 -333zM1130 491q0 -234 -146 -374.5t-348 -140.5t-336 97l-84 -97h-60v9l105 121q-155 141 -155 381t145.5 379
t350 139t344.5 -104l71 82h61v-7l-93 -110q145 -141 145 -375z" />
    <glyph glyph-name="oslashacute.smcp" horiz-adv-x="1234" 
d="M635 35q177 0 301.5 123t124.5 330t-119 329l-601 -696q117 -86 294 -86zM173 490.5q0 -210.5 129 -335.5l603 698q-119 93 -300.5 93t-306.5 -122.5t-125 -333zM1130 491q0 -234 -146 -374.5t-348 -140.5t-336 97l-84 -97h-60v9l105 121q-155 141 -155 381t145.5 379
t350 139t344.5 -104l71 82h61v-7l-93 -110q145 -141 145 -375zM775 1300l-297 -226l-24 34l278 251l46 -46z" />
    <glyph glyph-name="otilde.smcp" horiz-adv-x="1234" 
d="M617.5 35q194.5 0 319 123t124.5 333t-124.5 332.5t-319 122.5t-319.5 -123t-125 -332t125 -332.5t319.5 -123.5zM617 -24q-221 0 -366 138.5t-145 375.5t145.5 376t367 139t366.5 -138.5t145 -374t-146 -376t-367 -140.5zM476 1285q55 0 149 -40t132 -40t62 22t24 65
l2 4l47 -9q0 -63 -36.5 -100.5t-89.5 -37.5t-146 40t-134 40t-65 -23.5t-24 -64.5l-2 -3l-47 9q0 61 36.5 99.5t91.5 38.5z" />
    <glyph glyph-name="oe.smcp" horiz-adv-x="1472" 
d="M737 480v-433q145 35 234.5 148.5t91.5 284.5h-326zM737 534h324q-11 158 -98.5 262.5t-225.5 138.5v-401zM173 491q0 -211 125 -334t320 -123q20 0 58 3v907q-37 4 -58 4q-195 0 -320 -123t-125 -334zM1383 43v-56h-649q-56 -11 -116 -11q-222 0 -367 138.5t-145 376
t145.5 376t366.5 138.5q60 0 117 -11h624v-54h-475q225 -125 244 -406h201v-54h-199q-6 -302 -242 -437h495z" />
    <glyph glyph-name="p.smcp" horiz-adv-x="886" 
d="M421 452q160 0 243.5 62.5t83.5 176t-71.5 179t-228 65.5t-204.5 -6v-469q101 -8 177 -8zM426 398q-114 0 -182 8v-406h-63v983q149 9 266 9q359 -2 363 -292q2 -145 -97 -223.5t-287 -78.5z" />
    <glyph glyph-name="thorn.smcp" horiz-adv-x="888" 
d="M404 255q156 0 241 63t85 177t-73 179t-221 65t-192 -11v-465q93 -8 160 -8zM411 201q-101 0 -167 8v-209h-63v987h63v-201q80 9 186 9q355 -2 359 -292q2 -145 -95 -223t-283 -79z" />
    <glyph glyph-name="q.smcp" horiz-adv-x="1234" 
d="M173 491.5q0 -209.5 125 -333t319.5 -123.5t319 123t124.5 333t-124.5 332.5t-319 122.5t-319.5 -122.5t-125 -332zM618 -24q-222 0 -367 138.5t-145 375.5t145.5 376t367 139t366.5 -138.5t145 -376.5q0 -293 -223 -434q89 -99 175.5 -149t218.5 -82l-16 -50
q-143 32 -239 88.5t-191 164.5q-110 -52 -237 -52z" />
    <glyph glyph-name="r.smcp" horiz-adv-x="916" 
d="M244 462h212q106 0 192 62t86 176q0 235 -296 235q-145 0 -194 -6v-467zM181 0v983q108 9 269 9t255 -72.5t94 -203.5t-78.5 -206.5t-184.5 -94.5l283 -415h-74l-276 408h-225v-408h-63z" />
    <glyph glyph-name="racute.smcp" horiz-adv-x="916" 
d="M244 462h212q106 0 192 62t86 176q0 235 -296 235q-145 0 -194 -6v-467zM181 0v983q108 9 269 9t255 -72.5t94 -203.5t-78.5 -206.5t-184.5 -94.5l283 -415h-74l-276 408h-225v-408h-63zM320 1078l-24 34l277 251l47 -47l-4 -13z" />
    <glyph glyph-name="rcaron.smcp" horiz-adv-x="916" 
d="M244 462h212q106 0 192 62t86 176q0 235 -296 235q-145 0 -194 -6v-467zM181 0v983q108 9 269 9t255 -72.5t94 -203.5t-78.5 -206.5t-184.5 -94.5l283 -415h-74l-276 408h-225v-408h-63zM428 1084l-214 243l30 27l201 -203l194 203l29 -27l-210 -243h-30z" />
    <glyph glyph-name="rcommaaccent.smcp" horiz-adv-x="916" 
d="M426 -151l-2 54l62 6l7 -10q0 -151 -61 -296h-43q37 119 37 246zM244 462h212q106 0 192 62t86 176q0 235 -296 235q-145 0 -194 -6v-467zM181 0v983q108 9 269 9t255 -72.5t94 -203.5t-78.5 -206.5t-184.5 -94.5l283 -415h-74l-276 408h-225v-408h-63z" />
    <glyph glyph-name="s.smcp" horiz-adv-x="828" 
d="M376.5 -22q-169.5 0 -279.5 72v62l4 3q119 -85 269 -85q294 1 295 212q0 91 -59.5 144t-207.5 106t-210.5 114t-62.5 166t89 169t238 64t250 -46v-58l-4 -2q-117 52 -243.5 52t-196.5 -49t-71 -132t56 -130.5t200.5 -97.5t213 -119t69.5 -186.5t-90 -188t-259.5 -70.5z
" />
    <glyph glyph-name="sacute.smcp" horiz-adv-x="828" 
d="M376.5 -22q-169.5 0 -279.5 72v62l4 3q119 -85 269 -85q294 1 295 212q0 91 -59.5 144t-207.5 106t-210.5 114t-62.5 166t89 169t238 64t250 -46v-58l-4 -2q-117 52 -243.5 52t-196.5 -49t-71 -132t56 -130.5t200.5 -97.5t213 -119t69.5 -186.5t-90 -188t-259.5 -70.5z
M318 1078l-24 34l278 251l46 -47l-4 -13z" />
    <glyph glyph-name="scaron.smcp" horiz-adv-x="828" 
d="M376.5 -22q-169.5 0 -279.5 72v62l4 3q119 -85 269 -85q294 1 295 212q0 91 -59.5 144t-207.5 106t-210.5 114t-62.5 166t89 169t238 64t250 -46v-58l-4 -2q-117 52 -243.5 52t-196.5 -49t-71 -132t56 -130.5t200.5 -97.5t213 -119t69.5 -186.5t-90 -188t-259.5 -70.5z
M426 1084l-214 243l30 27l201 -203l194 203l30 -27l-211 -243h-30z" />
    <glyph glyph-name="scedilla.smcp" horiz-adv-x="828" 
d="M726 241.5q0 -112.5 -78 -182.5t-214 -79l-52 -90q34 7 80 7.5t86 -35t40 -113t-55 -119t-130 -41.5t-122 20v45l4 2q37 -19 99 -19q145 0 145 117q0 99 -105 99q-58 0 -96 -19l-2 4v39l58 101q-184 4 -287 72v62l4 3q119 -85 269 -85q294 1 295 212q0 91 -59.5 144
t-207.5 106t-210.5 114t-62.5 166t89 169t238 64t250 -46v-58l-4 -2q-117 52 -243.5 52t-196.5 -49t-71 -132t56 -130.5t200.5 -97.5t213 -119t69.5 -181.5z" />
    <glyph glyph-name="scircumflex.smcp" horiz-adv-x="828" 
d="M376.5 -22q-169.5 0 -279.5 72v62l4 3q119 -85 269 -85q294 1 295 212q0 91 -59.5 144t-207.5 106t-210.5 114t-62.5 166t89 169t238 64t250 -46v-58l-4 -2q-117 52 -243.5 52t-196.5 -49t-71 -132t56 -130.5t200.5 -97.5t213 -119t69.5 -186.5t-90 -188t-259.5 -70.5z
M242 1082l-30 30l211 242h29l215 -242l-30 -30l-201 205z" />
    <glyph glyph-name="scommaaccent.smcp" horiz-adv-x="828" 
d="M384 -151l-2 54l61 6l8 -10q0 -151 -62 -296h-43q37 119 38 246zM376.5 -22q-169.5 0 -279.5 72v62l4 3q119 -85 269 -85q294 1 295 212q0 91 -59.5 144t-207.5 106t-210.5 114t-62.5 166t89 169t238 64t250 -46v-58l-4 -2q-117 52 -243.5 52t-196.5 -49t-71 -132
t56 -130.5t200.5 -97.5t213 -119t69.5 -186.5t-90 -188t-259.5 -70.5z" />
    <glyph glyph-name="germandbls.smcp" horiz-adv-x="1225" 
d="M788 34q264 0 264 235q0 220 -345 226q-43 0 -65 -2l-7 2l296 406q-89 35 -229 35q-445 0 -445 -452v-484h-65v484q0 147 44 253q46 106 124 160q147 101 341 101t325 -63v-2l-285 -384q380 0 380 -294q0 -125 -82.5 -203t-235.5 -78t-261 58v65l4 2q106 -65 242 -65z
" />
    <glyph glyph-name="t.smcp" horiz-adv-x="888" 
d="M851 985v-58h-374v-927h-64v927h-376v58h814z" />
    <glyph glyph-name="tbar.smcp" horiz-adv-x="902" 
d="M858 927h-374v-422h192v-51h-192v-454h-63v454h-198v51h198v422h-376v58h813v-58z" />
    <glyph glyph-name="tcaron.smcp" horiz-adv-x="888" 
d="M851 985v-58h-374v-927h-64v927h-376v58h814zM464 1084h-30l-214 243l29 27l202 -203l193 203l30 -27z" />
    <glyph glyph-name="uni0163.smcp" horiz-adv-x="888" 
d="M477 0h-4l-63 -110q34 8 80 8t86 -36q40 -34 40 -112t-55 -119.5t-130 -41.5t-122 20v45l4 2q37 -19 98 -19q145 0 146 117q0 99 -105 99q-58 0 -96 -19l-2 4v39l70 123h-11v927h-376v58h814v-58h-374v-927z" />
    <glyph glyph-name="uni021B.smcp" horiz-adv-x="888" 
d="M411 -151l-1 54l61 6l7 -10q0 -151 -61 -296h-43q37 119 37 246zM37 985h814v-58h-374v-927h-64v927h-376v58z" />
    <glyph glyph-name="u.smcp" horiz-adv-x="1156" 
d="M579.5 -22q-195.5 0 -304.5 106t-109 296v607h65v-602q0 -168 91 -258t257 -90t258 90.5t92 257.5v602h61v-607q0 -190 -107.5 -296t-303 -106z" />
    <glyph glyph-name="uacute.smcp" horiz-adv-x="1156" 
d="M579.5 -22q-195.5 0 -304.5 106t-109 296v607h65v-602q0 -168 91 -258t257 -90t258 90.5t92 257.5v602h61v-607q0 -190 -107.5 -296t-303 -106zM460 1080l-24 33l277 252l47 -47l-4 -13z" />
    <glyph glyph-name="ubreve.smcp" horiz-adv-x="1156" 
d="M579.5 -22q-195.5 0 -304.5 106t-109 296v607h65v-602q0 -168 91 -258t257 -90t258 90.5t92 257.5v602h61v-607q0 -190 -107.5 -296t-303 -106zM578 1102q-100 0 -162 63.5t-62 171.5l44 5l2 -1q4 -84 54.5 -134.5t126.5 -50.5t126.5 49.5t52.5 133.5l1 3l43 -5
q0 -108 -63 -171.5t-163 -63.5z" />
    <glyph glyph-name="ucircumflex.smcp" horiz-adv-x="1156" 
d="M579.5 -22q-195.5 0 -304.5 106t-109 296v607h65v-602q0 -168 91 -258t257 -90t258 90.5t92 257.5v602h61v-607q0 -190 -107.5 -296t-303 -106zM384 1084l-30 29l210 242h30l214 -242l-30 -29l-201 204z" />
    <glyph glyph-name="udieresis.smcp" horiz-adv-x="1156" 
d="M579.5 -22q-195.5 0 -304.5 106t-109 296v607h65v-602q0 -168 91 -258t257 -90t258 90.5t92 257.5v602h61v-607q0 -190 -107.5 -296t-303 -106zM740 1210q-21 0 -37 16t-16 37t16 36t37 15t37 -14.5t16 -36t-16 -37.5t-37 -16zM422 1210q-21 0 -36 16t-15 37t14.5 36
t36 15t37.5 -14.5t16 -36t-16 -37.5t-37 -16z" />
    <glyph glyph-name="uni1EE5.smcp" horiz-adv-x="1156" 
d="M578 -276q-21 0 -38 16t-17 38.5t17 38t38 15.5t37 -15.5t16 -38t-16 -38.5t-37 -16zM579.5 -22q-195.5 0 -304.5 106t-109 296v607h65v-602q0 -168 91 -258t257 -90t258 90.5t92 257.5v602h61v-607q0 -190 -107.5 -296t-303 -106z" />
    <glyph glyph-name="ugrave.smcp" horiz-adv-x="1156" 
d="M579.5 -22q-195.5 0 -304.5 106t-109 296v607h65v-602q0 -168 91 -258t257 -90t258 90.5t92 257.5v602h61v-607q0 -190 -107.5 -296t-303 -106zM689 1080l-298 225l-2 13l47 47l277 -252z" />
    <glyph glyph-name="uhungarumlaut.smcp" horiz-adv-x="1156" 
d="M579.5 -22q-195.5 0 -304.5 106t-109 296v607h65v-602q0 -168 91 -258t257 -90t258 90.5t92 257.5v602h61v-607q0 -190 -107.5 -296t-303 -106zM706 1082l-34 20l177 270l47 -22l1 -13zM421 1082l-34 20l175 270l49 -22l2 -13z" />
    <glyph glyph-name="umacron.smcp" horiz-adv-x="1156" 
d="M579.5 -22q-195.5 0 -304.5 106t-109 296v607h65v-602q0 -168 91 -258t257 -90t258 90.5t92 257.5v602h61v-607q0 -190 -107.5 -296t-303 -106zM330 1195v52h497v-52h-497z" />
    <glyph glyph-name="uogonek.smcp" horiz-adv-x="1156" 
d="M929 987h61v-607q0 -145 -66 -244t-187 -136q-184 -125 -184 -251q0 -102 115 -103q34 0 56 8l6 -4v-43q-32 -13 -94 -13t-105 38t-43 105q0 130 156 244q-41 -4 -65 -3q-195 0 -304 106t-109 296v607h65v-602q0 -168 91 -258t257 -90t258 90.5t92 257.5v602z" />
    <glyph glyph-name="uring.smcp" horiz-adv-x="1156" 
d="M579.5 -22q-195.5 0 -304.5 106t-109 296v607h65v-602q0 -168 91 -258t257 -90t258 90.5t92 257.5v602h61v-607q0 -190 -107.5 -296t-303 -106zM579 1123q45 0 73.5 29.5t28.5 72.5t-28.5 72.5t-73.5 29.5t-73 -29.5t-28 -72.5t28 -72.5t73 -29.5zM581 1082
q-63 0 -105 41.5t-42 102t41 101.5t105 41t104 -40.5t40 -102t-40 -102.5t-103 -41z" />
    <glyph glyph-name="utilde.smcp" horiz-adv-x="1156" 
d="M579.5 -22q-195.5 0 -304.5 106t-109 296v607h65v-602q0 -168 91 -258t257 -90t258 90.5t92 257.5v602h61v-607q0 -190 -107.5 -296t-303 -106zM437 1303q55 0 149 -40t132 -40t62 22.5t24 65.5l2 3l47 -9q0 -63 -36.5 -100.5t-89.5 -37.5t-146 40t-134 40t-65.5 -23
t-24.5 -64l-1 -4l-47 9q0 61 36.5 99.5t91.5 38.5z" />
    <glyph glyph-name="v.smcp" horiz-adv-x="999" 
d="M955 985l2 -4l-443 -981h-30l-443 981l2 4h67l391 -881l391 881h63z" />
    <glyph glyph-name="w.smcp" horiz-adv-x="1493" 
d="M1437 985l2 -4l-331 -981h-50l-302 862l-8 28l-7 -28l-300 -862h-52l-339 981l2 4h63l295 -866l7 -31l309 897h47l301 -864l10 -35l9 35l287 864h57z" />
    <glyph glyph-name="wacute.smcp" horiz-adv-x="1493" 
d="M1437 985l2 -4l-331 -981h-50l-302 862l-8 28l-7 -28l-300 -862h-52l-339 981l2 4h63l295 -866l7 -31l309 897h47l301 -864l10 -35l9 35l287 864h57zM922 1303l-296 -225l-25 34l278 251l46 -47z" />
    <glyph glyph-name="wcircumflex.smcp" horiz-adv-x="1493" 
d="M1437 985l2 -4l-331 -981h-50l-302 862l-8 28l-7 -28l-300 -862h-52l-339 981l2 4h63l295 -866l7 -31l309 897h47l301 -864l10 -35l9 35l287 864h57zM743 1287l-194 -205l-30 30l211 242h30l214 -242l-30 -30z" />
    <glyph glyph-name="wdieresis.smcp" horiz-adv-x="1493" 
d="M1437 985l2 -4l-331 -981h-50l-302 862l-8 28l-7 -28l-300 -862h-52l-339 981l2 4h63l295 -866l7 -31l309 897h47l301 -864l10 -35l9 35l287 864h57zM906 1208q-21 0 -37 16t-16 37t15.5 36.5t37 15.5t37.5 -15t16 -36.5t-16 -37.5t-37 -16zM587 1208q-21 0 -36 16
t-15 37t15 36.5t36 15.5t37 -15t16 -36.5t-16 -37.5t-37 -16z" />
    <glyph glyph-name="wgrave.smcp" horiz-adv-x="1493" 
d="M1437 985l2 -4l-331 -981h-50l-302 862l-8 28l-7 -28l-300 -862h-52l-339 981l2 4h63l295 -866l7 -31l309 897h47l301 -864l10 -35l9 35l287 864h57zM855 1078l-298 225l-2 13l46 47l278 -251z" />
    <glyph glyph-name="x.smcp" horiz-adv-x="971" 
d="M527 508l402 -504l-2 -4h-67l-378 467l-374 -467h-65l-2 4l406 506l-380 471l2 4h69l350 -438l350 438h65l2 -4z" />
    <glyph glyph-name="y.smcp" horiz-adv-x="953" 
d="M445 0v417l-397 562l2 4h65l363 -508l360 508h63l2 -4l-397 -562v-417h-61z" />
    <glyph glyph-name="yacute.smcp" horiz-adv-x="953" 
d="M445 0v417l-397 562l2 4h65l363 -508l360 508h63l2 -4l-397 -562v-417h-61zM356 1078l-25 34l278 251l46 -47l-3 -13z" />
    <glyph glyph-name="ycircumflex.smcp" horiz-adv-x="953" 
d="M445 0v417l-397 562l2 4h65l363 -508l360 508h63l2 -4l-397 -562v-417h-61zM279 1082l-30 30l211 242h30l214 -242l-30 -30l-201 205z" />
    <glyph glyph-name="ydieresis.smcp" horiz-adv-x="953" 
d="M445 0v417l-397 562l2 4h65l363 -508l360 508h63l2 -4l-397 -562v-417h-61zM636 1208q-21 0 -37 16t-16 37t15.5 36.5t37 15.5t37.5 -15t16 -36.5t-16 -37.5t-37 -16zM317 1208q-21 0 -36 16t-15 37t15 36.5t36 15.5t37.5 -15t16.5 -36.5t-16.5 -37.5t-37.5 -16z" />
    <glyph glyph-name="ygrave.smcp" horiz-adv-x="953" 
d="M445 0v417l-397 562l2 4h65l363 -508l360 508h63l2 -4l-397 -562v-417h-61zM585 1078l-298 225l-2 13l46 47l278 -251z" />
    <glyph glyph-name="uni0233.smcp" horiz-adv-x="953" 
d="M445 0v417l-397 562l2 4h65l363 -508l360 508h63l2 -4l-397 -562v-417h-61zM225 1193v53h497v-53h-497z" />
    <glyph glyph-name="uni1EF9.smcp" horiz-adv-x="953" 
d="M445 0v417l-397 562l2 4h65l363 -508l360 508h63l2 -4l-397 -562v-417h-61zM332 1301q55 0 149 -40t132 -40t62.5 22.5t24.5 65.5l2 4l46 -10q0 -63 -36 -100.5t-89 -37.5t-146 40.5t-134 40.5t-65.5 -23.5t-24.5 -64.5l-2 -4l-46 10q0 61 36 99t91 38z" />
    <glyph glyph-name="z.smcp" horiz-adv-x="930" 
d="M864 56v-56h-793v28l692 908h-689v56h782v-26l-692 -910h700z" />
    <glyph glyph-name="zacute.smcp" horiz-adv-x="930" 
d="M864 56v-56h-793v28l692 908h-689v56h782v-26l-692 -910h700zM640 1303l-296 -225l-24 34l278 251l46 -47z" />
    <glyph glyph-name="zcaron.smcp" horiz-adv-x="930" 
d="M864 56v-56h-793v28l692 908h-689v56h782v-26l-692 -910h700zM482 1084h-30l-214 243l30 27l201 -203l194 203l30 -27z" />
    <glyph glyph-name="zdotaccent.smcp" horiz-adv-x="930" 
d="M864 56v-56h-793v28l692 908h-689v56h782v-26l-692 -910h700zM465 1208q-21 0 -38 16t-17 38t16.5 38t38 16t37.5 -15.5t16 -38t-16 -38.5t-37 -16z" />
    <glyph glyph-name="zero.osf" horiz-adv-x="1165" 
d="M585 39q191 0 299 119t108 328q0 210 -110 332t-301 122q-190 0 -299 -120t-109 -330t110 -330q110 -121 302 -121zM584 1002q218 0 346 -138q126 -138 126 -374t-128 -374t-347 -138q-218 0 -345 136q-126 136 -126 373t128 376t346 139z" />
    <glyph glyph-name="one.osf" horiz-adv-x="551" 
d="M309 0v905l-255 -147v65l305 173h12v-996h-62z" />
    <glyph glyph-name="two.osf" horiz-adv-x="934" 
d="M95 0v50q261 160 348 227q276 212 278 399q1 132 -75 200t-214 68q-205 0 -317 -136l-1 2l-2 65q121 127 326 127q164 0 256 -83t92 -238q0 -80 -41 -160t-91 -137t-161 -139q-110 -82 -196 -133q-85 -51 -87 -52l-1 -2l1 -2q2 2 10 2h644v-58h-769z" />
    <glyph glyph-name="three.osf" horiz-adv-x="923" 
d="M836 108q0 -179 -106 -280t-285 -102q-229 0 -357 138v69l5 2q128 -151 348 -151q153 0 243 86t90 233t-92 223q-94 76 -261 76l-90 2v54l86 2q125 0 205 74t80 180t-73 169q-73 62 -188 63q-192 0 -309 -121l-4 2v59q119 119 319 119q138 0 228 -76q90 -77 90 -189
q-1 -112 -53 -189t-140 -112q124 -27 194 -111t70 -220z" />
    <glyph glyph-name="four.osf" horiz-adv-x="1055" 
d="M735 54v817l-603 -817h603zM1002 54v-54h-209v-274h-58v274h-696v19l722 985h32v-950h209z" />
    <glyph glyph-name="five.osf" horiz-adv-x="951" 
d="M433 -274q-193 0 -329 93v64l6 2q138 -103 314 -103t275 92q98 92 98 253q1 161 -89 246t-261 85t-309 -41l30 564h646v-56h-592l-21 -441q93 30 271 30t282 -99t104 -287t-116 -295t-309 -107z" />
    <glyph glyph-name="six.osf" horiz-adv-x="1037" 
d="M540 34q151 0 247 96t96 251q0 154 -85 243t-234 89t-255 -100t-115 -242q61 -337 346 -337zM588 773q158 1 258 -103t100 -285t-114 -296t-306 -115t-300 145q-109 145 -109 432q1 344 145 535t386 191q130 0 218 -43v-54l-2 -1q-102 43 -216 42q-218 0 -343 -176
t-124 -494q0 -39 1 -59q40 128 144 204t262 77z" />
    <glyph glyph-name="seven.osf" horiz-adv-x="863" 
d="M197 -274v4l561 1192h-723v59h801v-22l-575 -1233h-64z" />
    <glyph glyph-name="eight.osf" horiz-adv-x="990" 
d="M494 26q144 0 232 73t86 191t-78 188t-246 138l-28 11q-145 -61 -216 -153t-69 -204q3 -112 89 -178t230 -66zM780 982q0 102 -80 170t-204 69t-202 -69t-78 -174t73 -178q73 -72 221 -128q143 69 207 138q63 70 63 172zM492 -28q-173 0 -275 80q-101 80 -103 224
q-2 110 68 208t222 168q-127 60 -189 138t-62 198q0 118 97 204q98 86 246 86t247 -83q99 -82 99 -221q0 -102 -66 -178t-208 -148q158 -69 230 -148t76 -214q3 -134 -103 -224t-279 -90z" />
    <glyph glyph-name="nine.osf" horiz-adv-x="1012" 
d="M476 944q-136 0 -230 -100t-95 -252q1 -152 87 -246q86 -95 230 -95t243 100t114 235q-32 174 -123 266q-90 92 -226 92zM448 194q-152 0 -256 110t-104 288t112 294t293 116q182 0 295 -154t113 -456t-124 -483q-124 -182 -353 -183q-151 0 -256 49v56l3 1
q108 -50 252 -50q207 0 311 168t106 458q0 41 -2 59q-45 -123 -141 -198q-97 -75 -249 -75z" />
    <glyph glyph-name="zero.sinf" horiz-adv-x="707" 
d="M354 -246q98 0 158 80t60 220t-60 223q-60 82 -158 82t-159 -82q-59 -83 -59 -223t60 -220t158 -80zM354 -292q-125 0 -200 91t-76 255q0 164 76 258t200 94q125 0 200 -93t75 -258t-75 -256t-200 -91z" />
    <glyph glyph-name="one.sinf" horiz-adv-x="389" 
d="M214 -279v612l-167 -78v62l216 96h7v-692h-56z" />
    <glyph glyph-name="two.sinf" horiz-adv-x="608" 
d="M462 236q0 56 -46 93q-46 38 -127 38q-123 0 -201 -82l-2 2v52q82 78 196 78t176 -49q61 -49 61 -123q1 -73 -45 -131t-150 -134q-169 -128 -177 -211h408v-48h-484q-2 61 53 137q54 76 154 152q100 74 142 122t42 104z" />
    <glyph glyph-name="three.sinf" horiz-adv-x="603" 
d="M280 -294q-120 0 -204 59v53h2q80 -66 188 -66t162 43t54 117t-51 113q-51 38 -129 38h-75v41h71q63 0 108 36t45 97q0 63 -46 97t-138 34t-165 -53h-1v50q73 52 179 52t166 -45t60 -126q1 -110 -109 -158q140 -43 139 -179q0 -91 -68 -147t-188 -56z" />
    <glyph glyph-name="four.sinf" horiz-adv-x="668" 
d="M428 -80v417l-327 -417h327zM618 -80v-41h-138v-158h-52v158h-396v20l411 525h37v-504h138z" />
    <glyph glyph-name="five.sinf" horiz-adv-x="608" 
d="M280 -294q-110 0 -209 48v52h2q99 -54 196 -54t153 48t55 122t-51 119t-152 45t-185 -23l-1 2l26 339h391v-48h-345l-20 -241q63 17 165 17q103 0 165 -56t62 -154t-70 -158q-72 -58 -182 -58z" />
    <glyph glyph-name="six.sinf" horiz-adv-x="646" 
d="M330 -249q80 0 135 48t55 121t-48 120q-48 48 -130 48t-142 -50t-68 -118q36 -169 198 -169zM364 134q88 0 150 -60q60 -60 60 -154t-70 -154q-68 -60 -182 -60t-184 78q-69 78 -69 241t86 274t236 111q71 0 132 -21v-45l-2 -1q-67 20 -128 20q-134 0 -201 -101t-67 -253
v-15q28 63 89 102q62 38 150 38z" />
    <glyph glyph-name="seven.sinf" horiz-adv-x="556" 
d="M50 348v52h479v-22l-293 -657h-54l-3 2l285 625h-414z" />
    <glyph glyph-name="eight.sinf" horiz-adv-x="642" 
d="M326 -251q86 0 138 40q52 41 50 101t-56 102t-163 74q-14 5 -19 8q-147 -67 -148 -176q2 -73 56 -111q56 -38 142 -38zM320 374q-72 0 -118 -34q-44 -34 -44 -86q0 -53 39 -83t95 -50t64 -22q130 60 130 149q0 58 -47 92t-119 34zM324 -294q-110 0 -181 48
q-69 48 -69 138q0 127 159 201q-67 32 -98 68q-31 35 -31 101t62 112t154 45q92 0 156 -45t64 -123q0 -102 -138 -171q88 -39 126 -81q38 -43 39 -115t-66 -125t-177 -53z" />
    <glyph glyph-name="nine.sinf" horiz-adv-x="647" 
d="M309 367q-80 -1 -134 -49t-54 -126t49 -124t131 -46t137 46t72 107q-32 192 -201 192zM316 415q114 0 184 -82t70 -253t-78 -270t-229 -99q-76 0 -148 23v48h2q65 -24 142 -24q257 0 257 344v6q-67 -130 -218 -130q-106 0 -170 56q-63 56 -63 158t69 162q68 61 182 61z
" />
    <glyph glyph-name="zero.tf" horiz-adv-x="996" 
d="M136 610q0 -267 98 -420t263 -153q164 0 264 153q99 153 99 419t-99 422q-100 157 -264 157q-165 0 -263 -156t-98 -422zM497 -24q-192 0 -309 168t-117 466t118 468q118 171 310 171t309 -171t117 -468q0 -298 -118 -466t-310 -168z" />
    <glyph glyph-name="one.tf" horiz-adv-x="996" 
d="M583 0v1152l-337 -197h-6v67l389 227h17v-1249h-63z" />
    <glyph glyph-name="two.tf" horiz-adv-x="996" 
d="M801 937q1 107 -79 181t-219 75q-209 0 -335 -150l-2 1v64q121 145 342 145q160 0 258 -90t98 -234q0 -108 -76 -209q-76 -100 -236 -234t-245 -247q-84 -113 -87 -181h696v-58h-775q-5 106 89 240t260 271t239 228q72 91 72 198z" />
    <glyph glyph-name="three.tf" horiz-adv-x="996" 
d="M499 -28q-222 0 -361 110v71l3 2q132 -127 352 -127q145 0 241 84q95 84 95 223q0 283 -377 289l-106 2v54l106 1q147 4 236 70q88 67 88 187t-82 188t-236 69q-154 0 -276 -108l-1 2v60q121 104 291 104t269 -82t99 -205q0 -233 -214 -307q262 -60 264 -324
q2 -163 -109 -263t-282 -100z" />
    <glyph glyph-name="four.tf" horiz-adv-x="996" 
d="M728 359v782l-566 -782h566zM976 359v-57h-188v-302h-60v302h-661v20l672 929h49v-892h188z" />
    <glyph glyph-name="five.tf" horiz-adv-x="996" 
d="M490 -28q-102 0 -178 21t-169 72v67h2q93 -56 169 -78t172 -22q158 0 254 88t96 234t-92 237q-92 92 -260 92t-305 -43l-4 2l43 589h637v-58h-581l-32 -460q93 30 244 30q197 0 306 -106t109 -263q0 -194 -116 -298t-295 -104z" />
    <glyph glyph-name="six.tf" horiz-adv-x="996" 
d="M864 360q0 142 -85 233q-85 90 -231 90t-244 -100q-96 -101 -99 -233q63 -320 343 -320q134 0 225 94t91 236zM555 743q173 0 274 -105t101 -273q0 -169 -110 -281q-109 -112 -289 -112t-294 140q-113 140 -112 419q0 352 138 535t381 183q123 0 222 -39v-54l-4 -2
q-101 39 -218 39q-222 0 -338 -172t-116 -498v-45q41 119 137 192t228 73z" />
    <glyph glyph-name="seven.tf" horiz-adv-x="996" 
d="M95 1169v60h814v-23l-512 -1206h-67l495 1169h-730z" />
    <glyph glyph-name="eight.tf" horiz-adv-x="996" 
d="M504 30q158 0 248 79t88 202t-90 195t-255 129q-58 17 -85 32q-246 -134 -244 -356q2 -137 91 -209t247 -72zM808 970q0 102 -80 162t-218 60t-214 -62t-76 -162t77 -164t222 -111l71 -28q112 61 165 132t53 173zM502 -28q-188 0 -294 87t-107 246q-2 240 255 386
q-201 99 -201 272q0 130 95 209q96 79 259 79t263 -74t99 -211q0 -195 -227 -324q125 -58 192 -136t69 -193q2 -149 -107 -245q-108 -96 -296 -96z" />
    <glyph glyph-name="nine.tf" horiz-adv-x="996" 
d="M179 868q1 -142 89 -235t226 -93t231 87q92 87 113 207q-26 177 -114 269t-223 92q-134 0 -228 -93q-94 -92 -94 -234zM516 1255q176 0 286 -147t110 -454t-124 -488t-364 -181q-128 0 -238 39v58l2 2q117 -43 233 -43q424 0 428 646v37q-45 -112 -138 -178t-219 -66
q-169 0 -273 109q-103 109 -103 277t111 278q112 111 289 111z" />
    <glyph glyph-name="zero.dnom" horiz-adv-x="707" 
d="M354 34q98 0 158 80t60 220t-60 222t-158 83q-98 0 -159 -82q-59 -82 -59 -223q0 -140 60 -220t158 -80zM354 -13q-125 0 -200 91t-76 255q0 164 76 258t200 94q125 0 200 -93t75 -258t-75 -256t-200 -91z" />
    <glyph glyph-name="one.dnom" horiz-adv-x="389" 
d="M214 0v613l-167 -79v62l216 97h7v-693h-56z" />
    <glyph glyph-name="two.dnom" horiz-adv-x="608" 
d="M462 514q0 56 -46 94t-124 38q-123 0 -204 -82l-2 2v52q82 78 196 78t176 -49q61 -49 61 -123q1 -74 -45 -130q-46 -57 -148 -135q-168 -128 -179 -211h408v-48h-484q-2 62 53 138q54 76 154 150t142 123q42 47 42 103z" />
    <glyph glyph-name="three.dnom" horiz-adv-x="603" 
d="M280 -15q-120 0 -204 60v52h2q80 -65 211 -65q85 0 139 42t54 118q0 74 -51 112t-129 39h-75v41h71q63 0 108 35t45 97t-46 97t-138 35t-165 -54h-1v50q73 52 179 52t166 -44t60 -127q1 -110 -109 -158q140 -43 139 -179q0 -91 -68 -147t-188 -56z" />
    <glyph glyph-name="four.dnom" horiz-adv-x="668" 
d="M428 199v417l-327 -417h327zM618 199v-41h-138v-158h-52v158h-396v21l411 525h37v-505h138z" />
    <glyph glyph-name="five.dnom" horiz-adv-x="608" 
d="M532 201q0 -99 -70 -157t-182 -59q-110 0 -209 49v52h2q99 -54 196 -54t153 47q55 47 55 122q-1 75 -51 119t-152 45q-102 0 -185 -22l-1 1l26 339h391v-48h-345l-20 -240q63 17 165 17t165 -56q62 -56 62 -155z" />
    <glyph glyph-name="six.dnom" horiz-adv-x="646" 
d="M330 30q80 0 135 48t55 121t-48 120t-130 47t-142 -49q-60 -50 -68 -118q36 -169 198 -169zM364 410q88 0 150 -59q60 -59 60 -151t-70 -153q-68 -61 -182 -61t-184 77q-69 78 -69 241t86 274t236 111q71 0 132 -21v-44l-2 -2q-67 20 -128 20q-134 0 -201 -101t-67 -252
v-17q27 62 89 100t150 38z" />
    <glyph glyph-name="seven.dnom" horiz-adv-x="556" 
d="M50 627v53h479v-23l-293 -657h-54l-3 2l285 625h-414z" />
    <glyph glyph-name="eight.dnom" horiz-adv-x="642" 
d="M326 28q86 0 138 40t50 102t-49 99q-47 38 -150 74q-6 3 -17 7t-17 6q-153 -65 -153 -179q2 -73 58 -111q54 -38 140 -38zM320 653q-72 1 -116 -33t-44 -87t47 -89t149 -66q132 61 132 149q0 58 -48 92t-120 34zM326 -15q-110 1 -182 49q-70 48 -70 137q0 127 162 203
q-68 32 -100 68t-32 100t62 111q62 45 154 45t156 -44t64 -122q0 -104 -138 -173q88 -39 126 -81t39 -114t-65 -126q-66 -53 -176 -53z" />
    <glyph glyph-name="nine.dnom" horiz-adv-x="647" 
d="M121 472q0 -78 49 -124t131 -46t137 46t72 106q-32 192 -201 192q-80 0 -134 -48t-54 -126zM316 694q114 0 184 -82t70 -252q0 -172 -78 -271t-229 -98q-76 0 -148 22v48h2q65 -24 142 -24q257 0 257 345v5q-67 -130 -218 -130q-106 0 -170 56q-63 55 -63 157t69 163
q68 61 182 61z" />
    <glyph glyph-name="zero.numr" horiz-adv-x="707" 
d="M354 592q98 0 158 80t60 220t-60 223q-60 82 -158 82t-159 -82q-59 -83 -59 -223t60 -220t158 -80zM354 546q-125 0 -200 91t-76 255q0 164 76 258t200 94q125 0 200 -93t75 -258t-75 -256t-200 -91z" />
    <glyph glyph-name="one.numr" horiz-adv-x="389" 
d="M214 559v612l-167 -78v61l216 97h7v-692h-56z" />
    <glyph glyph-name="two.numr" horiz-adv-x="608" 
d="M462 1074q0 56 -46 92q-46 38 -124 39q-123 0 -204 -82l-2 2v52q82 78 196 78t176 -49q61 -49 61 -123q1 -74 -45 -131t-148 -135q-168 -128 -179 -210h408v-48h-484q-2 61 53 137q54 76 154 150t142 124q42 48 42 104z" />
    <glyph glyph-name="three.numr" horiz-adv-x="603" 
d="M280 544q-120 0 -204 59v52h2q80 -65 211 -65q85 0 139 43t54 117t-51 112t-129 39h-75v41h71q63 0 108 35t45 97t-46 98q-46 34 -138 34t-165 -54h-1v51q73 52 179 52t166 -45t60 -126q1 -111 -109 -159q140 -43 139 -178q0 -91 -68 -147t-188 -56z" />
    <glyph glyph-name="four.numr" horiz-adv-x="668" 
d="M428 758v417l-327 -417h327zM618 758v-41h-138v-158h-52v158h-396v20l411 525h37v-504h138z" />
    <glyph glyph-name="five.numr" horiz-adv-x="608" 
d="M280 544q-110 0 -209 48v52h2q99 -54 196 -54t153 48t55 122t-51 119t-152 45t-185 -23l-1 2l26 339h391v-49h-345l-20 -240q65 17 166 17q102 0 164 -56t62 -154t-70 -158q-72 -58 -182 -58z" />
    <glyph glyph-name="six.numr" horiz-adv-x="646" 
d="M330 588q80 0 135 48t55 122q0 72 -48 120t-130 47q-82 0 -142 -50t-68 -117q36 -170 198 -170zM364 968q88 0 150 -59q60 -59 60 -151t-70 -153q-68 -61 -182 -61t-184 78q-69 78 -69 241t86 274t236 110q71 0 132 -20v-45l-2 -2q-67 20 -128 21q-134 1 -201 -101
t-67 -253v-17q28 61 89 100q62 38 150 38z" />
    <glyph glyph-name="seven.numr" horiz-adv-x="556" 
d="M50 1186v52h479v-22l-293 -657h-54l-3 1l285 626h-414z" />
    <glyph glyph-name="eight.numr" horiz-adv-x="642" 
d="M326 586q86 0 138 40t50 102t-49 100t-150 73q-6 2 -17 7t-17 6q-153 -65 -153 -179q2 -73 58 -111q54 -38 140 -38zM320 1212q-72 0 -116 -34t-44 -86q0 -53 38 -83t94 -50t64 -23q132 61 132 149q0 59 -48 93t-120 34zM326 544q-110 0 -182 48q-70 48 -70 138
q0 127 162 203q-68 32 -100 68q-32 37 -32 101t62 110t154 45q92 0 156 -44t64 -122q0 -104 -138 -173q88 -39 126 -81q38 -43 39 -115t-65 -125t-176 -53z" />
    <glyph glyph-name="nine.numr" horiz-adv-x="647" 
d="M309 1205q-80 -1 -134 -49t-54 -126t49 -124t131 -46t137 46t72 107q-32 192 -201 192zM316 1253q114 0 184 -82t70 -253t-78 -270t-229 -99q-76 0 -148 23v48h2q65 -24 142 -24q257 0 257 344v6q-67 -130 -218 -131q-106 0 -170 56q-63 56 -63 158t69 163q68 61 182 61z
" />
    <glyph glyph-name="zero.sups" horiz-adv-x="707" 
d="M354 871q98 0 158 80q60 81 60 221t-60 222t-158 82t-159 -82q-59 -82 -59 -222q0 -141 60 -221t158 -80zM354 825q-125 0 -200 91t-76 255q0 164 76 258t200 94q125 0 200 -93t75 -258t-75 -256t-200 -91z" />
    <glyph glyph-name="one.sups" horiz-adv-x="389" 
d="M214 838v612l-167 -78v62l216 96h7v-692h-56z" />
    <glyph glyph-name="two.sups" horiz-adv-x="608" 
d="M462 1352q0 56 -46 94t-124 38q-123 0 -204 -82l-2 2v52q82 78 196 78t176 -49q61 -49 61 -123q1 -74 -45 -130q-46 -57 -148 -135q-168 -128 -179 -211h408v-48h-484q-2 62 53 138q54 76 154 150t142 123q42 47 42 103z" />
    <glyph glyph-name="three.sups" horiz-adv-x="603" 
d="M280 823q-120 0 -204 60v52h2q80 -65 188 -65t162 42q54 44 54 118t-51 112t-129 38h-75v41h71q63 -1 108 35t45 98t-46 97t-138 35t-165 -54h-1v50q73 52 179 52t166 -45t60 -126q1 -110 -109 -158q140 -43 139 -179q0 -91 -68 -147t-188 -56z" />
    <glyph glyph-name="four.sups" horiz-adv-x="668" 
d="M428 1037v417l-327 -417h327zM618 1037v-41h-138v-158h-52v158h-396v21l411 525h37v-505h138z" />
    <glyph glyph-name="five.sups" horiz-adv-x="608" 
d="M532 1038q0 -98 -70 -156t-182 -59q-110 0 -209 48v52h2q99 -54 196 -54q97 -1 153 47t55 122t-51 120q-50 45 -152 45t-185 -23l-1 2l26 339h391v-48h-345l-20 -240q65 17 166 17q102 0 164 -57t62 -155z" />
    <glyph glyph-name="six.sups" horiz-adv-x="646" 
d="M330 868q80 0 135 48t55 121t-48 120t-130 47t-142 -50t-68 -117q36 -169 198 -169zM364 1247q88 -1 150 -59q60 -58 60 -150t-69 -154q-69 -61 -183 -61t-184 78q-69 78 -69 241t86 274t236 111q71 0 132 -21v-44l-2 -2q-67 20 -128 20q-134 0 -201 -101t-67 -253v-16
q28 61 89 99q62 38 150 38z" />
    <glyph glyph-name="seven.sups" horiz-adv-x="556" 
d="M50 1465v52h479v-22l-293 -657h-54l-3 2l285 625h-414z" />
    <glyph glyph-name="eight.sups" horiz-adv-x="642" 
d="M326 866q86 0 138 40t50 102t-49 99q-47 38 -150 73q-6 2 -17 7t-17 6q-153 -65 -153 -178q2 -73 58 -111q54 -38 140 -38zM320 1491q-72 1 -116 -33t-44 -87t46 -89t150 -66q132 61 132 149q0 58 -48 92t-120 34zM326 823q-110 0 -182 48q-70 48 -70 138q0 127 162 203
q-68 32 -100 68t-32 100t62 110t154 46t156 -44t64 -122q0 -104 -138 -173q88 -39 126 -81t39 -114t-65 -126q-66 -53 -176 -53z" />
    <glyph glyph-name="nine.sups" horiz-adv-x="647" 
d="M301 1139q82 0 137 46t72 107q-32 192 -201 192q-80 0 -134 -48t-54 -126q0 -77 49 -124t131 -47zM316 1532q114 0 184 -82t70 -253t-78 -270t-229 -98q-76 0 -148 22v48h2q65 -24 142 -24q257 0 257 344v6q-67 -130 -218 -130q-106 0 -170 56q-63 55 -63 157t69 163
q68 61 182 61z" />
    <glyph glyph-name="zero.smcp" horiz-adv-x="1202" 
d="M1030 497q0 214 -116 341q-116 126 -314 126q-200 0 -314 -124t-113 -338q-1 -215 115 -340t316 -125t313 123t113 337zM600 -22q-226 0 -358 138t-132 382q0 243 134 385q134 143 359 143t357 -142t133 -382q0 -241 -133 -383q-134 -141 -360 -141z" />
    <glyph glyph-name="one.smcp" horiz-adv-x="551" 
d="M309 0v923l-255 -147v66l305 173h12v-1015h-62z" />
    <glyph glyph-name="two.smcp" horiz-adv-x="934" 
d="M428 1026q162 0 260 -76t98 -218t-136 -251q-54 -44 -173 -120q-289 -184 -296 -294q-6 -9 -8 -9l2 -2q4 2 11 2h665v-58h-758q-2 110 87 205t278 215t225 181t38 136q-4 105 -81 167t-217 64q-197 0 -308 -136l-1 2l-2 65q117 127 316 127z" />
    <glyph glyph-name="three.smcp" horiz-adv-x="923" 
d="M819 254q0 -124 -103 -202t-293 -78t-335 125v69l5 1q143 -136 345 -135q144 0 232 62t88 176t-88 176q-88 64 -244 64l-89 2v54l86 2q130 2 204 57q75 55 75 147t-67 142t-194 50q-195 0 -309 -123l-4 2v60q114 119 319 119q147 0 233 -64t85 -182q0 -82 -49 -142
t-133 -87q236 -55 236 -295z" />
    <glyph glyph-name="four.smcp" horiz-adv-x="1046" 
d="M726 264v648l-555 -648h555zM992 264v-54h-208v-210h-58v210h-653v19l679 795h32v-760h208z" />
    <glyph glyph-name="five.smcp" horiz-adv-x="951" 
d="M476 644q178 0 280 -88t102 -242t-114 -244t-308 -90t-332 93v63l6 2q140 -102 318 -102t273 76q96 76 96 200t-88 200q-88 74 -260 74t-311 -39l30 458h646v-55h-592l-21 -336q97 30 275 30z" />
    <glyph glyph-name="six.smcp" horiz-adv-x="1037" 
d="M883 326q0 130 -83 203q-83 74 -231 74t-255 -88t-117 -215q70 -266 343 -266q153 0 248 81t95 211zM589 663q157 1 257 -89t100 -246t-113 -254q-113 -100 -303 -100t-301 126q-112 126 -112 371t136 391t367 147q138 0 231 -43v-54l-4 -3q-93 43 -227 42
q-209 0 -324 -131t-115 -356q0 -39 1 -58q38 119 144 188t263 69z" />
    <glyph glyph-name="seven.smcp" horiz-adv-x="860" 
d="M35 946v59h795v-22l-519 -983h-63l-2 4l506 942h-717z" />
    <glyph glyph-name="eight.smcp" horiz-adv-x="990" 
d="M498 26q150 0 234 58t82 159t-81 157t-238 95q-61 15 -111 34q-216 -114 -213 -276q1 -111 89 -169t238 -58zM786 770q0 78 -80 130t-203 53q-123 0 -199 -51t-77 -133q0 -82 70 -130t226 -90l78 -22q95 56 140 110q45 55 45 133zM166 769q0 106 95 173t243 67t246 -66
t97 -180q0 -143 -188 -258q214 -83 216 -252q2 -132 -100 -206q-101 -75 -279 -75t-281 72t-105 202q-4 184 218 305q-162 71 -162 218z" />
    <glyph glyph-name="nine.smcp" horiz-adv-x="1012" 
d="M494 378q148 0 254 86q105 86 116 212q-67 274 -346 274q-147 0 -242 -81t-95 -211t82 -206q83 -74 231 -74zM474 320q-157 0 -257 90t-100 244q1 156 113 256t302 99q190 0 302 -129q112 -128 112 -378t-135 -389t-368 -139q-143 0 -231 43v54l4 2q95 -41 227 -41
q210 0 325 123t115 351q0 45 -2 66q-41 -116 -145 -184t-262 -68z" />
    <glyph glyph-name="exclam.case" horiz-adv-x="471" 
d="M235 -6q-22 0 -37 15q-14 15 -14 37t14 35q14 14 36 14t37 -14q14 -14 14 -35q0 -20 -14 -36t-36 -16zM209 302l-8 983h67l-5 -983h-54z" />
    <glyph glyph-name="exclamdown.case" horiz-adv-x="471" 
d="M203 -50l6 983h54l5 -983h-65zM235 1139q-23 0 -37 15q-14 16 -14 36t15 35t37 15t36 -15t15 -36q0 -21 -14 -36q-15 -14 -38 -14z" />
    <glyph glyph-name="question.case" horiz-adv-x="821" 
d="M324 -7q-22 1 -36 15t-14 36t14 35q14 14 36 14t36 -14t14 -35t-14 -36t-36 -15zM614 986q0 90 -69 160q-70 70 -188 70q-166 0 -271 -110h-2v63q91 104 279 104q141 1 228 -81t87 -210t-50 -203t-153 -159q-125 -97 -125 -292l-60 -2q0 119 32 195t106 134t104 89
q30 32 56 92t26 150z" />
    <glyph glyph-name="questiondown.case" horiz-adv-x="821" 
d="M207 263q-1 -90 69 -160t188 -69q166 0 271 109h2v-63q-91 -104 -279 -104q-141 0 -228 82t-87 210t51 202q50 75 152 159q125 97 125 293l60 1q0 -119 -32 -195q-33 -76 -107 -134t-104 -89t-55 -91q-26 -60 -26 -151zM497 1257q22 0 36 -15q14 -14 14 -36t-14 -36
t-36 -14t-36 14t-14 35t14 37t36 15z" />
    <glyph glyph-name="question.ss01" horiz-adv-x="916" 
d="M345 -4q-23 0 -37 15t-14 35t14 35q14 14 37 14t37 -14t15 -34q0 -20 -14 -36q-15 -15 -38 -15zM395 439q-84 0 -162 28v52l3 4q78 -28 159 -28q137 0 237 99t100 259t-92 253t-240 93t-266 -86l-4 2v52q119 86 284 86t273 -106t108 -290t-117 -301t-283 -117z" />
    <glyph glyph-name="questiondown.ss01" horiz-adv-x="856" 
d="M506 547q84 0 162 -28v-52l-3 -3q-78 28 -159 28q-138 0 -238 -99t-99 -259q-1 -160 91 -253t241 -93t266 85l4 -1v-53q-119 -85 -284 -85t-273 106t-108 290t117 300t283 117zM505 940q0 20 14 35t37 15t37 -14t14 -36q0 -20 -14 -34t-37 -14t-37 14t-14 34z" />
    <glyph glyph-name="bullet.ss02" horiz-adv-x="610" 
d="M305 328l-145 203l145 204l146 -204z" />
    <glyph glyph-name="braceleft.case" horiz-adv-x="549" 
d="M445 -169q-110 -1 -158 41t-49 165v365q0 76 -53 122t-107 46v65q56 0 109 45t53 119v366q0 121 48 164t157 43h32v-52h-32q-81 0 -115 -31t-34 -125v-375q0 -89 -59 -137t-112 -49v-3q55 0 113 -50t58 -137v-374q0 -99 36 -129t126 -29h17v-50h-30z" />
    <glyph glyph-name="braceright.case" horiz-adv-x="549" 
d="M311 797q0 -74 53 -119t109 -45v-65q-54 0 -108 -46t-54 -122v-365q1 -123 -47 -165t-156 -41h-34v52h21q88 0 124 30t36 126v374q0 88 59 137t112 50v3q-54 1 -112 49t-59 138v374q0 96 -34 126t-115 30h-32v52h34q108 0 155 -43t48 -163v-367z" />
    <glyph glyph-name="bracketleft.case" horiz-adv-x="536" 
d="M471 1322h-208v-1443h208v-48h-264v1539h264v-48z" />
    <glyph glyph-name="bracketright.case" horiz-adv-x="538" 
d="M67 1370h263v-1541h-263v50h207v1441h-207v50z" />
    <glyph glyph-name="parenleft.case" horiz-adv-x="515" 
d="M119 610q0 321 98 520t219 255l24 -50q-112 -60 -197 -242q-85 -181 -85 -479t88 -492q86 -194 194 -245l-24 -50q-123 54 -220 258t-97 525z" />
    <glyph glyph-name="parenright.case" horiz-adv-x="515" 
d="M337 612q0 296 -85 480t-194 243l22 50q121 -56 219 -255q98 -198 98 -520t-97 -526t-220 -257l-22 50q108 52 193 246q86 193 86 489z" />
    <glyph glyph-name="emdash.case" horiz-adv-x="1571" 
d="M143 601v56h1285v-56h-1285z" />
    <glyph glyph-name="endash.case" horiz-adv-x="925" 
d="M143 601v56h637v-56h-637z" />
    <glyph glyph-name="hyphen.case" horiz-adv-x="770" 
d="M143 601v56h483v-56h-483z" />
    <glyph glyph-name="uni00AD.case" horiz-adv-x="770" 
d="M143 601v56h483v-56h-483z" />
    <glyph glyph-name="guillemotleft.case" horiz-adv-x="955" 
d="M843 970v-11l-325 -330l324 -335v-9h-71l-337 344l339 341h70zM480 970v-11l-325 -330l323 -335v-9h-70l-337 344l339 341h70z" />
    <glyph glyph-name="guillemotright.case" horiz-adv-x="953" 
d="M475 285v11l326 330l-324 335v9h70l337 -344l-338 -341h-71zM112 285v11l326 330l-324 335v9h70l337 -344l-339 -341h-70z" />
    <glyph glyph-name="guilsinglleft.case" horiz-adv-x="592" 
d="M480 972v-9l-325 -330l323 -335v-11h-70l-335 344l338 341h69z" />
    <glyph glyph-name="guilsinglright.case" horiz-adv-x="590" 
d="M112 285v11l326 330l-324 335v9h70l337 -344l-339 -341h-70z" />
    <glyph glyph-name="cent.osf" horiz-adv-x="1096" 
d="M646 -190h-61v171q-215 13 -347 155t-132 364q0 223 134 365t345 157v175h61v-173q155 -2 255 -47v-55l-4 -4q-108 48 -260 48q-203 0 -334 -127q-130 -127 -130 -335t126 -337t334 -130q158 0 272 60l5 -2v-56q-112 -58 -264 -59v-170z" />
    <glyph glyph-name="currency.osf" horiz-adv-x="1318" 
d="M656 56q182 0 310 129t127 311q0 182 -128 310t-309 127q-182 0 -310 -128t-128 -309t128 -311q128 -129 310 -129zM1152 492q0 -186 -124 -324l137 -140l-44 -43l-138 138q-138 -123 -324 -123t-326 119l-134 -134l-43 43l134 134q-130 140 -130 332t125 331l-125 123
l43 44l127 -126q141 123 331 123t329 -129l133 132l42 -44l-132 -133q119 -137 119 -323z" />
    <glyph glyph-name="dollar.osf" horiz-adv-x="878" 
d="M190 775q0 -101 66 -143t212 -78t227 -100t81 -186q0 -124 -81 -200t-217 -87v-171h-61v170q-192 2 -311 76v63l4 2q125 -86 313 -86q136 0 214 58t78 167t-73 156q-73 48 -223 86q-149 38 -223 94t-74 176t90 184q89 64 233 70v171h61v-171q141 -6 239 -49v-57l-4 -2
q-121 50 -259 50q-292 0 -292 -193z" />
    <glyph glyph-name="Euro.osf" horiz-adv-x="1042" 
d="M678 -20q-170 0 -302 96t-177 268h-188l8 51h171q-9 60 -9 110t9 109h-155l10 51h156q47 169 182 265t303 96t275 -43l-13 -52l-6 -2q-94 39 -244 39t-268 -81t-162 -222h551l-9 -51h-555q-9 -56 -9 -112t11 -107h536l-9 -51h-516q42 -143 156 -225t268 -82t265 54l6 -2
l-10 -57q-105 -52 -275 -52z" />
    <glyph glyph-name="uni20BD.osf" horiz-adv-x="886" 
d="M259 462h175q158 0 241 61.5t83 173t-71 175t-226 63.5t-202 -6v-467zM441 408h-182v-172h227v-54h-227v-182h-64v182h-167l2 54h165v172h-167l2 54h165v521q143 9 265 9q356 -2 359 -288q2 -141 -96 -218.5t-282 -77.5z" />
    <glyph glyph-name="uni20A8.osf" horiz-adv-x="804" 
d="M236 387h-24l443 -383l-2 -4h-74l-454 387v54h113q130 0 215 57t100 167h-447l13 54l436 -2q-9 236 -294 236h-155l11 52h665l-11 -52h-307q151 -65 154 -236h164l-11 -52h-157q-17 -132 -120 -205t-258 -73z" />
    <glyph glyph-name="sterling.osf" horiz-adv-x="1044" 
d="M162 9q112 118 112 269q0 75 -23 180h-171v54h158q-20 89 -20 156q0 166 108 262t268 96t270 -76v-62l-4 -2q-112 80 -256 80t-232 -78t-89 -216q0 -67 20 -160h429v-54h-415q22 -104 22 -153q-1 -156 -75 -249h635v-56h-735z" />
    <glyph glyph-name="yen.osf" horiz-adv-x="968" 
d="M836 445v-54h-324v-194h324v-52h-324v-145h-58v145h-324v52h324v194h-324v54h294l-376 560h67l369 -553l367 553h65l-374 -560h294z" />
    <glyph glyph-name="arrowup.ss01" horiz-adv-x="1048" 
d="M114 385v90l411 408l410 -408v-90l-412 410z" />
    <glyph glyph-name="uni2197.ss01" horiz-adv-x="1048" 
d="M735 220v581l-579 -2l64 63h577l2 -579z" />
    <glyph glyph-name="arrowright.ss01" horiz-adv-x="1048" 
d="M395 177h-90l410 409l-410 410h90l407 -410z" />
    <glyph glyph-name="uni2198.ss01" horiz-adv-x="1048" 
d="M730 976l63 -64l-2 -579h-577l-63 64l579 -2v581z" />
    <glyph glyph-name="arrowdown.ss01" horiz-adv-x="1048" 
d="M114 849l409 -410l412 410v-89l-410 -408l-411 408v89z" />
    <glyph glyph-name="uni2199.ss01" horiz-adv-x="1048" 
d="M274 987v-581l579 2l-64 -64h-577l-2 579z" />
    <glyph glyph-name="arrowleft.ss01" horiz-adv-x="1048" 
d="M661 190l-408 410l408 409h89l-409 -409l409 -410h-89z" />
    <glyph glyph-name="uni2196.ss01" horiz-adv-x="1048" 
d="M320 248l-63 63l2 579h577l63 -63l-579 2v-581z" />
    <glyph glyph-name="ampersand.alt" horiz-adv-x="1213" 
d="M1180 700v-50h-178q4 -366 -116 -522t-370 -156q-190 0 -306 91q-115 91 -115 243q-1 152 87 244t241 126q-236 56 -237 279q0 145 102 229t242 84q142 0 228 -60v-57h-2q-90 61 -214 61t-210 -68t-84 -186q0 -118 66 -174t220 -84v-48q-180 -20 -278 -104t-98 -224
q0 -138 99 -216t266 -78q214 0 319 140t102 480h-181v50h417z" />
    <glyph glyph-name="at.case" horiz-adv-x="1468" 
d="M603 564h322l-83 188l-71 181l-8 17h-2l-80 -203zM1158 367q156 0 156 324q-4 308 -244 461q-128 81 -301 81q-257 1 -428 -171t-171 -441t170 -437q172 -168 436 -169q264 0 427 164h5l28 -38q-173 -179 -462 -179t-476 182q-186 182 -186 476t187 480t470 187
q191 1 331 -89t206 -222t66 -282q0 -382 -216 -381q-73 0 -112 34t-80 131l-18 43h-361l-90 -204h-61l300 688h57l227 -500q34 -76 62 -107t78 -31z" />
    <glyph glyph-name="ampersand.smcp.alt" horiz-adv-x="1055" 
d="M994 570v-45h-147q-3 -277 -113 -411t-308 -134q-150 0 -236 70t-86 188q0 120 68 196t182 110q-182 42 -182 235q0 101 81 169t201 67q120 0 201 -49v-52h-2q-79 48 -185 48t-174 -52q-68 -54 -67 -149q0 -169 225 -191v-47q-136 -24 -212 -93t-76 -177t72 -165t196 -56
q356 0 361 493h-162v45h363z" />
    <glyph glyph-name="at.smcp" horiz-adv-x="1468" 
d="M603 426h322l-83 188l-71 179l-8 19h-2l-5 -19l-75 -186zM1158 227q158 0 155 317t-243 470q-128 81 -301 81q-257 1 -428 -171t-171 -441t168 -437q170 -168 434 -168t431 163h5l28 -37q-173 -179 -464 -179t-476 182q-184 183 -184 475t187 478t470 187q191 -1 331 -89
t206 -220t66 -281q0 -384 -216 -384q-73 -1 -112 35t-80 131l-20 45h-359l-90 -207h-61l300 689h57l227 -499q34 -78 62 -109t78 -31z" />
    </font>
</defs>
</svg>
