<?xml version="1.0" encoding="UTF-8"?>
<svg xmlns="http://www.w3.org/2000/svg" xmlns:xlink="http://www.w3.org/1999/xlink" version="1.2" >
<font id="Fran Bold">
<font-face  font-family="Fran" units-per-em="1000" ascent="760" descent="-240" font-style="normal" font-weight="700" font-stretch="normal" cap-height="701" x-height="506" underline-position="-51" underline-thickness="99" />
<missing-glyph  horiz-adv-x="524" d="" />
<glyph glyph-name="NULL" horiz-adv-x="456" d="" />
<glyph glyph-name="&amp;#x0;" horiz-adv-x="354" d="" />
<glyph glyph-name="&amp;#xd;" unicode="&#xd;" horiz-adv-x="354" d="" />
<glyph glyph-name="space" unicode="&#x20;" horiz-adv-x="221" d="" />
<glyph glyph-name="exclam" unicode="&#x21;" horiz-adv-x="254" d="M198 701 C151 704 103 704 55 701 L72 220 L181 220 L198 701 Z M59 -2 C102 -3 148 -4 191 -2 C193 35 193 86 191 133 C151 138 99 136 60 134 C57 95 57 52 59 -2 L59 -2 Z " />
<glyph glyph-name="quotedbl" unicode="&#x22;" horiz-adv-x="399" d="M343 769 C296 771 254 769 215 762 L262 507 C291 505 320 507 345 514 L343 769 Z M168 758 C121 760 79 758 40 751 L87 496 C116 494 145 496 170 503 L168 758 Z " />
<glyph glyph-name="numbersign" unicode="&#x23;" horiz-adv-x="550" d="M90 0 C123 -4 156 -4 189 0 L207 106 L298 106 L280 0 C312 -4 346 -4 379 0 L397 106 L511 106 C514 137 514 170 511 201 L413 201 L432 321 L535 321 C539 353 539 385 535 417 L448 417 L465 522 C432 525 399 525 366 522 L349 417 L258 417 L275 522 C242 525 209 525 176 522 L159 417 L49 417 C46 385 46 353 49 321 L143 321 L124 201 L22 201 C19 170 19 137 22 106 L108 106 L90 0 Z M219 201 L239 321 L335 321 L315 201 L219 201 Z " />
<glyph glyph-name="dollar" unicode="&#x24;" horiz-adv-x="613" d="M581 197 C581 343 482 373 346 417 L349 609 C374 607 395 602 415 595 L444 474 C479 472 515 472 550 478 C552 529 551 586 546 655 C480 695 414 708 351 711 L352 788 C328 792 302 792 277 789 L276 711 C125 699 40 623 40 512 C40 386 114 340 263 292 C265 291 267 291 269 290 L266 92 C236 94 212 99 189 107 L159 227 C121 231 83 230 44 225 C41 187 44 105 49 39 C118 9 191 -7 265 -10 L263 -107 C288 -111 313 -111 338 -108 L340 -10 C490 0 581 62 581 197 L581 197 Z M190 520 C190 564 219 595 274 606 L272 442 C222 460 190 481 190 520 L190 520 Z M341 96 L344 265 C402 243 429 224 429 181 C429 135 400 107 341 96 L341 96 Z " />
<glyph glyph-name="percent" unicode="&#x25;" horiz-adv-x="1042" d="M796 702 C774 723 748 739 719 750 L256 -2 C279 -24 304 -41 332 -54 L796 702 Z M247 712 C110 712 37 619 37 503 C37 387 110 294 247 294 C386 294 458 386 458 507 C458 617 386 712 247 712 L247 712 Z M247 635 C296 635 324 576 324 504 C324 427 295 371 247 371 C199 371 170 427 170 503 C170 578 199 635 247 635 L247 635 Z M794 413 C657 413 584 320 584 204 C584 88 657 -5 794 -5 C933 -5 1005 87 1005 208 C1005 318 933 413 794 413 L794 413 Z M794 336 C843 336 871 277 871 205 C871 128 842 72 794 72 C746 72 717 128 717 204 C717 279 746 336 794 336 L794 336 Z " />
<glyph glyph-name="ampersand" unicode="&#x26;" horiz-adv-x="732" d="M716 84 L612 99 C592 112 568 129 543 148 C576 183 609 225 637 277 L712 285 C715 317 715 349 712 381 L465 381 C461 350 461 320 465 290 L520 287 C506 258 488 231 469 208 C417 252 366 302 324 352 C417 404 471 465 471 552 C471 640 403 711 294 711 C180 711 102 636 102 524 C102 477 124 424 158 370 C76 320 18 251 18 162 C18 47 113 -9 229 -9 C321 -9 393 15 454 62 C494 30 528 8 547 -1 L716 0 C719 28 719 56 716 84 L716 84 Z M288 613 C312 613 342 588 342 535 C342 493 315 460 269 427 C245 467 230 505 230 539 C230 584 256 613 288 613 L288 613 Z M267 94 C217 94 159 119 159 187 C159 228 182 261 215 292 C263 233 320 176 374 128 C338 104 303 94 267 94 L267 94 Z " />
<glyph glyph-name="quotesingle" unicode="&#x27;" horiz-adv-x="223" d="M168 758 C121 760 79 758 40 751 L87 496 C116 494 145 496 170 503 L168 758 Z " />
<glyph glyph-name="parenleft" unicode="&#x28;" horiz-adv-x="384" d="M312 -151 C333 -131 350 -106 363 -76 C250 1 181 141 181 293 C181 446 248 589 363 668 C350 697 333 722 312 743 C135 642 45 477 45 295 C45 112 144 -59 312 -151 L312 -151 Z " />
<glyph glyph-name="parenright" unicode="&#x29;" horiz-adv-x="384" d="M72 -151 C240 -59 339 112 339 295 C339 477 249 642 72 743 C51 722 34 697 21 668 C136 589 203 446 203 293 C203 141 134 1 21 -76 C34 -106 51 -131 72 -151 L72 -151 Z " />
<glyph glyph-name="asterisk" unicode="&#x2a;" horiz-adv-x="436" d="M274 513 L395 538 C387 573 378 603 366 629 L252 578 L266 701 C234 705 203 705 171 701 L184 578 L71 629 C56 602 47 572 42 539 L162 514 L79 423 C102 399 128 381 157 366 L218 473 L279 366 C308 380 334 399 356 422 L274 513 Z " />
<glyph glyph-name="plus" unicode="&#x2b;" horiz-adv-x="537" d="M493 356 L328 356 L328 534 C288 537 249 537 210 534 L210 356 L44 356 C41 320 41 282 44 245 L210 245 L210 68 C249 65 288 65 328 68 L328 245 L493 245 C497 282 497 320 493 356 L493 356 Z " />
<glyph glyph-name="comma" unicode="&#x2c;" horiz-adv-x="283" d="M67 -1 C84 -2 104 -8 104 -33 C104 -52 93 -79 68 -116 C85 -130 103 -142 121 -153 C190 -82 210 -6 210 58 C210 85 206 111 200 133 C161 137 109 137 69 135 C67 94 65 50 67 -1 L67 -1 Z " />
<glyph glyph-name="hyphen" unicode="&#x2d;" horiz-adv-x="397" d="M359 361 L38 361 C34 323 34 284 38 247 L359 247 C363 284 363 323 359 361 L359 361 Z " />
<glyph glyph-name="period" unicode="&#x2e;" horiz-adv-x="262" d="M64 -2 C107 -3 153 -4 196 -2 C198 35 198 86 196 133 C156 138 104 136 65 134 C62 95 62 52 64 -2 L64 -2 Z " />
<glyph glyph-name="slash" unicode="&#x2f;" horiz-adv-x="464" d="M369 798 L-14 -128 C23 -131 59 -131 95 -128 L478 798 C442 800 406 800 369 798 L369 798 Z " />
<glyph glyph-name="zero" unicode="0" horiz-adv-x="627" d="M313 711 C145 711 30 576 30 351 C30 125 145 -10 313 -10 C482 -10 597 123 597 357 C597 572 482 711 313 711 L313 711 Z M313 601 C399 601 445 510 446 352 C447 190 400 99 313 99 C228 99 182 189 182 350 C182 511 228 601 313 601 L313 601 Z " />
<glyph glyph-name="one" unicode="1" horiz-adv-x="436" d="M294 701 L196 701 L40 655 C36 625 36 594 40 564 L150 576 L150 105 L40 95 C36 64 36 32 40 0 L399 0 C403 30 403 61 399 91 L294 98 L294 701 Z " />
<glyph glyph-name="two" unicode="2" horiz-adv-x="560" d="M519 117 L227 117 C360 215 507 332 507 508 C507 636 428 710 280 710 C183 710 95 681 41 646 C39 583 40 551 48 490 C82 485 117 485 151 490 L160 584 C190 594 220 599 247 599 C307 599 357 579 357 496 C357 374 189 227 39 106 C35 71 35 35 39 0 L519 0 C524 39 524 78 519 117 L519 117 Z " />
<glyph glyph-name="three" unicode="3" horiz-adv-x="562" d="M381 386 C447 414 497 470 497 549 C497 651 417 710 284 710 C188 710 102 678 41 644 C54 607 71 577 91 550 C136 573 192 595 250 595 C296 595 346 577 346 523 C346 457 261 415 159 408 C156 375 158 342 165 310 L200 310 C323 310 384 267 384 201 C384 140 327 103 247 103 C214 103 180 109 150 117 L147 188 C113 194 78 196 44 193 C34 137 29 119 31 48 C81 14 167 -8 261 -8 C425 -8 533 74 533 203 C533 312 458 367 381 386 L381 386 Z " />
<glyph glyph-name="four" unicode="4" horiz-adv-x="604" d="M576 184 C580 221 580 257 576 294 L472 294 L472 424 C427 428 382 428 337 424 L337 294 L166 294 L440 709 C387 714 335 714 282 709 L22 290 C17 255 17 220 22 184 L337 184 L337 101 L247 91 C243 60 243 31 247 0 L563 0 C566 29 566 58 563 87 L472 94 L472 184 L576 184 Z " />
<glyph glyph-name="five" unicode="5" horiz-adv-x="571" d="M273 446 C249 446 214 442 182 437 L191 584 L475 584 C480 623 480 662 475 701 L86 701 L65 325 C91 322 119 321 146 320 C177 330 204 333 237 333 C327 331 385 289 385 221 C385 138 325 103 237 103 C209 103 178 109 149 117 L146 189 C112 196 77 197 43 195 C33 138 28 106 30 48 C96 14 173 -8 259 -8 C438 -8 535 89 535 231 C535 368 438 444 273 446 L273 446 Z " />
<glyph glyph-name="six" unicode="6" horiz-adv-x="585" d="M335 450 C276 450 218 427 178 384 C212 520 322 602 464 662 C453 692 436 719 414 741 C165 672 30 498 30 267 C30 81 146 -10 297 -10 C462 -10 560 93 560 235 C560 344 488 450 335 450 L335 450 Z M295 99 C224 99 174 154 172 220 C174 303 238 343 297 343 C358 343 410 300 410 224 C410 152 362 99 295 99 L295 99 Z " />
<glyph glyph-name="seven" unicode="7" horiz-adv-x="520" d="M501 701 L22 701 C17 662 17 623 22 584 L358 584 C233 397 141 191 99 0 C155 -4 210 -4 266 0 C298 206 379 393 501 594 C505 630 505 665 501 701 L501 701 Z " />
<glyph glyph-name="eight" unicode="8" horiz-adv-x="586" d="M427 373 C486 408 528 458 528 537 C528 643 432 711 289 711 C159 711 49 642 49 520 C49 452 81 400 149 356 C87 321 27 263 27 174 C27 55 131 -9 285 -9 C454 -9 560 69 560 190 C560 285 505 336 427 373 L427 373 Z M298 601 C354 601 404 569 404 515 C404 470 370 436 320 413 C235 445 195 474 195 520 C195 569 238 601 298 601 L298 601 Z M287 101 C215 101 160 136 160 194 C160 243 194 284 246 307 C354 266 407 245 407 189 C407 137 357 101 287 101 L287 101 Z " />
<glyph glyph-name="nine" unicode="9" horiz-adv-x="582" d="M291 711 C128 711 22 609 22 466 C22 357 95 252 247 252 C302 252 356 272 395 310 C359 181 256 97 116 41 C129 9 146 -18 168 -39 C419 27 552 202 552 434 C552 627 443 711 291 711 L291 711 Z M290 359 C219 359 173 412 173 477 C173 556 228 603 288 603 C358 603 408 549 410 482 C408 409 355 359 290 359 L290 359 Z " />
<glyph glyph-name="colon" unicode="&#x3a;" horiz-adv-x="265" d="M66 372 C109 371 155 370 198 372 C200 409 200 460 198 507 C158 512 106 510 67 508 C64 469 64 426 66 372 L66 372 Z M65 -2 C108 -3 154 -4 197 -2 C199 35 199 86 197 133 C157 138 105 136 66 134 C63 95 63 52 65 -2 L65 -2 Z " />
<glyph glyph-name="semicolon" unicode="&#x3b;" horiz-adv-x="283" d="M68 373 C111 372 157 371 200 373 C202 410 202 461 200 508 C160 513 108 511 69 509 C66 470 66 427 68 373 L68 373 Z M67 -1 C84 -2 104 -8 104 -33 C104 -52 93 -79 68 -116 C85 -130 103 -142 121 -153 C190 -82 210 -6 210 58 C210 85 206 111 200 133 C161 137 109 137 69 135 C67 94 65 50 67 -1 L67 -1 Z " />
<glyph glyph-name="less" unicode="&#x3c;" horiz-adv-x="532" d="M167 283 L478 386 C483 428 483 469 478 511 L30 343 C25 303 25 263 30 223 L478 54 C483 96 483 137 478 179 L167 283 Z " />
<glyph glyph-name="equal" unicode="&#x3d;" horiz-adv-x="539" d="M45 355 L494 355 C498 392 498 429 494 466 L45 466 C41 429 41 392 45 355 L45 355 Z M45 129 L494 129 C498 166 498 204 494 241 L45 241 C41 204 41 166 45 129 L45 129 Z " />
<glyph glyph-name="greater" unicode="&#x3e;" horiz-adv-x="532" d="M502 343 L54 511 C49 469 49 428 54 386 L365 283 L54 179 C49 137 49 96 54 54 L502 223 C507 263 507 303 502 343 L502 343 Z " />
<glyph glyph-name="question" unicode="&#x3f;" horiz-adv-x="451" d="M229 213 L232 227 C244 275 287 308 332 344 C387 389 442 438 442 530 C442 660 323 710 218 710 C129 710 61 690 13 666 C14 632 27 584 45 551 C96 582 152 600 201 600 C262 600 302 570 302 519 C302 478 262 443 220 405 C169 359 114 310 122 242 L125 214 L229 213 Z M111 -2 C154 -3 200 -4 243 -2 C245 35 245 86 243 133 C203 138 151 136 112 134 C109 95 109 52 111 -2 L111 -2 Z " />
<glyph glyph-name="at" unicode="&#x40;" horiz-adv-x="998" d="M622 -7 C802 -7 970 114 970 334 C970 552 806 703 552 703 C264 703 30 502 30 205 C30 -20 190 -196 455 -196 C530 -196 597 -185 656 -166 C650 -140 642 -114 629 -91 C580 -107 529 -115 481 -115 C307 -115 160 -2 160 205 C160 454 352 611 544 611 C712 611 840 509 840 341 C840 188 769 105 687 82 L740 472 C655 507 579 517 537 517 C364 517 248 349 248 175 C248 61 304 -10 383 -10 C481 -10 539 67 587 180 L564 42 C576 18 602 0 622 -7 L622 -7 Z M428 97 C398 97 379 130 384 190 C392 288 445 413 539 413 C550 413 570 410 594 404 C559 260 493 97 428 97 L428 97 Z " />
<glyph glyph-name="A" unicode="A" horiz-adv-x="753" d="M740 90 L673 96 L460 710 C362 712 269 709 181 701 C179 669 179 638 181 605 L266 602 L87 110 L13 98 C12 65 12 33 13 0 L294 0 C295 30 295 60 294 90 L217 97 L253 206 L486 206 L517 107 L447 98 C445 65 445 33 447 0 L740 0 C742 30 742 60 740 90 L740 90 Z M287 307 L373 566 L454 307 L287 307 Z " />
<glyph glyph-name="B" unicode="B" horiz-adv-x="678" d="M499 365 C596 397 623 455 623 522 C623 643 534 701 406 701 L32 701 C29 670 29 639 32 608 L104 603 L104 110 L32 98 C29 65 29 33 32 0 L395 0 C546 0 647 63 647 193 C647 271 614 334 499 365 L499 365 Z M360 590 C428 590 464 560 464 505 C464 451 430 416 354 416 L248 416 L248 590 L360 590 Z M352 113 L248 113 L248 311 L355 311 C442 311 486 271 486 214 C486 148 447 113 352 113 L352 113 Z " />
<glyph glyph-name="C" unicode="C" horiz-adv-x="684" d="M398 602 C439 602 474 595 508 579 L534 439 C572 439 609 443 647 449 C649 519 646 583 638 657 C558 693 486 712 390 712 C173 712 31 581 31 351 C31 127 168 -11 387 -11 C483 -11 575 11 646 69 C646 110 645 142 642 184 C618 186 593 186 556 184 C514 122 449 103 394 103 C282 103 190 196 190 351 C190 503 271 602 398 602 L398 602 Z " />
<glyph glyph-name="D" unicode="D" horiz-adv-x="727" d="M32 0 L347 0 C562 0 694 130 694 350 C694 571 562 701 347 701 L32 701 C28 670 28 639 32 608 L105 603 L105 110 L32 98 C29 65 29 33 32 0 L32 0 Z M252 111 L252 591 L331 591 C459 591 534 503 534 350 C534 198 466 111 339 111 L252 111 Z " />
<glyph glyph-name="E" unicode="E" horiz-adv-x="646" d="M604 220 C566 223 528 223 490 220 L483 111 L252 111 L252 304 L464 305 C468 341 468 378 464 414 L252 414 L252 591 L476 591 L483 494 C521 489 559 489 596 494 C605 563 606 632 600 701 L32 701 C29 670 29 639 32 608 L106 603 L106 108 L32 98 C28 65 28 33 32 0 L607 0 C614 76 612 146 604 220 L604 220 Z " />
<glyph glyph-name="F" unicode="F" horiz-adv-x="616" d="M607 701 L32 701 C26 670 26 639 32 608 L105 603 L105 108 L32 98 C27 65 27 33 32 0 L361 0 C365 30 365 60 361 90 L251 98 L251 283 L476 283 C482 320 482 357 476 394 L251 393 L251 581 L485 581 L492 483 C529 478 566 478 604 483 C612 553 613 632 607 701 L607 701 Z " />
<glyph glyph-name="G" unicode="G" horiz-adv-x="725" d="M707 355 L601 355 C527 355 401 349 372 347 C369 315 369 284 372 252 L521 246 L522 136 C483 112 437 102 394 102 C281 102 189 193 189 351 C189 502 270 602 398 602 C440 602 475 594 509 578 L534 442 C571 440 609 443 647 450 C649 520 646 583 638 657 C564 696 486 712 390 712 C173 712 31 581 31 351 C31 124 168 -11 387 -11 C449 -11 510 4 563 34 L592 0 C617 -3 641 -3 665 0 L666 252 L707 259 C710 291 710 322 707 355 L707 355 Z " />
<glyph glyph-name="H" unicode="H" horiz-adv-x="782" d="M675 98 L675 593 L750 603 C754 636 754 668 750 701 L454 701 C451 670 451 639 454 608 L529 603 L529 413 L250 413 L250 593 L327 603 C331 636 331 668 327 701 L31 701 C28 670 28 639 31 608 L105 603 L105 110 L31 98 C28 65 28 33 31 0 L327 0 C331 30 331 60 327 90 L250 98 L250 296 L529 296 L529 108 L454 98 C451 65 451 33 454 0 L750 0 C754 30 754 60 750 90 L675 98 Z " />
<glyph glyph-name="I" unicode="I" horiz-adv-x="370" d="M38 0 L332 0 C336 30 336 60 332 90 L257 98 L257 594 L332 603 C336 636 336 669 332 701 L38 701 C34 670 34 639 38 608 L112 603 L112 108 L38 98 C34 65 34 33 38 0 L38 0 Z " />
<glyph glyph-name="J" unicode="J" horiz-adv-x="511" d="M498 701 L184 701 C180 670 180 639 184 608 L277 603 L277 214 C277 135 244 93 169 93 C158 93 148 94 138 96 L112 176 C85 179 58 178 31 175 C24 118 29 66 33 25 C68 3 126 -11 200 -11 C312 -11 423 42 423 215 L423 593 L498 603 C501 636 501 668 498 701 L498 701 Z " />
<glyph glyph-name="K" unicode="K" horiz-adv-x="725" d="M713 92 L626 104 L397 357 L606 594 L695 606 C699 638 699 669 695 701 L415 701 C411 671 411 640 415 609 L458 606 L250 365 L250 594 L327 603 C332 636 332 668 327 701 L32 701 C28 670 28 639 32 608 L105 603 L105 110 L32 98 C27 65 27 33 32 0 L327 0 C331 30 331 60 327 90 L250 98 L250 320 L515 0 L713 -1 C717 30 717 61 713 92 L713 92 Z " />
<glyph glyph-name="L" unicode="L" horiz-adv-x="620" d="M589 255 C554 259 519 259 484 255 L476 118 L255 118 L255 598 L358 604 C361 636 361 669 358 701 L32 701 C28 670 28 639 32 608 L107 603 L107 108 L32 98 C28 65 28 33 32 0 L593 0 C599 76 597 181 589 255 L589 255 Z " />
<glyph glyph-name="M" unicode="M" horiz-adv-x="903" d="M802 98 L802 593 L876 603 C880 636 880 668 876 701 L617 701 L456 298 L290 701 L27 701 C23 670 23 638 27 607 L100 602 L100 109 L27 98 C23 65 23 33 27 0 L312 0 C316 30 316 60 312 90 L225 98 L225 518 L388 121 C426 119 464 121 502 126 L660 518 L660 108 L585 98 C581 65 581 33 585 0 L876 0 C880 30 880 60 876 90 L802 98 Z " />
<glyph glyph-name="N" unicode="N" horiz-adv-x="776" d="M763 702 L472 701 C467 671 468 636 472 606 L561 602 L561 205 L275 701 L32 701 C28 670 28 638 32 607 L105 602 L105 109 L32 98 C28 65 28 33 32 0 L319 0 C323 30 323 60 320 90 L232 99 L232 502 L527 -7 C582 -8 636 -6 689 0 L689 595 L764 607 C768 640 767 669 763 702 L763 702 Z " />
<glyph glyph-name="O" unicode="O" horiz-adv-x="765" d="M382 712 C168 712 32 577 32 350 C32 123 168 -11 382 -11 C596 -11 733 123 733 350 C733 577 596 712 382 712 L382 712 Z M382 599 C496 599 574 504 574 350 C574 195 496 102 382 102 C267 102 191 195 191 350 C191 504 267 599 382 599 L382 599 Z " />
<glyph glyph-name="P" unicode="P" horiz-adv-x="631" d="M345 254 C524 254 614 331 614 485 C614 630 524 701 348 701 L32 701 C26 670 26 639 32 608 L105 603 L105 110 L32 100 C27 67 28 33 33 0 L347 0 C351 30 351 60 347 90 L251 98 L251 254 L345 254 Z M330 591 C413 591 459 557 459 477 C459 395 417 358 323 358 L251 358 L251 591 L330 591 Z " />
<glyph glyph-name="Q" unicode="Q" horiz-adv-x="771" d="M647 -47 C596 -29 552 -4 516 31 C655 56 733 195 733 351 C733 577 596 712 382 712 C168 712 32 577 32 350 C32 130 162 -3 368 -9 C422 -71 478 -115 562 -155 C627 -167 685 -170 751 -161 C762 -137 766 -100 767 -72 C724 -70 685 -60 647 -47 L647 -47 Z M191 350 C191 504 267 599 382 599 C496 599 574 504 574 350 C574 195 496 102 382 102 C267 102 191 195 191 350 L191 350 Z " />
<glyph glyph-name="R" unicode="R" horiz-adv-x="691" d="M686 100 L647 107 C582 121 523 199 481 276 C571 306 620 375 620 487 C620 630 529 701 351 701 L32 701 C26 670 26 639 32 608 L105 603 L105 110 L32 100 C26 67 27 33 32 0 L347 0 C352 30 352 60 347 90 L251 98 L251 257 L345 257 C403 141 483 0 572 0 L686 0 C691 34 691 66 686 100 L686 100 Z M251 593 L334 593 C419 593 465 559 465 479 C465 395 423 358 327 358 L251 358 L251 593 Z " />
<glyph glyph-name="S" unicode="S" horiz-adv-x="598" d="M328 421 C245 447 182 466 182 520 C182 575 229 608 316 608 C351 608 381 603 407 594 L436 474 C471 472 507 473 542 478 C544 529 543 586 538 655 C461 702 382 712 308 712 C132 712 33 632 33 512 C33 386 107 340 255 292 C369 255 422 240 422 181 C422 123 373 94 277 94 C238 94 209 100 181 109 L152 227 C113 231 75 230 36 225 C33 187 37 105 41 39 C119 5 204 -11 286 -11 C464 -11 573 49 573 197 C573 347 470 375 328 421 L328 421 Z " />
<glyph glyph-name="T" unicode="T" horiz-adv-x="633" d="M605 701 L26 701 C19 623 19 547 24 472 C57 468 92 468 125 472 L133 593 L241 594 L241 108 L163 98 C158 65 158 33 163 0 L466 0 C470 30 470 60 466 90 L387 98 L387 594 L495 592 L504 472 C537 468 571 468 605 472 C614 549 615 624 605 701 L605 701 Z " />
<glyph glyph-name="U" unicode="U" horiz-adv-x="734" d="M721 701 L441 701 C437 670 437 639 441 608 L519 603 L519 249 C519 145 460 103 380 103 C300 103 237 143 237 247 L237 593 L315 602 C319 636 319 668 315 701 L13 701 C8 670 8 639 13 608 L87 603 L87 245 C87 75 199 -11 371 -11 C538 -11 647 73 647 245 L647 591 L721 602 C725 636 725 668 721 701 L721 701 Z " />
<glyph glyph-name="V" unicode="V" horiz-adv-x="718" d="M717 701 L447 701 C443 670 443 639 447 608 L511 604 L367 160 L234 593 L292 603 C296 636 296 668 292 701 L1 701 C-3 670 -3 639 1 608 L67 605 L273 -7 L434 3 L645 591 L717 603 C721 636 721 668 717 701 L717 701 Z " />
<glyph glyph-name="W" unicode="W" horiz-adv-x="951" d="M951 701 L689 701 C685 670 685 639 689 608 L760 604 L655 165 L551 594 L606 603 C610 636 610 668 606 701 L356 701 C352 670 352 639 356 608 L408 602 L418 566 L312 162 L217 594 L274 603 C278 636 278 668 274 701 L0 701 C-4 670 -4 639 0 608 L58 605 L221 -7 L364 3 L468 375 L568 -7 L721 3 L886 591 L951 603 C955 636 955 668 951 701 L951 701 Z " />
<glyph glyph-name="X" unicode="X" horiz-adv-x="695" d="M685 90 L622 97 L440 350 L606 591 L678 601 C682 634 682 668 678 701 L410 701 C406 670 406 639 410 608 L472 601 L364 435 L255 593 L306 601 C310 634 310 668 306 701 L17 701 C13 670 13 639 17 608 L80 603 L253 360 L88 109 L10 99 C6 66 6 33 10 0 L278 0 C282 30 282 60 278 90 L219 98 L328 276 L450 107 L397 99 C393 66 393 33 397 0 L685 0 C689 30 689 60 685 90 L685 90 Z " />
<glyph glyph-name="Y" unicode="Y" horiz-adv-x="670" d="M603 591 L670 601 C675 634 675 668 670 701 L411 701 C407 670 407 639 411 608 L475 601 L350 372 L232 593 L289 601 C293 634 293 668 289 701 L0 701 C-4 670 -4 639 0 608 L60 602 L260 255 L260 109 L183 99 C177 66 177 33 182 0 L484 0 C488 30 489 60 486 90 L406 97 L406 254 L603 591 Z " />
<glyph glyph-name="Z" unicode="Z" horiz-adv-x="639" d="M603 232 C567 236 531 236 495 232 L487 109 L203 109 L594 581 C596 622 593 663 589 705 L55 701 C48 626 51 546 59 479 C94 475 128 475 162 479 L170 593 L422 595 L33 123 C31 82 33 41 39 0 L607 0 C613 75 612 158 603 232 L603 232 Z " />
<glyph glyph-name="bracketleft" unicode="&#x5b;" horiz-adv-x="377" d="M112 730 L112 -167 L358 -167 C362 -135 362 -104 358 -72 L235 -72 L235 636 L358 636 C362 668 362 698 358 730 L112 730 Z " />
<glyph glyph-name="backslash" unicode="&#x5c;" horiz-adv-x="464" d="M95 798 C58 800 22 800 -14 798 L369 -128 C405 -131 441 -131 478 -128 L95 798 Z " />
<glyph glyph-name="bracketright" unicode="&#x5d;" horiz-adv-x="377" d="M265 730 L19 730 C15 698 15 668 19 636 L142 636 L142 -72 L19 -72 C15 -104 15 -135 19 -167 L265 -167 L265 730 Z " />
<glyph glyph-name="asciicircum" unicode="&#x5e;" horiz-adv-x="501" d="M481 482 L314 729 C270 731 226 730 182 725 L20 485 C57 473 96 465 134 461 L246 644 L355 461 C398 463 441 471 481 482 L481 482 Z " />
<glyph glyph-name="underscore" unicode="&#x5f;" horiz-adv-x="578" d="M581 -33 L-3 -33 C-6 -60 -6 -87 -3 -114 L581 -114 C585 -87 585 -60 581 -33 L581 -33 Z " />
<glyph glyph-name="grave" unicode="&#x60;" horiz-adv-x="471" d="M136 758 C116 720 99 679 87 635 L334 571 C346 591 357 614 366 641 L136 758 Z " />
<glyph glyph-name="a" unicode="a" horiz-adv-x="556" d="M540 90 L475 100 L475 324 C475 473 409 517 283 517 C189 517 112 490 66 472 C65 426 68 384 81 335 C112 333 143 335 174 342 L184 407 C206 411 230 413 254 413 C319 413 342 389 342 335 L342 292 C320 295 296 297 267 297 C151 297 33 253 33 135 C33 35 98 -11 187 -11 C267 -11 321 27 351 73 C356 18 394 -7 449 -7 C488 -7 519 -3 540 -1 C545 29 545 60 540 90 L540 90 Z M234 84 C185 84 168 114 168 145 C168 204 227 225 291 225 C312 225 332 224 350 221 L350 195 C350 139 295 84 234 84 L234 84 Z " />
<glyph glyph-name="b" unicode="b" horiz-adv-x="608" d="M354 517 C287 517 235 489 200 445 L200 733 L3 724 C-2 693 -2 662 3 631 L67 629 L67 0 L167 0 L183 87 C216 29 272 -11 352 -11 C489 -11 575 95 575 251 C575 421 478 517 354 517 L354 517 Z M321 95 C253 95 200 152 200 256 L200 259 C200 375 271 412 316 412 C387 412 434 358 434 251 C434 137 377 95 321 95 L321 95 Z " />
<glyph glyph-name="c" unicode="c" horiz-adv-x="518" d="M481 145 L429 145 C389 104 344 90 307 90 C230 90 175 151 175 253 C175 357 228 411 292 411 C320 411 345 405 368 397 L394 312 L476 322 C474 361 473 424 465 474 C410 505 347 517 291 517 C132 517 34 408 34 258 C34 87 143 -9 290 -11 C366 -11 418 2 484 44 C485 85 485 103 481 145 L481 145 Z " />
<glyph glyph-name="d" unicode="d" horiz-adv-x="618" d="M601 83 L537 92 L537 733 L338 724 C333 693 333 662 338 631 L404 629 L404 450 C369 492 318 517 255 517 C131 517 32 421 32 251 C32 97 116 -11 254 -11 C326 -11 379 23 414 73 L432 -9 L601 0 C605 28 605 55 601 83 L601 83 Z M283 95 C226 95 173 140 173 251 C173 358 222 412 290 412 C345 412 404 375 404 259 L404 257 C404 158 352 95 283 95 L283 95 Z " />
<glyph glyph-name="e" unicode="e" horiz-adv-x="540" d="M512 271 C512 419 443 517 278 517 C133 517 31 412 31 253 C31 87 140 -10 295 -11 C367 -11 425 -1 489 38 C490 79 489 103 486 145 C477 147 451 147 435 145 C391 98 350 91 310 91 C230 92 177 141 167 226 L510 226 C512 242 512 257 512 271 L512 271 Z M280 422 C345 422 376 382 381 308 L171 308 C184 382 225 422 280 422 L280 422 Z " />
<glyph glyph-name="f" unicode="f" horiz-adv-x="387" d="M236 506 L236 549 C236 608 271 629 310 629 C320 629 329 628 338 625 L356 568 C383 566 411 570 438 578 C437 621 434 656 426 699 C388 722 337 735 285 735 C162 735 103 668 103 561 L103 506 L37 497 C32 467 32 438 37 408 L103 408 L103 97 L37 92 C31 61 31 31 37 0 L342 0 C346 28 346 56 342 84 L236 92 L236 408 L368 408 C373 441 373 474 368 506 L236 506 Z " />
<glyph glyph-name="g" unicode="g" horiz-adv-x="561" d="M374 85 L248 92 C183 95 157 105 157 132 C157 154 173 171 209 179 C229 175 251 173 275 173 C426 173 498 251 498 344 C498 395 478 437 441 468 L464 487 L546 497 C550 522 550 545 546 570 C522 579 500 586 457 585 C398 584 368 549 362 506 C336 513 307 517 275 517 C126 517 54 438 54 344 C54 283 84 233 138 204 C86 185 39 143 39 86 C39 48 63 17 99 -2 C50 -25 18 -66 18 -111 C18 -166 54 -232 235 -232 C411 -232 548 -176 548 -42 C548 38 495 78 374 85 L374 85 Z M275 428 C330 428 364 395 363 344 C363 295 331 262 275 262 C223 262 189 294 189 344 C189 394 221 428 275 428 L275 428 Z M260 -142 C180 -142 145 -116 145 -83 C145 -52 166 -29 183 -20 L342 -22 C391 -22 419 -34 419 -63 C419 -106 368 -142 260 -142 L260 -142 Z " />
<glyph glyph-name="h" unicode="h" horiz-adv-x="634" d="M616 84 L550 92 L550 337 C550 456 516 517 403 517 C328 517 270 487 233 441 L233 733 L34 724 C30 693 30 662 34 631 L100 629 L100 97 L34 92 C29 62 29 31 34 1 L299 0 C303 28 303 56 299 84 L233 92 L233 297 C233 362 298 411 353 411 C402 411 417 386 417 335 L417 0 L616 0 C621 28 621 56 616 84 L616 84 Z " />
<glyph glyph-name="i" unicode="i" horiz-adv-x="324" d="M238 595 C239 632 240 676 238 725 C191 728 143 729 99 726 C97 680 97 636 99 596 C138 594 185 593 238 595 L238 595 Z M304 84 L236 92 L236 515 L38 506 C33 475 33 444 38 413 L104 411 L104 97 L38 92 C35 61 35 31 38 0 L304 0 C308 28 308 56 304 84 L304 84 Z " />
<glyph glyph-name="j" unicode="j" horiz-adv-x="310" d="M252 725 C205 728 157 729 113 726 C111 680 111 636 113 596 C152 594 199 593 252 595 C253 632 254 676 252 725 L252 725 Z M21 413 L117 410 L117 6 C117 -98 83 -134 50 -134 C41 -134 32 -133 25 -132 L5 -76 C-16 -72 -37 -72 -59 -76 C-64 -127 -61 -172 -56 -208 C-25 -219 27 -227 64 -227 C162 -227 250 -171 250 6 L250 515 L21 506 C17 475 17 444 21 413 L21 413 Z " />
<glyph glyph-name="k" unicode="k" horiz-adv-x="597" d="M585 89 L498 101 L356 265 L476 395 L570 410 C574 442 574 475 570 506 L310 506 C306 476 306 446 310 415 L365 411 L229 254 L229 733 L29 724 C25 693 25 662 29 631 L95 629 L95 96 L29 92 C25 61 25 31 29 0 L273 0 C277 28 277 56 273 83 L229 92 L229 233 L406 0 L585 0 C588 30 588 59 585 89 L585 89 Z " />
<glyph glyph-name="l" unicode="l" horiz-adv-x="320" d="M304 84 L236 92 L236 733 L37 724 C34 693 34 662 37 631 L103 629 L103 97 L37 92 C32 61 32 31 37 0 L304 0 C308 28 308 56 304 84 L304 84 Z " />
<glyph glyph-name="m" unicode="m" horiz-adv-x="931" d="M916 84 L851 92 L851 340 C851 459 814 517 705 517 C626 517 567 481 531 429 C514 487 473 517 396 517 C320 517 263 484 228 434 L219 516 L34 506 C30 475 30 445 34 414 L99 412 L99 97 L34 91 C28 61 28 30 34 0 L299 0 C303 28 303 56 299 84 L232 92 L232 298 C232 364 295 411 351 411 C390 411 408 389 408 335 L408 0 L609 0 C614 28 614 56 609 84 L541 92 L541 298 C541 364 604 411 660 411 C700 411 718 389 718 332 L718 0 L916 0 C921 29 921 59 916 84 L916 84 Z " />
<glyph glyph-name="n" unicode="n" horiz-adv-x="635" d="M617 84 L551 92 L551 337 C551 456 517 517 403 517 C325 517 266 484 230 435 L221 516 L36 506 C32 475 32 445 36 414 L101 412 L101 97 L36 91 C30 61 30 30 36 0 L301 0 C305 28 305 56 301 84 L234 92 L234 298 C234 363 299 412 353 412 C403 412 419 387 419 331 L419 0 L617 0 C621 28 621 56 617 84 L617 84 Z " />
<glyph glyph-name="o" unicode="o" horiz-adv-x="582" d="M291 517 C139 517 33 420 33 253 C33 86 138 -11 291 -11 C443 -11 549 86 549 253 C549 420 443 517 291 517 L291 517 Z M290 411 C362 411 408 354 408 253 C408 151 362 95 290 95 C219 95 173 151 173 253 C173 354 219 411 290 411 L290 411 Z " />
<glyph glyph-name="p" unicode="p" horiz-adv-x="616" d="M363 517 C294 517 241 487 205 440 L201 516 L11 506 C7 475 7 445 11 414 L76 412 L76 -120 L11 -125 C6 -155 6 -186 11 -216 L306 -216 C310 -188 310 -161 306 -133 L209 -121 L209 58 C243 16 293 -11 361 -11 C498 -11 584 95 584 251 C584 421 487 517 363 517 L363 517 Z M330 94 C261 94 209 152 209 256 L209 259 C209 375 278 412 325 412 C396 412 443 358 443 251 C443 137 386 94 330 94 L330 94 Z " />
<glyph glyph-name="q" unicode="q" horiz-adv-x="619" d="M603 414 C608 445 608 475 603 506 L413 516 L408 445 C373 489 321 517 255 517 C132 517 33 421 33 251 C33 97 116 -11 255 -11 C320 -11 370 16 404 59 L404 -119 L313 -125 C308 -155 308 -186 313 -216 L600 -216 C604 -188 604 -161 600 -133 L537 -123 L537 413 L603 414 Z M284 94 C227 94 174 139 174 251 C174 358 222 411 290 411 C347 411 404 375 404 260 L404 257 C404 157 353 94 284 94 L284 94 Z " />
<glyph glyph-name="r" unicode="r" horiz-adv-x="459" d="M430 500 C412 511 384 515 367 515 C299 514 252 479 224 426 L209 516 L34 506 C30 475 30 445 34 414 L100 412 L100 97 L34 91 C29 61 29 30 34 0 L315 0 C319 28 319 56 315 84 L233 92 L233 296 C238 345 261 382 297 404 L342 353 C375 354 406 358 437 367 C447 411 447 457 430 500 L430 500 Z " />
<glyph glyph-name="s" unicode="s" horiz-adv-x="483" d="M300 302 C235 324 167 338 167 379 C167 406 196 425 256 425 C280 424 304 420 327 411 L354 344 C381 341 408 342 436 347 C437 385 435 433 427 475 C375 506 299 517 241 517 C108 517 37 459 37 369 C37 271 107 235 200 205 C278 179 321 165 322 131 C322 100 299 82 242 82 C204 82 176 88 151 98 L136 166 C103 170 71 170 38 165 C38 126 39 72 47 30 C113 0 180 -11 244 -11 C372 -11 456 39 456 140 C455 243 390 272 300 302 L300 302 Z " />
<glyph glyph-name="t" unicode="t" horiz-adv-x="396" d="M371 123 C361 125 342 125 327 123 C305 96 277 87 251 87 C217 87 204 106 204 149 L204 408 L370 408 C375 441 375 474 370 506 L204 506 L204 632 C168 637 131 637 95 632 L71 506 L11 496 C6 467 6 437 11 408 L71 408 L71 128 C71 33 123 -10 223 -10 C285 -10 331 3 374 32 C375 73 374 81 371 123 L371 123 Z " />
<glyph glyph-name="u" unicode="u" horiz-adv-x="606" d="M587 88 L518 97 L518 516 L324 506 C320 475 320 445 324 414 L386 413 L386 206 C386 157 330 96 273 96 C217 96 207 128 207 176 L207 516 L10 506 C6 475 6 445 10 414 L74 412 L74 161 C74 54 119 -11 225 -11 C298 -11 354 27 389 80 L397 -9 L587 0 C592 28 592 59 587 88 L587 88 Z " />
<glyph glyph-name="v" unicode="v" horiz-adv-x="562" d="M561 506 L330 506 C325 476 325 445 330 414 L387 409 L289 96 L193 402 L251 410 C255 443 255 474 251 506 L1 506 C-4 476 -4 445 1 414 L54 410 L204 -8 C256 -8 307 -4 359 3 L503 402 L561 408 C565 441 565 474 561 506 L561 506 Z " />
<glyph glyph-name="w" unicode="w" horiz-adv-x="811" d="M815 506 L589 506 C584 476 584 445 589 414 L652 410 L567 103 L478 402 L527 408 C532 441 532 474 527 506 L307 506 C302 476 302 445 307 414 L350 410 L354 392 L270 103 L185 403 L244 408 C249 441 249 474 244 506 L-2 506 C-6 476 -6 445 -2 414 L48 410 L182 -8 C231 -8 279 -5 328 3 L406 246 L485 -8 C533 -8 583 -5 633 3 L759 403 L815 408 C819 441 819 474 815 506 L815 506 Z " />
<glyph glyph-name="x" unicode="x" horiz-adv-x="551" d="M546 86 L488 91 L356 245 L468 406 L531 414 C536 445 536 476 531 506 L322 506 C318 475 318 442 322 410 L352 408 L294 308 L217 410 L256 414 C262 445 262 476 256 506 L16 506 C12 475 12 444 16 412 L70 407 L188 262 L64 93 L9 87 C5 58 5 29 9 0 L217 0 C222 29 222 58 217 87 L181 90 L250 199 L335 91 L300 87 C296 58 296 29 300 0 L546 0 C550 29 550 57 546 86 L546 86 Z " />
<glyph glyph-name="y" unicode="y" horiz-adv-x="560" d="M556 506 L330 506 C325 476 325 445 330 414 L381 408 L288 123 L198 401 L248 407 C252 440 252 474 248 506 L3 506 C-1 476 -1 445 3 414 L55 410 L227 -16 C198 -102 169 -120 135 -120 C110 -121 80 -115 62 -100 L47 -100 C41 -138 41 -175 46 -213 C63 -220 94 -226 123 -226 C268 -226 310 -112 340 -31 L500 402 L556 407 C561 440 561 474 556 506 L556 506 Z " />
<glyph glyph-name="z" unicode="z" horiz-adv-x="520" d="M489 186 C457 191 426 191 394 186 L386 96 L190 96 L481 410 C482 443 479 474 473 506 L46 506 C39 444 39 394 46 334 C78 329 111 329 143 334 L150 410 L321 410 L30 96 C28 63 31 33 38 0 L491 0 C494 65 494 121 489 186 L489 186 Z " />
<glyph glyph-name="braceleft" unicode="&#x7b;" horiz-adv-x="398" d="M272 59 L272 157 C272 223 248 265 185 286 C247 304 272 341 272 417 L272 505 C272 609 291 635 375 635 C379 667 379 699 375 731 C256 731 157 715 157 561 L157 471 C157 371 120 343 35 343 C31 306 31 268 35 231 C120 231 157 191 157 103 L157 3 C157 -151 256 -167 375 -167 C378 -135 378 -103 375 -71 C291 -71 272 -45 272 59 L272 59 Z " />
<glyph glyph-name="bar" unicode="&#x7c;" horiz-adv-x="313" d="M216 798 C177 801 137 801 97 798 L97 -128 C137 -132 177 -132 216 -128 L216 798 Z " />
<glyph glyph-name="braceright" unicode="&#x7d;" horiz-adv-x="398" d="M363 343 C278 343 241 371 241 471 L241 561 C241 715 142 731 23 731 C19 699 19 667 23 635 C107 635 126 609 126 505 L126 417 C126 341 151 304 213 286 C150 265 126 223 126 157 L126 59 C126 -45 107 -71 23 -71 C20 -103 20 -135 23 -167 C142 -167 241 -151 241 3 L241 103 C241 191 278 231 363 231 C367 268 367 306 363 343 L363 343 Z " />
<glyph glyph-name="asciitilde" unicode="&#x7e;" horiz-adv-x="553" d="M364 216 C409 216 463 226 514 305 C504 328 489 347 473 364 C439 345 405 330 372 330 C343 330 315 340 286 350 C254 362 221 374 183 374 C134 374 74 341 39 286 C50 262 64 242 82 225 C114 244 144 261 182 261 C209 261 236 251 265 240 C297 229 331 216 364 216 L364 216 Z " />
<glyph glyph-name="exclamdown" unicode="&#xa1;" horiz-adv-x="253" d="M193 508 C150 509 104 510 61 508 C59 471 59 420 61 373 C101 368 153 370 192 372 C195 411 195 454 193 508 L193 508 Z M54 -195 C101 -198 149 -198 197 -195 L180 286 L71 286 L54 -195 Z " />
<glyph glyph-name="cent" unicode="&#xa2;" horiz-adv-x="509" d="M476 145 L425 145 C387 106 345 91 309 90 L336 405 C346 403 354 400 363 397 L389 312 C416 312 444 315 472 322 C470 361 469 424 460 474 C424 494 385 507 346 513 L356 629 C333 635 310 638 287 637 L276 517 C123 513 29 405 29 258 C29 109 112 17 231 -5 L221 -114 C245 -120 267 -122 290 -122 L300 -11 C368 -9 418 5 479 44 C480 85 479 103 476 145 L476 145 Z M167 253 C167 346 210 399 267 409 L240 105 C195 129 167 180 167 253 L167 253 Z " />
<glyph glyph-name="sterling" unicode="&#xa3;" horiz-adv-x="629" d="M587 240 C554 245 520 245 487 240 L480 118 L203 118 C240 140 259 188 259 273 L259 309 L413 309 C417 338 417 367 413 397 L259 397 L259 428 C259 556 309 606 374 606 C398 606 421 602 442 595 L472 497 C500 494 529 499 558 507 C557 551 555 617 547 669 C492 700 429 712 373 712 C216 712 118 608 118 433 L118 397 L48 397 C43 367 43 338 48 309 L118 309 L118 243 C118 133 73 104 41 98 C36 66 36 33 41 0 L590 0 C596 72 595 170 587 240 L587 240 Z " />
<glyph glyph-name="currency" unicode="&#xa4;" horiz-adv-x="604" d="M528 319 C528 369 515 413 491 448 L582 521 C563 548 541 569 515 588 L443 498 C405 525 357 540 302 540 C248 540 200 525 162 498 L89 589 C63 570 41 549 22 523 L114 449 C90 414 76 370 76 319 C76 268 90 224 114 189 L22 115 C40 89 63 67 89 49 L162 140 C200 113 248 98 302 98 C357 98 405 113 443 140 L515 50 C542 69 564 90 582 117 L491 190 C515 225 528 269 528 319 L528 319 Z M302 191 C232 191 180 242 180 319 C180 396 232 447 302 447 C372 447 425 396 425 319 C425 242 372 191 302 191 L302 191 Z " />
<glyph glyph-name="yen" unicode="&#xa5;" horiz-adv-x="684" d="M677 601 C681 634 681 668 677 701 L418 701 C414 670 414 639 418 608 L482 601 L364 385 L350 385 L239 593 L296 601 C300 634 300 668 296 701 L7 701 C3 670 3 639 7 608 L67 602 L192 385 L93 385 C90 361 90 337 93 313 L234 313 L262 264 L93 264 C89 240 89 217 93 193 L267 193 L267 109 L195 99 C189 66 189 33 194 0 L486 0 C490 30 491 60 488 90 L413 97 L413 193 L587 193 C590 217 590 240 587 264 L419 264 L447 313 L587 313 C590 337 590 361 587 385 L489 385 L610 591 L677 601 Z " />
<glyph glyph-name="brokenbar" unicode="&#xa6;" horiz-adv-x="313" d="M97 798 L97 415 C137 411 177 411 216 415 L216 798 C177 801 137 801 97 798 L97 798 Z M97 256 L97 -127 C137 -131 177 -131 216 -127 L216 256 C177 259 137 259 97 256 L97 256 Z " />
<glyph glyph-name="section" unicode="&#xa7;" horiz-adv-x="528" d="M411 142 C470 175 498 226 498 283 C498 384 431 419 325 463 C260 489 191 510 190 559 C189 593 220 621 286 621 C306 621 327 616 348 608 L379 533 C406 531 434 532 461 538 C461 571 457 629 449 668 C397 701 326 712 274 712 C149 712 60 648 60 546 C60 490 82 451 117 422 C67 388 36 329 36 276 C36 174 118 136 212 97 C294 62 340 54 340 6 C341 -28 314 -54 253 -54 C218 -54 192 -48 170 -39 L152 34 C119 37 86 36 54 31 C55 -8 57 -62 65 -104 C129 -134 190 -146 255 -146 C386 -146 473 -96 473 21 C473 80 450 116 411 142 L411 142 Z M164 297 C164 319 177 349 213 371 C216 369 220 368 223 367 C316 334 366 304 366 261 C366 228 347 204 321 186 C317 187 314 189 310 190 C215 226 165 251 164 297 L164 297 Z " />
<glyph glyph-name="dieresis" unicode="&#xa8;" horiz-adv-x="489" d="M210 725 C163 728 115 729 71 726 C69 680 69 636 71 596 C110 594 157 593 210 595 C211 632 212 676 210 725 L210 725 Z M428 725 C381 728 333 729 289 726 C287 680 287 636 289 596 C328 594 375 593 428 595 C429 632 430 676 428 725 L428 725 Z " />
<glyph glyph-name="copyright" unicode="&#xa9;" horiz-adv-x="793" d="M393 706 C179 706 32 560 32 349 C32 139 179 -6 393 -6 C607 -6 754 139 754 349 C754 560 607 706 393 706 L393 706 Z M393 68 C220 68 106 180 106 349 C106 519 220 632 393 632 C566 632 680 519 680 349 C680 180 566 68 393 68 L393 68 Z M476 272 C456 244 427 233 402 233 C346 233 304 277 304 350 C304 421 342 467 401 467 C419 467 435 463 450 456 L464 399 C491 396 517 397 543 401 C544 441 542 483 538 523 C493 545 452 555 397 555 C274 555 194 480 194 350 C194 222 271 144 398 144 C452 144 504 158 543 190 C544 214 543 248 541 272 C527 274 491 274 476 272 L476 272 Z " />
<glyph glyph-name="ordfeminine" unicode="&#xaa;" horiz-adv-x="425" d="M413 402 L366 407 L366 570 C366 677 318 711 211 711 C136 711 80 692 46 678 C46 645 48 614 57 579 C81 577 104 579 127 584 L134 627 C152 630 171 632 193 632 C233 632 251 615 251 576 L251 547 C235 549 219 550 199 550 C108 550 22 518 22 432 C22 359 69 327 143 326 C198 326 239 351 263 382 C275 347 296 327 343 327 C377 327 398 332 413 333 C416 355 416 379 413 402 L413 402 Z M181 402 C151 402 137 418 137 440 C137 480 178 494 218 494 C235 494 250 494 261 492 L261 475 C261 433 219 402 181 402 L181 402 Z " />
<glyph glyph-name="guillemotleft" unicode="&#xab;" horiz-adv-x="588" d="M205 521 L40 266 L205 11 C238 27 265 48 290 73 L176 266 L290 460 C265 484 237 505 205 521 L205 521 Z M438 521 L273 266 L438 11 C471 27 498 48 523 73 L409 266 L523 460 C498 484 470 505 438 521 L438 521 Z " />
<glyph glyph-name="logicalnot" unicode="&#xac;" horiz-adv-x="574" d="M528 356 L44 356 C40 320 40 282 44 245 L412 245 L412 68 L528 68 L528 356 Z " />
<glyph glyph-name="registered" unicode="&#xae;" horiz-adv-x="554" d="M277 735 C129 735 27 634 27 488 C27 343 129 242 277 242 C425 242 527 343 527 488 C527 634 425 735 277 735 L277 735 Z M277 303 C166 303 89 377 89 488 C89 599 166 674 277 674 C389 674 465 599 465 488 C465 377 389 303 277 303 L277 303 Z M385 422 C369 425 349 446 334 468 C364 479 380 502 380 540 C380 587 349 610 290 610 L170 610 C168 597 168 584 170 571 L193 570 L193 422 L170 418 C167 405 167 391 170 377 L269 377 C271 390 271 403 269 416 L248 418 L248 462 L280 462 C300 424 326 377 356 377 L397 377 C400 391 400 405 397 419 L385 422 Z M248 566 L283 566 C305 566 317 554 317 536 C317 518 310 505 282 505 L248 505 L248 566 Z " />
<glyph glyph-name="macron" unicode="&#xaf;" horiz-adv-x="485" d="M398 694 L86 694 C81 660 81 627 86 594 L398 594 C402 627 402 660 398 694 L398 694 Z " />
<glyph glyph-name="degree" unicode="&#xb0;" horiz-adv-x="361" d="M180 724 C90 724 28 663 28 573 C28 483 90 423 180 423 C271 423 333 483 333 573 C333 663 271 724 180 724 L180 724 Z M180 645 C223 645 252 616 252 573 C252 531 223 502 180 502 C138 502 109 531 109 573 C109 616 138 645 180 645 L180 645 Z " />
<glyph glyph-name="plusminus" unicode="&#xb1;" horiz-adv-x="539" d="M211 364 L211 187 C250 184 290 184 329 187 L329 364 L494 364 C498 401 498 438 494 475 L329 475 L329 653 C290 656 250 656 211 653 L211 475 L45 475 C42 438 42 401 45 364 L211 364 Z M45 112 C41 75 41 37 45 0 L494 0 C498 37 498 75 494 112 L45 112 Z " />
<glyph glyph-name="uni00B2" unicode="&#xb2;" horiz-adv-x="386" d="M363 500 L193 500 C278 563 359 637 359 737 C359 820 295 866 196 866 C128 866 47 843 19 820 C15 786 15 753 21 723 C52 720 83 720 114 723 L117 770 C134 775 152 778 168 778 C202 778 227 765 227 731 C228 649 121 557 18 474 C15 452 15 429 18 407 L363 407 C366 438 366 469 363 500 L363 500 Z " />
<glyph glyph-name="uni00B3" unicode="&#xb3;" horiz-adv-x="399" d="M280 659 C325 677 360 713 360 764 C360 829 310 867 209 867 C126 867 67 847 23 825 C31 798 43 774 59 755 C91 768 133 781 171 781 C210 781 233 767 233 738 C233 700 175 681 104 676 C101 652 104 628 110 604 L135 604 C220 604 256 583 256 545 C256 505 216 490 167 490 C150 490 134 492 118 495 L115 543 C85 548 55 549 26 546 C17 510 15 489 16 440 C51 419 114 403 180 403 C310 403 385 456 385 539 C385 612 332 647 280 659 L280 659 Z " />
<glyph glyph-name="acute" unicode="&#xb4;" horiz-adv-x="466" d="M342 758 L113 641 C121 615 132 592 145 571 L392 635 C379 679 362 721 342 758 L342 758 Z " />
<glyph glyph-name="uni00B5" unicode="&#xb5;" horiz-adv-x="576" d="M558 97 L489 105 L489 506 C444 511 400 511 356 506 L356 265 C356 177 317 104 260 104 C216 104 178 138 178 224 L178 506 C133 511 89 511 45 506 L45 -222 C90 -224 133 -221 178 -216 C168 -128 161 -32 155 57 C168 28 206 -8 268 -8 C324 -8 379 16 409 76 C415 48 422 19 430 -9 C484 -6 518 0 558 10 C562 39 562 68 558 97 L558 97 Z " />
<glyph glyph-name="paragraph" unicode="&#xb6;" horiz-adv-x="561" d="M262 701 C129 701 38 612 38 484 C38 357 129 268 262 268 L262 -55 C262 -125 240 -150 200 -151 L184 -60 C154 -55 124 -53 93 -53 C81 -101 78 -145 79 -189 C106 -209 134 -224 198 -224 C280 -224 342 -178 342 -53 L342 605 L423 605 L423 0 C450 -3 476 -3 503 0 L503 701 L262 701 Z " />
<glyph glyph-name="periodcentered" unicode="&#xb7;" horiz-adv-x="249" d="M59 185 C102 184 148 183 191 185 C193 222 193 273 191 320 C151 325 99 323 60 321 C57 282 57 239 59 185 L59 185 Z " />
<glyph glyph-name="cedilla" unicode="&#xb8;" horiz-adv-x="429" d="M218 -39 C214 -39 210 -39 205 -40 L233 18 L176 32 L119 -86 L144 -97 C161 -95 176 -93 189 -93 C214 -93 228 -100 228 -118 C228 -157 162 -179 136 -186 C140 -206 147 -224 158 -241 C236 -231 326 -194 326 -112 C326 -65 304 -39 218 -39 L218 -39 Z " />
<glyph glyph-name="uni00B9" unicode="&#xb9;" horiz-adv-x="307" d="M229 861 L172 861 L30 827 C26 804 26 781 30 758 L100 767 L100 490 L32 479 C28 455 28 431 32 407 L292 407 C295 431 295 455 292 479 L229 483 L229 861 Z " />
<glyph glyph-name="ordmasculine" unicode="&#xba;" horiz-adv-x="436" d="M218 712 C97 712 20 642 20 518 C20 394 97 325 218 325 C339 325 416 394 416 518 C416 642 339 712 218 712 L218 712 Z M218 633 C267 633 299 589 299 518 C299 447 267 403 218 403 C168 403 137 447 137 518 C137 589 168 633 218 633 L218 633 Z " />
<glyph glyph-name="guillemotright" unicode="&#xbb;" horiz-adv-x="588" d="M150 521 C118 505 90 484 65 460 L179 266 L65 73 C90 48 117 27 150 11 L315 266 L150 521 Z M383 521 C351 505 323 484 298 460 L412 266 L298 73 C323 48 350 27 383 11 L548 266 L383 521 Z " />
<glyph glyph-name="onequarter" unicode="&#xbc;" horiz-adv-x="927" d="M640 750 L177 -2 C200 -24 225 -41 253 -54 L717 702 C695 723 669 739 640 750 L640 750 Z M292 349 L229 353 L229 731 L172 731 L30 697 C26 674 26 651 30 628 L100 637 L100 360 L32 349 C28 325 28 301 32 277 L292 277 C295 301 295 325 292 349 L292 349 Z M909 120 C912 149 912 178 909 206 L853 206 L853 265 L743 265 L743 206 L647 206 L837 459 L677 459 L513 165 C511 150 511 135 513 120 L722 120 L722 73 L664 62 C661 42 661 21 664 0 L905 0 C907 21 907 42 905 62 L853 66 L853 120 L909 120 Z " />
<glyph glyph-name="onehalf" unicode="&#xbd;" horiz-adv-x="954" d="M640 750 L177 -2 C200 -24 225 -41 253 -54 L717 702 C695 723 669 739 640 750 L640 750 Z M292 349 L229 353 L229 731 L172 731 L30 697 C26 674 26 651 30 628 L100 637 L100 360 L32 349 C28 325 28 301 32 277 L292 277 C295 301 295 325 292 349 L292 349 Z M931 93 L761 93 C846 156 927 230 927 330 C927 413 863 459 764 459 C696 459 615 436 587 413 C583 379 583 346 589 316 C620 313 651 313 682 316 L685 363 C702 368 720 371 736 371 C770 371 795 358 795 324 C796 242 689 150 586 67 C583 45 583 22 586 0 L931 0 C934 31 934 62 931 93 L931 93 Z " />
<glyph glyph-name="threequarters" unicode="&#xbe;" horiz-adv-x="996" d="M709 750 L246 -2 C269 -24 294 -41 322 -54 L786 702 C764 723 738 739 709 750 L709 750 Z M385 409 C385 482 332 517 280 529 C325 547 360 583 360 634 C360 699 310 737 209 737 C126 737 67 717 23 695 C31 668 43 644 59 625 C91 638 133 651 171 651 C210 651 233 637 233 608 C233 570 175 551 104 546 C101 522 104 498 110 474 L135 474 C220 474 256 453 256 415 C256 375 216 360 167 360 C150 360 134 362 118 365 L115 413 C85 418 55 419 26 416 C17 380 15 359 16 310 C51 289 114 273 180 273 C310 273 385 326 385 409 L385 409 Z M978 120 C981 149 981 178 978 206 L922 206 L922 265 L812 265 L812 206 L716 206 L906 459 L746 459 L582 165 C580 150 580 135 582 120 L791 120 L791 73 L733 62 C730 42 730 21 733 0 L974 0 C976 21 976 42 974 62 L922 66 L922 120 L978 120 Z " />
<glyph glyph-name="questiondown" unicode="&#xbf;" horiz-adv-x="444" d="M343 509 C300 510 254 511 211 509 C209 472 209 421 211 374 C251 369 303 371 342 373 C345 412 345 455 343 509 L343 509 Z M225 294 L222 280 C210 232 167 199 122 163 C67 118 12 69 12 -23 C12 -153 131 -203 236 -203 C325 -203 393 -183 441 -159 C440 -125 427 -77 409 -44 C358 -75 302 -93 253 -93 C192 -93 152 -63 152 -12 C152 29 192 64 234 102 C285 148 340 197 332 265 L329 293 L225 294 Z " />
<glyph glyph-name="Agrave" unicode="&#xc0;" horiz-adv-x="753" d="M493 836 L263 953 C243 915 226 874 214 830 L461 766 C473 786 484 809 493 836 L493 836 Z M740 90 L673 96 L460 710 C362 712 269 709 181 701 C179 669 179 638 181 605 L266 602 L87 110 L13 98 C12 65 12 33 13 0 L294 0 C295 30 295 60 294 90 L217 97 L253 206 L486 206 L517 107 L447 98 C445 65 445 33 447 0 L740 0 C742 30 742 60 740 90 L740 90 Z M287 307 L373 566 L454 307 L287 307 Z " />
<glyph glyph-name="Aacute" unicode="&#xc1;" horiz-adv-x="753" d="M514 830 C501 874 484 916 464 953 L235 836 C243 810 254 787 267 766 L514 830 Z M740 90 L673 96 L460 710 C362 712 269 709 181 701 C179 669 179 638 181 605 L266 602 L87 110 L13 98 C12 65 12 33 13 0 L294 0 C295 30 295 60 294 90 L217 97 L253 206 L486 206 L517 107 L447 98 C445 65 445 33 447 0 L740 0 C742 30 742 60 740 90 L740 90 Z M287 307 L373 566 L454 307 L287 307 Z " />
<glyph glyph-name="Acircumflex" unicode="&#xc2;" horiz-adv-x="753" d="M360 877 L432 762 C469 766 506 775 542 787 L430 937 C381 939 337 938 296 932 L189 790 C221 778 253 768 287 762 L360 877 Z M740 90 L673 96 L460 710 C362 712 269 709 181 701 C179 669 179 638 181 605 L266 602 L87 110 L13 98 C12 65 12 33 13 0 L294 0 C295 30 295 60 294 90 L217 97 L253 206 L486 206 L517 107 L447 98 C445 65 445 33 447 0 L740 0 C742 30 742 60 740 90 L740 90 Z M287 307 L373 566 L454 307 L287 307 Z " />
<glyph glyph-name="Atilde" unicode="&#xc3;" horiz-adv-x="753" d="M243 765 C255 796 273 817 297 817 C311 817 333 810 364 798 C392 788 422 775 451 775 C523 775 560 841 561 920 C539 925 517 929 494 928 C482 895 463 875 440 875 C423 875 399 885 376 895 C345 907 315 917 287 917 C221 917 177 862 176 772 C198 766 221 764 243 765 L243 765 Z M740 90 L673 96 L460 710 C362 712 269 709 181 701 C179 669 179 638 181 605 L266 602 L87 110 L13 98 C12 65 12 33 13 0 L294 0 C295 30 295 60 294 90 L217 97 L253 206 L486 206 L517 107 L447 98 C445 65 445 33 447 0 L740 0 C742 30 742 60 740 90 L740 90 Z M287 307 L373 566 L454 307 L287 307 Z " />
<glyph glyph-name="Adieresis" unicode="&#xc4;" horiz-adv-x="753" d="M330 790 C331 827 332 871 330 920 C283 923 235 924 191 921 C189 875 189 831 191 791 C230 789 277 788 330 790 L330 790 Z M548 790 C549 827 550 871 548 920 C501 923 453 924 409 921 C407 875 407 831 409 791 C448 789 495 788 548 790 L548 790 Z M740 90 L673 96 L460 710 C362 712 269 709 181 701 C179 669 179 638 181 605 L266 602 L87 110 L13 98 C12 65 12 33 13 0 L294 0 C295 30 295 60 294 90 L217 97 L253 206 L486 206 L517 107 L447 98 C445 65 445 33 447 0 L740 0 C742 30 742 60 740 90 L740 90 Z M287 307 L373 566 L454 307 L287 307 Z " />
<glyph glyph-name="Aring" unicode="&#xc5;" horiz-adv-x="753" d="M365 757 C442 757 493 804 493 871 C493 938 442 987 365 987 C288 987 237 939 237 873 C237 805 288 757 365 757 L365 757 Z M365 922 C392 922 414 902 414 873 C414 842 392 821 365 821 C338 821 317 842 317 872 C317 901 338 922 365 922 L365 922 Z M740 90 L673 96 L460 710 C362 712 269 709 181 701 C179 669 179 638 181 605 L266 602 L87 110 L13 98 C12 65 12 33 13 0 L294 0 C295 30 295 60 294 90 L217 97 L253 206 L486 206 L517 107 L447 98 C445 65 445 33 447 0 L740 0 C742 30 742 60 740 90 L740 90 Z M287 307 L373 566 L454 307 L287 307 Z " />
<glyph glyph-name="AE" unicode="&#xc6;" horiz-adv-x="1001" d="M959 225 C921 227 883 227 845 225 L837 111 L621 111 L621 304 L823 305 C825 341 825 378 823 414 L621 414 L621 591 L828 591 L836 494 C873 491 911 491 949 494 C957 563 959 632 953 701 L379 701 C319 701 234 695 200 693 C197 664 197 635 200 606 L284 603 L89 111 L14 97 C12 65 12 32 14 0 L281 0 C284 31 284 62 281 93 L219 100 L262 206 L473 206 L473 108 L404 98 C401 65 401 33 404 0 L963 0 C969 76 967 151 959 225 L959 225 Z M302 309 L411 585 L473 585 L473 310 L302 309 Z " />
<glyph glyph-name="Ccedilla" unicode="&#xc7;" horiz-adv-x="684" d="M398 602 C439 602 474 595 508 579 L534 439 C572 439 609 443 647 449 C649 519 646 583 638 657 C558 693 486 712 390 712 C173 712 31 581 31 351 C31 140 153 5 350 -10 L313 -86 L338 -97 C355 -95 370 -93 383 -93 C408 -93 422 -100 422 -118 C422 -157 356 -179 330 -186 C334 -206 341 -224 352 -241 C430 -231 520 -194 520 -112 C520 -65 498 -39 412 -39 C408 -39 404 -39 399 -40 L413 -10 C500 -7 582 16 646 69 C646 110 645 142 642 184 C618 186 593 186 556 184 C514 122 449 103 394 103 C282 103 190 196 190 351 C190 503 271 602 398 602 L398 602 Z " />
<glyph glyph-name="Egrave" unicode="&#xc8;" horiz-adv-x="646" d="M472 836 L242 953 C222 915 205 874 193 830 L440 766 C452 786 463 809 472 836 L472 836 Z M604 220 C566 223 528 223 490 220 L483 111 L252 111 L252 304 L464 305 C468 341 468 378 464 414 L252 414 L252 591 L476 591 L483 494 C521 489 559 489 596 494 C605 563 606 632 600 701 L32 701 C29 670 29 639 32 608 L106 603 L106 108 L32 98 C28 65 28 33 32 0 L607 0 C614 76 612 146 604 220 L604 220 Z " />
<glyph glyph-name="Eacute" unicode="&#xc9;" horiz-adv-x="646" d="M493 830 C480 874 463 916 443 953 L214 836 C222 810 233 787 246 766 L493 830 Z M604 220 C566 223 528 223 490 220 L483 111 L252 111 L252 304 L464 305 C468 341 468 378 464 414 L252 414 L252 591 L476 591 L483 494 C521 489 559 489 596 494 C605 563 606 632 600 701 L32 701 C29 670 29 639 32 608 L106 603 L106 108 L32 98 C28 65 28 33 32 0 L607 0 C614 76 612 146 604 220 L604 220 Z " />
<glyph glyph-name="Ecircumflex" unicode="&#xca;" horiz-adv-x="646" d="M339 877 L411 762 C448 766 485 775 521 787 L409 937 C360 939 316 938 275 932 L168 790 C200 778 232 768 266 762 L339 877 Z M604 220 C566 223 528 223 490 220 L483 111 L252 111 L252 304 L464 305 C468 341 468 378 464 414 L252 414 L252 591 L476 591 L483 494 C521 489 559 489 596 494 C605 563 606 632 600 701 L32 701 C29 670 29 639 32 608 L106 603 L106 108 L32 98 C28 65 28 33 32 0 L607 0 C614 76 612 146 604 220 L604 220 Z " />
<glyph glyph-name="Edieresis" unicode="&#xcb;" horiz-adv-x="646" d="M309 790 C310 827 311 871 309 920 C262 923 214 924 170 921 C168 875 168 831 170 791 C209 789 256 788 309 790 L309 790 Z M527 790 C528 827 529 871 527 920 C480 923 432 924 388 921 C386 875 386 831 388 791 C427 789 474 788 527 790 L527 790 Z M604 220 C566 223 528 223 490 220 L483 111 L252 111 L252 304 L464 305 C468 341 468 378 464 414 L252 414 L252 591 L476 591 L483 494 C521 489 559 489 596 494 C605 563 606 632 600 701 L32 701 C29 670 29 639 32 608 L106 603 L106 108 L32 98 C28 65 28 33 32 0 L607 0 C614 76 612 146 604 220 L604 220 Z " />
<glyph glyph-name="Igrave" unicode="&#xcc;" horiz-adv-x="370" d="M84 953 C64 915 47 874 35 830 L282 766 C294 786 305 809 314 836 L84 953 Z M38 0 L332 0 C336 30 336 60 332 90 L257 98 L257 594 L332 603 C336 636 336 669 332 701 L38 701 C34 670 34 639 38 608 L112 603 L112 108 L38 98 C34 65 34 33 38 0 L38 0 Z " />
<glyph glyph-name="Iacute" unicode="&#xcd;" horiz-adv-x="370" d="M285 953 L56 836 C64 810 75 787 88 766 L335 830 C322 874 305 916 285 953 L285 953 Z M38 0 L332 0 C336 30 336 60 332 90 L257 98 L257 594 L332 603 C336 636 336 669 332 701 L38 701 C34 670 34 639 38 608 L112 603 L112 108 L38 98 C34 65 34 33 38 0 L38 0 Z " />
<glyph glyph-name="Icircumflex" unicode="&#xce;" horiz-adv-x="370" d="M181 877 L253 762 C290 766 327 775 363 787 L251 937 C202 939 158 938 117 932 L10 790 C42 778 74 768 108 762 L181 877 Z M332 603 C336 636 336 669 332 701 L38 701 C34 670 34 639 38 608 L112 603 L112 108 L38 98 C34 65 34 33 38 0 L332 0 C336 30 336 60 332 90 L257 98 L257 594 L332 603 Z " />
<glyph glyph-name="Idieresis" unicode="&#xcf;" horiz-adv-x="370" d="M151 920 C104 923 56 924 12 921 C10 875 10 831 12 791 C51 789 98 788 151 790 C152 827 153 871 151 920 L151 920 Z M369 920 C322 923 274 924 230 921 C228 875 228 831 230 791 C269 789 316 788 369 790 C370 827 371 871 369 920 L369 920 Z M38 0 L332 0 C336 30 336 60 332 90 L257 98 L257 594 L332 603 C336 636 336 669 332 701 L38 701 C34 670 34 639 38 608 L112 603 L112 108 L38 98 C34 65 34 33 38 0 L38 0 Z " />
<glyph glyph-name="Eth" unicode="&#xd0;" horiz-adv-x="727" d="M347 701 L32 701 C28 670 28 639 32 608 L105 603 L105 409 L30 409 C26 373 26 339 30 303 L105 303 L105 110 L32 98 C29 65 29 33 32 0 L347 0 C562 0 694 130 694 350 C694 571 562 701 347 701 L347 701 Z M339 111 L252 111 L252 303 L365 303 C370 339 370 373 365 409 L252 409 L252 591 L331 591 C459 591 534 503 534 350 C534 198 466 111 339 111 L339 111 Z " />
<glyph glyph-name="Ntilde" unicode="&#xd1;" horiz-adv-x="776" d="M286 765 C298 796 316 817 340 817 C354 817 376 810 407 798 C435 788 465 775 494 775 C566 775 603 841 604 920 C582 925 560 929 537 928 C525 895 506 875 483 875 C466 875 442 885 419 895 C388 907 358 917 330 917 C264 917 220 862 219 772 C241 766 264 764 286 765 L286 765 Z M763 702 L472 701 C467 671 468 636 472 606 L561 602 L561 205 L275 701 L32 701 C28 670 28 638 32 607 L105 602 L105 109 L32 98 C28 65 28 33 32 0 L319 0 C323 30 323 60 320 90 L232 99 L232 502 L527 -7 C582 -8 636 -6 689 0 L689 595 L764 607 C768 640 767 669 763 702 L763 702 Z " />
<glyph glyph-name="Ograve" unicode="&#xd2;" horiz-adv-x="765" d="M280 953 C260 915 243 874 231 830 L478 766 C490 786 501 809 510 836 L280 953 Z M382 712 C168 712 32 577 32 350 C32 123 168 -11 382 -11 C596 -11 733 123 733 350 C733 577 596 712 382 712 L382 712 Z M382 599 C496 599 574 504 574 350 C574 195 496 102 382 102 C267 102 191 195 191 350 C191 504 267 599 382 599 L382 599 Z " />
<glyph glyph-name="Oacute" unicode="&#xd3;" horiz-adv-x="765" d="M481 953 L252 836 C260 810 271 787 284 766 L531 830 C518 874 501 916 481 953 L481 953 Z M382 712 C168 712 32 577 32 350 C32 123 168 -11 382 -11 C596 -11 733 123 733 350 C733 577 596 712 382 712 L382 712 Z M382 599 C496 599 574 504 574 350 C574 195 496 102 382 102 C267 102 191 195 191 350 C191 504 267 599 382 599 L382 599 Z " />
<glyph glyph-name="Ocircumflex" unicode="&#xd4;" horiz-adv-x="765" d="M377 877 L449 762 C486 766 523 775 559 787 L447 937 C398 939 354 938 313 932 L206 790 C238 778 270 768 304 762 L377 877 Z M382 712 C168 712 32 577 32 350 C32 123 168 -11 382 -11 C596 -11 733 123 733 350 C733 577 596 712 382 712 L382 712 Z M382 102 C267 102 191 195 191 350 C191 504 267 599 382 599 C496 599 574 504 574 350 C574 195 496 102 382 102 L382 102 Z " />
<glyph glyph-name="Otilde" unicode="&#xd5;" horiz-adv-x="765" d="M511 928 C499 895 480 875 457 875 C440 875 416 885 393 895 C362 907 332 917 304 917 C238 917 194 862 193 772 C215 766 238 764 260 765 C272 796 290 817 314 817 C328 817 350 810 381 798 C409 788 439 775 468 775 C540 775 577 841 578 920 C556 925 534 929 511 928 L511 928 Z M382 712 C168 712 32 577 32 350 C32 123 168 -11 382 -11 C596 -11 733 123 733 350 C733 577 596 712 382 712 L382 712 Z M382 599 C496 599 574 504 574 350 C574 195 496 102 382 102 C267 102 191 195 191 350 C191 504 267 599 382 599 L382 599 Z " />
<glyph glyph-name="Odieresis" unicode="&#xd6;" horiz-adv-x="765" d="M347 920 C300 923 252 924 208 921 C206 875 206 831 208 791 C247 789 294 788 347 790 C348 827 349 871 347 920 L347 920 Z M565 920 C518 923 470 924 426 921 C424 875 424 831 426 791 C465 789 512 788 565 790 C566 827 567 871 565 920 L565 920 Z M382 712 C168 712 32 577 32 350 C32 123 168 -11 382 -11 C596 -11 733 123 733 350 C733 577 596 712 382 712 L382 712 Z M382 599 C496 599 574 504 574 350 C574 195 496 102 382 102 C267 102 191 195 191 350 C191 504 267 599 382 599 L382 599 Z " />
<glyph glyph-name="multiply" unicode="&#xd7;" horiz-adv-x="532" d="M488 436 C464 465 438 491 409 516 L266 373 L123 516 C94 492 67 466 44 436 L187 293 L44 150 C67 121 94 95 123 71 L266 214 L409 71 C438 95 465 121 488 150 L345 293 L488 436 Z " />
<glyph glyph-name="Oslash" unicode="&#xd8;" horiz-adv-x="765" d="M639 615 L704 701 C668 704 632 704 596 701 L570 667 C518 697 454 712 382 712 C168 712 32 577 32 350 C32 237 66 147 126 85 L62 0 C98 -2 135 -2 171 0 L196 32 C248 4 310 -11 382 -11 C596 -11 733 123 733 350 C733 463 699 553 639 615 L639 615 Z M191 350 C191 504 267 599 382 599 C424 599 461 586 491 563 L219 207 C201 245 191 294 191 350 L191 350 Z M382 102 C341 102 304 114 275 137 L545 492 C564 454 574 406 574 350 C574 195 496 102 382 102 L382 102 Z " />
<glyph glyph-name="Ugrave" unicode="&#xd9;" horiz-adv-x="734" d="M506 836 L276 953 C256 915 239 874 227 830 L474 766 C486 786 497 809 506 836 L506 836 Z M721 701 L441 701 C437 670 437 639 441 608 L519 603 L519 249 C519 145 460 103 380 103 C300 103 237 143 237 247 L237 593 L315 602 C319 636 319 668 315 701 L13 701 C8 670 8 639 13 608 L87 603 L87 245 C87 75 199 -11 371 -11 C538 -11 647 73 647 245 L647 591 L721 602 C725 636 725 668 721 701 L721 701 Z " />
<glyph glyph-name="Uacute" unicode="&#xda;" horiz-adv-x="734" d="M527 830 C514 874 497 916 477 953 L248 836 C256 810 267 787 280 766 L527 830 Z M721 701 L441 701 C437 670 437 639 441 608 L519 603 L519 249 C519 145 460 103 380 103 C300 103 237 143 237 247 L237 593 L315 602 C319 636 319 668 315 701 L13 701 C8 670 8 639 13 608 L87 603 L87 245 C87 75 199 -11 371 -11 C538 -11 647 73 647 245 L647 591 L721 602 C725 636 725 668 721 701 L721 701 Z " />
<glyph glyph-name="Ucircumflex" unicode="&#xdb;" horiz-adv-x="734" d="M373 877 L445 762 C482 766 519 775 555 787 L443 937 C394 939 350 938 309 932 L202 790 C234 778 266 768 300 762 L373 877 Z M721 701 L441 701 C437 670 437 639 441 608 L519 603 L519 249 C519 145 460 103 380 103 C300 103 237 143 237 247 L237 593 L315 602 C319 636 319 668 315 701 L13 701 C8 670 8 639 13 608 L87 603 L87 245 C87 75 199 -11 371 -11 C538 -11 647 73 647 245 L647 591 L721 602 C725 636 725 668 721 701 L721 701 Z " />
<glyph glyph-name="Udieresis" unicode="&#xdc;" horiz-adv-x="734" d="M343 790 C344 827 345 871 343 920 C296 923 248 924 204 921 C202 875 202 831 204 791 C243 789 290 788 343 790 L343 790 Z M561 790 C562 827 563 871 561 920 C514 923 466 924 422 921 C420 875 420 831 422 791 C461 789 508 788 561 790 L561 790 Z M721 701 L441 701 C437 670 437 639 441 608 L519 603 L519 249 C519 145 460 103 380 103 C300 103 237 143 237 247 L237 593 L315 602 C319 636 319 668 315 701 L13 701 C8 670 8 639 13 608 L87 603 L87 245 C87 75 199 -11 371 -11 C538 -11 647 73 647 245 L647 591 L721 602 C725 636 725 668 721 701 L721 701 Z " />
<glyph glyph-name="Yacute" unicode="&#xdd;" horiz-adv-x="670" d="M490 830 C477 874 460 916 440 953 L211 836 C219 810 230 787 243 766 L490 830 Z M603 591 L670 601 C675 634 675 668 670 701 L411 701 C407 670 407 639 411 608 L475 601 L350 372 L232 593 L289 601 C293 634 293 668 289 701 L0 701 C-4 670 -4 639 0 608 L60 602 L260 255 L260 109 L183 99 C177 66 177 33 182 0 L484 0 C488 30 489 60 486 90 L406 97 L406 254 L603 591 Z " />
<glyph glyph-name="Thorn" unicode="&#xde;" horiz-adv-x="631" d="M357 556 L251 556 L251 593 L328 603 C334 636 334 668 328 701 L32 701 C26 670 26 639 32 608 L105 603 L105 110 L32 100 C27 67 28 33 33 0 L324 0 C330 30 330 60 324 90 L251 98 L251 139 L354 139 C541 139 615 215 615 356 C615 484 540 556 357 556 L357 556 Z M325 243 L251 243 L251 446 L332 446 C416 446 459 412 459 348 C459 279 415 243 325 243 L325 243 Z " />
<glyph glyph-name="germandbls" unicode="&#xdf;" horiz-adv-x="717" d="M544 304 C485 329 443 339 443 378 C443 412 492 432 548 448 C561 489 567 523 567 556 C567 719 393 735 350 735 C179 735 102 666 102 547 L102 506 L36 497 C31 467 31 438 36 409 L102 409 L102 97 L36 92 C31 61 31 31 36 0 L235 0 L235 528 C235 616 289 630 340 630 C386 630 438 610 438 536 C438 526 438 516 437 508 C344 478 306 423 306 370 C306 275 380 250 462 210 C520 182 562 167 562 134 C562 107 536 84 490 84 C460 84 433 93 413 103 L399 172 C366 175 333 175 301 171 C301 132 301 79 309 36 C363 5 438 -11 500 -11 C614 -11 700 40 700 147 C700 240 636 264 544 304 L544 304 Z " />
<glyph glyph-name="agrave" unicode="&#xe0;" horiz-adv-x="556" d="M404 641 L174 758 C154 720 137 679 125 635 L372 571 C384 591 395 614 404 641 L404 641 Z M540 90 L475 100 L475 324 C475 473 409 517 283 517 C189 517 112 490 66 472 C65 426 68 384 81 335 C112 333 143 335 174 342 L184 407 C206 411 230 413 254 413 C319 413 342 389 342 335 L342 292 C320 295 296 297 267 297 C151 297 33 253 33 135 C33 35 98 -11 187 -11 C267 -11 321 27 351 73 C356 18 394 -7 449 -7 C488 -7 519 -3 540 -1 C545 29 545 60 540 90 L540 90 Z M234 84 C185 84 168 114 168 145 C168 204 227 225 291 225 C312 225 332 224 350 221 L350 195 C350 139 295 84 234 84 L234 84 Z " />
<glyph glyph-name="aacute" unicode="&#xe1;" horiz-adv-x="556" d="M425 635 C412 679 395 721 375 758 L146 641 C154 615 165 592 178 571 L425 635 Z M540 90 L475 100 L475 324 C475 473 409 517 283 517 C189 517 112 490 66 472 C65 426 68 384 81 335 C112 333 143 335 174 342 L184 407 C206 411 230 413 254 413 C319 413 342 389 342 335 L342 292 C320 295 296 297 267 297 C151 297 33 253 33 135 C33 35 98 -11 187 -11 C267 -11 321 27 351 73 C356 18 394 -7 449 -7 C488 -7 519 -3 540 -1 C545 29 545 60 540 90 L540 90 Z M234 84 C185 84 168 114 168 145 C168 204 227 225 291 225 C312 225 332 224 350 221 L350 195 C350 139 295 84 234 84 L234 84 Z " />
<glyph glyph-name="acircumflex" unicode="&#xe2;" horiz-adv-x="556" d="M271 682 L343 567 C380 571 417 580 453 592 L341 742 C292 744 248 743 207 737 L100 595 C132 583 164 573 198 567 L271 682 Z M540 90 L475 100 L475 324 C475 473 409 517 283 517 C189 517 112 490 66 472 C65 426 68 384 81 335 C112 333 143 335 174 342 L184 407 C206 411 230 413 254 413 C319 413 342 389 342 335 L342 292 C320 295 296 297 267 297 C151 297 33 253 33 135 C33 35 98 -11 187 -11 C267 -11 321 27 351 73 C356 18 394 -7 449 -7 C488 -7 519 -3 540 -1 C545 29 545 60 540 90 L540 90 Z M234 84 C185 84 168 114 168 145 C168 204 227 225 291 225 C312 225 332 224 350 221 L350 195 C350 139 295 84 234 84 L234 84 Z " />
<glyph glyph-name="atilde" unicode="&#xe3;" horiz-adv-x="556" d="M154 570 C166 601 184 622 208 622 C222 622 244 615 275 603 C303 593 333 580 362 580 C434 580 471 646 472 725 C450 730 428 734 405 733 C393 700 374 680 351 680 C334 680 310 690 287 700 C256 712 226 722 198 722 C132 722 88 667 87 577 C109 571 132 569 154 570 L154 570 Z M540 90 L475 100 L475 324 C475 473 409 517 283 517 C189 517 112 490 66 472 C65 426 68 384 81 335 C112 333 143 335 174 342 L184 407 C206 411 230 413 254 413 C319 413 342 389 342 335 L342 292 C320 295 296 297 267 297 C151 297 33 253 33 135 C33 35 98 -11 187 -11 C267 -11 321 27 351 73 C356 18 394 -7 449 -7 C488 -7 519 -3 540 -1 C545 29 545 60 540 90 L540 90 Z M234 84 C185 84 168 114 168 145 C168 204 227 225 291 225 C312 225 332 224 350 221 L350 195 C350 139 295 84 234 84 L234 84 Z " />
<glyph glyph-name="adieresis" unicode="&#xe4;" horiz-adv-x="556" d="M241 595 C242 632 243 676 241 725 C194 728 146 729 102 726 C100 680 100 636 102 596 C141 594 188 593 241 595 L241 595 Z M459 595 C460 632 461 676 459 725 C412 728 364 729 320 726 C318 680 318 636 320 596 C359 594 406 593 459 595 L459 595 Z M540 90 L475 100 L475 324 C475 473 409 517 283 517 C189 517 112 490 66 472 C65 426 68 384 81 335 C112 333 143 335 174 342 L184 407 C206 411 230 413 254 413 C319 413 342 389 342 335 L342 292 C320 295 296 297 267 297 C151 297 33 253 33 135 C33 35 98 -11 187 -11 C267 -11 321 27 351 73 C356 18 394 -7 449 -7 C488 -7 519 -3 540 -1 C545 29 545 60 540 90 L540 90 Z M234 84 C185 84 168 114 168 145 C168 204 227 225 291 225 C312 225 332 224 350 221 L350 195 C350 139 295 84 234 84 L234 84 Z " />
<glyph glyph-name="aring" unicode="&#xe5;" horiz-adv-x="556" d="M276 562 C353 562 404 609 404 676 C404 743 353 792 276 792 C199 792 148 744 148 678 C148 610 199 562 276 562 L276 562 Z M276 727 C303 727 325 707 325 678 C325 647 303 626 276 626 C249 626 228 647 228 677 C228 706 249 727 276 727 L276 727 Z M540 90 L475 100 L475 324 C475 473 409 517 283 517 C189 517 112 490 66 472 C65 426 68 384 81 335 C112 333 143 335 174 342 L184 407 C206 411 230 413 254 413 C319 413 342 389 342 335 L342 292 C320 295 296 297 267 297 C151 297 33 253 33 135 C33 35 98 -11 187 -11 C267 -11 321 27 351 73 C356 18 394 -7 449 -7 C488 -7 519 -3 540 -1 C545 29 545 60 540 90 L540 90 Z M234 84 C185 84 168 114 168 145 C168 204 227 225 291 225 C312 225 332 224 350 221 L350 195 C350 139 295 84 234 84 L234 84 Z " />
<glyph glyph-name="ae" unicode="&#xe6;" horiz-adv-x="807" d="M790 270 C790 418 717 516 581 516 C505 516 436 482 399 432 C376 483 328 516 254 516 C171 516 102 491 55 470 C55 424 58 379 71 333 C102 331 133 333 163 339 L172 404 C194 408 218 410 243 410 C298 410 319 378 319 335 L319 294 C297 297 273 299 241 299 C141 299 21 265 21 139 C21 38 86 -9 191 -9 C281 -9 353 35 384 94 C421 31 490 -8 591 -9 C653 -9 705 0 769 40 C770 81 769 108 766 150 L715 150 C671 106 633 99 591 99 C518 100 465 149 456 227 L787 227 L787 230 C789 245 790 257 790 270 L790 270 Z M567 409 C625 409 655 372 661 311 L460 311 C476 374 517 409 567 409 L567 409 Z M217 87 C171 87 157 119 157 146 C157 206 218 225 275 225 C293 225 310 224 327 222 L327 218 C327 139 271 87 217 87 L217 87 Z " />
<glyph glyph-name="ccedilla" unicode="&#xe7;" horiz-adv-x="518" d="M484 44 C485 85 485 103 481 145 L429 145 C389 104 344 90 307 90 C230 90 175 151 175 253 C175 357 228 411 292 411 C320 411 345 405 368 397 L394 312 L476 322 C474 361 473 424 465 474 C410 505 347 517 291 517 C132 517 34 408 34 258 C34 105 121 12 244 -7 L206 -86 L231 -97 C248 -95 263 -93 276 -93 C301 -93 315 -100 315 -118 C315 -157 249 -179 223 -186 C227 -206 234 -224 245 -241 C323 -231 413 -194 413 -112 C413 -65 391 -39 305 -39 C301 -39 297 -39 292 -40 L306 -11 C374 -9 423 5 484 44 L484 44 Z " />
<glyph glyph-name="egrave" unicode="&#xe8;" horiz-adv-x="540" d="M404 641 L174 758 C154 720 137 679 125 635 L372 571 C384 591 395 614 404 641 L404 641 Z M512 271 C512 419 443 517 278 517 C133 517 31 412 31 253 C31 87 140 -10 295 -11 C367 -11 425 -1 489 38 C490 79 489 103 486 145 C477 147 451 147 435 145 C391 98 350 91 310 91 C230 92 177 141 167 226 L510 226 C512 242 512 257 512 271 L512 271 Z M280 422 C345 422 376 382 381 308 L171 308 C184 382 225 422 280 422 L280 422 Z " />
<glyph glyph-name="eacute" unicode="&#xe9;" horiz-adv-x="540" d="M425 635 C412 679 395 721 375 758 L146 641 C154 615 165 592 178 571 L425 635 Z M512 271 C512 419 443 517 278 517 C133 517 31 412 31 253 C31 87 140 -10 295 -11 C367 -11 425 -1 489 38 C490 79 489 103 486 145 C477 147 451 147 435 145 C391 98 350 91 310 91 C230 92 177 141 167 226 L510 226 C512 242 512 257 512 271 L512 271 Z M280 422 C345 422 376 382 381 308 L171 308 C184 382 225 422 280 422 L280 422 Z " />
<glyph glyph-name="ecircumflex" unicode="&#xea;" horiz-adv-x="540" d="M271 682 L343 567 C380 571 417 580 453 592 L341 742 C292 744 248 743 207 737 L100 595 C132 583 164 573 198 567 L271 682 Z M512 271 C512 419 443 517 278 517 C133 517 31 412 31 253 C31 87 140 -10 295 -11 C367 -11 425 -1 489 38 C490 79 489 103 486 145 C477 147 451 147 435 145 C391 98 350 91 310 91 C230 92 177 141 167 226 L510 226 C512 242 512 257 512 271 L512 271 Z M280 422 C345 422 376 382 381 308 L171 308 C184 382 225 422 280 422 L280 422 Z " />
<glyph glyph-name="edieresis" unicode="&#xeb;" horiz-adv-x="540" d="M241 595 C242 632 243 676 241 725 C194 728 146 729 102 726 C100 680 100 636 102 596 C141 594 188 593 241 595 L241 595 Z M459 595 C460 632 461 676 459 725 C412 728 364 729 320 726 C318 680 318 636 320 596 C359 594 406 593 459 595 L459 595 Z M512 271 C512 419 443 517 278 517 C133 517 31 412 31 253 C31 87 140 -10 295 -11 C367 -11 425 -1 489 38 C490 79 489 103 486 145 C477 147 451 147 435 145 C391 98 350 91 310 91 C230 92 177 141 167 226 L510 226 C512 242 512 257 512 271 L512 271 Z M280 422 C345 422 376 382 381 308 L171 308 C184 382 225 422 280 422 L280 422 Z " />
<glyph glyph-name="igrave" unicode="&#xec;" horiz-adv-x="324" d="M298 641 L68 758 C48 720 31 679 19 635 L266 571 C278 591 289 614 298 641 L298 641 Z M304 84 L236 92 L236 515 L38 506 C33 475 33 444 38 413 L104 411 L104 97 L38 92 C35 61 35 31 38 0 L304 0 C308 28 308 56 304 84 L304 84 Z " />
<glyph glyph-name="iacute" unicode="&#xed;" horiz-adv-x="324" d="M319 635 C306 679 289 721 269 758 L40 641 C48 615 59 592 72 571 L319 635 Z M236 92 L236 515 L38 506 C33 475 33 444 38 413 L104 411 L104 97 L38 92 C35 61 35 31 38 0 L304 0 C308 28 308 56 304 84 L236 92 Z " />
<glyph glyph-name="icircumflex" unicode="&#xee;" horiz-adv-x="324" d="M165 682 L237 567 C274 571 311 580 347 592 L235 742 C186 744 142 743 101 737 L-6 595 C26 583 58 573 92 567 L165 682 Z M236 92 L236 515 L38 506 C33 475 33 444 38 413 L104 411 L104 97 L38 92 C35 61 35 31 38 0 L304 0 C308 28 308 56 304 84 L236 92 Z " />
<glyph glyph-name="idieresis" unicode="&#xef;" horiz-adv-x="324" d="M135 595 C136 632 137 676 135 725 C88 728 40 729 -4 726 C-6 680 -6 636 -4 596 C35 594 82 593 135 595 L135 595 Z M353 725 C306 728 258 729 214 726 C212 680 212 636 214 596 C253 594 300 593 353 595 C354 632 355 676 353 725 L353 725 Z M236 92 L236 515 L38 506 C33 475 33 444 38 413 L104 411 L104 97 L38 92 C35 61 35 31 38 0 L304 0 C308 28 308 56 304 84 L236 92 Z " />
<glyph glyph-name="eth" unicode="&#xf0;" horiz-adv-x="576" d="M381 616 L448 652 C438 681 425 704 408 725 L314 675 C290 694 265 712 239 729 C212 713 191 692 172 667 C188 653 203 638 218 624 L161 594 C173 566 189 542 207 522 L280 561 C301 538 320 515 336 491 C310 503 283 510 254 510 C138 510 30 420 30 252 C30 86 136 -10 289 -10 C441 -10 547 86 547 262 C547 394 483 515 381 616 L381 616 Z M289 96 C214 96 168 152 168 252 C168 354 214 411 289 411 C363 411 409 354 409 252 C409 152 363 96 289 96 L289 96 Z " />
<glyph glyph-name="ntilde" unicode="&#xf1;" horiz-adv-x="635" d="M213 570 C225 601 243 622 267 622 C281 622 303 615 334 603 C362 593 392 580 421 580 C493 580 530 646 531 725 C509 730 487 734 464 733 C452 700 433 680 410 680 C393 680 369 690 346 700 C315 712 285 722 257 722 C191 722 147 667 146 577 C168 571 191 569 213 570 L213 570 Z M617 84 L551 92 L551 337 C551 456 517 517 403 517 C325 517 266 484 230 435 L221 516 L36 506 C32 475 32 445 36 414 L101 412 L101 97 L36 91 C30 61 30 30 36 0 L301 0 C305 28 305 56 301 84 L234 92 L234 298 C234 363 299 412 353 412 C403 412 419 387 419 331 L419 0 L617 0 C621 28 621 56 617 84 L617 84 Z " />
<glyph glyph-name="ograve" unicode="&#xf2;" horiz-adv-x="582" d="M190 758 C170 720 153 679 141 635 L388 571 C400 591 411 614 420 641 L190 758 Z M291 517 C139 517 33 420 33 253 C33 86 138 -11 291 -11 C443 -11 549 86 549 253 C549 420 443 517 291 517 L291 517 Z M290 411 C362 411 408 354 408 253 C408 151 362 95 290 95 C219 95 173 151 173 253 C173 354 219 411 290 411 L290 411 Z " />
<glyph glyph-name="oacute" unicode="&#xf3;" horiz-adv-x="582" d="M391 758 L162 641 C170 615 181 592 194 571 L441 635 C428 679 411 721 391 758 L391 758 Z M291 517 C139 517 33 420 33 253 C33 86 138 -11 291 -11 C443 -11 549 86 549 253 C549 420 443 517 291 517 L291 517 Z M290 411 C362 411 408 354 408 253 C408 151 362 95 290 95 C219 95 173 151 173 253 C173 354 219 411 290 411 L290 411 Z " />
<glyph glyph-name="ocircumflex" unicode="&#xf4;" horiz-adv-x="582" d="M287 682 L359 567 C396 571 433 580 469 592 L357 742 C308 744 264 743 223 737 L116 595 C148 583 180 573 214 567 L287 682 Z M291 517 C139 517 33 420 33 253 C33 86 138 -11 291 -11 C443 -11 549 86 549 253 C549 420 443 517 291 517 L291 517 Z M290 95 C219 95 173 151 173 253 C173 354 219 411 290 411 C362 411 408 354 408 253 C408 151 362 95 290 95 L290 95 Z " />
<glyph glyph-name="otilde" unicode="&#xf5;" horiz-adv-x="582" d="M421 733 C409 700 390 680 367 680 C350 680 326 690 303 700 C272 712 242 722 214 722 C148 722 104 667 103 577 C125 571 148 569 170 570 C182 601 200 622 224 622 C238 622 260 615 291 603 C319 593 349 580 378 580 C450 580 487 646 488 725 C466 730 444 734 421 733 L421 733 Z M291 517 C139 517 33 420 33 253 C33 86 138 -11 291 -11 C443 -11 549 86 549 253 C549 420 443 517 291 517 L291 517 Z M290 411 C362 411 408 354 408 253 C408 151 362 95 290 95 C219 95 173 151 173 253 C173 354 219 411 290 411 L290 411 Z " />
<glyph glyph-name="odieresis" unicode="&#xf6;" horiz-adv-x="582" d="M257 725 C210 728 162 729 118 726 C116 680 116 636 118 596 C157 594 204 593 257 595 C258 632 259 676 257 725 L257 725 Z M475 725 C428 728 380 729 336 726 C334 680 334 636 336 596 C375 594 422 593 475 595 C476 632 477 676 475 725 L475 725 Z M291 517 C139 517 33 420 33 253 C33 86 138 -11 291 -11 C443 -11 549 86 549 253 C549 420 443 517 291 517 L291 517 Z M290 411 C362 411 408 354 408 253 C408 151 362 95 290 95 C219 95 173 151 173 253 C173 354 219 411 290 411 L290 411 Z " />
<glyph glyph-name="divide" unicode="&#xf7;" horiz-adv-x="528" d="M207 412 C247 411 290 410 329 412 C331 446 331 494 329 537 C292 542 244 540 208 538 C205 502 205 462 207 412 L207 412 Z M493 356 L44 356 C40 320 40 282 44 245 L493 245 C497 282 497 320 493 356 L493 356 Z M206 60 C246 59 289 58 328 60 C330 94 330 142 328 185 C291 190 243 188 207 186 C204 150 204 110 206 60 L206 60 Z " />
<glyph glyph-name="oslash" unicode="&#xf8;" horiz-adv-x="581" d="M553 508 C522 510 491 510 460 508 L436 480 C396 504 346 517 291 517 C139 517 33 420 33 253 C33 178 54 118 91 73 L27 -2 C58 -6 88 -6 120 -2 L145 27 C185 2 235 -11 291 -11 C443 -11 549 86 549 253 C549 328 527 389 490 434 L553 508 Z M173 253 C173 354 219 411 290 411 C317 411 340 403 358 388 L182 181 C176 202 173 226 173 253 L173 253 Z M408 253 C408 151 362 95 290 95 C263 95 240 103 222 118 L398 326 C405 305 408 281 408 253 L408 253 Z " />
<glyph glyph-name="ugrave" unicode="&#xf9;" horiz-adv-x="606" d="M423 641 L193 758 C173 720 156 679 144 635 L391 571 C403 591 414 614 423 641 L423 641 Z M587 88 L518 97 L518 516 L324 506 C320 475 320 445 324 414 L386 413 L386 206 C386 157 330 96 273 96 C217 96 207 128 207 176 L207 516 L10 506 C6 475 6 445 10 414 L74 412 L74 161 C74 54 119 -11 225 -11 C298 -11 354 27 389 80 L397 -9 L587 0 C592 28 592 59 587 88 L587 88 Z " />
<glyph glyph-name="uacute" unicode="&#xfa;" horiz-adv-x="606" d="M444 635 C431 679 414 721 394 758 L165 641 C173 615 184 592 197 571 L444 635 Z M587 88 L518 97 L518 516 L324 506 C320 475 320 445 324 414 L386 413 L386 206 C386 157 330 96 273 96 C217 96 207 128 207 176 L207 516 L10 506 C6 475 6 445 10 414 L74 412 L74 161 C74 54 119 -11 225 -11 C298 -11 354 27 389 80 L397 -9 L587 0 C592 28 592 59 587 88 L587 88 Z " />
<glyph glyph-name="ucircumflex" unicode="&#xfb;" horiz-adv-x="606" d="M290 682 L362 567 C399 571 436 580 472 592 L360 742 C311 744 267 743 226 737 L119 595 C151 583 183 573 217 567 L290 682 Z M587 88 L518 97 L518 516 L324 506 C320 475 320 445 324 414 L386 413 L386 206 C386 157 330 96 273 96 C217 96 207 128 207 176 L207 516 L10 506 C6 475 6 445 10 414 L74 412 L74 161 C74 54 119 -11 225 -11 C298 -11 354 27 389 80 L397 -9 L587 0 C592 28 592 59 587 88 L587 88 Z " />
<glyph glyph-name="udieresis" unicode="&#xfc;" horiz-adv-x="606" d="M260 595 C261 632 262 676 260 725 C213 728 165 729 121 726 C119 680 119 636 121 596 C160 594 207 593 260 595 L260 595 Z M478 595 C479 632 480 676 478 725 C431 728 383 729 339 726 C337 680 337 636 339 596 C378 594 425 593 478 595 L478 595 Z M587 88 L518 97 L518 516 L324 506 C320 475 320 445 324 414 L386 413 L386 206 C386 157 330 96 273 96 C217 96 207 128 207 176 L207 516 L10 506 C6 475 6 445 10 414 L74 412 L74 161 C74 54 119 -11 225 -11 C298 -11 354 27 389 80 L397 -9 L587 0 C592 28 592 59 587 88 L587 88 Z " />
<glyph glyph-name="yacute" unicode="&#xfd;" horiz-adv-x="560" d="M434 635 C421 679 404 721 384 758 L155 641 C163 615 174 592 187 571 L434 635 Z M556 506 L330 506 C325 476 325 445 330 414 L381 408 L288 123 L198 401 L248 407 C252 440 252 474 248 506 L3 506 C-1 476 -1 445 3 414 L55 410 L227 -16 C198 -102 169 -120 135 -120 C110 -121 80 -115 62 -100 L47 -100 C41 -138 41 -175 46 -213 C63 -220 94 -226 123 -226 C268 -226 310 -112 340 -31 L500 402 L556 407 C561 440 561 474 556 506 L556 506 Z " />
<glyph glyph-name="thorn" unicode="&#xfe;" horiz-adv-x="616" d="M363 517 C296 517 244 490 209 447 L209 733 L11 724 C7 693 7 662 11 631 L76 629 L76 -120 L11 -125 C6 -155 6 -186 11 -216 L305 -216 C310 -188 310 -161 305 -133 L209 -121 L209 58 C243 16 293 -11 360 -11 C497 -11 583 95 583 251 C583 421 487 517 363 517 L363 517 Z M329 96 C260 96 209 152 209 256 L209 259 C209 375 276 411 325 411 C396 411 442 358 442 251 C442 138 385 96 329 96 L329 96 Z " />
<glyph glyph-name="ydieresis" unicode="&#xff;" horiz-adv-x="560" d="M250 595 C251 632 252 676 250 725 C203 728 155 729 111 726 C109 680 109 636 111 596 C150 594 197 593 250 595 L250 595 Z M468 595 C469 632 470 676 468 725 C421 728 373 729 329 726 C327 680 327 636 329 596 C368 594 415 593 468 595 L468 595 Z M556 506 L330 506 C325 476 325 445 330 414 L381 408 L288 123 L198 401 L248 407 C252 440 252 474 248 506 L3 506 C-1 476 -1 445 3 414 L55 410 L227 -16 C198 -102 169 -120 135 -120 C110 -121 80 -115 62 -100 L47 -100 C41 -138 41 -175 46 -213 C63 -220 94 -226 123 -226 C268 -226 310 -112 340 -31 L500 402 L556 407 C561 440 561 474 556 506 L556 506 Z " />
<glyph glyph-name="Amacron" unicode="&#x100;" horiz-adv-x="753" d="M521 789 C525 822 525 855 521 889 L209 889 C204 855 204 822 209 789 L521 789 Z M740 90 L673 96 L460 710 C362 712 269 709 181 701 C179 669 179 638 181 605 L266 602 L87 110 L13 98 C12 65 12 33 13 0 L294 0 C295 30 295 60 294 90 L217 97 L253 206 L486 206 L517 107 L447 98 C445 65 445 33 447 0 L740 0 C742 30 742 60 740 90 L740 90 Z M287 307 L373 566 L454 307 L287 307 Z " />
<glyph glyph-name="amacron" unicode="&#x101;" horiz-adv-x="556" d="M432 594 C436 627 436 660 432 694 L120 694 C115 660 115 627 120 594 L432 594 Z M540 90 L475 100 L475 324 C475 473 409 517 283 517 C189 517 112 490 66 472 C65 426 68 384 81 335 C112 333 143 335 174 342 L184 407 C206 411 230 413 254 413 C319 413 342 389 342 335 L342 292 C320 295 296 297 267 297 C151 297 33 253 33 135 C33 35 98 -11 187 -11 C267 -11 321 27 351 73 C356 18 394 -7 449 -7 C488 -7 519 -3 540 -1 C545 29 545 60 540 90 L540 90 Z M234 84 C185 84 168 114 168 145 C168 204 227 225 291 225 C312 225 332 224 350 221 L350 195 C350 139 295 84 234 84 L234 84 Z " />
<glyph glyph-name="Abreve" unicode="&#x102;" horiz-adv-x="753" d="M365 761 C436 761 517 793 542 876 C526 897 503 913 471 924 C447 889 412 868 365 868 C317 868 284 894 258 925 C229 914 205 896 189 872 C224 793 290 761 365 761 L365 761 Z M740 90 L673 96 L460 710 C362 712 269 709 181 701 C179 669 179 638 181 605 L266 602 L87 110 L13 98 C12 65 12 33 13 0 L294 0 C295 30 295 60 294 90 L217 97 L253 206 L486 206 L517 107 L447 98 C445 65 445 33 447 0 L740 0 C742 30 742 60 740 90 L740 90 Z M287 307 L373 566 L454 307 L287 307 Z " />
<glyph glyph-name="abreve" unicode="&#x103;" horiz-adv-x="556" d="M276 566 C347 566 428 598 453 681 C437 702 414 718 382 729 C358 694 323 673 276 673 C228 673 195 699 169 730 C140 719 116 701 100 677 C135 598 201 566 276 566 L276 566 Z M540 90 L475 100 L475 324 C475 473 409 517 283 517 C189 517 112 490 66 472 C65 426 68 384 81 335 C112 333 143 335 174 342 L184 407 C206 411 230 413 254 413 C319 413 342 389 342 335 L342 292 C320 295 296 297 267 297 C151 297 33 253 33 135 C33 35 98 -11 187 -11 C267 -11 321 27 351 73 C356 18 394 -7 449 -7 C488 -7 519 -3 540 -1 C545 29 545 60 540 90 L540 90 Z M234 84 C185 84 168 114 168 145 C168 204 227 225 291 225 C312 225 332 224 350 221 L350 195 C350 139 295 84 234 84 L234 84 Z " />
<glyph glyph-name="Aogonek" unicode="&#x104;" horiz-adv-x="753" d="M740 90 L673 96 L460 710 C362 712 269 709 181 701 C179 669 179 638 181 605 L266 602 L87 110 L13 98 C12 65 12 33 13 0 L294 0 C295 30 295 60 294 90 L217 97 L253 206 L486 206 L517 107 L447 98 C445 65 445 33 447 0 L569 0 C486 -24 443 -74 443 -121 C443 -183 494 -212 567 -212 C593 -212 626 -209 657 -201 C658 -178 654 -156 646 -133 C627 -139 617 -141 602 -141 C569 -141 550 -127 550 -101 C550 -70 575 -34 668 0 L740 0 C742 30 742 60 740 90 L740 90 Z M287 307 L373 566 L454 307 L287 307 Z " />
<glyph glyph-name="aogonek" unicode="&#x105;" horiz-adv-x="556" d="M509 -4 L540 -1 C545 29 545 60 540 90 L475 100 L475 324 C475 473 409 517 283 517 C189 517 112 490 66 472 C65 426 68 384 81 335 C112 333 143 335 174 342 L184 407 C206 411 230 413 254 413 C319 413 342 389 342 335 L342 292 C320 295 296 297 267 297 C151 297 33 253 33 135 C33 35 98 -11 187 -11 C267 -11 321 27 351 73 C355 31 378 7 413 -3 C335 -27 295 -76 295 -121 C295 -183 346 -212 419 -212 C445 -212 478 -209 509 -201 C510 -178 506 -156 498 -133 C479 -139 469 -141 454 -141 C421 -141 402 -127 402 -101 C402 -71 425 -37 509 -4 L509 -4 Z M234 84 C185 84 168 114 168 145 C168 204 227 225 291 225 C312 225 332 224 350 221 L350 195 C350 139 295 84 234 84 L234 84 Z " />
<glyph glyph-name="Cacute" unicode="&#x106;" horiz-adv-x="684" d="M533 830 C520 874 503 916 483 953 L254 836 C262 810 273 787 286 766 L533 830 Z M398 602 C439 602 474 595 508 579 L534 439 C572 439 609 443 647 449 C649 519 646 583 638 657 C558 693 486 712 390 712 C173 712 31 581 31 351 C31 127 168 -11 387 -11 C483 -11 575 11 646 69 C646 110 645 142 642 184 C618 186 593 186 556 184 C514 122 449 103 394 103 C282 103 190 196 190 351 C190 503 271 602 398 602 L398 602 Z " />
<glyph glyph-name="cacute" unicode="&#x107;" horiz-adv-x="518" d="M443 635 C430 679 413 721 393 758 L164 641 C172 615 183 592 196 571 L443 635 Z M481 145 L429 145 C389 104 344 90 307 90 C230 90 175 151 175 253 C175 357 228 411 292 411 C320 411 345 405 368 397 L394 312 L476 322 C474 361 473 424 465 474 C410 505 347 517 291 517 C132 517 34 408 34 258 C34 87 143 -9 290 -11 C366 -11 418 2 484 44 C485 85 485 103 481 145 L481 145 Z " />
<glyph glyph-name="Ccircumflex" unicode="&#x108;" horiz-adv-x="684" d="M379 877 L451 762 C488 766 525 775 561 787 L449 937 C400 939 356 938 315 932 L208 790 C240 778 272 768 306 762 L379 877 Z M398 602 C439 602 474 595 508 579 L534 439 C572 439 609 443 647 449 C649 519 646 583 638 657 C558 693 486 712 390 712 C173 712 31 581 31 351 C31 127 168 -11 387 -11 C483 -11 575 11 646 69 C646 110 645 142 642 184 C618 186 593 186 556 184 C514 122 449 103 394 103 C282 103 190 196 190 351 C190 503 271 602 398 602 L398 602 Z " />
<glyph glyph-name="ccircumflex" unicode="&#x109;" horiz-adv-x="518" d="M289 682 L361 567 C398 571 435 580 471 592 L359 742 C310 744 266 743 225 737 L118 595 C150 583 182 573 216 567 L289 682 Z M481 145 L429 145 C389 104 344 90 307 90 C230 90 175 151 175 253 C175 357 228 411 292 411 C320 411 345 405 368 397 L394 312 L476 322 C474 361 473 424 465 474 C410 505 347 517 291 517 C132 517 34 408 34 258 C34 87 143 -9 290 -11 C366 -11 418 2 484 44 C485 85 485 103 481 145 L481 145 Z " />
<glyph glyph-name="Cdotaccent" unicode="&#x10a;" horiz-adv-x="684" d="M452 790 C453 827 454 871 452 920 C405 923 357 924 313 921 C311 875 311 831 313 791 C352 789 399 788 452 790 L452 790 Z M398 602 C439 602 474 595 508 579 L534 439 C572 439 609 443 647 449 C649 519 646 583 638 657 C558 693 486 712 390 712 C173 712 31 581 31 351 C31 127 168 -11 387 -11 C483 -11 575 11 646 69 C646 110 645 142 642 184 C618 186 593 186 556 184 C514 122 449 103 394 103 C282 103 190 196 190 351 C190 503 271 602 398 602 L398 602 Z " />
<glyph glyph-name="cdotaccent" unicode="&#x10b;" horiz-adv-x="518" d="M362 595 C363 632 364 676 362 725 C315 728 267 729 223 726 C221 680 221 636 223 596 C262 594 309 593 362 595 L362 595 Z M481 145 L429 145 C389 104 344 90 307 90 C230 90 175 151 175 253 C175 357 228 411 292 411 C320 411 345 405 368 397 L394 312 L476 322 C474 361 473 424 465 474 C410 505 347 517 291 517 C132 517 34 408 34 258 C34 87 143 -9 290 -11 C366 -11 418 2 484 44 C485 85 485 103 481 145 L481 145 Z " />
<glyph glyph-name="Ccaron" unicode="&#x10c;" horiz-adv-x="684" d="M452 769 L560 911 C527 922 492 932 459 938 L388 827 L317 938 C280 932 243 923 207 913 L321 764 C365 763 408 764 452 769 L452 769 Z M398 602 C439 602 474 595 508 579 L534 439 C572 439 609 443 647 449 C649 519 646 583 638 657 C558 693 486 712 390 712 C173 712 31 581 31 351 C31 127 168 -11 387 -11 C483 -11 575 11 646 69 C646 110 645 142 642 184 C618 186 593 186 556 184 C514 122 449 103 394 103 C282 103 190 196 190 351 C190 503 271 602 398 602 L398 602 Z " />
<glyph glyph-name="ccaron" unicode="&#x10d;" horiz-adv-x="518" d="M362 574 L470 716 C437 727 402 737 369 743 L298 632 L227 743 C190 737 153 728 117 718 L231 569 C275 568 318 569 362 574 L362 574 Z M481 145 L429 145 C389 104 344 90 307 90 C230 90 175 151 175 253 C175 357 228 411 292 411 C320 411 345 405 368 397 L394 312 L476 322 C474 361 473 424 465 474 C410 505 347 517 291 517 C132 517 34 408 34 258 C34 87 143 -9 290 -11 C366 -11 418 2 484 44 C485 85 485 103 481 145 L481 145 Z " />
<glyph glyph-name="Dcaron" unicode="&#x10e;" horiz-adv-x="727" d="M422 769 L530 911 C497 922 462 932 429 938 L358 827 L287 938 C250 932 213 923 177 913 L291 764 C335 763 378 764 422 769 L422 769 Z M347 701 L32 701 C28 670 28 639 32 608 L105 603 L105 110 L32 98 C29 65 29 33 32 0 L347 0 C562 0 694 130 694 350 C694 571 562 701 347 701 L347 701 Z M339 111 L252 111 L252 591 L331 591 C459 591 534 503 534 350 C534 198 466 111 339 111 L339 111 Z " />
<glyph glyph-name="dcaron" unicode="&#x10f;" horiz-adv-x="733" d="M730 758 C692 762 649 762 609 760 C607 719 605 676 607 663 C633 659 644 649 644 631 C644 614 636 592 620 568 C637 554 654 543 673 534 C712 576 740 626 740 690 C740 711 737 734 730 758 L730 758 Z M537 92 L537 733 L338 724 C333 693 333 662 338 631 L404 629 L404 450 C369 492 318 517 255 517 C131 517 32 421 32 251 C32 97 116 -11 254 -11 C326 -11 379 23 414 73 L432 -9 L601 0 C605 28 605 55 601 83 L537 92 Z M283 95 C226 95 173 140 173 251 C173 358 222 412 290 412 C345 412 404 375 404 259 L404 257 C404 158 352 95 283 95 L283 95 Z " />
<glyph glyph-name="Dcroat" unicode="&#x110;" horiz-adv-x="727" d="M347 701 L32 701 C28 670 28 639 32 608 L105 603 L105 409 L30 409 C26 373 26 339 30 303 L105 303 L105 110 L32 98 C29 65 29 33 32 0 L347 0 C562 0 694 130 694 350 C694 571 562 701 347 701 L347 701 Z M339 111 L252 111 L252 303 L365 303 C370 339 370 373 365 409 L252 409 L252 591 L331 591 C459 591 534 503 534 350 C534 198 466 111 339 111 L339 111 Z " />
<glyph glyph-name="dcroat" unicode="&#x111;" horiz-adv-x="618" d="M601 83 L537 92 L537 539 L592 539 C597 567 597 593 592 621 L537 621 L537 733 L338 724 C333 693 333 662 338 631 L404 629 L404 621 L231 621 C227 593 227 567 231 539 L404 539 L404 450 C369 492 318 517 255 517 C131 517 32 421 32 251 C32 97 116 -11 254 -11 C326 -11 379 23 414 73 L432 -9 L601 0 C605 28 605 55 601 83 L601 83 Z M283 95 C226 95 173 140 173 251 C173 358 222 412 290 412 C345 412 404 375 404 259 L404 257 C404 158 352 95 283 95 L283 95 Z " />
<glyph glyph-name="Emacron" unicode="&#x112;" horiz-adv-x="646" d="M500 789 C504 822 504 855 500 889 L188 889 C183 855 183 822 188 789 L500 789 Z M604 220 C566 223 528 223 490 220 L483 111 L252 111 L252 304 L464 305 C468 341 468 378 464 414 L252 414 L252 591 L476 591 L483 494 C521 489 559 489 596 494 C605 563 606 632 600 701 L32 701 C29 670 29 639 32 608 L106 603 L106 108 L32 98 C28 65 28 33 32 0 L607 0 C614 76 612 146 604 220 L604 220 Z " />
<glyph glyph-name="emacron" unicode="&#x113;" horiz-adv-x="540" d="M432 594 C436 627 436 660 432 694 L120 694 C115 660 115 627 120 594 L432 594 Z M512 271 C512 419 443 517 278 517 C133 517 31 412 31 253 C31 87 140 -10 295 -11 C367 -11 425 -1 489 38 C490 79 489 103 486 145 C477 147 451 147 435 145 C391 98 350 91 310 91 C230 92 177 141 167 226 L510 226 C512 242 512 257 512 271 L512 271 Z M280 422 C345 422 376 382 381 308 L171 308 C184 382 225 422 280 422 L280 422 Z " />
<glyph glyph-name="ebreve" unicode="&#x115;" horiz-adv-x="540" d="M276 566 C347 566 428 598 453 681 C437 702 414 718 382 729 C358 694 323 673 276 673 C228 673 195 699 169 730 C140 719 116 701 100 677 C135 598 201 566 276 566 L276 566 Z M512 271 C512 419 443 517 278 517 C133 517 31 412 31 253 C31 87 140 -10 295 -11 C367 -11 425 -1 489 38 C490 79 489 103 486 145 C477 147 451 147 435 145 C391 98 350 91 310 91 C230 92 177 141 167 226 L510 226 C512 242 512 257 512 271 L512 271 Z M280 422 C345 422 376 382 381 308 L171 308 C184 382 225 422 280 422 L280 422 Z " />
<glyph glyph-name="Edotaccent" unicode="&#x116;" horiz-adv-x="646" d="M412 790 C413 827 414 871 412 920 C365 923 317 924 273 921 C271 875 271 831 273 791 C312 789 359 788 412 790 L412 790 Z M604 220 C566 223 528 223 490 220 L483 111 L252 111 L252 304 L464 305 C468 341 468 378 464 414 L252 414 L252 591 L476 591 L483 494 C521 489 559 489 596 494 C605 563 606 632 600 701 L32 701 C29 670 29 639 32 608 L106 603 L106 108 L32 98 C28 65 28 33 32 0 L607 0 C614 76 612 146 604 220 L604 220 Z " />
<glyph glyph-name="edotaccent" unicode="&#x117;" horiz-adv-x="540" d="M344 595 C345 632 346 676 344 725 C297 728 249 729 205 726 C203 680 203 636 205 596 C244 594 291 593 344 595 L344 595 Z M512 271 C512 419 443 517 278 517 C133 517 31 412 31 253 C31 87 140 -10 295 -11 C367 -11 425 -1 489 38 C490 79 489 103 486 145 C477 147 451 147 435 145 C391 98 350 91 310 91 C230 92 177 141 167 226 L510 226 C512 242 512 257 512 271 L512 271 Z M280 422 C345 422 376 382 381 308 L171 308 C184 382 225 422 280 422 L280 422 Z " />
<glyph glyph-name="Eogonek" unicode="&#x118;" horiz-adv-x="646" d="M604 220 C566 223 528 223 490 220 L483 111 L252 111 L252 304 L464 305 C468 341 468 378 464 414 L252 414 L252 591 L476 591 L483 494 C521 489 559 489 596 494 C605 563 606 632 600 701 L32 701 C29 670 29 639 32 608 L106 603 L106 108 L32 98 C28 65 28 33 32 0 L505 0 C422 -24 379 -74 379 -121 C379 -183 430 -212 503 -212 C529 -212 562 -209 593 -201 C594 -178 590 -156 582 -133 C563 -139 553 -141 538 -141 C505 -141 486 -127 486 -101 C486 -70 511 -34 604 0 L607 0 C614 76 612 146 604 220 L604 220 Z " />
<glyph glyph-name="eogonek" unicode="&#x119;" horiz-adv-x="540" d="M512 271 C512 419 443 517 278 517 C133 517 31 412 31 253 C31 98 126 3 265 -10 C204 -36 172 -79 172 -119 C172 -181 223 -210 296 -210 C322 -210 355 -207 386 -199 C387 -176 383 -154 375 -131 C356 -137 346 -139 331 -139 C298 -139 279 -125 279 -99 C279 -70 301 -36 381 -4 C418 3 452 16 489 38 C490 79 489 103 486 145 C477 147 451 147 435 145 C391 98 350 91 310 91 C230 92 177 141 167 226 L510 226 C512 242 512 257 512 271 L512 271 Z M280 422 C345 422 376 382 381 308 L171 308 C184 382 225 422 280 422 L280 422 Z " />
<glyph glyph-name="Ecaron" unicode="&#x11a;" horiz-adv-x="646" d="M412 769 L520 911 C487 922 452 932 419 938 L348 827 L277 938 C240 932 203 923 167 913 L281 764 C325 763 368 764 412 769 L412 769 Z M604 220 C566 223 528 223 490 220 L483 111 L252 111 L252 304 L464 305 C468 341 468 378 464 414 L252 414 L252 591 L476 591 L483 494 C521 489 559 489 596 494 C605 563 606 632 600 701 L32 701 C29 670 29 639 32 608 L106 603 L106 108 L32 98 C28 65 28 33 32 0 L607 0 C614 76 612 146 604 220 L604 220 Z " />
<glyph glyph-name="ecaron" unicode="&#x11b;" horiz-adv-x="540" d="M344 574 L452 716 C419 727 384 737 351 743 L280 632 L209 743 C172 737 135 728 99 718 L213 569 C257 568 300 569 344 574 L344 574 Z M512 271 C512 419 443 517 278 517 C133 517 31 412 31 253 C31 87 140 -10 295 -11 C367 -11 425 -1 489 38 C490 79 489 103 486 145 C477 147 451 147 435 145 C391 98 350 91 310 91 C230 92 177 141 167 226 L510 226 C512 242 512 257 512 271 L512 271 Z M280 422 C345 422 376 382 381 308 L171 308 C184 382 225 422 280 422 L280 422 Z " />
<glyph glyph-name="Gcircumflex" unicode="&#x11c;" horiz-adv-x="725" d="M388 877 L460 762 C497 766 534 775 570 787 L458 937 C409 939 365 938 324 932 L217 790 C249 778 281 768 315 762 L388 877 Z M707 355 L601 355 C527 355 401 349 372 347 C369 315 369 284 372 252 L521 246 L522 136 C483 112 437 102 394 102 C281 102 189 193 189 351 C189 502 270 602 398 602 C440 602 475 594 509 578 L534 442 C571 440 609 443 647 450 C649 520 646 583 638 657 C564 696 486 712 390 712 C173 712 31 581 31 351 C31 124 168 -11 387 -11 C449 -11 510 4 563 34 L592 0 C617 -3 641 -3 665 0 L666 252 L707 259 C710 291 710 322 707 355 L707 355 Z " />
<glyph glyph-name="gcircumflex" unicode="&#x11d;" horiz-adv-x="561" d="M267 682 L339 567 C376 571 413 580 449 592 L337 742 C288 744 244 743 203 737 L96 595 C128 583 160 573 194 567 L267 682 Z M374 85 L248 92 C183 95 157 105 157 132 C157 154 173 171 209 179 C229 175 251 173 275 173 C426 173 498 251 498 344 C498 395 478 437 441 468 L464 487 L546 497 C550 522 550 545 546 570 C522 579 500 586 457 585 C398 584 368 549 362 506 C336 513 307 517 275 517 C126 517 54 438 54 344 C54 283 84 233 138 204 C86 185 39 143 39 86 C39 48 63 17 99 -2 C50 -25 18 -66 18 -111 C18 -166 54 -232 235 -232 C411 -232 548 -176 548 -42 C548 38 495 78 374 85 L374 85 Z M275 428 C330 428 364 395 363 344 C363 295 331 262 275 262 C223 262 189 294 189 344 C189 394 221 428 275 428 L275 428 Z M260 -142 C180 -142 145 -116 145 -83 C145 -52 166 -29 183 -20 L342 -22 C391 -22 419 -34 419 -63 C419 -106 368 -142 260 -142 L260 -142 Z " />
<glyph glyph-name="Gbreve" unicode="&#x11e;" horiz-adv-x="725" d="M393 761 C464 761 545 793 570 876 C554 897 531 913 499 924 C475 889 440 868 393 868 C345 868 312 894 286 925 C257 914 233 896 217 872 C252 793 318 761 393 761 L393 761 Z M707 355 L601 355 C527 355 401 349 372 347 C369 315 369 284 372 252 L521 246 L522 136 C483 112 437 102 394 102 C281 102 189 193 189 351 C189 502 270 602 398 602 C440 602 475 594 509 578 L534 442 C571 440 609 443 647 450 C649 520 646 583 638 657 C564 696 486 712 390 712 C173 712 31 581 31 351 C31 124 168 -11 387 -11 C449 -11 510 4 563 34 L592 0 C617 -3 641 -3 665 0 L666 252 L707 259 C710 291 710 322 707 355 L707 355 Z " />
<glyph glyph-name="gbreve" unicode="&#x11f;" horiz-adv-x="561" d="M272 566 C343 566 424 598 449 681 C433 702 410 718 378 729 C354 694 319 673 272 673 C224 673 191 699 165 730 C136 719 112 701 96 677 C131 598 197 566 272 566 L272 566 Z M374 85 L248 92 C183 95 157 105 157 132 C157 154 173 171 209 179 C229 175 251 173 275 173 C426 173 498 251 498 344 C498 395 478 437 441 468 L464 487 L546 497 C550 522 550 545 546 570 C522 579 500 586 457 585 C398 584 368 549 362 506 C336 513 307 517 275 517 C126 517 54 438 54 344 C54 283 84 233 138 204 C86 185 39 143 39 86 C39 48 63 17 99 -2 C50 -25 18 -66 18 -111 C18 -166 54 -232 235 -232 C411 -232 548 -176 548 -42 C548 38 495 78 374 85 L374 85 Z M275 428 C330 428 364 395 363 344 C363 295 331 262 275 262 C223 262 189 294 189 344 C189 394 221 428 275 428 L275 428 Z M260 -142 C180 -142 145 -116 145 -83 C145 -52 166 -29 183 -20 L342 -22 C391 -22 419 -34 419 -63 C419 -106 368 -142 260 -142 L260 -142 Z " />
<glyph glyph-name="Gdotaccent" unicode="&#x120;" horiz-adv-x="725" d="M461 790 C462 827 463 871 461 920 C414 923 366 924 322 921 C320 875 320 831 322 791 C361 789 408 788 461 790 L461 790 Z M707 355 L601 355 C527 355 401 349 372 347 C369 315 369 284 372 252 L521 246 L522 136 C483 112 437 102 394 102 C281 102 189 193 189 351 C189 502 270 602 398 602 C440 602 475 594 509 578 L534 442 C571 440 609 443 647 450 C649 520 646 583 638 657 C564 696 486 712 390 712 C173 712 31 581 31 351 C31 124 168 -11 387 -11 C449 -11 510 4 563 34 L592 0 C617 -3 641 -3 665 0 L666 252 L707 259 C710 291 710 322 707 355 L707 355 Z " />
<glyph glyph-name="gdotaccent" unicode="&#x121;" horiz-adv-x="561" d="M340 595 C341 632 342 676 340 725 C293 728 245 729 201 726 C199 680 199 636 201 596 C240 594 287 593 340 595 L340 595 Z M374 85 L248 92 C183 95 157 105 157 132 C157 154 173 171 209 179 C229 175 251 173 275 173 C426 173 498 251 498 344 C498 395 478 437 441 468 L464 487 L546 497 C550 522 550 545 546 570 C522 579 500 586 457 585 C398 584 368 549 362 506 C336 513 307 517 275 517 C126 517 54 438 54 344 C54 283 84 233 138 204 C86 185 39 143 39 86 C39 48 63 17 99 -2 C50 -25 18 -66 18 -111 C18 -166 54 -232 235 -232 C411 -232 548 -176 548 -42 C548 38 495 78 374 85 L374 85 Z M275 428 C330 428 364 395 363 344 C363 295 331 262 275 262 C223 262 189 294 189 344 C189 394 221 428 275 428 L275 428 Z M260 -142 C180 -142 145 -116 145 -83 C145 -52 166 -29 183 -20 L342 -22 C391 -22 419 -34 419 -63 C419 -106 368 -142 260 -142 L260 -142 Z " />
<glyph glyph-name="Gcommaaccent" unicode="&#x122;" horiz-adv-x="725" d="M707 355 L601 355 C527 355 401 349 372 347 C369 315 369 284 372 252 L521 246 L522 136 C483 112 437 102 394 102 C281 102 189 193 189 351 C189 502 270 602 398 602 C440 602 475 594 509 578 L534 442 C571 440 609 443 647 450 C649 520 646 583 638 657 C564 696 486 712 390 712 C173 712 31 581 31 351 C31 124 168 -11 387 -11 C449 -11 510 4 563 34 L592 0 C617 -3 641 -3 665 0 L666 252 L707 259 C710 291 710 322 707 355 L707 355 Z M346 -65 C345 -100 343 -137 345 -180 C359 -181 376 -186 376 -207 C376 -223 366 -246 345 -277 C360 -289 375 -299 390 -308 C448 -248 465 -184 465 -130 C465 -107 462 -85 457 -67 C424 -63 380 -63 346 -65 L346 -65 Z " />
<glyph glyph-name="gcommaaccent" unicode="&#x123;" horiz-adv-x="561" d="M326 588 C327 623 329 660 327 703 C313 704 296 709 296 730 C296 746 306 769 327 800 C312 812 297 822 282 831 C224 771 207 707 207 653 C207 630 210 608 215 590 C248 586 292 586 326 588 L326 588 Z M374 85 L248 92 C183 95 157 105 157 132 C157 154 173 171 209 179 C229 175 251 173 275 173 C426 173 498 251 498 344 C498 395 478 437 441 468 L464 487 L546 497 C550 522 550 545 546 570 C522 579 500 586 457 585 C398 584 368 549 362 506 C336 513 307 517 275 517 C126 517 54 438 54 344 C54 283 84 233 138 204 C86 185 39 143 39 86 C39 48 63 17 99 -2 C50 -25 18 -66 18 -111 C18 -166 54 -232 235 -232 C411 -232 548 -176 548 -42 C548 38 495 78 374 85 L374 85 Z M275 428 C330 428 364 395 363 344 C363 295 331 262 275 262 C223 262 189 294 189 344 C189 394 221 428 275 428 L275 428 Z M260 -142 C180 -142 145 -116 145 -83 C145 -52 166 -29 183 -20 L342 -22 C391 -22 419 -34 419 -63 C419 -106 368 -142 260 -142 L260 -142 Z " />
<glyph glyph-name="Hcircumflex" unicode="&#x124;" horiz-adv-x="782" d="M386 877 L458 762 C495 766 532 775 568 787 L456 937 C407 939 363 938 322 932 L215 790 C247 778 279 768 313 762 L386 877 Z M675 98 L675 593 L750 603 C754 636 754 668 750 701 L454 701 C451 670 451 639 454 608 L529 603 L529 413 L250 413 L250 593 L327 603 C331 636 331 668 327 701 L31 701 C28 670 28 639 31 608 L105 603 L105 110 L31 98 C28 65 28 33 31 0 L327 0 C331 30 331 60 327 90 L250 98 L250 296 L529 296 L529 108 L454 98 C451 65 451 33 454 0 L750 0 C754 30 754 60 750 90 L675 98 Z " />
<glyph glyph-name="hcircumflex" unicode="&#x125;" horiz-adv-x="634" d="M330 900 L402 785 C439 789 476 798 512 810 L400 960 C351 962 307 961 266 955 L159 813 C191 801 223 791 257 785 L330 900 Z M616 84 L550 92 L550 337 C550 456 516 517 403 517 C328 517 270 487 233 441 L233 733 L34 724 C30 693 30 662 34 631 L100 629 L100 97 L34 92 C29 62 29 31 34 1 L299 0 C303 28 303 56 299 84 L233 92 L233 297 C233 362 298 411 353 411 C402 411 417 386 417 335 L417 0 L616 0 C621 28 621 56 616 84 L616 84 Z " />
<glyph glyph-name="Hbar" unicode="&#x126;" horiz-adv-x="782" d="M675 98 L675 477 L749 477 C752 499 752 520 749 543 L675 543 L675 593 L750 603 C754 636 754 668 750 701 L454 701 C451 670 451 639 454 608 L529 603 L529 543 L250 543 L250 593 L327 603 C331 636 331 668 327 701 L31 701 C28 670 28 639 31 608 L105 603 L105 543 L31 543 C29 520 29 499 31 477 L105 477 L105 110 L31 98 C28 65 28 33 31 0 L327 0 C331 30 331 60 327 90 L250 98 L250 296 L529 296 L529 108 L454 98 C451 65 451 33 454 0 L750 0 C754 30 754 60 750 90 L675 98 Z M250 413 L250 477 L529 477 L529 413 L250 413 Z " />
<glyph glyph-name="hbar" unicode="&#x127;" horiz-adv-x="634" d="M616 84 L550 92 L550 337 C550 456 516 517 403 517 C328 517 270 487 233 441 L233 546 L394 546 C400 569 400 591 394 615 L233 615 L233 733 L34 724 C30 693 30 662 34 631 L100 629 L100 615 L41 615 C37 591 37 569 41 546 L100 546 L100 97 L34 92 C29 62 29 31 34 1 L299 0 C303 28 303 56 299 84 L233 92 L233 297 C233 362 298 411 353 411 C402 411 417 386 417 335 L417 0 L616 0 C621 28 621 56 616 84 L616 84 Z " />
<glyph glyph-name="Itilde" unicode="&#x128;" horiz-adv-x="370" d="M315 928 C303 895 284 875 261 875 C244 875 220 885 197 895 C166 907 136 917 108 917 C42 917 -2 862 -3 772 C19 766 42 764 64 765 C76 796 94 817 118 817 C132 817 154 810 185 798 C213 788 243 775 272 775 C344 775 381 841 382 920 C360 925 338 929 315 928 L315 928 Z M38 0 L332 0 C336 30 336 60 332 90 L257 98 L257 594 L332 603 C336 636 336 669 332 701 L38 701 C34 670 34 639 38 608 L112 603 L112 108 L38 98 C34 65 34 33 38 0 L38 0 Z " />
<glyph glyph-name="itilde" unicode="&#x129;" horiz-adv-x="324" d="M299 733 C287 700 268 680 245 680 C228 680 204 690 181 700 C150 712 120 722 92 722 C26 722 -18 667 -19 577 C3 571 26 569 48 570 C60 601 78 622 102 622 C116 622 138 615 169 603 C197 593 227 580 256 580 C328 580 365 646 366 725 C344 730 322 734 299 733 L299 733 Z M236 92 L236 515 L38 506 C33 475 33 444 38 413 L104 411 L104 97 L38 92 C35 61 35 31 38 0 L304 0 C308 28 308 56 304 84 L236 92 Z " />
<glyph glyph-name="Imacron" unicode="&#x12a;" horiz-adv-x="370" d="M342 889 L30 889 C25 855 25 822 30 789 L342 789 C346 822 346 855 342 889 L342 889 Z M38 0 L332 0 C336 30 336 60 332 90 L257 98 L257 594 L332 603 C336 636 336 669 332 701 L38 701 C34 670 34 639 38 608 L112 603 L112 108 L38 98 C34 65 34 33 38 0 L38 0 Z " />
<glyph glyph-name="imacron" unicode="&#x12b;" horiz-adv-x="324" d="M326 694 L14 694 C9 660 9 627 14 594 L326 594 C330 627 330 660 326 694 L326 694 Z M236 92 L236 515 L38 506 C33 475 33 444 38 413 L104 411 L104 97 L38 92 C35 61 35 31 38 0 L304 0 C308 28 308 56 304 84 L236 92 Z " />
<glyph glyph-name="Ibreve" unicode="&#x12c;" horiz-adv-x="370" d="M186 761 C257 761 338 793 363 876 C347 897 324 913 292 924 C268 889 233 868 186 868 C138 868 105 894 79 925 C50 914 26 896 10 872 C45 793 111 761 186 761 L186 761 Z M38 0 L332 0 C336 30 336 60 332 90 L257 98 L257 594 L332 603 C336 636 336 669 332 701 L38 701 C34 670 34 639 38 608 L112 603 L112 108 L38 98 C34 65 34 33 38 0 L38 0 Z " />
<glyph glyph-name="ibreve" unicode="&#x12d;" horiz-adv-x="324" d="M276 729 C252 694 217 673 170 673 C122 673 89 699 63 730 C34 719 10 701 -6 677 C29 598 95 566 170 566 C241 566 322 598 347 681 C331 702 308 718 276 729 L276 729 Z M236 92 L236 515 L38 506 C33 475 33 444 38 413 L104 411 L104 97 L38 92 C35 61 35 31 38 0 L304 0 C308 28 308 56 304 84 L236 92 Z " />
<glyph glyph-name="Iogonek" unicode="&#x12e;" horiz-adv-x="370" d="M257 98 L257 594 L332 603 C336 636 336 669 332 701 L38 701 C34 670 34 639 38 608 L112 603 L112 108 L38 98 C34 65 34 33 38 0 L194 0 C111 -24 68 -74 68 -121 C68 -183 119 -212 192 -212 C218 -212 251 -209 282 -201 C283 -178 279 -156 271 -133 C252 -139 242 -141 227 -141 C194 -141 175 -127 175 -101 C175 -70 200 -34 293 0 L332 0 C336 30 336 60 332 90 L257 98 Z " />
<glyph glyph-name="iogonek" unicode="&#x12f;" horiz-adv-x="324" d="M238 595 C239 632 240 676 238 725 C191 728 143 729 99 726 C97 680 97 636 99 596 C138 594 185 593 238 595 L238 595 Z M304 84 L236 92 L236 515 L38 506 C33 475 33 444 38 413 L104 411 L104 97 L38 92 C35 61 35 31 38 0 L181 0 C98 -24 55 -74 55 -121 C55 -183 106 -212 179 -212 C205 -212 238 -209 269 -201 C270 -178 266 -156 258 -133 C239 -139 229 -141 214 -141 C181 -141 162 -127 162 -101 C162 -70 187 -34 280 0 L304 0 C308 28 308 56 304 84 L304 84 Z " />
<glyph glyph-name="Idotaccent" unicode="&#x130;" horiz-adv-x="370" d="M254 920 C207 923 159 924 115 921 C113 875 113 831 115 791 C154 789 201 788 254 790 C255 827 256 871 254 920 L254 920 Z M38 0 L332 0 C336 30 336 60 332 90 L257 98 L257 594 L332 603 C336 636 336 669 332 701 L38 701 C34 670 34 639 38 608 L112 603 L112 108 L38 98 C34 65 34 33 38 0 L38 0 Z " />
<glyph glyph-name="dotlessi" unicode="&#x131;" horiz-adv-x="324" d="M304 84 L236 92 L236 515 L38 506 C33 475 33 444 38 413 L104 411 L104 97 L38 92 C35 61 35 31 38 0 L304 0 C308 28 308 56 304 84 L304 84 Z " />
<glyph glyph-name="IJ" unicode="&#x132;" horiz-adv-x="881" d="M332 603 C336 636 336 669 332 701 L38 701 C34 670 34 639 38 608 L112 603 L112 108 L38 98 C34 65 34 33 38 0 L332 0 C336 30 336 60 332 90 L257 98 L257 594 L332 603 Z M868 701 L554 701 C550 670 550 639 554 608 L647 603 L647 214 C647 135 614 93 539 93 C528 93 518 94 508 96 L482 176 C455 179 428 178 401 175 C394 118 399 66 403 25 C438 3 496 -11 570 -11 C682 -11 793 42 793 215 L793 593 L868 603 C871 636 871 668 868 701 L868 701 Z " />
<glyph glyph-name="ij" unicode="&#x133;" horiz-adv-x="634" d="M238 595 C239 632 240 676 238 725 C191 728 143 729 99 726 C97 680 97 636 99 596 C138 594 185 593 238 595 L238 595 Z M576 725 C529 728 481 729 437 726 C435 680 435 636 437 596 C476 594 523 593 576 595 C577 632 578 676 576 725 L576 725 Z M304 84 L236 92 L236 515 L38 506 C33 475 33 444 38 413 L104 411 L104 97 L38 92 C35 61 35 31 38 0 L304 0 C308 28 308 56 304 84 L304 84 Z M345 413 L441 410 L441 6 C441 -98 407 -134 374 -134 C365 -134 356 -133 349 -132 L329 -76 C308 -72 287 -72 265 -76 C260 -127 263 -172 268 -208 C299 -219 351 -227 388 -227 C486 -227 574 -171 574 6 L574 515 L345 506 C341 475 341 444 345 413 L345 413 Z " />
<glyph glyph-name="Jcircumflex" unicode="&#x134;" horiz-adv-x="511" d="M339 877 L411 762 C448 766 485 775 521 787 L409 937 C360 939 316 938 275 932 L168 790 C200 778 232 768 266 762 L339 877 Z M184 701 C180 670 180 639 184 608 L277 603 L277 214 C277 135 244 93 169 93 C158 93 148 94 138 96 L112 176 C85 179 58 178 31 175 C24 118 29 66 33 25 C68 3 126 -11 200 -11 C312 -11 423 42 423 215 L423 593 L498 603 C501 636 501 668 498 701 L184 701 Z " />
<glyph glyph-name="jcircumflex" unicode="&#x135;" horiz-adv-x="310" d="M249 742 C200 744 156 743 115 737 L8 595 C40 583 72 573 106 567 L179 682 L251 567 C288 571 325 580 361 592 L249 742 Z M21 413 L117 410 L117 6 C117 -98 83 -134 50 -134 C41 -134 32 -133 25 -132 L5 -76 C-16 -72 -37 -72 -59 -76 C-64 -127 -61 -172 -56 -208 C-25 -219 27 -227 64 -227 C162 -227 250 -171 250 6 L250 515 L21 506 C17 475 17 444 21 413 L21 413 Z " />
<glyph glyph-name="Kcommaaccent" unicode="&#x136;" horiz-adv-x="725" d="M713 92 L626 104 L397 357 L606 594 L695 606 C699 638 699 669 695 701 L415 701 C411 671 411 640 415 609 L458 606 L250 365 L250 594 L327 603 C332 636 332 668 327 701 L32 701 C28 670 28 639 32 608 L105 603 L105 110 L32 98 C27 65 27 33 32 0 L327 0 C331 30 331 60 327 90 L250 98 L250 320 L515 0 L713 -1 C717 30 717 61 713 92 L713 92 Z M334 -65 C333 -100 331 -137 333 -180 C347 -181 364 -186 364 -207 C364 -223 354 -246 333 -277 C348 -289 363 -299 378 -308 C436 -248 453 -184 453 -130 C453 -107 450 -85 445 -67 C412 -63 368 -63 334 -65 L334 -65 Z " />
<glyph glyph-name="kcommaaccent" unicode="&#x137;" horiz-adv-x="597" d="M585 89 L498 101 L356 265 L476 395 L570 410 C574 442 574 475 570 506 L310 506 C306 476 306 446 310 415 L365 411 L229 254 L229 733 L29 724 C25 693 25 662 29 631 L95 629 L95 96 L29 92 C25 61 25 31 29 0 L273 0 C277 28 277 56 273 83 L229 92 L229 233 L406 0 L585 0 C588 30 588 59 585 89 L585 89 Z M257 -65 C256 -100 254 -137 256 -180 C270 -181 287 -186 287 -207 C287 -223 277 -246 256 -277 C271 -289 286 -299 301 -308 C359 -248 376 -184 376 -130 C376 -107 373 -85 368 -67 C335 -63 291 -63 257 -65 L257 -65 Z " />
<glyph glyph-name="kgreenlandic" unicode="&#x138;" horiz-adv-x="605" d="M591 88 L505 100 L354 257 L483 395 L577 411 C581 443 581 474 577 506 L313 506 C309 476 309 446 313 415 L361 411 L235 256 L235 515 L35 506 C31 476 31 444 35 414 L102 412 L102 97 L35 92 C30 61 30 31 35 0 L282 0 C286 28 286 58 282 86 L235 92 L235 233 L412 0 L591 -1 C594 29 594 59 591 88 L591 88 Z " />
<glyph glyph-name="Lacute" unicode="&#x139;" horiz-adv-x="620" d="M341 830 C328 874 311 916 291 953 L62 836 C70 810 81 787 94 766 L341 830 Z M589 255 C554 259 519 259 484 255 L476 118 L255 118 L255 598 L358 604 C361 636 361 669 358 701 L32 701 C28 670 28 639 32 608 L107 603 L107 108 L32 98 C28 65 28 33 32 0 L593 0 C599 76 597 181 589 255 L589 255 Z " />
<glyph glyph-name="lacute" unicode="&#x13a;" horiz-adv-x="320" d="M319 853 C306 897 289 939 269 976 L40 859 C48 833 59 810 72 789 L319 853 Z M236 92 L236 733 L37 724 C34 693 34 662 37 631 L103 629 L103 97 L37 92 C32 61 32 31 37 0 L304 0 C308 28 308 56 304 84 L236 92 Z " />
<glyph glyph-name="Lcommaaccent" unicode="&#x13b;" horiz-adv-x="620" d="M589 255 C554 259 519 259 484 255 L476 118 L255 118 L255 598 L358 604 C361 636 361 669 358 701 L32 701 C28 670 28 639 32 608 L107 603 L107 108 L32 98 C28 65 28 33 32 0 L593 0 C599 76 597 181 589 255 L589 255 Z M266 -65 C265 -100 263 -137 265 -180 C279 -181 296 -186 296 -207 C296 -223 286 -246 265 -277 C280 -289 295 -299 310 -308 C368 -248 385 -184 385 -130 C385 -107 382 -85 377 -67 C344 -63 300 -63 266 -65 L266 -65 Z " />
<glyph glyph-name="lcommaaccent" unicode="&#x13c;" horiz-adv-x="320" d="M304 84 L236 92 L236 733 L37 724 C34 693 34 662 37 631 L103 629 L103 97 L37 92 C32 61 32 31 37 0 L304 0 C308 28 308 56 304 84 L304 84 Z M119 -65 C118 -100 116 -137 118 -180 C132 -181 149 -186 149 -207 C149 -223 139 -246 118 -277 C133 -289 148 -299 163 -308 C221 -248 238 -184 238 -130 C238 -107 235 -85 230 -67 C197 -63 153 -63 119 -65 L119 -65 Z " />
<glyph glyph-name="Lcaron" unicode="&#x13d;" horiz-adv-x="620" d="M589 255 C554 259 519 259 484 255 L476 118 L255 118 L255 598 L358 604 C361 636 361 669 358 701 L32 701 C28 670 28 639 32 608 L107 603 L107 108 L32 98 C28 65 28 33 32 0 L593 0 C599 76 597 181 589 255 L589 255 Z M470 549 C470 533 460 510 439 478 C453 466 469 455 485 446 C544 507 562 573 562 628 C562 651 558 674 553 693 C519 696 474 696 440 695 C438 659 436 621 438 577 C453 576 470 571 470 549 L470 549 Z " />
<glyph glyph-name="lcaron" unicode="&#x13e;" horiz-adv-x="434" d="M431 758 C393 762 350 762 310 760 C308 719 306 676 308 663 C334 659 345 649 345 631 C345 614 337 592 321 568 C338 554 355 543 374 534 C413 576 441 626 441 690 C441 711 438 734 431 758 L431 758 Z M236 92 L236 733 L37 724 C34 693 34 662 37 631 L103 629 L103 97 L37 92 C32 61 32 31 37 0 L304 0 C308 28 308 56 304 84 L236 92 Z " />
<glyph glyph-name="Ldot" unicode="&#x13f;" horiz-adv-x="620" d="M589 255 C554 259 519 259 484 255 L476 118 L255 118 L255 598 L358 604 C361 636 361 669 358 701 L32 701 C28 670 28 639 32 608 L107 603 L107 108 L32 98 C28 65 28 33 32 0 L593 0 C599 76 597 181 589 255 L589 255 Z M561 320 C563 357 563 408 561 455 C521 460 469 458 430 456 C427 417 427 374 429 320 C472 319 518 318 561 320 L561 320 Z " />
<glyph glyph-name="ldot" unicode="&#x140;" horiz-adv-x="422" d="M236 92 L236 733 L37 724 C34 693 34 662 37 631 L103 629 L103 97 L37 92 C32 61 32 31 37 0 L304 0 C308 28 308 56 304 84 L236 92 Z M439 384 C399 389 347 387 308 385 C305 346 305 303 307 249 C350 248 396 247 439 249 C441 286 441 337 439 384 L439 384 Z " />
<glyph glyph-name="Lslash" unicode="&#x141;" horiz-adv-x="620" d="M589 255 C554 259 519 259 484 255 L476 118 L255 118 L255 307 L432 360 C436 393 436 426 432 458 L255 405 L255 598 L358 604 C361 636 361 669 358 701 L32 701 C28 670 28 639 32 608 L107 603 L107 361 L22 336 C18 303 18 270 22 238 L107 263 L107 108 L32 98 C28 65 28 33 32 0 L593 0 C599 76 597 181 589 255 L589 255 Z " />
<glyph glyph-name="lslash" unicode="&#x142;" horiz-adv-x="320" d="M315 347 C317 380 317 413 315 445 L236 411 L236 733 L37 724 C34 693 34 662 37 631 L103 629 L103 355 L28 323 C25 290 25 257 28 225 L103 257 L103 97 L37 92 C32 61 32 31 37 0 L304 0 C308 28 308 56 304 84 L236 92 L236 313 L315 347 Z " />
<glyph glyph-name="Nacute" unicode="&#x143;" horiz-adv-x="776" d="M557 830 C544 874 527 916 507 953 L278 836 C286 810 297 787 310 766 L557 830 Z M763 702 L472 701 C467 671 468 636 472 606 L561 602 L561 205 L275 701 L32 701 C28 670 28 638 32 607 L105 602 L105 109 L32 98 C28 65 28 33 32 0 L319 0 C323 30 323 60 320 90 L232 99 L232 502 L527 -7 C582 -8 636 -6 689 0 L689 595 L764 607 C768 640 767 669 763 702 L763 702 Z " />
<glyph glyph-name="nacute" unicode="&#x144;" horiz-adv-x="635" d="M484 635 C471 679 454 721 434 758 L205 641 C213 615 224 592 237 571 L484 635 Z M617 84 L551 92 L551 337 C551 456 517 517 403 517 C325 517 266 484 230 435 L221 516 L36 506 C32 475 32 445 36 414 L101 412 L101 97 L36 91 C30 61 30 30 36 0 L301 0 C305 28 305 56 301 84 L234 92 L234 298 C234 363 299 412 353 412 C403 412 419 387 419 331 L419 0 L617 0 C621 28 621 56 617 84 L617 84 Z " />
<glyph glyph-name="Ncommaaccent" unicode="&#x145;" horiz-adv-x="776" d="M763 702 L472 701 C467 671 468 636 472 606 L561 602 L561 205 L275 701 L32 701 C28 670 28 638 32 607 L105 602 L105 109 L32 98 C28 65 28 33 32 0 L319 0 C323 30 323 60 320 90 L232 99 L232 502 L527 -7 C582 -8 636 -6 689 0 L689 595 L764 607 C768 640 767 669 763 702 L763 702 Z M357 -65 C356 -100 354 -137 356 -180 C370 -181 387 -186 387 -207 C387 -223 377 -246 356 -277 C371 -289 386 -299 401 -308 C459 -248 476 -184 476 -130 C476 -107 473 -85 468 -67 C435 -63 391 -63 357 -65 L357 -65 Z " />
<glyph glyph-name="ncommaaccent" unicode="&#x146;" horiz-adv-x="635" d="M617 84 L551 92 L551 337 C551 456 517 517 403 517 C325 517 266 484 230 435 L221 516 L36 506 C32 475 32 445 36 414 L101 412 L101 97 L36 91 C30 61 30 30 36 0 L301 0 C305 28 305 56 301 84 L234 92 L234 298 C234 363 299 412 353 412 C403 412 419 387 419 331 L419 0 L617 0 C621 28 621 56 617 84 L617 84 Z M286 -65 C285 -100 283 -137 285 -180 C299 -181 316 -186 316 -207 C316 -223 306 -246 285 -277 C300 -289 315 -299 330 -308 C388 -248 405 -184 405 -130 C405 -107 402 -85 397 -67 C364 -63 320 -63 286 -65 L286 -65 Z " />
<glyph glyph-name="Ncaron" unicode="&#x147;" horiz-adv-x="776" d="M476 769 L584 911 C551 922 516 932 483 938 L412 827 L341 938 C304 932 267 923 231 913 L345 764 C389 763 432 764 476 769 L476 769 Z M763 702 L472 701 C467 671 468 636 472 606 L561 602 L561 205 L275 701 L32 701 C28 670 28 638 32 607 L105 602 L105 109 L32 98 C28 65 28 33 32 0 L319 0 C323 30 323 60 320 90 L232 99 L232 502 L527 -7 C582 -8 636 -6 689 0 L689 595 L764 607 C768 640 767 669 763 702 L763 702 Z " />
<glyph glyph-name="ncaron" unicode="&#x148;" horiz-adv-x="635" d="M403 574 L511 716 C478 727 443 737 410 743 L339 632 L268 743 C231 737 194 728 158 718 L272 569 C316 568 359 569 403 574 L403 574 Z M617 84 L551 92 L551 337 C551 456 517 517 403 517 C325 517 266 484 230 435 L221 516 L36 506 C32 475 32 445 36 414 L101 412 L101 97 L36 91 C30 61 30 30 36 0 L301 0 C305 28 305 56 301 84 L234 92 L234 298 C234 363 299 412 353 412 C403 412 419 387 419 331 L419 0 L617 0 C621 28 621 56 617 84 L617 84 Z " />
<glyph glyph-name="napostrophe" unicode="&#x149;" horiz-adv-x="766" d="M3 695 C1 659 -1 621 1 577 C16 576 33 571 33 549 C33 533 23 510 2 478 C16 466 32 455 48 446 C107 507 125 573 125 628 C125 651 121 674 116 693 C82 696 37 696 3 695 L3 695 Z M747 84 L681 92 L681 337 C681 456 647 517 533 517 C455 517 396 484 360 435 L351 516 L166 506 C162 475 162 445 166 414 L231 412 L231 97 L166 91 C160 61 160 30 166 0 L431 0 C435 28 435 56 431 84 L364 92 L364 298 C364 363 429 412 483 412 C533 412 549 387 549 331 L549 0 L747 0 C751 28 751 56 747 84 L747 84 Z " />
<glyph glyph-name="Eng" unicode="&#x14a;" horiz-adv-x="776" d="M762 702 L473 701 C468 671 469 636 472 606 L562 602 L562 223 L276 701 L33 701 C28 670 28 638 33 607 L106 602 L106 109 L33 98 C29 65 28 33 32 0 L319 -1 C323 29 324 59 321 89 L232 98 L233 505 L561 -41 C553 -104 519 -127 464 -127 C453 -127 444 -126 435 -125 L412 -54 L331 -55 C324 -112 329 -160 333 -201 C366 -215 414 -227 483 -227 C584 -227 690 -186 690 -13 L690 595 L763 607 C767 640 766 669 762 702 L762 702 Z " />
<glyph glyph-name="eng" unicode="&#x14b;" horiz-adv-x="611" d="M403 516 C325 516 266 481 230 431 L221 516 L36 506 C32 475 32 445 36 414 L101 412 L101 97 L36 92 C30 62 30 31 36 1 L301 0 C305 28 305 56 301 84 L234 92 L234 298 C234 363 299 412 353 412 C403 412 419 388 419 334 L419 6 C419 -96 384 -131 351 -131 C341 -131 333 -130 326 -129 L307 -76 C285 -72 264 -72 243 -76 C237 -127 241 -172 245 -208 C277 -219 328 -227 365 -227 C463 -227 551 -171 551 6 L551 336 C551 456 517 516 403 516 L403 516 Z " />
<glyph glyph-name="Omacron" unicode="&#x14c;" horiz-adv-x="765" d="M538 889 L226 889 C221 855 221 822 226 789 L538 789 C542 822 542 855 538 889 L538 889 Z M382 712 C168 712 32 577 32 350 C32 123 168 -11 382 -11 C596 -11 733 123 733 350 C733 577 596 712 382 712 L382 712 Z M382 599 C496 599 574 504 574 350 C574 195 496 102 382 102 C267 102 191 195 191 350 C191 504 267 599 382 599 L382 599 Z " />
<glyph glyph-name="omacron" unicode="&#x14d;" horiz-adv-x="582" d="M448 694 L136 694 C131 660 131 627 136 594 L448 594 C452 627 452 660 448 694 L448 694 Z M291 517 C139 517 33 420 33 253 C33 86 138 -11 291 -11 C443 -11 549 86 549 253 C549 420 443 517 291 517 L291 517 Z M290 411 C362 411 408 354 408 253 C408 151 362 95 290 95 C219 95 173 151 173 253 C173 354 219 411 290 411 L290 411 Z " />
<glyph glyph-name="Obreve" unicode="&#x14e;" horiz-adv-x="765" d="M382 761 C453 761 534 793 559 876 C543 897 520 913 488 924 C464 889 429 868 382 868 C334 868 301 894 275 925 C246 914 222 896 206 872 C241 793 307 761 382 761 L382 761 Z M382 712 C168 712 32 577 32 350 C32 123 168 -11 382 -11 C596 -11 733 123 733 350 C733 577 596 712 382 712 L382 712 Z M382 599 C496 599 574 504 574 350 C574 195 496 102 382 102 C267 102 191 195 191 350 C191 504 267 599 382 599 L382 599 Z " />
<glyph glyph-name="obreve" unicode="&#x14f;" horiz-adv-x="582" d="M292 566 C363 566 444 598 469 681 C453 702 430 718 398 729 C374 694 339 673 292 673 C244 673 211 699 185 730 C156 719 132 701 116 677 C151 598 217 566 292 566 L292 566 Z M291 517 C139 517 33 420 33 253 C33 86 138 -11 291 -11 C443 -11 549 86 549 253 C549 420 443 517 291 517 L291 517 Z M290 411 C362 411 408 354 408 253 C408 151 362 95 290 95 C219 95 173 151 173 253 C173 354 219 411 290 411 L290 411 Z " />
<glyph glyph-name="Ohungarumlaut" unicode="&#x150;" horiz-adv-x="765" d="M266 950 L236 773 C269 769 302 769 335 773 L387 932 C346 943 307 949 266 950 L266 950 Z M469 947 L413 773 C447 769 480 769 514 773 L594 934 C553 943 511 948 469 947 L469 947 Z M382 712 C168 712 32 577 32 350 C32 123 168 -11 382 -11 C596 -11 733 123 733 350 C733 577 596 712 382 712 L382 712 Z M382 599 C496 599 574 504 574 350 C574 195 496 102 382 102 C267 102 191 195 191 350 C191 504 267 599 382 599 L382 599 Z " />
<glyph glyph-name="ohungarumlaut" unicode="&#x151;" horiz-adv-x="582" d="M176 755 L146 578 C179 574 212 574 245 578 L297 737 C256 748 217 754 176 755 L176 755 Z M379 752 L323 578 C357 574 390 574 424 578 L504 739 C463 748 421 753 379 752 L379 752 Z M291 517 C139 517 33 420 33 253 C33 86 138 -11 291 -11 C443 -11 549 86 549 253 C549 420 443 517 291 517 L291 517 Z M290 411 C362 411 408 354 408 253 C408 151 362 95 290 95 C219 95 173 151 173 253 C173 354 219 411 290 411 L290 411 Z " />
<glyph glyph-name="OE" unicode="&#x152;" horiz-adv-x="961" d="M919 220 C881 223 843 223 805 220 L798 111 L583 111 L583 304 L779 305 C783 341 783 378 779 414 L583 414 L583 591 L791 591 L798 494 C836 489 874 489 912 494 C920 563 921 632 915 701 L542 701 C501 701 423 708 374 708 C161 708 32 577 32 350 C32 123 163 -7 377 -7 C430 -7 493 0 539 0 L923 0 C929 76 927 146 919 220 L919 220 Z M191 350 C191 505 259 600 390 600 C405 600 421 599 437 597 L437 107 C419 102 399 100 377 100 C261 100 191 194 191 350 L191 350 Z " />
<glyph glyph-name="oe" unicode="&#x153;" horiz-adv-x="913" d="M889 270 C889 419 815 517 669 517 C586 517 522 481 481 426 C439 482 369 517 281 517 C137 517 31 420 31 253 C31 86 137 -11 281 -11 C370 -11 438 25 479 81 C523 23 594 -10 687 -11 C753 -11 806 -1 869 38 C870 79 869 106 867 148 C858 150 832 150 815 148 C771 102 733 94 688 95 C613 95 559 146 551 230 L887 230 C889 243 889 257 889 270 L889 270 Z M663 415 C724 415 755 376 762 310 L555 310 C570 378 611 415 663 415 L663 415 Z M289 96 C217 96 171 152 171 253 C171 354 217 411 289 411 C362 411 409 354 409 253 C409 152 362 96 289 96 L289 96 Z " />
<glyph glyph-name="Racute" unicode="&#x154;" horiz-adv-x="691" d="M498 830 C485 874 468 916 448 953 L219 836 C227 810 238 787 251 766 L498 830 Z M686 100 L647 107 C582 121 523 199 481 276 C571 306 620 375 620 487 C620 630 529 701 351 701 L32 701 C26 670 26 639 32 608 L105 603 L105 110 L32 100 C26 67 27 33 32 0 L347 0 C352 30 352 60 347 90 L251 98 L251 257 L345 257 C403 141 483 0 572 0 L686 0 C691 34 691 66 686 100 L686 100 Z M251 593 L334 593 C419 593 465 559 465 479 C465 395 423 358 327 358 L251 358 L251 593 Z " />
<glyph glyph-name="racute" unicode="&#x155;" horiz-adv-x="459" d="M376 635 C363 679 346 721 326 758 L97 641 C105 615 116 592 129 571 L376 635 Z M430 500 C412 511 384 515 367 515 C299 514 252 479 224 426 L209 516 L34 506 C30 475 30 445 34 414 L100 412 L100 97 L34 91 C29 61 29 30 34 0 L315 0 C319 28 319 56 315 84 L233 92 L233 296 C238 345 261 382 297 404 L342 353 C375 354 406 358 437 367 C447 411 447 457 430 500 L430 500 Z " />
<glyph glyph-name="Rcommaaccent" unicode="&#x156;" horiz-adv-x="691" d="M686 100 L647 107 C582 121 523 199 481 276 C571 306 620 375 620 487 C620 630 529 701 351 701 L32 701 C26 670 26 639 32 608 L105 603 L105 110 L32 100 C26 67 27 33 32 0 L347 0 C352 30 352 60 347 90 L251 98 L251 257 L345 257 C403 141 483 0 572 0 L686 0 C691 34 691 66 686 100 L686 100 Z M251 593 L334 593 C419 593 465 559 465 479 C465 395 423 358 327 358 L251 358 L251 593 Z M298 -65 C297 -100 295 -137 297 -180 C311 -181 328 -186 328 -207 C328 -223 318 -246 297 -277 C312 -289 327 -299 342 -308 C400 -248 417 -184 417 -130 C417 -107 414 -85 409 -67 C376 -63 332 -63 298 -65 L298 -65 Z " />
<glyph glyph-name="rcommaaccent" unicode="&#x157;" horiz-adv-x="459" d="M430 500 C412 511 384 515 367 515 C299 514 252 479 224 426 L209 516 L34 506 C30 475 30 445 34 414 L100 412 L100 97 L34 91 C29 61 29 30 34 0 L315 0 C319 28 319 56 315 84 L233 92 L233 296 C238 345 261 382 297 404 L342 353 C375 354 406 358 437 367 C447 411 447 457 430 500 L430 500 Z M115 -65 C114 -100 112 -137 114 -180 C128 -181 145 -186 145 -207 C145 -223 135 -246 114 -277 C129 -289 144 -299 159 -308 C217 -248 234 -184 234 -130 C234 -107 231 -85 226 -67 C193 -63 149 -63 115 -65 L115 -65 Z " />
<glyph glyph-name="Rcaron" unicode="&#x158;" horiz-adv-x="691" d="M417 769 L525 911 C492 922 457 932 424 938 L353 827 L282 938 C245 932 208 923 172 913 L286 764 C330 763 373 764 417 769 L417 769 Z M686 100 L647 107 C582 121 523 199 481 276 C571 306 620 375 620 487 C620 630 529 701 351 701 L32 701 C26 670 26 639 32 608 L105 603 L105 110 L32 100 C26 67 27 33 32 0 L347 0 C352 30 352 60 347 90 L251 98 L251 257 L345 257 C403 141 483 0 572 0 L686 0 C691 34 691 66 686 100 L686 100 Z M251 593 L334 593 C419 593 465 559 465 479 C465 395 423 358 327 358 L251 358 L251 593 Z " />
<glyph glyph-name="rcaron" unicode="&#x159;" horiz-adv-x="459" d="M295 574 L403 716 C370 727 335 737 302 743 L231 632 L160 743 C123 737 86 728 50 718 L164 569 C208 568 251 569 295 574 L295 574 Z M430 500 C412 511 384 515 367 515 C299 514 252 479 224 426 L209 516 L34 506 C30 475 30 445 34 414 L100 412 L100 97 L34 91 C29 61 29 30 34 0 L315 0 C319 28 319 56 315 84 L233 92 L233 296 C238 345 261 382 297 404 L342 353 C375 354 406 358 437 367 C447 411 447 457 430 500 L430 500 Z " />
<glyph glyph-name="Sacute" unicode="&#x15a;" horiz-adv-x="598" d="M447 830 C434 874 417 916 397 953 L168 836 C176 810 187 787 200 766 L447 830 Z M328 421 C245 447 182 466 182 520 C182 575 229 608 316 608 C351 608 381 603 407 594 L436 474 C471 472 507 473 542 478 C544 529 543 586 538 655 C461 702 382 712 308 712 C132 712 33 632 33 512 C33 386 107 340 255 292 C369 255 422 240 422 181 C422 123 373 94 277 94 C238 94 209 100 181 109 L152 227 C113 231 75 230 36 225 C33 187 37 105 41 39 C119 5 204 -11 286 -11 C464 -11 573 49 573 197 C573 347 470 375 328 421 L328 421 Z " />
<glyph glyph-name="sacute" unicode="&#x15b;" horiz-adv-x="483" d="M386 635 C373 679 356 721 336 758 L107 641 C115 615 126 592 139 571 L386 635 Z M300 302 C235 324 167 338 167 379 C167 406 196 425 256 425 C280 424 304 420 327 411 L354 344 C381 341 408 342 436 347 C437 385 435 433 427 475 C375 506 299 517 241 517 C108 517 37 459 37 369 C37 271 107 235 200 205 C278 179 321 165 322 131 C322 100 299 82 242 82 C204 82 176 88 151 98 L136 166 C103 170 71 170 38 165 C38 126 39 72 47 30 C113 0 180 -11 244 -11 C372 -11 456 39 456 140 C455 243 390 272 300 302 L300 302 Z " />
<glyph glyph-name="Scircumflex" unicode="&#x15c;" horiz-adv-x="598" d="M293 877 L365 762 C402 766 439 775 475 787 L363 937 C314 939 270 938 229 932 L122 790 C154 778 186 768 220 762 L293 877 Z M328 421 C245 447 182 466 182 520 C182 575 229 608 316 608 C351 608 381 603 407 594 L436 474 C471 472 507 473 542 478 C544 529 543 586 538 655 C461 702 382 712 308 712 C132 712 33 632 33 512 C33 386 107 340 255 292 C369 255 422 240 422 181 C422 123 373 94 277 94 C238 94 209 100 181 109 L152 227 C113 231 75 230 36 225 C33 187 37 105 41 39 C119 5 204 -11 286 -11 C464 -11 573 49 573 197 C573 347 470 375 328 421 L328 421 Z " />
<glyph glyph-name="scircumflex" unicode="&#x15d;" horiz-adv-x="483" d="M232 682 L304 567 C341 571 378 580 414 592 L302 742 C253 744 209 743 168 737 L61 595 C93 583 125 573 159 567 L232 682 Z M300 302 C235 324 167 338 167 379 C167 406 196 425 256 425 C280 424 304 420 327 411 L354 344 C381 341 408 342 436 347 C437 385 435 433 427 475 C375 506 299 517 241 517 C108 517 37 459 37 369 C37 271 107 235 200 205 C278 179 321 165 322 131 C322 100 299 82 242 82 C204 82 176 88 151 98 L136 166 C103 170 71 170 38 165 C38 126 39 72 47 30 C113 0 180 -11 244 -11 C372 -11 456 39 456 140 C455 243 390 272 300 302 L300 302 Z " />
<glyph glyph-name="Scedilla" unicode="&#x15e;" horiz-adv-x="598" d="M573 197 C573 347 470 375 328 421 C245 447 182 466 182 520 C182 575 229 608 316 608 C351 608 381 603 407 594 L436 474 C471 472 507 473 542 478 C544 529 543 586 538 655 C461 702 382 712 308 712 C132 712 33 632 33 512 C33 386 107 340 255 292 C369 255 422 240 422 181 C422 123 373 94 277 94 C238 94 209 100 181 109 L152 227 C113 231 75 230 36 225 C33 187 37 105 41 39 C109 9 182 -6 254 -10 L217 -86 L242 -97 C259 -95 274 -93 287 -93 C312 -93 326 -100 326 -118 C326 -157 260 -179 234 -186 C238 -206 245 -224 256 -241 C334 -231 424 -194 424 -112 C424 -65 402 -39 316 -39 C312 -39 308 -39 303 -40 L318 -10 C477 -3 573 58 573 197 L573 197 Z " />
<glyph glyph-name="scedilla" unicode="&#x15f;" horiz-adv-x="483" d="M456 140 C455 243 390 272 300 302 C235 324 167 338 167 379 C167 406 196 425 256 425 C280 424 304 420 327 411 L354 344 C381 341 408 342 436 347 C437 385 435 433 427 475 C375 506 299 517 241 517 C108 517 37 459 37 369 C37 271 107 235 200 205 C278 179 321 165 322 131 C322 100 299 82 242 82 C204 82 176 88 151 98 L136 166 C103 170 71 170 38 165 C38 126 39 72 47 30 C97 7 148 -5 197 -9 L160 -86 L185 -97 C202 -95 217 -93 230 -93 C255 -93 269 -100 269 -118 C269 -157 203 -179 177 -186 C181 -206 188 -224 199 -241 C277 -231 367 -194 367 -112 C367 -65 345 -39 259 -39 C255 -39 251 -39 246 -40 L260 -11 C379 -7 456 43 456 140 L456 140 Z " />
<glyph glyph-name="Scaron" unicode="&#x160;" horiz-adv-x="598" d="M366 769 L474 911 C441 922 406 932 373 938 L302 827 L231 938 C194 932 157 923 121 913 L235 764 C279 763 322 764 366 769 L366 769 Z M328 421 C245 447 182 466 182 520 C182 575 229 608 316 608 C351 608 381 603 407 594 L436 474 C471 472 507 473 542 478 C544 529 543 586 538 655 C461 702 382 712 308 712 C132 712 33 632 33 512 C33 386 107 340 255 292 C369 255 422 240 422 181 C422 123 373 94 277 94 C238 94 209 100 181 109 L152 227 C113 231 75 230 36 225 C33 187 37 105 41 39 C119 5 204 -11 286 -11 C464 -11 573 49 573 197 C573 347 470 375 328 421 L328 421 Z " />
<glyph glyph-name="scaron" unicode="&#x161;" horiz-adv-x="483" d="M305 574 L413 716 C380 727 345 737 312 743 L241 632 L170 743 C133 737 96 728 60 718 L174 569 C218 568 261 569 305 574 L305 574 Z M300 302 C235 324 167 338 167 379 C167 406 196 425 256 425 C280 424 304 420 327 411 L354 344 C381 341 408 342 436 347 C437 385 435 433 427 475 C375 506 299 517 241 517 C108 517 37 459 37 369 C37 271 107 235 200 205 C278 179 321 165 322 131 C322 100 299 82 242 82 C204 82 176 88 151 98 L136 166 C103 170 71 170 38 165 C38 126 39 72 47 30 C113 0 180 -11 244 -11 C372 -11 456 39 456 140 C455 243 390 272 300 302 L300 302 Z " />
<glyph glyph-name="uni0162" unicode="&#x162;" horiz-adv-x="633" d="M605 701 L26 701 C19 623 19 547 24 472 C57 468 92 468 125 472 L133 593 L241 594 L241 108 L163 98 C158 65 158 33 163 0 L276 0 L234 -86 L259 -97 C276 -95 291 -93 304 -93 C329 -93 343 -100 343 -118 C343 -157 277 -179 251 -186 C255 -206 262 -224 273 -241 C351 -231 441 -194 441 -112 C441 -65 419 -39 333 -39 C329 -39 325 -39 320 -40 L339 0 L466 0 C470 30 470 60 466 90 L387 98 L387 594 L495 592 L504 472 C537 468 571 468 605 472 C614 549 615 624 605 701 L605 701 Z " />
<glyph glyph-name="uni0163" unicode="&#x163;" horiz-adv-x="396" d="M223 -10 C285 -10 331 3 374 32 C375 73 374 81 371 123 C361 125 342 125 327 123 C305 96 277 87 251 87 C217 87 204 106 204 149 L204 408 L370 408 C375 441 375 474 370 506 L204 506 L204 632 C168 637 131 637 95 632 L71 506 L11 496 C6 467 6 437 11 408 L71 408 L71 128 C71 55 102 12 162 -3 L122 -86 L147 -97 C164 -95 179 -93 192 -93 C217 -93 231 -100 231 -118 C231 -157 165 -179 139 -186 C143 -206 150 -224 161 -241 C239 -231 329 -194 329 -112 C329 -65 307 -39 221 -39 C217 -39 213 -39 208 -40 L223 -10 Z " />
<glyph glyph-name="Tcaron" unicode="&#x164;" horiz-adv-x="633" d="M383 769 L491 911 C458 922 423 932 390 938 L319 827 L248 938 C211 932 174 923 138 913 L252 764 C296 763 339 764 383 769 L383 769 Z M605 701 L26 701 C19 623 19 547 24 472 C57 468 92 468 125 472 L133 593 L241 594 L241 108 L163 98 C158 65 158 33 163 0 L466 0 C470 30 470 60 466 90 L387 98 L387 594 L495 592 L504 472 C537 468 571 468 605 472 C614 549 615 624 605 701 L605 701 Z " />
<glyph glyph-name="tcaron" unicode="&#x165;" horiz-adv-x="404" d="M332 631 C332 614 324 592 308 568 C325 554 342 543 361 534 C400 576 428 626 428 690 C428 711 425 734 418 758 C380 762 337 762 297 760 C295 719 293 676 295 663 C321 659 332 649 332 631 L332 631 Z M327 123 C305 96 277 87 251 87 C217 87 204 106 204 149 L204 408 L370 408 C375 441 375 474 370 506 L204 506 L204 632 C168 637 131 637 95 632 L71 506 L11 496 C6 467 6 437 11 408 L71 408 L71 128 C71 33 123 -10 223 -10 C285 -10 331 3 374 32 C375 73 374 81 371 123 C361 125 342 125 327 123 L327 123 Z " />
<glyph glyph-name="Tbar" unicode="&#x166;" horiz-adv-x="633" d="M605 701 L26 701 C19 623 19 547 24 472 C57 468 92 468 125 472 L133 593 L241 594 L241 404 L148 404 C144 368 144 334 148 298 L241 298 L241 108 L163 98 C158 65 158 33 163 0 L466 0 C470 30 470 60 466 90 L387 98 L387 298 L483 298 C488 334 488 368 483 404 L387 404 L387 594 L495 592 L504 472 C537 468 571 468 605 472 C614 549 615 624 605 701 L605 701 Z " />
<glyph glyph-name="tbar" unicode="&#x167;" horiz-adv-x="396" d="M371 123 C361 125 342 125 327 123 C305 96 277 87 251 87 C217 87 204 106 204 149 L204 257 L351 257 C356 285 356 311 351 339 L204 339 L204 408 L370 408 C375 441 375 474 370 506 L204 506 L204 632 C168 637 131 637 95 632 L71 506 L11 496 C6 467 6 437 11 408 L71 408 L71 339 L16 339 C12 311 12 285 16 257 L71 257 L71 128 C71 33 123 -10 223 -10 C285 -10 331 3 374 32 C375 73 374 81 371 123 L371 123 Z " />
<glyph glyph-name="Utilde" unicode="&#x168;" horiz-adv-x="734" d="M256 765 C268 796 286 817 310 817 C324 817 346 810 377 798 C405 788 435 775 464 775 C536 775 573 841 574 920 C552 925 530 929 507 928 C495 895 476 875 453 875 C436 875 412 885 389 895 C358 907 328 917 300 917 C234 917 190 862 189 772 C211 766 234 764 256 765 L256 765 Z M721 701 L441 701 C437 670 437 639 441 608 L519 603 L519 249 C519 145 460 103 380 103 C300 103 237 143 237 247 L237 593 L315 602 C319 636 319 668 315 701 L13 701 C8 670 8 639 13 608 L87 603 L87 245 C87 75 199 -11 371 -11 C538 -11 647 73 647 245 L647 591 L721 602 C725 636 725 668 721 701 L721 701 Z " />
<glyph glyph-name="utilde" unicode="&#x169;" horiz-adv-x="606" d="M173 570 C185 601 203 622 227 622 C241 622 263 615 294 603 C322 593 352 580 381 580 C453 580 490 646 491 725 C469 730 447 734 424 733 C412 700 393 680 370 680 C353 680 329 690 306 700 C275 712 245 722 217 722 C151 722 107 667 106 577 C128 571 151 569 173 570 L173 570 Z M587 88 L518 97 L518 516 L324 506 C320 475 320 445 324 414 L386 413 L386 206 C386 157 330 96 273 96 C217 96 207 128 207 176 L207 516 L10 506 C6 475 6 445 10 414 L74 412 L74 161 C74 54 119 -11 225 -11 C298 -11 354 27 389 80 L397 -9 L587 0 C592 28 592 59 587 88 L587 88 Z " />
<glyph glyph-name="Umacron" unicode="&#x16a;" horiz-adv-x="734" d="M534 789 C538 822 538 855 534 889 L222 889 C217 855 217 822 222 789 L534 789 Z M721 701 L441 701 C437 670 437 639 441 608 L519 603 L519 249 C519 145 460 103 380 103 C300 103 237 143 237 247 L237 593 L315 602 C319 636 319 668 315 701 L13 701 C8 670 8 639 13 608 L87 603 L87 245 C87 75 199 -11 371 -11 C538 -11 647 73 647 245 L647 591 L721 602 C725 636 725 668 721 701 L721 701 Z " />
<glyph glyph-name="umacron" unicode="&#x16b;" horiz-adv-x="606" d="M451 594 C455 627 455 660 451 694 L139 694 C134 660 134 627 139 594 L451 594 Z M587 88 L518 97 L518 516 L324 506 C320 475 320 445 324 414 L386 413 L386 206 C386 157 330 96 273 96 C217 96 207 128 207 176 L207 516 L10 506 C6 475 6 445 10 414 L74 412 L74 161 C74 54 119 -11 225 -11 C298 -11 354 27 389 80 L397 -9 L587 0 C592 28 592 59 587 88 L587 88 Z " />
<glyph glyph-name="Ubreve" unicode="&#x16c;" horiz-adv-x="734" d="M378 761 C449 761 530 793 555 876 C539 897 516 913 484 924 C460 889 425 868 378 868 C330 868 297 894 271 925 C242 914 218 896 202 872 C237 793 303 761 378 761 L378 761 Z M721 701 L441 701 C437 670 437 639 441 608 L519 603 L519 249 C519 145 460 103 380 103 C300 103 237 143 237 247 L237 593 L315 602 C319 636 319 668 315 701 L13 701 C8 670 8 639 13 608 L87 603 L87 245 C87 75 199 -11 371 -11 C538 -11 647 73 647 245 L647 591 L721 602 C725 636 725 668 721 701 L721 701 Z " />
<glyph glyph-name="ubreve" unicode="&#x16d;" horiz-adv-x="606" d="M295 566 C366 566 447 598 472 681 C456 702 433 718 401 729 C377 694 342 673 295 673 C247 673 214 699 188 730 C159 719 135 701 119 677 C154 598 220 566 295 566 L295 566 Z M587 88 L518 97 L518 516 L324 506 C320 475 320 445 324 414 L386 413 L386 206 C386 157 330 96 273 96 C217 96 207 128 207 176 L207 516 L10 506 C6 475 6 445 10 414 L74 412 L74 161 C74 54 119 -11 225 -11 C298 -11 354 27 389 80 L397 -9 L587 0 C592 28 592 59 587 88 L587 88 Z " />
<glyph glyph-name="Uring" unicode="&#x16e;" horiz-adv-x="734" d="M378 757 C455 757 506 804 506 871 C506 938 455 987 378 987 C301 987 250 939 250 873 C250 805 301 757 378 757 L378 757 Z M378 922 C405 922 427 902 427 873 C427 842 405 821 378 821 C351 821 330 842 330 872 C330 901 351 922 378 922 L378 922 Z M721 701 L441 701 C437 670 437 639 441 608 L519 603 L519 249 C519 145 460 103 380 103 C300 103 237 143 237 247 L237 593 L315 602 C319 636 319 668 315 701 L13 701 C8 670 8 639 13 608 L87 603 L87 245 C87 75 199 -11 371 -11 C538 -11 647 73 647 245 L647 591 L721 602 C725 636 725 668 721 701 L721 701 Z " />
<glyph glyph-name="uring" unicode="&#x16f;" horiz-adv-x="606" d="M295 562 C372 562 423 609 423 676 C423 743 372 792 295 792 C218 792 167 744 167 678 C167 610 218 562 295 562 L295 562 Z M295 727 C322 727 344 707 344 678 C344 647 322 626 295 626 C268 626 247 647 247 677 C247 706 268 727 295 727 L295 727 Z M587 88 L518 97 L518 516 L324 506 C320 475 320 445 324 414 L386 413 L386 206 C386 157 330 96 273 96 C217 96 207 128 207 176 L207 516 L10 506 C6 475 6 445 10 414 L74 412 L74 161 C74 54 119 -11 225 -11 C298 -11 354 27 389 80 L397 -9 L587 0 C592 28 592 59 587 88 L587 88 Z " />
<glyph glyph-name="Uhungarumlaut" unicode="&#x170;" horiz-adv-x="734" d="M331 773 L383 932 C342 943 303 949 262 950 L232 773 C265 769 298 769 331 773 L331 773 Z M510 773 L590 934 C549 943 507 948 465 947 L409 773 C443 769 476 769 510 773 L510 773 Z M721 701 L441 701 C437 670 437 639 441 608 L519 603 L519 249 C519 145 460 103 380 103 C300 103 237 143 237 247 L237 593 L315 602 C319 636 319 668 315 701 L13 701 C8 670 8 639 13 608 L87 603 L87 245 C87 75 199 -11 371 -11 C538 -11 647 73 647 245 L647 591 L721 602 C725 636 725 668 721 701 L721 701 Z " />
<glyph glyph-name="uhungarumlaut" unicode="&#x171;" horiz-adv-x="606" d="M248 578 L300 737 C259 748 220 754 179 755 L149 578 C182 574 215 574 248 578 L248 578 Z M427 578 L507 739 C466 748 424 753 382 752 L326 578 C360 574 393 574 427 578 L427 578 Z M587 88 L518 97 L518 516 L324 506 C320 475 320 445 324 414 L386 413 L386 206 C386 157 330 96 273 96 C217 96 207 128 207 176 L207 516 L10 506 C6 475 6 445 10 414 L74 412 L74 161 C74 54 119 -11 225 -11 C298 -11 354 27 389 80 L397 -9 L587 0 C592 28 592 59 587 88 L587 88 Z " />
<glyph glyph-name="Uogonek" unicode="&#x172;" horiz-adv-x="734" d="M721 701 L441 701 C437 670 437 639 441 608 L519 603 L519 249 C519 145 460 103 380 103 C300 103 237 143 237 247 L237 593 L315 602 C319 636 319 668 315 701 L13 701 C8 670 8 639 13 608 L87 603 L87 245 C87 88 183 3 333 -10 C274 -36 244 -78 244 -117 C244 -179 295 -208 368 -208 C394 -208 427 -205 458 -197 C459 -174 455 -152 447 -129 C428 -135 418 -137 403 -137 C370 -137 351 -123 351 -97 C351 -69 372 -36 448 -4 C571 19 647 101 647 245 L647 591 L721 602 C725 636 725 668 721 701 L721 701 Z " />
<glyph glyph-name="uogonek" unicode="&#x173;" horiz-adv-x="606" d="M573 -1 L587 0 C592 28 592 59 587 88 L518 97 L518 516 L324 506 C320 475 320 445 324 414 L386 413 L386 206 C386 157 330 96 273 96 C217 96 207 128 207 176 L207 516 L10 506 C6 475 6 445 10 414 L74 412 L74 161 C74 54 119 -11 225 -11 C298 -11 354 27 389 80 L397 -9 L457 -6 C386 -32 350 -78 350 -121 C350 -183 401 -212 474 -212 C500 -212 533 -209 564 -201 C565 -178 561 -156 553 -133 C534 -139 524 -141 509 -141 C476 -141 457 -127 457 -101 C457 -70 482 -34 573 -1 L573 -1 Z " />
<glyph glyph-name="Wcircumflex" unicode="&#x174;" horiz-adv-x="951" d="M475 877 L547 762 C584 766 621 775 657 787 L545 937 C496 939 452 938 411 932 L304 790 C336 778 368 768 402 762 L475 877 Z M951 701 L689 701 C685 670 685 639 689 608 L760 604 L655 165 L551 594 L606 603 C610 636 610 668 606 701 L356 701 C352 670 352 639 356 608 L408 602 L418 566 L312 162 L217 594 L274 603 C278 636 278 668 274 701 L0 701 C-4 670 -4 639 0 608 L58 605 L221 -7 L364 3 L468 375 L568 -7 L721 3 L886 591 L951 603 C955 636 955 668 951 701 L951 701 Z " />
<glyph glyph-name="wcircumflex" unicode="&#x175;" horiz-adv-x="811" d="M399 681 L471 566 C508 570 545 579 581 591 L469 741 C420 743 376 742 335 736 L228 594 C260 582 292 572 326 566 L399 681 Z M815 506 L589 506 C584 476 584 445 589 414 L652 410 L567 103 L478 402 L527 408 C532 441 532 474 527 506 L307 506 C302 476 302 445 307 414 L350 410 L354 392 L270 103 L185 403 L244 408 C249 441 249 474 244 506 L-2 506 C-6 476 -6 445 -2 414 L48 410 L182 -8 C231 -8 279 -5 328 3 L406 246 L485 -8 C533 -8 583 -5 633 3 L759 403 L815 408 C819 441 819 474 815 506 L815 506 Z " />
<glyph glyph-name="Ycircumflex" unicode="&#x176;" horiz-adv-x="670" d="M336 877 L408 762 C445 766 482 775 518 787 L406 937 C357 939 313 938 272 932 L165 790 C197 778 229 768 263 762 L336 877 Z M603 591 L670 601 C675 634 675 668 670 701 L411 701 C407 670 407 639 411 608 L475 601 L350 372 L232 593 L289 601 C293 634 293 668 289 701 L0 701 C-4 670 -4 639 0 608 L60 602 L260 255 L260 109 L183 99 C177 66 177 33 182 0 L484 0 C488 30 489 60 486 90 L406 97 L406 254 L603 591 Z " />
<glyph glyph-name="ycircumflex" unicode="&#x177;" horiz-adv-x="560" d="M280 682 L352 567 C389 571 426 580 462 592 L350 742 C301 744 257 743 216 737 L109 595 C141 583 173 573 207 567 L280 682 Z M556 506 L330 506 C325 476 325 445 330 414 L381 408 L288 123 L198 401 L248 407 C252 440 252 474 248 506 L3 506 C-1 476 -1 445 3 414 L55 410 L227 -16 C198 -102 169 -120 135 -120 C110 -121 80 -115 62 -100 L47 -100 C41 -138 41 -175 46 -213 C63 -220 94 -226 123 -226 C268 -226 310 -112 340 -31 L500 402 L556 407 C561 440 561 474 556 506 L556 506 Z " />
<glyph glyph-name="Ydieresis" unicode="&#x178;" horiz-adv-x="670" d="M306 790 C307 827 308 871 306 920 C259 923 211 924 167 921 C165 875 165 831 167 791 C206 789 253 788 306 790 L306 790 Z M524 790 C525 827 526 871 524 920 C477 923 429 924 385 921 C383 875 383 831 385 791 C424 789 471 788 524 790 L524 790 Z M603 591 L670 601 C675 634 675 668 670 701 L411 701 C407 670 407 639 411 608 L475 601 L350 372 L232 593 L289 601 C293 634 293 668 289 701 L0 701 C-4 670 -4 639 0 608 L60 602 L260 255 L260 109 L183 99 C177 66 177 33 182 0 L484 0 C488 30 489 60 486 90 L406 97 L406 254 L603 591 Z " />
<glyph glyph-name="Zacute" unicode="&#x179;" horiz-adv-x="639" d="M478 830 C465 874 448 916 428 953 L199 836 C207 810 218 787 231 766 L478 830 Z M603 232 C567 236 531 236 495 232 L487 109 L203 109 L594 581 C596 622 593 663 589 705 L55 701 C48 626 51 546 59 479 C94 475 128 475 162 479 L170 593 L422 595 L33 123 C31 82 33 41 39 0 L607 0 C613 75 612 158 603 232 L603 232 Z " />
<glyph glyph-name="zacute" unicode="&#x17a;" horiz-adv-x="520" d="M410 635 C397 679 380 721 360 758 L131 641 C139 615 150 592 163 571 L410 635 Z M489 186 C457 191 426 191 394 186 L386 96 L190 96 L481 410 C482 443 479 474 473 506 L46 506 C39 444 39 394 46 334 C78 329 111 329 143 334 L150 410 L321 410 L30 96 C28 63 31 33 38 0 L491 0 C494 65 494 121 489 186 L489 186 Z " />
<glyph glyph-name="Zdotaccent" unicode="&#x17b;" horiz-adv-x="639" d="M397 790 C398 827 399 871 397 920 C350 923 302 924 258 921 C256 875 256 831 258 791 C297 789 344 788 397 790 L397 790 Z M603 232 C567 236 531 236 495 232 L487 109 L203 109 L594 581 C596 622 593 663 589 705 L55 701 C48 626 51 546 59 479 C94 475 128 475 162 479 L170 593 L422 595 L33 123 C31 82 33 41 39 0 L607 0 C613 75 612 158 603 232 L603 232 Z " />
<glyph glyph-name="zdotaccent" unicode="&#x17c;" horiz-adv-x="520" d="M329 595 C330 632 331 676 329 725 C282 728 234 729 190 726 C188 680 188 636 190 596 C229 594 276 593 329 595 L329 595 Z M489 186 C457 191 426 191 394 186 L386 96 L190 96 L481 410 C482 443 479 474 473 506 L46 506 C39 444 39 394 46 334 C78 329 111 329 143 334 L150 410 L321 410 L30 96 C28 63 31 33 38 0 L491 0 C494 65 494 121 489 186 L489 186 Z " />
<glyph glyph-name="Zcaron" unicode="&#x17d;" horiz-adv-x="639" d="M397 769 L505 911 C472 922 437 932 404 938 L333 827 L262 938 C225 932 188 923 152 913 L266 764 C310 763 353 764 397 769 L397 769 Z M603 232 C567 236 531 236 495 232 L487 109 L203 109 L594 581 C596 622 593 663 589 705 L55 701 C48 626 51 546 59 479 C94 475 128 475 162 479 L170 593 L422 595 L33 123 C31 82 33 41 39 0 L607 0 C613 75 612 158 603 232 L603 232 Z " />
<glyph glyph-name="zcaron" unicode="&#x17e;" horiz-adv-x="520" d="M329 574 L437 716 C404 727 369 737 336 743 L265 632 L194 743 C157 737 120 728 84 718 L198 569 C242 568 285 569 329 574 L329 574 Z M489 186 C457 191 426 191 394 186 L386 96 L190 96 L481 410 C482 443 479 474 473 506 L46 506 C39 444 39 394 46 334 C78 329 111 329 143 334 L150 410 L321 410 L30 96 C28 63 31 33 38 0 L491 0 C494 65 494 121 489 186 L489 186 Z " />
<glyph glyph-name="uni018F" unicode="&#x18f;" horiz-adv-x="690" d="M341 712 C213 713 115 679 52 653 C52 591 56 536 73 471 C108 467 142 467 176 472 L194 586 C231 593 267 598 291 598 C428 596 493 525 501 372 L36 372 C33 355 33 337 33 318 C33 123 138 -11 345 -11 C535 -11 659 132 659 348 C659 580 528 711 341 712 L341 712 Z M342 102 C255 102 199 158 185 267 L496 267 C478 156 416 102 342 102 L342 102 Z " />
<glyph glyph-name="florin" unicode="&#x192;" horiz-adv-x="446" d="M305 606 C315 606 324 605 333 603 L351 546 C378 543 406 547 433 556 C431 599 428 634 421 676 C383 700 332 712 280 712 C157 712 105 645 98 539 L94 480 L32 471 C27 441 27 412 32 382 L87 382 L65 49 C58 -61 33 -94 -27 -128 C-17 -153 -5 -175 10 -195 C153 -163 189 -84 200 65 L221 382 L363 382 C368 415 368 448 363 481 L228 481 L231 527 C235 586 265 606 305 606 L305 606 Z " />
<glyph glyph-name="uni019D" unicode="&#x19d;" horiz-adv-x="775" d="M473 701 L473 607 L561 602 L561 205 L275 701 L32 701 L32 607 L105 602 L105 -14 C105 -97 70 -127 30 -127 C21 -127 13 -126 6 -125 L-17 -54 L-99 -55 C-105 -112 -101 -160 -96 -201 C-63 -215 -16 -227 46 -227 C145 -227 232 -186 232 -43 L232 502 L527 -7 L689 0 L689 595 L764 606 L764 701 L473 701 Z " />
<glyph glyph-name="Gcaron" unicode="&#x1e6;" horiz-adv-x="725" d="M461 769 L569 911 C536 922 501 932 468 938 L397 827 L326 938 C289 932 252 923 216 913 L330 764 C374 763 417 764 461 769 L461 769 Z M707 355 L601 355 C527 355 401 349 372 347 C369 315 369 284 372 252 L521 246 L522 136 C483 112 437 102 394 102 C281 102 189 193 189 351 C189 502 270 602 398 602 C440 602 475 594 509 578 L534 442 C571 440 609 443 647 450 C649 520 646 583 638 657 C564 696 486 712 390 712 C173 712 31 581 31 351 C31 124 168 -11 387 -11 C449 -11 510 4 563 34 L592 0 C617 -3 641 -3 665 0 L666 252 L707 259 C710 291 710 322 707 355 L707 355 Z " />
<glyph glyph-name="gcaron" unicode="&#x1e7;" horiz-adv-x="561" d="M340 574 L448 716 C415 727 380 737 347 743 L276 632 L205 743 C168 737 131 728 95 718 L209 569 C253 568 296 569 340 574 L340 574 Z M374 85 L248 92 C183 95 157 105 157 132 C157 154 173 171 209 179 C229 175 251 173 275 173 C426 173 498 251 498 344 C498 395 478 437 441 468 L464 487 L546 497 C550 522 550 545 546 570 C522 579 500 586 457 585 C398 584 368 549 362 506 C336 513 307 517 275 517 C126 517 54 438 54 344 C54 283 84 233 138 204 C86 185 39 143 39 86 C39 48 63 17 99 -2 C50 -25 18 -66 18 -111 C18 -166 54 -232 235 -232 C411 -232 548 -176 548 -42 C548 38 495 78 374 85 L374 85 Z M275 428 C330 428 364 395 363 344 C363 295 331 262 275 262 C223 262 189 294 189 344 C189 394 221 428 275 428 L275 428 Z M260 -142 C180 -142 145 -116 145 -83 C145 -52 166 -29 183 -20 L342 -22 C391 -22 419 -34 419 -63 C419 -106 368 -142 260 -142 L260 -142 Z " />
<glyph glyph-name="uni01EA" unicode="&#x1ea;" horiz-adv-x="765" d="M476 -2 C635 33 733 158 733 350 C733 577 596 712 382 712 C168 712 32 577 32 350 C32 134 155 2 352 -10 C291 -37 260 -79 260 -119 C260 -181 311 -210 384 -210 C410 -210 443 -207 474 -199 C475 -176 471 -154 463 -131 C444 -137 434 -139 419 -139 C386 -139 367 -125 367 -99 C367 -69 390 -34 476 -2 L476 -2 Z M191 350 C191 504 267 599 382 599 C496 599 574 504 574 350 C574 195 496 102 382 102 C267 102 191 195 191 350 L191 350 Z " />
<glyph glyph-name="uni01EB" unicode="&#x1eb;" horiz-adv-x="582" d="M371 -1 C479 28 549 117 549 253 C549 420 443 517 291 517 C139 517 33 420 33 253 C33 101 119 8 250 -9 C187 -35 154 -78 154 -119 C154 -181 205 -210 278 -210 C304 -210 337 -207 368 -199 C369 -176 365 -154 357 -131 C338 -137 328 -139 313 -139 C280 -139 261 -125 261 -99 C261 -69 285 -34 371 -1 L371 -1 Z M173 253 C173 354 219 411 290 411 C362 411 408 354 408 253 C408 151 362 95 290 95 C219 95 173 151 173 253 L173 253 Z " />
<glyph glyph-name="Aringacute" unicode="&#x1fa;" horiz-adv-x="753" d="M514 1074 C501 1118 484 1160 464 1197 L235 1080 C243 1054 254 1031 267 1010 L514 1074 Z M237 873 C237 805 288 757 365 757 C442 757 493 804 493 871 C493 938 442 987 365 987 C288 987 237 939 237 873 L237 873 Z M414 873 C414 842 392 821 365 821 C338 821 317 842 317 872 C317 901 338 922 365 922 C392 922 414 902 414 873 L414 873 Z M740 90 L673 96 L460 710 C362 712 269 709 181 701 C179 669 179 638 181 605 L266 602 L87 110 L13 98 C12 65 12 33 13 0 L294 0 C295 30 295 60 294 90 L217 97 L253 206 L486 206 L517 107 L447 98 C445 65 445 33 447 0 L740 0 C742 30 742 60 740 90 L740 90 Z M287 307 L373 566 L454 307 L287 307 Z " />
<glyph glyph-name="aringacute" unicode="&#x1fb;" horiz-adv-x="551" d="M276 562 C353 562 404 609 404 676 C404 690 402 702 398 714 L502 741 C489 785 472 827 453 864 L306 789 C297 791 287 792 276 792 C199 792 148 744 148 678 C148 610 199 562 276 562 L276 562 Z M276 727 C303 727 325 707 325 678 C325 647 303 626 276 626 C249 626 228 647 228 677 C228 706 249 727 276 727 L276 727 Z M540 90 L475 100 L475 324 C475 473 409 517 283 517 C189 517 112 490 66 472 C65 426 68 384 81 335 C112 333 143 335 174 342 L184 407 C206 411 230 413 254 413 C319 413 342 389 342 335 L342 292 C320 295 296 297 267 297 C151 297 33 253 33 135 C33 35 98 -11 187 -11 C267 -11 321 27 351 73 C356 18 394 -7 449 -7 C488 -7 519 -3 540 -1 C545 29 545 60 540 90 L540 90 Z M234 84 C185 84 168 114 168 145 C168 204 227 225 291 225 C312 225 332 224 350 221 L350 195 C350 139 295 84 234 84 L234 84 Z " />
<glyph glyph-name="AEacute" unicode="&#x1fc;" horiz-adv-x="1001" d="M693 830 C680 874 663 916 643 953 L414 836 C422 810 433 787 446 766 L693 830 Z M959 225 C921 227 883 227 845 225 L837 111 L621 111 L621 304 L823 305 C825 341 825 378 823 414 L621 414 L621 591 L828 591 L836 494 C873 491 911 491 949 494 C957 563 959 632 953 701 L379 701 C319 701 234 695 200 693 C197 664 197 635 200 606 L284 603 L89 111 L14 97 C12 65 12 32 14 0 L281 0 C284 31 284 62 281 93 L219 100 L262 206 L473 206 L473 108 L404 98 C401 65 401 33 404 0 L963 0 C969 76 967 151 959 225 L959 225 Z M302 309 L411 585 L473 585 L473 310 L302 309 Z " />
<glyph glyph-name="aeacute" unicode="&#x1fd;" horiz-adv-x="807" d="M540 635 C527 679 510 721 490 758 L261 641 C269 615 280 592 293 571 L540 635 Z M790 270 C790 418 717 516 581 516 C505 516 436 482 399 432 C376 483 328 516 254 516 C171 516 102 491 55 470 C55 424 58 379 71 333 C102 331 133 333 163 339 L172 404 C194 408 218 410 243 410 C298 410 319 378 319 335 L319 294 C297 297 273 299 241 299 C141 299 21 265 21 139 C21 38 86 -9 191 -9 C281 -9 353 35 384 94 C421 31 490 -8 591 -9 C653 -9 705 0 769 40 C770 81 769 108 766 150 L715 150 C671 106 633 99 591 99 C518 100 465 149 456 227 L787 227 L787 230 C789 245 790 257 790 270 L790 270 Z M567 409 C625 409 655 372 661 311 L460 311 C476 374 517 409 567 409 L567 409 Z M217 87 C171 87 157 119 157 146 C157 206 218 225 275 225 C293 225 310 224 327 222 L327 218 C327 139 271 87 217 87 L217 87 Z " />
<glyph glyph-name="Oslashacute" unicode="&#x1fe;" horiz-adv-x="765" d="M528 830 C515 874 498 916 478 953 L249 836 C257 810 268 787 281 766 L528 830 Z M639 615 L704 701 C668 704 632 704 596 701 L570 667 C518 697 454 712 382 712 C168 712 32 577 32 350 C32 237 66 147 126 85 L62 0 C98 -2 135 -2 171 0 L196 32 C248 4 310 -11 382 -11 C596 -11 733 123 733 350 C733 463 699 553 639 615 L639 615 Z M191 350 C191 504 267 599 382 599 C424 599 461 586 491 563 L219 207 C201 245 191 294 191 350 L191 350 Z M382 102 C341 102 304 114 275 137 L545 492 C564 454 574 406 574 350 C574 195 496 102 382 102 L382 102 Z " />
<glyph glyph-name="oslashacute" unicode="&#x1ff;" horiz-adv-x="581" d="M438 635 C425 679 408 721 388 758 L159 641 C167 615 178 592 191 571 L438 635 Z M553 508 C522 510 491 510 460 508 L436 480 C396 504 346 517 291 517 C139 517 33 420 33 253 C33 178 54 118 91 73 L27 -2 C58 -6 88 -6 120 -2 L145 27 C185 2 235 -11 291 -11 C443 -11 549 86 549 253 C549 328 527 389 490 434 L553 508 Z M173 253 C173 354 219 411 290 411 C317 411 340 403 358 388 L182 181 C176 202 173 226 173 253 L173 253 Z M408 253 C408 151 362 95 290 95 C263 95 240 103 222 118 L398 326 C405 305 408 281 408 253 L408 253 Z " />
<glyph glyph-name="Scommaaccent" unicode="&#x218;" horiz-adv-x="598" d="M328 421 C245 447 182 466 182 520 C182 575 229 608 316 608 C351 608 381 603 407 594 L436 474 C471 472 507 473 542 478 C544 529 543 586 538 655 C461 702 382 712 308 712 C132 712 33 632 33 512 C33 386 107 340 255 292 C369 255 422 240 422 181 C422 123 373 94 277 94 C238 94 209 100 181 109 L152 227 C113 231 75 230 36 225 C33 187 37 105 41 39 C119 5 204 -11 286 -11 C464 -11 573 49 573 197 C573 347 470 375 328 421 L328 421 Z M246 -65 C245 -100 243 -137 245 -180 C259 -181 276 -186 276 -207 C276 -223 266 -246 245 -277 C260 -289 275 -299 290 -308 C348 -248 365 -184 365 -130 C365 -107 362 -85 357 -67 C324 -63 280 -63 246 -65 L246 -65 Z " />
<glyph glyph-name="scommaaccent" unicode="&#x219;" horiz-adv-x="483" d="M300 302 C235 324 167 338 167 379 C167 406 196 425 256 425 C280 424 304 420 327 411 L354 344 C381 341 408 342 436 347 C437 385 435 433 427 475 C375 506 299 517 241 517 C108 517 37 459 37 369 C37 271 107 235 200 205 C278 179 321 165 322 131 C322 100 299 82 242 82 C204 82 176 88 151 98 L136 166 C103 170 71 170 38 165 C38 126 39 72 47 30 C113 0 180 -11 244 -11 C372 -11 456 39 456 140 C455 243 390 272 300 302 L300 302 Z M189 -65 C188 -100 186 -137 188 -180 C202 -181 219 -186 219 -207 C219 -223 209 -246 188 -277 C203 -289 218 -299 233 -308 C291 -248 308 -184 308 -130 C308 -107 305 -85 300 -67 C267 -63 223 -63 189 -65 L189 -65 Z " />
<glyph glyph-name="uni021A" unicode="&#x21a;" horiz-adv-x="633" d="M605 701 L26 701 C19 623 19 547 24 472 C57 468 92 468 125 472 L133 593 L241 594 L241 108 L163 98 C158 65 158 33 163 0 L466 0 C470 30 470 60 466 90 L387 98 L387 594 L495 592 L504 472 C537 468 571 468 605 472 C614 549 615 624 605 701 L605 701 Z M263 -65 C262 -100 260 -137 262 -180 C276 -181 293 -186 293 -207 C293 -223 283 -246 262 -277 C277 -289 292 -299 307 -308 C365 -248 382 -184 382 -130 C382 -107 379 -85 374 -67 C341 -63 297 -63 263 -65 L263 -65 Z " />
<glyph glyph-name="uni021B" unicode="&#x21b;" horiz-adv-x="396" d="M371 123 C361 125 342 125 327 123 C305 96 277 87 251 87 C217 87 204 106 204 149 L204 408 L370 408 C375 441 375 474 370 506 L204 506 L204 632 C168 637 131 637 95 632 L71 506 L11 496 C6 467 6 437 11 408 L71 408 L71 128 C71 33 123 -10 223 -10 C285 -10 331 3 374 32 C375 73 374 81 371 123 L371 123 Z M151 -65 C150 -100 148 -137 150 -180 C164 -181 181 -186 181 -207 C181 -223 171 -246 150 -277 C165 -289 180 -299 195 -308 C253 -248 270 -184 270 -130 C270 -107 267 -85 262 -67 C229 -63 185 -63 151 -65 L151 -65 Z " />
<glyph glyph-name="uni0232" unicode="&#x232;" horiz-adv-x="670" d="M497 789 C501 822 501 855 497 889 L185 889 C180 855 180 822 185 789 L497 789 Z M603 591 L670 601 C675 634 675 668 670 701 L411 701 C407 670 407 639 411 608 L475 601 L350 372 L232 593 L289 601 C293 634 293 668 289 701 L0 701 C-4 670 -4 639 0 608 L60 602 L260 255 L260 109 L183 99 C177 66 177 33 182 0 L484 0 C488 30 489 60 486 90 L406 97 L406 254 L603 591 Z " />
<glyph glyph-name="uni0233" unicode="&#x233;" horiz-adv-x="560" d="M441 594 C445 627 445 660 441 694 L129 694 C124 660 124 627 129 594 L441 594 Z M556 506 L330 506 C325 476 325 445 330 414 L381 408 L288 123 L198 401 L248 407 C252 440 252 474 248 506 L3 506 C-1 476 -1 445 3 414 L55 410 L227 -16 C198 -102 169 -120 135 -120 C110 -121 80 -115 62 -100 L47 -100 C41 -138 41 -175 46 -213 C63 -220 94 -226 123 -226 C268 -226 310 -112 340 -31 L500 402 L556 407 C561 440 561 474 556 506 L556 506 Z " />
<glyph glyph-name="uni0237" unicode="&#x237;" horiz-adv-x="310" d="M21 506 C17 475 17 444 21 413 L117 410 L117 6 C117 -98 83 -134 50 -134 C41 -134 32 -133 25 -132 L5 -76 C-16 -72 -37 -72 -59 -76 C-64 -127 -61 -172 -56 -208 C-25 -219 27 -227 64 -227 C162 -227 250 -171 250 6 L250 515 L21 506 Z " />
<glyph glyph-name="uni0259" unicode="&#x259;" horiz-adv-x="539" d="M261 517 C170 517 91 490 47 472 C46 426 49 382 62 333 C93 333 124 335 155 340 L166 407 C188 410 209 413 224 413 C320 413 367 363 374 276 L37 276 C34 261 34 248 34 234 C34 87 108 -11 262 -11 C408 -11 510 94 510 254 C510 420 400 516 261 517 L261 517 Z M261 92 C200 92 168 129 162 193 L369 193 C355 127 315 92 261 92 L261 92 Z " />
<glyph glyph-name="uni0272" unicode="&#x272;" horiz-adv-x="631" d="M614 84 L548 92 L548 337 C548 456 514 517 400 517 C322 517 263 484 227 434 L218 516 L33 506 C29 475 29 445 33 414 L98 412 L98 6 C98 -96 64 -131 30 -131 C21 -131 12 -130 5 -129 L-14 -76 C-35 -73 -57 -73 -78 -76 C-84 -126 -80 -170 -75 -206 L-76 -208 C-44 -219 7 -227 45 -227 C142 -227 231 -171 231 6 L231 298 C231 363 296 412 350 412 C400 412 415 388 415 331 L415 0 L614 0 C618 28 618 56 614 84 L614 84 Z " />
<glyph glyph-name="circumflex" unicode="&#x2c6;" horiz-adv-x="472" d="M413 592 L301 742 C252 744 208 743 167 737 L60 595 C92 583 124 573 158 567 L231 682 L303 567 C340 571 377 580 413 592 L413 592 Z " />
<glyph glyph-name="caron" unicode="&#x2c7;" horiz-adv-x="472" d="M310 743 L239 632 L168 743 C131 737 94 728 58 718 L172 569 C216 568 259 569 303 574 L411 716 C378 727 343 737 310 743 L310 743 Z " />
<glyph glyph-name="breve" unicode="&#x2d8;" horiz-adv-x="475" d="M238 566 C309 566 390 598 415 681 C399 702 376 718 344 729 C320 694 285 673 238 673 C190 673 157 699 131 730 C102 719 78 701 62 677 C97 598 163 566 238 566 L238 566 Z " />
<glyph glyph-name="dotaccent" unicode="&#x2d9;" horiz-adv-x="433" d="M287 725 C240 728 192 729 148 726 C146 680 146 636 148 596 C187 594 234 593 287 595 C288 632 289 676 287 725 L287 725 Z " />
<glyph glyph-name="ring" unicode="&#x2da;" horiz-adv-x="468" d="M234 792 C157 792 106 744 106 678 C106 610 157 562 234 562 C311 562 362 609 362 676 C362 743 311 792 234 792 L234 792 Z M234 727 C261 727 283 707 283 678 C283 647 261 626 234 626 C207 626 186 647 186 677 C186 706 207 727 234 727 L234 727 Z " />
<glyph glyph-name="ogonek" unicode="&#x2db;" horiz-adv-x="353" d="M248 0 L149 0 C66 -24 23 -74 23 -121 C23 -183 74 -212 147 -212 C173 -212 206 -209 237 -201 C238 -178 234 -156 226 -133 C207 -139 197 -141 182 -141 C149 -141 130 -127 130 -101 C130 -70 155 -34 248 0 L248 0 Z " />
<glyph glyph-name="tilde" unicode="&#x2dc;" horiz-adv-x="481" d="M367 733 C355 700 336 680 313 680 C296 680 272 690 249 700 C218 712 188 722 160 722 C94 722 50 667 49 577 C71 571 94 569 116 570 C128 601 146 622 170 622 C184 622 206 615 237 603 C265 593 295 580 324 580 C396 580 433 646 434 725 C412 730 390 734 367 733 L367 733 Z " />
<glyph glyph-name="hungarumlaut" unicode="&#x2dd;" horiz-adv-x="472" d="M125 755 L95 578 C128 574 161 574 194 578 L246 737 C205 748 166 754 125 755 L125 755 Z M328 752 L272 578 C306 574 339 574 373 578 L453 739 C412 748 370 753 328 752 L328 752 Z " />
<glyph glyph-name="gravecomb" unicode="&#x300;" d="M-338 758 C-358 720 -375 679 -387 635 L-140 571 C-128 591 -117 614 -108 641 L-338 758 Z " />
<glyph glyph-name="acutecomb" unicode="&#x301;" d="M-139 758 L-368 641 C-360 615 -349 592 -336 571 L-89 635 C-102 679 -119 721 -139 758 L-139 758 Z " />
<glyph glyph-name="uni0302" unicode="&#x302;" d="M-61 592 L-173 742 C-222 744 -266 743 -307 737 L-414 595 C-382 583 -350 573 -316 567 L-243 682 L-171 567 C-134 571 -97 580 -61 592 L-61 592 Z " />
<glyph glyph-name="tildecomb" unicode="&#x303;" d="M-109 733 C-121 700 -140 680 -163 680 C-180 680 -204 690 -227 700 C-258 712 -288 722 -316 722 C-382 722 -426 667 -427 577 C-405 571 -382 569 -360 570 C-348 601 -330 622 -306 622 C-292 622 -270 615 -239 603 C-211 593 -181 580 -152 580 C-80 580 -43 646 -42 725 C-64 730 -86 734 -109 733 L-109 733 Z " />
<glyph glyph-name="uni0304" unicode="&#x304;" d="M-82 694 L-394 694 C-399 660 -399 627 -394 594 L-82 594 C-78 627 -78 660 -82 694 L-82 694 Z " />
<glyph glyph-name="uni0306" unicode="&#x306;" d="M-238 566 C-167 566 -86 598 -61 681 C-77 702 -100 718 -132 729 C-156 694 -191 673 -238 673 C-286 673 -319 699 -345 730 C-374 719 -398 701 -414 677 C-379 598 -313 566 -238 566 L-238 566 Z " />
<glyph glyph-name="uni0307" unicode="&#x307;" d="M-165 725 C-212 728 -260 729 -304 726 C-306 680 -306 636 -304 596 C-265 594 -218 593 -165 595 C-164 632 -163 676 -165 725 L-165 725 Z " />
<glyph glyph-name="uni0308" unicode="&#x308;" d="M-272 725 C-319 728 -367 729 -411 726 C-413 680 -413 636 -411 596 C-372 594 -325 593 -272 595 C-271 632 -270 676 -272 725 L-272 725 Z M-54 725 C-101 728 -149 729 -193 726 C-195 680 -195 636 -193 596 C-154 594 -107 593 -54 595 C-53 632 -52 676 -54 725 L-54 725 Z " />
<glyph glyph-name="uni030A" unicode="&#x30a;" d="M-238 792 C-315 792 -366 744 -366 678 C-366 610 -315 562 -238 562 C-161 562 -110 609 -110 676 C-110 743 -161 792 -238 792 L-238 792 Z M-238 727 C-211 727 -189 707 -189 678 C-189 647 -211 626 -238 626 C-265 626 -286 647 -286 677 C-286 706 -265 727 -238 727 L-238 727 Z " />
<glyph glyph-name="uni030B" unicode="&#x30b;" d="M-354 755 L-384 578 C-351 574 -318 574 -285 578 L-233 737 C-274 748 -313 754 -354 755 L-354 755 Z M-151 752 L-207 578 C-173 574 -140 574 -106 578 L-26 739 C-67 748 -109 753 -151 752 L-151 752 Z " />
<glyph glyph-name="uni030C" unicode="&#x30c;" d="M-171 743 L-242 632 L-313 743 C-350 737 -387 728 -423 718 L-309 569 C-265 568 -222 569 -178 574 L-70 716 C-103 727 -138 737 -171 743 L-171 743 Z " />
<glyph glyph-name="uni0312" unicode="&#x312;" d="M-183 703 C-197 704 -214 709 -214 730 C-214 746 -204 769 -183 800 C-198 812 -213 822 -228 831 C-286 771 -303 707 -303 653 C-303 630 -300 608 -295 590 C-262 586 -218 586 -184 588 C-183 623 -181 660 -183 703 L-183 703 Z " />
<glyph glyph-name="uni0326" unicode="&#x326;" d="M-290 -180 C-276 -181 -259 -186 -259 -207 C-259 -223 -269 -246 -290 -277 C-275 -289 -260 -299 -245 -308 C-187 -248 -170 -184 -170 -130 C-170 -107 -173 -85 -178 -67 C-211 -63 -255 -63 -289 -65 C-290 -100 -292 -137 -290 -180 L-290 -180 Z " />
<glyph glyph-name="uni0327" unicode="&#x327;" d="M-220 -39 C-224 -39 -228 -39 -233 -40 L-205 18 L-262 32 L-319 -86 L-294 -97 C-277 -95 -262 -93 -249 -93 C-224 -93 -210 -100 -210 -118 C-210 -157 -276 -179 -302 -186 C-298 -206 -291 -224 -280 -241 C-202 -231 -112 -194 -112 -112 C-112 -65 -134 -39 -220 -39 L-220 -39 Z " />
<glyph glyph-name="uni0328" unicode="&#x328;" d="M-241 0 L-340 0 C-423 -24 -466 -74 -466 -121 C-466 -183 -415 -212 -342 -212 C-316 -212 -283 -209 -252 -201 C-251 -178 -255 -156 -263 -133 C-282 -139 -292 -141 -307 -141 C-340 -141 -359 -127 -359 -101 C-359 -70 -334 -34 -241 0 L-241 0 Z " />
<glyph glyph-name="uni0335" unicode="&#x335;" d="M-70 351 L-405 351 C-409 315 -409 281 -405 245 L-70 245 C-65 281 -65 315 -70 351 L-70 351 Z " />
<glyph glyph-name="uni0336" unicode="&#x336;" d="M121 535 L-597 535 C-599 511 -599 489 -597 466 L121 466 C124 489 124 511 121 535 L121 535 Z " />
<glyph glyph-name="uni0337" unicode="&#x337;" d="M-38 449 L-448 327 C-452 294 -452 261 -448 229 L-38 351 C-34 384 -34 417 -38 449 L-38 449 Z " />
<glyph glyph-name="uni0338" unicode="&#x338;" d="M-26 701 L-560 0 C-524 -2 -487 -2 -451 0 L82 701 C46 704 10 704 -26 701 L-26 701 Z " />
<glyph glyph-name="Wgrave" unicode="&#x1e80;" horiz-adv-x="951" d="M608 836 L378 953 C358 915 341 874 329 830 L576 766 C588 786 599 809 608 836 L608 836 Z M951 701 L689 701 C685 670 685 639 689 608 L760 604 L655 165 L551 594 L606 603 C610 636 610 668 606 701 L356 701 C352 670 352 639 356 608 L408 602 L418 566 L312 162 L217 594 L274 603 C278 636 278 668 274 701 L0 701 C-4 670 -4 639 0 608 L58 605 L221 -7 L364 3 L468 375 L568 -7 L721 3 L886 591 L951 603 C955 636 955 668 951 701 L951 701 Z " />
<glyph glyph-name="wgrave" unicode="&#x1e81;" horiz-adv-x="811" d="M532 640 L302 757 C282 719 265 678 253 634 L500 570 C512 590 523 613 532 640 L532 640 Z M815 506 L589 506 C584 476 584 445 589 414 L652 410 L567 103 L478 402 L527 408 C532 441 532 474 527 506 L307 506 C302 476 302 445 307 414 L350 410 L354 392 L270 103 L185 403 L244 408 C249 441 249 474 244 506 L-2 506 C-6 476 -6 445 -2 414 L48 410 L182 -8 C231 -8 279 -5 328 3 L406 246 L485 -8 C533 -8 583 -5 633 3 L759 403 L815 408 C819 441 819 474 815 506 L815 506 Z " />
<glyph glyph-name="Wacute" unicode="&#x1e82;" horiz-adv-x="951" d="M629 830 C616 874 599 916 579 953 L350 836 C358 810 369 787 382 766 L629 830 Z M951 701 L689 701 C685 670 685 639 689 608 L760 604 L655 165 L551 594 L606 603 C610 636 610 668 606 701 L356 701 C352 670 352 639 356 608 L408 602 L418 566 L312 162 L217 594 L274 603 C278 636 278 668 274 701 L0 701 C-4 670 -4 639 0 608 L58 605 L221 -7 L364 3 L468 375 L568 -7 L721 3 L886 591 L951 603 C955 636 955 668 951 701 L951 701 Z " />
<glyph glyph-name="wacute" unicode="&#x1e83;" horiz-adv-x="811" d="M553 634 C540 678 523 720 503 757 L274 640 C282 614 293 591 306 570 L553 634 Z M815 506 L589 506 C584 476 584 445 589 414 L652 410 L567 103 L478 402 L527 408 C532 441 532 474 527 506 L307 506 C302 476 302 445 307 414 L350 410 L354 392 L270 103 L185 403 L244 408 C249 441 249 474 244 506 L-2 506 C-6 476 -6 445 -2 414 L48 410 L182 -8 C231 -8 279 -5 328 3 L406 246 L485 -8 C533 -8 583 -5 633 3 L759 403 L815 408 C819 441 819 474 815 506 L815 506 Z " />
<glyph glyph-name="Wdieresis" unicode="&#x1e84;" horiz-adv-x="951" d="M445 790 C446 827 447 871 445 920 C398 923 350 924 306 921 C304 875 304 831 306 791 C345 789 392 788 445 790 L445 790 Z M663 790 C664 827 665 871 663 920 C616 923 568 924 524 921 C522 875 522 831 524 791 C563 789 610 788 663 790 L663 790 Z M951 701 L689 701 C685 670 685 639 689 608 L760 604 L655 165 L551 594 L606 603 C610 636 610 668 606 701 L356 701 C352 670 352 639 356 608 L408 602 L418 566 L312 162 L217 594 L274 603 C278 636 278 668 274 701 L0 701 C-4 670 -4 639 0 608 L58 605 L221 -7 L364 3 L468 375 L568 -7 L721 3 L886 591 L951 603 C955 636 955 668 951 701 L951 701 Z " />
<glyph glyph-name="wdieresis" unicode="&#x1e85;" horiz-adv-x="811" d="M369 594 C370 631 371 675 369 724 C322 727 274 728 230 725 C228 679 228 635 230 595 C269 593 316 592 369 594 L369 594 Z M587 594 C588 631 589 675 587 724 C540 727 492 728 448 725 C446 679 446 635 448 595 C487 593 534 592 587 594 L587 594 Z M815 506 L589 506 C584 476 584 445 589 414 L652 410 L567 103 L478 402 L527 408 C532 441 532 474 527 506 L307 506 C302 476 302 445 307 414 L350 410 L354 392 L270 103 L185 403 L244 408 C249 441 249 474 244 506 L-2 506 C-6 476 -6 445 -2 414 L48 410 L182 -8 C231 -8 279 -5 328 3 L406 246 L485 -8 C533 -8 583 -5 633 3 L759 403 L815 408 C819 441 819 474 815 506 L815 506 Z " />
<glyph glyph-name="Ygrave" unicode="&#x1ef2;" horiz-adv-x="670" d="M469 836 L239 953 C219 915 202 874 190 830 L437 766 C449 786 460 809 469 836 L469 836 Z M603 591 L670 601 C675 634 675 668 670 701 L411 701 C407 670 407 639 411 608 L475 601 L350 372 L232 593 L289 601 C293 634 293 668 289 701 L0 701 C-4 670 -4 639 0 608 L60 602 L260 255 L260 109 L183 99 C177 66 177 33 182 0 L484 0 C488 30 489 60 486 90 L406 97 L406 254 L603 591 Z " />
<glyph glyph-name="ygrave" unicode="&#x1ef3;" horiz-adv-x="560" d="M413 641 L183 758 C163 720 146 679 134 635 L381 571 C393 591 404 614 413 641 L413 641 Z M556 506 L330 506 C325 476 325 445 330 414 L381 408 L288 123 L198 401 L248 407 C252 440 252 474 248 506 L3 506 C-1 476 -1 445 3 414 L55 410 L227 -16 C198 -102 169 -120 135 -120 C110 -121 80 -115 62 -100 L47 -100 C41 -138 41 -175 46 -213 C63 -220 94 -226 123 -226 C268 -226 310 -112 340 -31 L500 402 L556 407 C561 440 561 474 556 506 L556 506 Z " />
<glyph glyph-name="uni2002" unicode="&#x2002;" horiz-adv-x="470" d="" />
<glyph glyph-name="uni2003" unicode="&#x2003;" horiz-adv-x="1000" d="" />
<glyph glyph-name="uni2009" unicode="&#x2009;" horiz-adv-x="14" d="" />
<glyph glyph-name="endash" unicode="&#x2013;" horiz-adv-x="526" d="M494 347 L32 347 C28 313 28 277 32 243 L494 243 C497 277 497 313 494 347 L494 347 Z " />
<glyph glyph-name="emdash" unicode="&#x2014;" horiz-adv-x="1000" d="M968 347 L32 347 C28 313 28 277 32 243 L968 243 C972 277 972 313 968 347 L968 347 Z " />
<glyph glyph-name="quoteleft" unicode="&#x2018;" horiz-adv-x="270" d="M207 628 C190 629 170 635 170 660 C170 679 181 706 206 743 C189 757 171 769 153 780 C84 709 64 633 64 569 C64 542 68 516 74 494 C113 490 165 490 205 492 C207 533 209 577 207 628 L207 628 Z " />
<glyph glyph-name="quoteright" unicode="&#x2019;" horiz-adv-x="270" d="M64 630 C81 629 101 623 101 598 C101 579 90 552 65 515 C82 501 100 489 118 478 C187 549 207 625 207 689 C207 716 203 742 197 764 C158 768 106 768 66 766 C64 725 62 681 64 630 L64 630 Z " />
<glyph glyph-name="quotesinglbase" unicode="&#x201a;" horiz-adv-x="283" d="M67 -1 C84 -2 104 -8 104 -33 C104 -52 93 -79 68 -116 C85 -130 103 -142 121 -153 C190 -82 210 -6 210 58 C210 85 206 111 200 133 C161 137 109 137 69 135 C67 94 65 50 67 -1 L67 -1 Z " />
<glyph glyph-name="quotedblleft" unicode="&#x201c;" horiz-adv-x="454" d="M195 627 C178 628 158 634 158 659 C158 678 169 705 194 742 C177 756 159 768 141 779 C72 708 52 632 52 568 C52 541 56 515 62 493 C101 489 153 489 193 491 C195 532 197 576 195 627 L195 627 Z M386 627 C369 628 349 634 349 659 C349 678 360 705 385 742 C368 756 350 768 332 779 C263 708 243 632 243 568 C243 541 247 515 253 493 C292 489 344 489 384 491 C386 532 388 576 386 627 L386 627 Z " />
<glyph glyph-name="quotedblright" unicode="&#x201d;" horiz-adv-x="452" d="M70 630 C87 629 107 623 107 598 C107 579 96 552 71 515 C88 501 106 489 124 478 C193 549 213 625 213 689 C213 716 209 742 203 764 C164 768 112 768 72 766 C70 725 68 681 70 630 L70 630 Z M261 630 C278 629 298 623 298 598 C298 579 287 552 262 515 C279 501 297 489 315 478 C384 549 404 625 404 689 C404 716 400 742 394 764 C355 768 303 768 263 766 C261 725 259 681 261 630 L261 630 Z " />
<glyph glyph-name="quotedblbase" unicode="&#x201e;" horiz-adv-x="474" d="M67 -1 C84 -2 104 -8 104 -33 C104 -52 93 -79 68 -116 C85 -130 103 -142 121 -153 C190 -82 210 -6 210 58 C210 85 206 111 200 133 C161 137 109 137 69 135 C67 94 65 50 67 -1 L67 -1 Z M258 -1 C275 -2 295 -8 295 -33 C295 -52 284 -79 259 -116 C276 -130 294 -142 312 -153 C381 -82 401 -6 401 58 C401 85 397 111 391 133 C352 137 300 137 260 135 C258 94 256 50 258 -1 L258 -1 Z " />
<glyph glyph-name="dagger" unicode="&#x2020;" horiz-adv-x="442" d="M269 701 C237 704 206 704 175 701 L179 574 L30 579 C26 548 26 518 30 487 L180 493 L199 -145 C214 -147 229 -147 244 -145 L262 493 L412 487 C415 518 415 549 412 580 L263 574 L269 701 Z " />
<glyph glyph-name="daggerdbl" unicode="&#x2021;" horiz-adv-x="442" d="M412 487 C415 518 415 549 412 580 L263 574 L269 701 C237 704 206 704 175 701 L179 574 L30 579 C26 548 26 518 30 487 L180 493 L184 344 L39 349 C35 319 35 291 39 261 L187 267 L199 -145 C214 -147 229 -147 244 -145 L256 267 L403 261 C407 291 407 320 403 350 L258 344 L262 493 L412 487 Z " />
<glyph glyph-name="bullet" unicode="&#x2022;" horiz-adv-x="459" d="M236 442 C163 442 102 382 102 309 C102 236 163 176 236 176 C309 176 369 236 369 309 C369 382 309 442 236 442 L236 442 Z " />
<glyph glyph-name="ellipsis" unicode="&#x2026;" horiz-adv-x="1000" d="M101 -2 C144 -3 190 -4 233 -2 C235 35 235 86 233 133 C193 138 141 136 102 134 C99 95 99 52 101 -2 L101 -2 Z M435 -2 C478 -3 524 -4 567 -2 C569 35 569 86 567 133 C527 138 475 136 436 134 C433 95 433 52 435 -2 L435 -2 Z M767 -2 C810 -3 856 -4 899 -2 C901 35 901 86 899 133 C859 138 807 136 768 134 C765 95 765 52 767 -2 L767 -2 Z " />
<glyph glyph-name="perthousand" unicode="&#x2030;" horiz-adv-x="1498" d="M796 702 C774 723 748 739 719 750 L256 -2 C279 -24 304 -41 332 -54 L796 702 Z M247 712 C110 712 37 619 37 503 C37 387 110 294 247 294 C386 294 458 386 458 507 C458 617 386 712 247 712 L247 712 Z M247 635 C296 635 324 576 324 504 C324 427 295 371 247 371 C199 371 170 427 170 503 C170 578 199 635 247 635 L247 635 Z M794 413 C657 413 584 320 584 204 C584 88 657 -5 794 -5 C933 -5 1005 87 1005 208 C1005 318 933 413 794 413 L794 413 Z M1250 413 C1113 413 1040 320 1040 204 C1040 88 1113 -5 1250 -5 C1389 -5 1461 87 1461 208 C1461 318 1389 413 1250 413 L1250 413 Z M794 336 C843 336 871 277 871 205 C871 128 842 72 794 72 C746 72 717 128 717 204 C717 279 746 336 794 336 L794 336 Z M1250 336 C1299 336 1327 277 1327 205 C1327 128 1298 72 1250 72 C1202 72 1173 128 1173 204 C1173 279 1202 336 1250 336 L1250 336 Z " />
<glyph glyph-name="prime" unicode="&#x2032;" horiz-adv-x="232" d="M109 446 L182 701 C142 712 102 718 62 721 L28 459 C55 451 82 447 109 446 L109 446 Z " />
<glyph glyph-name="doubleprime" unicode="&#x2033;" horiz-adv-x="404" d="M109 459 L182 714 C142 725 102 731 62 734 L28 472 C55 464 82 460 109 459 L109 459 Z M276 431 L349 686 C309 697 269 703 229 706 L195 444 C222 436 249 432 276 431 L276 431 Z " />
<glyph glyph-name="guilsinglleft" unicode="&#x2039;" horiz-adv-x="355" d="M205 521 L40 266 L205 11 C238 27 265 48 290 73 L176 266 L290 460 C265 484 237 505 205 521 L205 521 Z " />
<glyph glyph-name="guilsinglright" unicode="&#x203a;" horiz-adv-x="355" d="M150 521 C118 505 90 484 65 460 L179 266 L65 73 C90 48 117 27 150 11 L315 266 L150 521 Z " />
<glyph glyph-name="uni203D" unicode="&#x203d;" horiz-adv-x="460" d="M227 710 C138 710 70 690 22 666 C23 632 36 584 54 551 C105 582 161 600 210 600 C279 600 312 560 312 507 C312 459 282 408 238 368 C237 367 236 366 235 366 L232 512 C184 514 155 512 108 509 L134 214 L241 213 L244 227 C256 275 296 308 341 344 C396 389 451 438 451 530 C451 660 332 710 227 710 L227 710 Z M121 134 C118 95 118 52 120 -2 C163 -3 209 -4 252 -2 C254 35 254 86 252 133 C212 138 160 136 121 134 L121 134 Z " />
<glyph glyph-name="uni2042" unicode="&#x2042;" horiz-adv-x="847" d="M475 513 L596 538 C588 573 579 603 567 629 L453 578 L467 701 C435 705 404 705 372 701 L385 578 L272 629 C257 602 248 572 243 539 L363 514 L280 423 C303 399 329 381 358 366 L419 473 L480 366 C509 380 535 399 557 422 L475 513 Z M274 161 L395 186 C387 221 378 251 366 277 L252 226 L266 349 C234 353 203 353 171 349 L184 226 L71 277 C56 250 47 220 42 187 L162 162 L79 71 C102 47 128 29 157 14 L218 121 L279 14 C308 28 334 47 356 70 L274 161 Z M685 161 L806 186 C798 221 789 251 777 277 L663 226 L677 349 C645 353 614 353 582 349 L595 226 L482 277 C467 250 458 220 453 187 L573 162 L490 71 C513 47 539 29 568 14 L629 121 L690 14 C719 28 745 47 767 70 L685 161 Z " />
<glyph glyph-name="fraction" unicode="&#x2044;" horiz-adv-x="261" d="M410 702 C388 723 362 739 333 750 L-130 -2 C-107 -24 -82 -41 -54 -54 L410 702 Z " />
<glyph glyph-name="uni2051" unicode="&#x2051;" horiz-adv-x="436" d="M274 513 L395 538 C387 573 378 603 366 629 L252 578 L266 701 C234 705 203 705 171 701 L184 578 L71 629 C56 602 47 572 42 539 L162 514 L79 423 C102 399 128 381 157 366 L218 473 L279 366 C308 380 334 399 356 422 L274 513 Z M274 151 L395 176 C387 211 378 241 366 267 L252 216 L266 339 C234 343 203 343 171 339 L184 216 L71 267 C56 240 47 210 42 177 L162 152 L79 61 C102 37 128 19 157 4 L218 111 L279 4 C308 18 334 37 356 60 L274 151 Z " />
<glyph glyph-name="uni2070" unicode="&#x2070;" horiz-adv-x="458" d="M228 868 C95 868 22 775 22 636 C22 497 95 403 228 403 C365 403 436 496 436 640 C436 773 365 868 228 868 L228 868 Z M228 791 C275 791 304 732 304 637 C304 537 274 481 228 481 C183 481 155 537 155 636 C155 734 183 791 228 791 L228 791 Z " />
<glyph glyph-name="uni2074" unicode="&#x2074;" horiz-adv-x="424" d="M406 527 C409 556 409 585 406 613 L350 613 L350 672 L240 672 L240 613 L144 613 L334 866 L174 866 L10 572 C8 557 8 542 10 527 L219 527 L219 480 L161 469 C158 449 158 428 161 407 L402 407 C404 428 404 449 402 469 L350 473 L350 527 L406 527 Z " />
<glyph glyph-name="uni2075" unicode="&#x2075;" horiz-adv-x="401" d="M180 700 C169 700 154 699 139 698 L143 768 L347 768 C351 799 351 830 347 861 L54 861 L41 610 C61 607 81 605 101 606 C121 611 139 614 158 614 C219 614 252 583 252 550 C252 506 220 488 163 488 C149 488 133 490 118 493 L115 547 C85 551 55 551 26 550 C18 513 15 492 17 441 C48 420 106 399 188 399 C315 399 382 456 382 555 C382 642 313 700 180 700 L180 700 Z " />
<glyph glyph-name="uni2076" unicode="&#x2076;" horiz-adv-x="425" d="M269 700 C222 700 180 686 149 660 C166 724 222 787 337 819 C329 845 317 868 301 888 C84 851 21 705 21 589 C21 473 89 399 215 399 C335 399 406 464 406 555 C406 634 359 700 269 700 L269 700 Z M213 483 C179 483 151 512 150 554 C152 601 184 629 217 629 C258 629 275 595 275 559 C275 508 246 483 213 483 L213 483 Z " />
<glyph glyph-name="uni2077" unicode="&#x2077;" horiz-adv-x="368" d="M353 861 L13 861 C9 831 9 800 13 769 L220 769 C149 652 95 531 66 407 L204 407 C228 526 273 643 353 807 C355 825 355 843 353 861 L353 861 Z " />
<glyph glyph-name="uni2078" unicode="&#x2078;" horiz-adv-x="419" d="M312 658 C345 677 376 708 376 755 C376 827 307 865 211 865 C109 865 38 822 38 743 C38 699 65 666 99 641 C55 618 19 581 19 529 C19 452 78 400 205 400 C349 400 404 458 404 536 C404 596 363 632 312 658 L312 658 Z M210 797 C245 797 275 777 275 749 C275 723 253 704 231 691 C189 707 154 731 154 757 C154 782 178 797 210 797 L210 797 Z M206 475 C168 475 131 494 131 529 C131 558 154 580 182 595 C229 575 271 554 271 522 C271 492 242 475 206 475 L206 475 Z " />
<glyph glyph-name="uni2079" unicode="&#x2079;" horiz-adv-x="421" d="M207 867 C87 867 15 802 15 711 C15 632 63 566 152 566 C200 566 243 582 273 609 C257 544 202 480 83 448 C92 424 104 401 119 379 C338 415 400 561 400 676 C400 794 333 867 207 867 L207 867 Z M205 638 C164 638 146 671 146 707 C146 758 175 783 209 783 C243 783 270 755 272 712 C270 664 238 638 205 638 L205 638 Z " />
<glyph glyph-name="uni2080" unicode="&#x2080;" horiz-adv-x="458" d="M228 338 C95 338 22 245 22 106 C22 -33 95 -127 228 -127 C365 -127 436 -34 436 110 C436 243 365 338 228 338 L228 338 Z M228 261 C275 261 304 202 304 107 C304 7 274 -49 228 -49 C183 -49 155 7 155 106 C155 204 183 261 228 261 L228 261 Z " />
<glyph glyph-name="uni2081" unicode="&#x2081;" horiz-adv-x="307" d="M229 331 L172 331 L30 297 C26 274 26 251 30 228 L100 237 L100 -40 L32 -51 C28 -75 28 -99 32 -123 L292 -123 C295 -99 295 -75 292 -51 L229 -47 L229 331 Z " />
<glyph glyph-name="uni2082" unicode="&#x2082;" horiz-adv-x="386" d="M363 -30 L193 -30 C278 33 359 107 359 207 C359 290 295 336 196 336 C128 336 47 313 19 290 C15 256 15 223 21 193 C52 190 83 190 114 193 L117 240 C134 245 152 248 168 248 C202 248 227 235 227 201 C228 119 121 27 18 -56 C15 -78 15 -101 18 -123 L363 -123 C366 -92 366 -61 363 -30 L363 -30 Z " />
<glyph glyph-name="uni2083" unicode="&#x2083;" horiz-adv-x="399" d="M280 129 C325 147 360 183 360 234 C360 299 310 337 209 337 C126 337 67 317 23 295 C31 268 43 244 59 225 C91 238 133 251 171 251 C210 251 233 237 233 208 C233 170 175 151 104 146 C101 122 104 98 110 74 L135 74 C220 74 256 53 256 15 C256 -25 216 -40 167 -40 C150 -40 134 -38 118 -35 L115 13 C85 18 55 19 26 16 C17 -20 15 -41 16 -90 C51 -111 114 -127 180 -127 C310 -127 385 -74 385 9 C385 82 332 117 280 129 L280 129 Z " />
<glyph glyph-name="uni2084" unicode="&#x2084;" horiz-adv-x="424" d="M406 -3 C409 26 409 55 406 83 L350 83 L350 142 L240 142 L240 83 L144 83 L334 336 L174 336 L10 42 C8 27 8 12 10 -3 L219 -3 L219 -50 L161 -61 C158 -81 158 -102 161 -123 L402 -123 C404 -102 404 -81 402 -61 L350 -57 L350 -3 L406 -3 Z " />
<glyph glyph-name="uni2085" unicode="&#x2085;" horiz-adv-x="401" d="M180 170 C169 170 154 169 139 168 L143 238 L347 238 C351 269 351 300 347 331 L54 331 L41 80 C61 77 81 75 101 76 C121 81 139 84 158 84 C219 84 252 53 252 20 C252 -24 220 -42 163 -42 C149 -42 133 -40 118 -37 L115 17 C85 21 55 21 26 20 C18 -17 15 -38 17 -89 C48 -110 106 -131 188 -131 C315 -131 382 -74 382 25 C382 112 313 170 180 170 L180 170 Z " />
<glyph glyph-name="uni2086" unicode="&#x2086;" horiz-adv-x="425" d="M269 170 C222 170 180 156 149 130 C166 194 222 257 337 289 C329 315 317 338 301 358 C84 321 21 175 21 59 C21 -57 89 -131 215 -131 C335 -131 406 -66 406 25 C406 104 359 170 269 170 L269 170 Z M213 -47 C179 -47 151 -18 150 24 C152 71 184 99 217 99 C258 99 275 65 275 29 C275 -22 246 -47 213 -47 L213 -47 Z " />
<glyph glyph-name="uni2087" unicode="&#x2087;" horiz-adv-x="368" d="M353 331 L13 331 C9 301 9 270 13 239 L220 239 C149 122 95 1 66 -123 L204 -123 C228 -4 273 113 353 277 C355 295 355 313 353 331 L353 331 Z " />
<glyph glyph-name="uni2088" unicode="&#x2088;" horiz-adv-x="419" d="M312 128 C345 147 376 178 376 225 C376 297 307 335 211 335 C109 335 38 292 38 213 C38 169 65 136 99 111 C55 88 19 51 19 -1 C19 -78 78 -130 205 -130 C349 -130 404 -72 404 6 C404 66 363 102 312 128 L312 128 Z M210 267 C245 267 275 247 275 219 C275 193 253 174 231 161 C189 177 154 201 154 227 C154 252 178 267 210 267 L210 267 Z M206 -55 C168 -55 131 -36 131 -1 C131 28 154 50 182 65 C229 45 271 24 271 -8 C271 -38 242 -55 206 -55 L206 -55 Z " />
<glyph glyph-name="uni2089" unicode="&#x2089;" horiz-adv-x="421" d="M207 337 C87 337 15 272 15 181 C15 102 63 36 152 36 C200 36 243 52 273 79 C257 14 202 -50 83 -82 C92 -106 104 -129 119 -151 C338 -115 400 31 400 146 C400 264 333 337 207 337 L207 337 Z M205 108 C164 108 146 141 146 177 C146 228 175 253 209 253 C243 253 270 225 272 182 C270 134 238 108 205 108 L205 108 Z " />
<glyph glyph-name="Euro" unicode="&#x20ac;" horiz-adv-x="720" d="M673 174 C649 176 623 176 587 174 C540 111 483 101 437 101 C356 101 284 156 255 252 L502 252 C506 276 506 299 502 323 L242 323 C241 332 241 341 241 351 C241 358 241 366 242 373 L502 373 C506 397 506 421 502 445 L253 445 C279 543 347 602 439 602 C482 602 545 591 585 527 C622 526 647 526 671 527 C674 569 676 601 675 642 C591 700 514 712 431 712 C252 712 124 616 91 445 L37 445 C33 421 33 397 37 373 L82 373 L82 351 C82 342 82 332 83 323 L37 323 C33 299 33 276 37 252 L92 252 C126 87 251 -11 431 -11 C516 -11 599 2 677 59 C678 101 676 133 673 174 L673 174 Z " />
<glyph glyph-name="uni20BA" unicode="&#x20ba;" horiz-adv-x="613" d="M595 366 C548 356 504 343 464 325 C466 315 467 303 467 291 C467 178 395 110 305 110 C291 110 275 112 258 115 L258 306 L440 388 C433 416 421 442 407 464 L258 397 L257 461 L440 544 C433 572 421 598 407 619 L257 552 L257 701 L113 701 L113 487 L18 444 C25 416 37 390 51 368 L113 396 L113 332 L18 289 C25 260 37 234 51 212 L113 240 L113 10 C163 -3 211 -11 290 -11 C498 -11 602 102 602 295 C602 317 601 341 595 366 L595 366 Z " />
<glyph glyph-name="uni2113" unicode="&#x2113;" horiz-adv-x="520" d="M406 128 C375 93 333 58 293 58 C256 58 228 99 228 205 L228 221 C364 330 464 427 464 567 C464 626 437 679 360 679 C192 679 97 434 93 203 C65 180 27 157 -4 134 C2 115 10 100 22 89 C40 102 73 124 96 139 C109 46 164 -10 260 -10 C325 -10 391 23 446 97 C435 111 422 121 406 128 L406 128 Z M360 608 C379 608 396 595 396 555 C396 470 317 369 232 289 C246 459 300 608 360 608 L360 608 Z " />
<glyph glyph-name="uni2116" unicode="&#x2116;" horiz-adv-x="1192" d="M763 702 L472 701 C467 671 468 636 472 606 L561 602 L561 205 L275 701 L32 701 C28 670 28 638 32 607 L105 602 L105 109 L32 98 C28 65 28 33 32 0 L319 0 C323 30 323 60 320 90 L232 99 L232 502 L527 -7 C582 -8 636 -6 689 0 L689 595 L764 607 C768 640 767 669 763 702 L763 702 Z M961 220 C1082 220 1159 289 1159 413 C1159 537 1082 607 961 607 C840 607 763 537 763 413 C763 289 840 220 961 220 L961 220 Z M961 528 C1010 528 1042 484 1042 413 C1042 342 1010 298 961 298 C911 298 880 342 880 413 C880 484 911 528 961 528 L961 528 Z M794 173 C791 144 791 113 794 84 L1132 84 C1134 113 1134 144 1132 173 L794 173 Z " />
<glyph glyph-name="uni2117" unicode="&#x2117;" horiz-adv-x="793" d="M393 706 C179 706 32 560 32 349 C32 139 179 -6 393 -6 C607 -6 754 139 754 349 C754 560 607 706 393 706 L393 706 Z M393 68 C220 68 106 180 106 349 C106 519 220 632 393 632 C566 632 680 519 680 349 C680 180 566 68 393 68 L393 68 Z M432 552 L233 552 C229 530 229 510 233 488 L272 486 L272 221 L233 214 C229 192 229 171 233 148 L423 148 C426 169 426 189 423 209 L371 214 L371 288 L430 288 C532 288 586 332 586 420 C586 511 531 552 432 552 L432 552 Z M416 361 L371 361 L371 472 L419 472 C454 472 478 452 478 416 C478 383 461 361 416 361 L416 361 Z " />
<glyph glyph-name="trademark" unicode="&#x2122;" horiz-adv-x="772" d="M316 701 L39 701 C35 663 35 627 38 590 C56 588 72 588 89 590 L93 642 L143 642 L143 433 L105 425 C102 411 102 396 105 381 L251 381 C253 394 253 408 251 421 L213 426 L213 641 L262 641 L266 590 C283 588 300 588 317 590 C320 627 320 663 316 701 L316 701 Z M693 427 L693 648 L731 658 C733 672 733 687 731 701 L609 701 L541 539 L478 701 L350 701 C347 687 347 672 350 658 L386 648 L386 433 L350 425 C347 411 347 396 350 381 L490 381 C492 394 492 408 490 421 L447 427 L447 601 L505 458 C525 456 544 456 563 458 L624 609 L624 433 L582 425 C579 411 579 395 582 380 L731 381 C733 394 733 408 731 421 L693 427 Z " />
<glyph glyph-name="uni2126" unicode="&#x2126;" horiz-adv-x="772" d="M741 222 C720 226 697 226 675 223 L613 109 L528 109 C635 191 715 309 715 436 C715 603 577 712 386 712 C194 712 57 603 57 436 C57 310 143 191 246 109 L158 109 L96 223 C74 226 52 226 30 222 C24 148 31 75 47 0 L346 0 C353 36 355 72 354 109 C268 192 216 277 216 398 C216 519 287 599 386 599 C485 599 555 519 555 398 C555 277 504 192 418 109 C417 72 419 36 425 0 L725 0 C741 75 748 148 741 222 L741 222 Z " />
<glyph glyph-name="estimated" unicode="&#x212e;" horiz-adv-x="741" d="M697 282 L697 291 C697 503 564 612 383 612 C186 612 44 503 44 291 C44 100 186 -9 385 -9 C499 -9 606 34 656 130 C636 133 615 132 595 129 C556 66 476 36 388 36 C322 36 261 51 217 79 L217 282 L697 282 Z M524 538 L524 328 L217 328 L217 533 C264 558 319 571 382 571 C434 571 482 560 524 538 L524 538 Z " />
<glyph glyph-name="arrowleft" unicode="&#x2190;" horiz-adv-x="809" d="M774 302 L192 297 L291 446 C265 471 237 491 205 507 L40 252 L205 -3 C238 13 266 35 290 59 L200 195 L774 190 C779 229 779 268 774 302 L774 302 Z " />
<glyph glyph-name="arrowup" unicode="&#x2191;" horiz-adv-x="575" d="M543 523 L288 688 L33 523 C49 491 69 463 94 437 L243 536 L238 -46 C272 -51 311 -51 350 -46 L345 528 L481 438 C505 462 527 490 543 523 L543 523 Z " />
<glyph glyph-name="arrowright" unicode="&#x2192;" horiz-adv-x="809" d="M604 507 C572 491 544 471 518 446 L617 297 L35 302 C30 268 30 229 35 190 L609 195 L519 59 C543 35 571 13 604 -3 L769 252 L604 507 Z " />
<glyph glyph-name="arrowdown" unicode="&#x2193;" horiz-adv-x="575" d="M481 200 L345 110 L350 684 C311 689 272 689 238 684 L243 102 L94 201 C69 175 49 147 33 115 L288 -50 L543 115 C527 148 505 176 481 200 L481 200 Z " />
<glyph glyph-name="arrowboth" unicode="&#x2194;" horiz-adv-x="935" d="M730 507 C699 491 670 471 645 446 L744 298 L478 303 L192 298 L290 446 C265 471 237 491 205 507 L40 252 L205 -3 C237 13 265 35 290 59 L200 194 L478 191 L736 194 L646 59 C670 35 698 13 730 -3 L895 252 L730 507 Z " />
<glyph glyph-name="arrowupdn" unicode="&#x2195;" horiz-adv-x="585" d="M337 -18 L342 248 L337 534 L485 436 C510 461 530 489 546 521 L291 686 L36 521 C52 489 74 461 98 436 L233 526 L230 248 L233 -10 L98 80 C74 56 52 28 36 -4 L291 -169 L546 -4 C530 27 510 56 485 81 L337 -18 Z " />
<glyph glyph-name="uni2196" unicode="&#x2196;" horiz-adv-x="688" d="M247 459 L406 491 C406 526 402 561 390 595 L93 531 L29 235 C63 223 98 218 133 217 L168 392 L576 -23 C604 -2 632 26 656 56 L247 459 Z " />
<glyph glyph-name="uni2197" unicode="&#x2197;" horiz-adv-x="681" d="M651 286 L588 583 L291 647 C279 613 274 579 273 543 L448 508 L33 99 C54 72 81 44 112 20 L515 429 L547 270 C581 270 617 274 651 286 L651 286 Z " />
<glyph glyph-name="uni2198" unicode="&#x2198;" horiz-adv-x="689" d="M555 353 L520 178 L111 593 C84 572 56 545 32 514 L441 111 L282 79 C282 45 286 9 298 -25 L595 38 L659 335 C625 347 591 352 555 353 L555 353 Z " />
<glyph glyph-name="uni2199" unicode="&#x2199;" horiz-adv-x="689" d="M657 514 C633 545 605 572 578 593 L169 178 L134 353 C98 352 64 347 30 335 L94 38 L391 -25 C403 9 407 45 407 79 L248 111 L657 514 Z " />
<glyph glyph-name="partialdiff" unicode="&#x2202;" horiz-adv-x="605" d="M267 793 C185 793 107 767 69 748 C77 714 89 685 105 659 C155 680 205 689 254 684 C379 672 439 554 439 402 L439 395 C407 432 354 449 297 449 C148 449 38 341 38 196 C38 74 129 -10 276 -10 C493 -10 581 181 581 393 C581 660 449 793 267 793 L267 793 Z M285 98 C233 98 188 136 188 202 C188 278 245 343 325 343 C377 343 416 308 425 257 C419 189 363 98 285 98 L285 98 Z " />
<glyph glyph-name="uni2206" unicode="&#x2206;" horiz-adv-x="683" d="M654 99 L428 710 L149 701 C145 669 145 638 149 605 L231 602 L37 103 C35 69 36 35 41 0 L649 0 C653 33 655 66 654 99 L654 99 Z M180 118 L342 562 L490 118 L180 118 Z " />
<glyph glyph-name="product" unicode="&#x220f;" horiz-adv-x="774" d="M736 603 C739 636 739 668 736 701 L38 701 C34 670 34 639 38 608 L111 603 L111 -84 L38 -94 C34 -127 34 -159 38 -192 L328 -192 C332 -162 332 -132 328 -102 L257 -94 L257 594 L515 596 L515 -84 L446 -94 C442 -127 442 -159 446 -192 L736 -192 C740 -162 740 -132 736 -102 L661 -94 L661 593 L736 603 Z " />
<glyph glyph-name="summation" unicode="&#x2211;" horiz-adv-x="617" d="M580 27 C546 30 511 30 477 27 L470 -74 L205 -74 L429 249 C430 260 430 272 429 284 L210 594 L466 594 L473 482 C507 478 542 478 576 482 C584 549 586 626 580 701 L46 701 C41 664 39 627 40 589 L281 244 L26 -131 C25 -152 26 -172 31 -193 L584 -193 C590 -117 588 -40 580 27 L580 27 Z " />
<glyph glyph-name="minus" unicode="&#x2212;" horiz-adv-x="537" d="M493 356 L44 356 C40 320 40 282 44 245 L493 245 C497 282 497 320 493 356 L493 356 Z " />
<glyph glyph-name="radical" unicode="&#x221a;" horiz-adv-x="637" d="M550 796 L372 59 L268 407 L40 344 C43 320 50 299 60 282 L163 300 L295 -107 C338 -109 379 -106 418 -99 L644 798 C612 801 581 801 550 796 L550 796 Z " />
<glyph glyph-name="infinity" unicode="&#x221e;" horiz-adv-x="778" d="M204 109 C274 109 323 141 378 206 C429 141 479 108 558 108 C666 108 749 190 749 305 C749 408 675 487 574 487 C505 487 455 455 401 390 C350 455 299 488 221 488 C113 488 29 406 29 291 C29 187 104 109 204 109 L204 109 Z M565 220 C522 220 486 254 453 311 C487 357 515 382 561 382 C600 382 635 353 635 302 C635 249 600 220 565 220 L565 220 Z M218 213 C179 213 144 243 144 294 C144 347 178 376 213 376 C256 376 293 342 326 285 C292 238 264 213 218 213 L218 213 Z " />
<glyph glyph-name="integral" unicode="&#x222b;" horiz-adv-x="462" d="M159 -210 C288 -210 349 -142 332 21 L260 668 C253 728 271 756 311 756 C335 756 369 745 407 726 C423 761 434 799 440 842 C389 854 341 861 303 861 C174 861 113 793 130 630 L201 -17 C208 -77 190 -105 150 -105 C127 -105 93 -94 55 -75 C38 -108 27 -146 21 -189 C73 -206 120 -210 159 -210 L159 -210 Z " />
<glyph glyph-name="uni2236" unicode="&#x2236;" horiz-adv-x="265" d="M65 432 C108 431 154 430 197 432 C199 469 199 520 197 567 C157 572 105 570 66 568 C63 529 63 486 65 432 L65 432 Z M64 58 C107 57 153 56 196 58 C198 95 198 146 196 193 C156 198 104 196 65 194 C62 155 62 112 64 58 L64 58 Z " />
<glyph glyph-name="approxequal" unicode="&#x2248;" horiz-adv-x="555" d="M381 327 C417 327 470 335 522 407 C508 433 492 455 473 473 C440 447 406 432 373 432 C351 432 330 439 309 448 C271 463 231 484 185 484 C128 484 77 459 34 404 C47 378 65 354 84 335 C116 361 146 378 184 378 C213 378 246 364 282 350 C312 338 344 327 381 327 L381 327 Z M381 113 C417 113 470 122 522 194 C509 219 492 242 473 260 C440 234 406 219 373 219 C349 219 326 227 302 237 C267 252 229 270 185 270 C129 270 77 245 34 190 C47 164 64 141 84 122 C116 148 147 165 184 165 C211 165 239 153 270 141 C303 127 340 113 381 113 L381 113 Z " />
<glyph glyph-name="notequal" unicode="&#x2260;" horiz-adv-x="539" d="M289 241 L329 355 L494 355 C498 392 498 429 494 466 L367 466 L409 586 C389 596 366 605 343 610 L293 466 L45 466 C41 429 41 392 45 355 L255 355 L215 241 L45 241 C41 204 41 166 45 129 L176 129 L138 18 C159 7 182 -1 203 -6 L250 129 L494 129 C498 166 498 204 494 241 L289 241 Z " />
<glyph glyph-name="lessequal" unicode="&#x2264;" horiz-adv-x="532" d="M167 390 L478 493 C483 535 483 577 478 618 L30 450 C25 410 25 370 30 330 L478 161 C483 203 483 245 478 286 L167 390 Z M30 112 C25 75 25 37 30 0 L478 0 C483 37 483 75 478 112 L30 112 Z " />
<glyph glyph-name="greaterequal" unicode="&#x2265;" horiz-adv-x="532" d="M54 161 L502 330 C507 370 507 410 502 450 L54 618 C49 577 49 535 54 493 L365 390 L54 286 C49 245 49 203 54 161 L54 161 Z M54 112 C49 75 49 37 54 0 L502 0 C507 37 507 75 502 112 L54 112 Z " />
<glyph glyph-name="lozenge" unicode="&#x25ca;" horiz-adv-x="574" d="M324 698 C300 700 275 700 250 698 L31 354 L250 4 C275 2 300 2 324 4 L543 354 L324 698 Z M287 130 L159 354 L287 573 L416 354 L287 130 Z " />
<glyph glyph-name="uni2780" unicode="&#x2780;" horiz-adv-x="776" d="M388 690 C179 690 35 547 35 341 C35 136 179 -6 388 -6 C597 -6 741 136 741 341 C741 547 597 690 388 690 L388 690 Z M388 624 C562 624 674 511 674 341 C674 172 562 60 388 60 C214 60 102 172 102 341 C102 511 214 624 388 624 L388 624 Z M453 561 L401 561 L271 530 C267 508 267 487 271 466 L335 474 L335 220 L272 210 C269 188 269 166 272 144 L511 144 C514 166 514 188 511 210 L453 214 L453 561 Z " />
<glyph glyph-name="uni2781" unicode="&#x2781;" horiz-adv-x="776" d="M388 690 C179 690 35 547 35 341 C35 136 179 -6 388 -6 C597 -6 741 136 741 341 C741 547 597 690 388 690 L388 690 Z M388 60 C214 60 102 172 102 341 C102 511 214 624 388 624 C562 624 674 511 674 341 C674 172 562 60 388 60 L388 60 Z M396 229 C475 287 549 355 549 447 C549 523 490 565 399 565 C336 565 262 544 236 523 C233 492 233 462 238 434 C267 431 295 431 324 434 L327 477 C342 482 359 485 373 485 C404 485 427 473 427 441 C428 366 330 282 236 205 C233 185 233 164 236 144 L552 144 C555 172 555 201 552 229 L396 229 Z " />
<glyph glyph-name="uni2782" unicode="&#x2782;" horiz-adv-x="776" d="M388 690 C179 690 35 547 35 341 C35 136 179 -6 388 -6 C597 -6 741 136 741 341 C741 547 597 690 388 690 L388 690 Z M388 60 C214 60 102 172 102 341 C102 511 214 624 388 624 C562 624 674 511 674 341 C674 172 562 60 388 60 L388 60 Z M476 372 C517 388 549 421 549 468 C549 528 504 562 411 562 C335 562 280 544 240 524 C247 499 258 477 273 460 C303 472 341 483 376 483 C412 483 433 471 433 444 C433 409 380 392 314 387 C312 365 314 343 320 321 L343 321 C421 321 454 302 454 267 C454 230 417 216 372 216 C357 216 342 218 327 220 L325 265 C297 270 269 271 243 268 C235 235 233 215 234 170 C266 151 324 136 384 136 C504 136 572 185 572 261 C572 329 524 361 476 372 L476 372 Z " />
<glyph glyph-name="uni2783" unicode="&#x2783;" horiz-adv-x="776" d="M388 690 C179 690 35 547 35 341 C35 136 179 -6 388 -6 C597 -6 741 136 741 341 C741 547 597 690 388 690 L388 690 Z M388 60 C214 60 102 172 102 341 C102 511 214 624 388 624 C562 624 674 511 674 341 C674 169 562 60 388 60 L388 60 Z M501 336 L501 390 L400 390 L400 336 L312 336 L487 568 L340 568 L189 298 C187 285 187 271 189 257 L381 257 L381 214 L328 204 C325 186 325 166 328 147 L549 147 C551 166 551 186 549 204 L501 208 L501 257 L553 257 C555 284 555 310 553 336 L501 336 Z " />
<glyph glyph-name="uni2784" unicode="&#x2784;" horiz-adv-x="776" d="M388 690 C179 690 35 547 35 341 C35 136 179 -6 388 -6 C597 -6 741 136 741 341 C741 547 597 690 388 690 L388 690 Z M388 60 C214 60 102 172 102 341 C102 511 214 624 388 624 C562 624 674 511 674 341 C674 172 562 60 388 60 L388 60 Z M379 407 C369 407 356 406 342 405 L346 469 L533 469 C536 498 536 526 533 555 L264 555 L252 324 C270 322 288 320 307 321 C325 325 342 328 359 328 C415 328 445 300 445 269 C445 229 416 212 364 212 C351 212 337 214 323 217 L320 267 C292 270 264 270 238 269 C231 235 228 216 230 169 C258 150 311 131 387 131 C503 131 565 183 565 274 C565 354 501 407 379 407 L379 407 Z " />
<glyph glyph-name="uni2785" unicode="&#x2785;" horiz-adv-x="776" d="M388 690 C179 690 35 547 35 341 C35 136 179 -6 388 -6 C597 -6 741 136 741 341 C741 547 597 690 388 690 L388 690 Z M388 60 C214 60 102 172 102 341 C102 511 214 624 388 624 C562 624 674 511 674 341 C674 172 562 60 388 60 L388 60 Z M431 408 C388 408 348 395 320 371 C336 430 387 488 493 517 C486 541 475 562 460 580 C261 546 203 412 203 306 C203 199 266 131 381 131 C491 131 557 191 557 275 C557 347 514 408 431 408 L431 408 Z M380 209 C348 209 323 235 322 274 C324 317 353 343 383 343 C421 343 436 311 436 278 C436 232 410 209 380 209 L380 209 Z " />
<glyph glyph-name="uni2786" unicode="&#x2786;" horiz-adv-x="776" d="M388 690 C179 690 35 547 35 341 C35 136 179 -6 388 -6 C597 -6 741 136 741 341 C741 547 597 690 388 690 L388 690 Z M388 60 C214 60 102 172 102 341 C102 511 214 624 388 624 C562 624 674 511 674 341 C674 172 562 60 388 60 L388 60 Z M246 548 C242 520 242 492 246 463 L435 463 C371 356 321 244 295 131 L421 131 C443 240 485 348 558 498 C560 515 560 531 558 548 L246 548 Z " />
<glyph glyph-name="uni2787" unicode="&#x2787;" horiz-adv-x="776" d="M388 690 C179 690 35 547 35 341 C35 136 179 -6 388 -6 C597 -6 741 136 741 341 C741 547 597 690 388 690 L388 690 Z M388 60 C214 60 102 172 102 341 C102 511 214 624 388 624 C562 624 674 511 674 341 C674 172 562 60 388 60 L388 60 Z M488 373 C518 391 546 419 546 462 C546 528 483 563 395 563 C301 563 236 524 236 451 C236 411 261 380 291 357 C251 336 218 302 218 255 C218 184 273 136 389 136 C521 136 572 190 572 261 C572 316 535 349 488 373 L488 373 Z M394 501 C426 501 453 483 453 457 C453 433 433 416 413 404 C374 419 342 440 342 464 C342 487 364 501 394 501 L394 501 Z M390 205 C355 205 321 223 321 255 C321 282 342 302 368 316 C412 298 450 278 450 248 C450 221 423 205 390 205 L390 205 Z " />
<glyph glyph-name="uni2788" unicode="&#x2788;" horiz-adv-x="776" d="M388 690 C179 690 35 547 35 341 C35 136 179 -6 388 -6 C597 -6 741 136 741 341 C741 547 597 690 388 690 L388 690 Z M388 60 C214 60 102 172 102 341 C102 511 214 624 388 624 C562 624 674 511 674 341 C674 172 562 60 388 60 L388 60 Z M398 570 C288 570 222 510 222 427 C222 354 266 294 348 294 C392 294 431 308 459 333 C444 273 393 215 284 185 C292 163 303 142 317 122 C518 155 575 289 575 395 C575 503 514 570 398 570 L398 570 Z M396 360 C359 360 342 390 342 423 C342 470 369 493 400 493 C431 493 457 467 458 427 C456 384 426 360 396 360 L396 360 Z " />
<glyph glyph-name="uni278A" unicode="&#x278a;" horiz-adv-x="776" d="M388 -6 C597 -6 741 136 741 341 C741 547 597 690 388 690 C179 690 35 547 35 341 C35 136 179 -6 388 -6 L388 -6 Z M272 142 C268 164 268 185 272 208 L336 218 L336 476 L270 467 C267 488 267 510 270 531 L401 562 L454 562 L454 212 L513 208 C516 185 516 164 513 142 L272 142 Z " />
<glyph glyph-name="uni278B" unicode="&#x278b;" horiz-adv-x="776" d="M388 -6 C597 -6 741 136 741 341 C741 547 597 690 388 690 C179 690 35 547 35 341 C35 136 179 -6 388 -6 L388 -6 Z M233 142 C231 162 231 183 233 204 C330 280 428 366 428 442 C428 474 405 486 373 486 C356 486 339 482 325 477 L322 435 C294 432 265 432 237 435 C231 462 230 493 235 525 C260 545 335 567 399 567 C491 567 550 524 550 448 C550 358 481 290 394 227 L554 227 C557 199 557 170 554 142 L233 142 Z " />
<glyph glyph-name="uni278C" unicode="&#x278c;" horiz-adv-x="776" d="M388 -6 C597 -6 741 136 741 341 C741 547 597 690 388 690 C179 690 35 547 35 341 C35 136 179 -6 388 -6 L388 -6 Z M383 135 C322 135 263 148 231 168 C229 214 232 233 239 267 C267 268 294 267 321 264 L323 220 C338 216 354 214 371 214 C417 214 454 228 454 265 C454 302 422 321 340 321 L318 321 C313 342 311 365 313 387 C380 391 433 410 433 445 C433 471 411 485 375 485 C339 485 300 473 271 460 C256 477 245 500 238 526 C278 545 333 564 409 564 C504 564 548 530 548 468 C548 421 517 387 476 372 C523 360 573 327 573 260 C573 183 503 135 383 135 L383 135 Z " />
<glyph glyph-name="uni278D" unicode="&#x278d;" horiz-adv-x="776" d="M388 -6 C597 -6 741 136 741 341 C741 547 597 690 388 690 C179 690 35 547 35 341 C35 136 179 -6 388 -6 L388 -6 Z M327 145 C325 164 325 182 327 202 L382 212 L382 256 L187 256 C186 270 186 283 187 297 L340 570 L493 570 L313 335 L405 335 L405 390 L502 390 L502 335 L554 335 C557 309 557 282 554 256 L502 256 L502 206 L551 202 C553 182 553 164 551 145 L327 145 Z " />
<glyph glyph-name="uni278E" unicode="&#x278e;" horiz-adv-x="776" d="M388 -6 C597 -6 741 136 741 341 C741 547 597 690 388 690 C179 690 35 547 35 341 C35 136 179 -6 388 -6 L388 -6 Z M386 129 C310 129 257 149 227 168 C226 216 228 235 236 268 C264 270 291 269 318 266 L320 217 C334 213 348 211 364 211 C417 211 446 228 446 268 C446 300 416 328 359 328 C341 328 323 326 306 321 C287 320 269 322 251 325 L263 557 L533 557 C538 529 538 499 533 472 L345 472 L341 405 C355 407 368 408 379 408 C502 408 566 354 566 273 C566 181 504 129 386 129 L386 129 Z " />
<glyph glyph-name="uni278F" unicode="&#x278f;" horiz-adv-x="776" d="M388 -6 C597 -6 741 136 741 341 C741 547 597 690 388 690 C179 690 35 547 35 341 C35 136 179 -6 388 -6 L388 -6 Z M382 130 C265 130 203 196 203 305 C203 411 262 547 462 581 C477 563 487 541 495 517 C388 488 335 428 320 367 C347 392 387 407 432 407 C515 407 559 347 559 273 C559 188 493 130 382 130 L382 130 Z M380 205 C412 205 439 229 439 277 C439 313 423 345 384 345 C353 345 323 317 321 272 C323 232 348 205 380 205 L380 205 Z " />
<glyph glyph-name="uni2790" unicode="&#x2790;" horiz-adv-x="776" d="M388 -6 C597 -6 741 136 741 341 C741 547 597 690 388 690 C179 690 35 547 35 341 C35 136 179 -6 388 -6 L388 -6 Z M292 129 C318 244 371 355 438 465 L245 465 C241 493 241 522 245 550 L561 550 C562 533 562 517 561 500 C486 347 444 240 422 129 L292 129 Z " />
</font>
</svg>
