<svg width="245" height="48" fill="none" xmlns="http://www.w3.org/2000/svg"><path d="M22.357 21.451c-1.155-2.318-2.133-4.723-3.206-7.079-1.227-2.701-2.414-5.422-3.614-8.133-.734-1.657-1.454-3.318-2.183-4.975L12.797 0h8.763c0 .073-.027.164 0 .224 1.015 2.154 1.852 4.386 2.772 6.581.715 1.712 1.377 3.45 2.06 5.176-.199.06-.199.242-.258.402-.71 1.875-1.4 3.765-2.17 5.614-.488 1.177-1.077 2.314-1.412 3.555-.068-.037-.131-.069-.2-.105l.005.005zM39.757 0c-.543 1.958-1.4 3.797-2.196 5.655-.548 1.283-1.11 2.56-1.649 3.843-1.005 2.387-2.024 4.765-3.03 7.152-.615 1.46-1.213 2.921-1.902 4.345-.176.027-.217-.11-.271-.228-.245-.53-.494-1.054-.73-1.588-.883-1.99-1.775-3.976-2.64-5.97-.176-.411-.462-.776-.52-1.237.09-.575.253-1.118.48-1.657 1.168-2.848 2.323-5.7 3.441-8.571.222-.571.625-1.087.589-1.744H39.757zM31.116 21.246c1.182.292 2.4.32 3.6.434 1.264.123 2.528.223 3.787.433.729.119 1.48.023 2.223.128.852.123 1.717.137 2.568.32.562.118 1.137.054 1.712.127 1.938.242 3.89.402 5.838.59.883.081 1.766.159 2.649.218.195.014.349.082.507.16-.29 1.009-.974 1.775-1.453 2.656-.77 1.424-1.59 2.821-2.37 4.24-.398.726-.67.84-1.466.712-1.124-.187-2.256-.305-3.383-.451-1.092-.142-2.179-.338-3.28-.416-.96-.068-1.888-.31-2.843-.388-.639-.05-1.277-.155-1.916-.233-.335-.798-.883-1.442-1.422-2.099-1.53-1.867-2.844-3.912-4.425-5.737-.163-.187-.371-.388-.326-.694zM37.157 29.786c.634.99 1.45 1.84 2.152 2.78 1.39 1.866 2.798 3.72 4.234 5.545.376.479.697.995 1.091 1.456.204.237.213.424.046.698-1.282 2.109-2.554 4.226-3.646 6.445-.131.264-.308.502-.507.826-.417-.64-.901-1.164-1.309-1.744-2.151-3.058-4.393-6.047-6.608-9.06-1.526-2.08-3.038-4.176-4.583-6.243-.34-.452-.72-.863-.937-1.397a.762.762 0 01.593-.1c.765.182 1.553.082 2.323.205 1.046.169 2.106.2 3.161.265 1.332.077 2.645.383 3.99.315v.009z" fill="#0090BE"/><path d="M26.628 28.987c.059.374-.15.63-.344.913-.92 1.341-1.82 2.715-2.772 4.025-1.055 1.452-2.052 2.953-3.098 4.414a280.319 280.319 0 00-4.624 6.654c-.634.94-1.354 1.826-1.96 2.794-.223.351-.413.219-.562-.041-.394-.699-.761-1.415-1.16-2.11a368.379 368.379 0 00-2.5-4.308c-.258-.442-.389-.798 0-1.31 1.962-2.578 3.873-5.194 5.806-7.8.281-.379.567-.757.875-1.123.126-.15.24-.287.24-.492.86-.366 1.793-.407 2.694-.576 1.232-.228 2.482-.37 3.723-.543 1.227-.173 2.445-.415 3.686-.497h-.004z" fill="#FFA409"/><path d="M37.157 29.786c-1.345.068-2.658-.238-3.99-.315-1.055-.064-2.115-.096-3.16-.265-.77-.123-1.559-.027-2.324-.205a.744.744 0 00-.593.1c-.113-.036-.227-.078-.34-.114l.218-.434c.271-.086.317-.356.42-.566.974-1.875 1.907-3.774 2.944-5.618.168-.301.462-.557.508-.927-.77-.009-1.5.06-2.238.023-1.974-.096-3.944.073-5.914.21-.046-.04-.09-.082-.14-.123.335-1.241.923-2.378 1.412-3.555.77-1.854 1.454-3.739 2.17-5.614.059-.16.059-.343.258-.402l.43-.014c.059.461.344.826.52 1.237.861 2 1.753 3.985 2.641 5.97.236.534.485 1.059.73 1.588.054.12.094.256.271.229.023.1.018.21.136.255-.045.306.163.507.326.694 1.585 1.826 2.894 3.87 4.425 5.737.539.657 1.091 1.3 1.422 2.1-.046 0-.091.004-.136.009h.004z" fill="#0090BE" fill-opacity=".4"/><path d="M16.252 30.174c-1.73.356-3.478.593-5.212.899-2.097.365-4.23.456-6.3.986-.444.114-.625-.183-.81-.512-1.196-2.122-2.405-4.244-3.61-6.362-.127-.22-.349-.393-.317-.712 1.087-.137 2.16-.27 3.234-.402.946-.118 1.897-.223 2.844-.351 1.037-.137 2.07-.301 3.106-.438 1.35-.178 2.7-.32 4.05-.534.81-.128 1.648-.165 2.472-.27 1.549-.2 3.093-.433 4.646-.639.585-.077 1.178-.11 1.767-.16-.145.284-.154.612-.344.886-1.585 2.355-3.162 4.72-4.82 7.02-.18.25-.348.543-.706.584v.005z" fill="#FFA409"/><path d="M26.968 28.553l-.218.434h-.122c-1.241.082-2.46.324-3.686.498-1.241.173-2.491.314-3.723.543-.901.169-1.834.21-2.695.575-.018-.192-.05-.375-.272-.434.358-.04.526-.333.707-.584 1.662-2.3 3.233-4.67 4.819-7.02.185-.278.199-.602.344-.885.077-.078.158-.15.235-.228.068.036.132.068.2.105.045.04.09.082.14.123.014.11-.014.265.05.324.502.452.71 1.1 1.073 1.643.589.895 1.146 1.807 1.721 2.707.471.734.793 1.574 1.431 2.2h-.004z" fill="#FFA409" fill-opacity=".2"/><path d="M26.968 28.553c-.643-.62-.96-1.46-1.431-2.2-.576-.899-1.133-1.816-1.721-2.706-.358-.548-.571-1.191-1.074-1.643-.063-.055-.036-.215-.05-.324 1.97-.137 3.94-.31 5.915-.21.738.036 1.467-.032 2.237-.023-.045.37-.34.625-.507.927-1.042 1.839-1.975 3.738-2.944 5.618-.108.21-.15.48-.42.566l-.005-.005z" fill="#ECF7FA"/><rect x="62" y="28.069" width="182.067" height="15.931" fill="#0090BE"/><path d="M97.353 40.586h-1.707l-3.127-5.27c-.287-.492-.492-.984-.492-.984H92s.055.506.055 1.024v5.23h-1.857v-9.394h1.952l2.882 4.82c.286.478.478.901.478.901h.027s-.055-.45-.055-.942v-4.78h1.871v9.395zM111.231 40.586h-4.807v-9.394h4.807v1.488h-2.581v2.39h2.253v1.447h-2.253v2.581h2.581v1.488zM126.934 35.848c0 2.704-1.093 4.875-4.124 4.875-1.215 0-2.171-.205-2.827-.546V31.6c.683-.327 1.571-.546 2.718-.546 3.058 0 4.233 2.062 4.233 4.793zm-2.24-.04c0-2.322-.546-3.305-1.898-3.305-.259 0-.45.027-.628.095v6.5c.164.055.396.096.655.096 1.352 0 1.871-.915 1.871-3.387zM140.523 40.586h-4.807v-9.394h4.807v1.488h-2.581v2.39h2.253v1.447h-2.253v2.581h2.581v1.488zM156.157 40.586h-2.43l-2.226-4.15h-.027v4.15h-2.185v-8.985c.683-.327 1.666-.546 2.827-.546 2.539 0 3.714 1.147 3.714 2.936 0 1.229-.942 2.199-2.171 2.39v.027l2.498 4.178zm-2.498-6.486c0-1.201-.369-1.789-1.543-1.789-.274 0-.478.055-.642.123v3.441c.082.028.287.055.478.055 1.147 0 1.707-.696 1.707-1.83zM169.264 40.586h-4.602v-9.394h2.212v7.906h2.39v1.488zM185.276 40.586h-2.281l-.573-2.007h-2.827l-.601 2.007h-1.98l3.059-9.394h2.158l3.045 9.394zm-3.155-3.277l-.833-3.058a7.175 7.175 0 01-.218-1.134h-.027s-.055.464-.246 1.134l-.874 3.058h2.198zM200.669 40.586h-1.707l-3.127-5.27c-.287-.492-.492-.984-.492-.984h-.027s.055.506.055 1.024v5.23h-1.858v-9.394h1.953l2.881 4.82c.287.478.478.901.478.901h.028s-.055-.45-.055-.942v-4.78h1.871v9.395zM216.69 35.848c0 2.704-1.092 4.875-4.124 4.875-1.215 0-2.171-.205-2.826-.546V31.6c.682-.327 1.57-.546 2.717-.546 3.059 0 4.233 2.062 4.233 4.793zm-2.239-.04c0-2.322-.546-3.305-1.898-3.305-.26 0-.451.027-.628.095v6.5c.163.055.396.096.655.096 1.352 0 1.871-.915 1.871-3.387z" fill="#fff"/><path d="M70.644 19.469c-.717.553-1.741.84-3.093.84-3.81 0-5.551-3.441-5.551-7.251 0-3.748 1.782-7.25 5.571-7.25 1.373 0 2.356.306 3.052.818l-.676 2.008c-.389-.246-.88-.43-1.659-.43-2.171 0-2.867 2.416-2.867 4.833 0 2.397.798 4.732 2.847 4.732.778 0 1.167-.164 1.618-.43l.758 2.13zM81.269 14.758l-6.616.942c.225 1.618 1.044 2.417 2.662 2.417 1.29 0 2.274-.287 2.868-.594l.717 1.987c-.86.43-2.09.799-3.953.799-3.38 0-5.326-2.233-5.326-5.756 0-3.461 1.803-5.694 4.978-5.694 3.195 0 4.813 2.171 4.67 5.899zm-2.97-1.188c0-1.966-.656-2.827-1.823-2.827-1.311 0-2.13 1.127-2.028 3.4l3.85-.573zM89.293 8.9l-.594 2.253c-.778-.328-1.597-.307-2.13-.061v9.012h-3.195V9.678c1.229-.594 2.95-.921 5.92-.778zM96.367 19.96c-.266.123-.84.308-1.577.308-2.314 0-3.318-1.495-3.318-3.195v-5.94h-1.209v-2.07h1.209V6.709l3.195-.819v3.175h1.7v2.069h-1.7v5.694c0 .84.308 1.29 1.024 1.29.267 0 .41-.04.676-.123v1.966zM101.719 5.889c0 .84-.758 1.495-1.7 1.495-.943 0-1.7-.655-1.7-1.495 0-.82.757-1.495 1.7-1.495.942 0 1.7.676 1.7 1.495zm-.103 14.215h-3.195V9.064h3.195v11.04zM109.733 11.133h-1.7v8.97h-3.195v-8.97h-1.209v-2.07h1.209V7.938c0-2.765 1.904-4.22 4.895-3.891v2.027c-1.065-.04-1.7.328-1.7 1.598v1.393h1.7v2.069zM114.844 5.889c0 .84-.758 1.495-1.7 1.495s-1.7-.655-1.7-1.495c0-.82.758-1.495 1.7-1.495s1.7.676 1.7 1.495zm-.102 14.215h-3.196V9.064h3.196v11.04zM124.169 19.51c-.471.45-1.311.799-2.703.799-2.622 0-4.548-2.049-4.548-5.756 0-3.728 2.069-5.694 4.527-5.694 1.352 0 2.212.39 2.704.799l-.656 1.761c-.286-.225-.676-.43-1.311-.43-1.392 0-2.048 1.27-2.048 3.523 0 2.233.758 3.523 2.028 3.523.594 0 1.004-.164 1.331-.45l.676 1.925zM134.849 14.758l-6.616.942c.225 1.618 1.044 2.417 2.662 2.417 1.291 0 2.274-.287 2.868-.594l.717 1.987c-.86.43-2.089.799-3.953.799-3.38 0-5.326-2.233-5.326-5.756 0-3.461 1.803-5.694 4.978-5.694 3.195 0 4.813 2.171 4.67 5.899zm-2.97-1.188c0-1.966-.656-2.827-1.823-2.827-1.311 0-2.13 1.127-2.028 3.4l3.851-.573zM142.873 8.9l-.594 2.253c-.778-.328-1.597-.307-2.13-.061v9.012h-3.195V9.678c1.229-.594 2.949-.921 5.919-.778zM147.756 5.889c0 .84-.758 1.495-1.7 1.495s-1.7-.655-1.7-1.495c0-.82.758-1.495 1.7-1.495s1.7.676 1.7 1.495zm-.103 14.215h-3.195V9.064h3.195v11.04zM159.6 20.104h-3.195v-7.722c0-.778-.348-1.536-1.639-1.536-.634 0-.983.102-1.351.225v9.033h-3.196V9.678c1.106-.491 2.663-.819 4.629-.819 3.503 0 4.752 1.495 4.752 3.502v7.743zM171.299 20.186c0 3.134-2.007 4.567-4.833 4.567-1.701 0-3.237-.327-4.117-.819l.819-2.069c.676.37 1.679.656 2.724.656 1.68 0 2.294-.799 2.294-2.069v-.614c-.369.204-1.004.348-1.925.348-2.643 0-4.547-2.028-4.547-5.326 0-3.686 1.884-6.001 5.673-6.001 1.7 0 3.134.348 3.912.82v10.507zm-3.113-2.09v-7.21c-.246-.122-.573-.184-1.004-.184-1.638 0-2.314 1.332-2.314 3.974 0 2.499.655 3.687 2.253 3.687.43 0 .799-.102 1.065-.266zM180.586 16.806c0 1.926-1.577 3.482-4.199 3.482-1.352 0-2.56-.348-3.236-.799l.819-2.027c.41.327 1.167.635 1.966.635.82 0 1.373-.513 1.373-1.209 0-.737-.39-1.147-1.414-1.557-2.027-.798-2.478-1.925-2.478-3.072 0-1.884 1.475-3.4 3.687-3.4 1.372 0 2.314.266 3.175.799l-.779 1.823c-.327-.267-.962-.574-1.679-.574-.84 0-1.27.512-1.27 1.147 0 .738.553 1.147 1.413 1.516 2.13.901 2.622 1.946 2.622 3.236z" fill="#0090BE"/><path d="M195.33 20.104h-3.421l-.86-3.011h-4.24l-.901 3.01h-2.97l4.588-14.091h3.236l4.568 14.092zm-4.732-4.916l-1.249-4.588c-.266-.983-.328-1.7-.328-1.7h-.041s-.082.696-.368 1.7l-1.311 4.588h3.297zM205.966 19.49c-1.003.532-2.314.819-4.219.819-3.339 0-5.428-1.967-5.428-5.654 0-3.543 2.007-5.714 4.854-5.714a6.76 6.76 0 011.618.184v-5.1h3.175v15.464zm-3.175-1.373v-7.271a2.95 2.95 0 00-.88-.123c-1.762 0-2.438 1.515-2.438 3.789 0 2.396.717 3.769 2.335 3.769.43 0 .758-.041.983-.164zM217.689 9.064l-3.503 11.04h-3.093l-3.543-11.04h3.379l1.577 6.35c.205.86.246 1.679.246 1.679h.041s.062-.799.287-1.68l1.618-6.35h2.991zM222.614 5.889c0 .84-.758 1.495-1.7 1.495s-1.7-.655-1.7-1.495c0-.82.758-1.495 1.7-1.495s1.7.676 1.7 1.495zm-.103 14.215h-3.195V9.064h3.195v11.04zM234.335 14.758l-6.615.942c.225 1.618 1.044 2.417 2.662 2.417 1.291 0 2.274-.287 2.868-.594l.717 1.987c-.861.43-2.089.798-3.953.798-3.38 0-5.326-2.232-5.326-5.755 0-3.462 1.803-5.694 4.977-5.694 3.196 0 4.814 2.17 4.67 5.899zm-2.97-1.188c0-1.967-.655-2.827-1.822-2.827-1.311 0-2.131 1.127-2.028 3.4l3.85-.573zM243.18 16.806c0 1.925-1.577 3.482-4.199 3.482-1.351 0-2.56-.348-3.236-.799l.82-2.027c.409.327 1.167.634 1.966.634.819 0 1.372-.512 1.372-1.208 0-.737-.389-1.147-1.413-1.557-2.028-.798-2.478-1.925-2.478-3.072 0-1.885 1.474-3.4 3.686-3.4 1.373 0 2.315.266 3.175.799l-.778 1.823a2.814 2.814 0 00-1.68-.574c-.84 0-1.27.512-1.27 1.147 0 .737.553 1.147 1.414 1.516 2.13.901 2.621 1.946 2.621 3.236z" fill="#FFA409"/></svg>