<?xml version="1.0" encoding="UTF-8" standalone="no"?>
<!DOCTYPE svg PUBLIC "-//W3C//DTD SVG 1.1//EN" "http://www.w3.org/Graphics/SVG/1.1/DTD/svg11.dtd">
<svg width="100%" height="100%" viewBox="0 0 512 194" version="1.1" xmlns="http://www.w3.org/2000/svg" xmlns:xlink="http://www.w3.org/1999/xlink" xml:space="preserve" xmlns:serif="http://www.serif.com/" style="fill-rule:evenodd;clip-rule:evenodd;stroke-linejoin:round;stroke-miterlimit:2;">
    <g>
        <path d="M0,97.351L96.648,193.999L118.952,171.695L118.952,141.958L74.345,141.958L74.345,112.22L118.952,112.22L118.952,82.482L74.345,82.482L74.345,52.744L118.952,52.744L118.952,23.006L96.648,0.702L0,97.351Z" style="fill:rgb(234,7,139);fill-rule:nonzero;"/>
        <path d="M118.952,171.695L118.952,141.958L74.345,141.958L74.345,112.22L118.952,112.22L118.952,82.482L74.345,82.482L74.345,52.744L118.952,52.744L118.952,23.006L193.297,97.351L118.952,171.695Z" style="fill:rgb(184,212,50);fill-rule:nonzero;"/>
        <path d="M382.667,127.229L403.007,97.351L382.667,67.613L398.519,67.613L410.862,85.849L423.347,67.613L439.198,67.613L418.858,97.351L439.198,127.229L423.347,127.229L410.862,108.993L398.519,127.229L382.667,127.229Z" style="fill:rgb(105,106,108);fill-rule:nonzero;"/>
        <path d="M326.277,127.79L326.277,67.613L312.391,67.613L312.391,100.437L282.091,67.613L270.448,67.613L270.448,127.229L284.335,127.229L284.335,90.338L318.983,127.79L326.277,127.79Z" style="fill:rgb(105,106,108);fill-rule:nonzero;"/>
        <path d="M376.355,127.229L376.355,115.306L352.228,115.306L352.228,103.383L374.952,103.383L374.952,91.319L352.228,91.319L352.228,79.536L376.355,79.536L376.355,67.613L338.762,67.613L338.762,127.229L376.355,127.229Z" style="fill:rgb(105,106,108);fill-rule:nonzero;"/>
        <rect x="447.474" y="67.613" width="14.448" height="59.476" style="fill:rgb(105,106,108);fill-rule:nonzero;"/>
        <path d="M512,109.274C512,98.754 505.267,92.862 493.765,89.636C489.136,88.374 486.751,86.691 486.751,83.745C486.751,80.799 489.136,78.554 494.045,78.554C498.113,78.554 502.882,80.238 505.407,81.641L508.072,69.998C505.688,68.595 499.937,66.631 493.203,66.631C480.298,66.631 473.004,74.627 473.004,84.446C473.004,93.423 478.475,99.877 490.117,103.102C495.588,104.645 497.832,106.609 497.832,109.976C497.832,113.622 494.606,115.867 489.416,115.867C483.384,115.867 477.072,113.483 472.303,110.115L473.705,123.582C477.212,125.686 483.665,127.65 490.397,127.65C504.565,128.07 512,120.777 512,109.274Z" style="fill:rgb(105,106,108);fill-rule:nonzero;"/>
        <path d="M260.629,127.229L260.629,115.306L236.502,115.306L236.502,103.383L259.226,103.383L259.226,91.319L236.502,91.319L236.502,79.536L260.629,79.536L260.629,67.613L223.036,67.613L223.036,127.229L260.629,127.229Z" style="fill:rgb(105,106,108);fill-rule:nonzero;"/>
        <path d="M0,97.351L96.648,193.999L118.952,171.695L118.952,141.958L74.345,141.958L74.345,112.22L118.952,112.22L118.952,82.482L74.345,82.482L74.345,52.744L118.952,52.744L118.952,23.006L96.648,0.702L0,97.351Z" style="fill:rgb(234,7,139);fill-rule:nonzero;"/>
        <path d="M118.952,171.695L118.952,141.958L74.345,141.958L74.345,112.22L118.952,112.22L118.952,82.482L74.345,82.482L74.345,52.744L118.952,52.744L118.952,23.006L193.297,97.351L118.952,171.695Z" style="fill:rgb(184,212,50);fill-rule:nonzero;"/>
        <path d="M382.667,127.229L403.007,97.351L382.667,67.613L398.519,67.613L410.862,85.849L423.347,67.613L439.198,67.613L418.858,97.351L439.198,127.229L423.347,127.229L410.862,108.993L398.519,127.229L382.667,127.229Z" style="fill:rgb(105,106,108);fill-rule:nonzero;"/>
        <path d="M326.277,127.79L326.277,67.613L312.391,67.613L312.391,100.437L282.091,67.613L270.448,67.613L270.448,127.229L284.335,127.229L284.335,90.338L318.983,127.79L326.277,127.79Z" style="fill:rgb(105,106,108);fill-rule:nonzero;"/>
        <path d="M376.355,127.229L376.355,115.306L352.228,115.306L352.228,103.383L374.952,103.383L374.952,91.319L352.228,91.319L352.228,79.536L376.355,79.536L376.355,67.613L338.762,67.613L338.762,127.229L376.355,127.229Z" style="fill:rgb(105,106,108);fill-rule:nonzero;"/>
        <rect x="447.474" y="67.613" width="14.448" height="59.476" style="fill:rgb(105,106,108);fill-rule:nonzero;"/>
        <path d="M512,109.274C512,98.754 505.267,92.862 493.765,89.636C489.136,88.374 486.751,86.691 486.751,83.745C486.751,80.799 489.136,78.554 494.045,78.554C498.113,78.554 502.882,80.238 505.407,81.641L508.072,69.998C505.688,68.595 499.937,66.631 493.203,66.631C480.298,66.631 473.004,74.627 473.004,84.446C473.004,93.423 478.475,99.877 490.117,103.102C495.588,104.645 497.832,106.609 497.832,109.976C497.832,113.622 494.606,115.867 489.416,115.867C483.384,115.867 477.072,113.483 472.303,110.115L473.705,123.582C477.212,125.686 483.665,127.65 490.397,127.65C504.565,128.07 512,120.777 512,109.274Z" style="fill:rgb(105,106,108);fill-rule:nonzero;"/>
        <path d="M260.629,127.229L260.629,115.306L236.502,115.306L236.502,103.383L259.226,103.383L259.226,91.319L236.502,91.319L236.502,79.536L260.629,79.536L260.629,67.613L223.036,67.613L223.036,127.229L260.629,127.229Z" style="fill:rgb(105,106,108);fill-rule:nonzero;"/>
    </g>
</svg>
