<svg xmlns="http://www.w3.org/2000/svg" viewBox="0 0 2162 602" width="2162" height="602"><defs></defs><g transform="matrix(1,0,0,1,0,-87)">
<g transform="matrix(1,0,0,1,0,87)">
	<g transform="matrix(1,0,0,1,1081,376.5)">
		<g transform="matrix(1,0,0,1,0,-87)">
			<g>
				<path d="M-1080.5,-376C-1080.5,-376 1081.5,-376 1081.5,-376 C1081.5,-376 1081.5,377 1081.5,377 C1081.5,377 -1080.5,377 -1080.5,377 C-1080.5,377 -1080.5,-376 -1080.5,-376 Z" fill="#ffffff"/>
			</g>
			<g>
				<g>
					<g>
						<g>
							<path d="M446.810606,-163.556124C446.810606,-163.556124 812.172694,-163.556124 812.172694,-163.556124 C812.172694,-163.556124 812.172694,175.622807 812.172694,175.622807 C812.172694,175.622807 446.810606,175.622807 446.810606,175.622807 C446.810606,175.622807 446.810606,-163.556124 446.810606,-163.556124 C446.810606,-163.556124 446.810606,-163.556124 446.810606,-163.556124 Z" fill="#000000"/>
						</g>
						<g>
							<path d="M223.342909,196.613948C223.342909,196.613948 223.342909,-137.595597 223.342909,-137.595597 C223.342909,-137.595597 315.902867,-137.595597 315.902867,-137.595597 C315.902867,-137.595597 315.902867,-43.172119 315.902867,-43.172119 C315.902867,-43.172119 302.857558,-70.505308 302.857558,-70.505308 C312.796628,-94.111084 328.740895,-112.022511 350.690358,-124.239589 C372.639523,-136.456667 399.351389,-142.565206 430.825956,-142.565206 C430.825956,-82.929295 430.825956,-53.111339 430.825956,-53.111339 C426.684503,-53.525454 422.957314,-53.836078 419.64439,-54.04321 C416.331168,-54.250343 412.810963,-54.353909 409.083774,-54.353909 C382.578891,-54.353909 361.147259,-46.795891 344.788877,-31.679855 C328.430494,-16.56382 320.251303,6.938539 320.251303,38.827222 C320.251303,144.018373 320.251303,196.613948 320.251303,196.613948 C320.251303,196.613948 223.342909,196.613948 223.342909,196.613948 C223.342909,196.613948 223.342909,196.613948 223.342909,196.613948 C223.342909,196.613948 223.342909,196.613948 223.342909,196.613948 Z" fill="#ffffff"/>
						</g>
						<g>
							<path d="M492.927189,102.104191C492.927189,102.104191 574.895684,-81.799753 574.895684,-81.799753 C574.895684,-81.799753 616.931165,-81.799753 616.931165,-81.799753 C616.931165,-81.799753 699.162077,102.104191 699.162077,102.104191 C699.162077,102.104191 654.499741,102.104191 654.499741,102.104191 C654.499741,102.104191 587.243598,-60.256731 587.243598,-60.256731 C587.243598,-60.256731 604.057522,-60.256731 604.057522,-60.256731 C604.057522,-60.256731 536.538514,102.104191 536.538514,102.104191 C536.538514,102.104191 492.927189,102.104191 492.927189,102.104191 C492.927189,102.104191 492.927189,102.104191 492.927189,102.104191 C492.927189,102.104191 492.927189,102.104191 492.927189,102.104191 ZM533.91166,62.696235C533.91166,62.696235 545.208564,30.38159 545.208564,30.38159 C545.208564,30.38159 639.78739,30.38159 639.78739,30.38159 C639.78739,30.38159 651.347159,62.696235 651.347159,62.696235 C651.347159,62.696235 533.91166,62.696235 533.91166,62.696235 C533.91166,62.696235 533.91166,62.696235 533.91166,62.696235 C533.91166,62.696235 533.91166,62.696235 533.91166,62.696235 ZM718.340885,102.104191C718.340885,102.104191 718.340885,-81.799753 718.340885,-81.799753 C718.340885,-81.799753 760.901648,-81.799753 760.901648,-81.799753 C760.901648,-81.799753 760.901648,102.104191 760.901648,102.104191 C760.901648,102.104191 718.340885,102.104191 718.340885,102.104191 C718.340885,102.104191 718.340885,102.104191 718.340885,102.104191 C718.340885,102.104191 718.340885,102.104191 718.340885,102.104191 Z" fill="#ffffff"/>
						</g>
						<g>
							<path d="M944.214147,6.033342C944.214147,6.033342 812.172694,175.622807 812.172694,175.622807 C812.172694,175.622807 812.172694,-163.556124 812.172694,-163.556124 C812.172694,-163.556124 944.214147,6.033342 944.214147,6.033342 C944.214147,6.033342 944.214147,6.033342 944.214147,6.033342 Z" fill="#000000"/>
						</g>
						<g>
							<path d="M223.342909,134.356249C223.342909,134.356249 223.342909,-199.853296 223.342909,-199.853296 C223.342909,-199.853296 315.902867,-199.853296 315.902867,-199.853296 C315.902867,-199.853296 315.902867,-105.429819 315.902867,-105.429819 C315.902867,-105.429819 302.857558,-132.763007 302.857558,-132.763007 C312.796628,-156.368783 328.740895,-174.280211 350.690358,-186.497289 C372.639523,-198.714367 399.351389,-204.822906 430.825956,-204.822906 C430.825956,-145.186994 430.825956,-115.369038 430.825956,-115.369038 C426.684503,-115.783154 422.957314,-116.093778 419.64439,-116.30091 C416.331168,-116.508042 412.810963,-116.611608 409.083774,-116.611608 C382.578891,-116.611608 361.147259,-109.05359 344.788877,-93.937555 C328.430494,-78.821519 320.251303,-55.31916 320.251303,-23.430478 C320.251303,81.760673 320.251303,134.356249 320.251303,134.356249 C320.251303,134.356249 223.342909,134.356249 223.342909,134.356249 C223.342909,134.356249 223.342909,134.356249 223.342909,134.356249 C223.342909,134.356249 223.342909,134.356249 223.342909,134.356249 Z" fill="#ffffff"/>
						</g>
					</g>
					<g>
						<path d="M-936.156494,186.804688C-936.156494,186.804688 -936.156494,-274.130981 -936.156494,-274.130981 C-936.156494,-274.130981 -839.248184,-274.130981 -839.248184,-274.130981 C-839.248184,-274.130981 -839.248184,-54.844879 -839.248184,-54.844879 C-839.248184,-54.844879 -860.990433,-82.799194 -860.990433,-82.799194 C-848.980433,-105.162659 -831.793701,-122.349391 -809.430237,-134.35939 C-787.066793,-146.36939 -761.59731,-152.37439 -733.02179,-152.37439 C-706.516947,-152.37439 -682.807536,-147.094131 -661.893555,-136.533615 C-640.979594,-125.973089 -624.517609,-109.821706 -612.507599,-88.079468 C-600.497609,-66.337219 -594.492615,-38.48643 -594.492615,-4.5271 C-594.492615,123.027425 -594.492615,186.804688 -594.492615,186.804688 C-594.492615,186.804688 -691.400909,186.804688 -691.400909,186.804688 C-691.400909,186.804688 -691.400909,10.381866 -691.400909,10.381866 C-691.400909,-16.53712 -697.302378,-36.415751 -709.105316,-49.254028 C-720.908234,-62.092306 -737.577291,-68.511444 -759.112488,-68.511444 C-774.435588,-68.511444 -788.205678,-65.30187 -800.42276,-58.882721 C-812.639821,-52.463593 -822.164993,-42.627818 -828.998276,-29.375397 C-835.831548,-16.122976 -839.248184,0.856689 -839.248184,21.563599 C-839.248184,131.724325 -839.248184,186.804688 -839.248184,186.804688 C-839.248184,186.804688 -936.156494,186.804688 -936.156494,186.804688 C-936.156494,186.804688 -936.156494,186.804688 -936.156494,186.804688 C-936.156494,186.804688 -936.156494,186.804688 -936.156494,186.804688 ZM-424.903076,191.774353C-463.003784,191.774353 -496.445435,184.319865 -525.228027,169.410889 C-554.01062,154.501912 -576.270538,134.105611 -592.007782,108.221985 C-607.745026,82.338359 -615.613647,52.831024 -615.613647,19.699982 C-615.613647,-13.845205 -607.848562,-43.559611 -592.31839,-69.443237 C-576.788198,-95.326864 -555.563619,-115.619629 -528.644653,-130.321533 C-501.725667,-145.023438 -471.286519,-152.37439 -437.327209,-152.37439 C-404.610291,-152.37439 -375.102946,-145.437576 -348.805176,-131.56395 C-322.507446,-117.690323 -301.697021,-97.811696 -286.373901,-71.92807 C-271.050781,-46.044444 -263.389221,-15.087626 -263.389221,20.942383 C-263.389221,24.669617 -263.596293,28.91453 -264.010437,33.677124 C-264.424581,38.439718 -264.838725,42.891703 -265.252869,47.033081 C-446.231181,47.033081 -536.720337,47.033081 -536.720337,47.033081 C-536.720337,47.033081 -536.720337,-9.496765 -536.720337,-9.496765 C-536.720337,-9.496765 -316.191833,-9.496765 -316.191833,-9.496765 C-316.191833,-9.496765 -353.464233,7.275818 -353.464233,7.275818 C-353.464233,-10.117981 -356.984416,-25.234019 -364.02478,-38.072296 C-371.065104,-50.910573 -380.797343,-60.95342 -393.221497,-68.200836 C-405.64565,-75.448252 -420.140483,-79.07196 -436.705994,-79.07196 C-453.271505,-79.07196 -467.869873,-75.448252 -480.501099,-68.200836 C-493.132324,-60.95342 -502.968099,-50.807037 -510.008423,-37.761688 C-517.048787,-24.716339 -520.56897,-9.289693 -520.56897,8.51825 C-520.56897,18.45756 -520.56897,23.427216 -520.56897,23.427216 C-520.56897,41.649282 -516.531128,57.697133 -508.455444,71.57077 C-500.37972,85.444387 -488.990906,96.004903 -474.289001,103.252319 C-459.587138,110.499736 -442.296875,114.123444 -422.418213,114.123444 C-404.610311,114.123444 -388.976603,111.431549 -375.51709,106.04776 C-362.057617,100.663951 -349.73702,92.588257 -338.555298,81.820679 C-304.181844,119.093099 -286.995117,137.729309 -286.995117,137.729309 C-302.318197,155.123108 -321.575602,168.479065 -344.767334,177.79718 C-367.959066,187.115295 -394.67098,191.774353 -424.903076,191.774353 C-424.903076,191.774353 -424.903076,191.774353 -424.903076,191.774353 C-424.903076,191.774353 -424.903076,191.774353 -424.903076,191.774353 ZM-277.180054,186.804688C-277.180054,186.804688 -277.180054,-274.130981 -277.180054,-274.130981 C-277.180054,-274.130981 -180.271729,-274.130981 -180.271729,-274.130981 C-180.271729,-274.130981 -180.271729,186.804688 -180.271729,186.804688 C-180.271729,186.804688 -277.180054,186.804688 -277.180054,186.804688 C-277.180054,186.804688 -277.180054,186.804688 -277.180054,186.804688 C-277.180054,186.804688 -277.180054,186.804688 -277.180054,186.804688 Z" fill="#000000"/>
					</g>
					<g>
						<path d="M53.146729,180.59259C24.98527,180.59259 0.344035,174.380514 -20.776978,161.95636 C-41.89799,149.532247 -58.359965,130.585439 -70.162903,105.115936 C-81.965841,79.646454 -87.86731,47.447225 -87.86731,8.51825 C-87.86731,-30.82487 -82.276449,-63.127645 -71.094727,-88.390076 C-59.913005,-113.652486 -43.761637,-132.495763 -22.640625,-144.919907 C-1.519531,-157.34405 23.74292,-163.556122 53.146729,-163.556122 C84.621175,-163.556122 112.886068,-156.412242 137.941406,-142.124481 C162.996826,-127.836711 182.875448,-107.854543 197.577271,-82.177979 C212.279175,-56.501424 219.630127,-26.269348 219.630127,8.51825 C219.630127,43.719971 212.279175,74.159119 197.577271,99.835693 C182.875448,125.512248 162.996826,145.390869 137.941406,159.471558 C112.886068,173.552246 84.621175,180.59259 53.146729,180.59259 C53.146729,180.59259 53.146729,180.59259 53.146729,180.59259 C53.146729,180.59259 53.146729,180.59259 53.146729,180.59259 ZM-144.397156,296.137146C-144.397156,296.137146 -144.397156,-158.586456 -144.397156,-158.586456 C-144.397156,-158.586456 -51.83728,-158.586456 -51.83728,-158.586456 C-51.83728,-158.586456 -51.83728,-90.253693 -51.83728,-90.253693 C-51.83728,-90.253693 -53.700928,9.139435 -53.700928,9.139435 C-53.700928,9.139435 -47.488892,107.911377 -47.488892,107.911377 C-47.488892,107.911377 -64.003601,295.834778 -64.003601,295.834778 C-64.003601,295.834778 -144.397156,296.137146 -144.397156,296.137146 C-144.397156,296.137146 -144.397156,296.137146 -144.397156,296.137146 C-144.397156,296.137146 -144.397156,296.137146 -144.397156,296.137146 ZM36.374146,101.078094C52.525513,101.078094 66.916789,97.35085 79.547974,89.896362 C92.179159,82.441874 102.325562,71.777822 109.987183,57.904205 C117.648722,44.030589 121.479492,27.568604 121.479492,8.51825 C121.479492,-10.946248 117.648722,-27.51177 109.987183,-41.178314 C102.325562,-54.844879 92.179159,-65.405406 79.547974,-72.859894 C66.916789,-80.314382 52.525513,-84.041626 36.374146,-84.041626 C20.222697,-84.041626 5.727865,-80.314382 -7.110352,-72.859894 C-19.948649,-65.405406 -30.095052,-54.844879 -37.549561,-41.178314 C-45.004069,-27.51177 -48.731323,-10.946248 -48.731323,8.51825 C-48.731323,27.568604 -45.004069,44.030589 -37.549561,57.904205 C-30.095052,71.777822 -19.948649,82.441874 -7.110352,89.896362 C5.727865,97.35085 20.222697,101.078094 36.374146,101.078094 C36.374146,101.078094 36.374146,101.078094 36.374146,101.078094 C36.374146,101.078094 36.374146,101.078094 36.374146,101.078094 ZM198.509155,175.622925C198.509155,175.622925 198.509155,-158.586456 198.509155,-158.586456 C198.509155,-158.586456 291.06897,-158.586456 291.06897,-158.586456 C291.06897,-158.586456 291.06897,-64.162994 291.06897,-64.162994 C291.06897,-64.162994 278.023682,-91.496094 278.023682,-91.496094 C287.962972,-115.101969 303.907267,-133.013443 325.856567,-145.230515 C347.805868,-157.447586 374.517782,-163.556122 405.99231,-163.556122 C405.99231,-103.920237 405.99231,-74.102295 405.99231,-74.102295 C401.850952,-74.516439 398.123698,-74.827047 394.810547,-75.034119 C391.497477,-75.241191 387.977295,-75.344727 384.25,-75.344727 C357.745199,-75.344727 336.313558,-67.786702 319.955078,-52.670654 C303.59668,-37.554626 295.41748,-14.052297 295.41748,17.836334 C295.41748,123.027395 295.41748,175.622925 295.41748,175.622925 C295.41748,175.622925 198.509155,175.622925 198.509155,175.622925 C198.509155,175.622925 198.509155,175.622925 198.509155,175.622925 C198.509155,175.622925 198.509155,175.622925 198.509155,175.622925 Z" fill="#000000"/>
					</g>
				</g>
			</g>
		</g>
	</g>
</g></g></svg>