<svg width="246" height="80" viewBox="0 0 246 80" fill="none" xmlns="http://www.w3.org/2000/svg">
<g clip-path="url(#clip0_5881_1541)">
<path fill-rule="evenodd" clip-rule="evenodd" d="M0 32.0464C0 23.5963 0 15.1441 0 6.694C0 2.99668 3.0146 0 6.73403 0H32.238V8.60848C32.238 8.91194 32.5186 9.13954 32.8217 9.10384C33.0888 9.0726 33.3626 9.05698 33.6387 9.05698C37.5085 9.05698 40.6466 12.1764 40.6466 16.0232C40.6466 19.87 37.5085 22.9894 33.6387 22.9894C33.3626 22.9894 33.0888 22.9738 32.8217 22.9426C32.5186 22.9069 32.238 23.1345 32.238 23.4379V32.0464H22.9877C23.0798 31.5957 23.1269 31.1293 23.1269 30.6541C23.1269 26.8072 19.9888 23.6878 16.119 23.6878C12.2492 23.6878 9.11114 26.8072 9.11114 30.6541C9.11114 31.1316 9.16053 31.5979 9.25031 32.0464H0Z" fill="#F07D00"/>
<path fill-rule="evenodd" clip-rule="evenodd" d="M32.2383 0H57.7513C61.4707 0 64.4763 2.99668 64.4763 6.694V31.5734C64.4763 31.8389 64.2608 32.0464 63.9915 32.0464H55.8164C55.5111 32.0464 55.2821 32.3253 55.318 32.6266C55.3495 32.8921 55.3652 33.1643 55.3652 33.4388C55.3652 37.2856 52.2271 40.405 48.3573 40.405C44.4875 40.405 41.3494 37.2856 41.3494 33.4388C41.3494 33.1643 41.3651 32.8921 41.3966 32.6266C41.4325 32.3253 41.2035 32.0464 40.8982 32.0464H32.2383V23.4379C32.2383 23.1345 32.5189 22.9069 32.8219 22.9426C33.089 22.9738 33.3629 22.9894 33.639 22.9894C37.5088 22.9894 40.6468 19.87 40.6468 16.0232C40.6468 12.1764 37.5088 9.05698 33.639 9.05698C33.3629 9.05698 33.089 9.0726 32.8219 9.10384C32.5189 9.13954 32.2383 8.91195 32.2383 8.60849V0Z" fill="#D76411"/>
<path fill-rule="evenodd" clip-rule="evenodd" d="M32.238 63.6131C32.238 63.8786 32.0203 64.0928 31.7532 64.0928H6.73403C3.0146 64.0928 0 61.0984 0 57.4011C0 48.6966 0 34.3291 0 32.0464H8.65996C8.96524 32.0464 9.1942 31.7675 9.15828 31.4663C9.12685 31.2007 9.11114 30.9285 9.11114 30.6541C9.11114 26.8072 12.2492 23.6878 16.119 23.6878C19.9888 23.6878 23.1269 26.8072 23.1269 30.6541C23.1269 30.9285 23.1112 31.2007 23.0798 31.4663C23.0438 31.7675 23.2728 32.0464 23.5781 32.0464H32.238V40.6549C32.238 40.9584 31.9575 41.186 31.6544 41.1502C31.3873 41.119 31.1135 41.1034 30.8374 41.1034C26.9675 41.1034 23.8295 44.2228 23.8295 48.0696C23.8295 51.9164 26.9675 55.0358 30.8374 55.0358C31.1135 55.0358 31.3873 55.0202 31.6544 54.989C31.9575 54.9533 32.238 55.1809 32.238 55.4843V63.6108V63.6131Z" fill="#D76411"/>
<path fill-rule="evenodd" clip-rule="evenodd" d="M63.9661 36.6363C64.1973 36.5046 64.4936 36.5827 64.6282 36.8125C64.6282 36.8125 72.4824 50.3367 77.1423 58.3605C79.0009 61.5625 77.8943 65.6481 74.6732 67.4978C67.1849 71.7954 54.9178 78.8353 52.9986 79.9375C52.7674 80.0714 52.4778 79.9888 52.3431 79.7568L48.2556 72.7192C48.1029 72.4559 47.746 72.3979 47.4991 72.5808C47.2836 72.7415 47.0547 72.891 46.8145 73.0271C43.4632 74.9505 39.1758 73.8081 37.2409 70.4767C35.306 67.1453 36.4531 62.8834 39.8066 60.96C40.0468 60.8239 40.2892 60.7012 40.5384 60.5941C40.819 60.4736 40.9469 60.1367 40.7943 59.8734L36.7067 52.8357C36.572 52.6059 36.6528 52.3114 36.884 52.1797L43.9637 48.1165C44.2286 47.9647 44.5676 48.0919 44.6888 48.3709C44.7965 48.6163 44.9177 48.8595 45.0569 49.0983C46.9918 52.4296 51.2791 53.5721 54.6304 51.6487C57.9818 49.7253 59.131 45.4634 57.1961 42.132C57.0569 41.8933 56.9065 41.6679 56.7472 41.4515C56.5654 41.2083 56.6215 40.8535 56.8863 40.6995L63.9661 36.6363Z" fill="#F07D00"/>
<path d="M96.5119 0.156189L100.977 13.8075L105.446 0.156189H110.168L103.818 18.2969H98.1123L91.7891 0.156189H96.5119Z" fill="#072C47"/>
<path d="M117.334 3.79996C118.436 3.79996 119.381 4.04764 120.173 4.54299C120.965 5.03835 121.549 5.71444 121.928 6.56905V3.97847H126.317V18.2969H121.928V15.7064C121.549 16.561 120.965 17.2371 120.173 17.7324C119.381 18.2278 118.436 18.4754 117.334 18.4754C116.146 18.4754 115.08 18.1854 114.133 17.603C113.203 17.005 112.463 16.1482 111.913 15.037C111.378 13.9258 111.111 12.6249 111.111 11.1366C111.111 9.64829 111.378 8.3318 111.913 7.23621C112.463 6.12501 113.203 5.2771 114.133 4.69473C115.08 4.09673 116.146 3.79773 117.334 3.79773V3.79996ZM118.752 7.64901C117.805 7.64901 117.04 7.95693 116.456 8.57278C115.888 9.18863 115.605 10.0432 115.605 11.1388C115.605 12.2344 115.89 13.089 116.456 13.7048C117.042 14.3207 117.807 14.6286 118.752 14.6286C119.697 14.6286 120.438 14.3118 121.024 13.6803C121.625 13.0466 121.928 12.2009 121.928 11.1388C121.928 10.0767 121.628 9.21541 121.024 8.59956C120.438 7.96586 119.681 7.64901 118.752 7.64901Z" fill="#072C47"/>
<path d="M138.494 3.82451C140.146 3.82451 141.454 4.37119 142.417 5.46677C143.398 6.56236 143.888 8.06627 143.888 9.98299V18.2969H139.474V10.4962C139.474 9.53895 139.216 8.79369 138.7 8.26263C138.202 7.71595 137.531 7.4415 136.687 7.4415C135.791 7.4415 135.077 7.72265 134.543 8.28941C134.027 8.85393 133.768 9.65721 133.768 10.7015V18.2969H129.355V3.97847H133.768V6.59582C134.182 5.74122 134.792 5.06513 135.602 4.56977C136.428 4.07442 137.391 3.82451 138.494 3.82451Z" fill="#072C47"/>
<path d="M167.74 0.156189V18.2969H163.3V10.7282H156.382V18.2969H151.967V0.156189H156.382V7.18712H163.3V0.156189H167.74Z" fill="#072C47"/>
<path d="M177.511 3.79996C178.939 3.79996 180.214 4.09896 181.332 4.69695C182.468 5.27933 183.354 6.12501 183.992 7.23844C184.645 8.34965 184.973 9.65051 184.973 11.1388C184.973 12.6271 184.645 13.928 183.992 15.0392C183.354 16.1504 182.468 17.0072 181.332 17.6052C180.214 18.1876 178.939 18.4777 177.511 18.4777C176.084 18.4777 174.802 18.1876 173.666 17.6052C172.53 17.0072 171.635 16.1504 170.982 15.0392C170.344 13.928 170.025 12.6271 170.025 11.1388C170.025 9.65051 170.344 8.34965 170.982 7.23844C171.635 6.12724 172.53 5.27933 173.666 4.69695C174.802 4.09896 176.084 3.79996 177.511 3.79996ZM177.511 7.59769C176.667 7.59769 175.954 7.90561 175.37 8.52146C174.802 9.11946 174.519 9.99191 174.519 11.1388C174.519 12.2857 174.804 13.1582 175.37 13.7562C175.956 14.3542 176.67 14.6532 177.511 14.6532C178.353 14.6532 179.06 14.3542 179.628 13.7562C180.196 13.1582 180.479 12.2857 180.479 11.1388C180.479 9.99191 180.194 9.11946 179.628 8.52146C179.06 7.90561 178.355 7.59769 177.511 7.59769Z" fill="#072C47"/>
<path d="M201.587 3.97847V18.2969H197.147V15.7064C196.734 16.5453 196.114 17.2125 195.288 17.7079C194.48 18.2032 193.533 18.4509 192.449 18.4509C190.797 18.4509 189.481 17.9042 188.5 16.8086C187.537 15.7131 187.055 14.2091 187.055 12.2924V3.97847H191.443V11.7547C191.443 12.7298 191.692 13.4906 192.193 14.0396C192.709 14.5706 193.398 14.8339 194.258 14.8339C195.118 14.8339 195.858 14.5528 196.375 13.9882C196.891 13.4237 197.149 12.6204 197.149 11.5762V3.97847H201.589H201.587Z" fill="#072C47"/>
<path d="M212.786 14.526V18.2969H210.799C209.113 18.2969 207.796 17.8864 206.848 17.0652C205.919 16.2263 205.454 14.8495 205.454 12.935V7.67355H203.52V3.97846H205.454V0.464111H209.867V3.98069H212.759V7.67578H209.867V13.0131C209.867 13.5777 209.98 13.9704 210.202 14.1935C210.442 14.4166 210.839 14.5282 211.389 14.5282H212.783L212.786 14.526Z" fill="#072C47"/>
<path d="M228.949 10.7528C228.949 11.112 228.906 11.5048 228.821 11.9332H218.83C218.882 13.0109 219.158 13.7896 219.656 14.2671C220.154 14.729 220.792 14.9611 221.566 14.9611C222.219 14.9611 222.763 14.7982 223.191 14.4724C223.622 14.1467 223.905 13.7294 224.042 13.2162H228.715C228.527 14.2247 228.114 15.1329 227.476 15.9362C226.839 16.7238 226.031 17.3486 225.05 17.8105C224.069 18.2545 222.976 18.4777 221.77 18.4777C220.359 18.4777 219.104 18.1876 218.002 17.6052C216.917 17.0072 216.067 16.1504 215.445 15.0392C214.825 13.928 214.516 12.6271 214.516 11.1388C214.516 9.65051 214.816 8.33403 215.42 7.23844C216.04 6.12724 216.899 5.27933 218.002 4.69695C219.104 4.09896 220.359 3.79996 221.77 3.79996C223.182 3.79996 224.455 4.09003 225.539 4.67241C226.623 5.25479 227.458 6.07592 228.044 7.1358C228.646 8.18006 228.947 9.38498 228.947 10.755L228.949 10.7528ZM224.484 10.0856C224.502 9.144 224.242 8.44336 223.71 7.98148C223.194 7.50174 222.549 7.26299 221.775 7.26299C221.001 7.26299 220.296 7.50174 219.761 7.98148C219.227 8.46121 218.926 9.16185 218.857 10.0856H224.484Z" fill="#072C47"/>
<path d="M240.386 3.82451C242.038 3.82451 243.347 4.37119 244.31 5.46677C245.291 6.56236 245.782 8.06627 245.782 9.98299V18.2969H241.367V10.4962C241.367 9.53895 241.109 8.79369 240.593 8.26263C240.094 7.71595 239.423 7.4415 238.579 7.4415C237.686 7.4415 236.972 7.72265 236.438 8.28941C235.921 8.85393 235.663 9.65721 235.663 10.7015V18.2969H231.248V3.97847H235.663V6.59582C236.076 5.74122 236.687 5.06513 237.495 4.56977C238.321 4.07442 239.286 3.82451 240.386 3.82451Z" fill="#072C47"/>
<path d="M104.979 43.9573L102.862 41.418C102.689 41.6925 102.543 41.9044 102.422 42.0606C102.043 42.6943 101.484 43.1986 100.745 43.5735C100.023 43.9506 99.1786 44.138 98.2156 44.138C96.9945 44.138 95.935 43.8903 95.0417 43.395C94.164 42.8996 93.4928 42.2325 93.0282 41.3935C92.5635 40.5389 92.3301 39.5794 92.3301 38.5195C92.3301 37.0312 92.7251 35.8174 93.5175 34.8757C94.3099 33.9185 95.3245 33.3629 96.5635 33.2089L96.2538 32.6957C95.9777 32.2673 95.7712 31.8411 95.6342 31.4127C95.4973 30.9843 95.4277 30.5157 95.4277 30.0025C95.4277 29.2327 95.6342 28.5142 96.0473 27.847C96.4603 27.1799 97.0619 26.6488 97.8542 26.2561C98.6623 25.8455 99.6275 25.6403 100.745 25.6403C102.312 25.6403 103.524 25.9727 104.384 26.6421C105.244 27.2914 105.83 28.1483 106.139 29.2082C106.38 29.9601 106.476 30.7902 106.424 31.6961H102.319C102.319 31.406 102.301 31.0892 102.267 30.7455C102.216 29.7705 101.733 29.284 100.822 29.284C100.442 29.284 100.133 29.3956 99.8924 29.6165C99.6679 29.8396 99.5579 30.1208 99.5579 30.4622C99.5579 30.7522 99.6185 31.0178 99.7375 31.2588C99.8744 31.4975 100.09 31.8144 100.384 32.2093L109.419 43.9617H104.979V43.9573ZM98.2695 40.4942C98.8711 40.4942 99.3627 40.3068 99.7398 39.9297C100.135 39.5526 100.332 39.0751 100.332 38.4927C100.332 37.9104 100.117 37.3972 99.6859 37.0044C99.2549 36.6117 98.7386 36.4131 98.1371 36.4131C97.5355 36.4131 97.0439 36.5849 96.6668 36.9263C96.3054 37.2677 96.1236 37.7564 96.1236 38.3879C96.1236 39.0193 96.3211 39.5348 96.7184 39.9275C97.1314 40.3046 97.6477 40.492 98.2673 40.492L98.2695 40.4942Z" fill="#072C47"/>
<path d="M125.155 29.4581C126.343 29.4581 127.4 29.7571 128.329 30.3573C129.276 30.9397 130.015 31.7853 130.549 32.8966C131.099 33.9921 131.375 35.2908 131.375 36.7969C131.375 38.3031 131.099 39.5861 130.549 40.6973C130.015 41.8085 129.276 42.6653 128.329 43.2633C127.4 43.8457 126.343 44.1358 125.155 44.1358C124.053 44.1358 123.108 43.8881 122.316 43.3927C121.523 42.8974 120.946 42.2213 120.585 41.3645V50.7829H116.172V29.6388H120.585V32.2316C120.946 31.377 121.523 30.7009 122.316 30.2033C123.108 29.708 124.053 29.4581 125.155 29.4581ZM123.736 33.3071C122.807 33.3071 122.042 33.624 121.44 34.2577C120.854 34.8735 120.562 35.7214 120.562 36.7969C120.562 37.8724 120.854 38.7047 121.44 39.3384C122.042 39.9721 122.807 40.2867 123.736 40.2867C124.666 40.2867 125.44 39.9788 126.008 39.363C126.594 38.7471 126.886 37.8925 126.886 36.7969C126.886 35.7013 126.594 34.8467 126.008 34.2309C125.44 33.615 124.684 33.3071 123.736 33.3071Z" fill="#072C47"/>
<path d="M139.138 29.4581C140.24 29.4581 141.185 29.7057 141.978 30.2033C142.77 30.6987 143.354 31.3748 143.733 32.2316V29.6388H148.121V43.9573H143.733V41.3645C143.354 42.2191 142.77 42.8952 141.978 43.3927C141.185 43.8881 140.24 44.1358 139.138 44.1358C137.951 44.1358 136.885 43.8457 135.937 43.2633C135.008 42.6653 134.267 41.8085 133.717 40.6973C133.183 39.5861 132.916 38.2852 132.916 36.7969C132.916 35.3086 133.183 33.9921 133.717 32.8966C134.267 31.7853 135.008 30.9374 135.937 30.3573C136.885 29.7593 137.951 29.4581 139.138 29.4581ZM140.559 33.3071C139.612 33.3071 138.846 33.615 138.263 34.2309C137.695 34.8467 137.412 35.7013 137.412 36.7969C137.412 37.8925 137.695 38.7471 138.263 39.363C138.849 39.9788 139.614 40.2867 140.559 40.2867C141.504 40.2867 142.245 39.9699 142.831 39.3384C143.432 38.7047 143.735 37.859 143.735 36.7969C143.735 35.7348 143.435 34.8735 142.831 34.2577C142.245 33.624 141.488 33.3071 140.559 33.3071Z" fill="#072C47"/>
<path d="M155.578 32.332C156.128 31.4596 156.835 30.7679 157.694 30.2524C158.572 29.7392 159.519 29.4826 160.534 29.4826V34.1773H159.268C158.098 34.1773 157.185 34.425 156.532 34.9226C155.894 35.418 155.575 36.2569 155.575 37.4373V43.955H151.16V29.6366H155.575V32.3298L155.578 32.332Z" fill="#072C47"/>
<path d="M170.537 40.1863V43.9573H168.551C166.865 43.9573 165.547 43.5467 164.602 42.7256C163.673 41.8866 163.208 40.5099 163.208 38.5954V33.3361H161.273V29.641H163.208V26.1245H167.621V29.641H170.513V33.3361H167.621V38.6735C167.621 39.238 167.734 39.6307 167.956 39.8538C168.196 40.077 168.593 40.1863 169.143 40.1863H170.537Z" fill="#072C47"/>
<path d="M182.156 29.4848C183.808 29.4848 185.116 30.0315 186.079 31.1271C187.06 32.2227 187.55 33.7266 187.55 35.6433V43.9573H183.134V36.1565C183.134 35.1993 182.876 34.454 182.36 33.9252C181.862 33.3785 181.19 33.1041 180.346 33.1041C179.451 33.1041 178.737 33.3852 178.205 33.9497C177.689 34.5143 177.431 35.3175 177.431 36.3618V43.9573H173.018V29.6388H177.431V32.2561C177.844 31.4015 178.454 30.7255 179.262 30.2301C180.088 29.7347 181.051 29.4848 182.153 29.4848H182.156Z" fill="#072C47"/>
<path d="M204.144 36.4131C204.144 36.7724 204.101 37.1651 204.014 37.5935H194.023C194.074 38.6712 194.35 39.45 194.849 39.9297C195.347 40.3916 195.985 40.6214 196.759 40.6214C197.412 40.6214 197.955 40.4585 198.384 40.135C198.815 39.8092 199.098 39.3897 199.237 38.8765H203.91C203.722 39.8851 203.309 40.7932 202.671 41.5965C202.034 42.3842 201.226 43.0067 200.245 43.4708C199.264 43.9149 198.171 44.138 196.968 44.138C195.556 44.138 194.301 43.8479 193.199 43.2656C192.115 42.6676 191.264 41.8107 190.642 40.6995C190.023 39.5883 189.713 38.2875 189.713 36.7992C189.713 35.3109 190.014 33.9944 190.615 32.8988C191.235 31.7876 192.094 30.9397 193.197 30.3595C194.299 29.7615 195.554 29.4603 196.965 29.4603C198.377 29.4603 199.65 29.7504 200.734 30.3327C201.818 30.9151 202.653 31.7363 203.239 32.7961C203.841 33.8404 204.142 35.0453 204.142 36.4131H204.144ZM199.677 35.746C199.695 34.8043 199.437 34.1037 198.903 33.6418C198.386 33.1621 197.74 32.9233 196.968 32.9233C196.196 32.9233 195.488 33.1621 194.954 33.6418C194.42 34.1216 194.119 34.8222 194.052 35.746H199.679H199.677Z" fill="#072C47"/>
<path d="M210.859 32.332C211.409 31.4596 212.116 30.7679 212.976 30.2524C213.853 29.7392 214.801 29.4826 215.815 29.4826V34.1773H214.549C213.38 34.1773 212.466 34.425 211.813 34.9226C211.175 35.418 210.857 36.2569 210.857 37.4373V43.955H206.441V29.6366H210.857V32.3298L210.859 32.332Z" fill="#072C47"/>
<path d="M222.903 29.4581C224.726 29.4581 226.18 29.911 227.264 30.8192C228.367 31.7251 229.056 32.9233 229.33 34.4116H225.199C225.08 33.8292 224.804 33.3763 224.373 33.0505C223.96 32.7091 223.435 32.5373 222.8 32.5373C222.302 32.5373 221.922 32.6489 221.664 32.872C221.406 33.0773 221.276 33.3763 221.276 33.769C221.276 34.213 221.509 34.5477 221.974 34.7709C222.456 34.994 223.204 35.2149 224.221 35.438C225.323 35.6946 226.225 35.9602 226.932 36.2324C227.637 36.489 228.248 36.9174 228.764 37.5154C229.28 38.1134 229.538 38.9189 229.538 39.9275C229.538 40.7486 229.316 41.476 228.867 42.1075C228.42 42.7412 227.774 43.2365 226.932 43.5958C226.088 43.955 225.089 44.1335 223.938 44.1335C221.994 44.1335 220.436 43.7051 219.264 42.8505C218.095 41.9959 217.379 40.7732 217.123 39.1822H221.381C221.451 39.7981 221.709 40.2689 222.156 40.5924C222.62 40.9182 223.213 41.0788 223.936 41.0788C224.434 41.0788 224.813 40.9673 225.071 40.7464C225.33 40.5076 225.458 40.1997 225.458 39.8226C225.458 39.3272 225.217 38.9769 224.735 38.7716C224.27 38.5485 223.505 38.3187 222.438 38.0777C221.372 37.8546 220.495 37.6158 219.805 37.3592C219.116 37.1026 218.524 36.692 218.025 36.1275C217.527 35.5451 217.276 34.7597 217.276 33.7668C217.276 32.4837 217.767 31.4484 218.748 30.6607C219.729 29.8575 221.114 29.4558 222.903 29.4558V29.4581Z" fill="#072C47"/>
<path d="M94.9972 64.1174C94.3956 64.1174 93.8726 63.9902 93.4304 63.7336C92.9927 63.4792 92.6537 63.1133 92.4158 62.638C92.1756 62.1627 92.0566 61.6049 92.0566 60.9667C92.0566 60.3286 92.1734 59.7752 92.4068 59.3044C92.647 58.8291 92.9882 58.4632 93.4304 58.2088C93.8748 57.9544 94.3956 57.825 94.9972 57.825C95.5987 57.825 96.1173 57.9522 96.555 58.2088C96.9994 58.4632 97.3361 58.8291 97.5696 59.3044C97.8098 59.7752 97.9287 60.3286 97.9287 60.9667C97.9287 61.6049 97.8098 62.1627 97.5696 62.638C97.3294 63.1133 96.9882 63.4792 96.546 63.7336C96.1083 63.988 95.592 64.1174 94.9972 64.1174ZM94.9972 63.2204C95.5628 63.2204 96.0028 63.0263 96.3193 62.638C96.6403 62.2497 96.8019 61.6919 96.8019 60.9667C96.8019 60.2415 96.6425 59.6882 96.3193 59.3044C96.005 58.9161 95.5628 58.722 94.9972 58.722C94.4315 58.722 93.9781 58.9161 93.6571 59.3044C93.3428 59.6882 93.1835 60.2415 93.1835 60.9667C93.1835 61.6919 93.3406 62.2497 93.6571 62.638C93.9781 63.0263 94.4248 63.2204 94.9972 63.2204Z" fill="#8395A3"/>
<path d="M105.62 63.3342C105.689 63.439 105.725 63.5394 105.725 63.6376C105.725 63.7715 105.669 63.8808 105.559 63.9679C105.454 64.0549 105.328 64.0995 105.182 64.0995C105.088 64.0995 104.998 64.0794 104.91 64.0393C104.83 63.9924 104.758 63.9255 104.699 63.8384L103.534 62.0802C103.418 61.895 103.292 61.7633 103.157 61.6874C103.029 61.6116 102.859 61.5736 102.65 61.5736H101.792V63.5238C101.792 63.6979 101.743 63.8362 101.644 63.9411C101.546 64.0393 101.411 64.0884 101.243 64.0884C101.074 64.0884 100.937 64.0393 100.832 63.9411C100.733 63.8362 100.684 63.6979 100.684 63.5238V58.4319C100.684 58.2646 100.731 58.1329 100.823 58.0392C100.922 57.9455 101.056 57.9009 101.225 57.9009H103.413C104.113 57.9009 104.645 58.0571 105.007 58.3717C105.375 58.6796 105.559 59.1259 105.559 59.7127C105.559 60.188 105.422 60.5807 105.148 60.8864C104.879 61.1876 104.497 61.3817 104.001 61.4688C104.17 61.5089 104.32 61.5826 104.448 61.6874C104.576 61.7923 104.702 61.9373 104.825 62.1225L105.622 63.3319L105.62 63.3342ZM103.256 60.7146C103.682 60.7146 103.994 60.6365 104.192 60.4803C104.39 60.3174 104.491 60.072 104.491 59.7395C104.491 59.407 104.392 59.1593 104.192 59.0076C103.994 58.8514 103.682 58.7733 103.256 58.7733H101.786V60.7146H103.256Z" fill="#8395A3"/>
<path d="M113.042 60.7235C113.177 60.7235 113.285 60.7637 113.365 60.8462C113.446 60.9221 113.489 61.0225 113.489 61.1497V63.0218C113.489 63.2896 113.453 63.477 113.383 63.5863C113.314 63.6957 113.17 63.7871 112.955 63.8563C112.721 63.9366 112.45 64.0014 112.14 64.0482C111.83 64.0951 111.534 64.1174 111.246 64.1174C110.611 64.1174 110.059 63.9924 109.592 63.7425C109.125 63.4926 108.766 63.1334 108.515 62.6625C108.27 62.1873 108.146 61.6205 108.146 60.9645C108.146 60.3085 108.27 59.764 108.515 59.2932C108.766 58.818 109.118 58.4543 109.574 58.2043C110.03 57.95 110.566 57.8206 111.186 57.8206C112.01 57.8206 112.683 58.0415 113.208 58.481C113.278 58.5457 113.327 58.6082 113.356 58.6729C113.392 58.7376 113.408 58.8113 113.408 58.8983C113.408 59.0255 113.372 59.1326 113.303 59.2196C113.233 59.3066 113.148 59.349 113.049 59.349C112.984 59.349 112.925 59.3401 112.874 59.3222C112.822 59.2999 112.759 59.2642 112.69 59.2174C112.434 59.0366 112.194 58.9117 111.971 58.8425C111.749 58.7666 111.498 58.7287 111.219 58.7287C110.584 58.7287 110.102 58.9184 109.776 59.2955C109.455 59.6659 109.296 60.2215 109.296 60.9578C109.296 62.4662 109.96 63.2204 111.291 63.2204C111.689 63.2204 112.086 63.1646 112.481 63.0553V61.5156H111.491C111.352 61.5156 111.24 61.4799 111.159 61.4108C111.083 61.3416 111.044 61.2434 111.044 61.114C111.044 60.9846 111.083 60.8886 111.159 60.8172C111.24 60.7481 111.352 60.7124 111.491 60.7124H113.04L113.042 60.7235Z" fill="#8395A3"/>
<path d="M121.968 63.3699C122.004 63.4457 122.02 63.5216 122.02 63.5952C122.02 63.7291 121.964 63.8429 121.854 63.9344C121.748 64.0281 121.627 64.0727 121.485 64.0727C121.391 64.0727 121.304 64.0504 121.223 64.0036C121.142 63.9522 121.077 63.8741 121.03 63.7693L120.505 62.6023H117.423L116.897 63.7693C116.85 63.8741 116.787 63.9522 116.704 64.0036C116.623 64.0504 116.531 64.0727 116.433 64.0727C116.298 64.0727 116.177 64.0259 116.065 63.9344C115.955 63.8407 115.898 63.7291 115.898 63.5952C115.898 63.5194 115.916 63.4435 115.95 63.3699L118.365 58.2088C118.417 58.0928 118.496 58.0057 118.601 57.9477C118.711 57.883 118.828 57.8518 118.951 57.8518C119.075 57.8518 119.187 57.883 119.292 57.9477C119.402 58.0057 119.485 58.0928 119.537 58.2088L121.961 63.3699H121.968ZM117.811 61.7343H120.123L118.967 59.1504L117.811 61.7343Z" fill="#8395A3"/>
<path d="M129.158 57.8607C129.322 57.8607 129.45 57.912 129.544 58.0169C129.643 58.1151 129.692 58.249 129.692 58.4163V63.5238C129.692 63.6912 129.643 63.8273 129.544 63.9322C129.445 64.037 129.317 64.0884 129.158 64.0884C128.971 64.0884 128.828 64.0214 128.729 63.8876L125.535 59.7551V63.5238C125.535 63.6912 125.488 63.8273 125.396 63.9322C125.301 64.037 125.173 64.0884 125.01 64.0884C124.846 64.0884 124.718 64.037 124.624 63.9322C124.529 63.8273 124.484 63.6912 124.484 63.5238V58.4163C124.484 58.249 124.534 58.1151 124.633 58.0169C124.731 57.912 124.864 57.8607 125.028 57.8607C125.209 57.8607 125.349 57.9277 125.447 58.0615L128.635 62.1783V58.4186C128.635 58.2512 128.682 58.1173 128.774 58.0191C128.873 57.9143 129.001 57.863 129.16 57.863L129.158 57.8607Z" fill="#8395A3"/>
<path d="M133.196 64.0906C133.027 64.0906 132.89 64.0393 132.785 63.9344C132.686 63.8295 132.637 63.6934 132.637 63.5261V58.4185C132.637 58.2512 132.686 58.1173 132.785 58.0191C132.89 57.9143 133.027 57.8629 133.196 57.8629C133.364 57.8629 133.508 57.9143 133.606 58.0191C133.712 58.1173 133.764 58.2512 133.764 58.4185V63.5261C133.764 63.6934 133.712 63.8295 133.606 63.9344C133.508 64.0393 133.371 64.0906 133.196 64.0906Z" fill="#8395A3"/>
<path d="M138.85 64.1174C138.401 64.1174 137.974 64.0594 137.572 63.9433C137.175 63.8206 136.852 63.6599 136.6 63.4569C136.466 63.3587 136.398 63.2181 136.398 63.0396C136.398 62.9169 136.434 62.8143 136.504 62.7272C136.58 62.6335 136.668 62.5889 136.767 62.5889C136.872 62.5889 136.991 62.6291 137.126 62.7116C137.377 62.8924 137.64 63.0218 137.914 63.1043C138.187 63.1847 138.49 63.2271 138.825 63.2271C139.251 63.2271 139.577 63.1534 139.806 63.0084C140.033 62.8567 140.147 62.6402 140.147 62.3546C140.147 62.1337 140.039 61.9664 139.824 61.8503C139.613 61.7276 139.26 61.6116 138.764 61.5022C138.25 61.3929 137.833 61.2635 137.512 61.1185C137.191 60.9734 136.948 60.7882 136.785 60.5606C136.621 60.3353 136.54 60.0474 136.54 59.6993C136.54 59.3512 136.643 59.0188 136.845 58.7332C137.049 58.4498 137.332 58.2289 137.694 58.0727C138.062 57.9098 138.473 57.8295 138.928 57.8295C139.763 57.8295 140.443 58.0504 140.969 58.4899C141.045 58.5546 141.097 58.6171 141.126 58.6818C141.162 58.7398 141.177 58.8157 141.177 58.9072C141.177 59.0299 141.139 59.137 141.063 59.2285C140.993 59.3155 140.908 59.3579 140.809 59.3579C140.751 59.3579 140.695 59.349 140.643 59.3312C140.596 59.3133 140.533 59.2821 140.45 59.2352C140.21 59.0612 139.976 58.934 139.75 58.8514C139.528 58.7644 139.254 58.7198 138.926 58.7198C138.529 58.7198 138.214 58.8001 137.981 58.963C137.754 59.1192 137.64 59.3401 137.64 59.6235C137.64 59.8622 137.743 60.0452 137.945 60.1724C138.149 60.2996 138.497 60.42 138.987 60.5294C139.505 60.6454 139.927 60.7771 140.248 60.9221C140.576 61.0604 140.823 61.2412 140.993 61.4621C141.168 61.683 141.256 61.9574 141.256 62.2899C141.256 62.6491 141.153 62.9682 140.951 63.2471C140.753 63.5194 140.468 63.7336 140.102 63.892C139.741 64.0437 139.323 64.1174 138.85 64.1174Z" fill="#8395A3"/>
<path d="M149.441 63.3699C149.477 63.4457 149.492 63.5216 149.492 63.5952C149.492 63.7291 149.436 63.8429 149.326 63.9344C149.221 64.0281 149.1 64.0727 148.958 64.0727C148.864 64.0727 148.776 64.0504 148.695 64.0036C148.615 63.9522 148.55 63.8741 148.502 63.7693L147.977 62.6023H144.895L144.37 63.7693C144.323 63.8741 144.26 63.9522 144.177 64.0036C144.096 64.0504 144.004 64.0727 143.905 64.0727C143.771 64.0727 143.649 64.0259 143.537 63.9344C143.427 63.8407 143.371 63.7291 143.371 63.5952C143.371 63.5194 143.389 63.4435 143.423 63.3699L145.838 58.2088C145.89 58.0928 145.97 58.0057 146.074 57.9477C146.184 57.883 146.3 57.8518 146.424 57.8518C146.547 57.8518 146.66 57.883 146.765 57.9477C146.875 58.0057 146.958 58.0928 147.01 58.2088L149.434 63.3699H149.441ZM145.284 61.7343H147.596L146.44 59.1504L145.284 61.7343Z" fill="#8395A3"/>
<path d="M153.218 64.0839C153.043 64.0839 152.904 64.0348 152.798 63.9366C152.7 63.8318 152.65 63.6956 152.65 63.5283V58.8291H151.057C150.706 58.8291 150.531 58.6751 150.531 58.3672C150.531 58.0593 150.706 57.9053 151.057 57.9053H155.373C155.723 57.9053 155.898 58.0593 155.898 58.3672C155.898 58.6751 155.723 58.8291 155.373 58.8291H153.779V63.5283C153.779 63.6956 153.728 63.8318 153.622 63.9366C153.523 64.0348 153.389 64.0839 153.22 64.0839H153.218Z" fill="#8395A3"/>
<path d="M158.739 64.0906C158.57 64.0906 158.433 64.0393 158.328 63.9344C158.229 63.8295 158.18 63.6934 158.18 63.5261V58.4185C158.18 58.2512 158.229 58.1173 158.328 58.0191C158.433 57.9143 158.57 57.8629 158.739 57.8629C158.907 57.8629 159.051 57.9143 159.149 58.0191C159.255 58.1173 159.307 58.2512 159.307 58.4185V63.5261C159.307 63.6934 159.255 63.8295 159.149 63.9344C159.051 64.0393 158.914 64.0906 158.739 64.0906Z" fill="#8395A3"/>
<path d="M162.799 64.0393C162.63 64.0393 162.496 63.9924 162.397 63.9009C162.303 63.8072 162.258 63.6778 162.258 63.5082V58.4342C162.258 58.2668 162.305 58.1352 162.397 58.0414C162.496 57.9477 162.63 57.9031 162.799 57.9031H165.959C166.128 57.9031 166.26 57.941 166.354 58.0169C166.449 58.0928 166.494 58.1999 166.494 58.3382C166.494 58.4766 166.446 58.5971 166.354 58.6774C166.26 58.7532 166.13 58.7912 165.959 58.7912H163.36V60.4803H165.784C165.953 60.4803 166.085 60.5182 166.179 60.5941C166.274 60.67 166.318 60.7793 166.318 60.9243C166.318 61.0694 166.271 61.172 166.179 61.2456C166.085 61.3215 165.955 61.3594 165.784 61.3594H163.36V63.1512H165.959C166.128 63.1512 166.26 63.1914 166.354 63.2739C166.449 63.3498 166.494 63.4591 166.494 63.6042C166.494 63.7492 166.446 63.8518 166.354 63.9255C166.26 64.0013 166.13 64.0393 165.959 64.0393H162.799Z" fill="#8395A3"/>
<path d="M173.345 62.1426C173.177 62.1426 173.047 62.1047 172.959 62.0288C172.879 61.953 172.836 61.8481 172.836 61.7164C172.836 61.5848 172.876 61.4777 172.959 61.4041C173.047 61.3237 173.175 61.2813 173.345 61.2813H175.148C175.316 61.2813 175.442 61.3215 175.525 61.4041C175.613 61.4799 175.655 61.5848 175.655 61.7164C175.655 61.8481 175.61 61.9552 175.525 62.0288C175.444 62.1047 175.319 62.1426 175.148 62.1426H173.345Z" fill="#8395A3"/>
<path d="M188.005 63.3699C188.041 63.4457 188.057 63.5216 188.057 63.5952C188.057 63.7291 188.001 63.8429 187.891 63.9344C187.785 64.0281 187.664 64.0727 187.523 64.0727C187.428 64.0727 187.341 64.0504 187.26 64.0036C187.179 63.9522 187.114 63.8741 187.067 63.7693L186.542 62.6023H183.46L182.934 63.7693C182.887 63.8741 182.824 63.9522 182.741 64.0036C182.661 64.0504 182.569 64.0727 182.47 64.0727C182.335 64.0727 182.214 64.0259 182.102 63.9344C181.992 63.8407 181.936 63.7291 181.936 63.5952C181.936 63.5194 181.953 63.4435 181.987 63.3699L184.402 58.2088C184.454 58.0928 184.535 58.0057 184.638 57.9477C184.748 57.883 184.865 57.8518 184.988 57.8518C185.112 57.8518 185.224 57.883 185.329 57.9477C185.439 58.0057 185.523 58.0928 185.574 58.2088L187.998 63.3699H188.005ZM183.846 61.7343H186.158L185.002 59.1504L183.846 61.7343Z" fill="#8395A3"/>
<path d="M191.064 64.0393C190.896 64.0393 190.761 63.9924 190.663 63.9009C190.568 63.8072 190.523 63.6778 190.523 63.5082V58.4342C190.523 58.2668 190.571 58.1352 190.663 58.0414C190.761 57.9477 190.896 57.9031 191.064 57.9031H192.797C193.807 57.9031 194.589 58.1731 195.143 58.7131C195.704 59.2464 195.982 59.9983 195.982 60.9667C195.982 61.9351 195.702 62.6982 195.143 63.2382C194.589 63.7715 193.807 64.0393 192.797 64.0393H191.064ZM192.728 63.1244C194.146 63.1244 194.856 62.4059 194.856 60.9667C194.856 59.5275 194.146 58.818 192.728 58.818H191.65V63.1244H192.728Z" fill="#8395A3"/>
<path d="M203.072 58.1485C203.166 57.9522 203.321 57.8518 203.537 57.8518C203.682 57.8518 203.813 57.8986 203.932 57.9901C204.048 58.0838 204.107 58.1999 204.107 58.3382C204.107 58.4029 204.089 58.4743 204.055 58.5569L201.631 63.7425C201.579 63.8518 201.496 63.9389 201.386 64.0036C201.281 64.0616 201.168 64.0906 201.045 64.0906C200.921 64.0906 200.805 64.0616 200.695 64.0036C200.589 63.9389 200.511 63.8518 200.459 63.7425L198.044 58.5569C198.008 58.4766 197.992 58.4051 197.992 58.3471C197.992 58.2021 198.051 58.0838 198.167 57.9901C198.291 57.8964 198.428 57.8518 198.578 57.8518C198.677 57.8518 198.767 57.8786 198.85 57.9299C198.937 57.9767 199.005 58.0481 199.052 58.1463L201.065 62.5934L203.079 58.1463L203.072 58.1485Z" fill="#8395A3"/>
<path d="M207.002 64.0906C206.834 64.0906 206.697 64.0393 206.592 63.9344C206.493 63.8295 206.443 63.6934 206.443 63.5261V58.4185C206.443 58.2512 206.493 58.1173 206.592 58.0191C206.697 57.9143 206.834 57.8629 207.002 57.8629C207.171 57.8629 207.314 57.9143 207.413 58.0191C207.519 58.1173 207.57 58.2512 207.57 58.4185V63.5261C207.57 63.6934 207.519 63.8295 207.413 63.9344C207.314 64.0393 207.177 64.0906 207.002 64.0906Z" fill="#8395A3"/>
<path d="M212.654 64.1174C212.205 64.1174 211.779 64.0594 211.377 63.9433C210.98 63.8206 210.657 63.6599 210.405 63.4569C210.27 63.3587 210.203 63.2181 210.203 63.0396C210.203 62.9169 210.239 62.8143 210.309 62.7272C210.385 62.6335 210.472 62.5889 210.571 62.5889C210.677 62.5889 210.796 62.6291 210.93 62.7116C211.182 62.8924 211.444 63.0218 211.718 63.1043C211.992 63.1847 212.295 63.2271 212.63 63.2271C213.056 63.2271 213.382 63.1534 213.611 63.0084C213.837 62.8567 213.952 62.6402 213.952 62.3546C213.952 62.1337 213.844 61.9664 213.629 61.8503C213.418 61.7276 213.065 61.6116 212.569 61.5022C212.055 61.3929 211.637 61.2635 211.316 61.1185C210.995 60.9734 210.753 60.7882 210.589 60.5606C210.425 60.3353 210.345 60.0474 210.345 59.6993C210.345 59.3512 210.448 59.0188 210.65 58.7332C210.854 58.4498 211.137 58.2289 211.498 58.0727C211.866 57.9098 212.277 57.8295 212.733 57.8295C213.568 57.8295 214.248 58.0504 214.773 58.4899C214.85 58.5546 214.901 58.6171 214.93 58.6818C214.966 58.7398 214.982 58.8157 214.982 58.9072C214.982 59.0299 214.944 59.137 214.868 59.2285C214.798 59.3155 214.713 59.3579 214.614 59.3579C214.556 59.3579 214.499 59.349 214.448 59.3312C214.401 59.3133 214.338 59.2821 214.255 59.2352C214.015 59.0612 213.781 58.934 213.554 58.8514C213.332 58.7644 213.058 58.7198 212.731 58.7198C212.333 58.7198 212.019 58.8001 211.786 58.963C211.559 59.1192 211.444 59.3401 211.444 59.6235C211.444 59.8622 211.548 60.0452 211.75 60.1724C211.954 60.2996 212.302 60.42 212.791 60.5294C213.31 60.6454 213.732 60.7771 214.053 60.9221C214.38 61.0604 214.627 61.2412 214.798 61.4621C214.973 61.683 215.061 61.9574 215.061 62.2899C215.061 62.6491 214.957 62.9682 214.755 63.2471C214.558 63.5194 214.273 63.7336 213.907 63.892C213.545 64.0437 213.128 64.1174 212.654 64.1174Z" fill="#8395A3"/>
<path d="M218.256 64.0393C218.087 64.0393 217.953 63.9924 217.854 63.9009C217.76 63.8072 217.715 63.6778 217.715 63.5082V58.4342C217.715 58.2668 217.762 58.1352 217.854 58.0414C217.953 57.9477 218.087 57.9031 218.256 57.9031H221.416C221.585 57.9031 221.717 57.941 221.811 58.0169C221.906 58.0928 221.951 58.1999 221.951 58.3382C221.951 58.4766 221.903 58.5971 221.811 58.6774C221.717 58.7532 221.587 58.7912 221.416 58.7912H218.817V60.4803H221.241C221.41 60.4803 221.542 60.5182 221.636 60.5941C221.731 60.67 221.775 60.7793 221.775 60.9243C221.775 61.0694 221.728 61.172 221.636 61.2456C221.542 61.3215 221.412 61.3594 221.241 61.3594H218.817V63.1512H221.416C221.585 63.1512 221.717 63.1914 221.811 63.2739C221.906 63.3498 221.951 63.4591 221.951 63.6042C221.951 63.7492 221.903 63.8518 221.811 63.9255C221.717 64.0013 221.587 64.0393 221.416 64.0393H218.256Z" fill="#8395A3"/>
<path d="M227.029 64.1174C226.182 64.1174 225.54 63.8987 225.103 63.4636C224.665 63.0285 224.447 62.3926 224.447 61.558V58.4163C224.447 58.249 224.497 58.1151 224.595 58.0169C224.694 57.912 224.829 57.8607 224.997 57.8607C225.166 57.8607 225.3 57.912 225.401 58.0169C225.5 58.1151 225.549 58.249 225.549 58.4163V61.6183C225.549 62.1471 225.675 62.5465 225.927 62.8187C226.176 63.0865 226.544 63.2182 227.029 63.2182C227.513 63.2182 227.873 63.082 228.124 62.8098C228.373 62.5376 228.499 62.1404 228.499 61.6183V58.4163C228.499 58.249 228.548 58.1151 228.649 58.0169C228.748 57.912 228.883 57.8607 229.051 57.8607C229.219 57.8607 229.354 57.912 229.453 58.0169C229.554 58.1151 229.603 58.249 229.603 58.4163V61.558C229.603 62.3881 229.383 63.024 228.946 63.4636C228.508 63.8987 227.868 64.1174 227.029 64.1174Z" fill="#8395A3"/>
<path d="M237.454 63.3342C237.523 63.439 237.557 63.5394 237.557 63.6376C237.557 63.7715 237.503 63.8808 237.391 63.9679C237.286 64.0549 237.162 64.0995 237.016 64.0995C236.922 64.0995 236.832 64.0794 236.745 64.0393C236.662 63.9924 236.592 63.9255 236.534 63.8384L235.369 62.0802C235.252 61.895 235.126 61.7633 234.994 61.6874C234.864 61.6116 234.695 61.5736 234.484 61.5736H233.627V63.5238C233.627 63.6979 233.577 63.8362 233.479 63.9411C233.38 64.0393 233.245 64.0884 233.077 64.0884C232.908 64.0884 232.769 64.0393 232.664 63.9411C232.565 63.8362 232.516 63.6979 232.516 63.5238V58.4319C232.516 58.2646 232.563 58.1329 232.655 58.0392C232.756 57.9455 232.888 57.9009 233.059 57.9009H235.247C235.948 57.9009 236.477 58.0571 236.841 58.3717C237.207 58.6796 237.391 59.1259 237.391 59.7127C237.391 60.188 237.254 60.5807 236.98 60.8864C236.711 61.1876 236.329 61.3817 235.833 61.4688C236.002 61.5089 236.152 61.5826 236.28 61.6874C236.408 61.7923 236.534 61.9373 236.657 62.1225L237.454 63.3319V63.3342ZM235.09 60.7146C235.515 60.7146 235.827 60.6365 236.026 60.4803C236.224 60.3174 236.323 60.072 236.323 59.7395C236.323 59.407 236.224 59.1593 236.026 59.0076C235.827 58.8514 235.515 58.7733 235.09 58.7733H233.618V60.7146H235.09Z" fill="#8395A3"/>
<path d="M242.324 64.1174C241.875 64.1174 241.449 64.0594 241.047 63.9433C240.65 63.8206 240.326 63.6599 240.075 63.4569C239.94 63.3587 239.873 63.2181 239.873 63.0396C239.873 62.9169 239.909 62.8143 239.979 62.7272C240.055 62.6335 240.142 62.5889 240.241 62.5889C240.347 62.5889 240.466 62.6291 240.6 62.7116C240.852 62.8924 241.114 63.0218 241.388 63.1043C241.662 63.1847 241.967 63.2271 242.3 63.2271C242.726 63.2271 243.052 63.1534 243.28 63.0084C243.507 62.8567 243.622 62.6402 243.622 62.3546C243.622 62.1337 243.514 61.9664 243.296 61.8503C243.087 61.7276 242.733 61.6116 242.237 61.5022C241.725 61.3929 241.307 61.2635 240.986 61.1185C240.665 60.9734 240.423 60.7882 240.259 60.5606C240.095 60.333 240.014 60.0474 240.014 59.6993C240.014 59.3512 240.115 59.0188 240.32 58.7332C240.524 58.4498 240.807 58.2289 241.17 58.0727C241.536 57.9098 241.949 57.8295 242.405 57.8295C243.238 57.8295 243.918 58.0504 244.443 58.4899C244.52 58.5546 244.571 58.6171 244.6 58.6818C244.636 58.7398 244.654 58.8157 244.654 58.9072C244.654 59.0299 244.616 59.137 244.54 59.2285C244.47 59.3155 244.385 59.3579 244.286 59.3579C244.228 59.3579 244.172 59.349 244.12 59.3312C244.073 59.3133 244.01 59.2821 243.927 59.2352C243.689 59.0612 243.456 58.934 243.227 58.8514C243.004 58.7644 242.731 58.7198 242.405 58.7198C242.008 58.7198 241.691 58.8001 241.458 58.963C241.231 59.1192 241.117 59.3401 241.117 59.6235C241.117 59.8622 241.22 60.0452 241.424 60.1724C241.628 60.2996 241.974 60.42 242.466 60.5294C242.984 60.6454 243.404 60.7771 243.725 60.9221C244.053 61.0604 244.302 61.2412 244.47 61.4621C244.645 61.683 244.733 61.9574 244.733 62.2899C244.733 62.6491 244.63 62.9682 244.425 63.2471C244.228 63.5194 243.945 63.7336 243.577 63.892C243.215 64.0437 242.798 64.1174 242.324 64.1174Z" fill="#8395A3"/>
</g>
<defs>
<clipPath id="clip0_5881_1541">
<rect width="245.783" height="80" fill="white"/>
</clipPath>
</defs>
</svg>
